<svg width="240" height="47" viewBox="0 0 240 47" fill="none" xmlns="http://www.w3.org/2000/svg">
<rect x="0.5" y="0.500977" width="239" height="46" rx="4.5" stroke="white"/>
<path d="M66.496 17.641C67.104 17.705 67.92 17.753 68.48 17.753H76.544C77.008 17.753 77.664 17.721 77.936 17.705C77.92 18.089 77.888 18.713 77.888 19.193V27.481C77.888 28.041 77.936 28.873 77.968 29.369H75.648C75.664 28.889 75.68 28.313 75.68 27.721V19.817H68.48C67.808 19.817 66.944 19.849 66.496 19.881V17.641ZM66.304 26.329C66.848 26.377 67.568 26.425 68.288 26.425H76.944V28.537H68.352C67.728 28.537 66.832 28.569 66.304 28.633V26.329ZM81.456 21.593C82.048 21.641 83.2 21.705 84.032 21.705C85.92 21.705 91.2 21.705 92.624 21.705C93.376 21.705 94.08 21.625 94.512 21.593V24.121C94.128 24.105 93.312 24.025 92.64 24.025C91.184 24.025 85.92 24.025 84.032 24.025C83.136 24.025 82.064 24.073 81.456 24.121V21.593ZM104.032 28.649C104.112 28.345 104.16 27.913 104.16 27.481C104.16 26.633 104.16 19.449 104.16 18.153C104.16 17.433 104.048 16.809 104.048 16.777H106.416C106.416 16.809 106.304 17.449 106.304 18.169C106.304 19.449 106.304 25.545 106.304 26.521C107.616 25.961 109.184 24.697 110.272 23.145L111.488 24.921C110.16 26.649 107.872 28.377 106.064 29.289C105.728 29.465 105.536 29.641 105.376 29.753L104.032 28.649ZM96.624 28.425C98.048 27.433 98.912 25.961 99.344 24.585C99.808 23.225 99.824 20.185 99.824 18.265C99.824 17.609 99.76 17.193 99.664 16.793H102.016C102.016 16.857 101.904 17.577 101.904 18.233C101.904 20.137 101.856 23.513 101.44 25.129C100.944 26.921 99.952 28.505 98.576 29.721L96.624 28.425ZM114.016 17.657C114.656 17.673 115.264 17.689 115.696 17.689C116.864 17.689 123.36 17.689 124.512 17.689C124.912 17.689 125.504 17.689 126.096 17.673C126.064 18.153 126.064 18.729 126.064 19.225C126.064 20.201 126.064 26.089 126.064 27.065C126.064 27.689 126.08 29.225 126.096 29.289H123.872C123.872 29.225 123.92 27.977 123.92 27.097C123.92 26.169 123.92 19.737 123.92 19.737H116.176C116.176 19.737 116.176 26.153 116.176 27.097C116.176 27.865 116.192 29.209 116.192 29.289H114C114 29.209 114.032 27.801 114.032 27.033C114.032 26.073 114.032 20.153 114.032 19.225C114.032 18.761 114.032 18.121 114.016 17.657ZM124.704 26.377V28.409H115.088V26.377H124.704ZM140.464 15.897C140.864 16.489 141.424 17.497 141.728 18.089L140.448 18.649C140.112 17.993 139.616 17.033 139.184 16.425L140.464 15.897ZM142.352 15.177C142.768 15.785 143.36 16.793 143.648 17.353L142.368 17.897C142.032 17.241 141.52 16.297 141.088 15.705L142.352 15.177ZM141.888 19.417C141.712 19.737 141.488 20.169 141.36 20.569C140.928 21.993 140.016 24.137 138.576 25.913C137.056 27.769 135.12 29.241 132.112 30.425L130.224 28.745C133.504 27.753 135.28 26.361 136.672 24.777C137.76 23.529 138.688 21.609 138.944 20.425H133.552L134.288 18.601C135.008 18.601 138.352 18.601 138.864 18.601C139.36 18.601 139.888 18.537 140.256 18.409L141.888 19.417ZM136.672 16.889C136.304 17.449 135.888 18.185 135.696 18.521C134.624 20.457 132.704 22.713 130.416 24.281L128.608 22.953C131.424 21.241 132.816 19.177 133.616 17.801C133.856 17.417 134.192 16.665 134.336 16.121L136.672 16.889ZM150.272 23.945H158.656V30.361H156.832V25.689H152.016V30.425H150.272V23.945ZM157.392 15.417L158.864 16.921C156.512 17.817 153.264 18.313 150.432 18.569C150.352 18.105 150.096 17.353 149.888 16.921C152.608 16.649 155.616 16.121 157.392 15.417ZM153.552 17.209H155.376V24.953H153.552V17.209ZM149.264 20.073H159.472V21.913H149.264V20.073ZM151.52 28.041H157.584V29.769H151.52V28.041ZM145.328 17.001L146.4 15.625C147.296 16.073 148.688 16.777 149.376 17.225L148.24 18.777C147.6 18.297 146.24 17.529 145.328 17.001ZM144.544 21.433L145.584 20.009C146.496 20.441 147.92 21.129 148.624 21.577L147.552 23.161C146.896 22.713 145.504 21.945 144.544 21.433ZM144.784 28.953C145.648 27.753 146.88 25.753 147.84 23.913L149.248 25.177C148.4 26.873 147.376 28.697 146.416 30.249L144.784 28.953ZM163.36 16.489H173.184V18.313H163.36V16.489ZM163.36 20.169H173.216V21.961H163.36V20.169ZM163.328 23.945H173.28V25.753H163.328V23.945ZM162.256 16.489H164.16V22.249C164.16 24.793 163.84 28.393 161.872 30.537C161.568 30.169 160.784 29.529 160.368 29.289C162.112 27.353 162.256 24.489 162.256 22.233V16.489ZM172.512 16.489H174.416V28.185C174.416 29.209 174.192 29.721 173.552 30.025C172.88 30.329 171.92 30.361 170.464 30.345C170.384 29.833 170.096 29.001 169.84 28.505C170.752 28.569 171.808 28.553 172.096 28.553C172.4 28.537 172.512 28.441 172.512 28.169V16.489ZM167.184 17.209H169.136V30.249H167.184V17.209Z" fill="white"/>
</svg>
