<svg width="240" height="47" viewBox="0 0 240 47" fill="none" xmlns="http://www.w3.org/2000/svg">
<rect x="0.5" y="0.500977" width="239" height="46" rx="4.5" stroke="white"/>
<path d="M55.5843 18.185C55.4243 18.393 55.1203 18.777 54.9763 19.001C54.2243 20.249 52.7043 22.281 51.1203 23.401L49.4563 22.073C50.7523 21.289 52.0003 19.881 52.4163 19.097C51.4403 19.097 45.0723 19.097 44.0643 19.097C43.4083 19.097 42.8643 19.129 42.1123 19.209V16.969C42.7363 17.065 43.4083 17.145 44.0643 17.145C45.0723 17.145 51.8563 17.145 52.6883 17.145C53.1363 17.145 54.0163 17.081 54.3203 17.001L55.5843 18.185ZM49.0723 20.329C49.0723 24.297 48.9763 27.561 44.6243 29.913L42.7523 28.393C43.2803 28.217 43.8563 27.945 44.4483 27.497C46.4643 26.089 46.8483 24.409 46.8483 21.785C46.8483 21.273 46.8323 20.857 46.7523 20.329H49.0723ZM59.5357 16.841C60.6397 17.593 62.7197 19.257 63.6637 20.233L62.0317 21.897C61.1997 21.001 59.1837 19.257 58.0157 18.457L59.5357 16.841ZM57.5197 27.497C60.0317 27.145 62.0957 26.329 63.6477 25.417C66.3837 23.785 68.4637 21.353 69.4877 19.193L70.7197 21.433C69.5197 23.609 67.3917 25.817 64.8157 27.369C63.1837 28.345 61.1197 29.225 58.8797 29.609L57.5197 27.497ZM78.8477 16.473C78.6717 16.889 78.4637 17.433 78.3197 17.785C78.0477 18.585 77.5517 19.769 77.1357 20.585C76.4957 21.849 75.4077 23.385 74.3517 24.329L72.3357 23.113C73.4877 22.265 74.5117 20.825 75.1197 19.817C75.5517 19.081 75.8557 18.233 76.0477 17.625C76.2237 17.097 76.3517 16.489 76.3837 15.993L78.8477 16.473ZM76.3197 18.953C77.5997 18.953 83.6797 18.953 84.7837 18.953C85.1837 18.953 85.9197 18.921 86.4477 18.841V21.017C85.8397 20.969 85.1517 20.969 84.7837 20.969C83.6637 20.969 77.5997 20.969 76.1597 20.969L76.3197 18.953ZM82.5757 20.105C82.4637 24.825 80.7837 27.945 77.6957 29.881L75.5357 28.441C76.1117 28.201 76.6717 27.881 77.0397 27.561C78.8637 26.169 80.2877 23.961 80.3517 20.105H82.5757ZM89.1357 21.593C89.7277 21.641 90.8797 21.705 91.7117 21.705C93.5997 21.705 98.8797 21.705 100.304 21.705C101.056 21.705 101.76 21.625 102.192 21.593V24.121C101.808 24.105 100.992 24.025 100.32 24.025C98.8637 24.025 93.5997 24.025 91.7117 24.025C90.8157 24.025 89.7437 24.073 89.1357 24.121V21.593ZM108.688 27.481C108.688 26.249 108.688 19.625 108.688 18.281C108.688 17.705 108.64 16.921 108.528 16.345H111.024C110.96 16.921 110.88 17.609 110.88 18.281C110.88 20.041 110.896 26.297 110.896 27.481C110.896 27.929 110.96 29.049 111.04 29.705H108.528C108.64 29.081 108.688 28.105 108.688 27.481ZM110.416 20.489C112.544 21.081 116 22.345 117.568 23.113L116.672 25.337C114.848 24.393 112.16 23.369 110.416 22.793V20.489ZM122.672 16.937C123.184 17.001 123.856 17.049 124.384 17.049C125.392 17.049 128.688 17.049 129.632 17.049C130.176 17.049 130.8 17.001 131.344 16.937V19.001C130.8 18.969 130.176 18.937 129.632 18.937C128.688 18.937 125.392 18.937 124.4 18.937C123.84 18.937 123.168 18.969 122.672 19.001V16.937ZM120.832 21.017C121.296 21.081 121.856 21.129 122.352 21.129C123.36 21.129 131.888 21.129 132.832 21.129C133.168 21.129 133.872 21.097 134.304 21.017V23.113C133.904 23.081 133.28 23.065 132.832 23.065C131.888 23.065 123.36 23.065 122.352 23.065C121.888 23.065 121.264 23.081 120.832 23.113V21.017ZM129.008 22.137C129.008 24.233 128.64 25.833 127.968 27.177C127.408 28.281 126.176 29.529 124.752 30.249L122.864 28.889C124 28.441 125.136 27.529 125.776 26.585C126.576 25.385 126.784 23.865 126.784 22.153L129.008 22.137ZM132.304 15.833C132.704 16.409 133.28 17.433 133.568 18.025L132.288 18.569C131.968 17.913 131.472 16.969 131.04 16.345L132.304 15.833ZM134.192 15.113C134.608 15.705 135.2 16.729 135.488 17.289L134.224 17.833C133.888 17.161 133.376 16.233 132.928 15.625L134.192 15.113ZM137.136 21.593C137.728 21.641 138.88 21.705 139.712 21.705C141.6 21.705 146.88 21.705 148.304 21.705C149.056 21.705 149.76 21.625 150.192 21.593V24.121C149.808 24.105 148.992 24.025 148.32 24.025C146.864 24.025 141.6 24.025 139.712 24.025C138.816 24.025 137.744 24.073 137.136 24.121V21.593ZM158.528 21.513C160.496 22.649 163.456 24.697 164.944 25.881L163.408 27.705C162.016 26.393 158.976 24.153 157.104 22.969L158.528 21.513ZM166.064 18.793C165.872 19.097 165.664 19.545 165.52 19.945C165.04 21.417 164.064 23.465 162.624 25.241C161.12 27.113 159.072 28.905 156.016 30.057L154.16 28.457C157.504 27.417 159.408 25.737 160.784 24.137C161.856 22.873 162.848 21.033 163.152 19.785H157.744L158.48 17.977H163.04C163.536 17.977 164.064 17.897 164.432 17.785L166.064 18.793ZM160.768 16.329C160.384 16.889 159.968 17.625 159.776 17.961C158.704 19.897 156.656 22.345 154.352 23.929L152.64 22.601C155.44 20.873 156.912 18.681 157.728 17.289C157.968 16.905 158.304 16.169 158.448 15.609L160.768 16.329ZM173.952 23.945H182.336V30.361H180.512V25.689H175.696V30.425H173.952V23.945ZM181.072 15.417L182.544 16.921C180.192 17.817 176.944 18.313 174.112 18.569C174.032 18.105 173.776 17.353 173.568 16.921C176.288 16.649 179.296 16.121 181.072 15.417ZM177.232 17.209H179.056V24.953H177.232V17.209ZM172.944 20.073H183.152V21.913H172.944V20.073ZM175.2 28.041H181.264V29.769H175.2V28.041ZM169.008 17.001L170.08 15.625C170.976 16.073 172.368 16.777 173.056 17.225L171.92 18.777C171.28 18.297 169.92 17.529 169.008 17.001ZM168.224 21.433L169.264 20.009C170.176 20.441 171.6 21.129 172.304 21.577L171.232 23.161C170.576 22.713 169.184 21.945 168.224 21.433ZM168.464 28.953C169.328 27.753 170.56 25.753 171.52 23.913L172.928 25.177C172.08 26.873 171.056 28.697 170.096 30.249L168.464 28.953ZM187.04 16.489H196.864V18.313H187.04V16.489ZM187.04 20.169H196.896V21.961H187.04V20.169ZM187.008 23.945H196.96V25.753H187.008V23.945ZM185.936 16.489H187.84V22.249C187.84 24.793 187.52 28.393 185.552 30.537C185.248 30.169 184.464 29.529 184.048 29.289C185.792 27.353 185.936 24.489 185.936 22.233V16.489ZM196.192 16.489H198.096V28.185C198.096 29.209 197.872 29.721 197.232 30.025C196.56 30.329 195.6 30.361 194.144 30.345C194.064 29.833 193.776 29.001 193.52 28.505C194.432 28.569 195.488 28.553 195.776 28.553C196.08 28.537 196.192 28.441 196.192 28.169V16.489ZM190.864 17.209H192.816V30.249H190.864V17.209Z" fill="white"/>
</svg>
