<svg width="240" height="47" viewBox="0 0 240 47" fill="none" xmlns="http://www.w3.org/2000/svg">
<rect x="0.5" y="0.500977" width="239" height="46" rx="4.5" stroke="white"/>
<path d="M94.272 23.945V30.425H96.016V25.689H100.832V30.361H102.656V23.945H94.272ZM101.392 15.417C99.616 16.121 96.608 16.649 93.888 16.921C94.096 17.353 94.352 18.105 94.432 18.569C97.264 18.313 100.512 17.817 102.864 16.921L101.392 15.417ZM97.552 17.209V24.953H99.376V17.209H97.552ZM93.264 20.073V21.913H103.472V20.073H93.264ZM95.52 28.041V29.769H101.584V28.041H95.52ZM89.328 17.001C90.24 17.529 91.6 18.297 92.24 18.777L93.376 17.225C92.688 16.777 91.296 16.073 90.4 15.625L89.328 17.001ZM88.544 21.433C89.504 21.945 90.896 22.713 91.552 23.161L92.624 21.577C91.92 21.129 90.496 20.441 89.584 20.009L88.544 21.433ZM88.784 28.953L90.416 30.249C91.376 28.697 92.4 26.873 93.248 25.177L91.84 23.913C90.88 25.753 89.648 27.753 88.784 28.953ZM107.36 16.489V18.313H117.184V16.489H107.36ZM107.36 20.169V21.961H117.216V20.169H107.36ZM107.328 23.945V25.753H117.28V23.945H107.328ZM106.256 16.489V22.233C106.256 24.489 106.112 27.353 104.368 29.289C104.784 29.529 105.568 30.169 105.872 30.537C107.84 28.393 108.16 24.793 108.16 22.249V16.489H106.256ZM116.512 16.489V28.169C116.512 28.441 116.4 28.537 116.096 28.553C115.808 28.553 114.752 28.569 113.84 28.505C114.096 29.001 114.384 29.833 114.464 30.345C115.92 30.361 116.88 30.329 117.552 30.025C118.192 29.721 118.416 29.209 118.416 28.185V16.489H116.512ZM111.184 17.209V30.249H113.136V17.209H111.184ZM126.96 15.417V28.617C126.96 28.889 126.864 28.985 126.56 29.001C126.288 29.001 125.344 29.017 124.576 28.985C124.816 29.369 125.12 30.041 125.216 30.489C126.576 30.489 127.44 30.457 128.064 30.217C128.672 29.945 128.912 29.561 128.912 28.617V15.417H126.96ZM120.96 16.457V17.977H135.04V16.457H120.96ZM124.432 19.833H131.504V20.601H124.432V19.833ZM122.608 18.617V21.817H133.472V18.617H122.608ZM122.208 22.521V23.833H131.792V28.777H133.744V22.521H122.208ZM120.592 24.505V25.961H135.408V24.505H120.592ZM122.08 26.713V28.105H132.832V26.713H122.08ZM140.976 16.121V17.801H146.672V16.121H140.976ZM142.592 19.529L142.064 21.193H145.312V19.529H142.592ZM141.6 23.929C142.24 24.425 143.024 25.129 143.376 25.609L144.224 23.993C143.856 23.561 143.056 22.921 142.416 22.489L141.6 23.929ZM146.56 17.273V26.649H148.256V17.273H146.56ZM149.248 15.721V28.265C149.248 28.521 149.152 28.601 148.896 28.617C148.608 28.617 147.792 28.617 146.912 28.585C147.168 29.113 147.424 29.945 147.504 30.457C148.768 30.457 149.664 30.393 150.256 30.089C150.832 29.785 151.024 29.289 151.024 28.265V15.721H149.248ZM142.16 16.713C141.904 19.161 141.264 22.329 139.776 24.121C140.128 24.441 140.656 25.081 140.912 25.465C142.688 23.385 143.52 19.897 143.984 16.969L142.16 16.713ZM144.592 19.529V19.897C144.144 24.297 142.72 27.401 140.416 28.969C140.784 29.257 141.36 30.009 141.616 30.441C144.08 28.649 145.76 25.017 146.336 19.801L145.232 19.465L144.928 19.529H144.592ZM139.344 15.433C138.656 17.769 137.472 20.105 136.176 21.625C136.48 22.121 136.944 23.225 137.104 23.689C138.736 21.785 140.208 18.761 141.12 15.961L139.344 15.433ZM138.08 19.833V30.425H139.84V18.153L139.792 18.121L138.08 19.833Z" fill="white"/>
</svg>
