<svg width="240" height="47" viewBox="0 0 240 47" fill="none" xmlns="http://www.w3.org/2000/svg">
<rect x="0.5" y="0.500977" width="239" height="46" rx="4.5" stroke="white"/>
<path d="M96.576 19.273V21.129H111.456V19.273H96.576ZM99.888 27.577V29.417H110.88V27.577H99.888ZM103.84 23.657V25.449H107.952V23.657H103.84ZM98.88 15.897V30.441H100.864V15.897H98.88ZM103.04 15.561V26.105H104.976V15.561H103.04ZM107.12 15.721V26.073H109.056V15.721H107.12ZM116.224 20.089H123.776V21.257H116.224V20.089ZM116.224 17.513H123.776V18.649H116.224V17.513ZM114.304 15.961V22.793H125.776V15.961H114.304ZM122.192 21.785L120.576 22.377C121.856 24.297 123.936 25.833 126.288 26.601C126.56 26.105 127.136 25.353 127.568 24.969C125.328 24.409 123.248 23.225 122.192 21.785ZM117.824 21.769C116.768 23.209 114.672 24.473 112.512 25.081C112.928 25.465 113.504 26.185 113.792 26.665C116.064 25.849 118.224 24.281 119.52 22.425L117.824 21.769ZM116.688 24.697V25.737C116.688 26.761 116.368 28.121 113.696 28.985C114.112 29.353 114.752 30.073 115.008 30.553C118.208 29.385 118.672 27.337 118.672 25.801V24.697H116.688ZM119.024 16.745V22.025H120.96V16.745H119.024ZM121.568 24.729V30.393H123.568V24.729H121.568ZM130.656 24.057V25.257H135.664V24.057H130.656ZM130.656 26.009V27.209H135.68V26.009H130.656ZM128.672 19.289V20.777H136V19.289H128.672ZM130.56 28.041V29.417H135.888V28.041H130.56ZM132.544 22.649V28.489H134.16V22.649H132.544ZM131.504 22.009H131.12L129.824 23.385V30.105H131.504V23.273H135.904V22.009H131.504ZM133.152 20.809C133.04 21.257 132.816 21.913 132.592 22.393L133.92 22.697C134.176 22.297 134.528 21.705 134.88 21.097L133.152 20.809ZM130.176 15.369C129.84 16.521 129.232 17.689 128.496 18.457C128.896 18.697 129.6 19.209 129.904 19.497C130.688 18.585 131.44 17.177 131.872 15.769L130.176 15.369ZM131.808 17.545C131.136 19.865 129.872 21.993 128.304 23.305C128.624 23.657 129.184 24.425 129.392 24.793C131.152 23.209 132.608 20.665 133.456 17.961L131.808 17.545ZM130.704 16.713L129.968 18.201H135.872V16.713H130.704ZM138.08 20.249H141.024V21.321H138.08V20.249ZM138.08 22.825H141.024V23.897H138.08V22.825ZM138.08 17.689H141.024V18.745H138.08V17.689ZM136.4 16.009V25.577H142.8V16.009H136.4ZM139.6 24.377V28.137C139.6 29.657 139.872 30.153 141.184 30.153C141.424 30.153 141.856 30.153 142.128 30.153C143.152 30.153 143.568 29.593 143.728 27.385C143.28 27.257 142.56 27.001 142.24 26.713C142.192 28.377 142.144 28.601 141.92 28.601C141.84 28.601 141.552 28.601 141.488 28.601C141.296 28.601 141.28 28.537 141.28 28.121V24.377H139.6ZM137.376 24.889C137.2 26.745 136.832 28.217 134.768 29.065C135.136 29.369 135.6 30.025 135.792 30.425C138.224 29.289 138.784 27.337 138.976 24.889H137.376Z" fill="white"/>
</svg>
