<svg width="1439" height="1094" fill="none" xmlns="http://www.w3.org/2000/svg"><mask id="a" style="mask-type:alpha" maskUnits="userSpaceOnUse" x="0" y="0" width="1439" height="1094"><path fill="#D9D9D9" d="M0 0h1439v1094H0z"/></mask><g mask="url(#a)" fill-rule="evenodd" clip-rule="evenodd" fill="#E6EFF4"><path d="M664.693 1801.23c-195.424-28.21-408.088-9.58-550.755-146.12-158.474-151.67-234.381-374.03-221.604-593.06C-94.179 830.856-4.411 649.797 202.611 546.129c196.745-98.522 341.195 111.825 581.391 198.034 182.709 11.763 399.298-117.437 535.518-12.894 194.08 121.721 342.41 305.651 338.66 533.001-3.91 236.36-186.08 444.48-393.99 556.86-182.88 98.84-393.777 9.79-599.497-19.9zM911.821-76.064c19.066-96.23 122.199-149.48 206.789-199.163 66.94-39.317 145.67-33.915 221.13-52.17 83.27-20.147 164.42-93.4 243.41-60.213 78.87 33.137 78.97 144.963 126.93 215.808 57.09 84.336 182.23 135.757 179.98 237.575-2.23 100.705-120.15 152.851-190.23 225.207-70.34 72.63-119.07 207.045-219.79 198.128-108.23-9.581-122.2-176.228-212.66-236.412-70.87-47.152-177.98-7.267-240.48-65.059-72.187-66.743-134.186-167.264-115.079-263.701z"/></g></svg>