<svg width="231" height="14" viewBox="0 0 231 14" fill="none" xmlns="http://www.w3.org/2000/svg">
<path d="M18.5159 12.9942C18.6597 12.9784 19.2545 12.9924 19.5189 12.9805C19.2167 13.1157 17.9917 13.0515 18.5159 12.9942ZM44.579 3.06338C44.3699 3.10031 44.1616 3.13721 43.9541 3.17408C44.5458 3.17927 45.3511 3.13532 45.9152 3.15067C46.0073 3.15331 45.7709 3.25067 45.9888 3.24911C46.2071 3.24752 46.1615 3.124 46.4797 3.10244C46.8439 3.07845 48.4675 3.12341 49.0196 3.10706C51.1304 3.04418 53.2238 2.91902 55.3542 2.91602C53.1639 3.06463 55.3724 3.1017 55.992 3.04579C56.1276 3.03306 56.086 2.80227 58.2644 2.8047C59.655 2.80606 58.3831 3.17011 60.7007 2.94464C58.9152 2.75856 60.6682 2.72985 62.0491 2.68678C62.2837 2.6794 64.2414 2.66414 65.1004 2.63194C65.3903 2.62096 65.8302 2.4883 66.2174 2.47523C66.4839 2.46632 66.6873 2.52752 67.0846 2.514C68.9498 2.45146 70.7591 2.40025 72.6212 2.37541C71.5406 2.7149 73.4792 2.48662 73.5691 2.49927C74.0159 2.57265 72.0047 2.64781 72.8013 2.68058C73.9183 2.64256 75.0153 2.60509 76.1178 2.56751C75.2109 2.55215 77.3106 2.27455 77.7053 2.36669C77.5399 2.09506 82.7417 2.47962 83.548 2.36738C83.7093 2.34389 82.6368 2.23451 85.1353 2.23415C85.4062 2.23428 85.3059 2.31999 85.4478 2.30868C85.5328 2.30189 86.0413 2.02472 86.5956 2.15696C86.7992 2.2052 85.5122 2.41103 88.3427 2.27044C87.2161 2.02942 92.2457 2.02726 93.1825 2.07154C92.9958 2.04002 92.8092 2.0085 92.6226 1.97699C93.5439 2.05162 93.7084 1.95604 93.9158 1.95588C94.7467 1.95528 95.8894 2.01918 96.665 1.99158C97.5723 1.95946 97.5711 1.79212 98.6329 1.83102C98.3804 1.80032 98.1279 1.76962 97.8756 1.73892C98.6078 1.72974 99.3405 1.72056 100.069 1.71153C98.3863 1.97452 100.433 1.71312 100.568 1.70503C100.784 1.69166 100.476 1.78994 100.837 1.76977C100.874 1.76699 100.818 1.68296 101.374 1.65968C102.537 1.61136 102.356 1.7232 102.845 1.70999C102.89 1.70834 102.731 1.63528 103.576 1.59638C106.258 1.47278 103.565 1.65559 103.461 1.66879C103.326 1.68613 104.254 1.98492 101.971 1.92691C102.738 1.9444 102.818 2.08472 102.905 2.08614C102.981 2.08717 104.308 2.0346 104.381 2.02793C105.03 1.96372 104.455 1.88054 104.582 1.86003C104.685 1.84344 106.283 1.93111 106.651 1.62968C107.421 1.88068 106.217 1.8853 104.938 1.95804C104.753 2.01793 106.16 2.03738 106.234 2.03543C108.048 1.99069 107.038 1.79341 107.432 1.64197C107.638 1.56271 108.382 1.69601 107.694 1.51377C109.341 1.45268 108.345 1.59224 108.452 1.6067C108.613 1.62785 109.188 1.55684 109.261 1.56267C109.367 1.57134 109 1.64914 109.419 1.66324C109.488 1.66509 110.158 1.53027 109.289 1.4947C110.448 1.48341 110.35 1.38472 110.748 1.57879C111.537 1.17427 111.333 1.79245 111.648 1.80642C112.485 1.8431 112.235 1.54654 112.279 1.53073C112.581 1.42884 114.896 1.47696 115.47 1.41961C115.248 1.64286 113.635 1.46614 113.276 1.51709C112.081 1.68659 114.968 1.58525 114.104 1.87994C114.467 1.79598 114.831 1.71202 115.195 1.62807C115.868 1.78795 114.92 1.88747 116.721 1.77993C117.012 1.62096 115.447 1.83449 115.759 1.7073C115.943 1.63262 116.987 1.59248 117.007 1.55497C117.027 1.50991 116.084 1.58537 116.231 1.51327C116.553 1.3575 119.998 1.41598 117.38 1.55939C118.111 1.53936 118.494 1.82454 119.125 1.71776C119.534 1.64849 117.217 1.29719 120.68 1.28917C120.758 1.42632 119.296 1.3632 119.259 1.37466C119.207 1.39132 119.477 1.69851 119.523 1.7129C119.686 1.75992 123.22 1.50796 123.967 1.64797C123.665 1.47379 126.638 1.55258 126.96 1.48985C127.046 1.47259 126.722 1.36916 126.813 1.35525C127.386 1.27183 128.941 1.43363 129.657 1.42206C130.461 1.40912 130.36 1.31559 130.404 1.31474C130.76 1.3118 130.477 1.3834 130.695 1.37815C131.024 1.37012 133.275 1.33121 133.386 1.31511C133.419 1.31012 133.05 1.2091 133.539 1.17702C133.623 1.17148 133.574 1.30245 135.018 1.21307C136.772 1.10522 133.801 1.07958 134.526 0.926864C135.649 1.09464 135.615 0.903535 135.92 0.9116C136.026 0.914653 136.817 1.05964 137.669 1.02984C137.058 1.0703 136.446 1.11083 135.832 1.15142C136.437 1.16611 137.606 1.10394 138.101 1.12496C138.342 1.13518 138.147 1.27369 138.67 1.25813C138.781 1.25411 139.216 0.917584 137.846 1.0954C137.733 0.98136 138.389 1.04232 138.691 1.00246C138.736 0.996278 138.913 0.797441 139.301 0.909668C139.398 0.937285 138.388 1.52845 141.001 1.05785C141.086 1.04268 140.79 0.978207 140.872 0.961588C140.929 0.950314 141.599 0.963933 141.673 0.952178C141.748 0.93964 141.423 0.869286 141.513 0.851971C141.973 0.762796 142.585 1.05715 141.633 1.05515C141.952 1.08603 142.271 1.11693 142.589 1.14786C142.244 0.923371 143.086 1.07131 143.523 1.05434C146.32 0.945946 144.443 0.836963 144.922 0.748071C145.702 0.605156 145.114 1.01571 146.272 0.870489C146.378 0.856999 144.978 0.719325 147.709 0.753912C147.308 0.769379 146.905 0.784885 146.501 0.800431C146.74 1.01975 147.956 0.75276 148.048 0.74757C149.115 0.693182 148.394 0.790025 149.975 0.639595C150.118 0.626066 150.431 0.674636 150.736 0.640311C152 0.498711 149.061 0.607867 148.991 0.518556C148.94 0.475012 152.102 0.416971 152.206 0.435987C152.666 0.519741 150.781 0.508356 151.142 0.616931C151.283 0.654999 155.735 0.473666 156.648 0.499772C157.686 0.530377 158.153 0.825084 158.153 0.482872C158.451 0.812483 158.701 0.578005 158.833 0.57755C160.436 0.574878 160.452 0.577964 161.822 0.517293C162.125 0.504021 162.382 0.600628 162.488 0.581221C162.55 0.569551 162.432 0.462919 162.734 0.423009C163.139 0.36851 165.727 0.427814 165.912 0.484473C166.104 0.540857 164.831 0.532562 165.06 0.627031C165.984 0.618246 166.861 0.576026 167.773 0.568251C168.152 0.56533 167.959 0.638566 168.122 0.636688C168.196 0.636041 169.535 0.548398 169.477 0.523992C169.326 0.467165 165.259 0.588775 166.328 0.44591C166.535 0.418248 167.268 0.563414 167.148 0.371412C170.822 0.341784 174.458 0.315622 178.132 0.293042C175.982 0.477413 173.668 0.39097 171.456 0.447562C171.159 0.454989 170.141 0.456144 170.266 0.551967C172.108 0.541229 174.491 0.444499 176.248 0.47606C176.304 0.477131 176.098 0.569226 176.31 0.579293C176.712 0.597906 178.045 0.43114 178.262 0.464078C178.301 0.471943 177.552 0.601941 177.782 0.671726C178.372 0.850806 178.512 0.427899 179.01 0.423926C179.378 0.42114 182.013 0.578114 182.653 0.439068C183.342 0.290338 180.727 0.392677 180.912 0.277722C182 0.190559 183.074 0.18948 184.101 0.193482C184.807 0.195448 185.491 0.19963 186.146 0.183674C186.175 0.182853 185.92 0.0992179 186.29 0.0810537C186.932 0.0495148 187.098 0.171355 187.406 0.18646C187.733 0.202499 188.974 0.165854 189.129 0.208986C189.149 0.214622 188.906 0.341634 188.869 0.345665C188.341 0.404438 188.147 0.247302 188.098 0.245977C187.917 0.24268 187.731 0.306869 187.571 0.305694C187.309 0.303652 187.164 0.249156 186.815 0.249629C186.573 0.249763 186.808 0.35504 186.575 0.353735C186.491 0.352751 185.555 0.118878 185.469 0.374312C185.429 0.452716 193.106 0.440989 193.835 0.370723C193.196 0.348436 192.544 0.326596 191.879 0.305217C193.226 0.360857 194.788 0.138332 194.924 0.436957C199.869 0.400788 204.803 0.379274 209.751 0.400122C210.648 0.42569 210.122 0.617683 211.605 0.563858C211.22 0.501572 210.839 0.439656 210.475 0.378036C211.222 0.419046 214.51 0.517204 215.069 0.485306C215.14 0.480869 215.237 0.306408 216.056 0.300453C216.815 0.29614 216.918 0.428916 217.299 0.459562C217.647 0.485471 218.019 0.457736 218.115 0.466736C218.189 0.473876 218.218 0.554377 218.394 0.571681C218.962 0.626132 218.508 0.391441 219.079 0.662393C218.939 0.669152 218.797 0.675992 218.652 0.682914C219.377 0.734854 220.263 0.875592 219.276 0.909286C219.101 0.915298 219.253 0.841334 219.122 0.838517C214.009 0.765894 218.077 0.973113 219.88 0.901559C220.337 1.02163 222.945 1.05169 223.053 1.08854C223.171 1.12778 222.721 1.19492 223.301 1.30604C223.382 1.31934 224.274 1.35575 225.071 1.43873C225.866 1.51918 226.553 1.65519 225.799 1.62391C225.475 1.599 223.715 1.42497 223.317 1.41497C224.25 1.69321 226.662 1.58206 227.221 1.78926C228.013 2.03743 227.198 1.83754 226.753 1.80842C226.526 1.78877 226.375 1.79087 226.445 1.82349C226.524 1.86854 226.78 1.8822 227.674 2.17268C227.775 2.20783 227.88 2.24698 227.949 2.27396C228.145 2.34918 228.373 2.45446 228.63 2.63607C228.89 2.83645 229.153 3.00515 229.515 3.63542C229.837 4.20156 229.911 4.98329 229.821 5.44893C229.752 5.86917 229.618 6.17099 229.497 6.39517C229.219 6.87109 229.109 6.94291 228.99 7.07858C228.875 7.19656 228.782 7.2775 228.703 7.34434C228.469 7.53727 228.357 7.60896 228.291 7.66141C228.189 7.74247 228.24 7.73511 228.355 7.68838C228.48 7.63604 228.677 7.52244 228.76 7.48474C228.847 7.44037 228.761 7.55985 228.428 7.80002C227.629 8.38701 225.743 8.89025 225.862 9.09705C225.206 9.37405 225.553 9.11011 225.467 9.13342C225.379 9.16232 224.124 9.69211 223.696 9.78544C223.644 9.79706 223.762 9.62869 223.707 9.63738C223.601 9.65835 222.387 10.0965 222.342 10.1206C222.313 10.1378 222.637 10.1403 222.526 10.2046C222.397 10.2804 221.215 10.643 221.158 10.6918C221.084 10.7653 222.52 10.2613 222.318 10.4514C221.638 10.6472 220.575 11.0727 220.161 11.3024C220.258 11.2437 220.913 11.0303 221.136 10.9677C221.085 11.1674 219.693 11.6073 220.125 11.3266C219.842 11.493 220.061 11.4646 219.911 11.5846C219.875 11.6144 219.438 11.7552 219.37 11.8075C219.359 11.8175 219.824 11.7401 219.746 11.8011C219.608 11.9125 218.281 12.3067 218.155 12.3239C217.823 12.3749 218.925 11.9834 218.978 11.8889C218.985 11.8759 218.035 12.0167 217.988 12.0154C217.921 11.8966 218.968 11.6792 218.813 11.5989C218.564 11.6487 218.295 11.7041 218.028 11.7569C218.993 11.3413 220.757 10.8456 221.178 10.5598C219.77 11.0621 218.28 11.5113 218.185 11.2095C218.15 11.0815 218.737 10.8199 218.711 10.7924C218.575 10.7083 217.769 11.0917 217.711 11.1001C217.681 11.1014 217.667 11.0977 217.665 11.091C217.665 11.091 217.665 11.091 217.665 11.091C217.67 11.0193 218.873 10.5976 218.921 10.5476C219.004 10.4617 218.396 10.4025 218.38 10.3525C218.404 10.3347 219.238 10.0166 218.924 10.0188C218.599 10.0244 217.856 10.2497 217.815 10.2514C217.666 10.2407 218.968 9.7873 218.99 9.74471C219.004 9.72363 218.278 9.84323 218.24 9.82397C218.216 9.80118 218.737 9.57343 218.916 9.4204C219.053 9.30576 218.58 9.39866 218.659 9.36284C218.709 9.34117 219.956 8.94798 220.006 8.91816C220.09 8.87242 219.778 8.88659 219.814 8.85357C219.861 8.80783 220.275 8.70565 220.211 8.69436C220.161 8.68878 218.536 8.90788 218.523 8.8313C218.502 8.70432 220.226 8.47037 218.551 8.46651C218.54 8.46646 218.18 8.61649 218.169 8.61643C217.91 8.59865 219.063 8.09244 217.614 8.56586C220.261 7.57351 217.89 8.2796 218.229 7.94748C218.357 7.82155 219.386 7.45972 219.387 7.44551C219.257 7.37656 218.947 7.56089 218.82 7.54661C218.751 7.53899 219.643 7.13746 219.412 7.13493C219.297 7.13349 218.315 7.45815 218.268 7.46441C217.861 7.5196 218.312 7.30125 218.214 7.28097C218.146 7.2682 217.559 7.44757 217.534 7.44893C217.515 7.44239 218.273 7.06871 218.428 6.97072C218.544 6.8967 218.05 6.99323 218.133 6.95069C218.647 6.69293 219.851 6.55678 218.655 6.58875C218.584 6.58987 218.169 6.72932 218.157 6.72887C217.869 6.72037 218.637 6.47053 218.745 6.35467C218.938 6.15383 217.867 6.57121 218.748 6.19344C218.036 6.32825 217.661 6.44998 216.87 6.71703C219.057 5.97138 219.733 5.38874 217.287 6.16714C218.062 5.93229 217.922 5.7707 218.153 5.69483C218.297 5.64851 219.488 5.46977 218.835 5.22339C218.756 5.19235 218.09 5.47607 218.271 5.30221C219.925 4.80339 218.287 5.22411 218.278 5.21057C218.231 4.96965 222.286 3.85418 222.908 3.56903C223.659 3.25879 224.211 2.81406 224.345 2.75502C224.801 2.55653 224.466 2.81427 224.583 2.80443C224.62 2.80264 224.825 2.6934 224.962 2.5918C225.014 2.55297 225.095 2.4734 224.925 2.57334C224.882 2.60093 224.82 2.63949 224.691 2.75701C224.561 2.89779 224.423 2.94472 224.072 3.59536C223.92 3.93269 223.764 4.24798 223.745 5.00139C223.73 5.72786 224.053 6.5424 224.447 7.01422C225.069 7.75244 225.494 7.87172 225.768 7.99913C225.676 7.98422 225.678 8.00062 225.666 7.99345C225.59 7.9278 225.713 7.83557 225.706 7.82755C225.829 7.71168 223.658 7.57185 223.024 7.52919C223.048 7.60632 224.269 7.69781 223.487 7.76962C222.592 7.85983 222.555 7.51665 222.532 7.499C218.314 7.30741 213.91 7.30936 209.591 7.30922C209.653 7.49211 212.5 7.35683 212.546 7.38285C212.95 7.52435 208.124 7.51807 207.539 7.45897C207.996 7.4973 208.442 7.53602 208.876 7.5751C208.137 7.78791 206.43 7.51831 205.318 7.61834C204.953 7.65069 205.654 7.72863 205.638 7.73435C205.234 7.8187 204.565 7.75929 205.062 7.64587C204.078 7.7576 204.24 7.63985 203.483 7.63627C203.444 7.63619 203.771 7.71934 203.17 7.75914C202.87 7.77765 201.408 7.78982 201.206 7.8666C201.125 7.89876 201.878 8.22395 201.965 7.93784C203.578 8.06416 202.48 7.80363 203.115 7.80535C203.207 7.80634 203.011 7.96634 204.565 7.88135C204.294 8.16995 202.423 7.96853 202.128 8.00609C201.469 8.08265 204.176 8.21008 204.626 7.98419C204.407 8.20978 204.803 8.01318 205.417 8.01907C206.073 8.02563 205.787 8.0939 206.138 8.09255C207.091 8.08999 206.663 7.9335 207.483 8.07322C206.706 7.63403 208.833 8.01049 209.453 8.12635C208.455 8.14972 207.418 8.17518 206.437 8.20194C206.494 8.22488 206.551 8.24783 206.607 8.27079C206.348 8.2686 206.085 8.26653 205.819 8.26458C205.861 8.24214 205.904 8.2197 205.946 8.19727C204.552 8.34888 204.243 8.18918 204.129 8.18797C202.683 8.17851 201.047 8.19364 199.569 8.20776C199.351 8.20996 199.522 8.35225 197.921 8.25616C197.404 8.22578 197.892 8.10792 197.303 8.13134C196.586 8.44504 196.609 8.20111 196.396 8.20319C195.792 8.21031 195.413 8.2907 195.356 8.29218C194.577 8.31347 193.485 8.31489 192.655 8.3374C192.64 8.33876 193.074 8.4268 192.533 8.40633C192.341 8.39894 190.62 8.02171 189.143 8.17455C189.534 8.19579 189.92 8.21718 190.302 8.23871C189.869 8.20661 186.628 8.3573 187.426 8.45242C187.883 8.5108 189.095 8.23411 189.218 8.4808C188.541 8.44567 186.202 8.50456 184.24 8.54971C183.036 8.57772 182.004 8.59908 181.822 8.57946C181.758 8.57232 182.148 8.48496 182.06 8.47617C181.996 8.46936 180.627 8.5123 180.447 8.48458C180.336 8.46814 180.942 8.40807 180.892 8.3799C180.827 8.36025 179.187 8.35483 179.086 8.45775C179.498 8.40975 180.637 8.42503 180.041 8.52075C179.965 8.53268 179.564 8.47464 179.469 8.48975C178.599 8.62905 181.202 8.55299 181.635 8.54674C179.954 8.70447 177.403 8.59875 175.498 8.71844C174.729 8.64872 176.632 8.56861 175.764 8.51513C173.955 8.4046 175.286 8.64038 175.23 8.65212C174.786 8.74524 173.227 8.32014 173.23 8.66625C172.562 8.62695 172.766 8.57938 171.851 8.64235C171.973 8.66397 172.094 8.68559 172.215 8.70723C171.207 8.92706 168.995 8.46484 169.157 8.4231C169.603 8.31099 170.747 8.44963 170.842 8.4439C170.989 8.43534 171.365 8.07661 172.949 8.36019C173.581 8.11238 170.463 8.24923 171.877 8.06129C170.936 8.10551 166.923 8.02124 166.371 8.13608C166.302 8.15097 166.627 8.3791 165.64 8.27962C165.172 8.23225 166.299 8.20665 166.084 8.15754C165.389 8.00629 156.518 8.29629 154.784 8.34346C154.673 8.34612 154.713 8.27241 154.605 8.2754C154.277 8.28448 153.077 8.41908 152.48 8.39853C153.714 8.50656 151.324 8.56898 150.707 8.56773C149.773 8.5656 149.833 8.43611 149.435 8.4176C147.913 8.34597 145.505 8.70392 144.316 8.44606C144.389 8.72682 142.253 8.35392 141.276 8.3736C140.511 8.38888 139.411 8.60078 140.442 8.69122C139.132 8.70793 137.759 8.79196 136.524 8.83747C136.32 8.84503 136.599 8.75512 136.251 8.77066C136.219 8.77268 136.177 8.85547 135.878 8.87086C133.416 8.99887 134.613 8.79742 134.152 8.75694C133.894 8.73425 133.704 8.72441 133.565 8.72294C134.99 8.67395 136.654 8.60362 137.096 8.59118C136.712 8.41919 133.913 8.69904 133.095 8.66942C133.067 8.66831 133.164 8.56646 133.135 8.56643C133.134 8.56644 133.133 8.56646 133.133 8.56647C132.827 8.5659 130.865 8.64823 131.272 8.75756C131.381 8.78675 132.285 8.76565 133.353 8.73017C133.064 8.75913 133.282 8.86565 133.232 8.87159C132.615 8.941 131.093 8.86745 130.552 8.86539C130.428 8.86505 130.439 8.93629 130.419 8.93694C129.926 8.93218 130.124 8.72342 129.628 8.94552C128.737 8.71191 131.288 8.86901 131.107 8.70804C130.955 8.58414 125.315 8.78465 125.329 8.98493C125.309 8.96397 125.23 8.93922 125.07 8.91275C124.715 8.85384 123.143 8.91206 122.872 8.95544C122.827 8.96379 122.849 9.15777 122.793 9.16091C122.651 9.16872 120.721 9.06203 120.003 9.19416C120.393 9.21213 120.782 9.23012 121.172 9.24812C118.823 9.30574 119.191 9.35491 119.972 9.39444C120.011 9.39403 120.049 9.4005 120.087 9.4004C120.694 9.42892 121.472 9.45184 121.484 9.4669C121.529 9.5243 117.552 9.65179 118.313 9.45318C118.42 9.42596 120.26 9.46239 119.346 9.35541C119.187 9.33666 118.007 9.40163 117.944 9.38893C117.527 9.30453 120.103 9.11762 119.784 8.99116C119.162 9.13366 118.357 9.08566 117.639 9.1358C117.313 9.15852 117.235 9.25792 117.194 9.26072C116.592 9.30062 116.928 9.19031 116.727 9.19769C116.619 9.20203 115.436 9.44808 115.653 9.14284C111.744 9.45768 114.575 9.38914 116.977 9.31466C116.221 9.44203 114.731 9.42502 114.065 9.46645C113.826 9.48142 113.97 9.57805 113.566 9.60782C112.734 9.66898 108.758 9.65036 107.72 9.6486C108.355 9.59776 108.167 9.49331 107.676 9.51279C107.185 9.53234 107.601 9.66776 107.506 9.68573C107.403 9.70441 105.099 9.69193 104.718 9.72016C106.448 9.62513 106.055 9.52599 104.585 9.55056C104.796 9.51406 105.008 9.47756 105.22 9.44106C104.362 9.50604 102.538 9.38488 102.042 9.44645C101.964 9.4563 102.247 9.54077 102.203 9.54631C101.766 9.59587 100.278 9.53925 100.21 9.57213C100.152 9.59953 100.787 9.66054 100.553 9.70404C100.504 9.71319 99.8901 9.60471 99.2896 9.6499C99.0656 9.6666 99.2028 9.74969 99.1464 9.75609C98.6766 9.80928 98.9506 9.65689 98.0914 9.70151C97.4622 9.73436 96.997 9.88822 96.1279 9.86259C98.9849 9.9734 96.5832 9.95696 95.395 10.0414C95.2047 10.0549 95.3712 10.2077 94.2317 10.1596C96.647 9.81582 93.5372 10.0268 92.8914 10.0398C92.8562 10.0397 92.8416 9.9365 92.5276 9.94265C92.5011 9.9434 92.5409 10.0124 92.2495 10.025C89.4896 10.1443 91.2533 10.0213 90.7272 9.96544C90.5016 9.94166 89.1723 10.0738 88.8045 10.0853C88.7209 10.0877 88.7575 10.0141 88.4343 10.025C87.8626 10.0445 87.3534 10.1346 86.9775 10.1502C86.9337 10.1516 86.9285 10.037 86.2177 10.0921C86.0179 10.1075 85.7945 10.1538 86.0793 10.1796C87.0203 10.2645 88.8224 10.0317 89.8832 10.1135C90.8574 10.1878 87.7919 10.2736 87.6294 10.2783C87.5707 10.2801 88.1697 10.2082 87.5595 10.2122C87.0384 10.2158 86.0937 10.4376 85.3214 10.4138C85.2624 10.4121 84.6425 10.2597 84.6707 10.2492C84.696 10.2414 85.6413 10.1812 85.5027 10.1361C85.4861 10.131 84.8847 10.1472 84.8056 10.113C84.7084 10.0713 84.4388 9.64578 84.3104 9.63816C83.9807 9.61966 84.1972 9.71283 83.9821 9.71137C83.5185 9.70854 81.919 9.62092 81.8718 9.77197C82.1352 9.77423 82.3988 9.7765 82.6628 9.77875C81.1972 9.83103 81.8243 9.87905 81.6174 9.91236C81.3951 9.94837 81.4543 9.81516 80.9617 9.81519C80.8521 9.81522 78.8058 9.89433 78.8361 9.94885C79.9799 9.83201 79.555 10.0055 79.6094 10.0071C79.8083 10.0126 80.0598 9.91499 80.3268 9.91008C82.2081 9.87696 80.3145 10.0688 80.7595 10.0946C80.9126 10.1033 81.2155 10.0177 81.2806 10.02C81.4921 10.0276 81.4981 10.1295 81.6389 10.1177C81.9675 10.0903 81.5796 9.95563 81.6055 9.94747C81.8966 9.84974 83.0547 9.93308 82.3396 10.1082C82.7726 10.154 82.8185 9.96181 83.1633 10.0295C83.8493 10.1635 82.8261 10.1503 82.5509 10.1824C81.5631 10.2978 81.2668 10.2319 79.8756 10.2921C79.3781 10.3135 78.7779 10.4214 78.5428 10.4325C78.3937 10.4394 76.9907 10.1521 76.9634 10.658C76.4211 10.6228 75.5673 10.3115 75.0151 10.3407C74.5193 10.3672 74.6818 10.5418 74.6356 10.5499C74.5685 10.5625 73.9567 10.5639 73.7516 10.5944C73.511 10.6303 73.633 10.6954 73.2513 10.7329C72.3026 10.826 72.3243 10.643 72.2264 10.6337C71.0943 10.5254 71.5955 10.7721 71.3459 10.7993C71.1218 10.8241 67.8405 10.8078 67.1549 10.891C67.4336 10.8473 67.7129 10.8036 67.9928 10.76C67.4871 10.659 66.962 10.8581 66.9475 10.6544C66.8538 10.9862 65.8196 10.7924 65.5133 10.8087C65.3922 10.8153 65.4032 10.8712 65.2518 10.8775C64.6545 10.9026 63.2872 10.8929 62.9662 10.9295C61.5585 11.0881 65.1795 11.1993 65.4542 11.2047C64.8936 11.2153 61.6726 11.3715 63.1544 11.492C63.3828 11.5106 63.784 11.3529 63.9126 11.3438C64.7832 11.2836 64.101 11.4332 64.1697 11.444C64.2861 11.4613 64.858 11.319 65.0108 11.3303C65.0593 11.3339 64.7466 11.4615 65.561 11.4432C65.1756 11.569 62.8197 11.5348 62.5258 11.5696C62.4196 11.582 63.0959 11.8125 61.1225 11.6223C61.1458 11.6448 61.1691 11.6672 61.1925 11.6896C60.1076 11.7269 58.9656 11.7656 57.8721 11.8032C57.9902 11.7471 58.6062 11.6248 57.8279 11.6674C57.3808 11.692 57.7148 11.8015 57.6741 11.8059C57.3107 11.8477 50.112 11.9937 48.7497 12.0421C48.2958 12.0581 46.9683 12.1873 46.8668 12.1917C46.2506 12.2171 44.1678 12.2092 43.738 12.2337C43.4687 12.2492 43.7273 12.3412 43.4868 12.3428C43.2636 12.3442 43.4922 12.2429 43.4259 12.2406C42.8632 12.2205 38.7847 12.4512 37.8102 12.3864C38.388 12.3985 41.3894 12.1302 41.3066 12.0651C41.2928 12.0562 40.5817 12.0021 40.4385 12.0412C40.2007 11.9647 39.3317 12.2387 38.8735 12.2011C38.822 12.1969 39.0201 12.0507 38.2023 12.0462C37.96 12.045 37.3847 12.1405 36.7702 12.0999C36.6655 12.0935 36.5597 12.0837 36.4541 12.0694C35.3246 12.1579 29.7635 12.1188 29.3197 12.2818C29.307 12.2901 30.1189 12.3213 29.5729 12.3976C28.8523 12.4989 29.4902 12.204 28.656 12.2015C28.5405 12.2008 26.2134 12.2892 26.1354 12.3084C25.432 12.4829 27.4775 12.4934 27.4607 12.512C27.3796 12.5598 25.6778 12.6315 25.6189 12.6222C25.5537 12.6127 26.9087 12.3706 25.2789 12.4912C25.4646 12.5112 25.6517 12.5311 25.8401 12.551C25.073 12.619 25.0034 12.4775 24.82 12.4735C24.2205 12.4613 23.5743 12.6956 22.653 12.4506C22.4097 12.3855 22.8086 12.296 22.7784 12.2861C22.4872 12.1976 22.1193 12.464 21.6518 12.2845C21.6211 12.271 22.6634 12.1293 20.8313 12.1763C20.9561 12.1914 21.0817 12.2066 21.2081 12.2217C20.951 12.2693 19.1215 12.3409 18.8625 12.3379C18.1415 12.3282 18.7617 12.1803 18.0485 12.2145C18.5317 12.3827 16.2882 12.4642 16.4225 12.3051C16.14 12.5078 14.2438 12.406 13.3522 12.4243C12.7873 12.4361 11.6674 12.5501 11.4796 12.545C11.2638 12.5383 11.3231 12.4035 10.9414 12.3837C10.8504 12.3775 9.67777 12.5054 8.64481 12.394C8.4445 12.3725 8.03598 12.1569 8.39312 12.0913C9.03025 11.9782 10.2027 12.1302 10.1932 11.9969C10.1685 11.8546 8.56503 11.9808 8.14826 11.9728C6.14564 11.9379 7.30188 11.7564 7.2433 11.7118C7.12361 11.6031 6.01265 11.6351 5.98048 11.6258C5.79319 11.586 6.55122 11.4781 6.56928 11.4095C6.56763 11.3207 5.5423 11.1867 5.77526 11.1508C6.08434 11.1004 7.08823 11.2083 7.13006 11.2008C7.91005 11.0946 6.84975 10.9167 6.52805 10.8241C6.43257 10.7955 6.80833 10.735 6.72987 10.7279C5.55188 10.62 6.47854 11.0226 5.72894 11.0133C5.01601 11.0062 5.93452 10.8479 5.8886 10.8416C5.87837 10.8337 5.01604 10.8484 4.91074 10.8034C4.82692 10.7817 6.96356 10.4648 6.8716 10.3495C6.18065 10.3931 5.49978 10.4365 4.84475 10.4791C4.77289 10.3276 5.76831 10.4151 5.86067 10.3969C6.05908 10.3601 5.49806 10.2968 5.51478 10.2479C5.5351 10.2166 6.19225 10.0898 5.5901 10.0598C5.36572 10.0499 4.96536 10.1676 4.19669 10.0774C6.80532 9.87059 4.98143 9.83096 4.91839 9.77826C4.83476 9.72609 6.07464 9.56663 4.56814 9.62768C4.48563 9.33143 4.62304 9.53198 5.02699 9.46922C5.54631 9.39149 4.33135 9.32432 6.25647 9.34962C6.14276 9.21286 4.62205 9.2616 4.51574 9.25315C4.44172 9.24494 4.79726 9.16716 4.66897 9.14716C3.2221 8.91411 4.21448 9.01208 3.7829 8.8507C3.73857 8.83645 2.37034 8.80725 3.41552 8.75563C5.3269 8.6614 6.10544 8.83931 6.42417 8.40798C5.00668 8.26047 3.31987 8.57657 2.88595 8.59215C2.25749 8.61472 2.90334 8.51208 2.82709 8.48982C2.80946 8.48246 2.22875 8.50425 2.22877 8.49739C1.81653 8.18513 4.74297 8.42834 5.66465 8.34852C5.4032 8.30687 5.15389 8.26491 4.91613 8.22264C5.22722 8.21276 5.6116 8.201 5.91463 8.19132C4.30932 8.13519 5.8743 8.15557 6.24365 7.88476C6.33 7.82382 5.29051 7.95114 6.48139 7.75744C5.58927 7.7426 5.8932 7.68143 5.08329 7.7758C5.10301 7.67055 6.89254 7.50661 7.59614 7.43479C5.08991 7.38127 6.53629 7.72853 4.36626 7.58063C3.96322 7.72063 5.01713 7.6685 4.91921 7.6924C4.62779 7.77682 3.90194 7.67312 3.06595 7.96405C2.93033 8.01177 3.51167 8.13336 2.65584 8.14844C2.54814 8.15024 2.01306 8.04724 2.00891 8.03889C2.08156 7.94584 2.62799 7.96624 2.65196 7.92755C2.67495 7.89092 2.05368 7.92828 2.06123 7.91809C2.03725 7.8044 2.55915 7.86185 2.48632 7.8279C2.32945 7.75407 0.121063 7.56369 2.98119 7.56365C0.60979 7.75269 2.6809 7.69757 3.60436 7.62439C3.84361 7.60586 3.91245 7.53584 4.23499 7.50393C4.67984 7.46192 5.16728 7.48224 5.40152 7.46372C5.64017 7.4438 4.26696 7.31755 6.2483 7.31503C5.23797 7.18039 3.46533 7.39678 2.46943 7.30919C0.460679 7.13206 3.85175 6.99769 4.20521 6.96641C4.29683 6.9581 3.98714 6.87379 4.04838 6.86658C4.13774 6.85567 6.08381 6.84858 6.26 6.76775C6.4384 6.68695 5.5786 6.7887 5.49976 6.71121C5.45626 6.65883 7.77388 6.50453 6.5208 6.50005C5.65827 6.49709 4.04585 6.75334 3.78523 6.52873C5.06663 6.47698 6.34966 6.42499 7.6074 6.37359C6.89783 6.30382 6.19497 6.23385 5.50945 6.1634C6.94796 6.09872 8.16313 6.16685 9.52736 6.00585C6.2546 5.808 10.5725 5.75404 10.6372 5.71804C10.674 5.69658 9.33385 5.50222 9.15541 5.46494C10.2915 5.34776 13.743 5.21588 11.7144 4.98557C12.109 5.03921 12.9504 4.86006 12.9504 4.84818C12.8369 4.72629 10.895 4.85721 11.2086 4.7364C11.572 4.59623 12.1106 4.75985 12.6554 4.73164C15.5566 4.58302 14.729 3.95274 17.66 3.98025C17.6027 3.95853 17.5501 3.93668 17.4886 3.91507C20.6331 3.87088 23.8185 3.82553 26.9578 3.78132C28.1706 3.55099 31.4366 3.34537 33.0938 3.32452C33.4205 3.32035 34.9881 3.38424 35.1185 3.39917C35.3414 3.42849 34.1177 3.47354 34.6719 3.52499C34.7418 3.5314 35.7701 3.52424 36.5475 3.49308C37.017 3.47381 37.3813 3.44459 37.3054 3.40292C37.1529 3.40027 36.8365 3.41983 36.546 3.43656C36.25 3.45304 35.9791 3.46689 35.9014 3.45606C35.6309 3.4175 35.9249 3.38428 36.5439 3.35449C38.3598 3.26468 43.2337 3.21034 43.5671 3.14465C43.3773 3.1134 43.1882 3.08213 42.9998 3.05085C43.5399 3.05467 44.0626 3.05894 44.579 3.06338ZM20.6406 12.6238C20.3384 12.7433 19.545 12.6799 19.067 12.7236C18.4123 12.7844 17.3664 13.2415 17.8147 12.7988C18.7105 12.7417 19.7465 12.6809 20.6406 12.6238ZM34.5013 12.432C33.8736 12.3883 34.3503 12.1351 34.8716 12.2217C34.9301 12.2316 35.3571 12.4906 34.5013 12.432ZM27.8433 12.4899C27.8684 12.4861 28.4082 12.4785 28.4282 12.4818C28.9147 12.5659 27.2886 12.5881 27.8433 12.4899ZM60.0477 11.5351C59.3397 11.5636 59.8575 11.7692 60.2968 11.6679C60.3245 11.6614 60.0943 11.5333 60.0477 11.5351ZM59.544 11.5422C58.989 11.3604 57.903 11.7855 58.7746 11.7232C58.8588 11.717 59.5692 11.5511 59.544 11.5422ZM32.2305 12.395C32.2996 12.3181 32.9654 12.3372 33.2552 12.3477C33.2481 12.4164 32.5051 12.3795 32.2305 12.395ZM48.8693 11.9439C48.906 11.8839 46.6151 11.9463 46.4575 12.0282C46.8234 11.9858 48.8538 11.9974 48.8693 11.9439ZM54.7121 11.7104C54.653 11.7017 53.8644 11.7375 53.8892 11.789C54.2744 11.8475 54.975 11.7499 54.7121 11.7104ZM66.3381 11.4159C66.3809 11.4017 65.7832 11.0853 67.1826 11.2679C67.3883 11.2946 66.659 11.3998 66.7322 11.4099C66.885 11.4292 67.0057 11.4369 67.1026 11.4364C66.453 11.4804 65.7831 11.5105 65.7178 11.492C65.4109 11.4048 66.3188 11.4218 66.3381 11.4159ZM72.4316 11.0136C72.5641 10.9561 73.425 10.9632 73.6223 10.9805C73.6562 10.9838 73.5126 11.1296 73.9011 11.1091C74.2132 11.0924 73.7426 10.9587 74.3521 10.9666C74.9609 10.9745 74.151 11.0989 74.2025 11.105C74.2804 11.1127 75.2102 11.0237 75.1843 11.1091C75.1643 11.1723 74.1608 11.1553 73.9046 11.1752C73.5827 11.2005 73.9759 11.295 73.4371 11.2862C73.0989 11.2808 73.2816 11.0924 73.21 11.0849C73.1493 11.0789 71.9752 11.2145 72.4334 11.0141C72.4328 11.0139 72.4322 11.0138 72.4316 11.0136ZM67.2783 11.4238C67.2295 11.4312 67.1721 11.436 67.1026 11.4364C67.1615 11.4324 67.2202 11.428 67.2783 11.4238ZM22.487 12.4955C22.8173 12.5436 21.8399 12.6416 21.4545 12.5773C21.4408 12.5177 22.4542 12.4875 22.487 12.4955ZM67.8789 11.2588C68.8514 11.28 68.1366 11.3616 67.2783 11.4238C67.5503 11.3822 67.553 11.2517 67.8789 11.2588ZM40.4385 12.0412C40.4787 12.0538 40.5045 12.0745 40.5086 12.1095C40.4029 12.0739 40.3931 12.0535 40.4385 12.0412ZM42.6782 12.0459C43.4552 11.9188 41.8721 11.9641 41.8876 12.0402C41.8921 12.069 42.6461 12.051 42.6782 12.0459ZM60.9484 11.5224C60.8769 11.5138 61.9605 11.1631 60.3815 11.4459C61.2326 11.4621 60.3405 11.5201 60.35 11.5482C60.3975 11.6282 61.8009 11.5141 62.1211 11.5411C62.3637 11.3894 61.1787 11.551 60.9502 11.5224C60.9496 11.5224 60.949 11.5224 60.9484 11.5224ZM83.4359 10.8138C83.2431 10.9039 82.6249 10.892 82.2093 10.8975C82.4012 10.8074 83.0185 10.8193 83.4359 10.8138ZM192.004 8.44082C189.153 8.55969 188.814 8.21821 191.381 8.31842C191.434 8.32052 192.178 8.40322 192.004 8.44082ZM167.612 8.7775C167.348 8.63154 168.206 8.59004 168.809 8.64054C168.943 8.65193 169.438 8.7953 168.876 8.8364C168.89 8.65281 168.019 8.6001 167.612 8.7775ZM68.4252 11.148C68.7026 11.0401 69.5907 11.0892 70.0374 11.093C69.7713 11.1828 68.8296 11.1693 68.4252 11.148ZM182.673 8.40479C182.374 8.39843 182.173 8.53346 182.225 8.54351C182.459 8.5897 183.014 8.47388 182.673 8.40479ZM65.6322 11.2036C65.5906 11.1444 66.7294 11.0573 66.8139 11.2042C66.5682 11.1997 65.6608 11.2407 65.6322 11.2036ZM82.649 10.7884C82.4694 10.7622 83.3942 10.6841 83.6762 10.7074C83.6549 10.7721 82.7664 10.8053 82.649 10.7884ZM177.848 8.53467C177.578 8.52815 176.897 8.53718 176.822 8.59177C176.73 8.65992 177.728 8.61893 177.848 8.53467ZM224.692 1.96902C224.679 1.97044 224.711 1.92174 224.56 1.99805C224.482 2.05513 224.357 2.05851 223.883 2.60123C223.746 2.77131 223.505 3.09065 223.306 3.59789C223.207 3.85734 223.117 4.1571 223.07 4.54937C223.013 5.01912 223.044 5.5855 223.205 6.12176C223.362 6.65935 223.64 7.14398 223.934 7.50057C224.188 7.80554 224.369 7.96154 224.571 8.12128C224.964 8.42242 225.28 8.56463 225.517 8.65961C225.456 8.65367 225.48 8.67656 225.463 8.67806C225.451 8.68153 225.415 8.67309 225.38 8.65648C225.124 8.55387 225.549 8.57638 225.553 8.56504C225.334 8.47894 225.046 8.35072 224.688 8.08858C224.51 7.95707 224.315 7.7899 224.121 7.57428C223.884 7.31665 223.581 6.88076 223.4 6.40852C222.992 5.43941 223.144 4.30905 223.301 3.87205C223.471 3.32983 223.687 2.99922 223.854 2.76713C224.355 2.13245 224.49 2.1267 224.564 2.05406C224.719 1.94937 224.683 1.97983 224.692 1.96902ZM185.506 8.28979C186.358 8.40117 185.413 8.29523 185.451 8.42638C186.03 8.42166 187.426 8.40617 186.461 8.29186C186.273 8.26977 185.774 8.29397 185.506 8.28979ZM184.714 8.25865C184.622 8.30283 183.998 8.44771 184.539 8.42913C184.789 8.42035 185.186 8.26433 184.714 8.25865ZM221.131 8.23931C220.403 8.08862 223.746 8.29832 223.791 8.34417C223.837 8.35845 223.865 8.37089 223.881 8.38079C224.005 8.35177 224.574 8.39763 224.618 8.49833C224.459 8.47208 223.999 8.43988 223.932 8.42491C223.91 8.41872 223.893 8.41326 223.882 8.40814C223.69 8.46069 221.285 8.25943 221.131 8.23931ZM215.476 8.00269C216.32 7.83939 216.496 8.13506 216.415 8.14325C215.458 8.25146 216.083 8.04325 216.055 8.03276C215.975 8.01486 215.334 8.10826 215.479 8.00272C215.478 8.00271 215.477 8.0027 215.476 8.00269ZM219.988 8.15474C220.027 8.15163 220.718 8.1817 220.758 8.18808C221.337 8.30415 219.332 8.21823 219.988 8.15474ZM77.026 10.6924C77.5492 10.7082 77.0392 10.8288 76.6917 10.7989C76.6632 10.7958 76.565 10.6783 77.026 10.6924ZM184.287 8.29469C184.28 8.29362 184.262 8.29254 184.235 8.29147C183.84 8.27334 181.106 8.26116 181.276 8.41147C181.49 8.39267 183.659 8.40279 184.236 8.3541C184.414 8.3399 184.459 8.32079 184.287 8.29469ZM161.19 8.69543C161.737 8.6853 161.144 8.85097 160.85 8.79995C160.741 8.78099 161.052 8.69808 161.19 8.69543ZM64.0767 11.1041C63.5083 11.2029 63.6189 10.9175 64.1162 11.0016C64.1358 11.0049 64.099 11.1003 64.0767 11.1041ZM165.55 8.69381C163.654 8.82544 164.106 8.32985 166.556 8.44436C166.48 8.46754 166.404 8.49073 166.328 8.51392C169.134 8.53043 166.527 8.54407 165.831 8.58545C165.568 8.60114 165.791 8.67776 165.552 8.69435C165.552 8.69417 165.551 8.69399 165.55 8.69381ZM158.316 8.74654C156.509 8.4398 159.943 8.59167 160.956 8.52574C159.993 8.68833 158.724 8.69347 160.448 8.80316C157.938 8.88408 158.992 8.72457 158.886 8.71534C158.77 8.70499 158.393 8.75972 158.316 8.74654ZM163.094 8.64433C163.2 8.63208 163.973 8.68641 164.269 8.66891C163.859 8.79513 162.41 8.7269 163.094 8.64433ZM209.477 8.05907C209.542 7.96672 209.713 7.89835 210.328 7.93293C210.139 7.97926 209.742 8.01926 209.477 8.05907ZM20.0429 12.1531C19.6139 12.1576 18.7373 12.1454 19.0077 12.2355C19.0288 12.2433 20.062 12.2071 20.0429 12.1531ZM175.322 8.37897C175.238 8.36907 172.866 8.40651 173.688 8.49281C173.942 8.51858 176.077 8.46542 175.322 8.37897ZM187.52 8.17956C187.329 8.18152 186.539 8.21134 186.522 8.23349C186.471 8.30976 187.439 8.25304 187.52 8.17956ZM17.876 12.1145C17.8327 12.106 16.4843 12.1578 16.6397 12.1986C16.9081 12.2764 18.0842 12.1421 17.876 12.1145ZM78.9269 10.428C79.0372 10.4218 79.1859 10.5184 79.2242 10.5185C79.3122 10.5177 81.3065 10.4288 80.5472 10.5768C80.4268 10.6014 77.5313 10.625 77.1552 10.6218C77.006 10.4879 78.2448 10.5876 78.5471 10.5658C78.6002 10.5617 78.6312 10.4457 78.926 10.4286C78.9263 10.4284 78.9266 10.4282 78.9269 10.428ZM212.694 7.96618C212.804 7.87776 215.126 7.83501 215.108 7.94232C214.276 7.94793 213.532 7.95647 212.694 7.96618ZM211.517 7.94816C211.008 7.88522 212.201 7.86708 212.526 7.89595C212.534 7.95469 211.596 7.95719 211.517 7.94816ZM183.062 7.92494C182.828 7.9503 183.55 8.06583 183.39 8.09338C183.287 8.11056 182.763 8.07157 182.595 8.11441C182.547 8.1279 183.086 8.23881 183.24 8.23104C183.458 8.22042 183.245 8.12953 183.483 8.12487C183.742 8.11984 183.991 8.12249 184.233 8.12785C184.757 8.13838 185.253 8.16037 185.761 8.15112C185.829 8.1497 185.299 8.09152 185.881 8.08308C185.971 8.08166 186.513 8.17232 187.192 8.14697C188.716 7.81547 189.848 8.10053 191.792 7.96242C191.706 7.93451 190.261 7.8773 190.181 7.87569C188.644 7.85005 186.01 7.88337 184.229 7.91191C184.126 7.91354 184.027 7.91514 183.931 7.9167C183.503 7.92359 183.712 7.98525 183.527 7.99074C183.381 7.99497 183.554 7.87139 183.062 7.92494ZM20.2624 12.0808C20.0753 11.9651 19.3284 12.0606 18.8719 12.0662C19.0246 12.171 19.8479 12.0648 20.2624 12.0808ZM200.978 7.89934C200.75 7.90598 200.024 7.8765 199.962 7.91341C199.887 7.96142 200.934 7.98154 200.978 7.89934ZM90.2306 10.1785C90.2525 10.1747 90.8038 10.1674 90.8248 10.1707C91.3196 10.255 89.6663 10.2764 90.2306 10.1785ZM103.447 9.87483C103.866 9.84968 104.288 9.80168 104.432 9.89595C104.164 9.88753 103.399 9.9441 103.447 9.87483ZM121.68 9.43151C121.59 9.30558 122.854 9.35852 123.092 9.36437C123.005 9.42332 121.746 9.5222 121.68 9.43151ZM209.383 7.65732C210.166 7.66426 209.999 7.47056 210.481 7.5584C210.557 7.57333 210.817 7.97694 209.978 7.82566C209.824 7.79859 210.429 7.70215 209.383 7.65732ZM166.953 8.44043C167.146 8.35184 167.754 8.36479 168.161 8.36345C168.071 8.42816 167.246 8.42848 166.953 8.44043ZM15.5041 12.0788C15.1094 11.9694 13.4893 12.0999 13.8944 12.1684C13.9417 12.1775 15.2508 12.0808 15.5041 12.0788ZM70.3798 10.7119C71.056 10.6005 69.6575 10.607 69.1949 10.7108C69.405 10.6994 70.3342 10.7193 70.3798 10.7119ZM117.298 9.46646C117.331 9.46181 118.06 9.45344 118.093 9.4573C118.692 9.54128 116.63 9.56548 117.298 9.46646ZM99.099 9.82629C99.3613 9.74231 101.084 9.76242 101.473 9.83047C101.103 9.95286 98.7783 9.93098 99.099 9.82629ZM206.233 7.72158C206.769 7.71509 207.289 7.73698 207.804 7.76895C207.69 7.83424 206.285 7.76982 206.233 7.72158ZM119.972 9.39444C120.011 9.39403 120.049 9.4005 120.087 9.4004C120.047 9.39857 120.009 9.39632 119.972 9.39444ZM193.938 7.78984C193.489 7.7699 193.583 7.88823 193.611 7.89152C193.951 7.92577 194.445 7.81242 193.938 7.78984ZM19.7373 11.9168C19.5672 11.8133 18.7797 11.9173 18.3435 11.9029C18.4697 11.9849 19.3621 11.9378 19.7373 11.9168ZM156.374 8.56688C155.792 8.46231 158.148 8.27617 158.637 8.34129C158.678 8.41264 156.463 8.58093 156.374 8.56688ZM68.236 10.6047C68.1868 10.5214 67.1986 10.6486 67.4102 10.6832C67.5436 10.7052 68.2649 10.6565 68.236 10.6047ZM159.821 8.36566C160.044 8.33516 160.566 8.40766 160.384 8.4623C160.15 8.53236 159.763 8.37425 159.821 8.36566ZM179.678 7.9084C179.585 7.8971 178.291 8.00715 178.828 8.0837C179.2 8.13691 179.256 8.01373 179.343 8.01181C179.444 8.01031 181.495 8.12356 179.678 7.9084ZM143.178 8.78308C143.668 8.73957 144.26 8.76401 144.77 8.75026C144.564 8.80715 143.389 8.84777 143.178 8.78308ZM72.049 10.485C71.9235 10.454 68.6998 10.5154 70.5332 10.574C70.6383 10.5773 72.4128 10.5793 72.049 10.485ZM209.383 7.65732C209.285 7.65647 209.164 7.65258 209.037 7.64442C209.163 7.64752 209.285 7.6531 209.383 7.65732ZM200.664 7.69285C200.848 7.6296 199.922 7.62174 199.672 7.65702C199.578 7.73304 200.643 7.70155 200.664 7.69285ZM144.807 8.6636C145.096 8.6219 145.643 8.64726 146.011 8.63497C145.951 8.69351 144.93 8.71894 144.807 8.6636ZM124.016 9.07859C124.603 9.09869 125.325 9.06602 125.336 8.99579C125.348 9.00644 125.377 9.01737 125.425 9.02791C125.473 9.03833 126.104 8.99092 126.379 9.00835C128.018 9.11146 120.056 9.24103 124.663 8.93452C124.447 8.98254 124.232 9.03056 124.016 9.07859ZM96.7553 9.71945C96.4193 9.64257 95.4887 9.77237 95.7317 9.79989C95.9006 9.81869 97.0914 9.7969 96.7553 9.71945ZM109.599 9.35408C109.499 9.3413 108.587 9.42313 108.565 9.46854C109.091 9.50302 110.055 9.41363 109.599 9.35408ZM94.1925 9.68319C93.9817 9.67557 93.7168 9.81952 93.7417 9.82489C93.9572 9.86969 94.5459 9.75091 94.1925 9.68319ZM207.8 7.29058C207.479 7.25205 206.492 7.3553 206.284 7.44707C206.244 7.42972 206.138 7.40732 205.939 7.38085C205.94 7.38085 205.941 7.38085 205.941 7.38084C205.635 7.34053 197.682 7.36567 203.033 7.49689C203.203 7.50125 202.973 7.42141 203.66 7.43092C203.706 7.43165 203.729 7.49795 203.867 7.50024C204.172 7.50487 205.908 7.53669 206.243 7.48205C206.246 7.49435 206.268 7.50597 206.315 7.51651C206.714 7.61027 208.047 7.32004 207.8 7.29058ZM111.408 9.29805C111.223 9.27787 110.643 9.31533 110.584 9.37543C110.873 9.39717 111.835 9.34516 111.408 9.29805ZM71.9421 10.247C71.5663 10.2083 70.6251 10.3225 70.9115 10.3631C71.086 10.3882 72.3746 10.2914 71.9421 10.247ZM105.585 9.47099C107.731 9.48794 106.097 9.45289 106.423 9.35889C106.144 9.39625 105.865 9.43362 105.585 9.47099ZM217.662 7.56197C217.317 7.53652 217.731 7.37332 218.092 7.47215C218.206 7.5035 217.854 7.5759 217.662 7.56197ZM220.545 4.16199C220.864 4.21495 219.514 4.57014 219.997 4.30133C220.02 4.29026 220.524 4.16323 220.545 4.16199ZM222.206 7.57892C221.989 7.67173 221.839 7.67597 221.206 7.62697C222.143 7.63467 221.296 7.50895 222.206 7.57892ZM125.329 8.98493C125.333 8.98898 125.336 8.99196 125.336 8.99579C125.331 8.99213 125.33 8.9886 125.329 8.98493ZM92.1702 9.76013C91.8991 9.68005 91.1469 9.70517 91.3732 9.78693C91.3949 9.79448 92.0615 9.82699 92.1702 9.76013ZM206.284 7.44707C206.319 7.46246 206.302 7.47259 206.243 7.48205C206.24 7.47046 206.256 7.45944 206.284 7.44707ZM96.2109 9.58908C96.1855 9.65448 97.3317 9.65132 97.3777 9.64258C98.0331 9.51403 96.6831 9.57348 96.2109 9.58908ZM64.3709 10.3489C64.3113 10.3572 64.7005 10.5145 64.9357 10.443C65.1176 10.3875 64.5935 10.3175 64.3709 10.3489ZM224.293 7.67108C224.616 7.69863 225.044 7.75065 225.089 7.83821C224.928 7.80016 224.275 7.72628 224.293 7.67108ZM221.095 4.09117C221.461 3.86888 222.355 3.55786 222.912 3.3674C222.972 3.48058 221.461 3.9404 221.095 4.09117ZM208.773 7.33406C208.748 7.32899 207.848 7.29449 207.97 7.37649C208.156 7.49647 209.024 7.37829 208.773 7.33406ZM66.1368 10.3926C66.5396 10.3256 65.6045 10.1754 65.1846 10.3206C64.968 10.395 66.068 10.4038 66.1368 10.3926ZM89.8205 9.70499C89.2869 9.76592 90.6145 9.81762 90.7983 9.72701C90.5512 9.72627 90.0099 9.68341 89.8205 9.70499ZM108.084 9.16761C106.386 8.96085 107.318 9.39078 107.617 9.34369C107.66 9.33698 108.125 9.17244 108.084 9.16761ZM11.2843 11.6915C11.0446 11.7322 11.9435 11.834 12.068 11.7485C12.1383 11.6953 11.4318 11.6658 11.2843 11.6915ZM133.565 8.72294C133.493 8.72539 133.423 8.72784 133.353 8.73017C133.405 8.72491 133.474 8.72199 133.565 8.72294ZM84.9383 9.49479C86.1332 9.81515 86.0031 9.54841 86.1061 9.5473C86.3294 9.54547 86.8512 9.62713 87.273 9.60102C86.7905 9.65254 86.309 9.70404 85.8284 9.75553C86.204 9.77137 89.5375 9.81697 89.5984 9.75868C89.6967 9.67533 88.655 9.72672 88.6229 9.7204C88.5787 9.71135 88.4095 9.49067 88.3122 9.48455C88.1499 9.47491 85.3787 9.53962 84.9383 9.49479ZM104.549 9.29276C104.821 9.31283 104.9 9.4 105.026 9.37562C105.069 9.36729 105.074 9.28218 105.22 9.25661C104.996 9.26866 104.772 9.28071 104.549 9.29276ZM82.8107 9.8632C82.4694 9.76792 83.9888 9.76916 84.0387 9.77955C84.3006 9.84337 83.0887 9.94104 82.8107 9.8632ZM95.6379 9.52786C95.5824 9.52317 94.4242 9.51946 94.4352 9.57682C94.7417 9.61314 96.2911 9.58755 95.6379 9.52786ZM105.401 9.24638C105.809 9.24633 106.581 9.31306 106.49 9.18731C106.489 9.18733 106.489 9.18734 106.488 9.18736C106.126 9.20703 105.763 9.2267 105.401 9.24638ZM67.5186 10.087C66.7579 9.90258 67.1215 10.1509 67.7936 10.1995C67.9945 10.1029 67.6434 10.117 67.5186 10.087ZM65.1099 9.99653C64.8967 9.96529 62.7149 10.0613 63.052 10.1605C63.1695 10.196 64.421 10.067 64.4804 10.0729C64.5687 10.0817 64.1696 10.2113 64.8413 10.1704C64.8017 10.131 65.1832 10.0069 65.1099 9.99653ZM66.8902 9.97253C66.1377 9.83672 65.9782 10.1267 66.5398 10.1131C66.7595 10.108 66.9977 9.99216 66.8902 9.97253ZM69.9688 9.91844C69.7071 9.89798 68.9706 9.87719 68.476 9.98488C69.1444 9.97597 69.8171 9.96696 70.4715 9.95843C70.5461 9.90266 70.2034 9.9363 69.967 9.91848C69.9676 9.91847 69.9682 9.91845 69.9688 9.91844ZM217.102 6.15114C217.694 6.05385 216.402 6.48375 216.359 6.4726C216.179 6.45764 216.835 6.19651 217.102 6.15114ZM6.56672 9.21523C6.39507 9.1873 6.27733 9.08398 5.92327 9.14875C6.272 9.21833 6.69051 9.28611 7.02864 9.35595C7.29706 9.1692 6.76939 9.24569 6.56672 9.21523ZM5.14277 8.59446C5.19765 8.5887 4.89415 8.31988 5.58691 8.48682C6.03248 8.60013 3.57951 8.78428 3.13594 8.67282C3.60527 8.60395 4.72584 8.64063 5.14277 8.59446ZM0.809099 7.50667C0.784808 7.4853 1.72899 7.42951 1.81947 7.44273C2.39262 7.51032 0.963814 7.62122 0.809099 7.50667ZM3.79153 7.48448C3.56544 7.46338 3.69844 7.43791 3.93522 7.42038C4.14348 7.40358 4.46007 7.39458 4.61317 7.40613C4.6277 7.45724 3.87755 7.49013 3.79153 7.48448ZM224.093 8.06119C224.616 8.07221 224.882 7.5422 224.208 7.87565C224.175 7.89201 224.07 8.05936 224.093 8.06119ZM1.71502 7.20521C2.14536 7.24813 1.19563 7.30659 0.900882 7.28285C0.857933 7.23254 1.65922 7.19879 1.71502 7.20521ZM224.568 8.36483C225.225 8.26718 224.854 7.91902 224.77 7.93147C224.433 7.98248 223.421 8.53094 223.217 8.64688C224.799 8.01922 224.258 8.40717 224.568 8.36483ZM227.387 6.88351C227.755 6.64167 227.416 6.81212 227.05 6.97681C226.689 7.14135 226.253 7.33391 226.137 7.45045C226.41 7.33541 227.19 7.01834 227.387 6.88351ZM224.419 2.60026C224.114 2.55647 223.117 2.45641 222.973 2.52204C223.317 2.525 224.292 2.66115 224.419 2.60026ZM223.7 2.334C223.202 2.20586 223.058 2.48089 223.651 2.43253C223.673 2.43068 223.718 2.34055 223.7 2.334ZM220.879 2.10203C220.537 1.97846 220.19 2.24224 220.696 2.265C220.861 2.2719 220.914 2.11609 220.879 2.10203ZM225.509 8.53441C225.981 8.40486 226.507 7.98423 225.519 8.34915C225.847 8.19105 226.182 8.02576 226.523 7.84787C225.179 8.28376 225.397 8.46886 225.021 8.60254C224.512 8.77408 224.474 8.54735 224.551 8.44447C224.184 8.72977 222.44 9.33826 221.444 9.68858C222.346 9.45478 223.812 9.06157 224.71 8.76979C224.963 8.68883 225.193 8.53706 225.407 8.4631C225.764 8.33825 225.482 8.54124 225.507 8.53511C225.508 8.53487 225.509 8.53464 225.509 8.53441ZM217.205 2.01466C216.279 1.87423 216.858 2.15692 217.394 2.11613C217.418 2.11272 217.223 2.01802 217.205 2.01466ZM0.446572 6.40061C1.69038 6.48521 0.814826 6.65953 3.42801 6.36206C2.31713 6.55405 3.37916 6.48111 3.16275 6.55267C2.96565 6.60995 2.35092 6.5822 2.71262 6.67834C2.23749 6.57577 -0.00487949 6.66422 0.00760306 6.64258C0.00788583 6.64258 0.0081184 6.64258 0.00832253 6.64258C-0.000376361 6.63694 -0.0139635 6.57027 0.0451742 6.50795C0.108821 6.44552 0.242722 6.38717 0.446572 6.40061ZM224.471 1.88314C224.181 1.52596 223.99 2.04107 223.368 1.72692C222.485 2.07174 225.733 1.87039 226.229 2.3437C224.314 2.06927 224.957 2.25122 225.703 2.35809C226.456 2.47589 227.565 2.68469 226.11 2.15112C227.272 2.42509 227.667 2.6177 227.578 2.52367C227.526 2.45298 227.165 2.26488 227.402 2.30153C227.515 2.3185 227.717 2.3771 227.887 2.43759C228.122 2.52957 228.43 2.6614 228.805 2.99853C229.153 3.20957 229.865 4.48503 229.663 5.34632C229.564 6.0389 229.291 6.43487 229.1 6.69237C228.964 6.86753 228.843 6.98853 228.736 7.08812C228.345 7.43294 228.17 7.51535 228.015 7.61773C227.699 7.81042 227.559 7.89277 227.598 7.9283C227.599 7.92791 227.6 7.92752 227.6 7.92714C227.819 7.81191 228.024 7.7088 228.367 7.47514C228.46 7.40952 228.543 7.34955 228.668 7.24493C228.816 7.11639 228.968 6.98698 229.191 6.69313C229.338 6.49257 229.512 6.2214 229.641 5.80141C229.762 5.46562 229.854 4.59614 229.54 3.91304C229.404 3.57995 229.165 3.25836 229.014 3.1011C228.871 2.9477 228.729 2.82788 228.596 2.73195C228.328 2.5408 228.103 2.43931 227.914 2.36671C227.455 2.19044 226.899 2.05899 226.496 1.99261C226.901 2.20859 226.65 2.20065 226.248 2.1196C225.862 2.0414 225.362 1.91016 225.113 1.77628C224.888 1.80876 224.699 1.8468 224.471 1.88314ZM227.377 7.57997C227.415 7.56131 227.567 7.49091 227.883 7.29772C227.957 7.2516 228.038 7.19991 228.152 7.11847C228.264 7.03503 228.36 6.97029 228.569 6.76809C228.676 6.65673 228.737 6.60749 228.921 6.34362C229.089 6.06699 229.31 5.75026 229.334 5.00265C229.39 4.20646 228.715 3.32588 228.501 3.20195C228.2 2.95026 227.953 2.84465 227.76 2.77032C227.458 2.66845 227.185 2.61174 227.235 2.64576C227.29 2.66949 227.512 2.74084 227.738 2.8288C227.88 2.88365 228.048 2.95851 228.25 3.0947C228.46 3.25569 228.651 3.34681 228.98 3.89299C229.274 4.36959 229.31 5.15433 229.208 5.4955C229.121 5.87567 228.973 6.13387 228.846 6.32155C228.434 6.87343 228.247 6.93567 228.085 7.06767C227.77 7.28516 227.577 7.38581 227.417 7.47879C227.112 7.65007 227.009 7.72452 227.377 7.57997ZM221.043 9.99221C221.549 9.829 222.35 9.61742 222.595 9.42741C222.088 9.59889 221.285 9.80745 221.043 9.99221ZM207.477 1.7493C206.799 1.83426 208.881 1.85283 208.28 1.75629C208.253 1.75165 207.513 1.74523 207.477 1.7493ZM222.887 1.83178C222.172 1.69472 222.512 2.03508 223.027 1.97731C223.056 1.97389 222.919 1.83807 222.887 1.83178ZM1.46264 6.33624C1.49347 6.25606 3.36585 6.26464 3.6655 6.25626C3.50068 6.33447 1.40324 6.42905 1.46264 6.33624ZM220.24 10.563C221.337 10.5153 222.61 9.74179 222.763 9.69648C222.915 9.65271 222.72 9.85066 222.755 9.84226C222.834 9.82637 224.432 9.26038 224.509 9.21896C224.562 9.19271 224.214 9.1313 224.524 8.96078C223.91 9.30248 220.975 10.2142 220.832 10.2739C220.719 10.3262 221.657 10.2188 220.242 10.5624C220.242 10.5626 220.241 10.5628 220.24 10.563ZM223.152 9.60448C222.728 9.67186 223.846 9.27899 224.125 9.20639C224.751 9.04968 223.204 9.59906 223.152 9.60448ZM225.894 8.68281C226.027 8.65612 227.254 8.15988 227.364 8.00303C226.666 8.22345 225.588 8.75943 225.894 8.68281ZM216.477 1.44327C216.15 1.44935 215.313 1.37776 215.262 1.44909C215.564 1.44117 216.424 1.514 216.477 1.44327ZM7.71491 5.55181C7.19677 5.50515 8.36896 5.4506 8.72689 5.47015C8.73593 5.51771 7.76257 5.55574 7.71491 5.55181ZM222.802 1.14177C222.599 1.09443 218.799 1.03146 218.267 1.06514C218.786 1.11916 222.547 1.23895 222.734 1.2365C222.786 1.23116 222.826 1.14642 222.802 1.14177ZM225.032 9.53623C224.726 9.76053 224.469 9.71713 224.425 9.73139C224.004 9.86547 223.156 10.1812 223.311 10.0206C224.049 9.81705 225.63 9.09412 225.032 9.53623ZM216.21 0.962748C214.909 0.986707 217.401 1.12758 217.064 1.01396C217.047 1.00688 216.351 0.960099 216.21 0.962748ZM223.228 1.1335C223.553 1.13669 225.774 1.04416 228.106 1.86406C228.5 2.04062 228.984 2.18062 229.662 3.04832C230.051 3.5638 230.31 4.34999 230.293 5.0177C230.271 5.71959 230.142 6.01111 230.006 6.34693C229.868 6.65611 229.723 6.87081 229.595 7.03943C229.498 7.16688 229.426 7.24698 229.351 7.32687C229.205 7.48113 229.085 7.58596 228.98 7.67239C228.67 7.92145 228.486 8.02287 228.399 8.07819C228.479 8.01042 228.593 7.92222 228.72 7.81816C228.782 7.76633 228.848 7.7107 228.919 7.64809C229.006 7.57237 229.118 7.47091 229.235 7.34782C229.294 7.28551 229.357 7.21591 229.424 7.13533C229.458 7.0935 229.487 7.05702 229.529 7.0009C229.581 6.93171 229.635 6.85497 229.691 6.76817C229.903 6.39793 230.179 5.98771 230.21 4.99972C230.291 3.9752 229.398 2.73446 229.102 2.56209C228.692 2.20773 228.345 2.05309 228.074 1.94652C227.644 1.77336 227.041 1.57321 226.507 1.48869C226.235 1.44493 226.313 1.52524 226.282 1.52003C225.867 1.46064 226.184 1.43115 225.93 1.39435C225.708 1.32881 222.811 1.21858 223.228 1.1335ZM224.863 9.67553C224.673 9.8176 222.406 10.6233 222.312 10.6316C221.592 10.7508 224.669 9.73849 224.863 9.67553ZM222.888 0.975448C223.295 0.805234 225.297 1.07427 223.913 1.0661C223.804 1.06649 223.237 0.952281 222.888 0.975448ZM216.352 0.790487C216.27 0.783527 214.969 0.733718 214.934 0.792043C215.128 0.815035 217.07 0.858075 216.352 0.790487ZM217.043 0.603076C217.01 0.604063 217.318 0.720183 216.702 0.697534C216.652 0.695682 216.552 0.56767 215.758 0.605095C215.605 0.612937 215.361 0.693887 215.378 0.699242C216.181 0.902274 218.665 0.563085 217.043 0.603076ZM224.855 9.78695C224.997 9.79193 224.754 10.0485 224.456 10.0693C224.328 10.0779 224.515 9.91202 224.855 9.78695ZM212.137 0.709025C212.915 0.615211 210.461 0.591314 210.362 0.616897C210.424 0.676038 212.067 0.717633 212.137 0.709025ZM8.89388 4.78257C8.89325 4.78258 8.89262 4.7826 8.89199 4.78261C9.53814 4.78771 9.13871 4.8776 9.17174 4.87926C10.5234 4.96149 10.1846 4.78982 10.398 4.76305C10.8515 4.70535 10.768 4.92685 11.5528 4.81571C10.268 4.98306 11.434 4.89676 11.4764 4.97371C11.6286 5.28825 9.74632 4.8691 9.13352 4.95158C9.04558 4.96309 9.69048 5.04815 9.46796 5.08278C8.72434 5.19559 6.42621 4.76296 8.89388 4.78257ZM224.254 10.1555C223.986 10.3558 221.741 11.0128 222.305 10.7422C222.392 10.7063 224.639 9.88032 224.254 10.1555ZM125.37 1.95299C125.916 1.85918 124.643 1.79402 124.413 1.86248C124.297 1.8966 125.129 1.99419 125.37 1.95299ZM116.487 1.81801C115.838 1.85001 115.162 2.20384 115.968 2.13207C116.054 2.12429 116.563 1.86302 116.487 1.81801ZM159.109 1.02179C158.436 0.915356 158.48 1.13855 158.973 1.125C159.146 1.12026 159.13 1.02517 159.109 1.02179ZM133.247 1.62515C133.179 1.61889 132.397 1.65133 132.426 1.70216C132.717 1.72632 133.686 1.6687 133.247 1.62515ZM159.324 0.985372C158.917 1.03432 159.622 1.18157 160.114 1.01285C159.863 1.0311 159.366 0.980359 159.324 0.985372ZM221.457 0.417929C221.11 0.496532 220.141 0.43869 219.571 0.441291C219.506 0.319216 221.057 0.422594 221.457 0.417929ZM119.244 1.88776C118.633 1.98639 119.949 2.02379 119.826 1.91564C119.809 1.91003 119.269 1.88359 119.244 1.88776ZM180.994 0.550611C180.542 0.629599 181.982 0.70019 181.584 0.582106C181.565 0.57733 181.019 0.546203 180.994 0.550611ZM187.192 0.48904C186.864 0.470055 185.421 0.500504 185.984 0.560892C186.074 0.57006 187.17 0.554464 187.192 0.48904ZM10.4356 4.67624C10.2566 4.55835 11.2829 4.56111 11.4469 4.5783C11.5031 4.58576 10.6635 4.82975 10.4356 4.67624ZM154.707 1.09642C154.354 1.11932 153.455 1.10962 153.296 1.17734C153.724 1.15475 154.819 1.222 154.707 1.09642ZM122.048 1.82045C121.51 1.70012 120.595 1.73503 120.825 1.90345C121.836 1.86777 120.697 1.75017 122.048 1.82045ZM161.594 0.794629C161.312 0.790323 161.1 0.96176 161.132 0.96896C161.439 1.03741 161.874 0.853776 161.594 0.794629ZM140.481 1.3927C140.461 1.32177 139.561 1.37462 139.683 1.41778C139.72 1.43234 140.495 1.45014 140.481 1.3927ZM209.514 0.230395C209.092 0.165575 210.383 0.100919 210.738 0.177568C210.922 0.28704 209.577 0.237513 209.514 0.230395ZM169.395 0.678143C169.437 0.571373 168.01 0.659557 168.575 0.73614C168.717 0.755277 169.381 0.713819 169.395 0.678143ZM182.894 0.30158C182.383 0.379161 183.328 0.420991 184.105 0.421079C184.79 0.420497 185.356 0.390851 184.874 0.327161C184.842 0.323006 184.501 0.315769 184.103 0.309808C183.577 0.300939 182.942 0.294546 182.894 0.30158ZM189.388 0.277044C189.224 0.265575 189.304 -0.0915313 189.975 0.0358896C190.063 0.0523977 189.653 0.152448 189.725 0.172913C189.776 0.184333 191.198 0.213889 191.291 0.204376C191.366 0.193898 191.276 0.0810981 191.352 0.0672479C191.438 0.0517035 192.359 0.139141 192.828 0.134022C193.713 0.124118 193.799 0.0282216 193.872 0.0269389C194.069 0.0237608 194.453 0.086247 194.889 0.0807509C197.042 0.0525274 200.425 -0.0627451 202.125 0.125615C200.613 0.0570192 199.136 0.157096 197.596 0.200386C198.03 -0.00280333 195.364 0.378451 196.912 0.132071C196.241 0.186712 189.872 0.311231 189.39 0.277017C189.389 0.277026 189.389 0.277035 189.388 0.277044ZM113.922 1.77992C114.318 1.64885 112.273 1.72552 112.103 1.87024C112.373 1.8832 113.873 1.79487 113.922 1.77992ZM123.355 1.25817C123.544 1.23272 123.719 0.991022 124.716 1.08795C124.717 1.08793 124.718 1.08791 124.719 1.08789C125.01 1.11619 124.681 1.18185 124.734 1.20121C124.753 1.2092 125.668 1.30577 124.911 1.34262C123.763 1.39888 124.799 1.16856 124.186 1.18051C124.112 1.18207 122.955 1.33802 123.023 1.36464C123.03 1.36776 123.378 1.33231 123.436 1.34267C123.655 1.38159 123.551 1.45824 123.581 1.46104C123.682 1.46769 125.513 1.29808 125.785 1.40206C125.87 1.4356 122.862 1.58875 122.744 1.57311C122.669 1.56321 122.695 1.35669 122.618 1.33827C122.578 1.32912 121.368 1.43502 121.209 1.41986C121.163 1.41547 121.128 1.4104 121.103 1.40615C121.288 1.46545 120.188 1.48702 120.22 1.41439C120.239 1.3857 120.996 1.38403 121.023 1.38833C121.035 1.39013 121.045 1.39277 121.055 1.39453C120.897 1.32061 123.456 1.2634 122.901 1.16104C123.64 1.08023 122.8 1.33292 123.355 1.25817ZM126.919 1.04711C126.843 1.07055 126.767 1.09399 126.691 1.11744C127.992 1.03384 129.478 1.10331 130.984 1.0675C131.364 1.0586 130.923 0.936424 131.423 0.960998C131.823 0.980699 132.267 1.09323 132.051 1.12564C131.998 1.13369 131.184 1.0726 130.776 1.0903C129.573 1.14264 129.881 1.24904 129.811 1.25375C129.734 1.25877 128.98 1.19651 128.568 1.2097C127.534 1.24312 127.063 1.32388 125.642 1.26623C126.459 1.17215 126.007 1.02018 126.919 1.04711ZM175.343 0.242363C175.393 0.169946 176.228 0.217791 176.536 0.201615C176.483 0.27423 175.651 0.226068 175.343 0.242363ZM48.6962 3.14325C48.4372 3.26723 50.3887 3.24594 49.8721 3.16163C49.7565 3.14294 48.9385 3.13783 48.6962 3.14325ZM57.4829 2.98834C57.7419 2.94926 56.6932 2.89173 56.6984 2.98239C56.7002 3.01146 57.4489 2.99343 57.4829 2.98834ZM143.708 0.776414C143.758 0.771626 144.475 0.781686 144.497 0.787158C144.975 0.900979 142.614 0.881962 143.708 0.776414ZM68.1637 2.57059C67.247 2.67084 70.0143 2.63366 69.1662 2.55724C69.1233 2.55355 68.2071 2.56575 68.1637 2.57059ZM71.9767 2.45211C71.7574 2.46179 70.7884 2.44825 70.7771 2.48434C70.7587 2.54255 71.868 2.55381 71.9767 2.45211ZM161.774 0.347775C161.667 0.217821 162.945 0.291437 163.383 0.265817C163.491 0.395831 162.22 0.321804 161.774 0.347775ZM153.681 0.421962C159.091 0.20166 157.899 0.509369 153.363 0.493224C153.355 0.408619 153.343 0.435839 153.681 0.421962ZM160.6 0.290452C160.405 0.379197 159.787 0.367041 159.367 0.3691C159.441 0.308653 160.301 0.311915 160.6 0.290452ZM46.3594 3.02202C46.6979 2.90631 48.2189 2.99891 47.9457 3.05009C47.905 3.06066 46.2284 3.08423 46.3594 3.02202ZM144.156 0.653272C144.026 0.52763 145.646 0.543824 145.775 0.569521C146.28 0.673065 144.28 0.62208 144.156 0.653272ZM169.436 0.079381C169.723 -0.0269656 170.539 0.00878048 171.058 2.67029e-05C170.824 0.0906501 169.884 0.0723314 169.436 0.079381ZM165.66 0.0760584C165.693 0.0715098 166.422 0.0658588 166.454 0.0698543C167.053 0.156074 164.991 0.172608 165.66 0.0760584ZM7.97115 3.83932C7.99162 3.83555 8.53904 3.82792 8.56161 3.83112C9.05295 3.91518 7.41451 3.93748 7.97115 3.83932Z" fill="url(#paint0_linear_865_2891)"/>
<defs>
<linearGradient id="paint0_linear_865_2891" x1="0.00195313" y1="6.45401" x2="227.831" y2="6.45401" gradientUnits="userSpaceOnUse">
<stop stop-color="#E7872D"/>
<stop offset="1" stop-color="#F8B730"/>
</linearGradient>
</defs>
</svg>
