<svg width="234" height="22" viewBox="0 0 234 22" fill="none" xmlns="http://www.w3.org/2000/svg">
<path d="M21.3912 15.102C21.5465 15.0624 22.1812 14.978 22.4539 14.9255C22.1644 15.098 20.8336 15.2438 21.3912 15.102ZM46.9215 12.4456C46.9151 12.4753 46.9344 12.5157 46.9713 12.5749C46.7783 12.4884 46.9412 12.5691 47.225 12.6236C47.2689 12.6337 47.1421 12.7055 47.2487 12.7221C47.3646 12.7377 47.346 12.6191 47.531 12.6171C47.6934 12.6368 48.9494 12.6474 49.4655 12.547C51.2966 12.2564 53.3412 11.5795 55.3815 10.911C53.3134 11.7129 55.4539 11.0834 56.0334 10.8237C56.1613 10.7611 56.0653 10.5923 58.1943 9.80706C59.549 9.28887 58.4306 10.1046 60.6114 9.00235C59.049 9.46536 60.105 9.00618 61.286 8.47786C61.4873 8.38773 61.6965 8.29526 61.896 8.20751C62.1471 8.09034 64.2222 7.25438 65.1495 6.89535C65.4641 6.76995 65.9086 6.47845 66.3321 6.31993C66.6238 6.21091 66.8656 6.18964 67.3014 6.03233C69.3298 5.30298 71.3732 4.6725 73.5085 4.16588C72.3386 4.76248 74.5129 4.04606 74.6205 4.04605C75.1447 4.00251 72.857 4.57195 73.7748 4.40257C75.0366 4.08585 76.3161 3.80875 77.6138 3.58033C76.5387 3.72452 78.9898 3.09667 79.4739 3.1491C79.3958 3.07374 80.0226 2.98117 80.9418 2.92155C82.6521 2.79305 85.747 2.82921 86.5521 2.84936C86.6657 2.84455 86.3529 2.79576 86.4415 2.7719C86.5304 2.76547 87.0135 2.68005 88.8427 3.00251C89.2327 3.08019 89.0695 3.13102 89.2732 3.16381C89.2886 3.16639 89.3146 3.1671 89.3497 3.16712C89.8363 3.15868 91.7032 3.69771 92.5247 4.80377C92.7033 5.01628 92.1259 4.52525 92.211 4.66521C92.2548 4.74493 93.3699 5.81571 94.2105 7.6079C93.9642 6.81497 94.6729 8.1427 95.1727 9.45146C95.694 10.7796 96.2186 12.26 96.3773 12.7305C96.3344 12.5321 96.2948 12.3406 96.253 12.1425C96.5292 13.0861 96.6756 13.2078 96.7535 13.4118C96.8375 13.6296 96.921 13.8564 97.013 14.1054C97.0565 14.2556 97.087 14.3212 97.017 14.2495C96.9593 14.1827 96.7323 14.0064 96.7438 14.0194C96.7468 14.0205 96.7625 14.0287 96.7893 14.0422C96.5925 13.9112 96.4483 13.8342 96.374 13.7876C96.3031 13.7395 96.2383 13.7321 96.4342 13.7568C96.3307 13.7259 96.2805 13.683 96.3312 13.6538C96.2135 13.6665 96.7928 13.6662 97.371 13.5575C96.1154 13.9671 97.6318 13.5362 97.7965 13.4792C97.9861 13.4308 97.7291 13.5745 98.0479 13.4938C98.0826 13.4833 98.0098 13.421 98.5223 13.2887C99.6129 12.9952 99.4816 13.1252 99.9537 12.9949C99.9931 12.983 99.8636 12.9645 100.367 12.7928C100.431 12.7699 100.511 12.743 100.611 12.7101C103.035 11.8532 100.588 12.7909 100.529 12.8037C100.452 12.8362 100.846 12.8742 100.442 13.0512C100.228 13.1379 99.8329 13.2602 99.1475 13.406C99.8953 13.2436 100.014 13.3448 100.101 13.325C100.127 13.3186 100.279 13.2741 100.488 13.2111C100.842 13.1051 101.413 12.9055 101.457 12.8866C102.058 12.6336 101.485 12.7317 101.6 12.6751C101.681 12.6401 103.276 12.1896 103.558 11.782C104.41 11.7287 103.186 12.1828 101.969 12.654C101.805 12.7711 103.184 12.3264 103.266 12.2918C105.073 11.6079 103.998 11.7891 104.347 11.5127C104.529 11.3677 105.332 11.2109 104.572 11.3025C106.234 10.6384 105.26 11.1318 105.375 11.1051C105.544 11.0649 106.114 10.7856 106.191 10.7635C106.304 10.7311 105.949 10.9389 106.387 10.7936C106.458 10.7697 107.109 10.3969 106.199 10.6921C107.396 10.2452 107.266 10.1936 107.742 10.217C108.441 9.55821 108.423 10.1875 108.757 10.0823C109.65 9.80188 109.296 9.63008 109.337 9.59939C109.62 9.39183 112.112 8.587 112.722 8.34091C112.544 8.61687 110.757 9.03729 110.392 9.21773C109.169 9.80774 112.221 8.66161 111.386 9.24193C111.749 9.03545 112.115 8.82992 112.484 8.62582C113.26 8.53641 112.255 8.94845 114.185 8.23777C114.458 7.99349 112.813 8.72139 113.118 8.50012C113.294 8.36748 114.426 7.97656 114.438 7.9376C114.447 7.88884 113.436 8.27677 113.577 8.16189C113.874 7.89594 117.713 6.84481 114.849 7.81824C115.363 7.65236 115.755 7.65183 116.147 7.59471C116.362 7.56401 116.576 7.516 116.81 7.41385C117.237 7.23142 114.639 7.58869 118.391 6.56635C118.512 6.6667 116.903 7.03785 116.872 7.05978C116.819 7.09059 117.186 7.2918 117.238 7.29173C117.427 7.27452 121.202 6.04669 122.062 5.99332C121.698 5.90247 124.975 5.228 125.325 5.10475C125.417 5.06845 125.037 5.04911 125.136 5.0145C125.748 4.80014 127.511 4.60173 128.316 4.44569C129.216 4.26887 129.086 4.20495 129.136 4.19469C129.529 4.12308 129.224 4.24523 129.469 4.19764C129.83 4.11775 132.381 3.68715 132.508 3.66423C132.546 3.65434 132.103 3.61835 132.669 3.51027C132.768 3.49538 132.716 3.61062 134.389 3.33457C136.433 3.01836 132.952 3.36391 133.785 3.13022C135.12 3.13768 135.065 2.97216 135.421 2.94521C135.565 2.93719 136.474 2.98403 137.603 2.92288C136.797 2.98388 136.059 3.07729 135.337 3.1809C136.048 3.1256 137.46 2.97485 138.208 3.0054C138.387 3.01128 138.401 3.0475 138.479 3.08109C138.576 3.11933 138.614 3.13184 139.24 3.17955C139.284 3.18355 139.35 3.18328 139.422 3.18092C139.602 3.16728 139.801 3.11278 139.442 3.01982C139.03 2.93541 138.532 2.90731 137.846 2.97976C137.726 2.88017 138.456 2.89192 139.337 2.94644C139.361 2.94811 139.398 2.9454 139.452 2.94241C139.636 2.92223 140.096 2.87128 140.71 3.145C140.799 3.18335 140.3 3.19474 140.449 3.32716C140.562 3.46842 141.517 3.65486 143.329 4.53273C143.446 4.58917 143.097 4.29841 143.212 4.35189C143.306 4.38699 144.116 4.95019 144.196 5.00341C144.29 5.05675 143.953 4.73286 144.067 4.79424C144.658 5.11337 145.137 5.83882 144.092 5.0485C144.439 5.33562 144.757 5.6228 145.057 5.90854C144.885 5.54627 145.358 6.00264 145.747 6.37376C145.927 6.53554 146.089 6.69519 146.225 6.83106C147.327 7.97791 147.598 8.65575 147.814 8.98855C148.008 9.3277 148.052 9.37819 148.056 9.32438C148.067 9.21905 147.837 8.64504 148.061 9.00771C148.695 10.1132 148.031 9.47483 148.679 10.9046C148.707 10.9694 148.609 10.5602 148.637 10.5533C148.656 10.5056 148.887 11.1342 149.246 12.3322C149.123 12.0075 148.989 11.6106 148.829 11.1536C148.774 11.3215 148.909 11.7224 149.045 12.0299C149.183 12.3437 149.326 12.5589 149.34 12.5901C149.495 12.9463 149.496 12.953 149.527 13.0268C149.543 13.0695 149.657 13.2475 149.692 13.1958C149.693 13.1922 149.689 13.1901 149.682 13.1873C149.497 12.9932 149.142 12.7531 148.865 12.6145C148.449 12.415 148.486 12.4387 148.63 12.4591C148.767 12.4844 149.302 12.6703 149.737 13.136C149.804 13.2054 149.706 13.0373 149.735 13.0028C149.741 12.9883 149.874 13.1717 149.803 13.0746C149.535 12.7742 149.125 12.5127 148.831 12.4041C148.531 12.289 148.359 12.2778 148.284 12.2717C148.14 12.2696 148.27 12.2763 148.269 12.2789C148.354 12.3146 148.189 12.3407 148.225 12.3497C148.24 12.3485 148.624 12.4417 148.453 12.4626C148.43 12.461 148.169 12.4381 148.229 12.4429C148.273 12.4435 148.613 12.393 149.08 12.2511C150.016 11.9754 151.346 11.4163 151.792 11.261C152.639 10.9608 153.212 10.9404 153.33 10.7853C153.347 10.7532 153.346 10.7112 153.324 10.6543C153.68 10.8532 153.829 10.5521 153.954 10.4997C155.447 9.86545 155.477 9.84222 156.819 9.18118C157.11 9.03715 157.418 8.99921 157.512 8.93678C157.57 8.89874 157.409 8.86021 157.701 8.68803C158.101 8.44807 160.739 7.34802 160.962 7.31623C161.179 7.27974 159.869 7.83884 160.142 7.81862C161.08 7.4002 161.976 6.97392 162.94 6.56773C163.339 6.40029 163.161 6.54876 163.334 6.47591C163.407 6.44262 164.772 5.80694 164.705 5.8108C164.527 5.79929 160.311 7.69088 161.379 7.09747C161.581 6.98243 162.404 6.78484 162.208 6.67018C166.017 5.05264 169.946 3.53905 174.241 2.53429C171.81 3.25814 169.158 4.01549 166.8 4.93709C166.475 5.06137 165.384 5.47647 165.551 5.51088C167.539 4.73201 170.059 3.77341 172.122 3.2443C172.187 3.22725 171.971 3.37715 172.219 3.31893C172.675 3.20527 174.158 2.6793 174.428 2.65843C174.471 2.65449 173.632 2.97525 173.913 2.97808C174.585 2.98553 174.701 2.60858 175.205 2.45966C175.241 2.4495 175.279 2.44033 175.318 2.43233C175.799 2.25829 179.338 2.06854 180.275 2.09757C181.252 1.9722 177.582 2.00309 177.865 1.95107C180.281 1.63437 182.959 2.07484 185.241 2.97705C185.281 2.99314 184.96 2.77551 185.477 2.96922C186.366 3.32047 186.534 3.55694 186.926 3.78269C187.374 4.01841 188.795 4.9324 188.905 5.08439C188.925 5.105 188.599 5.01661 188.557 4.99174C187.951 4.63123 187.798 4.36918 187.744 4.3315C187.527 4.19092 187.284 4.11619 187.083 4.00004C186.747 3.80808 186.582 3.65874 186.119 3.43393C185.795 3.28055 186.066 3.51742 185.757 3.37352C185.652 3.30771 184.447 2.599 184.25 2.80461C184.229 2.82604 185.077 3.08764 186.226 3.66563C186.797 3.95242 187.441 4.32439 188.062 4.74354C188.374 4.95278 188.68 5.17394 188.955 5.37836C189.087 5.47673 189.219 5.57676 189.316 5.64912C189.401 5.71571 189.52 5.78532 189.327 5.67392C191.497 6.9764 192.051 8.56729 192.486 9.48204C192.885 10.4468 193.042 11.0609 193.12 11.2706C192.908 10.4285 192.65 9.51405 192.111 8.45632C193.164 10.6188 193.587 12.3972 193.378 12.5949C193.528 13.2501 193.654 13.8699 193.774 14.3654C193.833 14.6085 193.895 14.8291 193.928 14.9223C193.942 14.9665 193.952 14.9773 193.909 14.8954C193.852 14.8108 193.795 14.6123 193.319 14.1912C192.36 13.4485 191.863 13.5354 191.801 13.4986C191.661 13.4833 191.64 13.4902 191.662 13.4892C191.692 13.4911 191.887 13.4752 192.041 13.4538C192.417 13.4033 192.841 13.3223 193.303 13.2225C194.222 13.023 195.165 12.7781 196.135 12.5106C198.075 11.9734 200.02 11.3725 201.97 10.7463C202.873 10.4756 202.436 10.8143 203.912 10.2663C203.517 10.3371 203.099 10.4146 202.7 10.4849C203.487 10.2747 206.877 9.20457 207.414 8.97283C207.483 8.9433 207.524 8.75459 208.365 8.44485C209.109 8.16997 209.268 8.24468 209.676 8.12525C210.017 8.0247 210.384 7.85922 210.485 7.8303C210.564 7.80819 210.619 7.86879 210.807 7.8155C211.401 7.64605 210.859 7.61396 211.517 7.63761C211.38 7.69684 211.243 7.75601 211.106 7.81509C211.818 7.59744 212.811 7.35574 211.799 7.77989C211.625 7.8527 211.753 7.72885 211.621 7.7766C206.444 9.63648 210.632 8.30384 212.406 7.53774C212.91 7.47331 215.495 6.45187 215.584 6.43959C215.715 6.42391 215.299 6.67127 215.911 6.52377C216.045 6.49484 219.494 5.12816 218.296 5.73497C218.046 5.86237 216.373 6.45756 215.967 6.6119C217 6.47535 219.089 5.33183 219.345 5.24152C220.366 4.89024 217.481 6.16589 219.76 5.32498C221.493 4.68118 219.821 5.15934 220.458 4.84382C220.828 4.66374 222.839 4.0603 222.711 3.87342C223.371 3.58779 223.022 3.85036 223.108 3.82552C223.18 3.80592 224.497 3.21127 224.917 3.09044C224.969 3.07555 224.854 3.24497 224.909 3.23271C225.025 3.20456 226.278 2.66947 226.317 2.64145C226.343 2.62371 226.014 2.65105 226.124 2.57948C226.269 2.49122 227.463 2.01971 227.528 1.96C227.588 1.88966 226.143 2.52173 226.336 2.31997C227.047 2.0587 228.114 1.52578 228.521 1.24952C228.399 1.33117 227.789 1.59706 227.539 1.69227C227.595 1.49416 228.985 0.894999 228.558 1.22069C228.838 1.02255 228.614 1.08026 228.758 0.945698C228.803 0.90823 229.191 0.732259 229.281 0.660547C229.28 0.655075 228.833 0.786654 228.904 0.718422C229.032 0.60129 230.312 0.0255015 230.365 0.00831567C230.489 -0.0285972 230.365 0.0615924 230.158 0.191817C229.938 0.328251 229.691 0.475759 229.663 0.526411C229.647 0.548556 230.569 0.261334 230.551 0.278665C230.689 0.358566 229.691 0.730209 229.855 0.778218C230.072 0.704737 230.368 0.592145 230.577 0.516149C229.784 1.04365 227.939 1.76779 227.512 2.08948C228.97 1.4384 230.371 0.793088 230.52 1.04814C230.568 1.1663 230.015 1.50548 230.049 1.52355C230.175 1.59529 230.964 1.0829 230.961 1.0868C230.985 1.08251 230.997 1.08389 231 1.0898C231 1.0898 231 1.08981 231 1.08981C231.073 1.13662 229.915 1.73534 229.852 1.7917C229.774 1.8874 230.408 1.84506 230.42 1.89291C230.428 1.90291 229.543 2.35969 229.885 2.30039C230.25 2.23514 230.967 1.90161 231.007 1.89055C231.174 1.87442 229.876 2.5267 229.841 2.57106C229.805 2.60523 230.604 2.34937 230.617 2.37188C230.659 2.3841 230.117 2.69782 229.944 2.86877C229.814 2.99795 230.293 2.83864 230.22 2.88228C230.172 2.91468 228.876 3.47897 228.831 3.50792C228.745 3.56294 229.071 3.50784 229.035 3.54414C228.989 3.59478 228.562 3.74601 228.627 3.74964C228.675 3.75625 230.393 3.30039 230.402 3.36966C230.443 3.48789 228.626 3.97814 230.396 3.72483C230.393 3.73016 230.798 3.51043 230.804 3.51071C231.077 3.48251 229.898 4.17144 231.387 3.46262C228.664 4.86175 231.093 3.80119 230.782 4.16599C230.667 4.30702 229.544 4.83138 229.563 4.83428C229.699 4.88492 230.034 4.65539 230.176 4.64676C230.247 4.6469 229.302 5.16911 229.552 5.13605C229.66 5.13006 230.745 4.64342 230.769 4.63796C231.21 4.51264 230.729 4.80412 230.841 4.80475C230.897 4.81465 231.575 4.51049 231.579 4.51344C231.623 4.50779 230.78 5.02643 230.634 5.13617C230.514 5.22632 231.038 5.05277 230.95 5.10777C230.424 5.44007 229.087 5.76657 230.402 5.54355C230.489 5.5275 230.932 5.32404 230.943 5.32291C231.251 5.28485 230.446 5.6488 230.306 5.78762C230.093 6.01768 231.299 5.41688 230.306 5.94495C231.115 5.68317 231.507 5.51018 232.385 5.07131C229.991 6.24208 229.226 6.90604 231.952 5.69487C231.045 6.10019 231.272 6.19605 231.004 6.3186C230.826 6.40078 229.539 6.7513 230.261 6.88994C230.344 6.91105 231.082 6.5206 230.884 6.7208C229.077 7.46752 230.854 6.80863 230.878 6.81145C230.959 7.06084 226.452 8.70929 225.698 9.02301C224.853 9.39308 224.11 9.88788 223.932 9.95759C223.305 10.2015 223.79 9.90882 223.637 9.93018C223.481 9.95456 221.756 10.818 221.66 10.8426C221.295 10.9382 221.61 10.6951 221.571 10.7036C221.109 10.8074 218.74 11.798 218.049 12.0246C218.098 12.0863 219.456 11.5847 218.651 12.0134C217.709 12.5139 217.539 12.2256 217.508 12.2218C212.982 13.9006 208.444 15.5157 203.827 17.0254C203.942 17.1766 206.903 16.0529 206.98 16.0468C207.425 16.0496 202.347 17.73 201.679 17.8567C202.169 17.7425 202.668 17.6237 203.148 17.5089C202.411 17.9587 200.494 18.2872 199.333 18.7193C198.943 18.8643 199.736 18.7113 199.71 18.724C199.292 18.9303 198.565 19.0784 199.065 18.824C198.033 19.2273 198.146 19.0793 197.315 19.2996C197.274 19.3102 197.644 19.2947 197.009 19.5007C196.694 19.6082 194.987 20.0305 194.772 20.1409C194.679 20.194 195.629 20.2994 195.688 20.0043C197.547 19.6724 196.238 19.7398 196.962 19.5581C197.07 19.5275 196.849 19.7575 198.585 19.1921C198.351 19.5494 196.227 19.9151 195.895 20.0214C195.181 20.2781 198.22 19.6374 198.679 19.2671C198.494 19.5408 198.882 19.2401 199.547 19.0526C200.25 18.8532 199.959 19.0057 200.338 18.8922C201.381 18.5761 200.911 18.5629 201.792 18.4309C200.842 18.2902 203.226 17.9235 203.919 17.8093C202.851 18.1784 201.785 18.5386 200.697 18.8927C200.766 18.8946 200.836 18.8963 200.905 18.8979C200.613 18.9843 200.325 19.0684 200.041 19.1502C200.08 19.1164 200.119 19.0826 200.159 19.0488C198.701 19.6279 198.316 19.5685 198.175 19.608C196.566 20.0283 194.798 20.5493 192.684 20.8182C192.515 20.8362 192.475 20.8679 192.237 20.9062C192.105 20.9244 191.99 20.9452 191.635 20.9498C191.44 20.95 191.205 20.9458 190.87 20.9027C190.649 20.8301 189.84 20.9205 188.52 19.8938C187.737 19.2046 187.458 18.6182 187.236 18.1517C186.98 17.5511 187.053 17.5815 187.059 17.5284C187.078 17.4917 187.063 17.4144 186.911 16.9595C186.327 15.9786 186.601 16.0188 186.53 15.7433C186.364 15.0199 186.217 14.6736 186.201 14.6114C186.02 13.836 185.771 12.843 185.565 12.4038C185.56 12.3962 185.576 12.6656 185.479 12.3643C185.468 12.3298 185.449 12.1525 185.445 12.0282C185.445 11.8925 185.463 11.91 185.789 12.0748C185.218 11.7329 185.103 11.6102 184.9 11.4714C184.723 11.3441 184.575 11.2444 184.428 11.1594C184.56 11.2681 184.696 11.3833 184.863 11.5211C185.058 11.6711 185.163 11.7972 185.747 12.1507C185.739 12.1472 185.731 12.1436 185.723 12.14C185.73 12.143 185.738 12.1466 185.747 12.1508C184.766 11.5459 184.373 11.1744 183.813 10.8769C183.307 10.5958 182.917 10.471 183.144 10.6397C183.422 10.8395 184.335 11.1521 184.311 11.4337C183.923 11.1035 182.842 10.3933 181.683 10.0904C180.532 9.75462 179.286 9.7929 179.102 9.77234C179.05 9.76494 179.36 9.68439 179.29 9.67568C179.24 9.65481 178.151 9.73859 177.998 9.74228C177.909 9.734 178.391 9.63362 178.351 9.61182C178.322 9.57489 176.898 9.75996 176.828 9.89249C177.181 9.76728 178.149 9.66352 177.657 9.81701C177.595 9.83525 177.24 9.83321 177.164 9.86183C176.45 10.1038 178.646 9.69791 178.955 9.74282C178.38 9.81701 177.648 9.90121 176.85 10.0672C175.697 10.3051 174.445 10.6251 173.41 10.9959C172.632 11.154 174.492 10.5366 173.62 10.7346C171.803 11.1643 173.182 10.987 173.129 11.0137C172.717 11.222 171.072 11.3352 171.18 11.649C170.52 11.8353 170.714 11.7175 169.82 12.1004C169.947 12.0761 170.075 12.0522 170.202 12.0287C169.264 12.5728 166.952 13.0087 167.095 12.9134C167.489 12.6401 168.661 12.3313 168.756 12.292C168.893 12.2352 169.166 11.7537 170.815 11.4668C171.373 11.0162 168.311 12.2468 169.662 11.5722C168.72 11.9267 164.76 13.4379 164.241 13.798C164.18 13.8399 164.579 13.9019 163.573 14.2327C163.093 14.3912 164.194 13.8897 163.964 13.9385C163.445 14.0214 159.58 15.9372 156.028 17.4911C154.487 18.1309 153.017 18.7349 152.36 18.959C152.232 19.0042 152.256 18.9227 152.13 18.9667C151.753 19.1045 150.285 19.6826 149.248 19.7628C150.23 19.6706 149.822 19.7992 148.928 19.913C148.094 20.0675 146.125 19.8246 145.222 19.1647C144.759 18.8773 144.421 18.5608 144.179 18.2857C143.534 17.485 143.627 17.3971 143.334 16.8979C142.106 14.4401 141.439 12.2129 141.343 11.8989C141.252 11.9736 141.177 11.8481 141.166 11.7771C140.702 11.2944 140.124 10.7052 139.761 10.4802C139.214 10.1256 138.616 10.1 139.099 10.4286C138.82 10.2814 138.588 10.2251 138.535 10.2302C138.644 10.2432 138.444 10.233 138.304 10.2408C138.141 10.2465 137.964 10.2572 137.78 10.2709C137.411 10.2986 137.026 10.3377 136.646 10.3792C136.446 10.4016 136.717 10.2949 136.371 10.3371C136.341 10.3416 136.296 10.4233 136.003 10.4641C133.491 10.8467 134.7 10.5368 134.216 10.551C133.943 10.5638 133.75 10.5798 133.601 10.5987C135.088 10.3436 136.771 10.1374 137.201 10.1092C136.834 9.93948 133.962 10.5022 133.106 10.616C133.077 10.6191 133.165 10.5092 133.134 10.5134C133.134 10.5135 133.133 10.5136 133.133 10.5137C132.811 10.5512 130.774 10.9578 131.217 10.9925C131.325 11.003 132.279 10.8214 133.381 10.6357C133.087 10.7042 133.326 10.7729 133.274 10.7857C132.641 10.9364 131.048 11.1207 130.483 11.2212C130.355 11.2433 130.377 11.308 130.356 11.3123C129.84 11.3997 130.012 11.1676 129.532 11.4698C128.561 11.4215 131.246 11.0866 131.037 10.9749C130.865 10.841 124.982 12.2196 125.05 12.4349C125.025 12.4203 124.938 12.4159 124.763 12.4302C124.382 12.4572 122.753 12.9037 122.478 13.0171C122.433 13.0364 122.499 13.2092 122.442 13.2266C122.3 13.266 120.264 13.6818 119.556 14.007C119.97 13.9129 120.363 13.8264 120.779 13.7352C118.356 14.4338 118.757 14.3846 119.571 14.1994C119.612 14.188 119.653 14.1832 119.692 14.1726C120.328 14.0289 121.139 13.841 121.155 13.8518C121.194 13.8783 119.258 14.4589 118.297 14.7079C117.882 14.813 117.657 14.8489 117.878 14.7253C117.905 14.7101 118.066 14.6616 118.265 14.6039C118.813 14.4445 119.616 14.2246 118.916 14.3396C118.839 14.3523 118.549 14.4405 118.245 14.5364C117.892 14.6474 117.525 14.77 117.489 14.7738C117.285 14.7952 117.715 14.6083 118.206 14.4064C118.806 14.1615 119.47 13.8982 119.277 13.8832C118.961 14.0423 118.577 14.1699 118.172 14.2945C117.819 14.4033 117.454 14.5099 117.115 14.6334C116.791 14.7518 116.739 14.8665 116.699 14.8811C116.102 15.1018 116.411 14.899 116.209 14.9679C116.102 15.003 114.976 15.605 115.108 15.2599C111.243 16.8648 114.093 15.8068 116.494 14.9966C115.765 15.3411 114.259 15.8134 113.596 16.082C113.358 16.1777 113.534 16.2142 113.134 16.3809C112.317 16.7076 108.263 18.1637 107.166 18.5601C107.811 18.2756 107.581 18.2537 107.077 18.4555C106.567 18.6588 107.046 18.6225 106.952 18.6746C106.861 18.7314 104.398 19.5848 103.949 19.7428C105.841 19.0215 105.381 19.0823 103.751 19.6368C103.982 19.5277 104.205 19.4191 104.431 19.3077C103.963 19.4954 103.196 19.7293 102.43 19.9211C101.743 20.0917 101.094 20.2372 100.82 20.3313C100.733 20.3616 101.072 20.3628 101.024 20.3797C100.557 20.5547 98.7461 20.8641 98.6407 20.8965C98.5724 20.9368 99.3834 20.8528 99.0946 20.9458C99.0324 20.9636 98.2692 21.01 97.3952 21.1253C97.0643 21.1662 97.271 21.2294 97.1877 21.2414C96.4283 21.3056 96.9872 21.2412 95.3582 21.137C94.6232 21.0518 93.8025 20.8755 92.9887 20.4268C92.6343 20.2434 91.9851 19.8409 91.4293 19.1933C92.0616 19.9275 92.6933 20.3167 92.9501 20.4916C93.6644 20.9308 93.9749 21.0076 93.9093 21.0043C93.8541 20.9918 93.439 20.8553 92.9167 20.5479C92.2527 20.2665 90.757 18.7947 90.3905 17.9945C90.2587 17.755 90.1933 17.8835 89.8458 17.1076C89.7796 16.9544 89.7023 16.7558 89.6066 16.4808C89.7426 16.7373 89.8479 16.9279 89.9301 17.0723C90.3361 17.811 90.2615 17.593 90.0217 17.0339C89.7923 16.4714 89.3155 15.3864 89.1785 15.0345C89.165 14.9979 89.2492 14.945 89.1232 14.6219C89.1125 14.5948 89.0663 14.6588 88.9421 14.3569C87.7928 11.5519 88.569 13.33 88.4205 12.7718C88.3569 12.5264 87.7501 11.2719 87.6163 11.0055C87.5863 10.9414 87.6604 10.9324 87.5423 10.6925C87.3326 10.2651 87.1065 10.0849 87.1165 10.1129C87.1175 10.1142 87.1361 10.0946 87.1621 10.0892C87.1975 10.0848 87.1984 10.0993 87.435 10.2623C87.572 10.3504 87.7586 10.4536 87.507 10.3877C87.2957 10.3255 87.1055 10.1681 87.0896 10.1425C87.0662 10.1119 87.1631 10.2161 87.2795 10.4107C87.5208 10.8046 87.8215 11.4654 87.9785 11.9885C88.1223 12.4727 87.8946 11.9587 87.6305 11.3793C87.3606 10.7756 87.0994 10.3215 87.092 10.32C87.0741 10.2894 87.2827 10.5347 87.1304 10.2601C87.0858 10.1767 86.9919 10.1277 87.0577 10.2441C87.1016 10.3519 87.474 10.6359 87.7772 10.6938C87.6752 10.676 87.5772 10.6566 87.4838 10.6336C87.442 10.6196 86.987 10.3959 87.0073 10.3918C87.0298 10.3796 87.7744 10.4658 87.6769 10.406C87.6641 10.3951 87.1913 10.3187 87.1322 10.2802C87.064 10.2288 86.8926 9.79828 86.7802 9.77907C86.4968 9.7316 86.6757 9.83859 86.4906 9.82009C86.1197 9.76339 84.5598 9.6831 84.5021 9.8375C84.7669 9.83269 85.0271 9.83131 85.2808 9.83453C83.8436 9.89827 84.4509 9.94471 84.2486 9.97822C84.0231 10.0208 84.0821 9.89042 83.5716 9.91465C83.4908 9.91584 82.2437 10.0327 81.6352 10.1238C81.4483 10.1515 81.3294 10.1756 81.3401 10.1875C81.4536 10.1673 81.5518 10.1516 81.6367 10.1394C82.453 10.0258 82.1014 10.1856 82.1529 10.183C82.364 10.1736 82.6298 10.063 82.9099 10.0414C84.8739 9.90488 82.9078 10.1898 83.3732 10.19C83.5335 10.1893 83.8431 10.0937 83.9085 10.0934C84.1269 10.0914 84.1323 10.1882 84.2764 10.172C84.604 10.1357 84.2134 10.0202 84.2376 10.0119C84.5402 9.90298 85.6597 9.97834 84.9696 10.1475C85.3854 10.1885 85.4304 10.0078 85.7466 10.0799C86.3586 10.2303 85.4447 10.1799 85.1731 10.2167C84.22 10.3353 83.9191 10.2837 82.4535 10.4332C82.1983 10.4599 81.9263 10.5076 81.6767 10.5543C81.424 10.6034 81.2058 10.6526 81.084 10.6689C80.9408 10.6813 79.5001 10.5677 79.5317 11.0527C78.9879 11.0874 78.0822 10.9271 77.5238 11.0549C77.0241 11.1692 77.2186 11.3035 77.173 11.3192C77.1035 11.3433 76.4963 11.4605 76.2972 11.5316C76.0641 11.6141 76.1983 11.6487 75.8253 11.7639C74.8993 12.0554 74.8822 11.8888 74.7819 11.9015C73.6235 12.0742 74.1803 12.183 73.9369 12.269C73.7092 12.3267 70.4486 13.2422 69.7982 13.5661C70.062 13.4358 70.325 13.3077 70.5898 13.181C70.0605 13.2468 69.5974 13.5996 69.5233 13.421C69.5287 13.7484 68.4456 13.9246 68.1444 14.0511C68.026 14.1 68.0544 14.146 67.9063 14.2058C67.3259 14.4364 65.9996 14.9345 65.6975 15.0951C64.3885 15.7713 67.9286 14.4968 68.21 14.426C67.6541 14.615 64.5993 15.978 66.0741 15.5192C66.2999 15.449 66.636 15.1589 66.7566 15.104C67.5781 14.7319 66.9687 15.1139 67.0387 15.0983C67.1558 15.071 67.6617 14.739 67.8123 14.6963C67.8623 14.6824 67.5919 14.9068 68.3904 14.6016C68.0345 14.8439 65.7717 15.6714 65.4922 15.8303C65.4043 15.8785 65.9733 15.8283 64.7311 16.2472C64.5559 16.3085 64.3473 16.3786 64.0995 16.4582C64.1322 16.4677 64.1649 16.4772 64.1976 16.4867C63.0492 16.9988 61.8885 17.4945 60.7059 17.9693C60.8175 17.8716 61.4417 17.5157 60.6145 17.8659C60.1358 18.0663 60.5339 18.0308 60.4911 18.0511C60.1394 18.3275 52.1708 20.9781 50.0729 20.998C49.4754 21.1058 47.5367 21.2666 47.3544 21.234C46.878 21.22 45.7762 21.1698 44.4902 20.7802C43.2085 20.4357 41.796 19.4721 41.3948 19.0741C40.8711 18.592 41.2929 19.1351 40.8434 18.67C40.7906 18.6124 40.7536 18.5681 40.7284 18.535C40.4505 18.1877 40.6365 18.3658 40.7768 18.4921C40.8188 18.5169 40.8506 18.5346 40.8105 18.4878C40.8065 18.4831 40.8023 18.4782 40.7981 18.4732C40.4328 18.0713 40.0395 17.4081 39.8493 16.9289C39.6447 16.4349 39.5382 16.0421 39.448 15.712C39.2762 15.057 39.1626 14.6024 39.0416 14.2862C38.7884 13.6542 38.7157 13.7222 38.6768 13.6105C38.712 13.6607 38.7962 13.6545 38.9682 13.8665C39.1372 14.0598 39.3523 14.585 39.3754 14.555C39.3806 14.5275 39.3025 14.0607 39.2447 14.0236C39.2651 13.8507 38.9115 13.6978 38.9043 13.6284C38.9003 13.6185 39.039 13.5615 38.9361 13.4217C38.8901 13.3712 38.7487 13.3671 38.5174 13.1415C38.4338 13.1186 38.2789 13.0578 38.0066 12.9894C37.0629 12.6353 32.974 12.8374 32.7211 13.0029C32.7096 13.0105 33.5234 12.9889 32.9819 13.0954C32.2629 13.2412 32.893 12.9145 32.0345 12.9786C31.911 12.9785 29.4958 13.303 29.4155 13.3378C28.6978 13.5833 30.8311 13.3592 30.7969 13.3861C30.7343 13.4333 28.9734 13.693 28.9009 13.6964C28.8323 13.6952 30.2434 13.2995 28.5229 13.6166C28.7222 13.6116 28.9287 13.606 29.1284 13.6019C28.3203 13.7613 28.2186 13.6412 28.0224 13.6614C27.8913 13.6751 27.7583 13.6999 27.6194 13.7297C27.114 13.8388 26.5445 14.013 25.729 13.9415C25.4563 13.9171 25.8785 13.7729 25.8451 13.7681C25.5159 13.7289 25.1506 14.0348 24.6439 13.9352C24.6066 13.9283 25.6982 13.6341 23.7581 13.96C23.8937 13.9546 24.0311 13.9489 24.1677 13.9436C23.9008 14.0259 21.9389 14.3894 21.6729 14.4291C20.8945 14.5406 21.5476 14.2968 20.7728 14.4512C21.301 14.5285 18.9438 14.9814 19.0524 14.8132C18.7561 15.0552 16.7251 15.2935 15.7814 15.475C15.1862 15.588 13.9933 15.9082 13.8017 15.9377C13.5709 15.9725 13.6156 15.8345 13.1947 15.8913C13.0785 15.9066 11.8591 16.2492 10.7584 16.3504C10.5457 16.3698 10.0602 16.2551 10.4378 16.1194C11.083 15.8868 12.3788 15.7945 12.3382 15.6741C12.2893 15.5448 10.6096 15.9777 10.1515 16.06C8.03759 16.4371 9.22019 16.0328 9.15326 16.0019C9.04193 15.9478 8.40029 16.0705 8.05128 16.1419C7.91162 16.1705 7.81599 16.1909 7.80229 16.1913C7.69814 16.1932 7.84891 16.1248 8.0297 16.0474C8.19259 15.9757 8.38343 15.8957 8.38268 15.8635C8.38133 15.8283 8.18375 15.8254 7.97929 15.8267C7.67411 15.8316 7.34887 15.8468 7.491 15.7965C7.59592 15.7596 7.75839 15.7251 7.9485 15.6919C8.37145 15.6188 8.89962 15.5638 8.94226 15.5501C9.76304 15.286 8.56882 15.3491 8.23339 15.3279C8.13093 15.3208 8.50312 15.1877 8.42134 15.1972C8.11734 15.2326 7.94805 15.2713 7.86115 15.3095C7.57884 15.4311 8.02441 15.5592 7.41574 15.6792C6.69557 15.8234 7.58924 15.4826 7.55744 15.4833C7.52103 15.483 6.66427 15.6776 6.52031 15.6673C6.48139 15.6624 7.22596 15.3862 7.82488 15.1507C8.22217 14.9925 8.55489 14.8499 8.50655 14.8146C8.26987 14.8758 8.02334 14.9398 7.79077 15.0014C7.31747 15.1262 6.84903 15.2527 6.38392 15.3827C6.29549 15.2534 7.33882 15.1148 7.44445 15.0765C7.65092 14.9977 7.03744 15.0648 7.05342 15.0142C7.05842 14.9827 7.74032 14.7172 7.09411 14.8235C6.87857 14.8593 6.44249 15.064 5.63278 15.1611C8.34575 14.3628 6.42195 14.7466 6.32903 14.7148C6.24042 14.6833 7.52345 14.2492 5.93301 14.6562C5.79628 14.3992 5.94377 14.5605 6.38976 14.4018C6.91988 14.2152 5.66627 14.4135 7.57022 14.0358C7.60549 14.029 7.64209 14.0219 7.68009 14.0146C7.66186 14.0017 7.62001 13.9964 7.56134 13.997C7.1455 14.0006 5.87961 14.3098 5.80312 14.3216C5.72539 14.3309 6.07624 14.1775 5.9413 14.188C4.34295 14.3256 5.42386 14.1744 4.93969 14.1294C4.89499 14.1216 3.43024 14.463 4.52929 14.1359C6.08224 13.689 6.98058 13.6037 7.41566 13.3592C7.53858 13.2901 7.62756 13.2082 7.68513 13.1033C7.57816 13.1152 7.4718 13.1292 7.36672 13.1449C5.89648 13.3629 4.34886 13.9982 3.93093 14.1278C3.23877 14.3353 3.93404 14.0477 3.84247 14.0508C3.81255 14.05 3.21433 14.236 3.2056 14.2338C2.68754 14.0458 5.87743 13.472 6.84659 13.2189C6.57136 13.236 6.2973 13.2539 6.02471 13.2726C6.37814 13.1853 6.74184 13.098 7.09531 13.0147C5.52473 13.2964 6.75966 13.0456 7.27516 12.7441C7.32361 12.7151 7.36586 12.6855 7.39835 12.6557C7.42259 12.6335 7.34558 12.6475 7.25759 12.6671C7.07712 12.7075 6.84953 12.7702 7.2475 12.6229C7.3364 12.5896 7.45886 12.5452 7.62787 12.486C7.4594 12.5176 7.3329 12.5396 7.23221 12.556C6.73681 12.6388 6.81771 12.5937 6.12269 12.818C6.12063 12.7666 6.61686 12.5923 7.19908 12.411C7.76227 12.2352 8.40648 12.0526 8.77627 11.9467C7.84877 12.1096 7.41773 12.2269 7.17705 12.3145C6.69772 12.4896 6.86541 12.5574 5.30816 12.8087C4.91132 13.0338 6.00696 12.7379 5.92572 12.78C5.62098 12.9293 4.82889 12.9996 3.97633 13.5014C3.83928 13.5842 4.50129 13.5292 3.5712 13.7886C3.46775 13.8159 2.843 13.8946 2.84612 13.8872C2.899 13.7768 3.49847 13.6277 3.51429 13.5872C3.52621 13.5461 2.8714 13.7675 2.86833 13.7611C2.81189 13.6637 3.41006 13.5493 3.31469 13.5438C3.12113 13.5204 0.629663 14.0701 3.79509 13.1563C1.22878 14.0688 3.50233 13.337 4.48921 13.0425C4.74185 12.964 4.79072 12.8841 5.15026 12.7701C5.61344 12.6233 6.16461 12.5238 6.40598 12.4549C6.65866 12.3832 5.22519 12.5677 7.14124 12.1577C7.19109 12.1473 7.24367 12.1364 7.2992 12.125C7.24654 12.1296 7.19258 12.1352 7.1376 12.1418C5.99682 12.279 4.23605 12.8542 3.16959 13.074C0.879063 13.5638 4.64316 12.3465 5.00775 12.2803C5.10984 12.2487 4.74203 12.2517 4.80987 12.229C4.90815 12.1927 6.46961 11.8425 7.03199 11.6794C7.12114 11.6528 7.18529 11.6301 7.21186 11.6136C7.28819 11.5665 7.17794 11.5862 7.01883 11.6218C6.77096 11.6773 6.41673 11.7689 6.36558 11.7348C6.34714 11.7205 6.64999 11.6256 6.99607 11.5222C7.60839 11.3384 8.31973 11.1354 7.44236 11.3081C7.29745 11.337 7.13685 11.375 6.9721 11.4172C6.01425 11.6593 4.7485 12.0966 4.44876 11.985C5.29126 11.7552 6.11842 11.5475 6.95557 11.3449C7.50513 11.212 8.05287 11.0832 8.6027 10.9562C8.03843 11.0168 7.47575 11.0794 6.91021 11.1463C6.69149 11.1731 6.49066 11.1962 6.27213 11.2241C6.48837 11.1698 6.68346 11.1234 6.89399 11.0753C8.19973 10.7778 9.37996 10.5831 10.636 10.2158C7.03968 10.7012 11.7447 9.76268 11.7874 9.72801C11.8007 9.70473 10.3649 9.77916 10.129 9.78912C11.3486 9.44225 15.0996 8.6583 12.8482 8.83291C13.2575 8.81223 14.1992 8.47481 14.1824 8.46687C14.0363 8.37334 11.9406 8.86997 12.2643 8.69692C12.6386 8.49503 13.2327 8.54754 13.842 8.41393C16.9788 7.73336 15.9982 7.29037 19.1878 6.80348C19.1208 6.79328 19.0538 6.78311 18.9868 6.77295C21.4415 6.35306 23.8984 5.9556 26.3946 5.60331C27.4218 5.45888 28.4432 5.32499 29.4892 5.20402C30.8581 4.8317 34.6431 4.31504 36.8755 4.4557C37.2711 4.43283 39.6527 4.82127 39.9141 4.95826C39.9222 4.96092 39.929 4.96331 39.9347 4.96542C39.9682 4.97781 39.9634 4.98063 39.932 4.97688C39.7022 4.93018 38.4352 4.73906 39.1617 4.91387C39.205 4.92538 39.484 4.97494 39.9072 5.08006C41.172 5.26549 43.7261 6.75178 43.5076 6.59033C43.0237 6.18249 41.4057 5.48305 41.1576 5.40387C40.2946 5.14083 42.9689 5.40623 45.3936 8.21724C46.5418 9.57721 47.1707 11.2762 47.4703 12.4138C47.6247 12.9828 47.7276 13.4479 47.7815 13.6347C47.806 13.7266 47.8197 13.744 47.7724 13.6239C47.7203 13.5055 47.6058 13.2074 47.2294 12.7724C47.1633 12.693 47.1193 12.6506 47.1098 12.6321C47.1677 12.6509 47.231 12.6797 47.2937 12.7154C47.5125 12.9462 47.6491 13.1438 47.7349 13.2713C47.657 13.1393 47.5277 12.9359 47.3141 12.6973C47.1261 12.5052 46.9316 12.4314 46.9215 12.4456ZM23.6111 14.4102C23.2915 14.5718 22.4375 14.6392 21.9435 14.7571C21.2618 14.9193 20.1659 15.5329 20.5963 15.0398C21.6009 14.8249 22.6064 14.6145 23.6111 14.4102ZM37.455 13.1805C37.01 13.0741 37.4142 12.8801 37.7241 13.0287C37.7508 13.0466 37.9762 13.3367 37.455 13.1805ZM31.2026 13.3259C31.2328 13.3188 31.7973 13.2611 31.8192 13.2629C32.3374 13.2966 30.6267 13.4718 31.2026 13.3259ZM62.9344 16.8411C62.2008 17.1605 62.8158 17.1281 63.2406 16.8541C63.2673 16.8369 62.9827 16.8202 62.9344 16.8411ZM62.4079 17.0564C61.7648 17.1256 60.7373 17.9426 61.6519 17.5329C61.7403 17.4939 62.4394 17.0538 62.4079 17.0564ZM35.5887 13.0094C35.658 12.9354 36.2566 12.9687 36.4905 12.9967C36.4841 13.059 35.8507 12.9943 35.5887 13.0094ZM50.228 20.8875C50.3029 20.8778 47.0775 21.0797 46.7177 21.034C47.3836 21.1304 50.2331 20.9785 50.228 20.8875ZM57.2016 19.0769C57.1372 19.0903 56.2549 19.3933 56.2957 19.4303C56.7515 19.3552 57.5057 19.0206 57.2016 19.0769ZM69.1483 14.3091C69.1866 14.2837 68.5013 14.1937 69.9356 13.8968C70.1454 13.854 69.4599 14.1861 69.5343 14.172C69.6909 14.1386 69.8108 14.1066 69.906 14.0747C69.2811 14.3241 68.6305 14.5839 68.5608 14.5902C68.2307 14.6187 69.1313 14.3193 69.1483 14.3091ZM75.0668 12.2048C75.1866 12.1194 76.0431 11.9382 76.2408 11.9164C76.2749 11.9129 76.1608 12.0764 76.54 11.9801C76.8448 11.904 76.3565 11.8698 76.9593 11.7609C77.5686 11.6542 76.7814 11.9216 76.8361 11.9179C76.9083 11.909 77.8295 11.6564 77.816 11.743C77.8057 11.803 76.7997 11.9698 76.5555 12.0408C76.2432 12.1285 76.6478 12.1367 76.1162 12.2382C75.7818 12.3036 75.925 12.0909 75.853 12.099C75.792 12.1029 74.6566 12.4941 75.0687 12.2049C75.0681 12.2049 75.0674 12.2048 75.0668 12.2048ZM70.0752 14.0065C70.0293 14.029 69.9742 14.0518 69.906 14.0747C69.9628 14.0519 70.0192 14.029 70.0752 14.0065ZM25.5534 14.0089C25.913 14.0048 24.8823 14.242 24.4745 14.2397C24.457 14.1846 25.496 14.0091 25.5534 14.0089ZM70.6179 13.6677C71.5775 13.3906 70.8999 13.6757 70.0752 14.0065C70.3302 13.8821 70.2948 13.7634 70.6179 13.6677ZM39.2447 14.0236C39.2403 14.0475 39.2263 14.0674 39.1959 14.081C39.21 14.0172 39.2261 14.0058 39.2447 14.0236ZM39.7501 16.0509C39.8781 16.3927 39.9523 16.5265 39.9299 16.4282C39.9125 16.3414 39.8343 16.0788 39.7739 15.8515C39.6499 15.3852 39.5486 15.0279 39.513 15.0415C39.5006 15.0476 39.5367 15.2254 39.5929 15.4643C39.6456 15.6928 39.7384 16.0218 39.7501 16.0509ZM63.8793 16.4463C63.8013 16.4687 64.826 15.6923 63.252 16.6229C64.1566 16.2731 63.2305 16.7081 63.2546 16.7263C63.3042 16.7678 64.1255 16.3866 64.6814 16.135C64.8582 16.0552 65.0084 15.991 65.0904 15.9645C65.184 15.8474 64.9439 15.949 64.6598 16.0863C64.359 16.2308 64.0064 16.4087 63.8812 16.4455C63.8805 16.4458 63.8799 16.4461 63.8793 16.4463ZM85.9606 10.8317C85.7975 10.9073 85.2544 10.8835 84.8527 10.8967C85.0364 10.8074 85.6123 10.818 85.9606 10.8317ZM185.353 12.1635C185.189 11.9332 185.355 12.2118 185.647 12.3317C185.301 12.13 185.179 12.0278 185.066 11.9434C184.963 11.8634 184.892 11.8029 184.844 11.7585C184.741 11.6653 184.71 11.622 184.716 11.6077C184.725 11.5957 184.77 11.6117 184.886 11.6833C184.942 11.7172 185.016 11.7663 185.125 11.8384C185.242 11.9131 185.367 12.0078 185.717 12.2052C185.548 12.1158 185.397 11.9657 185.395 11.9942C185.378 11.9677 185.406 12.1866 185.353 12.1635ZM165.703 13.8416C165.384 13.8244 166.24 13.4249 166.832 13.2403C166.965 13.1982 167.496 13.1328 166.965 13.3867C166.916 13.2183 166.05 13.514 165.703 13.8416ZM71.1237 13.4001C71.3688 13.2163 72.2434 13.0065 72.6972 12.8858C72.4451 13.0425 71.5285 13.2948 71.1237 13.4001ZM179.774 9.62754C179.538 9.60623 179.378 9.7321 179.419 9.74234C179.597 9.78867 180.034 9.7118 179.774 9.62754ZM68.386 14.3622C68.3271 14.3212 69.4263 13.8531 69.5539 13.9599C69.3092 14.0353 68.427 14.3835 68.386 14.3622ZM85.264 10.791C85.1028 10.7633 85.9457 10.699 86.167 10.7421C86.1546 10.7975 85.3819 10.8025 85.264 10.791ZM175.652 10.2217C175.389 10.2753 174.741 10.4481 174.681 10.5183C174.61 10.6013 175.552 10.3238 175.652 10.2217ZM222.942 10.918C222.987 10.9252 221.982 11.4869 221.479 11.6339C220.541 11.9075 222.911 10.915 222.942 10.918ZM181.898 9.92524C182.454 10.2338 181.833 9.90536 181.82 10.0357C182.222 10.1449 183.169 10.5835 182.559 10.1817C182.439 10.1041 182.084 9.98901 181.898 9.92524ZM181.345 9.73251C181.267 9.75351 180.799 9.79036 181.184 9.8592C181.36 9.89201 181.68 9.8275 181.345 9.73251ZM216.299 13.4752C215.474 13.6626 219.107 12.3844 219.214 12.3604C219.272 12.3496 219.311 12.3452 219.335 12.3453C219.452 12.2642 220.133 12.0009 220.244 12.0536C220.036 12.1245 219.479 12.342 219.413 12.3562C219.384 12.3627 219.362 12.3668 219.346 12.3684C219.136 12.5317 216.461 13.4405 216.299 13.4752ZM210.256 15.5197C211.112 15.0473 211.363 15.2518 211.288 15.2878C210.338 15.7425 210.914 15.323 210.881 15.3245C210.806 15.3341 210.134 15.6698 210.259 15.5187C210.258 15.519 210.257 15.5194 210.256 15.5197ZM215.057 13.8799C215.093 13.8631 215.853 13.5952 215.886 13.5878C216.538 13.449 214.387 14.2077 215.057 13.8799ZM79.5983 11.077C80.1216 11.0275 79.6274 11.2017 79.2775 11.221C79.2486 11.2223 79.136 11.1236 79.5983 11.077ZM181.032 9.69436C180.989 9.67512 180.392 9.53992 179.787 9.51551C179.184 9.48355 178.577 9.55308 178.663 9.62365C178.772 9.60474 179.54 9.58118 180.165 9.64532C180.79 9.70108 181.297 9.81385 181.032 9.69436ZM159.306 16.5571C159.862 16.2976 159.314 16.7151 159.005 16.7998C158.887 16.8323 159.167 16.6218 159.306 16.5571ZM66.8358 14.8308C66.3182 15.1287 66.3286 14.8348 66.8403 14.7253C66.8604 14.721 66.8562 14.8192 66.8358 14.8308ZM163.638 14.6321C161.835 15.5585 162.082 14.925 164.537 13.9892C164.471 14.0409 164.404 14.0934 164.337 14.1458C167.122 12.9911 164.539 14.0846 163.875 14.418C163.622 14.5432 163.869 14.5156 163.64 14.6318C163.64 14.6319 163.639 14.632 163.638 14.6321ZM156.255 17.9157C156.237 17.92 156.22 17.9241 156.204 17.9281C155.436 18.0945 155.609 17.9813 156.137 17.7632C157.019 17.4052 158.446 16.8029 159.006 16.5147C158.096 17.0904 156.767 17.6704 158.595 16.9851C156.007 18.1954 156.996 17.5859 156.908 17.6213C156.777 17.6661 156.351 17.893 156.255 17.9157ZM161.2 15.6555C161.299 15.5987 162.102 15.297 162.376 15.1585C162.039 15.4366 160.538 16.0373 161.2 15.6555ZM203.925 17.7405C203.967 17.6346 204.127 17.5156 204.787 17.3331C204.597 17.4419 204.198 17.6126 203.925 17.7405ZM22.8943 14.0664C22.4349 14.1392 21.5179 14.2682 21.8134 14.3093C21.8448 14.3112 22.9014 14.1171 22.8943 14.0664ZM173.147 10.7384C173.056 10.7425 170.744 11.528 171.573 11.3449C171.824 11.2764 173.914 10.5929 173.147 10.7384ZM183.331 10.4482C183.2 10.3692 182.644 10.1306 182.621 10.149C182.56 10.1931 183.242 10.4679 183.331 10.4482ZM20.5681 14.3878C20.5064 14.389 19.1099 14.6616 19.2715 14.6754C19.5778 14.6996 20.7804 14.3807 20.5681 14.3878ZM81.4654 10.6329C81.5355 10.6236 81.6241 10.6536 81.6883 10.6756C81.727 10.6875 81.7573 10.697 81.7718 10.696C81.8761 10.6817 83.9634 10.4711 83.1748 10.6585C83.1164 10.6723 82.4564 10.7213 81.6989 10.7858C80.8644 10.8529 79.9231 10.9697 79.7191 10.9945C79.5554 10.8837 80.8034 10.8353 81.0991 10.7943C81.1513 10.7861 81.173 10.6729 81.4645 10.6335C81.4648 10.6333 81.4651 10.6331 81.4654 10.6329ZM207.322 16.5135C207.391 16.4053 209.844 15.5024 209.845 15.6062C209.012 15.9095 208.162 16.2153 207.322 16.5135ZM206.058 16.925C205.515 17.0448 206.737 16.6158 207.115 16.514C207.136 16.5665 206.136 16.9087 206.058 16.925ZM180.12 9.19988C179.929 9.20351 180.498 9.3763 180.366 9.3883C180.284 9.39171 179.865 9.31378 179.727 9.34903C179.69 9.35791 180.114 9.49429 180.232 9.50348C180.404 9.51404 180.246 9.40741 180.437 9.42775C181.065 9.50007 181.583 9.68476 182.119 9.86302C182.169 9.87922 181.809 9.69251 182.226 9.83366C182.292 9.85754 182.643 10.0761 183.12 10.2984C183.539 10.3927 183.886 10.5634 184.236 10.7958C184.41 10.9113 184.583 11.0424 184.787 11.2016C184.889 11.2811 185.001 11.37 185.141 11.4766C185.302 11.5935 185.417 11.7005 185.855 11.9553C185.616 11.8373 185.581 11.7168 185.715 11.8778C185.721 11.8624 185.676 11.7563 185.693 11.75C185.703 11.7375 185.835 11.8248 185.912 11.8536C185.792 11.7851 185.731 11.7451 185.707 11.7305C185.262 11.4411 185.107 11.3024 184.894 11.1445C184.696 10.994 184.515 10.8591 184.328 10.7281C183.953 10.466 183.566 10.2313 183.164 10.0315C182.361 9.62758 181.491 9.39074 180.823 9.28877C180.476 9.23713 180.638 9.32386 180.489 9.30667C180.371 9.29586 180.522 9.19253 180.12 9.19988ZM23.1264 13.9622C22.8896 13.887 22.135 14.0916 21.6454 14.1728C21.8348 14.2435 22.6446 14.0192 23.1264 13.9622ZM194.502 20.2289C194.21 20.2995 193.324 20.4241 193.216 20.4701C193.156 20.5021 193.535 20.4633 193.832 20.4104C194.139 20.3576 194.478 20.2735 194.502 20.2289ZM88.0478 12.3473C88.0581 12.3634 88.2685 12.912 88.2741 12.9369C88.3821 13.4588 87.7523 11.8185 88.0478 12.3473ZM102.498 20.3249C102.513 20.3202 102.528 20.3153 102.543 20.3105C103.04 20.1513 103.484 19.9722 103.671 20.0048C103.419 20.0782 102.754 20.309 102.55 20.336C102.511 20.3411 102.491 20.3383 102.498 20.3249ZM121.348 13.7673C121.222 13.6753 122.551 13.3901 122.797 13.3374C122.721 13.4117 121.431 13.8332 121.348 13.7673ZM203.71 17.4099C204.543 17.1466 204.296 17.0335 204.84 16.9419C204.93 16.927 205.318 17.2026 204.385 17.358C204.214 17.3866 204.826 17.0921 203.71 17.4099ZM164.927 13.8199C165.089 13.6604 165.696 13.4197 166.102 13.2526C166.036 13.3452 165.214 13.6858 164.927 13.8199ZM18.0246 14.7647C17.617 14.725 15.8503 15.1511 16.3057 15.1397C16.371 15.1363 17.7726 14.8071 18.0246 14.7647ZM72.9466 12.4429C73.6044 12.1558 72.1811 12.5459 71.7636 12.7758C71.9633 12.7038 72.9023 12.4603 72.9466 12.4429ZM116.859 15.0365C116.891 15.0214 117.623 14.7978 117.657 14.7927C118.282 14.6918 116.213 15.3256 116.859 15.0365ZM97.1175 21.3124C97.5976 21.246 99.793 20.8929 100.236 20.8381C100.027 20.9435 99.2315 21.1419 98.4454 21.254C97.6709 21.372 96.8645 21.3751 97.1175 21.3124ZM200.341 18.5243C200.942 18.338 201.494 18.1906 202.045 18.0501C201.949 18.1471 200.423 18.5497 200.341 18.5243ZM119.571 14.1994C119.612 14.188 119.653 14.1832 119.692 14.1726C119.651 14.1819 119.611 14.1906 119.571 14.1994ZM186.356 13.1847C186.268 12.7891 186.182 12.9105 186.186 12.9315C186.236 13.216 186.454 13.6494 186.356 13.1847ZM22.5354 13.894C22.3482 13.8227 21.533 14.0466 21.0525 14.1084C21.2042 14.1629 22.1548 13.9708 22.5354 13.894ZM154.189 18.5266C153.644 18.6471 155.265 17.8782 156.058 17.5665C156.241 17.4951 156.401 17.4345 156.498 17.4063C156.522 17.4159 156.343 17.5164 156.089 17.6422C155.5 17.9431 154.266 18.5105 154.189 18.5266ZM70.7872 12.9653C70.7154 12.9028 69.7709 13.3318 69.9911 13.296C70.1293 13.2717 70.83 13.0024 70.7872 12.9653ZM157.787 16.8868C158.003 16.7619 158.568 16.5873 158.402 16.717C158.184 16.8867 157.735 16.9184 157.787 16.8868ZM177.254 9.28913C177.213 9.29022 176.944 9.35452 176.712 9.43226C176.436 9.52223 176.225 9.61556 176.509 9.59518C176.608 9.58851 176.682 9.57538 176.74 9.55908C176.889 9.51643 176.919 9.44672 176.976 9.43509C177.061 9.39961 178.894 9.28171 177.254 9.28913ZM140.842 11.8176C140.899 11.8594 140.958 11.9045 141.017 11.9523C141.036 11.9534 141.087 12.0357 141.19 12.215C141.107 12.1381 140.965 11.9853 140.991 11.9832C140.918 11.9115 140.864 11.8536 140.842 11.8176ZM74.5722 11.8065C74.4421 11.785 71.2036 12.7251 73.0677 12.2749C73.1755 12.2413 74.958 11.8016 74.5722 11.8065ZM203.71 17.4099C203.606 17.4428 203.485 17.4778 203.345 17.5148C203.483 17.4736 203.604 17.44 203.71 17.4099ZM194.074 20.1136C194.178 20.0631 193.951 20.0907 193.673 20.1331C193.364 20.1821 192.957 20.2461 192.787 20.2817C192.686 20.3792 194.084 20.1312 194.074 20.1136ZM141.27 12.1914C141.369 12.2932 141.489 12.6384 141.602 12.938C141.567 12.9228 141.474 12.7134 141.397 12.5412C141.319 12.3644 141.261 12.2312 141.27 12.1914ZM123.696 12.8412C124.321 12.711 125.061 12.5111 125.059 12.4434C125.074 12.4503 125.107 12.4536 125.158 12.4521C125.21 12.4502 125.856 12.2597 126.147 12.2138C127.876 11.9022 119.605 13.9696 124.344 12.5482C124.13 12.6447 123.914 12.7423 123.696 12.8412ZM92.6028 20.0567C92.3424 19.8405 91.7443 19.35 91.3845 18.934C91.0174 18.5235 90.8198 18.2476 90.9409 18.4636C91.0216 18.6085 91.4699 19.2324 91.9866 19.6616C92.4966 20.0918 92.8614 20.2703 92.6028 20.0567ZM109.016 17.591C108.908 17.6174 107.996 18.032 107.986 18.0812C108.542 17.9136 109.502 17.4743 109.016 17.591ZM90.0129 16.28C89.9334 16.0549 89.7013 15.829 89.7058 15.855C89.7506 16.0931 90.099 16.6792 90.0129 16.28ZM201.907 17.6185C201.562 17.6891 200.539 18.1039 200.324 18.2582C200.275 18.2554 200.152 18.2703 199.933 18.309C199.934 18.3088 199.935 18.3086 199.935 18.3084C199.739 18.4397 190.647 20.6411 196.796 19.2993C196.993 19.2517 196.708 19.2504 197.46 19.0596C197.51 19.0469 197.551 19.101 197.707 19.0608C198.089 18.9664 199.939 18.466 200.288 18.3033C200.295 18.3135 200.322 18.3169 200.376 18.3111C200.877 18.2558 202.167 17.5674 201.907 17.6185ZM110.848 16.8725C110.654 16.9211 110.072 17.1688 110.032 17.2438C110.333 17.1564 111.299 16.7583 110.848 16.8725ZM74.4131 11.6127C74.0254 11.6656 73.0998 12.0184 73.3991 11.9805C73.5819 11.9529 74.8583 11.5477 74.4131 11.6127ZM104.84 19.2005C107.149 18.418 105.386 18.9942 105.708 18.7885C105.42 18.9272 105.13 19.0648 104.84 19.2005ZM212.407 14.2886C212.043 14.3981 212.41 14.0972 212.83 14.0393C212.963 14.0214 212.61 14.2269 212.407 14.2886ZM228.369 8.16975C228.005 8.16613 229.532 7.62595 228.989 7.9566C228.966 7.96967 228.382 8.17087 228.369 8.16975ZM217.204 12.431C216.998 12.6109 216.846 12.6796 216.156 12.9073C217.154 12.5112 216.192 12.7742 217.204 12.431ZM125.05 12.4349C125.055 12.4377 125.059 12.4397 125.059 12.4434C125.054 12.441 125.051 12.4382 125.05 12.4349ZM89.1479 14.1897C89.1144 13.88 88.8091 13.1145 88.8213 13.3733C88.8218 13.3956 89.047 14.0997 89.1479 14.1897ZM200.324 18.2582C200.366 18.2606 200.349 18.2757 200.288 18.3033C200.282 18.2937 200.295 18.2788 200.324 18.2582ZM91.7587 19.1688C91.6627 19.1624 92.5933 20.0344 93.0741 20.2834C93.4462 20.5121 93.7818 20.6471 93.8152 20.6588C94.7253 20.9045 93.9872 20.7244 93.1145 20.2156C92.733 20.0034 92.0497 19.4897 91.7587 19.1688ZM66.8728 14.0523C66.8171 14.0814 67.2497 14.0786 67.4546 13.9319C67.6142 13.8176 67.0808 13.9419 66.8728 14.0523ZM219.487 11.5375C219.867 11.3948 220.395 11.1948 220.518 11.2285C220.265 11.3124 219.499 11.592 219.487 11.5375ZM227.762 8.30635C227.336 8.57574 226.353 8.97095 225.685 9.21961C225.638 9.11433 227.338 8.51052 227.762 8.30635ZM202.966 17.3273C202.936 17.3325 201.96 17.6066 202.113 17.6393C202.353 17.684 203.247 17.2819 202.966 17.3273ZM68.6374 13.4598C69.0207 13.2601 68.0372 13.4487 67.6627 13.7328C67.4701 13.876 68.572 13.4912 68.6374 13.4598ZM88.3175 11.7912C88.0663 11.2931 88.51 12.6006 88.6596 12.7674C88.5691 12.5179 88.4051 11.9619 88.3175 11.7912ZM107.392 17.9936C105.557 18.4471 106.662 18.4816 106.962 18.3266C107.006 18.3039 107.436 17.9828 107.392 17.9936ZM13.4573 15.1778C13.2083 15.2612 14.184 15.1853 14.2902 15.0851C14.3575 15.0218 13.6142 15.1246 13.4573 15.1778ZM133.601 10.5987C133.525 10.6113 133.452 10.6237 133.381 10.6357C133.434 10.6233 133.503 10.611 133.601 10.5987ZM87.3314 9.71938C87.6093 9.8566 87.7927 9.94163 87.9249 9.98707C87.7072 9.97593 87.7657 9.8434 87.733 9.83299C87.5999 9.78469 87.4208 9.69563 87.554 9.84091C87.4853 9.77592 87.4458 9.77574 87.4913 9.83905C87.5319 9.90043 87.6815 10.0135 87.8234 10.0716C87.777 10.0698 87.5387 9.98456 87.4313 9.90378C87.3221 9.82236 87.4195 9.92129 87.5506 10.1868C87.8252 10.72 88.153 11.5875 88.1884 11.5973C88.2968 11.6491 87.8732 10.7265 87.8701 10.7202C87.8622 10.6802 87.994 10.4616 87.964 10.3839C87.9515 10.3474 87.7798 9.99459 87.6463 9.7992C87.5829 9.70146 87.5408 9.67069 87.608 9.72112C87.6694 9.77082 87.8555 9.85271 87.9512 9.86126C87.6578 9.79138 87.4281 9.74714 87.3314 9.71938ZM103.64 19.4158C103.951 19.3376 104.064 19.3868 104.196 19.3197C104.241 19.2966 104.223 19.2181 104.377 19.1413C104.132 19.2347 103.889 19.3256 103.64 19.4158ZM85.4212 9.91563C85.1092 9.81371 86.5142 9.85913 86.534 9.88876C86.7577 9.96343 85.7004 9.98082 85.4212 9.91563ZM91.059 18.1728C91.0117 18.1112 90.5903 17.364 90.3973 16.8766C90.3023 16.6556 90.2243 16.4889 90.2066 16.5004C90.2282 16.5776 90.2801 16.7239 90.3467 16.8978C90.5923 17.6708 91.5972 19.0448 91.059 18.1728ZM104.571 19.0664C105.017 18.9182 105.864 18.6878 105.726 18.61C105.725 18.6103 105.724 18.6105 105.724 18.6108C105.343 18.7643 104.963 18.9155 104.571 19.0664ZM69.9276 12.7228C69.1127 12.8054 69.5507 12.9068 70.2344 12.7365C70.4082 12.5853 70.0607 12.7095 69.9276 12.7228ZM67.4845 13.4709C67.2624 13.5102 65.1524 14.4198 65.5172 14.3828C65.6441 14.3657 66.8302 13.78 66.8897 13.7668C66.979 13.7428 66.6307 14.0021 67.2749 13.7228C67.2223 13.7021 67.5595 13.4539 67.4845 13.4709ZM69.2654 12.826C68.4688 12.958 68.3985 13.2756 68.9559 13.0707C69.1748 12.9912 69.3786 12.8079 69.2654 12.826ZM72.3348 11.8316C72.056 11.8885 71.3227 12.0789 70.8559 12.3297C71.5211 12.1174 72.1878 11.9165 72.8567 11.7277C72.9191 11.6561 72.5786 11.7808 72.333 11.8322C72.3336 11.832 72.3342 11.8318 72.3348 11.8316ZM232.152 5.6753C231.832 5.78043 232.026 5.66289 232.289 5.52417C232.601 5.36311 232.965 5.18073 232.995 5.17597C233.093 5.16196 232.972 5.25743 232.772 5.37476C232.573 5.49153 232.279 5.63592 232.152 5.6753ZM7.98207 13.8236C7.84135 13.8316 7.72748 13.7928 7.5237 13.8321C7.45382 13.8457 7.37413 13.8678 7.28157 13.9025C7.3656 13.8989 7.4508 13.8951 7.53718 13.8912C7.85527 13.879 8.17894 13.8667 8.50644 13.8546C8.77253 13.6212 8.17784 13.8138 7.98207 13.8236ZM6.34488 13.5635C6.399 13.5467 6.0369 13.3623 6.79242 13.3641C7.30114 13.3615 4.70594 14.1015 4.2106 14.1348C4.71253 13.9362 5.87857 13.7073 6.34488 13.5635ZM1.34592 13.8852C1.30707 13.8646 2.36092 13.4206 2.48176 13.4082C3.13604 13.2679 1.57807 13.8721 1.34592 13.8852ZM4.65776 12.866C4.17332 12.9396 5.21528 12.6342 5.53649 12.5881C5.57297 12.6282 4.73807 12.8512 4.65776 12.866ZM224.521 4.77415C223.961 4.80545 223.677 5.33019 224.394 4.96236C224.429 4.94459 224.545 4.77394 224.521 4.77415ZM2.29617 13.2311C2.80527 13.112 1.72477 13.5081 1.36785 13.646C1.32051 13.6032 2.22268 13.2395 2.29617 13.2311ZM224.019 4.5175C223.34 4.64926 223.721 4.96013 223.806 4.94534C224.152 4.88267 225.233 4.26829 225.434 4.14131C223.794 4.87 224.341 4.45356 224.019 4.5175ZM221.16 5.91421C220.572 6.19083 222.15 5.67501 222.383 5.45413C222.096 5.57252 221.33 5.83482 221.16 5.91421ZM217.489 7.16382C217.166 7.26898 216.192 7.59307 216.054 7.71608C216.404 7.57345 217.381 7.27928 217.489 7.16382ZM216.692 7.2459C216.155 7.34787 216.127 7.64408 216.682 7.3523C216.703 7.34098 216.712 7.24378 216.692 7.2459ZM213.827 8.20096C213.46 8.22152 213.171 8.60276 213.709 8.41396C213.869 8.3574 213.866 8.19966 213.827 8.20096ZM223.057 4.40078C222.572 4.54277 222.025 4.95639 223.044 4.57833C222.703 4.74301 222.35 4.91168 222.018 5.07154C223.366 4.6566 223.181 4.45034 223.554 4.31477C224.072 4.12581 224.125 4.33301 224.038 4.43952C224.441 4.14034 226.229 3.42019 227.281 2.95229C226.314 3.29741 224.827 3.79723 223.874 4.13748C223.608 4.23261 223.385 4.38338 223.159 4.46568C222.797 4.59668 223.084 4.39329 223.059 4.40006C223.058 4.4003 223.057 4.40054 223.057 4.40078ZM210.094 9.54122C209.08 9.77231 209.782 9.80049 210.318 9.56087C210.34 9.54913 210.119 9.53542 210.094 9.54122ZM0.475688 13.1318C2.10567 12.5344 1.10858 13.0014 4.02224 11.9252C2.82366 12.4151 3.98637 12.0494 3.75906 12.177C3.57813 12.276 2.83821 12.4497 3.28971 12.4218C2.99694 12.4514 2.24758 12.6448 1.49561 12.9313C0.727005 13.2156 0.0407667 13.6319 0.0235225 13.6283C0.0243944 13.6278 0.0252674 13.6273 0.0261413 13.6268C-0.0261256 13.6472 -0.051893 13.3684 0.475688 13.1318ZM217.245 6.5278C216.813 6.35222 216.864 6.86923 216.134 6.86148C215.42 7.53474 218.474 5.987 218.966 6.14002C215.503 7.41122 221.353 5.57463 218.78 6.03654C220.826 5.44386 219.409 5.73319 219.693 5.55931C220.001 5.37235 221.133 5.01171 221.04 4.92114C221.039 4.92138 221.039 4.92162 221.038 4.92186C220.351 5.19652 219.682 5.46219 218.992 5.73349C219.746 5.71797 218.334 6.17422 217.778 6.16204C217.598 6.2849 217.421 6.40674 217.245 6.5278ZM221.211 5.27193C221.131 5.29756 219.672 5.8966 219.78 5.90899C219.993 5.8643 222.092 5.01097 221.211 5.27193ZM227.679 2.6171C227.182 2.82645 226.31 3.13194 226.08 3.32888C226.585 3.12409 227.451 2.81745 227.679 2.6171ZM200.018 12.7083C199.346 13.0023 201.5 12.3475 200.851 12.4546C200.817 12.4615 200.048 12.6954 200.018 12.7083ZM215.705 7.15344C214.978 7.31979 215.413 7.48667 215.898 7.22119C215.926 7.20576 215.739 7.14571 215.705 7.15344ZM1.75022 12.5448C1.80796 12.4156 3.91595 11.838 4.26438 11.7634C4.0875 11.8617 1.74973 12.6031 1.75022 12.5448ZM228.485 1.96789C227.361 2.15884 226.044 3.03587 225.9 3.08705C225.743 3.14339 225.94 2.9353 225.903 2.94672C225.824 2.9739 224.17 3.6519 224.089 3.69145C224.033 3.72069 224.399 3.75372 224.071 3.94106C224.705 3.5937 227.748 2.40811 227.894 2.31764C228.002 2.25483 227.045 2.47368 228.483 1.96862C228.484 1.96838 228.484 1.96813 228.485 1.96789ZM225.495 3.21258C225.94 3.10761 224.769 3.59186 224.487 3.67601C223.845 3.87126 225.425 3.23354 225.495 3.21258ZM222.67 4.27098C222.52 4.31359 221.325 4.76455 221.245 4.87831C221.853 4.7514 222.986 4.18612 222.67 4.27098ZM209.154 9.30962C208.841 9.43075 207.944 9.68138 207.918 9.76218C208.231 9.64291 209.129 9.39056 209.154 9.30962ZM8.57222 10.1691C8.00067 10.2349 9.29407 9.93072 9.67184 9.87979C9.69961 9.91959 8.62605 10.1617 8.57222 10.1691ZM215.362 6.58862C215.173 6.64151 211.369 8.08519 210.843 8.30165C211.385 8.16753 215.175 6.78844 215.334 6.69826C215.381 6.67276 215.387 6.58287 215.362 6.58862ZM223.545 3.42177C223.863 3.18819 224.131 3.20984 224.175 3.19375C224.601 3.04062 225.478 2.66042 225.321 2.82805C224.555 3.09883 222.932 3.87878 223.545 3.42177ZM208.732 8.97892C207.44 9.47214 209.976 8.69173 209.613 8.70819C209.589 8.71004 208.866 8.92805 208.732 8.97892ZM215.777 6.40361C216.039 6.22507 219.871 4.85256 220.466 4.61718C219.984 4.96238 219.497 5.02829 218.765 5.31471C218.57 5.39132 218.644 5.42936 218.623 5.43746C218.284 5.56952 218.513 5.40576 218.302 5.48461C218.169 5.5376 215.418 6.66027 215.777 6.40361ZM223.721 3.27737C223.925 3.13789 226.232 2.17728 226.336 2.14637C227.073 1.96927 223.927 3.22334 223.721 3.27737ZM215.382 6.40913C215.733 6.0955 217.662 5.49687 216.401 6.06104C216.281 6.11412 215.725 6.24144 215.382 6.40913ZM208.816 8.77458C208.75 8.7931 207.381 9.23542 207.377 9.29452C207.577 9.24919 209.563 8.57128 208.816 8.77458ZM209.455 8.35148C209.423 8.36421 209.775 8.35212 209.137 8.56372C209.083 8.58135 208.949 8.50295 208.16 8.82559C208.001 8.891 207.776 9.05317 207.796 9.05146C208.695 8.93836 211.073 7.71143 209.455 8.35148ZM223.729 3.17011C223.582 3.17465 223.838 2.91168 224.14 2.87243C224.269 2.85594 224.086 3.02606 223.729 3.17011ZM204.496 10.2138C205.256 9.86299 202.773 10.6782 202.654 10.7385C202.749 10.7681 204.422 10.2492 204.496 10.2138ZM9.73403 9.20527C9.73338 9.20541 9.73273 9.20555 9.73208 9.20568C10.4354 9.07894 10.0181 9.24368 10.0509 9.23918C11.5721 9.03552 11.1359 8.95337 11.3677 8.88467C11.8593 8.73993 11.8222 8.95886 12.6491 8.70472C11.278 9.11082 12.5371 8.80232 12.592 8.8669C12.8078 9.13013 10.7052 9.10427 10.0193 9.31484C9.92376 9.34363 10.6615 9.28802 10.4185 9.36667C9.62749 9.61999 7.01976 9.70489 9.73403 9.20527ZM224.345 2.7759C224.601 2.58161 226.918 1.72383 226.341 2.0393C226.241 2.09732 223.953 3.07479 224.345 2.7759ZM123.666 5.9174C124.245 5.69504 122.83 5.95241 122.598 6.07543C122.477 6.13646 123.412 6.0138 123.666 5.9174ZM113.94 8.35112C113.24 8.60017 112.613 9.1563 113.463 8.81261C113.553 8.77585 114.034 8.36625 113.94 8.35112ZM154.371 10.7819C153.703 10.9511 153.825 11.1276 154.28 10.9261C154.441 10.8538 154.393 10.7759 154.371 10.7819ZM132.386 3.97769C132.314 3.98033 131.422 4.14189 131.467 4.18481C131.791 4.15687 132.893 3.94894 132.386 3.97769ZM154.561 10.6634C154.199 10.8678 154.914 10.7168 155.324 10.3608C155.085 10.4853 154.594 10.6447 154.561 10.6634ZM213.789 6.49646C213.477 6.70417 212.495 7.03429 211.94 7.2507C211.841 7.16698 213.4 6.66212 213.789 6.49646ZM116.981 7.53399C116.346 7.80536 117.77 7.45138 117.616 7.38809C117.593 7.38854 117.006 7.52268 116.981 7.53399ZM177.988 2.20207C177.386 2.30501 179.322 2.28863 178.786 2.19902C178.761 2.19128 178.018 2.19241 177.988 2.20207ZM186.51 3.88408C186.104 3.60603 184.151 2.87074 184.885 3.22055C185.011 3.25583 186.456 3.90435 186.51 3.88408ZM11.3932 8.79648C11.1732 8.7227 12.3281 8.51594 12.4973 8.50322C12.5634 8.4983 11.6808 8.89131 11.3932 8.79648ZM150.154 12.4571C149.833 12.5924 149.08 12.7935 148.991 12.8719C149.284 12.7953 150.292 12.5404 150.154 12.4571ZM120.003 6.66837C119.388 6.70586 118.403 6.99957 118.692 7.08859C119.786 6.76827 118.518 6.98076 120.003 6.66837ZM156.694 9.52499C156.413 9.64668 156.269 9.88865 156.303 9.88113C156.632 9.80497 156.999 9.44997 156.694 9.52499ZM142.471 4.39124C142.515 4.30853 141.079 3.70501 141.239 3.83651C141.333 3.86434 142.485 4.44251 142.471 4.39124ZM201.679 10.6719C201.236 10.7514 202.509 10.2734 202.915 10.2138C203.128 10.2532 201.746 10.6587 201.679 10.6719ZM164.672 5.98099C164.677 5.86758 163.224 6.54162 163.837 6.37335C163.988 6.33108 164.67 6.01746 164.672 5.98099ZM180.632 1.9942C179.951 2.01514 181.029 2.09984 182.078 2.29843C183.126 2.48662 184.159 2.7939 183.442 2.51448C183.349 2.423 180.746 1.94006 180.632 1.9942ZM189.12 5.32419C189.048 5.26367 189.079 5.17782 189.2 5.17999C189.257 5.17824 189.348 5.20684 189.434 5.25366C189.521 5.3006 189.641 5.39094 189.631 5.42248C189.622 5.42617 189.624 5.45997 189.57 5.45541C189.52 5.45286 189.439 5.42807 189.458 5.45483C189.46 5.45875 189.496 5.48817 189.527 5.51444C189.547 5.53522 189.616 5.57583 189.436 5.47707C190.66 6.13662 191.554 7.39315 191.591 7.44338C191.69 7.56475 191.669 7.35154 191.772 7.4744C191.949 7.63215 192.699 9.17703 192.898 9.82489C193.346 11.0805 193.409 11.1331 193.448 11.2375C193.526 11.5124 193.582 11.9798 193.699 12.4834C193.835 13.0617 193.968 13.6789 194.098 14.1971C194.161 14.4508 194.228 14.6856 194.265 14.7844C194.28 14.8296 194.292 14.8423 194.245 14.7451C194.178 14.6448 194.128 14.4188 193.556 13.9084C192.755 13.2632 192.216 13.2075 191.99 13.1525C191.813 13.1214 191.722 13.1197 191.679 13.1184C191.608 13.1186 191.676 13.1217 191.769 13.1137C191.954 13.1006 192.267 13.0578 192.53 13.0176C193.113 12.9271 193.684 12.8246 194.165 12.7588C193.518 12.8865 192.892 13.0225 192.384 13.1198C192.088 13.1755 191.886 13.21 191.718 13.2316C191.658 13.2414 191.604 13.241 191.712 13.2495C191.775 13.2568 191.839 13.2585 192.054 13.3046C192.313 13.3727 192.79 13.4676 193.464 14.0182C193.901 14.4024 194.009 14.6397 194.073 14.7454C194.135 14.8621 194.136 14.8845 194.131 14.8749C194.175 14.8577 194.194 14.8707 194.177 14.8273C194.159 14.7825 194.098 14.645 194.039 14.482C193.92 14.1426 193.834 13.9218 194.102 14.5362C194.016 14.3628 193.782 13.196 193.31 11.4246C192.841 9.78223 191.955 6.986 189.393 5.55431C189.542 5.63847 189.506 5.62173 189.48 5.60072C189.448 5.57761 189.396 5.53879 189.349 5.50271C189.25 5.4275 189.163 5.36018 189.122 5.3254C189.121 5.325 189.121 5.32459 189.12 5.32419ZM111.161 9.218C111.542 8.95443 109.387 9.77303 109.256 9.96932C109.543 9.87801 111.11 9.24771 111.161 9.218ZM121.309 5.79481C121.508 5.7223 121.654 5.44762 122.768 5.2823C122.769 5.28205 122.77 5.2818 122.771 5.28156C123.102 5.23243 122.746 5.37866 122.811 5.38247C122.836 5.38368 123.865 5.24247 123.037 5.46772C121.787 5.8132 122.878 5.33464 122.206 5.50387C122.119 5.52461 120.888 5.97439 120.966 5.98252C120.975 5.98324 121.351 5.85675 121.416 5.85125C121.663 5.82938 121.565 5.92769 121.599 5.92215C121.706 5.89918 123.695 5.26981 124.009 5.30546C124.111 5.30549 120.839 6.22223 120.704 6.25076C120.622 6.2616 120.605 6.06425 120.517 6.06813C120.474 6.06816 119.172 6.50289 119 6.53441C118.949 6.5434 118.909 6.54874 118.88 6.55218C119.094 6.55348 117.905 6.88832 117.924 6.81317C117.937 6.78091 118.755 6.5627 118.789 6.55855C118.803 6.5568 118.815 6.55624 118.826 6.55509C118.637 6.52612 121.411 5.76972 120.787 5.82816C121.586 5.55288 120.714 6.01316 121.309 5.79481ZM125.196 4.70338C125.115 4.74314 125.034 4.78307 124.953 4.82317C126.383 4.43554 128.054 4.17207 129.749 3.85107C130.175 3.77112 129.66 3.73944 130.227 3.66926C130.688 3.61221 131.202 3.64152 130.96 3.70995C130.904 3.72537 129.973 3.81578 129.518 3.9124C128.18 4.19639 128.535 4.24038 128.459 4.25736C128.379 4.27608 127.515 4.37705 127.061 4.4797C125.915 4.73928 125.398 4.92184 123.823 5.2151C124.714 4.9263 124.173 4.89673 125.196 4.70338ZM171.022 3.32792C171.057 3.24426 172.036 3.00966 172.389 2.90241C172.351 2.98153 171.366 3.20741 171.022 3.32792ZM49.1897 12.6132C48.9616 12.7728 50.7084 12.4986 50.2322 12.4868C50.1248 12.4902 49.3909 12.5917 49.1897 12.6132ZM57.4885 10.2537C57.7305 10.1273 56.6818 10.4473 56.7136 10.5251C56.7251 10.5513 57.4571 10.2714 57.4885 10.2537ZM146.712 6.97227C146.836 7.05419 147.685 8.30078 147.663 8.33183C147.83 8.75203 147.424 7.98787 146.879 7.3034C146.333 6.62722 145.792 6.08228 146.712 6.97227ZM68.5098 5.70201C67.5227 6.10146 70.5744 5.14281 69.6161 5.3552C69.5672 5.36381 68.5561 5.6808 68.5098 5.70201ZM72.7854 4.4084C72.5359 4.47432 71.427 4.7428 71.4223 4.78169C71.4151 4.83755 72.6814 4.52861 72.7854 4.4084ZM156.706 9.05577C156.543 8.9943 157.864 8.4777 158.303 8.25573C158.462 8.31949 157.134 8.83644 156.706 9.05577ZM149.104 12.1069C151.266 11.3553 152.585 10.7641 152.36 10.9221C152.222 11.0045 150.604 11.7934 148.888 12.2307C148.865 12.153 148.853 12.1857 149.104 12.1069ZM155.523 9.52502C155.36 9.68928 154.769 9.93795 154.373 10.109C154.415 10.0304 155.236 9.6758 155.523 9.52502ZM47.4671 12.5343C47.5626 12.4907 47.8474 12.5061 48.1267 12.5171C48.4074 12.5295 48.6601 12.5455 48.5555 12.5762C48.5314 12.5831 48.1931 12.6087 47.9202 12.6008C47.6358 12.595 47.4307 12.5594 47.4671 12.5343ZM147.407 7.68473C147.379 7.53724 147.868 8.19413 148.185 8.84261C148.515 9.49676 148.714 10.0993 148.734 10.1854C148.801 10.5305 148.644 10.0698 148.35 9.39123C148.075 8.72108 147.511 7.79051 147.407 7.68473ZM164.511 5.43463C164.776 5.22089 165.661 4.9149 166.223 4.69828C165.996 4.87265 164.98 5.24081 164.511 5.43463ZM160.552 7.07141C160.581 7.05375 161.34 6.72239 161.373 6.713C162.024 6.52269 159.897 7.45238 160.552 7.07141ZM8.56534 8.51775C8.58999 8.50909 9.19731 8.38564 9.21758 8.3852C9.77421 8.35998 7.96283 8.72797 8.56534 8.51775Z" fill="#F8B730"/>
</svg>
