<svg width="16" height="11" viewBox="0 0 16 11" fill="none" xmlns="http://www.w3.org/2000/svg">
<path d="M15.8777 0.190326C15.7929 0.0885805 15.673 0.0223472 15.5417 0.00471198C15.4104 -0.0129232 15.2773 0.0193222 15.1687 0.0950776L6.12006 6.24389L0.775558 3.50285C0.662068 3.44519 0.53185 3.4295 0.407911 3.45855C0.283971 3.4876 0.174286 3.55952 0.0982365 3.6616C0.0246521 3.76485 -0.00941306 3.89109 0.00224102 4.01735C0.0138951 4.1436 0.0704911 4.26147 0.161733 4.34951L5.89781 10.0962C5.99876 10.1975 6.13579 10.2546 6.27881 10.2549C6.34821 10.2558 6.41701 10.2421 6.4808 10.2147C6.54459 10.1874 6.60197 10.147 6.64922 10.0962L15.846 0.909981C15.939 0.814987 15.9936 0.689022 15.9995 0.556225C16.0053 0.423428 15.962 0.29314 15.8777 0.190326Z" fill="#0075C2"/>
</svg>
