<svg width="80" height="95" viewBox="0 0 80 95" fill="none" xmlns="http://www.w3.org/2000/svg">
<path d="M40.4535 0C31.5225 0.0113784 22.8456 2.98059 15.7728 8.44571C8.69994 13.9108 3.6277 21.5654 1.34518 30.2186C-0.937333 38.8718 -0.302153 48.0385 3.15192 56.2924C6.606 64.5464 12.6853 71.4249 20.444 75.8578C19.7797 82.199 17.0234 88.1368 12.6117 92.731C11.9828 93.3612 12.6117 94.765 15.4702 93.7337C22.975 91.2099 29.6808 86.7428 34.908 80.7851C36.8009 81.0664 38.7115 81.21 40.625 81.2148C51.1851 80.9122 61.21 76.4897 68.5646 68.8892C75.9192 61.2888 80.0223 51.111 79.9999 40.5237C79.9776 29.9364 75.8316 19.7761 68.4449 12.207C61.0583 4.63778 51.0148 0.257839 40.4535 0V0Z" fill="#EAF1F6"/>
<path d="M61.1775 28.6472C60.9484 28.3718 60.6246 28.1925 60.27 28.1448C59.9154 28.097 59.5558 28.1843 59.2623 28.3894L34.8221 45.0334L20.3866 37.6138C20.0801 37.4577 19.7284 37.4152 19.3936 37.4938C19.0589 37.5725 18.7626 37.7672 18.5572 38.0435C18.3585 38.323 18.2664 38.6647 18.2979 39.0064C18.3294 39.3482 18.4823 39.6673 18.7287 39.9056L34.2218 55.461C34.4945 55.7352 34.8646 55.8898 35.2509 55.8907C35.4383 55.893 35.6242 55.8559 35.7965 55.7819C35.9688 55.7079 36.1237 55.5986 36.2514 55.461L61.0917 30.5952C61.3429 30.3381 61.4905 29.9971 61.5063 29.6376C61.5222 29.2782 61.4051 28.9255 61.1775 28.6472Z" fill="white"/>
</svg>
