<svg xmlns="http://www.w3.org/2000/svg" viewBox="0 0 566.83 106.4"><defs><style>.cls-1{fill:#0075c2}.cls-4{fill:#fff}.cls-5{fill:#f8b62d}</style></defs><g id="Layer_2" data-name="Layer 2"><g id="レイヤー_2" data-name="レイヤー 2"><path class="cls-1" d="M65 87v11.41a4 4 0 01-4 4H8a4 4 0 01-4-4v-53a4 4 0 014-4h10.61l-1.07-4H8a8 8 0 00-8 8v53a8 8 0 008 8h53a8 8 0 008-8V86z"/><path d="M61 41.44H18.61l14.5 54.11L65 87V45.44a4 4 0 00-4-4z" fill="#21aee5"/><path class="cls-1" d="M69 45.44V86l27-7.22-16.92-62.86-62.8 16.83 1.26 4.7H61a8 8 0 018 7.99z"/><path class="cls-4" d="M61 37.45H17.54l1.07 4H61a4 4 0 014 4V87l4-1V45.44a8 8 0 00-8-7.99z"/><path class="cls-5" d="M98.87 0a14.17 14.17 0 00-7 26.48 10 10 0 01-2.74 5.89c-.22.22 0 .71 1 .35a15.71 15.71 0 006.8-4.52 13.87 13.87 0 002 .15A14.18 14.18 0 0098.87 0z"/><path class="cls-4" d="M106.12 10a.5.5 0 00-.67-.09l-8.55 5.81-5.05-2.59a.51.51 0 00-.64.15.5.5 0 00.06.65l5.42 5.43a.51.51 0 00.36.15.47.47 0 00.35-.15l8.69-8.68a.51.51 0 00.03-.68z"/><path class="cls-1" d="M217.62 62.18v5.72c-1.67 1.18-7.45 5.93-11.12 9a6.55 6.55 0 012.32-.43c3.89 0 5.24 2.86 5.24 7.23v2c0 3.77.21 4.64 6.63 4.64 2.6 0 5.67-.33 7.45-.49l.11 7c-1.51.16-3.89.32-6.48.32-8.52 0-11.22-1-13.06-3.29-.86-1.08-1.45-3.13-1.45-5.83v-2.13c0-1.67 0-3.83-2.7-3.83a8.76 8.76 0 00-5.08 1.78c-2.86 2.49-12 12.14-12.95 13.17l-4.8-5.88c1.08-.92 9.77-8.85 13.17-11.93 6.85-6.26 9.44-8.47 12-10.74l-21.48.7v-6.85zm.21-2.65c-6.52-1.94-19.1-3.51-26.12-3.34l.7-6.16A118.8 118.8 0 01219 52.89zM149 83.22h-5.77c-1.08 7.78-7.88 14.31-18.79 16.47l-3-7c8.53-1.72 13.34-3.51 15.17-9.5h-5.27a3.31 3.31 0 01-3.34-3.28v-26.3a3.31 3.31 0 013.31-3.31h31.89a3.31 3.31 0 013.3 3.31v26.3a3.31 3.31 0 01-3.3 3.31h-7.55v7.61c0 1.08.33 1.57 1.35 1.57h7c1.78 0 2.16 0 2.11-7.29l6.65 1.89c-.11 8-.91 11.66-5.39 11.66h-13.5c-3.78 0-4.91-2.38-4.91-4.53zM134.61 56v3.78h25.31V56zm0 8.85v3.83h25.31v-3.86zm0 8.85v4.1h25.31v-4.1zm135.58-22.37v5.82c-8.59 7.78-9.51 8.53-11.07 9.83a16.09 16.09 0 016-1c10.52 0 14.9 7.77 14.9 14.73 0 8.8-6.26 16.57-20.51 16.57-5.67 0-8.48-1.4-10-2.37a8.84 8.84 0 01-4.37-7.4c0-5.39 5.23-8.42 10.09-8.42a9.57 9.57 0 0110 9.77c0 .43-.05.76-.1 1.51 4.69-1.4 7.45-4.26 7.45-9.07 0-9.12-8.26-9.12-10-9.12A23.32 23.32 0 00248.65 77c-1.83 1.73-7.29 7.07-9.28 9.18l-4.05-6.26c8.15-7.18 16.24-14.63 24.29-22l-20.35.32v-6.91zm-10.75 38.48c0-2.27-1.24-5-4.58-5-2.33 0-3.78 1.29-3.78 3 0 1.51 1.18 4 8.15 3.46a5.13 5.13 0 00.21-1.46zm35.47-14.68a29.35 29.35 0 01-3.78 4.26l-3-8.26c5.61-6.25 9.34-12.73 11.12-20.88l6.64.7a54.9 54.9 0 01-4.16 12.47v36h-6.85zm24-24.83v18.14a62.14 62.14 0 0016.35-9.18l4.31 5.62a75.21 75.21 0 01-20.66 10.41v14.52c0 1.24 0 2 2.1 2H331c1.3 0 1.57-.38 1.73-.81.48-1.14.65-7.18.7-8.75l6.75 1.84c-.06 13.6-2.7 14.52-6.91 14.52h-15.59c-2.8 0-5.66-.6-5.66-5.13V50.3zm77.27 4.75v7h-16.29v24.63h19.05v7.07h-45.77v-7.07h19.11V62.07H356v-7zM425 67.63a71.53 71.53 0 00-16.46-8l3.35-6.21a64.63 64.63 0 0117 7.44zm-15.81 21c17.54-1.29 31.25-6.8 38.86-31.79l7 3.35C446.6 86 432.83 93.75 411.51 96.56zm127.57-21a71.53 71.53 0 00-16.46-8l3.35-6.21a64.63 64.63 0 0117 7.44zM521 88.62c17.54-1.29 31.25-6.8 38.86-31.79l7 3.35c-8.45 25.82-22.22 33.57-43.54 36.38zm-42.53-12.03a84.2 84.2 0 00-15.28-6.21l2.64-6.26a71.15 71.15 0 0115.6 5.77zm-12.26 12c19-1.67 29.15-6.37 36.38-29.14l6.75 3.23c-7.78 22.19-17.87 30.82-41.19 33.63zm16.84-24.69a79.51 79.51 0 00-15.6-5.9l2.87-6.26a80.38 80.38 0 0115.76 5.5z"/><path class="cls-5" d="M508 44.16a4.2 4.2 0 00-2.08 7.84 2.93 2.93 0 01-.81 1.74c-.06.06 0 .21.3.1a4.64 4.64 0 002-1.33 5.46 5.46 0 00.58 0 4.2 4.2 0 000-8.39zm-9.93 2.74a4.19 4.19 0 00-2.07 7.84 2.93 2.93 0 01-.81 1.74c-.07.07 0 .21.3.11a4.7 4.7 0 002-1.34 5.27 5.27 0 00.57 0 4.2 4.2 0 100-8.39z"/></g></g></svg>