<svg width="20" height="20" viewBox="0 0 20 20" fill="none" xmlns="http://www.w3.org/2000/svg">
<circle cx="10" cy="10" r="10" fill="white"/>
<path d="M3.5 8.5C3.66022 8.77039 3.82478 9.035 3.99367 9.29384C5.23009 11.1888 6.69874 12.7741 8.39962 14.0497C8.46641 14.0998 8.53339 14.1497 8.60055 14.1993L9.70322 15.0388L10.6328 13.9818C12.5928 11.6869 14.2535 9.13279 15.6152 6.31941C15.7462 6.04868 15.8745 5.77554 16 5.5C15.7451 5.66338 15.493 5.82917 15.2436 5.99735C12.6523 7.74506 10.3602 9.75201 8.36715 12.0182L10.3995 11.8007C10.333 11.7501 10.2664 11.6998 10.1996 11.6497C8.49874 10.3741 6.56564 9.40803 4.40031 8.75164C4.10454 8.66199 3.80444 8.5781 3.5 8.5Z" fill="#11629E"/>
</svg>
