<svg width="56" height="138" viewBox="0 0 56 138" fill="none" xmlns="http://www.w3.org/2000/svg">
<path d="M5.14742 118.447C3.97806 117.275 3.97812 115.378 5.14755 114.207L6.80389 112.548C17.8795 101.456 23.9817 86.706 23.9817 71.0178C23.9817 55.3296 17.8822 40.5793 6.80389 29.4872L6.30312 28.9857C5.885 28.5669 5.60005 28.0339 5.48413 27.4536L0.881522 4.4129C0.462169 2.31362 2.3134 0.463279 4.41248 0.883639L27.4101 5.48912C27.9913 5.60551 28.525 5.8915 28.9439 6.31097L29.4435 6.81132C38.0938 15.4744 44.7936 25.5832 49.3589 36.857C53.7641 47.738 56 59.2309 56 71.0178C56 82.8046 53.7667 94.2949 49.3589 105.179C44.7936 116.452 38.0938 126.561 29.4435 135.224L27.7937 136.876C26.6217 138.05 24.7197 138.05 23.5478 136.876L5.14742 118.447Z" fill="url(#paint0_linear_453_1514)"/>
<defs>
<linearGradient id="paint0_linear_453_1514" x1="28" y1="0" x2="28" y2="139.003" gradientUnits="userSpaceOnUse">
<stop offset="0.3" stop-color="#ED9025"/>
<stop offset="0.9" stop-color="white" stop-opacity="0.3"/>
</linearGradient>
</defs>
</svg>
