<svg width="56" height="138" viewBox="0 0 56 138" fill="none" xmlns="http://www.w3.org/2000/svg">
<path d="M50.8526 19.5562C52.0219 20.7274 52.0219 22.6244 50.8525 23.7955L49.1961 25.4543C38.1205 36.5464 32.0183 51.2967 32.0183 66.9849C32.0183 82.6731 38.1178 97.4234 49.1961 108.515L49.6969 109.017C50.115 109.436 50.4 109.969 50.5159 110.549L55.1185 133.59C55.5378 135.689 53.6866 137.539 51.5875 137.119L28.5899 132.514C28.0087 132.397 27.475 132.111 27.0561 131.692L26.5565 131.191C17.9062 122.528 11.2064 112.42 6.64113 101.146C2.23595 90.2647 5.17813e-06 78.7718 6.20857e-06 66.9849C7.23901e-06 55.198 2.23328 43.7078 6.64114 32.8241C11.2064 21.5503 17.9062 11.4416 26.5565 2.77844L28.2063 1.12619C29.3783 -0.0475335 31.2803 -0.0474875 32.4522 1.12631L50.8526 19.5562Z" fill="url(#paint0_linear_453_1512)"/>
<defs>
<linearGradient id="paint0_linear_453_1512" x1="28" y1="138.003" x2="28" y2="-0.999987" gradientUnits="userSpaceOnUse">
<stop offset="0.3" stop-color="#ED9025"/>
<stop offset="0.9" stop-color="white" stop-opacity="0.3"/>
</linearGradient>
</defs>
</svg>
