<svg width="16" height="49" viewBox="0 0 16 49" fill="none" xmlns="http://www.w3.org/2000/svg">
<path fill-rule="evenodd" clip-rule="evenodd" d="M4.83032 4.03198C4.83032 4.03198 5.00018 3.89847 5.15697 3.68486C6.18919 2.1762 4.84338 0.627494 3.81116 0C3.52371 2.08275 3.43224 3.40449 4.72579 4.04533C4.89565 3.23093 5.01324 2.16285 4.77805 1.3618C5.57509 2.13615 5.31376 3.25763 4.83032 4.03198ZM4.63433 4.2723C3.95489 4.87309 2.9096 5.30032 2.03417 4.60607C2.84427 4.72623 3.86343 4.45921 4.62126 4.16549C3.81116 2.95056 2.54375 3.24428 0.57077 3.81837C1.3286 4.76628 3.0272 5.91446 4.33381 4.64613C4.51673 4.45921 4.59513 4.31235 4.62126 4.2723H4.63433ZM6.92089 6.30164C7.48274 5.58069 7.86165 4.49927 7.15608 3.63145C7.29981 4.45921 7.07769 5.51394 6.81637 6.30164C5.60122 5.52729 5.83641 4.2189 6.34599 2.1762C7.29981 2.9105 8.47576 4.60607 7.29981 5.99457C7.12995 6.18148 6.98622 6.27494 6.93396 6.30164H6.92089ZM6.69877 6.51526C6.69877 6.51526 6.56811 6.70217 6.37212 6.86238C4.93485 7.97051 3.36691 6.64877 2.71361 5.62074C4.73885 5.26027 6.0324 5.11341 6.69877 6.40845C5.9148 6.60871 4.86952 6.76892 4.07248 6.55531C4.86952 7.34301 5.94094 7.03594 6.6857 6.51526H6.69877ZM8.76321 8.78491C8.76321 8.78491 8.95921 8.69146 9.1552 8.5179C10.4879 7.27626 9.49492 5.46053 8.61949 4.61942C7.90085 6.58201 7.535 7.8637 8.65868 8.77156C8.9984 8.02391 9.33812 6.99589 9.28586 6.16813C9.89996 7.1027 9.40345 8.14407 8.77628 8.79827L8.76321 8.78491ZM8.51496 8.97183C7.71793 9.39906 6.60731 9.58597 5.90174 8.71816C6.67264 9.01188 7.71793 8.98518 8.52802 8.86502C7.99231 7.50323 6.69877 7.50323 4.64739 7.63674C5.1831 8.73151 6.59424 10.2268 8.14911 9.2789C8.37123 9.14539 8.47576 9.01188 8.51496 8.97183ZM10.3181 11.4551C11.0236 10.881 11.6116 9.90639 11.102 8.90507C11.0628 9.74618 10.6186 10.7208 10.2005 11.4284C9.18133 10.4004 9.69091 9.17209 10.6055 7.30296C11.3764 8.23753 12.1735 10.1467 10.7231 11.2415C10.5141 11.3883 10.3573 11.4418 10.305 11.4685L10.3181 11.4551ZM10.0568 11.6153C10.0568 11.6153 9.89996 11.7622 9.66477 11.8823C8.01845 12.6433 6.77717 11.0012 6.35905 9.85299C8.41043 9.94645 9.70397 10.0933 10.0829 11.5085C9.27279 11.5352 8.2275 11.4551 7.48274 11.0679C8.08378 12.0158 9.20746 11.9491 10.0437 11.6153H10.0568ZM11.5855 14.2855C11.5855 14.2855 11.7945 14.2321 12.0297 14.1119C13.5977 13.1907 13.0097 11.2014 12.3303 10.1868C11.2066 11.9491 10.5794 13.1106 11.481 14.2454C11.9775 13.5913 12.5132 12.67 12.6438 11.8423C13.0489 12.897 12.3433 13.7915 11.5855 14.2855ZM11.3111 14.419C10.4357 14.6593 9.32506 14.5926 8.81548 13.5913C9.50798 14.0452 10.5402 14.2454 11.3503 14.3122C11.1282 12.8703 9.8477 12.5766 7.82245 12.2562C8.10991 13.4444 9.18133 15.2201 10.893 14.646C11.1412 14.5525 11.2588 14.4591 11.3111 14.4324V14.419ZM12.5524 17.2494C13.3625 16.8355 14.1464 16.0211 13.859 14.9397C13.6499 15.7541 13.0097 16.6086 12.4479 17.2094C11.6639 15.9811 12.4217 14.8996 13.7283 13.2708C14.2902 14.3523 14.656 16.395 13.0097 17.1426C12.7745 17.2494 12.6177 17.2628 12.5524 17.2628V17.2494ZM12.2649 17.3429C12.2649 17.3429 12.0689 17.4497 11.8207 17.5164C10.0568 17.9036 9.1944 16.0211 9.02454 14.8062C11.0106 15.3536 12.2388 15.7808 12.3172 17.2494C11.5202 17.1025 10.5141 16.7821 9.87383 16.2481C10.2658 17.3028 11.3764 17.4897 12.2649 17.3429ZM13.1926 20.2934C13.1926 20.2934 13.4147 20.2934 13.663 20.2133C15.3877 19.6659 15.2309 17.5965 14.7998 16.4484C13.3363 17.917 12.474 18.9183 13.1142 20.2267C13.7414 19.6926 14.46 18.9183 14.7606 18.1306C14.9304 19.252 14.055 19.973 13.2057 20.2801L13.1926 20.2934ZM12.8921 20.3602C11.9905 20.4136 10.9061 20.0932 10.6317 18.9984C11.2066 19.5992 12.1735 20.0264 12.9444 20.2667C13.0358 18.7981 11.8468 18.2374 9.93916 17.4764C9.97836 18.7047 10.6317 20.6672 12.4217 20.4803C12.683 20.4536 12.8268 20.3869 12.879 20.3602H12.8921ZM13.4931 23.3908C14.3686 23.1639 15.3093 22.5497 15.2701 21.4149C14.8912 22.1626 14.0811 22.8568 13.4147 23.3107C12.9182 21.9356 13.8851 21.0411 15.4923 19.746C15.8058 20.9343 15.7405 23.0037 13.9635 23.3641C13.7153 23.4042 13.5454 23.3908 13.4931 23.3908ZM13.1926 23.4175C13.1926 23.4175 12.9836 23.4843 12.7222 23.4843C10.9191 23.4709 10.4749 21.4416 10.5663 20.2133C12.3825 21.1879 13.4931 21.8822 13.258 23.3241C12.5132 23.0037 11.5986 22.4696 11.089 21.8021C11.2458 22.9236 12.2911 23.3508 13.1926 23.4042V23.4175ZM13.467 26.5016C13.467 26.5016 13.6761 26.555 13.9374 26.5283C15.7274 26.3681 16.028 24.3121 15.845 23.1105C14.1072 24.2186 13.0489 25.0063 13.3886 26.4215C14.1072 26.0343 14.9827 25.4335 15.44 24.7393C15.3616 25.8608 14.3555 26.3815 13.467 26.5016ZM13.1534 26.5016C12.2649 26.3547 11.2719 25.8074 11.2327 24.6725C11.6639 25.3801 12.5263 26.0076 13.2318 26.4215C13.6238 25.0063 12.5916 24.2052 10.893 23.0304C10.6709 24.2319 10.893 26.3013 12.683 26.515C12.9444 26.5417 13.1012 26.515 13.1534 26.5016ZM13.1012 29.599C14.0027 29.5723 15.0611 29.1851 15.2571 28.0637C14.7344 28.7045 13.7937 29.1985 13.0358 29.5056C12.8398 28.0503 13.9766 27.3961 15.832 26.4883C15.8842 27.7165 15.3747 29.7192 13.5715 29.6791C13.3102 29.6791 13.1665 29.6124 13.1012 29.599ZM12.8006 29.559C12.8006 29.559 12.5785 29.5723 12.3303 29.5189C10.5794 29.105 10.5663 27.0223 10.9191 25.8474C12.4871 27.2092 13.4278 28.1171 12.8921 29.4789C12.2388 28.9982 11.4548 28.2773 11.089 27.5163C11.0106 28.6378 11.9252 29.292 12.8006 29.5456V29.559ZM12.4217 32.6297C13.3233 32.7098 14.4078 32.4294 14.7214 31.348C14.1334 31.9354 13.1404 32.3226 12.3564 32.5362C12.3172 31.0676 13.5193 30.5469 15.4531 29.8527C15.3747 31.081 14.656 33.0169 12.866 32.7765C12.6177 32.7365 12.474 32.6697 12.4087 32.643L12.4217 32.6297ZM12.1212 32.5629C11.285 32.2158 10.4357 31.4682 10.6447 30.36C10.9191 31.1477 11.6116 31.9488 12.2257 32.5095C12.9052 31.2145 12.082 30.1998 10.6578 28.6778C10.1744 29.7993 9.9653 31.8687 11.6639 32.4828C11.9121 32.5629 12.0689 32.5629 12.1212 32.5763V32.5629ZM11.4156 35.5802C12.3041 35.7538 13.4147 35.6069 13.8329 34.5656C13.1796 35.0729 12.1604 35.3533 11.3634 35.4868C11.481 34.0315 12.7222 33.6444 14.7214 33.1637C14.5123 34.3653 13.5846 36.2211 11.8468 35.7805C11.5986 35.7138 11.4679 35.6203 11.4156 35.5936V35.5802ZM11.1282 35.4734C11.1282 35.4734 10.9061 35.4467 10.6709 35.3399C9.05067 34.5389 9.48185 32.5095 10.0698 31.4548C11.3111 33.1237 12.0297 34.2318 11.2196 35.4334C10.6839 34.8192 10.0698 33.9381 9.8869 33.1237C9.57331 34.2051 10.3311 35.0462 11.1282 35.4868V35.4734ZM10.096 38.3839C10.9583 38.6643 12.082 38.6376 12.6177 37.6363C11.9121 38.0769 10.8799 38.2371 10.0568 38.2771C10.3311 36.8352 11.6116 36.5949 13.6499 36.3412C13.3233 37.5161 12.1996 39.2518 10.5141 38.6243C10.2789 38.5308 10.1482 38.424 10.096 38.3973V38.3839ZM9.82157 38.2504C9.0768 37.7297 8.41043 36.8085 8.84161 35.7672C8.93307 36.5949 9.45572 37.5428 9.9261 38.2104C10.8669 37.1022 10.2658 35.9274 9.20746 34.125C8.50189 35.113 7.86165 37.0889 9.39039 38.0635C9.61251 38.197 9.7693 38.2371 9.82157 38.2504ZM8.48883 41.0408C9.31199 41.4146 10.4357 41.5081 11.0759 40.5868C10.3311 40.9473 9.27279 40.9874 8.46269 40.934C8.89388 39.5321 10.1874 39.4253 12.2388 39.412C11.7815 40.5468 10.4879 42.1489 8.86774 41.3211C8.64562 41.201 8.52802 41.0808 8.47576 41.0408H8.48883ZM8.2275 40.8672C8.2275 40.8672 8.01845 40.7871 7.82245 40.6269C6.41132 39.4921 7.26061 37.6096 8.07071 36.7017C8.93307 38.6109 9.40345 39.8525 8.3451 40.8405C7.95312 40.1196 7.535 39.1316 7.535 38.2905C6.99929 39.2785 7.56113 40.2664 8.24057 40.8672H8.2275ZM6.60731 43.484C6.60731 43.484 6.75103 43.6576 6.96009 43.8044C8.47576 44.7924 9.93916 43.3505 10.5141 42.2824C8.46269 42.0821 7.16915 42.0421 6.59424 43.3772C7.39127 43.5241 8.44963 43.5908 9.22053 43.3238C8.48883 44.1649 7.39127 43.9513 6.60731 43.484ZM6.37212 43.2837C5.75801 42.6028 5.3007 41.5615 5.94094 40.6403C5.86254 41.4814 6.16306 42.5094 6.47665 43.2704C7.62646 42.4026 7.29981 41.1075 6.64651 39.1182C5.74494 39.9327 4.69966 41.7083 5.98013 43.0034C6.16306 43.1769 6.30679 43.257 6.35905 43.2837H6.37212ZM4.47753 45.7003C5.20924 46.2476 6.28065 46.5814 7.09075 45.8204C6.29372 46.0073 5.24843 45.8204 4.47753 45.5801C5.19617 44.3118 6.47665 44.4987 8.48883 44.9259C7.80939 45.9272 6.20226 47.2089 4.79112 46.0474C4.59513 45.8738 4.50366 45.7403 4.47753 45.6869V45.7003ZM4.25541 45.4733C4.25541 45.4733 4.07248 45.3531 3.90263 45.1529C2.76587 43.7243 3.99409 42.0822 4.97404 41.3746C5.40523 43.4306 5.60122 44.739 4.35994 45.4733C4.12475 44.6856 3.92876 43.6175 4.11168 42.8031C3.37998 43.6442 3.7197 44.739 4.25541 45.4733ZM2.11257 47.6762C2.11257 47.6762 2.2171 47.8765 2.38696 48.0634C3.65437 49.3718 5.39216 48.277 6.17613 47.3558C4.21621 46.7016 2.96187 46.3678 2.11257 47.556C2.85734 47.8765 3.87649 48.1702 4.68659 48.0901C3.7981 48.7576 2.76587 48.2903 2.0995 47.6762H2.11257ZM1.91658 47.4359C1.45926 46.6348 1.23714 45.5133 2.0603 44.7657C1.79898 45.5667 1.87738 46.6348 2.03417 47.4492C3.34078 46.8484 3.28852 45.5267 3.07946 43.4306C2.03417 44.018 0.623034 45.5267 1.61606 47.0754C1.75978 47.289 1.89045 47.3958 1.92964 47.4359H1.91658Z" fill="url(#paint0_linear_453_1138)"/>
<defs>
<linearGradient id="paint0_linear_453_1138" x1="15.8916" y1="-5.554" x2="15.8916" y2="55.2197" gradientUnits="userSpaceOnUse">
<stop stop-color="#DDC901"/>
<stop offset="1" stop-color="#B3A004"/>
</linearGradient>
</defs>
</svg>
