<svg width="16" height="49" viewBox="0 0 16 49" fill="none" xmlns="http://www.w3.org/2000/svg">
<path fill-rule="evenodd" clip-rule="evenodd" d="M11.0613 4.03198C11.0613 4.03198 10.8914 3.89847 10.7346 3.68486C9.70241 2.1762 11.0482 0.627494 12.0804 0C12.3679 2.08275 12.4594 3.40449 11.1658 4.04533C10.996 3.23093 10.8784 2.16285 11.1135 1.3618C10.3165 2.13615 10.5778 3.25763 11.0613 4.03198ZM11.2573 4.2723C11.9367 4.87309 12.982 5.30032 13.8574 4.60607C13.0473 4.72623 12.0282 4.45921 11.2703 4.16549C12.0804 2.95056 13.3479 3.24428 15.3208 3.81837C14.563 4.76628 12.8644 5.91446 11.5578 4.64613C11.3749 4.45921 11.2965 4.31235 11.2703 4.2723H11.2573ZM8.97071 6.30164C8.40887 5.58069 8.02995 4.49927 8.73552 3.63145C8.59179 4.45921 8.81391 5.51394 9.07524 6.30164C10.2904 5.52729 10.0552 4.2189 9.54562 2.1762C8.59179 2.9105 7.41584 4.60607 8.59179 5.99457C8.76165 6.18148 8.90538 6.27494 8.95764 6.30164H8.97071ZM9.19283 6.51526C9.19283 6.51526 9.32349 6.70217 9.51948 6.86238C10.9568 7.97051 12.5247 6.64877 13.178 5.62074C11.1527 5.26027 9.8592 5.11341 9.19283 6.40845C9.9768 6.60871 11.0221 6.76892 11.8191 6.55531C11.0221 7.34301 9.95067 7.03594 9.2059 6.51526H9.19283ZM7.12839 8.78491C7.12839 8.78491 6.9324 8.69146 6.7364 8.5179C5.40366 7.27626 6.39669 5.46053 7.27211 4.61942C7.99075 6.58201 8.3566 7.8637 7.23292 8.77156C6.8932 8.02391 6.55348 6.99589 6.60574 6.16813C5.99164 7.1027 6.48815 8.14407 7.11532 8.79827L7.12839 8.78491ZM7.37664 8.97183C8.17368 9.39906 9.28429 9.58597 9.98986 8.71816C9.21896 9.01188 8.17368 8.98518 7.36358 8.86502C7.89929 7.50323 9.19283 7.50323 11.2442 7.63674C10.7085 8.73151 9.29736 10.2268 7.7425 9.2789C7.52037 9.14539 7.41584 9.01188 7.37664 8.97183ZM5.57352 11.4551C4.86795 10.881 4.27998 9.90639 4.78956 8.90507C4.82875 9.74618 5.273 10.7208 5.69112 11.4284C6.71027 10.4004 6.20069 9.17209 5.28607 7.30296C4.51517 8.23753 3.71814 10.1467 5.16847 11.2415C5.37753 11.3883 5.53432 11.4418 5.58659 11.4685L5.57352 11.4551ZM5.83484 11.6153C5.83484 11.6153 5.99164 11.7622 6.22683 11.8823C7.87316 12.6433 9.11444 11.0012 9.53255 9.85299C7.48117 9.94645 6.18763 10.0933 5.80871 11.5085C6.61881 11.5352 7.6641 11.4551 8.40887 11.0679C7.80783 12.0158 6.68414 11.9491 5.84791 11.6153H5.83484ZM4.30611 14.2855C4.30611 14.2855 4.09705 14.2321 3.86186 14.1119C2.29393 13.1907 2.88191 11.2014 3.56134 10.1868C4.68503 11.9491 5.3122 13.1106 4.41064 14.2454C3.91413 13.5913 3.37842 12.67 3.24776 11.8423C2.84271 12.897 3.54828 13.7915 4.30611 14.2855ZM4.5805 14.419C5.45593 14.6593 6.56655 14.5926 7.07612 13.5913C6.38362 14.0452 5.3514 14.2454 4.5413 14.3122C4.76342 12.8703 6.0439 12.5766 8.06915 12.2562C7.78169 13.4444 6.71027 15.2201 4.99861 14.646C4.75036 14.5525 4.63276 14.4591 4.5805 14.4324V14.419ZM3.33922 17.2494C2.52912 16.8355 1.74515 16.0211 2.03261 14.9397C2.24167 15.7541 2.88191 16.6086 3.44375 17.2094C4.22771 15.9811 3.46988 14.8996 2.16327 13.2708C1.60143 14.3523 1.23558 16.395 2.88191 17.1426C3.11709 17.2494 3.27389 17.2628 3.33922 17.2628V17.2494ZM3.62667 17.3429C3.62667 17.3429 3.82266 17.4497 4.07092 17.5164C5.83484 17.9036 6.69721 16.0211 6.86707 14.8062C4.88102 15.3536 3.65281 15.7808 3.57441 17.2494C4.37144 17.1025 5.37753 16.7821 6.01777 16.2481C5.62579 17.3028 4.51517 17.4897 3.62667 17.3429ZM2.69898 20.2934C2.69898 20.2934 2.47686 20.2934 2.2286 20.2133C0.503875 19.6659 0.660668 17.5965 1.09185 16.4484C2.55525 17.917 3.41762 18.9183 2.77738 20.2267C2.1502 19.6926 1.43157 18.9183 1.13105 18.1306C0.961189 19.252 1.83662 19.973 2.68591 20.2801L2.69898 20.2934ZM2.9995 20.3602C3.90106 20.4136 4.98555 20.0932 5.25994 18.9984C4.68503 19.5992 3.71814 20.0264 2.94724 20.2667C2.85577 18.7981 4.04479 18.2374 5.95244 17.4764C5.91324 18.7047 5.25994 20.6672 3.46988 20.4803C3.20856 20.4536 3.06483 20.3869 3.01257 20.3602H2.9995ZM2.39846 23.3908C1.52303 23.1639 0.582272 22.5497 0.62147 21.4149C1.00039 22.1626 1.81049 22.8568 2.47686 23.3107C2.97337 21.9356 2.00648 21.0411 0.399346 19.746C0.08576 20.9343 0.151091 23.0037 1.92808 23.3641C2.17634 23.4042 2.3462 23.3908 2.39846 23.3908ZM2.69898 23.4175C2.69898 23.4175 2.90804 23.4843 3.16936 23.4843C4.97248 23.4709 5.41673 21.4416 5.32527 20.2133C3.50908 21.1879 2.39846 21.8822 2.63365 23.3241C3.37842 23.0037 4.29304 22.4696 4.80262 21.8021C4.64583 22.9236 3.60054 23.3508 2.69898 23.4042V23.4175ZM2.42459 26.5016C2.42459 26.5016 2.21553 26.555 1.95421 26.5283C0.164157 26.3681 -0.136364 24.3121 0.0465617 23.1105C1.78435 24.2186 2.84271 25.0063 2.50299 26.4215C1.78435 26.0343 0.908924 25.4335 0.451611 24.7393C0.530007 25.8608 1.5361 26.3815 2.42459 26.5016ZM2.73818 26.5016C3.62667 26.3547 4.6197 25.8074 4.65889 24.6725C4.22771 25.3801 3.36535 26.0076 2.65978 26.4215C2.2678 25.0063 3.30002 24.2052 4.99861 23.0304C5.22074 24.2319 4.99861 26.3013 3.20856 26.515C2.94724 26.5417 2.79044 26.515 2.73818 26.5016ZM2.79044 29.599C1.88888 29.5723 0.830528 29.1851 0.634536 28.0637C1.15718 28.7045 2.09794 29.1985 2.85577 29.5056C3.05176 28.0503 1.91501 27.3961 0.0596278 26.4883C0.0073634 27.7165 0.516941 29.7192 2.32006 29.6791C2.58138 29.6791 2.72511 29.6124 2.79044 29.599ZM3.09096 29.559C3.09096 29.559 3.31309 29.5723 3.56134 29.5189C5.3122 29.105 5.32527 27.0223 4.97248 25.8474C3.40455 27.2092 2.46379 28.1171 2.9995 29.4789C3.65281 28.9982 4.43677 28.2773 4.80262 27.5163C4.88102 28.6378 3.96639 29.292 3.09096 29.5456V29.559ZM3.46988 32.6297C2.56832 32.7098 1.48383 32.4294 1.17025 31.348C1.75822 31.9354 2.75124 32.3226 3.53521 32.5362C3.57441 31.0676 2.37233 30.5469 0.438545 29.8527C0.516941 31.081 1.23558 33.0169 3.02563 32.7765C3.27389 32.7365 3.41762 32.6697 3.48295 32.643L3.46988 32.6297ZM3.7704 32.5629C4.60663 32.2158 5.45593 31.4682 5.24687 30.36C4.97248 31.1477 4.27998 31.9488 3.66587 32.5095C2.98643 31.2145 3.8096 30.1998 5.2338 28.6778C5.71725 29.7993 5.92631 31.8687 4.22771 32.4828C3.97946 32.5629 3.82266 32.5629 3.7704 32.5763V32.5629ZM4.47597 35.5802C3.58747 35.7538 2.47686 35.6069 2.05874 34.5656C2.71205 35.0729 3.7312 35.3533 4.52823 35.4868C4.41064 34.0315 3.16936 33.6444 1.17025 33.1637C1.3793 34.3653 2.307 36.2211 4.04479 35.7805C4.29304 35.7138 4.42371 35.6203 4.47597 35.5936V35.5802ZM4.76342 35.4734C4.76342 35.4734 4.98555 35.4467 5.22074 35.3399C6.84093 34.5389 6.40975 32.5095 5.82178 31.4548C4.5805 33.1237 3.86186 34.2318 4.67196 35.4334C5.20767 34.8192 5.82178 33.9381 6.0047 33.1237C6.31829 34.2051 5.56046 35.0462 4.76342 35.4868V35.4734ZM5.79565 38.3839C4.93328 38.6643 3.8096 38.6376 3.27389 37.6363C3.97946 38.0769 5.01168 38.2371 5.83484 38.2771C5.56046 36.8352 4.27998 36.5949 2.24167 36.3412C2.56832 37.5161 3.692 39.2518 5.37753 38.6243C5.61272 38.5308 5.74338 38.424 5.79565 38.3973V38.3839ZM6.07003 38.2504C6.8148 37.7297 7.48117 36.8085 7.04999 35.7672C6.95853 36.5949 6.43588 37.5428 5.96551 38.2104C5.02475 37.1022 5.62579 35.9274 6.68414 34.125C7.38971 35.113 8.02995 37.0889 6.50121 38.0635C6.27909 38.197 6.1223 38.2371 6.07003 38.2504ZM7.40278 41.0408C6.57961 41.4146 5.45593 41.5081 4.81569 40.5868C5.56046 40.9473 6.61881 40.9874 7.42891 40.934C6.99773 39.5321 5.70418 39.4253 3.65281 39.412C4.11012 40.5468 5.40366 42.1489 7.02386 41.3211C7.24598 41.201 7.36358 41.0808 7.41584 41.0408H7.40278ZM7.6641 40.8672C7.6641 40.8672 7.87316 40.7871 8.06915 40.6269C9.48029 39.4921 8.63099 37.6096 7.82089 36.7017C6.95853 38.6109 6.48815 39.8525 7.5465 40.8405C7.93849 40.1196 8.3566 39.1316 8.3566 38.2905C8.89231 39.2785 8.33047 40.2664 7.65103 40.8672H7.6641ZM9.28429 43.484C9.28429 43.484 9.14057 43.6576 8.93151 43.8044C7.41584 44.7924 5.95244 43.3505 5.37753 42.2824C7.42891 42.0821 8.72245 42.0421 9.29736 43.3772C8.50033 43.5241 7.44197 43.5908 6.67107 43.3238C7.40278 44.1649 8.50033 43.9513 9.28429 43.484ZM9.51948 43.2837C10.1336 42.6028 10.5909 41.5615 9.95067 40.6403C10.0291 41.4814 9.72854 42.5094 9.41496 43.2704C8.26514 42.4026 8.59179 41.1075 9.2451 39.1182C10.1467 39.9327 11.1919 41.7083 9.91147 43.0034C9.72854 43.1769 9.58482 43.257 9.53255 43.2837H9.51948ZM11.4141 45.7003C10.6824 46.2476 9.61095 46.5814 8.80085 45.8204C9.59788 46.0073 10.6432 45.8204 11.4141 45.5801C10.6954 44.3118 9.41496 44.4987 7.40278 44.9259C8.08221 45.9272 9.68934 47.2089 11.1005 46.0474C11.2965 45.8738 11.3879 45.7403 11.4141 45.6869V45.7003ZM11.6362 45.4733C11.6362 45.4733 11.8191 45.3531 11.989 45.1529C13.1257 43.7243 11.8975 42.0822 10.9176 41.3746C10.4864 43.4306 10.2904 44.739 11.5317 45.4733C11.7669 44.6856 11.9628 43.6175 11.7799 42.8031C12.5116 43.6442 12.1719 44.739 11.6362 45.4733ZM13.779 47.6762C13.779 47.6762 13.6745 47.8765 13.5046 48.0634C12.2372 49.3718 10.4994 48.277 9.71548 47.3558C11.6754 46.7016 12.9297 46.3678 13.779 47.556C13.0343 47.8765 12.0151 48.1702 11.205 48.0901C12.0935 48.7576 13.1257 48.2903 13.7921 47.6762H13.779ZM13.975 47.4359C14.4323 46.6348 14.6545 45.5133 13.8313 44.7657C14.0926 45.5667 14.0142 46.6348 13.8574 47.4492C12.5508 46.8484 12.6031 45.5267 12.8121 43.4306C13.8574 44.018 15.2686 45.5267 14.2755 47.0754C14.1318 47.289 14.0012 47.3958 13.962 47.4359H13.975Z" fill="url(#paint0_linear_453_1133)"/>
<defs>
<linearGradient id="paint0_linear_453_1133" x1="0" y1="-5.554" x2="-5.29385e-07" y2="55.2197" gradientUnits="userSpaceOnUse">
<stop stop-color="#EDDA20"/>
<stop offset="1" stop-color="#CAB602"/>
</linearGradient>
</defs>
</svg>
