<svg width="194" height="150" viewBox="0 0 194 150" fill="none" xmlns="http://www.w3.org/2000/svg">
<circle cx="158" cy="33" r="16" fill="#E9F6FF"/>
<circle cx="158" cy="75" r="16" fill="#E9F6FF"/>
<circle cx="158" cy="117" r="16" fill="#E9F6FF"/>
<path d="M133 75L128.5 79.5" stroke="#20AEE6" stroke-width="2" stroke-linecap="round"/>
<path d="M105 75L133 75" stroke="#20AEE6" stroke-width="2" stroke-linecap="round"/>
<path d="M133 75L128.5 70.5" stroke="#20AEE6" stroke-width="2" stroke-linecap="round"/>
<path d="M133 34L128.5 29.5" stroke="#20AEE6" stroke-width="2" stroke-linecap="round"/>
<path d="M133 34L116.412 34C114.203 34 112.412 35.7909 112.412 38L112.412 49C112.412 51.2091 110.621 53 108.412 53L105 53" stroke="#20AEE6" stroke-width="2" stroke-linecap="round"/>
<path d="M133 34L128.5 38.5" stroke="#20AEE6" stroke-width="2" stroke-linecap="round"/>
<path d="M133 116L128.5 120.5" stroke="#20AEE6" stroke-width="2" stroke-linecap="round"/>
<path d="M133 116L116.412 116C114.203 116 112.412 114.209 112.412 112L112.412 101C112.412 98.7909 110.621 97 108.412 97L105 97" stroke="#20AEE6" stroke-width="2" stroke-linecap="round"/>
<path d="M133 116L128.5 111.5" stroke="#20AEE6" stroke-width="2" stroke-linecap="round"/>
<rect x="16" y="35" width="80" height="80" rx="21" fill="#FFFBF5"/>
<path d="M37 70.2103C37 60.7064 44.5645 53 53.8974 53C63.2302 53 70.7947 60.7064 70.7947 70.2103C70.7947 70.2415 70.7911 70.2691 70.7911 70.3003H70.7947L70.7839 70.4088C70.7731 71.3038 70.6864 72.1768 70.5475 73.0333L70.5295 73.2373C70.3923 74.2482 71.1394 75.509 71.6573 76.5382L74.2485 81.9197C74.7917 82.778 74.4254 83.605 73.4347 83.7576L70.9896 83.9689C69.9989 84.1233 69.1887 85.0827 69.1887 86.1028V88.9791C69.1887 89.9991 68.3695 90.8336 67.368 90.8336L62.4976 90.6718C61.4961 90.6718 60.6769 91.5062 60.6769 92.5263V95.0369H44.7738V90.0506C44.7738 84.116 37.9311 81.3462 37.1029 72.0813C37.0379 71.4656 37 70.8444 37 70.2103Z" fill="#ED9025"/>
<path d="M39.8906 70.2094C39.8906 78.0867 46.1613 84.4735 53.8954 84.4735C61.6295 84.4735 67.9001 78.0867 67.9001 70.2094C67.9001 62.3321 61.6295 55.9453 53.8954 55.9453C46.1613 55.9453 39.8906 62.3339 39.8906 70.2094Z" fill="white"/>
<path d="M52.3318 65.8633H49.5546L47.0879 74.5548H49.865L52.3318 65.8633Z" fill="#ED9025"/>
<path d="M56.2948 74.5548H53.5177L51.0527 65.8633H53.8281L56.2948 74.5548Z" fill="#ED9025"/>
<path d="M54.0734 70.7461H49.6055V72.5711H54.0734V70.7461Z" fill="#ED9025"/>
<path d="M60.4102 65.8633H57.7305V74.5548H60.4102V65.8633Z" fill="#ED9025"/>
<path d="M48.9375 55.9453V62.0509" stroke="#ED9025" stroke-width="1.75579" stroke-miterlimit="10"/>
<path d="M43.3184 70.2109V74.9528L48.0389 78.4687V84.475" stroke="#ED9025" stroke-width="1.75579" stroke-linejoin="round"/>
<path d="M48.9525 63.3527C49.657 63.3442 50.2214 62.7556 50.213 62.038C50.2046 61.3204 49.6267 60.7456 48.9222 60.7541C48.2176 60.7626 47.6533 61.3513 47.6616 62.0688C47.67 62.7864 48.2479 63.3613 48.9525 63.3527Z" fill="#ED9025"/>
<path d="M38.623 65.2715H44.6158" stroke="#ED9025" stroke-width="1.75579" stroke-miterlimit="10"/>
<path d="M44.6156 66.5677C45.3194 66.5677 45.8914 65.9869 45.8914 65.2701C45.8914 64.5533 45.3212 63.9707 44.6156 63.9707C43.9101 63.9707 43.3398 64.5515 43.3398 65.2701C43.3398 65.9887 43.9101 66.5677 44.6156 66.5677Z" fill="#ED9025"/>
<path d="M68.6762 76.7227H62.6816" stroke="#ED9025" stroke-width="1.75579" stroke-miterlimit="10"/>
<path d="M62.682 75.4219C61.9783 75.4219 61.4062 76.0027 61.4062 76.7213C61.4062 77.4399 61.9765 78.0189 62.682 78.0189C63.3858 78.0189 63.956 77.4381 63.956 76.7213C63.956 76.0045 63.3858 75.4219 62.682 75.4219Z" fill="#ED9025"/>
<path d="M54.8945 58.9968C54.8945 59.7136 55.4648 60.2962 56.1685 60.2962C56.8723 60.2962 57.4443 59.7154 57.4443 58.9968C57.4443 58.2782 56.8741 57.6992 56.1685 57.6992C55.4629 57.6992 54.8945 58.28 54.8945 58.9968Z" fill="#ED9025"/>
<path d="M63.9492 58.5293V70.2111" stroke="#ED9025" stroke-width="1.75579" stroke-miterlimit="10"/>
<path d="M62.6738 70.2115C62.6738 70.9283 63.2441 71.5091 63.9496 71.5091C64.6552 71.5091 65.2254 70.9283 65.2254 70.2115C65.2254 69.4947 64.6552 68.9121 63.9496 68.9121C63.2441 68.9121 62.6738 69.4929 62.6738 70.2115Z" fill="#ED9025"/>
<path d="M55.9297 78.405C55.9297 79.1218 56.4999 79.7044 57.2055 79.7044C57.9092 79.7044 58.4813 79.1236 58.4813 78.405C58.4813 77.6864 57.911 77.1074 57.2055 77.1074C56.5017 77.1074 55.9297 77.6882 55.9297 78.405Z" fill="#ED9025"/>
<path d="M42.041 70.2115C42.041 70.9283 42.6112 71.5091 43.3168 71.5091C44.0224 71.5091 44.5908 70.9283 44.5908 70.2115C44.5908 69.4947 44.0206 68.9121 43.3168 68.9121C42.613 68.9121 42.041 69.4929 42.041 70.2115Z" fill="#ED9025"/>
<path d="M63.9509 62.8982H56.1699V59" stroke="#ED9025" stroke-width="1.75579" stroke-linejoin="round"/>
<path d="M52.8418 85.2414V78.4043H57.2069" stroke="#ED9025" stroke-width="1.75579" stroke-linejoin="round"/>
<circle cx="158" cy="33" r="5" fill="#0075C2"/>
<path d="M157.168 71.2481C157.564 70.6543 158.436 70.6543 158.832 71.2481L162.964 77.4453C163.407 78.1099 162.93 79 162.131 79H153.869C153.07 79 152.593 78.1099 153.036 77.4453L157.168 71.2481Z" fill="#0075C2"/>
<path d="M154 113L162 121" stroke="#0075C2" stroke-width="2" stroke-linecap="round"/>
<path d="M162 113L154 121" stroke="#0075C2" stroke-width="2" stroke-linecap="round"/>
</svg>
