<svg width="194" height="150" viewBox="0 0 194 150" fill="none" xmlns="http://www.w3.org/2000/svg">
<path d="M25.7186 49H62.0102C64.0633 49 65.7289 50.6656 65.7289 52.7186V97.2814C65.7289 99.3344 64.0633 101 62.0102 101H25.7186C23.6656 101 22 99.3344 22 97.2814V52.7186C22 50.6677 23.6677 49 25.7186 49Z" fill="#0075C2"/>
<rect x="38.5503" y="58.9434" width="21.6667" height="4.33333" rx="2.16667" fill="white"/>
<path d="M30.9519 56.498C28.4035 56.498 26.3369 58.5646 26.3369 61.113C26.3369 63.6615 28.4035 65.7199 30.9519 65.7199C33.5004 65.7199 35.5669 63.6622 35.5669 61.113C35.5669 58.5639 33.5004 56.498 30.9519 56.498Z" fill="white"/>
<path d="M33.3785 60.6309L30.8872 63.1296C30.7402 63.2767 30.5523 63.342 30.3645 63.342C30.1766 63.342 29.9887 63.2767 29.8499 63.1296L28.5103 61.7901C28.2244 61.5042 28.2244 61.0386 28.5103 60.7527C28.7962 60.4668 29.2618 60.4668 29.5477 60.7527L30.3645 61.5777L32.3412 59.5928C32.6271 59.3069 33.0926 59.3069 33.3785 59.5928C33.6644 59.8869 33.6644 60.345 33.3785 60.6309Z" fill="#ED9025"/>
<rect x="38.5503" y="72.832" width="21.6667" height="4.33333" rx="2.16667" fill="white"/>
<path d="M30.9519 70.3887C28.4035 70.3887 26.3369 72.4552 26.3369 75.0037C26.3369 77.5521 28.4035 79.6105 30.9519 79.6105C33.5004 79.6105 35.5669 77.5528 35.5669 75.0037C35.5669 72.4545 33.5004 70.3887 30.9519 70.3887Z" fill="white"/>
<path d="M33.3785 74.5195L30.8872 77.0183C30.7402 77.1653 30.5523 77.2307 30.3645 77.2307C30.1766 77.2307 29.9887 77.1653 29.8499 77.0183L28.5103 75.6787C28.2244 75.3928 28.2244 74.9273 28.5103 74.6414C28.7962 74.3555 29.2618 74.3555 29.5477 74.6414L30.3645 75.4664L32.3412 73.4815C32.6271 73.1956 33.0926 73.1956 33.3785 73.4815C33.6644 73.7756 33.6644 74.2337 33.3785 74.5195Z" fill="#ED9025"/>
<rect x="38.5503" y="86.7256" width="21.6667" height="4.33333" rx="2.16667" fill="white"/>
<path d="M30.9519 84.2832C28.4035 84.2832 26.3369 86.3497 26.3369 88.8982C26.3369 91.4467 28.4035 93.505 30.9519 93.505C33.5004 93.505 35.5669 91.4473 35.5669 88.8982C35.5669 86.3491 33.5004 84.2832 30.9519 84.2832Z" fill="white"/>
<path d="M33.3785 88.4175L30.8872 90.9163C30.7402 91.0633 30.5523 91.1286 30.3645 91.1286C30.1766 91.1286 29.9887 91.0633 29.8499 90.9163L28.5103 89.5767C28.2244 89.2908 28.2244 88.8252 28.5103 88.5393C28.7962 88.2534 29.2618 88.2534 29.5477 88.5393L30.3645 89.3643L32.3412 87.3795C32.6271 87.0936 33.0926 87.0936 33.3785 87.3795C33.6644 87.6735 33.6644 88.1316 33.3785 88.4175Z" fill="#ED9025"/>
<path d="M78.7186 49H115.01C117.063 49 118.729 50.6656 118.729 52.7186V97.2814C118.729 99.3344 117.063 101 115.01 101H78.7186C76.6656 101 75 99.3344 75 97.2814V52.7186C75 50.6677 76.6677 49 78.7186 49Z" fill="#0075C2"/>
<path d="M131.719 49H168.01C170.063 49 171.729 50.6656 171.729 52.7186V97.2814C171.729 99.3344 170.063 101 168.01 101H131.719C129.666 101 128 99.3344 128 97.2814V52.7186C128 50.6677 129.668 49 131.719 49Z" fill="#0075C2"/>
<rect x="81" y="89" width="20" height="4" rx="2" fill="white"/>
<rect x="81" y="81" width="32" height="4" rx="2" fill="white"/>
<rect x="134" y="89" width="32" height="4" rx="2" fill="white"/>
<rect x="134" y="81" width="32" height="4" rx="2" fill="white"/>
<rect x="138" y="65" width="6" height="9" rx="1" fill="#E9F6FF"/>
<rect x="147" y="61" width="6" height="13" rx="1" fill="#E9F6FF"/>
<rect x="156" y="58" width="6" height="16" rx="1" fill="#ED9025"/>
<rect x="81" y="55" width="32" height="19" rx="1" fill="#E9F6FF"/>
</svg>
