<svg width="194" height="150" viewBox="0 0 194 150" fill="none" xmlns="http://www.w3.org/2000/svg">
<rect width="194" height="150" fill="white"/>
<circle cx="97" cy="115" r="15" fill="#E9F6FF"/>
<mask id="mask0_419_1617" style="mask-type:alpha" maskUnits="userSpaceOnUse" x="82" y="100" width="30" height="30">
<circle cx="97" cy="115" r="15" fill="#E9F6FF"/>
</mask>
<g mask="url(#mask0_419_1617)">
<path d="M96.9985 118.945C100.377 118.945 103.116 116.175 103.116 112.757C103.116 109.34 100.377 106.569 96.9985 106.569C93.6201 106.569 90.8813 109.34 90.8813 112.757C90.8813 116.175 93.6201 118.945 96.9985 118.945Z" fill="#0075C2"/>
<path d="M97.2056 120.103H96.7031C91.7357 120.142 87.5222 123.818 86.749 128.784C86.749 129.214 86.865 130.29 88.4112 130.29H105.227C106.773 130.29 106.889 129.351 106.889 128.784C106.329 123.798 102.154 120.045 97.1863 120.103H97.2056Z" fill="#0075C2"/>
</g>
<circle cx="41" cy="106" r="15" fill="#E9F6FF"/>
<mask id="mask1_419_1617" style="mask-type:alpha" maskUnits="userSpaceOnUse" x="26" y="91" width="30" height="30">
<circle cx="41" cy="106" r="15" fill="#E9F6FF"/>
</mask>
<g mask="url(#mask1_419_1617)">
<path d="M40.9985 109.945C44.3769 109.945 47.1157 107.175 47.1157 103.757C47.1157 100.34 44.3769 97.5693 40.9985 97.5693C37.6201 97.5693 34.8813 100.34 34.8813 103.757C34.8813 107.175 37.6201 109.945 40.9985 109.945Z" fill="#0075C2"/>
<path d="M41.2056 111.103H40.7031C35.7357 111.142 31.5222 114.818 30.749 119.784C30.749 120.214 30.865 121.29 32.4112 121.29H49.2268C50.7731 121.29 50.889 120.351 50.889 119.784C50.3285 114.798 46.1536 111.045 41.1863 111.103H41.2056Z" fill="#0075C2"/>
</g>
<circle cx="153" cy="106" r="15" fill="#E9F6FF"/>
<mask id="mask2_419_1617" style="mask-type:alpha" maskUnits="userSpaceOnUse" x="138" y="91" width="30" height="30">
<circle cx="153" cy="106" r="15" fill="#E9F6FF"/>
</mask>
<g mask="url(#mask2_419_1617)">
<path d="M152.999 109.945C156.377 109.945 159.116 107.175 159.116 103.757C159.116 100.34 156.377 97.5693 152.999 97.5693C149.62 97.5693 146.881 100.34 146.881 103.757C146.881 107.175 149.62 109.945 152.999 109.945Z" fill="#0075C2"/>
<path d="M153.206 111.103H152.703C147.736 111.142 143.522 114.818 142.749 119.784C142.749 120.214 142.865 121.29 144.411 121.29H161.227C162.773 121.29 162.889 120.351 162.889 119.784C162.329 114.798 158.154 111.045 153.186 111.103H153.206Z" fill="#0075C2"/>
</g>
<path d="M97 62.1562L97 83.7977" stroke="#20AEE6" stroke-width="2" stroke-linecap="round"/>
<path d="M41 83.7976L41 77.0317C41 74.8226 42.7909 73.0317 45 73.0317L78.1177 73.0317C80.3268 73.0317 82.1177 71.2408 82.1177 69.0317L82.1177 61.9999" stroke="#20AEE6" stroke-width="2" stroke-linecap="round"/>
<path d="M153.118 83.7976L153.118 77.0317C153.118 74.8226 151.327 73.0317 149.118 73.0317L116 73.0317C113.791 73.0317 112 71.2408 112 69.0317L112 61.9999" stroke="#20AEE6" stroke-width="2" stroke-linecap="round"/>
<rect x="78.0117" y="18.0005" width="37.9767" height="26.2093" rx="3" fill="#0075C2"/>
<path d="M74 46H120V47C120 49.2091 118.209 51 116 51H78C75.7909 51 74 49.2091 74 47V46Z" fill="#ED9025"/>
</svg>
