<svg width="194" height="150" viewBox="0 0 194 150" fill="none" xmlns="http://www.w3.org/2000/svg">
<rect width="194" height="150" fill="white"/>
<circle cx="97" cy="79" r="52" stroke="#20AEE6" stroke-width="2.4"/>
<circle cx="97" cy="35" r="20.8" fill="#E9F6FF" stroke="white" stroke-width="2.4"/>
<circle cx="53" cy="115" r="20.8" fill="#E9F6FF" stroke="white" stroke-width="2.4"/>
<circle cx="141" cy="115" r="20.8" fill="#E9F6FF" stroke="white" stroke-width="2.4"/>
<g clip-path="url(#clip0_419_1464)">
<path d="M135.17 106.659C135.164 106.666 135.078 106.752 134.34 107.489L138.16 111.309L138.99 110.479C139.353 110.115 139.353 109.526 138.99 109.162L136.487 106.659C136.123 106.295 135.534 106.296 135.17 106.659Z" fill="#ED9025"/>
<path d="M137.738 118.233C141.299 121.795 146.203 123.911 147.803 122.311C147.884 122.229 147.959 122.155 148.032 122.082L144.194 118.244C143.87 118.45 143.443 118.439 143.128 118.195C143.128 118.195 142.042 117.48 140.267 115.704C138.492 113.929 137.776 112.843 137.776 112.843C137.532 112.528 137.521 112.102 137.727 111.777L133.89 107.939C133.817 108.013 133.742 108.087 133.66 108.169C132.06 109.769 134.177 114.672 137.738 118.233Z" fill="#0075C2"/>
<path d="M145.492 116.982L144.662 117.812L148.481 121.632C149.219 120.894 149.304 120.809 149.311 120.802C149.675 120.438 149.675 119.849 149.311 119.485L146.809 116.983C146.445 116.619 145.855 116.619 145.492 116.982Z" fill="#ED9025"/>
</g>
<path d="M57.5084 112.153C58.2021 112.153 58.8689 112.246 59.4956 112.413C58.8154 109.321 55.4157 106.97 51.3139 106.97C46.7222 106.97 43 109.914 43 113.547C43 115.863 44.5148 117.897 46.8022 119.069L45.513 121.951C47.9384 121.682 50.3161 121.045 52.1311 120.457C51.4315 119.6 51.0364 118.572 51.0364 117.477C51.0364 114.542 53.9398 112.153 57.5084 112.153Z" fill="#0075C2"/>
<path d="M62.9992 117.478C62.9992 115.079 60.5404 113.134 57.5076 113.134C54.4745 113.134 52.0156 115.079 52.0156 117.478C52.0156 119.311 53.4506 120.877 55.4796 121.515C56.5835 121.944 58.9283 122.762 61.3393 123.03L60.4875 121.126C61.9985 120.352 62.9992 119.008 62.9992 117.478Z" fill="#ED9025"/>
<path d="M101.985 32.2801C101.78 32.0745 101.769 31.7421 101.965 31.5228C102.294 31.1558 102.475 30.6818 102.475 30.188C102.475 29.6946 102.294 29.2211 101.966 28.8541C101.763 28.6273 101.782 28.2786 102.009 28.0756C102.236 27.8726 102.582 27.8974 102.788 28.1187C103.297 28.6882 103.579 29.4231 103.578 30.1885C103.578 30.9544 103.297 31.6898 102.786 32.2592C102.583 32.4861 102.235 32.5049 102.008 32.3019C102 32.2948 101.992 32.2882 101.985 32.2806V32.2801Z" fill="#ED9025"/>
<path d="M103.956 33.4554C103.75 33.2499 103.739 32.9169 103.935 32.6982C104.554 32.0079 104.895 31.1172 104.895 30.1894C104.895 29.2626 104.554 28.3724 103.937 27.6821C103.734 27.4553 103.753 27.1066 103.98 26.9036C104.207 26.7006 104.553 26.7315 104.758 26.9467C105.557 27.8395 105.997 28.9911 105.997 30.1894C105.997 31.3892 105.556 32.5414 104.756 33.4341C104.553 33.661 104.205 33.6798 103.978 33.4768C103.97 33.4697 103.963 33.4625 103.956 33.4554Z" fill="#ED9025"/>
<path d="M92.0048 32.2801C92.2103 32.0745 92.2215 31.7421 92.0251 31.5228C91.6962 31.1558 91.5155 30.6818 91.515 30.188C91.515 29.6946 91.6957 29.2211 92.0241 28.8541C92.2271 28.6273 92.2078 28.2786 91.9809 28.0756C91.7541 27.8726 91.4079 27.8974 91.2024 28.1187C90.6928 28.6882 90.4116 29.4231 90.4121 30.1885C90.4121 30.9544 90.6933 31.6898 91.2039 32.2592C91.4069 32.4861 91.7556 32.5049 91.9824 32.3019C91.9901 32.2948 91.9977 32.2882 92.0048 32.2806V32.2801Z" fill="#ED9025"/>
<path d="M90.0374 33.4554C90.243 33.2499 90.2541 32.9169 90.0577 32.6982C89.439 32.0079 89.0985 31.1172 89.0985 30.1894C89.0985 29.2626 89.4385 28.3724 90.0562 27.6821C90.2592 27.4553 90.2399 27.1066 90.0131 26.9036C89.7862 26.7006 89.4395 26.7315 89.2345 26.9467C88.4356 27.839 87.9961 28.9906 87.9961 30.1889C87.9961 31.3887 88.4366 32.5408 89.2365 33.4336C89.4395 33.6605 89.7882 33.6793 90.0151 33.4762C90.0227 33.4691 90.0298 33.462 90.0374 33.4549V33.4554Z" fill="#ED9025"/>
<path d="M94.0469 34.8521C94.1799 36.3636 95.4487 37.5462 96.9952 37.5462C98.5417 37.5462 99.8105 36.3636 99.9435 34.8521V29.0301C99.8846 28.3175 99.5674 27.679 99.0898 27.2014C98.5533 26.6655 97.8133 26.3325 96.9952 26.3325C95.4487 26.3325 94.1799 27.5186 94.0469 29.0301V34.8516V34.8521Z" fill="#0075C2"/>
<path d="M101.012 43.2273H97.5489V39.8323C100.191 39.5547 102.258 37.3144 102.258 34.5996C102.258 34.295 102.011 34.0474 101.706 34.0474C101.401 34.0474 101.153 34.2945 101.153 34.5996C101.153 36.8921 99.2882 38.7574 96.9951 38.7574C94.7021 38.7574 92.8368 36.8921 92.8368 34.5996C92.8368 34.295 92.5897 34.0474 92.2846 34.0474C91.9796 34.0474 91.7324 34.2945 91.7324 34.5996C91.7324 37.3149 93.8007 39.5562 96.4444 39.8328V43.2273H92.981C92.6759 43.2273 92.4288 43.4745 92.4288 43.7795C92.4288 44.0845 92.6759 44.3317 92.981 44.3317H101.012C101.317 44.3317 101.565 44.0845 101.565 43.7795C101.565 43.4745 101.317 43.2273 101.012 43.2273Z" fill="#0075C2"/>
<defs>
<clipPath id="clip0_419_1464">
<rect width="20" height="20" fill="white" transform="translate(131 105)"/>
</clipPath>
</defs>
</svg>
