<svg width="194" height="150" viewBox="0 0 194 150" fill="none" xmlns="http://www.w3.org/2000/svg">
<rect width="194" height="150" fill="white"/>
<path d="M97.0004 87.7998C97.0004 76.6194 88.5057 67.2689 77.3766 66.199L45.9141 63.1743C38.8173 62.492 33.4004 56.5294 33.4004 49.3998" stroke="#20AEE6" stroke-width="2.4" stroke-linecap="round"/>
<path d="M97.0001 87.7998C97.0001 76.6194 105.495 67.2689 116.624 66.199L148.086 63.1743C155.183 62.492 160.6 56.5294 160.6 49.3998" stroke="#20AEE6" stroke-width="2.4" stroke-linecap="round"/>
<circle opacity="0.5" cx="3.6" cy="3.6" r="3.6" transform="matrix(-4.37114e-08 -1 -1 4.37114e-08 37.0005 39.7998)" fill="#20AEE6"/>
<circle opacity="0.25" cx="3.6" cy="3.6" r="3.6" transform="matrix(-4.37114e-08 -1 -1 4.37114e-08 37.0005 24.2002)" fill="#20AEE6"/>
<circle opacity="0.5" cx="160.6" cy="36.1998" r="3.6" transform="rotate(-90 160.6 36.1998)" fill="#20AEE6"/>
<circle opacity="0.25" cx="160.6" cy="20.6002" r="3.6" transform="rotate(-90 160.6 20.6002)" fill="#20AEE6"/>
<circle opacity="0.5" cx="3.6" cy="3.6" r="3.6" transform="matrix(-4.37114e-08 1 1 4.37114e-08 93.4004 17)" fill="#20AEE6"/>
<circle opacity="0.25" cx="3.6" cy="3.6" r="3.6" transform="matrix(-4.37114e-08 1 1 4.37114e-08 93.4004 32.6001)" fill="#20AEE6"/>
<circle cx="6" cy="6" r="7.8" transform="matrix(-4.37114e-08 -1 -1 4.37114e-08 62.2007 69.7998)" fill="#ED9025" stroke="white" stroke-width="3.6"/>
<path d="M78.7186 81.5H115.01C117.063 81.5 118.729 83.1656 118.729 85.2186V129.781C118.729 131.834 117.063 133.5 115.01 133.5H78.7186C76.6656 133.5 75 131.834 75 129.781V85.2186C75 83.1677 76.6677 81.5 78.7186 81.5Z" fill="#0075C2"/>
<rect x="91.5503" y="91.4434" width="21.6667" height="4.33333" rx="2.16667" fill="white"/>
<path d="M83.9519 88.998C81.4035 88.998 79.3369 91.0646 79.3369 93.613C79.3369 96.1615 81.4035 98.2199 83.9519 98.2199C86.5004 98.2199 88.5669 96.1622 88.5669 93.613C88.5669 91.0639 86.5004 88.998 83.9519 88.998Z" fill="white"/>
<path d="M86.3785 93.1309L83.8872 95.6296C83.7402 95.7767 83.5523 95.842 83.3645 95.842C83.1766 95.842 82.9887 95.7767 82.8499 95.6296L81.5103 94.2901C81.2244 94.0042 81.2244 93.5386 81.5103 93.2527C81.7962 92.9668 82.2618 92.9668 82.5477 93.2527L83.3645 94.0777L85.3412 92.0928C85.6271 91.8069 86.0926 91.8069 86.3785 92.0928C86.6644 92.3869 86.6644 92.845 86.3785 93.1309Z" fill="#ED9025"/>
<rect x="91.5503" y="105.332" width="21.6667" height="4.33333" rx="2.16667" fill="white"/>
<path d="M83.9519 102.889C81.4035 102.889 79.3369 104.955 79.3369 107.504C79.3369 110.052 81.4035 112.111 83.9519 112.111C86.5004 112.111 88.5669 110.053 88.5669 107.504C88.5669 104.955 86.5004 102.889 83.9519 102.889Z" fill="white"/>
<path d="M86.3785 107.02L83.8872 109.518C83.7402 109.665 83.5523 109.731 83.3645 109.731C83.1766 109.731 82.9887 109.665 82.8499 109.518L81.5103 108.179C81.2244 107.893 81.2244 107.427 81.5103 107.141C81.7962 106.855 82.2618 106.855 82.5477 107.141L83.3645 107.966L85.3412 105.982C85.6271 105.696 86.0926 105.696 86.3785 105.982C86.6644 106.276 86.6644 106.734 86.3785 107.02Z" fill="#ED9025"/>
<rect x="91.5503" y="119.226" width="21.6667" height="4.33333" rx="2.16667" fill="white"/>
<path d="M83.9519 116.783C81.4035 116.783 79.3369 118.85 79.3369 121.398C79.3369 123.947 81.4035 126.005 83.9519 126.005C86.5004 126.005 88.5669 123.947 88.5669 121.398C88.5669 118.849 86.5004 116.783 83.9519 116.783Z" fill="white"/>
<path d="M86.3785 120.917L83.8872 123.416C83.7402 123.563 83.5523 123.629 83.3645 123.629C83.1766 123.629 82.9887 123.563 82.8499 123.416L81.5103 122.077C81.2244 121.791 81.2244 121.325 81.5103 121.039C81.7962 120.753 82.2618 120.753 82.5477 121.039L83.3645 121.864L85.3412 119.879C85.6271 119.594 86.0926 119.594 86.3785 119.879C86.6644 120.174 86.6644 120.632 86.3785 120.917Z" fill="#ED9025"/>
</svg>
