<svg width="155" height="213" viewBox="0 0 155 213" fill="none" xmlns="http://www.w3.org/2000/svg">
<g clip-path="url(#clip0_707_3489)">
<path d="M94.2495 2.00193C91.2504 1.0311 74.6424 -2.48379 69.7666 3.63152C69.7666 3.63152 56.6909 6.32728 50.4369 21.5874C47.7021 28.2661 45.171 35.9937 48.5429 52.4413C54.2248 99.4308 38.0676 118.028 22.4824 150.395C37.8162 150.447 102.432 161.299 122.273 144.383C122.273 144.383 108.019 88.4961 109.137 77.297C107.174 62.2579 117.84 12.4643 94.2539 2.00193H94.2495Z" fill="#024BA2"/>
<path d="M106.423 44.4886C110.02 31.5472 108.755 26.1426 108.755 26.1426C108.755 26.1426 106.839 5.42599 89.737 0.970613C82.3431 -0.958028 67.1697 0.398522 64.4826 1.56871C61.7955 2.74323 57.5872 5.39999 55.7539 7.68835C46.5918 19.1562 44.1864 38.7156 52.6984 50.6775C68.5263 45.1213 85.6023 43.1537 106.423 44.4886Z" fill="#024BA2"/>
<path d="M105.027 29.64C106.002 37.0815 105.318 41.8012 104.208 49.8929C103.099 57.9845 100.68 66.2191 95.2193 72.2911C89.7584 78.3674 80.6916 81.7263 73.1201 78.6578C68.9984 76.9849 65.7219 73.6303 63.4508 69.8034C61.1798 65.9808 59.8189 61.6901 58.6617 57.3951C56.6594 49.9622 55.1989 42.2476 55.953 34.5851C56.7071 26.9225 59.9013 19.2513 65.8692 14.3842C71.3648 9.89848 78.7239 8.17354 85.8144 8.36423C90.6339 8.49425 92.6362 9.78146 96.6235 12.4859C100.611 15.1903 103.866 20.7855 105.027 29.64Z" fill="#FFD3B6"/>
<path d="M103.113 42.3259C105.86 41.2684 109.128 43.3747 109.93 46.2048C110.732 49.035 109.492 52.1468 107.438 54.2531C105.384 56.3595 102.632 57.6337 99.8838 58.6825C101.505 55.1503 100.061 50.8596 101.366 47.1973C101.76 46.0835 102.402 45.065 102.705 43.9208C103.009 42.7766 102.879 41.4027 103.113 42.3259Z" fill="#FFD3B6"/>
<path d="M58.2859 43.8688C57.0031 42.4949 55.3865 40.9997 53.5315 41.303C52.4133 41.4894 51.4858 42.3389 50.9918 43.3574C50.4977 44.3759 50.3937 45.5417 50.4457 46.6686C50.7057 51.9647 54.732 56.8579 59.8765 58.1407C59.9242 53.5423 59.5038 48.9439 58.2816 43.8688H58.2859Z" fill="#FFD3B6"/>
<path d="M96.3561 68.6293C95.1166 75.0653 94.9605 87.0489 102.008 89.9873C105.393 91.4002 110.749 93.4199 113.371 96.354C119.023 104.368 114.412 117.313 83.7094 115.697C43.624 113.586 45.4183 105.252 46.0381 92.6181C50.8662 91.4002 57.1635 91.5476 59.8896 87.6816C63.9809 81.874 64.8087 69.223 64.267 60.7327C74.66 66.3496 84.8579 68.9933 96.3604 68.6249L96.3561 68.6293Z" fill="#FFD3B6"/>
<path d="M115.806 103.878C113.297 129.063 119.967 213 119.967 213H64.9332C64.9332 213 59.4203 129.162 47.4454 102.998C50.9213 103.574 71.3086 112.58 87.3185 111.28C94.2746 110.712 110.198 107.817 115.81 103.882L115.806 103.878Z" fill="#F5F5F5"/>
<path d="M99.8838 175.632V213H126.326L124.029 98.9196L99.8838 86.2903V175.632Z" fill="#ED9129"/>
<path d="M78.2084 213C78.0784 211.648 78.2084 171.922 78.2084 171.922L59.8841 87.6858L13.2067 101.789L33.1605 196.162L28.6921 213H78.2084Z" fill="#ED9129"/>
<path d="M112.825 180.282C114.758 180.885 116.483 181.171 118.138 182.358C119.608 183.411 121.203 183.645 122.884 184.2C126.373 185.353 129.736 186.688 133.295 187.633C137.173 188.664 149.482 162.023 153.37 161.247C153.617 161.199 152.065 155.136 145.46 140.608C142.925 135.026 130.607 108.268 130.607 108.268C130.031 105.559 128.622 103.102 126.572 101.238L124.024 98.9194L114.394 141.48L112.89 151.998L112.717 180.252C112.751 180.26 112.786 180.269 112.816 180.278L112.825 180.282Z" fill="#ED9129"/>
<path d="M85.9789 50.6775C86.0309 51.2106 86.174 51.7176 86.2476 52.2464C86.2346 52.151 86.2216 52.0557 86.2086 51.9603C86.2303 52.138 86.239 52.3157 86.2173 52.4978C86.2303 52.4024 86.2433 52.3071 86.2563 52.2117C86.239 52.3114 86.213 52.4067 86.174 52.4978C86.2086 52.4111 86.2476 52.3244 86.2823 52.2377C86.2433 52.3201 86.2 52.3937 86.1436 52.4631C86.2 52.3894 86.2563 52.3157 86.3127 52.2421C86.2476 52.3201 86.1783 52.3851 86.1003 52.4501C86.174 52.3937 86.2476 52.3374 86.3213 52.2811C86.213 52.3591 86.1003 52.4241 85.9746 52.4761C86.0613 52.4414 86.148 52.4024 86.2346 52.3677C85.9529 52.4848 85.6582 52.5758 85.3852 52.7101C85.1338 52.8315 84.9258 53.0308 84.7091 53.1999C84.7827 53.1435 84.8564 53.0872 84.9301 53.0308C84.8348 53.1045 84.7394 53.1695 84.6311 53.2215C84.7177 53.1869 84.8044 53.1479 84.8911 53.1132C84.8304 53.1392 84.7741 53.1522 84.7091 53.1609C84.8044 53.1479 84.8998 53.1349 84.9951 53.1219C84.9778 53.1219 84.9648 53.1219 84.9474 53.1219C84.384 53.1479 83.8379 53.5986 83.8639 54.2054C83.8899 54.7688 84.3407 55.3192 84.9474 55.2889C85.2725 55.2715 85.5759 55.1935 85.8533 55.0202C86.0656 54.8901 86.252 54.7211 86.447 54.5694C86.3733 54.6258 86.2997 54.6821 86.226 54.7384C86.3387 54.6518 86.4557 54.5868 86.5857 54.5304C86.499 54.5651 86.4123 54.6041 86.3257 54.6388C86.5294 54.5564 86.7374 54.4827 86.9411 54.3961C87.2185 54.279 87.4438 54.1404 87.6779 53.941C88.0116 53.6593 88.263 53.2259 88.341 52.7968C88.4233 52.3331 88.3887 51.917 88.302 51.4533C88.2456 51.1412 88.1676 50.8378 88.1199 50.5258C88.1329 50.6211 88.1459 50.7165 88.159 50.8118C88.1546 50.7641 88.146 50.7165 88.1416 50.6688C88.1156 50.3741 88.0376 50.1184 87.8252 49.9017C87.6389 49.7153 87.3268 49.5723 87.0581 49.5853C86.5164 49.6113 85.9183 50.0664 85.9746 50.6688L85.9789 50.6775Z" fill="#FFBD91"/>
<path d="M32.2725 98.9197C23.7995 98.3433 18.1782 94.9064 13.2071 101.789C8.70405 108.025 4.50005 130.021 3.22151 137.605C0.443399 154.118 -2.18302 164.173 2.80978 178.791C4.16199 182.922 10.1169 187.971 16.7437 188.881C25.2167 190.043 30.7426 184.595 32.9139 176.993C34.2705 172.243 35.7397 166.34 36.0908 161.412C37.4993 141.688 38.0107 121.903 37.612 102.131C34.9206 101.815 39.766 99.4268 32.2682 98.9154L32.2725 98.9197Z" fill="#ED9129"/>
<path d="M8.99375 127.156C8.99375 127.156 10.6493 118.857 8.69036 112.256C7.18646 107.189 4.69439 101.36 4.36067 94.7638C4.313 93.7887 4.75507 92.8482 5.55686 92.2891L9.70453 89.3853L11.1348 86.8802C12.0492 85.2723 13.6138 84.1368 15.4298 83.7641L15.7158 83.7077L16.8903 81.8441C17.8265 80.5742 19.3391 79.8678 20.9123 79.9631C20.9123 79.9631 19.5644 69.7782 18.6716 62.2456C18.2902 59.0124 19.3781 56.4727 21.012 56.0523C22.6156 55.6406 24.3969 56.6634 25.1207 60.1653C26.7156 67.8842 28.5489 78.5156 28.5489 78.5156L29.563 84.4575L32.8872 88.3885C33.832 89.5067 34.3825 90.9022 34.4561 92.3628L34.8809 100.875C34.9112 101.438 34.8549 102.006 34.7162 102.556C34.3175 104.151 33.4073 107.502 32.6012 108.373C32.4148 108.576 32.1331 108.884 31.7951 109.252C29.069 112.26 27.9074 116.365 28.6529 120.356L29.8621 126.84L8.99375 127.161V127.156Z" fill="#FFD3B6"/>
<path d="M13.3707 103.865C12.6165 103.865 11.052 103.163 8.00946 96.8224L6.1415 96.5797C5.54774 96.5017 5.13167 95.96 5.20535 95.3662C5.28336 94.7724 5.82512 94.3564 6.41888 94.4301L8.87627 94.7508C9.24466 94.7984 9.56105 95.0281 9.71707 95.3662C11.052 98.2093 12.6555 100.883 13.4183 101.581C13.6047 101.243 13.5917 100.259 13.583 99.4445C13.583 99.2235 13.5787 98.9938 13.5787 98.7641C13.5787 97.5982 11.455 93.5502 9.94677 91.0495C9.63906 90.5381 9.80375 89.8707 10.3152 89.5629C10.8266 89.2552 11.494 89.4199 11.8017 89.9313C12.4605 91.0235 15.7457 96.5797 15.7457 98.7641C15.7457 98.9851 15.7457 99.2061 15.75 99.4228C15.7717 101.208 15.7934 103.432 13.6914 103.835C13.6047 103.852 13.5007 103.87 13.375 103.87L13.3707 103.865Z" fill="#FFBD91"/>
<path d="M18.5976 102.296C16.2745 102.296 14.1032 99.8261 13.8432 99.5184C13.4574 99.0633 13.5094 98.3785 13.9688 97.9928C14.4239 97.6071 15.1087 97.6591 15.4944 98.1185C16.1315 98.8639 17.7828 100.338 18.8013 100.112C19.3864 99.9821 19.434 98.3829 18.9356 95.3664L18.875 94.9893C18.6149 93.3597 16.3222 87.0364 15.4597 84.735C15.2517 84.1759 15.5334 83.5518 16.0968 83.3395C16.6559 83.1314 17.28 83.4131 17.4924 83.9722C17.8175 84.839 20.6736 92.5059 21.016 94.6426L21.0766 95.011C21.4797 97.4684 22.1558 101.581 19.2737 102.223C19.0483 102.275 18.8229 102.296 18.5976 102.296Z" fill="#FFBD91"/>
<path d="M24.2756 99.7955C23.9722 99.7955 23.6688 99.7565 23.3698 99.6742C21.7879 99.2494 20.6567 97.8929 19.9892 96.8267C19.6729 96.3196 19.8246 95.6522 20.3316 95.3315C20.8387 95.0151 21.5062 95.1668 21.8269 95.6739C22.4683 96.701 23.2354 97.3945 23.9289 97.5808C24.436 97.7152 24.8564 97.5245 25.1164 97.3381C25.5931 97.0001 25.9269 96.4193 25.9745 95.8516C26.0222 95.2535 26.5466 94.8114 27.1404 94.8547C27.7385 94.9024 28.1806 95.4225 28.1372 96.0206C28.0419 97.2385 27.3831 98.3913 26.3733 99.1064C25.7318 99.5615 25.0124 99.7912 24.2799 99.7912L24.2756 99.7955Z" fill="#FFBD91"/>
<path d="M23.8982 87.5609C23.4561 87.5609 23.0401 87.2879 22.8797 86.8458C22.6153 86.1134 22.2296 85.1035 21.8439 84.0937C21.4538 83.0709 21.0638 82.0437 20.7951 81.3069C20.5914 80.7435 20.8817 80.1237 21.4452 79.9201C22.0086 79.7164 22.6283 80.0067 22.832 80.5702C23.0964 81.3026 23.4821 82.3124 23.8679 83.3266C24.2579 84.3494 24.648 85.3723 24.9167 86.109C25.1204 86.6725 24.83 87.2922 24.2666 87.4959C24.1453 87.5393 24.0196 87.5609 23.8982 87.5609Z" fill="#FFBD91"/>
<path d="M21.1729 106.089C21.0342 106.089 20.8912 106.063 20.7525 106.002C20.2021 105.772 19.9421 105.135 20.1718 104.585C21.7537 100.819 25.676 98.2484 27.0022 97.464L27.3099 96.1291C25.2556 95.8604 21.602 95.1366 20.5098 93.3423C19.6473 91.9251 19.409 90.3258 19.877 89.0603C20.2238 88.1285 20.9215 87.4524 21.849 87.1533C23.6086 86.5856 29.7976 87.8901 31.6526 88.3019C32.2377 88.4319 32.6061 89.0126 32.4761 89.5934C32.346 90.1785 31.7696 90.5469 31.1845 90.4169C27.6436 89.6281 23.3183 88.9563 22.5165 89.2163C22.2218 89.3117 22.0267 89.5067 21.9097 89.8144C21.6713 90.4515 21.8447 91.3703 22.3604 92.2111C22.9369 93.1603 26.4301 93.9144 28.7271 94.0964C29.0435 94.1224 29.3296 94.2828 29.5159 94.5385C29.7023 94.7942 29.7673 95.1149 29.6979 95.4227L29.0045 98.4131C28.9352 98.7208 28.7358 98.9766 28.4584 99.1239C28.4107 99.1499 23.7473 101.668 22.1697 105.417C21.9964 105.833 21.5933 106.08 21.1686 106.08L21.1729 106.089Z" fill="#FFBD91"/>
<path d="M35.4313 119.563C24.2278 123.229 15.9585 125.431 8.83339 116.035C2.8611 130.623 -1.84132 152.974 1.11449 170.253C4.31733 188.968 24.2582 186.471 33.377 179.333C43.4883 171.415 37.3209 131.256 35.4313 119.563Z" fill="#ED9129"/>
<path d="M107.772 31.4216C107.772 31.4216 104.482 15.6977 101.808 11.1426C100.053 8.15651 94.2539 3.44976 90.895 2.61762C81.6896 0.333592 59.7247 8.19551 54.6929 13.9251C49.6611 19.6547 55.7547 41.7452 55.7547 41.7452C55.7547 41.7452 61.0813 39.4872 64.7782 36.5227C73.2209 29.7573 74.3997 17.2883 81.7242 15.6327C88.4376 14.1158 94.2452 18.8572 94.2452 18.8572C94.2452 18.8572 99.5761 19.893 105.501 41.2641C106.905 37.0384 107.776 31.4172 107.776 31.4172L107.772 31.4216Z" fill="#024BA2"/>
<path d="M61.7576 186.882L90.7002 107.808C90.9256 107.188 91.6017 106.859 92.2301 107.058L142.483 123.194L112.89 203.148L62.5637 188.482C61.8789 188.282 61.5105 187.546 61.7533 186.878L61.7576 186.882Z" fill="#CCCCCC"/>
<path d="M112.828 203.126L142.417 123.172L145.459 129.028L117.687 204.903L112.828 203.126Z" fill="#CCCCCC"/>
<path d="M92.2966 109.773L144.446 128.857C144.975 129.05 145.249 129.64 145.055 130.169L115.611 210.63L61.54 190.843L90.9846 110.382C91.1782 109.853 91.7675 109.579 92.2966 109.773Z" fill="#F5F5F5"/>
<path d="M101.906 152.133L94.0831 141.229L81.9348 140.609L71.5895 140.826C71.5895 140.826 69.6869 141.528 69.5005 143.157C69.2708 145.173 70.2113 146.096 70.2113 146.096C70.2113 146.096 67.3899 145.823 67.0128 148.566C66.6444 151.24 69.1451 152.484 69.1451 152.484C69.1451 152.484 67.5415 152.714 67.0171 154.69C66.2413 157.611 69.3012 158.76 69.3012 158.76C69.3012 158.76 67.9186 159.041 67.3595 160.814C67.1601 161.447 67.3985 162.175 67.7886 162.851C68.56 164.186 69.8256 165.161 71.2905 165.642L78.758 168.208L97.7757 171.528C100.086 171.74 102.144 173.084 103.263 175.116L106.032 180.14L119.78 161.56L104.346 154.183C103.371 153.715 102.53 153.013 101.897 152.133H101.906Z" fill="#FFD3B6"/>
<path d="M93.6153 140.449C93.1082 139.686 92.3758 139.101 91.5176 138.776C88.9822 137.809 83.582 135.738 82.6806 135.248C81.4974 134.602 79.7681 134.745 78.1168 135.465C76.4656 136.184 71.9755 135.954 71.4034 136.591C70.8313 137.229 71.022 138.62 72.2096 139.547C73.3971 140.475 76.7213 140.531 78.975 140.674C81.2287 140.817 85.2593 142.447 85.2593 142.447L92.9912 145.667L95.622 143.465L93.611 140.453L93.6153 140.449Z" fill="#FFD3B6"/>
<path d="M78.2809 148.228C78.2375 148.228 78.1898 148.228 78.1422 148.22L70.0679 147.192C69.4741 147.119 69.0537 146.573 69.1274 145.983C69.2011 145.39 69.7385 144.969 70.3409 145.043L78.4152 146.07C79.009 146.144 79.4294 146.69 79.3557 147.279C79.2864 147.825 78.8183 148.228 78.2809 148.228Z" fill="#FFBD91"/>
<path d="M75.6203 154.443C75.577 154.443 75.538 154.443 75.4946 154.435L69.1496 153.698C68.5559 153.629 68.1311 153.091 68.1961 152.497C68.2655 151.904 68.8029 151.479 69.3967 151.548L75.7417 152.285C76.3354 152.354 76.7602 152.892 76.6952 153.485C76.6302 154.036 76.1621 154.443 75.6203 154.443Z" fill="#FFBD91"/>
<path d="M75.2042 161.365C75.1175 161.365 75.0309 161.356 74.9398 161.33L68.9155 159.822C68.3348 159.679 67.9837 159.089 68.1268 158.508C68.2741 157.928 68.8592 157.577 69.44 157.72L75.4643 159.228C76.045 159.375 76.3961 159.96 76.253 160.541C76.1317 161.035 75.6896 161.36 75.2042 161.36V161.365Z" fill="#FFBD91"/>
<path d="M89.3984 142.009C89.3984 142.009 89.3638 142.009 89.3464 142.009C88.6443 141.979 86.8977 141.558 86.2779 141.406L76.6304 141.849C76.0106 141.866 75.5252 141.415 75.4992 140.817C75.4732 140.219 75.9326 139.712 76.5307 139.686L86.3343 139.235C86.4383 139.235 86.5466 139.239 86.6463 139.265C87.5608 139.495 89.0344 139.825 89.4461 139.842C90.0442 139.868 90.5079 140.375 90.4776 140.973C90.4516 141.554 89.9705 142.009 89.3941 142.009H89.3984Z" fill="#FFBD91"/>
<path d="M108.035 152.623L99.3624 176.733C99.3624 176.733 128.322 192.868 145.459 189.865C153.785 188.409 156.177 171.753 153.369 161.243C150.56 150.733 121.141 155.158 108.03 152.618L108.035 152.623Z" fill="#ED9129"/>
<path d="M115.513 210.664C115.387 210.664 115.257 210.642 115.136 210.595L64.1763 191.599C63.6172 191.391 63.3312 190.767 63.5392 190.203C63.7473 189.644 64.3714 189.358 64.9348 189.566L114.876 208.181L121.685 189.514C121.888 188.951 122.512 188.665 123.076 188.868C123.639 189.072 123.925 189.696 123.722 190.26L116.54 209.949C116.44 210.222 116.237 210.439 115.977 210.56C115.834 210.625 115.678 210.66 115.522 210.66L115.513 210.664Z" fill="#CCCCCC"/>
<path d="M135.658 153.637C135.523 153.637 135.389 153.611 135.255 153.559C134.7 153.338 134.427 152.705 134.652 152.15L143.585 129.821C143.806 129.267 144.438 128.998 144.993 129.219C145.548 129.44 145.821 130.073 145.596 130.628L136.663 152.956C136.494 153.381 136.087 153.637 135.658 153.637Z" fill="#CCCCCC"/>
</g>
<defs>
<clipPath id="clip0_707_3489">
<rect width="154.499" height="213" fill="white"/>
</clipPath>
</defs>
</svg>
