<svg width="276" height="260" viewBox="0 0 276 260" fill="none" xmlns="http://www.w3.org/2000/svg">
<path d="M158.139 212.586V240.374C158.139 245.718 153.781 250.09 148.358 250.09H19.4647C14.1386 250.09 9.68394 245.718 9.68394 240.374V110.957C9.68394 105.613 14.0417 101.241 19.4647 101.241H45.3208L42.7062 91.5245H19.4647C8.71555 91.5245 0 100.269 0 111.054V240.471C0 251.256 8.71555 260 19.4647 260H148.455C159.204 260 167.92 251.256 167.92 240.471V210.06L158.139 212.683V212.586Z" fill="white" fill-opacity="0.1"/>
<path d="M148.455 101.24H45.3207L80.6671 233.378L158.235 212.489V110.956C158.235 105.613 153.878 101.24 148.455 101.24Z" fill="white" fill-opacity="0.1"/>
<path d="M167.92 110.957V209.865L233.577 192.182L192.614 38.7667L39.7045 79.8654L42.8033 91.3302H148.552C159.301 91.3302 168.017 100.075 168.017 110.859L167.92 110.957Z" fill="white" fill-opacity="0.1"/>
<path fill-rule="evenodd" clip-rule="evenodd" d="M206.268 34.589C206.268 15.5456 221.665 0 240.743 0C259.723 0 275.218 15.5456 275.218 34.589C275.218 53.6324 259.82 69.178 240.743 69.178C239.097 69.178 237.547 68.9836 235.998 68.7893C232.899 72.4814 227.863 76.7564 219.438 79.8656C217.017 80.74 216.436 79.5741 217.017 78.9911C220.213 75.9792 223.021 70.8297 223.699 64.6114C213.337 58.6847 206.268 47.5113 206.268 34.589ZM256.721 24.1928C257.205 23.8041 257.98 23.9013 258.368 24.3871H258.174C258.658 24.8729 258.174 26.0388 258.174 26.0388L237.063 47.2197C236.772 47.5112 236.482 47.6083 236.191 47.6083C235.901 47.6083 235.32 47.2197 235.32 47.2197L222.15 34.0059C221.762 33.6173 221.665 32.9372 222.053 32.4514C222.44 31.9656 223.118 31.7712 223.602 32.0627L235.901 38.3781L256.721 24.1928Z" fill="white" fill-opacity="0.1"/>
</svg>
