<svg width="374" height="875" fill="none" xmlns="http://www.w3.org/2000/svg"><mask id="a" style="mask-type:alpha" maskUnits="userSpaceOnUse" x="-1" y="0" width="375" height="875"><path fill="#296894" d="M-1 0h375v875H-1z"/></mask><g mask="url(#a)" fill="#EAF1F6"><path d="M-1 101h375v527H-1z"/><path fill-rule="evenodd" clip-rule="evenodd" d="M356.15 295.144c62.113 35.753 94.112 103.95 113.363 172.984 19.495 69.91 20.241 141.965-6.75 209.338-32.128 80.194-70.59 177.919-155.263 195.059-83.749 16.953-142.932-74.759-215.404-120.026-67.86-42.387-154.302-60.511-189.032-132.592-40.292-83.621-58.873-193.042-3.906-267.839 53.297-72.522 161.368-56.827 250.678-67.952 71.045-8.85 144.265-24.688 206.314 11.028z"/><path fill-rule="evenodd" clip-rule="evenodd" d="M183.288 0c71.668-.093 133.479 42.967 184.667 93.127 51.839 50.797 88.512 112.825 98.823 184.667 12.274 85.514 27.827 189.377-36.932 246.558-64.052 56.556-161.162 6.722-246.558 3.756-79.963-2.778-163.885 24.747-230.003-20.311-76.703-52.273-147.506-137.744-137.301-230.003C-174.121 188.339-72.682 147.896-.899 93.606 56.203 50.42 111.694.093 183.288 0z"/></g></svg>