<svg width="54" height="54" viewBox="0 0 54 54" fill="none" xmlns="http://www.w3.org/2000/svg">
<path d="M27 1C41.3594 1 53 12.6406 53 27C53 41.3594 41.3594 53 27 53C12.6406 53 1 41.3594 1 27C1 12.6406 12.6406 1 27 1Z" fill="white" stroke="#ED9025" stroke-width="2"/>
<path d="M35.4134 19.8561L22.718 32.5515C22.0583 33.2113 22.0583 34.2809 22.718 34.9406C23.3777 35.6004 24.4473 35.6004 25.1071 34.9406L37.8025 22.2452C38.4622 21.5855 38.4622 20.5158 37.8025 19.8561C37.1428 19.1964 36.0731 19.1964 35.4134 19.8561Z" fill="#ED9025"/>
<path d="M23.9428 31.3823L18.5852 26.0246C17.9254 25.3649 16.8558 25.3649 16.1961 26.0246C15.5363 26.6844 15.5363 27.754 16.1961 28.4137L21.5537 33.7714C22.2135 34.4311 23.2831 34.4311 23.9428 33.7714C24.6025 33.1116 24.6025 32.042 23.9428 31.3823Z" fill="#ED9025"/>
</svg>
