<svg width="51" height="20" viewBox="0 0 51 20" fill="none" xmlns="http://www.w3.org/2000/svg">
<rect width="51" height="20" rx="10" fill="#0075C2"/>
<path d="M12.2401 14.6761C11.3954 14.6761 10.6681 14.4848 10.0582 14.1023C9.45218 13.7159 8.98627 13.1837 8.66051 12.5057C8.33475 11.8277 8.17188 11.0511 8.17188 10.1761C8.17188 9.28977 8.33854 8.50758 8.67188 7.82955C9.00521 7.14773 9.47491 6.61553 10.081 6.23295C10.687 5.85038 11.401 5.65909 12.223 5.65909C12.8859 5.65909 13.4768 5.7822 13.9957 6.02841C14.5147 6.27083 14.9332 6.61174 15.2514 7.05114C15.5734 7.49053 15.7647 8.00379 15.8253 8.59091H14.1719C14.081 8.18182 13.8726 7.82955 13.5469 7.53409C13.2249 7.23864 12.7931 7.09091 12.2514 7.09091C11.7779 7.09091 11.3632 7.21591 11.0071 7.46591C10.6548 7.71212 10.3802 8.06439 10.1832 8.52273C9.98627 8.97727 9.88778 9.51515 9.88778 10.1364C9.88778 10.7727 9.98438 11.322 10.1776 11.7841C10.3707 12.2462 10.6435 12.6042 10.9957 12.858C11.3518 13.1117 11.7704 13.2386 12.2514 13.2386C12.5734 13.2386 12.8651 13.1799 13.1264 13.0625C13.3916 12.9413 13.6132 12.7689 13.7912 12.5455C13.973 12.322 14.0999 12.053 14.1719 11.7386H15.8253C15.7647 12.303 15.581 12.8068 15.2741 13.25C14.9673 13.6932 14.5563 14.0417 14.0412 14.2955C13.5298 14.5492 12.9295 14.6761 12.2401 14.6761ZM20.1818 14.6932C19.6288 14.6932 19.1288 14.5909 18.6818 14.3864C18.2348 14.178 17.8807 13.8769 17.6193 13.483C17.3617 13.089 17.233 12.6061 17.233 12.0341C17.233 11.5417 17.3277 11.1364 17.517 10.8182C17.7064 10.5 17.9621 10.2481 18.2841 10.0625C18.6061 9.87689 18.9659 9.73674 19.3636 9.64205C19.7614 9.54735 20.1667 9.47538 20.5795 9.42614C21.1023 9.36553 21.5265 9.31629 21.8523 9.27841C22.178 9.23674 22.4148 9.17045 22.5625 9.07955C22.7102 8.98864 22.7841 8.84091 22.7841 8.63636V8.59659C22.7841 8.10038 22.6439 7.71591 22.3636 7.44318C22.0871 7.17045 21.6742 7.03409 21.125 7.03409C20.553 7.03409 20.1023 7.16098 19.7727 7.41477C19.447 7.66477 19.2216 7.94318 19.0966 8.25L17.5 7.88636C17.6894 7.35606 17.9659 6.92803 18.3295 6.60227C18.697 6.27273 19.1193 6.03409 19.5966 5.88636C20.0739 5.73485 20.5758 5.65909 21.1023 5.65909C21.4508 5.65909 21.8201 5.70076 22.2102 5.78409C22.6042 5.86364 22.9716 6.01136 23.3125 6.22727C23.6572 6.44318 23.9394 6.75189 24.1591 7.15341C24.3788 7.55114 24.4886 8.06818 24.4886 8.70455V14.5H22.8295V13.3068H22.7614C22.6515 13.5265 22.4867 13.7424 22.267 13.9545C22.0473 14.1667 21.7652 14.3428 21.4205 14.483C21.0758 14.6231 20.6629 14.6932 20.1818 14.6932ZM20.5511 13.3295C21.0208 13.3295 21.4223 13.2367 21.7557 13.0511C22.0928 12.8655 22.3485 12.6231 22.5227 12.3239C22.7008 12.0208 22.7898 11.697 22.7898 11.3523V10.2273C22.7292 10.2879 22.6117 10.3447 22.4375 10.3977C22.267 10.447 22.072 10.4905 21.8523 10.5284C21.6326 10.5625 21.4186 10.5947 21.2102 10.625C21.0019 10.6515 20.8277 10.6742 20.6875 10.6932C20.358 10.7348 20.0568 10.8049 19.7841 10.9034C19.5152 11.0019 19.2992 11.1439 19.1364 11.3295C18.9773 11.5114 18.8977 11.7538 18.8977 12.0568C18.8977 12.4773 19.053 12.7955 19.3636 13.0114C19.6742 13.2235 20.0701 13.3295 20.5511 13.3295ZM33.2912 7.90341L31.7514 8.17614C31.687 7.97917 31.5848 7.79167 31.4446 7.61364C31.3082 7.43561 31.1226 7.28977 30.8878 7.17614C30.6529 7.0625 30.3594 7.00568 30.0071 7.00568C29.526 7.00568 29.1245 7.11364 28.8026 7.32955C28.4806 7.54167 28.3196 7.81629 28.3196 8.15341C28.3196 8.44508 28.4276 8.67992 28.6435 8.85795C28.8594 9.03598 29.2079 9.18182 29.6889 9.29545L31.0753 9.61364C31.8783 9.79924 32.4768 10.0852 32.8707 10.4716C33.2647 10.858 33.4616 11.3598 33.4616 11.9773C33.4616 12.5 33.3101 12.9659 33.0071 13.375C32.7079 13.7803 32.2893 14.0985 31.7514 14.3295C31.2173 14.5606 30.598 14.6761 29.8935 14.6761C28.9162 14.6761 28.1188 14.4678 27.5014 14.0511C26.884 13.6307 26.5052 13.0341 26.3651 12.2614L28.0071 12.0114C28.1094 12.4394 28.3196 12.7633 28.6378 12.983C28.956 13.1989 29.3707 13.3068 29.8821 13.3068C30.4389 13.3068 30.884 13.1913 31.2173 12.9602C31.5507 12.7254 31.7173 12.4394 31.7173 12.1023C31.7173 11.8295 31.6151 11.6004 31.4105 11.4148C31.2098 11.2292 30.901 11.089 30.4844 10.9943L29.0071 10.6705C28.1927 10.4848 27.5904 10.1894 27.2003 9.78409C26.8139 9.37879 26.6207 8.86553 26.6207 8.24432C26.6207 7.72917 26.7647 7.27841 27.0526 6.89205C27.3404 6.50568 27.7382 6.20455 28.2457 5.98864C28.7533 5.76894 29.3348 5.65909 29.9901 5.65909C30.9332 5.65909 31.6757 5.86364 32.2173 6.27273C32.759 6.67803 33.117 7.22159 33.2912 7.90341ZM39.0909 14.6761C38.2311 14.6761 37.4905 14.4924 36.8693 14.125C36.2519 13.7538 35.7746 13.233 35.4375 12.5625C35.1042 11.8883 34.9375 11.0985 34.9375 10.1932C34.9375 9.29924 35.1042 8.51136 35.4375 7.82955C35.7746 7.14773 36.2443 6.61553 36.8466 6.23295C37.4527 5.85038 38.161 5.65909 38.9716 5.65909C39.464 5.65909 39.9413 5.74053 40.4034 5.90341C40.8655 6.06629 41.2803 6.32197 41.6477 6.67045C42.0152 7.01894 42.3049 7.47159 42.517 8.02841C42.7292 8.58144 42.8352 9.25379 42.8352 10.0455V10.6477H35.8977V9.375H41.1705C41.1705 8.92803 41.0795 8.5322 40.8977 8.1875C40.7159 7.83902 40.4602 7.56439 40.1307 7.36364C39.8049 7.16288 39.4223 7.0625 38.983 7.0625C38.5057 7.0625 38.089 7.17992 37.733 7.41477C37.3807 7.64583 37.108 7.94886 36.9148 8.32386C36.7254 8.69508 36.6307 9.09848 36.6307 9.53409V10.5284C36.6307 11.1117 36.733 11.608 36.9375 12.017C37.1458 12.4261 37.4356 12.7386 37.8068 12.9545C38.178 13.1667 38.6117 13.2727 39.108 13.2727C39.4299 13.2727 39.7235 13.2273 39.9886 13.1364C40.2538 13.0417 40.483 12.9015 40.6761 12.7159C40.8693 12.5303 41.017 12.3011 41.1193 12.0284L42.7273 12.3182C42.5985 12.7917 42.3674 13.2064 42.0341 13.5625C41.7045 13.9148 41.2898 14.1894 40.7898 14.3864C40.2936 14.5795 39.7273 14.6761 39.0909 14.6761Z" fill="white"/>
</svg>
