<svg width="22" height="22" viewBox="0 0 22 22" fill="none" xmlns="http://www.w3.org/2000/svg">
<path d="M11 22C17.0751 22 22 17.0751 22 11C22 4.92487 17.0751 0 11 0C4.92487 0 0 4.92487 0 11C0 17.0751 4.92487 22 11 22Z" fill="#0075C2"/>
<path d="M14.4131 14.5884V16.5H7.19873C7.27686 15.7773 7.51123 15.0938 7.90186 14.4492C8.29248 13.7998 9.06396 12.9404 10.2163 11.8711C11.144 11.0068 11.7129 10.4209 11.9229 10.1133C12.2061 9.68848 12.3477 9.26855 12.3477 8.85352C12.3477 8.39453 12.2231 8.04297 11.9741 7.79883C11.73 7.5498 11.3906 7.42529 10.9561 7.42529C10.5264 7.42529 10.1846 7.55469 9.93066 7.81348C9.67676 8.07227 9.53027 8.50195 9.49121 9.10254L7.44043 8.89746C7.5625 7.76465 7.9458 6.95166 8.59033 6.4585C9.23486 5.96533 10.0405 5.71875 11.0073 5.71875C12.0669 5.71875 12.8994 6.00439 13.5049 6.57568C14.1104 7.14697 14.4131 7.85742 14.4131 8.70703C14.4131 9.19043 14.3252 9.65186 14.1494 10.0913C13.9785 10.5259 13.7051 10.9824 13.3291 11.4609C13.0801 11.7783 12.6309 12.2349 11.9814 12.8306C11.332 13.4263 10.9194 13.8218 10.7437 14.0171C10.5728 14.2124 10.4336 14.4028 10.3262 14.5884H14.4131Z" fill="white"/>
</svg>
