<svg width="160" height="40" viewBox="0 0 160 40" fill="none" xmlns="http://www.w3.org/2000/svg">
<rect width="160" height="40" rx="4" fill="white"/>
<path d="M59.504 16.488H72.524V18.112H59.504V16.488ZM62.402 23.754H72.02V25.364H62.402V23.754ZM65.86 20.324H69.458V21.892H65.86V20.324ZM61.52 13.534H63.256V26.26H61.52V13.534ZM65.16 13.24H66.854V22.466H65.16V13.24ZM68.73 13.38H70.424V22.438H68.73V13.38ZM76.696 17.202V18.224H83.304V17.202H76.696ZM76.696 14.948V15.942H83.304V14.948H76.696ZM75.016 13.59H85.054V19.568H75.016V13.59ZM81.918 18.686C82.842 19.946 84.662 20.982 86.622 21.472C86.244 21.808 85.74 22.466 85.502 22.9C83.444 22.228 81.624 20.884 80.504 19.204L81.918 18.686ZM78.096 18.672L79.58 19.246C78.446 20.87 76.556 22.242 74.568 22.956C74.316 22.536 73.812 21.906 73.448 21.57C75.338 21.038 77.172 19.932 78.096 18.672ZM77.102 21.234H78.838V22.2C78.838 23.544 78.432 25.336 75.632 26.358C75.408 25.938 74.848 25.308 74.484 24.986C76.822 24.23 77.102 23.04 77.102 22.144V21.234ZM79.146 14.276H80.84V18.896H79.146V14.276ZM81.372 21.262H83.122V26.218H81.372V21.262ZM89.324 20.674H93.706V21.724H89.324V20.674ZM89.324 22.382H93.72V23.432H89.324V22.382ZM87.588 16.502H94V17.804H87.588V16.502ZM89.24 24.16H93.902V25.364H89.24V24.16ZM90.976 19.442H92.39V24.552H90.976V19.442ZM90.066 18.882H93.916V19.988H90.066V25.966H88.596V20.086L89.73 18.882H90.066ZM91.508 17.832L93.02 18.084C92.712 18.616 92.404 19.134 92.18 19.484L91.018 19.218C91.214 18.798 91.41 18.224 91.508 17.832ZM88.904 13.072L90.388 13.422C90.01 14.654 89.352 15.886 88.666 16.684C88.4 16.432 87.784 15.984 87.434 15.774C88.078 15.102 88.61 14.08 88.904 13.072ZM90.332 14.976L91.774 15.34C91.032 17.706 89.758 19.932 88.218 21.318C88.036 20.996 87.546 20.324 87.266 20.016C88.638 18.868 89.744 17.006 90.332 14.976ZM89.366 14.248H93.888V15.55H88.722L89.366 14.248ZM95.82 17.342V18.28H98.396V17.342H95.82ZM95.82 19.596V20.534H98.396V19.596H95.82ZM95.82 15.102V16.026H98.396V15.102H95.82ZM94.35 13.632H99.95V22.004H94.35V13.632ZM97.15 20.954H98.62V24.23C98.62 24.594 98.634 24.65 98.802 24.65C98.858 24.65 99.11 24.65 99.18 24.65C99.376 24.65 99.418 24.454 99.46 22.998C99.74 23.25 100.37 23.474 100.762 23.586C100.622 25.518 100.258 26.008 99.362 26.008C99.124 26.008 98.746 26.008 98.536 26.008C97.388 26.008 97.15 25.574 97.15 24.244V20.954ZM95.204 21.402H96.604C96.436 23.544 95.946 25.252 93.818 26.246C93.65 25.896 93.244 25.322 92.922 25.056C94.728 24.314 95.05 23.026 95.204 21.402Z" fill="#3681CC"/>
</svg>
