<svg width="160" height="40" viewBox="0 0 160 40" fill="none" xmlns="http://www.w3.org/2000/svg">
<rect width="160" height="40" rx="4" fill="white"/>
<path d="M57.488 20.576H64.824V26.19H63.228V22.102H59.014V26.246H57.488V20.576ZM63.718 13.114L65.006 14.43C62.948 15.214 60.106 15.648 57.628 15.872C57.558 15.466 57.334 14.808 57.152 14.43C59.532 14.192 62.164 13.73 63.718 13.114ZM60.358 14.682H61.954V21.458H60.358V14.682ZM56.606 17.188H65.538V18.798H56.606V17.188ZM58.58 24.16H63.886V25.672H58.58V24.16ZM53.162 14.5L54.1 13.296C54.884 13.688 56.102 14.304 56.704 14.696L55.71 16.054C55.15 15.634 53.96 14.962 53.162 14.5ZM52.476 18.378L53.386 17.132C54.184 17.51 55.43 18.112 56.046 18.504L55.108 19.89C54.534 19.498 53.316 18.826 52.476 18.378ZM52.686 24.958C53.442 23.908 54.52 22.158 55.36 20.548L56.592 21.654C55.85 23.138 54.954 24.734 54.114 26.092L52.686 24.958ZM68.94 14.052H77.536V15.648H68.94V14.052ZM68.94 17.272H77.564V18.84H68.94V17.272ZM68.912 20.576H77.62V22.158H68.912V20.576ZM67.974 14.052H69.64V19.092C69.64 21.318 69.36 24.468 67.638 26.344C67.372 26.022 66.686 25.462 66.322 25.252C67.848 23.558 67.974 21.052 67.974 19.078V14.052ZM76.948 14.052H78.614V24.286C78.614 25.182 78.418 25.63 77.858 25.896C77.27 26.162 76.43 26.19 75.156 26.176C75.086 25.728 74.834 25 74.61 24.566C75.408 24.622 76.332 24.608 76.584 24.608C76.85 24.594 76.948 24.51 76.948 24.272V14.052ZM72.286 14.682H73.994V26.092H72.286V14.682ZM86.09 13.114H87.798V24.664C87.798 25.49 87.588 25.826 87.056 26.064C86.51 26.274 85.754 26.302 84.564 26.302C84.48 25.91 84.214 25.322 84.004 24.986C84.676 25.014 85.502 25 85.74 25C86.006 24.986 86.09 24.902 86.09 24.664V13.114ZM80.84 14.024H93.16V15.354H80.84V14.024ZM83.878 16.978V17.65H90.066V16.978H83.878ZM82.282 15.914H91.788V18.714H82.282V15.914ZM81.932 19.33H92.026V24.804H90.318V20.478H81.932V19.33ZM80.518 21.066H93.482V22.34H80.518V21.066ZM81.82 22.998H91.228V24.216H81.82V22.998ZM98.354 13.73H103.338V15.2H98.354V13.73ZM99.768 16.712H102.148V18.168H99.306L99.768 16.712ZM98.9 20.562L99.614 19.302C100.174 19.68 100.874 20.24 101.196 20.618L100.454 22.032C100.146 21.612 99.46 20.996 98.9 20.562ZM103.24 14.738H104.724V22.942H103.24V14.738ZM105.592 13.38H107.146V24.356C107.146 25.252 106.978 25.686 106.474 25.952C105.956 26.218 105.172 26.274 104.066 26.274C103.996 25.826 103.772 25.098 103.548 24.636C104.318 24.664 105.032 24.664 105.284 24.664C105.508 24.65 105.592 24.58 105.592 24.356V13.38ZM99.39 14.248L100.986 14.472C100.58 17.034 99.852 20.086 98.298 21.906C98.074 21.57 97.612 21.01 97.304 20.73C98.606 19.162 99.166 16.39 99.39 14.248ZM101.518 16.712H101.812L102.078 16.656L103.044 16.95C102.54 21.514 101.07 24.692 98.914 26.26C98.69 25.882 98.186 25.224 97.864 24.972C99.88 23.6 101.126 20.884 101.518 17.034V16.712ZM96.926 13.128L98.48 13.59C97.682 16.04 96.394 18.686 94.966 20.352C94.826 19.946 94.42 18.98 94.154 18.546C95.288 17.216 96.324 15.172 96.926 13.128ZM95.82 16.978L97.318 15.48L97.36 15.508V26.246H95.82V16.978Z" fill="#3681CC"/>
</svg>
