<svg width="160" height="40" viewBox="0 0 160 40" fill="none" xmlns="http://www.w3.org/2000/svg">
<rect x="0.5" y="0.5" width="159" height="39" rx="3.5" stroke="white"/>
<path d="M33.184 15.06C33.716 15.116 34.43 15.158 34.92 15.158H41.976C42.382 15.158 42.956 15.13 43.194 15.116C43.18 15.452 43.152 15.998 43.152 16.418V23.67C43.152 24.16 43.194 24.888 43.222 25.322H41.192C41.206 24.902 41.22 24.398 41.22 23.88V16.964H34.92C34.332 16.964 33.576 16.992 33.184 17.02V15.06ZM33.016 22.662C33.492 22.704 34.122 22.746 34.752 22.746H42.326V24.594H34.808C34.262 24.594 33.478 24.622 33.016 24.678V22.662ZM46.274 18.518C46.792 18.56 47.8 18.616 48.528 18.616C50.18 18.616 54.8 18.616 56.046 18.616C56.704 18.616 57.32 18.546 57.698 18.518V20.73C57.362 20.716 56.648 20.646 56.06 20.646C54.786 20.646 50.18 20.646 48.528 20.646C47.744 20.646 46.806 20.688 46.274 20.73V18.518ZM66.028 24.692C66.098 24.426 66.14 24.048 66.14 23.67C66.14 22.928 66.14 16.642 66.14 15.508C66.14 14.878 66.042 14.332 66.042 14.304H68.114C68.114 14.332 68.016 14.892 68.016 15.522C68.016 16.642 68.016 21.976 68.016 22.83C69.164 22.34 70.536 21.234 71.488 19.876L72.552 21.43C71.39 22.942 69.388 24.454 67.806 25.252C67.512 25.406 67.344 25.56 67.204 25.658L66.028 24.692ZM59.546 24.496C60.792 23.628 61.548 22.34 61.926 21.136C62.332 19.946 62.346 17.286 62.346 15.606C62.346 15.032 62.29 14.668 62.206 14.318H64.264C64.264 14.374 64.166 15.004 64.166 15.578C64.166 17.244 64.124 20.198 63.76 21.612C63.326 23.18 62.458 24.566 61.254 25.63L59.546 24.496ZM74.764 15.074C75.324 15.088 75.856 15.102 76.234 15.102C77.256 15.102 82.94 15.102 83.948 15.102C84.298 15.102 84.816 15.102 85.334 15.088C85.306 15.508 85.306 16.012 85.306 16.446C85.306 17.3 85.306 22.452 85.306 23.306C85.306 23.852 85.32 25.196 85.334 25.252H83.388C83.388 25.196 83.43 24.104 83.43 23.334C83.43 22.522 83.43 16.894 83.43 16.894H76.654C76.654 16.894 76.654 22.508 76.654 23.334C76.654 24.006 76.668 25.182 76.668 25.252H74.75C74.75 25.182 74.778 23.95 74.778 23.278C74.778 22.438 74.778 17.258 74.778 16.446C74.778 16.04 74.778 15.48 74.764 15.074ZM84.116 22.704V24.482H75.702V22.704H84.116ZM97.906 13.534C98.256 14.052 98.746 14.934 99.012 15.452L97.892 15.942C97.598 15.368 97.164 14.528 96.786 13.996L97.906 13.534ZM99.558 12.904C99.922 13.436 100.44 14.318 100.692 14.808L99.572 15.284C99.278 14.71 98.83 13.884 98.452 13.366L99.558 12.904ZM99.152 16.614C98.998 16.894 98.802 17.272 98.69 17.622C98.312 18.868 97.514 20.744 96.254 22.298C94.924 23.922 93.23 25.21 90.598 26.246L88.946 24.776C91.816 23.908 93.37 22.69 94.588 21.304C95.54 20.212 96.352 18.532 96.576 17.496H91.858L92.502 15.9C93.132 15.9 96.058 15.9 96.506 15.9C96.94 15.9 97.402 15.844 97.724 15.732L99.152 16.614ZM94.588 14.402C94.266 14.892 93.902 15.536 93.734 15.83C92.796 17.524 91.116 19.498 89.114 20.87L87.532 19.708C89.996 18.21 91.214 16.404 91.914 15.2C92.124 14.864 92.418 14.206 92.544 13.73L94.588 14.402ZM106.488 20.576H113.824V26.19H112.228V22.102H108.014V26.246H106.488V20.576ZM112.718 13.114L114.006 14.43C111.948 15.214 109.106 15.648 106.628 15.872C106.558 15.466 106.334 14.808 106.152 14.43C108.532 14.192 111.164 13.73 112.718 13.114ZM109.358 14.682H110.954V21.458H109.358V14.682ZM105.606 17.188H114.538V18.798H105.606V17.188ZM107.58 24.16H112.886V25.672H107.58V24.16ZM102.162 14.5L103.1 13.296C103.884 13.688 105.102 14.304 105.704 14.696L104.71 16.054C104.15 15.634 102.96 14.962 102.162 14.5ZM101.476 18.378L102.386 17.132C103.184 17.51 104.43 18.112 105.046 18.504L104.108 19.89C103.534 19.498 102.316 18.826 101.476 18.378ZM101.686 24.958C102.442 23.908 103.52 22.158 104.36 20.548L105.592 21.654C104.85 23.138 103.954 24.734 103.114 26.092L101.686 24.958ZM121.104 16.46H122.84V20.198H121.104V16.46ZM117.016 17.132H127.11V18.518H117.016V17.132ZM115.602 19.316H128.412V20.744H115.602V19.316ZM116.12 21.57H127.992V22.998H116.12V21.57ZM123.876 20.548H125.612V24.524C125.612 25.336 125.43 25.756 124.828 26.008C124.24 26.232 123.442 26.26 122.392 26.26C122.308 25.784 122.028 25.112 121.79 24.692C122.504 24.72 123.33 24.72 123.568 24.706C123.806 24.706 123.876 24.664 123.876 24.482V20.548ZM117.38 14.122H121.846V15.494H117.38V14.122ZM122.938 14.122H128.328V15.494H122.938V14.122ZM117.492 13.002L119.088 13.436C118.5 14.822 117.548 16.222 116.638 17.104C116.316 16.824 115.63 16.376 115.238 16.166C116.162 15.396 117.002 14.192 117.492 13.002ZM123.148 13.002L124.758 13.394C124.254 14.752 123.386 16.082 122.518 16.908C122.196 16.628 121.51 16.18 121.132 15.97C122 15.27 122.756 14.136 123.148 13.002ZM117.912 15.186L119.27 14.654C119.62 15.186 120.026 15.9 120.18 16.376L118.738 16.964C118.612 16.502 118.248 15.746 117.912 15.186ZM124.016 15.214L125.374 14.668C125.794 15.186 126.312 15.9 126.536 16.39L125.108 16.978C124.912 16.516 124.436 15.76 124.016 15.214ZM117.982 23.572L119.2 22.62C119.998 23.18 120.964 24.006 121.398 24.636L120.096 25.686C119.704 25.042 118.78 24.174 117.982 23.572Z" fill="white"/>
</svg>
