<svg width="160" height="40" viewBox="0 0 160 40" fill="none" xmlns="http://www.w3.org/2000/svg">
<rect width="160" height="40" rx="4" fill="white"/>
<path d="M23.6363 15.536C23.4963 15.718 23.2303 16.054 23.1043 16.25C22.4463 17.342 21.1163 19.12 19.7303 20.1L18.2743 18.938C19.4083 18.252 20.5003 17.02 20.8643 16.334C20.0103 16.334 14.4383 16.334 13.5563 16.334C12.9823 16.334 12.5063 16.362 11.8483 16.432V14.472C12.3943 14.556 12.9823 14.626 13.5563 14.626C14.4383 14.626 20.3743 14.626 21.1023 14.626C21.4943 14.626 22.2643 14.57 22.5303 14.5L23.6363 15.536ZM17.9383 17.412C17.9383 20.884 17.8543 23.74 14.0463 25.798L12.4083 24.468C12.8703 24.314 13.3743 24.076 13.8923 23.684C15.6563 22.452 15.9923 20.982 15.9923 18.686C15.9923 18.238 15.9783 17.874 15.9083 17.412H17.9383ZM27.0937 14.36C28.0597 15.018 29.8797 16.474 30.7057 17.328L29.2777 18.784C28.5497 18 26.7857 16.474 25.7637 15.774L27.0937 14.36ZM25.3297 23.684C27.5277 23.376 29.3337 22.662 30.6917 21.864C33.0857 20.436 34.9057 18.308 35.8017 16.418L36.8797 18.378C35.8297 20.282 33.9677 22.214 31.7137 23.572C30.2857 24.426 28.4797 25.196 26.5197 25.532L25.3297 23.684ZM43.9917 14.038C43.8377 14.402 43.6557 14.878 43.5297 15.186C43.2917 15.886 42.8577 16.922 42.4937 17.636C41.9337 18.742 40.9817 20.086 40.0577 20.912L38.2937 19.848C39.3017 19.106 40.1977 17.846 40.7297 16.964C41.1077 16.32 41.3737 15.578 41.5417 15.046C41.6957 14.584 41.8077 14.052 41.8357 13.618L43.9917 14.038ZM41.7797 16.208C42.8997 16.208 48.2197 16.208 49.1857 16.208C49.5357 16.208 50.1797 16.18 50.6417 16.11V18.014C50.1097 17.972 49.5077 17.972 49.1857 17.972C48.2057 17.972 42.8997 17.972 41.6397 17.972L41.7797 16.208ZM47.2537 17.216C47.1557 21.346 45.6857 24.076 42.9837 25.77L41.0937 24.51C41.5977 24.3 42.0877 24.02 42.4097 23.74C44.0057 22.522 45.2517 20.59 45.3077 17.216H47.2537ZM52.9937 18.518C53.5117 18.56 54.5197 18.616 55.2477 18.616C56.8997 18.616 61.5197 18.616 62.7657 18.616C63.4237 18.616 64.0397 18.546 64.4177 18.518V20.73C64.0817 20.716 63.3677 20.646 62.7797 20.646C61.5057 20.646 56.8997 20.646 55.2477 20.646C54.4637 20.646 53.5257 20.688 52.9937 20.73V18.518ZM70.1017 23.67C70.1017 22.592 70.1017 16.796 70.1017 15.62C70.1017 15.116 70.0597 14.43 69.9617 13.926H72.1457C72.0897 14.43 72.0197 15.032 72.0197 15.62C72.0197 17.16 72.0337 22.634 72.0337 23.67C72.0337 24.062 72.0897 25.042 72.1597 25.616H69.9617C70.0597 25.07 70.1017 24.216 70.1017 23.67ZM71.6137 17.552C73.4757 18.07 76.4997 19.176 77.8717 19.848L77.0877 21.794C75.4917 20.968 73.1397 20.072 71.6137 19.568V17.552ZM82.3377 14.444C82.7857 14.5 83.3737 14.542 83.8357 14.542C84.7177 14.542 87.6017 14.542 88.4277 14.542C88.9037 14.542 89.4497 14.5 89.9257 14.444V16.25C89.4497 16.222 88.9037 16.194 88.4277 16.194C87.6017 16.194 84.7177 16.194 83.8497 16.194C83.3597 16.194 82.7717 16.222 82.3377 16.25V14.444ZM80.7277 18.014C81.1337 18.07 81.6237 18.112 82.0577 18.112C82.9397 18.112 90.4017 18.112 91.2277 18.112C91.5217 18.112 92.1377 18.084 92.5157 18.014V19.848C92.1657 19.82 91.6197 19.806 91.2277 19.806C90.4017 19.806 82.9397 19.806 82.0577 19.806C81.6517 19.806 81.1057 19.82 80.7277 19.848V18.014ZM87.8817 18.994C87.8817 20.828 87.5597 22.228 86.9717 23.404C86.4817 24.37 85.4037 25.462 84.1577 26.092L82.5057 24.902C83.4997 24.51 84.4937 23.712 85.0537 22.886C85.7537 21.836 85.9357 20.506 85.9357 19.008L87.8817 18.994ZM90.7657 13.478C91.1157 13.982 91.6197 14.878 91.8717 15.396L90.7517 15.872C90.4717 15.298 90.0377 14.472 89.6597 13.926L90.7657 13.478ZM92.4177 12.848C92.7817 13.366 93.2997 14.262 93.5517 14.752L92.4457 15.228C92.1517 14.64 91.7037 13.828 91.3117 13.296L92.4177 12.848ZM94.9937 18.518C95.5117 18.56 96.5197 18.616 97.2477 18.616C98.8997 18.616 103.52 18.616 104.766 18.616C105.424 18.616 106.04 18.546 106.418 18.518V20.73C106.082 20.716 105.368 20.646 104.78 20.646C103.506 20.646 98.8997 20.646 97.2477 20.646C96.4637 20.646 95.5257 20.688 94.9937 20.73V18.518ZM113.712 18.448C115.434 19.442 118.024 21.234 119.326 22.27L117.982 23.866C116.764 22.718 114.104 20.758 112.466 19.722L113.712 18.448ZM120.306 16.068C120.138 16.334 119.956 16.726 119.83 17.076C119.41 18.364 118.556 20.156 117.296 21.71C115.98 23.348 114.188 24.916 111.514 25.924L109.89 24.524C112.816 23.614 114.482 22.144 115.686 20.744C116.624 19.638 117.492 18.028 117.758 16.936H113.026L113.67 15.354H117.66C118.094 15.354 118.556 15.284 118.878 15.186L120.306 16.068ZM115.672 13.912C115.336 14.402 114.972 15.046 114.804 15.34C113.866 17.034 112.074 19.176 110.058 20.562L108.56 19.4C111.01 17.888 112.298 15.97 113.012 14.752C113.222 14.416 113.516 13.772 113.642 13.282L115.672 13.912ZM127.208 20.576H134.544V26.19H132.948V22.102H128.734V26.246H127.208V20.576ZM133.438 13.114L134.726 14.43C132.668 15.214 129.826 15.648 127.348 15.872C127.278 15.466 127.054 14.808 126.872 14.43C129.252 14.192 131.884 13.73 133.438 13.114ZM130.078 14.682H131.674V21.458H130.078V14.682ZM126.326 17.188H135.258V18.798H126.326V17.188ZM128.3 24.16H133.606V25.672H128.3V24.16ZM122.882 14.5L123.82 13.296C124.604 13.688 125.822 14.304 126.424 14.696L125.43 16.054C124.87 15.634 123.68 14.962 122.882 14.5ZM122.196 18.378L123.106 17.132C123.904 17.51 125.15 18.112 125.766 18.504L124.828 19.89C124.254 19.498 123.036 18.826 122.196 18.378ZM122.406 24.958C123.162 23.908 124.24 22.158 125.08 20.548L126.312 21.654C125.57 23.138 124.674 24.734 123.834 26.092L122.406 24.958ZM138.66 14.052H147.256V15.648H138.66V14.052ZM138.66 17.272H147.284V18.84H138.66V17.272ZM138.632 20.576H147.34V22.158H138.632V20.576ZM137.694 14.052H139.36V19.092C139.36 21.318 139.08 24.468 137.358 26.344C137.092 26.022 136.406 25.462 136.042 25.252C137.568 23.558 137.694 21.052 137.694 19.078V14.052ZM146.668 14.052H148.334V24.286C148.334 25.182 148.138 25.63 147.578 25.896C146.99 26.162 146.15 26.19 144.876 26.176C144.806 25.728 144.554 25 144.33 24.566C145.128 24.622 146.052 24.608 146.304 24.608C146.57 24.594 146.668 24.51 146.668 24.272V14.052ZM142.006 14.682H143.714V26.092H142.006V14.682Z" fill="#3681CC"/>
</svg>
