<svg width="299" height="281" viewBox="0 0 299 281" fill="none" xmlns="http://www.w3.org/2000/svg">
<path d="M171.891 229.756V259.788C171.891 265.564 167.182 270.289 161.321 270.289H22.0168C16.2605 270.289 11.4461 265.564 11.4461 259.788V119.918C11.4461 114.143 16.1558 109.418 22.0168 109.418H49.9613L47.1355 98.9169H22.0168C10.3995 98.9169 0.97998 108.368 0.97998 120.023V259.893C0.97998 271.549 10.3995 281 22.0168 281H161.425C173.043 281 182.462 271.549 182.462 259.893V227.026L171.891 229.861V229.756Z" fill="white" fill-opacity="0.1"/>
<path d="M161.425 109.417H49.9614L88.1627 252.228L171.996 229.651V119.918C171.996 114.143 167.286 109.417 161.425 109.417Z" fill="white" fill-opacity="0.1"/>
<path d="M182.463 119.918V226.816L253.423 207.705L209.151 41.8978L43.8914 86.316L47.2405 98.7068H161.53C173.148 98.7068 182.567 108.158 182.567 119.813L182.463 119.918Z" fill="white" fill-opacity="0.1"/>
<path fill-rule="evenodd" clip-rule="evenodd" d="M223.908 37.3827C223.908 16.8012 240.549 0 261.167 0C281.681 0 298.427 16.8012 298.427 37.3827C298.427 57.9642 281.786 74.7654 261.167 74.7654C259.388 74.7654 257.714 74.5554 256.039 74.3453C252.69 78.3356 247.247 82.956 238.142 86.3162C235.525 87.2613 234.897 86.0012 235.525 85.3711C238.979 82.1159 242.014 76.5505 242.747 69.83C231.548 63.4246 223.908 51.3487 223.908 37.3827ZM278.437 26.1467C278.96 25.7267 279.797 25.8317 280.216 26.3567H280.006C280.53 26.8818 280.006 28.1419 280.006 28.1419L257.19 51.0335C256.876 51.3485 256.562 51.4536 256.248 51.4536C255.934 51.4536 255.306 51.0335 255.306 51.0335L241.073 36.7525C240.654 36.3325 240.549 35.5974 240.968 35.0724C241.387 34.5473 242.119 34.3373 242.643 34.6523L255.934 41.4778L278.437 26.1467Z" fill="white" fill-opacity="0.1"/>
</svg>
