<svg width="118" height="118" viewBox="0 0 118 118" fill="none" xmlns="http://www.w3.org/2000/svg">
<circle cx="58.7998" cy="58.7998" r="58.7998" fill="#E9F6FF"/>
<g clip-path="url(#clip0_393_78)">
<path d="M49.9944 80.4924L50.0105 80.5085C48.9223 80.7784 47.3427 80.9998 45.0972 80.9998C39.4197 80.9998 38 79.5801 38 79.5801V76.7421C38 74.3896 39.9067 72.4844 42.2577 72.4844H47.9352C49.044 72.4844 50.0545 72.9082 50.8113 73.602C50.2907 74.5318 49.9944 75.6025 49.9944 76.7421V80.4924Z" fill="#15427B"/>
<path d="M48.1101 70.5263C49.7729 68.8635 49.7729 66.1677 48.1101 64.505C46.4474 62.8422 43.7515 62.8422 42.0888 64.505C40.426 66.1677 40.426 68.8635 42.0888 70.5263C43.7515 72.189 46.4474 72.189 48.1101 70.5263Z" fill="#15427B"/>
<path d="M66.3882 79.5801V76.7421C66.3882 74.391 64.4816 72.4844 62.1305 72.4844H56.453C54.102 72.4844 52.1953 74.391 52.1953 76.7421V79.5801C52.1953 79.5801 53.615 80.9998 59.2925 80.9998C64.97 80.9998 66.3897 79.5801 66.3897 79.5801H66.3882Z" fill="#15427B"/>
<path d="M62.2976 70.5263C63.9604 68.8635 63.9604 66.1677 62.2976 64.505C60.6349 62.8422 57.939 62.8422 56.2763 64.505C54.6135 66.1677 54.6135 68.8635 56.2763 70.5263C57.939 72.189 60.6349 72.189 62.2976 70.5263Z" fill="#15427B"/>
<path d="M80.5848 76.7421V79.5801C80.5848 79.5801 79.165 80.9998 73.4876 80.9998C71.2436 80.9998 69.664 80.7784 68.5742 80.5085L68.5904 80.4924V76.7421C68.5904 75.6025 68.2941 74.5304 67.7734 73.6005C68.5317 72.9082 69.5408 72.4844 70.6481 72.4844H76.3256C78.6781 72.4844 80.5848 74.3896 80.5848 76.7421Z" fill="#15427B"/>
<path d="M76.493 70.5263C78.1557 68.8635 78.1557 66.1677 76.493 64.505C74.8302 62.8422 72.1344 62.8422 70.4716 64.505C68.8089 66.1677 68.8089 68.8635 70.4716 70.5263C72.1344 72.189 74.8302 72.189 76.493 70.5263Z" fill="#15427B"/>
<path d="M72.7723 56.8711H45.8047V61.1288H72.7723V56.8711Z" fill="#15427B"/>
<path d="M55.6975 56.1627V50.4853L53.1147 53.4993C52.1643 54.6081 50.5275 54.8149 49.3307 53.9774L45.8591 51.5501C45.048 50.9825 44.85 49.8649 45.4176 49.0538C45.4293 49.0377 45.4411 49.0215 45.4528 49.0054C46.0233 48.2442 47.0896 48.0609 47.8816 48.5889L50.7284 50.4838L52.9988 47.7573C53.8084 46.7863 55.0067 46.2246 56.2709 46.2246H62.2608C63.5251 46.2246 64.7233 46.7863 65.5329 47.7573L67.8033 50.4838L70.6501 48.5859C71.4421 48.0579 72.5084 48.2398 73.0789 49.0025C73.6729 49.7945 73.5116 50.9194 72.7196 51.5134C72.7049 51.5251 72.6888 51.5354 72.6727 51.5471L69.2011 53.9759C68.0043 54.8134 66.3689 54.6066 65.4171 53.4978L62.8343 50.4838V56.1613H55.6945L55.6975 56.1627Z" fill="#20AEE6"/>
<path d="M63.4285 42.2479C63.9754 39.9609 62.5649 37.6636 60.2779 37.1166C57.9909 36.5697 55.6935 37.9803 55.1466 40.2672C54.5996 42.5542 56.0102 44.8516 58.2972 45.3985C60.5842 45.9455 62.8816 44.5349 63.4285 42.2479Z" fill="#20AEE6"/>
</g>
<defs>
<clipPath id="clip0_393_78">
<rect width="42.5817" height="44" fill="white" transform="translate(38 37)"/>
</clipPath>
</defs>
</svg>
