<svg width="118" height="118" viewBox="0 0 118 118" fill="none" xmlns="http://www.w3.org/2000/svg">
<circle cx="58.7998" cy="58.7998" r="58.7998" fill="#E9F6FF"/>
<g clip-path="url(#clip0_393_126)">
<path d="M61.7525 46.3865C59.3355 46.7118 57.3453 48.1777 56.2812 50.1813H69.1261C67.7367 47.5768 64.8317 45.975 61.7525 46.3865Z" fill="#20AEE6"/>
<path d="M82.095 38.3128C81.9936 37.5645 81.3506 37 80.5946 37C80.5277 37 80.4607 37.0038 80.3937 37.0134L41.2966 42.1957C40.8967 42.2493 40.5407 42.4541 40.2958 42.7737C40.0508 43.0913 39.9455 43.4875 39.9972 43.8855L40.7818 49.8123H44.37C46.4445 48.8382 47.9161 46.8479 48.2166 44.5993L48.2549 44.3199L74.2392 40.8772L74.3483 41.1355C75.2803 43.3497 77.3222 44.9132 79.6761 45.2194L79.9574 45.2557L81.5343 57.1705L81.274 57.2796C80.1162 57.7676 79.123 58.5598 78.3958 59.5741V65.7822L84.1006 65.0244C84.9235 64.9153 85.511 64.1498 85.4114 63.3231L82.095 38.3128Z" fill="#15427B"/>
<path d="M73.9438 52.7441H34.5099C33.6775 52.7441 33 53.4216 33 54.2521V79.4901C33 80.3226 33.6775 81.0001 34.5099 81.0001H73.9438C74.7763 81.0001 75.4537 80.3226 75.4537 79.4901V54.2541C75.4537 53.4216 74.7763 52.7461 73.9438 52.7461V52.7441ZM72.4339 72.884L72.1621 72.9587C69.8542 73.5863 68.0285 75.4063 67.4008 77.7104L67.3262 77.9821H41.116L41.0414 77.7104C40.4137 75.4025 38.5919 73.5768 36.2878 72.9491L36.016 72.8744V60.8621L36.2878 60.7875C38.5957 60.1598 40.4214 58.3398 41.0491 56.0357L41.1237 55.764H67.3339L67.4085 56.0357C68.0362 58.3437 69.8561 60.1674 72.1602 60.797L72.432 60.8717V72.8859L72.4339 72.884Z" fill="#15427B"/>
<path d="M40.9681 64.7559C39.7988 64.7559 38.8516 65.7031 38.8516 66.8724C38.8516 68.0417 39.7988 68.989 40.9681 68.989C42.1374 68.989 43.0828 68.0417 43.0828 66.8724C43.0828 65.7031 42.1355 64.7559 40.9681 64.7559Z" fill="#15427B"/>
<path d="M68.9899 68.3677C69.8165 67.5412 69.8165 66.201 68.9899 65.3745C68.1633 64.5479 66.8232 64.5479 65.9966 65.3745C65.1701 66.201 65.1701 67.5412 65.9966 68.3677C66.8232 69.1943 68.1633 69.1943 68.9899 68.3677Z" fill="#15427B"/>
<circle cx="53.6952" cy="66.5819" r="8.72647" fill="#20AEE6"/>
</g>
<defs>
<clipPath id="clip0_393_126">
<rect width="52.4184" height="44" fill="white" transform="translate(33 37)"/>
</clipPath>
</defs>
</svg>
