<svg width="118" height="118" viewBox="0 0 118 118" fill="none" xmlns="http://www.w3.org/2000/svg">
<circle cx="58.7998" cy="58.7998" r="58.7998" fill="#E9F6FF"/>
<g clip-path="url(#clip0_393_51)">
<path d="M57.2847 46.8966C57.4198 46.0764 58.0794 45.4129 58.8976 45.2778C60.2541 45.0547 61.4109 46.2076 61.1897 47.564C61.0546 48.3842 60.395 49.0458 59.5748 49.1808C58.2184 49.4059 57.0655 48.2511 57.2847 46.8966Z" fill="#20AEE6"/>
<path d="M73.5281 56.8725C73.5809 56.9567 73.5829 57.0624 73.5281 57.1466C73.4733 57.2327 73.3754 57.2855 73.2677 57.2855H57.5558C57.4501 57.2855 57.3503 57.2327 57.2974 57.1485C57.2446 57.0644 57.2446 56.9587 57.2974 56.8745L61.8347 49.6909C61.8856 49.6067 61.9873 49.5558 62.093 49.5558C62.1987 49.5558 62.2966 49.6067 62.3495 49.6909L63.8312 52.0339L66.8534 47.3636C66.9082 47.2794 67.0061 47.2285 67.1118 47.2285C67.2175 47.2285 67.3134 47.2775 67.3662 47.3636L73.5261 56.8725H73.5281Z" fill="#20AEE6"/>
<path d="M76.9536 37H45.7432C43.5117 37 41.7031 38.8184 41.7031 41.0498V46.3426H45.6668C47.9922 46.3426 49.8869 48.2295 49.8869 50.5647C49.8869 52.8998 47.9922 54.7848 45.6668 54.7848H41.7031V63.227H45.6668C47.9922 63.227 49.8869 65.1119 49.8869 67.4471C49.8869 69.7822 47.9922 71.6672 45.6668 71.6672H41.7031V76.9619C41.7031 79.1933 43.5137 81 45.7432 81H76.9556C79.187 81 81.0035 79.1914 81.0035 76.9619V41.0498C81.0035 38.8184 79.187 37 76.9556 37H76.9536ZM74.9747 74.9732H55.8413C55.0955 74.9732 54.4907 74.3684 54.4907 73.6226C54.4907 72.8769 55.0955 72.274 55.8413 72.274H74.9747C75.7185 72.274 76.3233 72.8788 76.3233 73.6226C76.3233 74.3664 75.7185 74.9732 74.9747 74.9732ZM74.9747 67.9208H55.8413C55.0955 67.9208 54.4907 67.3159 54.4907 66.5702C54.4907 65.8244 55.0955 65.2215 55.8413 65.2215H74.9747C75.7185 65.2215 76.3233 65.8264 76.3233 66.5702C76.3233 67.314 75.7185 67.9208 74.9747 67.9208ZM76.3233 59.5862C76.3233 60.1108 75.9025 60.5434 75.3662 60.5434H55.4479C54.9213 60.5434 54.4907 60.1108 54.4907 59.5862V43.9448C54.4907 43.4378 54.9018 43.0268 55.4087 43.0268H75.4034C75.9103 43.0268 76.3214 43.4378 76.3214 43.9448V59.5862H76.3233Z" fill="#15427B"/>
<path d="M45.6595 51.9102H38.3506C37.6048 51.9102 37 51.3053 37 50.5596C37 49.8138 37.6048 49.209 38.3506 49.209H45.6614C46.4072 49.209 47.012 49.8138 47.012 50.5596C47.012 51.3053 46.4072 51.9102 45.6614 51.9102H45.6595Z" fill="#20AEE6"/>
<path d="M45.6595 68.793H38.3506C37.6048 68.793 37 68.1882 37 67.4424C37 66.6966 37.6048 66.0918 38.3506 66.0918H45.6614C46.4072 66.0918 47.012 66.6966 47.012 67.4424C47.012 68.1882 46.4072 68.793 45.6614 68.793H45.6595Z" fill="#20AEE6"/>
</g>
<defs>
<clipPath id="clip0_393_51">
<rect width="44.002" height="44" fill="white" transform="translate(37 37)"/>
</clipPath>
</defs>
</svg>
