<svg width="118" height="118" viewBox="0 0 118 118" fill="none" xmlns="http://www.w3.org/2000/svg">
<circle cx="58.7998" cy="58.7998" r="58.7998" fill="#E9F6FF"/>
<g clip-path="url(#clip0_393_114)">
<path d="M80.559 48.1596C80.4708 47.8546 80.1879 47.6138 79.8369 47.5918L77.2828 47.4393C76.7812 45.8444 75.9066 44.4038 74.771 43.18L75.9066 40.8667C76.0591 40.5598 75.9948 40.1886 75.754 39.9277C75.0558 39.2056 74.3135 38.6158 73.4388 38.1362C72.544 37.6346 71.6491 37.2854 70.6661 37.0668C70.317 37.0006 69.9881 37.1311 69.7933 37.438L68.417 39.5768C67.6527 39.4243 66.9103 39.3379 66.1239 39.3379C65.3374 39.3379 64.6172 39.4243 63.9189 39.5547L62.5206 37.3939C62.346 37.0888 61.9969 36.9345 61.6699 37.0227C60.6648 37.2413 59.7901 37.5684 58.8953 38.048C58.0004 38.5515 57.236 39.1413 56.536 39.8616C56.2971 40.1023 56.253 40.4734 56.3835 40.7785L57.497 43.0937C56.8098 43.8599 56.2181 44.707 55.7422 45.6092C56.0399 45.679 56.3357 45.758 56.6297 45.848C58.1088 46.2707 59.1636 47.5771 59.2609 49.1169L59.3271 50.212C59.6009 50.3406 59.8728 50.4785 60.1392 50.6255C60.3818 47.5109 62.9671 45.08 66.1239 45.08C69.4423 45.08 72.1287 47.7664 72.1287 51.1069C72.1287 53.0215 71.2247 54.7359 69.8154 55.8402C70.2894 56.8196 70.6349 57.8155 70.8664 58.861L70.8848 58.9492C71.1641 60.4357 70.5265 61.9259 69.2568 62.7436L68.7202 63.089L69.7933 64.7556C69.9881 65.0624 70.317 65.1929 70.6661 65.1267C71.6491 64.9099 72.544 64.559 73.4388 64.0573C74.3135 63.5778 75.0558 62.9879 75.754 62.2456C75.9948 62.0049 76.0591 61.6337 75.9066 61.3287L74.771 59.0355C75.9066 57.7897 76.7812 56.3271 77.2828 54.7542L79.8369 54.6017C80.1879 54.5797 80.4708 54.339 80.559 54.0119C81.1489 52.0899 81.1489 50.0816 80.559 48.1596Z" fill="#20AEE6"/>
<path d="M67.8162 68.4862L65.3963 66.9372C65.5653 66.1379 65.6388 65.3147 65.6388 64.4933C65.6388 63.672 65.5653 62.7992 65.3963 61.9521L67.7684 60.427C68.1065 60.2102 68.2517 59.8464 68.18 59.4587C67.9375 58.3691 67.5516 57.3768 66.9949 56.3846C66.462 55.4162 65.8079 54.5931 64.9865 53.8195C64.7201 53.5531 64.3085 53.4814 63.9704 53.6504L61.4292 54.9091C60.0492 53.6504 58.4286 52.6821 56.6848 52.1253L56.5158 49.2938C56.4919 48.9061 56.2255 48.5919 55.8617 48.4945C53.732 47.8404 51.505 47.8404 49.3754 48.4945C49.0373 48.5919 48.7709 48.9061 48.747 49.2938L48.5779 52.1253C46.8103 52.6821 45.2135 53.6504 43.8575 54.9091L41.2924 53.6504C40.9543 53.4814 40.5427 53.5531 40.2524 53.8195C39.4531 54.5949 38.8008 55.4162 38.2679 56.3846C37.7112 57.3768 37.3234 58.3691 37.0827 59.4587C37.0111 59.8464 37.1562 60.2084 37.4943 60.427L39.8665 61.9521C39.6975 62.7992 39.6001 63.6224 39.6001 64.4933C39.6001 65.3643 39.6975 66.1636 39.8426 66.9372L37.4466 68.4862C37.1085 68.6791 36.9376 69.0668 37.035 69.4306C37.2775 70.5441 37.6395 71.5125 38.1724 72.5047C38.7291 73.4969 39.3832 74.344 40.1807 75.1194C40.4471 75.3858 40.8587 75.4336 41.1968 75.2885L43.7619 74.0537C45.1658 75.3123 46.8121 76.2807 48.5779 76.8613L48.747 79.6929C48.7709 80.0806 49.0373 80.3948 49.3754 80.5161C50.4411 80.8303 51.505 80.9993 52.6424 80.9993C53.7798 80.9993 54.7959 80.8303 55.8617 80.5161C56.2255 80.3948 56.4901 80.0806 56.5158 79.6929L56.6848 76.8613C58.4764 76.2807 60.097 75.3123 61.477 74.0537L64.0659 75.2885C64.404 75.4336 64.8156 75.3858 65.0821 75.1194C65.8814 74.3201 66.5337 73.4969 67.0665 72.5047C67.5994 71.5125 67.9871 70.5441 68.2278 69.4306C68.3013 69.0686 68.1304 68.6809 67.8162 68.4862ZM52.6406 71.1486C48.9381 71.1486 45.9614 68.172 45.9614 64.4933C45.9614 60.8147 48.9381 57.838 52.6406 57.838C56.3431 57.838 59.2959 60.8147 59.2959 64.4933C59.2959 68.172 56.2953 71.1486 52.6406 71.1486Z" fill="#15427B"/>
</g>
<defs>
<clipPath id="clip0_393_114">
<rect width="44.0018" height="44" fill="white" transform="translate(37 37)"/>
</clipPath>
</defs>
</svg>
