<svg width="118" height="118" viewBox="0 0 118 118" fill="none" xmlns="http://www.w3.org/2000/svg">
<circle cx="58.7998" cy="58.7998" r="58.7998" fill="#E9F6FF"/>
<g clip-path="url(#clip0_393_66)">
<path d="M42.5736 73.0528C41.1547 73.0528 40 71.8981 40 70.4792V39.5842C40 38.1592 41.1547 37 42.5736 37H67.7389C69.1577 37 70.314 38.1592 70.314 39.5842V42.2875H50.5192C47.6347 42.2875 45.2875 44.6392 45.2875 47.5283V73.0528H42.5736Z" fill="#20AEE6"/>
<path d="M50.5234 81.0001C49.1015 81.0001 47.9453 79.8439 47.9453 78.422V47.5254C47.9453 46.1035 49.1015 44.9473 50.5234 44.9473H75.6857C77.1076 44.9473 78.2638 46.1035 78.2638 47.5254V78.4205C78.2638 79.8424 77.1076 80.9986 75.6857 80.9986H50.5234V81.0001ZM55.1861 72.5548C54.454 72.5548 53.8578 73.151 53.8578 73.8831C53.8578 74.6152 54.454 75.2114 55.1861 75.2114H71.023C71.7551 75.2114 72.3514 74.6152 72.3514 73.8831C72.3514 73.151 71.7551 72.5548 71.023 72.5548H55.1861ZM55.1861 65.2854C54.454 65.2854 53.8578 65.8816 53.8578 66.6137C53.8578 67.3458 54.454 67.942 55.1861 67.942H71.023C71.7551 67.942 72.3514 67.3458 72.3514 66.6137C72.3514 65.8816 71.7551 65.2854 71.023 65.2854H55.1861ZM55.1861 58.0175C54.454 58.0175 53.8578 58.6137 53.8578 59.3458C53.8578 60.0778 54.454 60.6741 55.1861 60.6741H71.023C71.7551 60.6741 72.3514 60.0778 72.3514 59.3458C72.3514 58.6137 71.7551 58.0175 71.023 58.0175H55.1861ZM55.1861 50.748C54.454 50.748 53.8578 51.3442 53.8578 52.0763C53.8578 52.8084 54.454 53.4046 55.1861 53.4046H71.023C71.7551 53.4046 72.3514 52.8084 72.3514 52.0763C72.3514 51.3442 71.7551 50.748 71.023 50.748H55.1861Z" fill="#15427B"/>
</g>
<defs>
<clipPath id="clip0_393_66">
<rect width="38.2611" height="44" fill="white" transform="translate(40 37)"/>
</clipPath>
</defs>
</svg>
