<svg width="18" height="17" viewBox="0 0 18 17" fill="none" xmlns="http://www.w3.org/2000/svg">
<g clip-path="url(#clip0_393_387)">
<path d="M17.9983 9.13854L18.0017 16.2774C18.0017 16.4206 17.9151 16.7363 17.8169 16.8277C17.6937 16.9398 17.3124 17.0037 17.0744 17.0019L0.0499445 16.9847L0 9.18684C0 8.92807 0.372919 8.52782 0.59101 8.53127C0.809101 8.53472 1.17536 8.92116 1.17536 9.18339L1.18036 15.7771L16.788 15.7805L16.8097 9.211C16.8097 8.98327 17.136 8.59855 17.3374 8.5468C17.5388 8.49504 18 8.87976 18 9.13854H17.9983Z" fill="#007ACB"/>
<path d="M9.47105 13.1058C9.27127 13.3162 8.75684 13.3887 8.59369 13.2179L5.06428 9.526C4.90279 9.35693 5.04097 8.76692 5.20079 8.65823C5.99325 8.11652 7.22022 10.4007 8.40224 11.1943L8.42554 0.743067C8.42554 0.434258 8.62033 0.065068 8.8584 0.00986197C9.14308 -0.0574204 9.58426 0.228961 9.58426 0.582624L9.60923 11.1459L11.9966 8.74104C12.1447 8.59095 12.5676 8.56162 12.7474 8.64098C12.9272 8.72034 13.0254 9.36383 12.8873 9.51047L9.46939 13.1075L9.47105 13.1058Z" fill="#007ACB"/>
</g>
<defs>
<clipPath id="clip0_393_387">
<rect width="18" height="17" fill="white"/>
</clipPath>
</defs>
</svg>
