<svg width="118" height="118" viewBox="0 0 118 118" fill="none" xmlns="http://www.w3.org/2000/svg">
<circle cx="58.7998" cy="58.7998" r="58.7998" fill="#E9F6FF"/>
<g clip-path="url(#clip0_393_102)">
<path d="M37 63.8319C37 62.3034 38.2439 61.0582 39.7737 61.0582C40.1348 61.0582 40.4774 61.132 40.7949 61.2598L42.6397 58.552C40.6052 57.4596 39.219 55.3131 39.219 52.8477C39.219 49.2795 42.1218 46.3779 45.6888 46.3779C46.0156 46.3779 46.3318 46.4096 46.6454 46.457L48.1186 41.9598C47.4624 41.4524 47.0302 40.6658 47.0302 39.7737C47.0302 38.2452 48.2754 37 49.8039 37C51.3324 37 52.5776 38.2439 52.5776 39.7737C52.5776 41.3035 51.3337 42.5474 49.8039 42.5474C49.5694 42.5474 49.344 42.5092 49.1253 42.4539L47.7286 46.7139C49.062 47.158 50.2018 48.0224 50.9925 49.153L65.8664 43.9811C65.8533 43.8124 65.8401 43.6437 65.8401 43.4724C65.8401 39.9042 68.7429 37.0026 72.3099 37.0026C75.8769 37.0026 78.781 39.9055 78.781 43.4724C78.781 47.0394 75.8782 49.9423 72.3099 49.9423C71.0489 49.9423 69.8709 49.5773 68.876 48.95C68.7904 48.896 68.7074 48.8407 68.6243 48.7827L65.9982 51.1717C66.1458 51.3627 66.2696 51.5722 66.3645 51.7976C66.5029 52.1217 66.5806 52.4762 66.5806 52.8504C66.5806 54.3789 65.3367 55.6241 63.8069 55.6241C63.5539 55.6241 63.3088 55.5898 63.0756 55.5266C62.3772 55.3355 61.7869 54.8757 61.4245 54.2682C61.1755 53.8531 61.0332 53.3695 61.0332 52.8517C61.0332 51.3232 62.2771 50.078 63.8069 50.078C64.2009 50.078 64.5712 50.1676 64.9085 50.3191C64.9915 50.356 65.0732 50.3982 65.1522 50.443L67.7613 48.0698C67.6058 47.9157 67.4582 47.7536 67.3198 47.5862C66.7282 46.8681 66.2934 46.0195 66.0522 45.0932L51.5511 50.1333C51.9372 50.9621 52.1586 51.8806 52.1586 52.8517C52.1586 53.1311 52.1349 53.4051 52.0993 53.6766L58.8722 57.1579L58.1158 58.0157L51.8569 54.7992C51.028 57.4175 48.5771 59.3228 45.6862 59.3228C44.9851 59.3228 44.3105 59.2069 43.678 59L41.7226 61.8699C42.2286 62.3719 42.5435 63.069 42.5435 63.8359C42.5435 65.3657 41.2996 66.6096 39.7698 66.6096C38.2399 66.6096 37 65.3618 37 63.8319Z" fill="#15427B"/>
<path d="M77.6557 56.0643L75.7899 59.1898C77.5885 60.3415 78.7863 62.3509 78.7863 64.6397C78.7863 67.4807 76.9429 69.8946 74.3918 70.763L75.4025 73.5051C75.4157 73.5051 75.4275 73.5011 75.4407 73.5011C76.9692 73.5011 78.2144 74.745 78.2144 76.2749C78.2144 77.8047 76.9705 79.0486 75.4407 79.0486C73.9109 79.0486 72.667 77.8047 72.667 76.2749C72.667 75.1496 73.343 74.1837 74.3075 73.7489L73.3034 71.0278C72.9793 71.0779 72.6512 71.1122 72.3125 71.1122C69.9947 71.1122 67.9615 69.8815 66.8191 68.0433L58.5678 72.2875C58.8287 72.9886 58.9776 73.7423 58.9776 74.5316C58.9776 78.0998 56.0747 81.0027 52.5078 81.0027C49.1266 81.0027 46.3476 78.395 46.0643 75.0863H42.4908C42.2325 76.3513 41.1125 77.3053 39.7737 77.3053C38.2452 77.3053 37 76.0614 37 74.5316C37 73.0017 38.2439 71.7592 39.7737 71.7592C41.1125 71.7592 42.2325 72.7132 42.4908 73.9781H46.0643C46.0907 73.6738 46.1381 73.3746 46.2053 73.0834C46.8273 70.3716 49.1556 68.3042 51.9978 68.0828C52.1652 68.0697 52.3352 68.0617 52.5065 68.0617C54.8902 68.0617 56.9708 69.3597 58.0934 71.2848L66.3131 67.0564C66.0114 66.3092 65.8414 65.4949 65.8414 64.6411C65.8414 63.7872 66.0114 62.9742 66.3131 62.2271L60.0186 58.9922L60.7749 58.133L66.8178 61.2388C67.9602 59.4006 69.9921 58.1699 72.3112 58.1699C73.1954 58.1699 74.0374 58.3491 74.8069 58.6706L76.6306 55.6136C75.9217 55.1103 75.4539 54.288 75.4539 53.3538C75.4539 51.824 76.6978 50.5801 78.2276 50.5801C79.7574 50.5801 81.0013 51.824 81.0013 53.3538C81.0013 54.8836 79.7574 56.1275 78.2276 56.1275C78.0299 56.1275 77.8389 56.1051 77.6518 56.0656L77.6557 56.0643Z" fill="#20AEE6"/>
</g>
<defs>
<clipPath id="clip0_393_102">
<rect width="44" height="44" fill="white" transform="translate(37 37)"/>
</clipPath>
</defs>
</svg>
