<?xml version="1.0" encoding="UTF-8"?>
<svg id="_レイヤー_2" data-name="レイヤー 2" xmlns="http://www.w3.org/2000/svg" viewBox="0 0 24.92 32.5">
  <defs>
    <style>
      .cls-1 {
        fill: #fff;
      }

      .cls-2 {
        fill: #4b4b4b;
      }
    </style>
  </defs>
  <g id="img">
    <g>
      <path class="cls-2" d="M2.23,1.38C0,2.83-.44,7.35.4,11.04c.66,2.87,2.05,6.73,4.41,10.36,2.21,3.41,5.3,6.48,7.66,8.25,3.03,2.27,7.34,3.72,9.57,2.27,1.13-.73,2.81-2.73,2.88-3.09,0,0-.98-1.52-1.2-1.85l-3.3-5.09c-.25-.38-1.78-.03-2.56.41-1.05.6-2.02,2.2-2.02,2.2-.72.42-1.33,0-2.59-.58-1.55-.71-3.3-2.94-4.69-4.95-1.27-2.09-2.59-4.59-2.6-6.3-.02-1.39-.15-2.11.53-2.6,0,0,1.86-.23,2.83-.95.72-.53,1.66-1.8,1.42-2.17L7.43,1.86C7.21,1.52,6.23,0,6.23,0c-.36-.08-2.87.64-4,1.37Z"/>
      <path class="cls-1" d="M2.23,1.38C0,2.83-.44,7.35.4,11.04c.66,2.87,2.05,6.73,4.41,10.36,2.21,3.41,5.3,6.48,7.66,8.25,3.03,2.27,7.34,3.72,9.57,2.27,1.13-.73,2.81-2.73,2.88-3.09,0,0-.98-1.52-1.2-1.85l-3.3-5.09c-.25-.38-1.78-.03-2.56.41-1.05.6-2.02,2.2-2.02,2.2-.72.42-1.33,0-2.59-.58-1.55-.71-3.3-2.94-4.69-4.95-1.27-2.09-2.59-4.59-2.6-6.3-.02-1.39-.15-2.11.53-2.6,0,0,1.86-.23,2.83-.95.72-.53,1.66-1.8,1.42-2.17L7.43,1.86C7.21,1.52,6.23,0,6.23,0c-.36-.08-2.87.64-4,1.37Z"/>
    </g>
  </g>
</svg>