<svg width="300" height="240" viewBox="0 0 300 240" fill="none" xmlns="http://www.w3.org/2000/svg">
<mask id="mask0_5623_4184" style="mask-type:luminance" maskUnits="userSpaceOnUse" x="0" y="0" width="300" height="240">
<path d="M300 0H0V240H300V0Z" fill="white"/>
</mask>
<g mask="url(#mask0_5623_4184)">
<path d="M223.09 79.9297H123.92C117.679 79.9297 112.62 84.9889 112.62 91.2297V224.48C112.62 230.72 117.679 235.78 123.92 235.78H223.09C229.331 235.78 234.39 230.72 234.39 224.48V91.2297C234.39 84.9889 229.331 79.9297 223.09 79.9297Z" fill="#E6F1FF"/>
<path d="M223.09 79.9297H123.92C117.679 79.9297 112.62 84.9889 112.62 91.2297V224.48C112.62 230.72 117.679 235.78 123.92 235.78H223.09C229.331 235.78 234.39 230.72 234.39 224.48V91.2297C234.39 84.9889 229.331 79.9297 223.09 79.9297Z" stroke="#084AA6" stroke-width="2.73" stroke-linecap="round" stroke-linejoin="round"/>
<path d="M346.4 195.44H-12.16V274.37H346.4V195.44Z" fill="white" stroke="#084AA6" stroke-width="2.73" stroke-linecap="round" stroke-linejoin="round"/>
<path d="M215.31 96.0798C207.87 90.3098 185.4 85.7598 168.54 85.7598C153.1 85.7598 125.79 90.7198 120.09 96.9198C114.39 103.12 91.26 170.81 92.32 183.41C94.58 210.22 130.16 208.22 130.16 208.22L211.31 205.89C211.31 205.89 248.43 200.95 249.43 189.17C250.79 173.21 222.75 101.84 215.31 96.0698V96.0798Z" fill="#80D7FF" stroke="#084AA6" stroke-width="2.73" stroke-linecap="round" stroke-linejoin="round"/>
<path d="M148.21 93.1904H195.37L185.04 135.54L168.72 173.16L154.28 139.56L148.21 93.1904Z" fill="white"/>
<path d="M171.74 111.8H165.69L161.05 101.55H176.38L171.74 111.8Z" fill="#084AA6"/>
<path d="M171.74 111.8H165.69L159.13 145.08L168.72 168.27L178.3 145.08L171.74 111.8Z" fill="#084AA6"/>
<path d="M185.11 84.0498H154.36V103.92H185.11V84.0498Z" fill="white" stroke="#084AA6" stroke-width="2.73" stroke-linecap="round" stroke-linejoin="round"/>
<path d="M169.07 101.61L179.38 111.6C179.58 111.68 183.79 106.07 185.99 102C188.29 97.7697 190.78 92.8697 190.66 92.8597L185.6 87.2197C185.6 87.2197 178.79 93.4497 176.07 95.7797C173.35 98.1097 169.07 101.62 169.07 101.62V101.61Z" fill="white" stroke="#084AA6" stroke-width="2.73" stroke-linecap="round" stroke-linejoin="round"/>
<path d="M169.07 101.61L158.76 111.6C158.56 111.68 154.35 106.07 152.15 102C149.85 97.7697 147.36 92.8697 147.48 92.8597L152.54 87.2197C152.54 87.2197 159.35 93.4497 162.07 95.7797C164.79 98.1097 169.07 101.62 169.07 101.62V101.61Z" fill="white" stroke="#084AA6" stroke-width="2.73" stroke-linecap="round" stroke-linejoin="round"/>
<path d="M182.2 112.75C183.85 104.57 186.64 84.7498 186.06 84.7598L196.34 88.4798L200.94 103.67L192.12 106.71L199.91 111.46C199.91 111.46 195.7 127.89 189.51 137.84C185.58 144.15 168.22 168.12 168.22 168.12C168.22 168.12 179.68 125.18 182.18 112.76L182.2 112.75Z" fill="#80D7FF" stroke="#084AA6" stroke-width="2.73" stroke-linecap="round" stroke-linejoin="round"/>
<path d="M155.23 111.81C153.58 103.63 151.26 84.7598 151.84 84.7598L141.56 88.4798L136.96 103.67L145.78 106.71L137.8 111.46C137.8 111.46 142.01 127.26 148.38 137.84C152.64 144.91 168.25 168.12 168.25 168.12C168.25 168.12 157.74 124.23 155.24 111.82L155.23 111.81Z" fill="#80D7FF" stroke="#084AA6" stroke-width="2.73" stroke-linecap="round" stroke-linejoin="round"/>
<path d="M168.32 187.83C170.413 187.83 172.11 186.133 172.11 184.04C172.11 181.947 170.413 180.25 168.32 180.25C166.227 180.25 164.53 181.947 164.53 184.04C164.53 186.133 166.227 187.83 168.32 187.83Z" fill="white" stroke="#084AA6" stroke-width="2.73" stroke-linecap="round" stroke-linejoin="round"/>
<path d="M195.7 60.3601C200.46 58.9001 205.62 61.3101 205.07 65.7301C204.51 70.1601 199.5 74.1501 194.6 72.8201" fill="white"/>
<path d="M195.7 60.3601C200.46 58.9001 205.62 61.3101 205.07 65.7301C204.51 70.1601 199.5 74.1501 194.6 72.8201" stroke="#084AA6" stroke-width="2.73" stroke-linecap="round" stroke-linejoin="round"/>
<path d="M195.3 68.1702C195.83 66.4302 197.17 65.8802 198.25 65.4902L195.3 68.1702Z" fill="white"/>
<path d="M195.3 68.1702C195.83 66.4302 197.17 65.8802 198.25 65.4902" stroke="#084AA6" stroke-width="2.73" stroke-linecap="round" stroke-linejoin="round"/>
<path d="M138 60.0502C133.09 59.2302 131.17 62.5702 132.31 66.8902C133.44 71.2002 137.76 74.5802 142.44 72.6202" fill="white"/>
<path d="M138 60.0502C133.09 59.2302 131.17 62.5702 132.31 66.8902C133.44 71.2002 137.76 74.5802 142.44 72.6202" stroke="#084AA6" stroke-width="2.73" stroke-linecap="round" stroke-linejoin="round"/>
<path d="M141.07 67.9995C140.32 66.3495 138.91 65.9695 137.79 65.7295L141.07 67.9995Z" fill="white"/>
<path d="M141.07 67.9995C140.32 66.3495 138.91 65.9695 137.79 65.7295" stroke="#084AA6" stroke-width="2.73" stroke-linecap="round" stroke-linejoin="round"/>
<path d="M141.37 41.1202C139.68 48.0502 139.94 58.7702 140.36 68.6202C141.42 93.3602 152.78 100.59 169.2 100.59C185.62 100.59 192.93 91.6502 194.53 76.0502C195.39 67.6902 197.72 52.3102 195.54 42.9502C193.35 33.5902 187.07 21.2102 163.95 22.6502C149.4 23.5502 144.43 28.6002 141.37 41.1202Z" fill="white" stroke="#084AA6" stroke-width="2.73" stroke-linecap="round" stroke-linejoin="round"/>
<path d="M166.83 62.3398C164.74 70.1598 163.88 70.6698 164.04 71.8398C164.2 73.0098 167.57 75.3698 167.57 75.3698" fill="white"/>
<path d="M166.83 62.3398C164.74 70.1598 163.88 70.6698 164.04 71.8398C164.2 73.0098 167.57 75.3698 167.57 75.3698" stroke="#084AA6" stroke-width="2.73" stroke-linecap="round" stroke-linejoin="round"/>
<path d="M140.24 34.0996C140.24 34.0996 138.91 40.7396 137.78 43.1996" stroke="white" stroke-width="2.72" stroke-linecap="round" stroke-linejoin="round"/>
<path d="M145.8 31.07C149.21 28.54 164.09 26.24 176.14 29.17C183.16 30.88 185.75 32.46 189.35 34.67C197.4 39.61 196.84 60.36 196.27 60.36C195.7 60.36 212.8 32.84 187.39 19.06C170.47 9.87997 155.54 12.49 147.95 19.31C140.37 26.14 145.8 31.07 145.8 31.07Z" fill="#E6F1FF" stroke="#084AA6" stroke-width="2.73" stroke-linecap="round" stroke-linejoin="round"/>
<path d="M145.8 31.0704C145.8 31.0704 142.46 35.7804 141.25 44.3404C140.18 51.9204 139.86 60.9004 139.86 60.9004C139.86 60.9004 131.33 47.7504 134.55 36.7604C137.77 25.7604 142.96 27.8504 145.8 31.0704Z" fill="#E6F1FF" stroke="#084AA6" stroke-width="2.73" stroke-linecap="round" stroke-linejoin="round"/>
<path d="M164.12 59.3998L163.83 63.4798C163.68 65.5698 161.85 67.2698 159.76 67.2698H150.49C148.4 67.2698 146.42 65.5798 146.1 63.5098L145.44 59.3398" stroke="#E6F1FF" stroke-width="1.62" stroke-linecap="round" stroke-linejoin="round"/>
<path d="M170.95 59.3096L171.25 63.4796C171.4 65.5696 173.23 67.2696 175.32 67.2696H184.59C186.68 67.2696 188.66 65.5796 188.98 63.5096L189.61 59.4896" stroke="#E6F1FF" stroke-width="1.62" stroke-linecap="round" stroke-linejoin="round"/>
<path d="M145.44 59.35L145.19 57.76C144.87 55.69 146.31 54 148.4 54H160.71C162.8 54 164.39 55.71 164.24 57.79L164.13 59.4" stroke="#084AA6" stroke-width="2.83" stroke-linecap="round" stroke-linejoin="round"/>
<path d="M189.62 59.5L189.89 57.76C190.21 55.69 188.77 54 186.68 54H174.37C172.28 54 170.69 55.71 170.84 57.79L170.95 59.31" stroke="#084AA6" stroke-width="2.83" stroke-linecap="round" stroke-linejoin="round"/>
<path d="M139.86 57.6104H144.98" stroke="#084AA6" stroke-width="2.83" stroke-linecap="round" stroke-linejoin="round"/>
<path d="M165.08 57.6104H170.2" stroke="#084AA6" stroke-width="2.83" stroke-linecap="round" stroke-linejoin="round"/>
<path d="M191.43 57.6104H196.55" stroke="#084AA6" stroke-width="2.83" stroke-linecap="round" stroke-linejoin="round"/>
<path d="M181.07 86.79C182.6 88.28 183.64 91.14 183.48 92.54" stroke="#084AA6" stroke-width="2.1" stroke-linecap="round" stroke-linejoin="round"/>
<path d="M155.31 87.3604C154.06 88.9904 153.97 91.4803 154.13 92.9503" stroke="#084AA6" stroke-width="2.1" stroke-linecap="round" stroke-linejoin="round"/>
<path d="M181.38 29.93C183.47 25 187.83 22.03 189.91 21.46" stroke="#084AA6" stroke-width="2.73" stroke-linecap="round" stroke-linejoin="round"/>
<path d="M175.12 28.0302C175.12 28.0302 178.28 19.9402 183.46 17.1602" stroke="#084AA6" stroke-width="2.73" stroke-linecap="round" stroke-linejoin="round"/>
<path d="M194.15 41.4904C195.86 39.9704 198.01 39.0304 200.66 38.6504" stroke="#084AA6" stroke-width="2.73" stroke-linecap="round" stroke-linejoin="round"/>
<path d="M135.43 37.6396C138.15 38.0196 141.62 38.5896 142 39.1596" stroke="#084AA6" stroke-width="2.73" stroke-linecap="round" stroke-linejoin="round"/>
<path d="M135.5 43.1396L141.18 44.0896" stroke="#084AA6" stroke-width="2.73" stroke-linecap="round" stroke-linejoin="round"/>
<path d="M154.46 27.9098C153.51 25.4498 156.04 17.1698 160.46 14.5098" stroke="#084AA6" stroke-width="2.73" stroke-linecap="round" stroke-linejoin="round"/>
<path d="M121.35 135.75C121.35 135.75 130.24 197.59 130.41 205.27" stroke="#084AA6" stroke-width="2.73" stroke-linecap="round" stroke-linejoin="round"/>
<path d="M213.22 135C213.22 135 211.51 172.61 211.34 180.29" stroke="#084AA6" stroke-width="2.73" stroke-linecap="round" stroke-linejoin="round"/>
<path d="M157.751 63.3912C158.026 62.3329 157.391 61.2518 156.333 60.9765C155.274 60.7012 154.193 61.336 153.918 62.3943C153.643 63.4526 154.278 64.5337 155.336 64.809C156.394 65.0843 157.475 64.4495 157.751 63.3912Z" fill="#084AA6"/>
<path d="M179.79 64.8799C180.884 64.8799 181.77 63.9934 181.77 62.8999C181.77 61.8064 180.884 60.9199 179.79 60.9199C178.696 60.9199 177.81 61.8064 177.81 62.8999C177.81 63.9934 178.696 64.8799 179.79 64.8799Z" fill="#084AA6"/>
<path d="M209.78 215.95C209.78 215.95 187.62 219.3 168.49 219.3C153.2 219.3 126.65 216.54 126.65 216.54L114.62 146.83C114.62 146.83 142.56 149.84 165.86 149.84C189.16 149.84 215.67 147.11 215.67 147.11L209.78 215.95Z" fill="white" stroke="#084AA6" stroke-width="2.73" stroke-linecap="round" stroke-linejoin="round"/>
<path d="M226.04 188.19C226.46 178.86 221.72 177.33 219.22 174.27C216.71 171.21 214.21 170.65 214.21 170.65C214.21 170.65 213.68 174.04 213.79 177.05C213.86 178.9 214.88 180.7 214.35 181.23C212.96 182.62 209.74 183.32 206.42 182.62C201.89 181.67 192.23 180.66 191.43 182.91C190.04 186.81 206.21 189.72 206.21 189.72C206.21 189.72 203.13 189.25 199.74 188.47C196.35 187.69 190.55 187.15 190.14 188.75C189.77 190.17 194.59 192.13 197.66 193.48C201.53 195.18 205.97 195.57 205.73 195.57C205.49 195.57 201.4 194.79 197.7 194.57C194.84 194.4 190.48 193 190.28 194.32C189.81 197.45 194.4 199.03 197.24 200.03C201.06 201.36 205.63 201.62 205.31 201.7C204.99 201.78 201.05 201.49 198.04 201.77C195.84 201.97 192.39 202.22 192.81 203.47C193.78 206.39 208.45 209.66 214.36 207.6C223.38 204.47 225.71 195.77 226.05 188.2L226.04 188.19Z" fill="white" stroke="#084AA6" stroke-width="2.73" stroke-linecap="round" stroke-linejoin="round"/>
<path d="M107.08 188.19C106.66 178.86 111.4 177.33 113.9 174.27C116.41 171.21 118.91 170.65 118.91 170.65C118.91 170.65 119.44 174.04 119.33 177.05C119.26 178.9 118.24 180.7 118.77 181.23C120.16 182.62 123.38 183.32 126.7 182.62C131.23 181.67 140.89 180.66 141.69 182.91C143.08 186.81 126.91 189.72 126.91 189.72C126.91 189.72 129.99 189.25 133.38 188.47C136.77 187.69 142.57 187.15 142.98 188.75C143.35 190.17 138.53 192.13 135.46 193.48C131.59 195.18 127.15 195.57 127.39 195.57C127.63 195.57 131.72 194.79 135.42 194.57C138.28 194.4 142.64 193 142.84 194.32C143.31 197.45 138.72 199.03 135.88 200.03C132.06 201.36 127.49 201.62 127.81 201.7C128.13 201.78 132.07 201.49 135.08 201.77C137.28 201.97 140.73 202.22 140.31 203.47C139.34 206.39 124.67 209.66 118.76 207.6C109.74 204.47 107.41 195.77 107.07 188.2L107.08 188.19Z" fill="white" stroke="#084AA6" stroke-width="2.73" stroke-linecap="round" stroke-linejoin="round"/>
<path d="M113.99 243.56L24.43 229.97L56.7 215L140.73 227.13L140.58 230.87L113.99 243.56Z" fill="#E6F1FF" stroke="#084AA6" stroke-width="2.73" stroke-linecap="round" stroke-linejoin="round"/>
<path d="M110.68 240.37C110.98 241.9 109.96 242.95 108.42 242.72L25.57 230.15C24.03 229.92 22.53 228.48 22.24 226.95L11.49 171.55C11.19 170.02 12.21 168.97 13.75 169.2L96.6 181.77C98.14 182 99.64 183.44 99.93 184.97L110.68 240.37Z" fill="#E6F1FF"/>
<path d="M110.68 240.37C110.98 241.9 109.96 242.95 108.42 242.72L25.57 230.15C24.03 229.92 22.53 228.48 22.24 226.95L11.49 171.55C11.19 170.02 12.21 168.97 13.75 169.2L96.6 181.77C98.14 182 99.64 183.44 99.93 184.97L110.68 240.37Z" stroke="#084AA6" stroke-width="2.73" stroke-linecap="round" stroke-linejoin="round"/>
<path d="M116.12 237.999L133.36 230.199" stroke="#084AA6" stroke-width="2.1" stroke-linecap="round" stroke-linejoin="round"/>
<path d="M181.02 172.89C185.61 173.14 191.13 175.98 192.38 176.65L181.02 172.89Z" fill="white"/>
<path d="M181.02 172.89C185.61 173.14 191.13 175.98 192.38 176.65" stroke="#084AA6" stroke-width="2.73" stroke-linecap="round" stroke-linejoin="round"/>
<path d="M179.02 205.47C179.02 205.47 184.53 204.47 185.79 203.72L179.02 205.47Z" fill="white"/>
<path d="M179.02 205.47C179.02 205.47 184.53 204.47 185.79 203.72" stroke="#084AA6" stroke-width="2.73" stroke-linecap="round" stroke-linejoin="round"/>
<path d="M221.49 167.51C225.81 166.95 233.89 166.95 237.84 169.77" stroke="#084AA6" stroke-width="2.73" stroke-linecap="round" stroke-linejoin="round"/>
<path d="M103.1 167.51C106.48 165.82 111.74 164.69 114.38 165.07" stroke="#084AA6" stroke-width="2.73" stroke-linecap="round" stroke-linejoin="round"/>
<path d="M176.63 92.29C176.63 95.75 173.12 93.65 168.66 93.65C164.2 93.65 160.48 95.89 160.48 92.29C160.48 90.03 164.09 85.75 168.55 85.75C173.01 85.75 176.62 90.03 176.62 92.29H176.63Z" fill="white" stroke="#084AA6" stroke-width="2.73" stroke-linecap="round" stroke-linejoin="round"/>
<path d="M184.91 77.1302C184.91 77.1302 182.74 83.6702 186.09 83.6702C190.42 83.6702 187.93 76.9502 187.93 76.9502" fill="white"/>
<path d="M184.91 77.1302C184.91 77.1302 182.74 83.6702 186.09 83.6702C190.42 83.6702 187.93 76.9502 187.93 76.9502" stroke="#084AA6" stroke-width="1.9" stroke-linecap="round" stroke-linejoin="round"/>
<path d="M114.07 24.5898L118.75 28.5798" stroke="#084AA6" stroke-width="2.73" stroke-linecap="round" stroke-linejoin="round"/>
<path d="M107.92 36.8301L114.35 37.4501" stroke="#084AA6" stroke-width="2.73" stroke-linecap="round" stroke-linejoin="round"/>
<path d="M112.25 50.0396L117.15 47.0996" stroke="#084AA6" stroke-width="2.73" stroke-linecap="round" stroke-linejoin="round"/>
</g>
</svg>
