<svg width="300" height="240" viewBox="0 0 300 240" fill="none" xmlns="http://www.w3.org/2000/svg">
<g clip-path="url(#clip0_5623_4033)">
<mask id="mask0_5623_4033" style="mask-type:luminance" maskUnits="userSpaceOnUse" x="0" y="0" width="300" height="240">
<path d="M300 0H0V240H300V0Z" fill="white"/>
</mask>
<g mask="url(#mask0_5623_4033)">
<path d="M228.53 61.11C235.02 58.61 244.08 53.91 254.73 64.97C265.38 76.04 277.36 87.82 281.17 86.79C270.82 91.22 253.39 91.73 243.52 85.89C233.65 80.05 229.93 72.49 228.79 72.05" fill="#80D7FF"/>
<path d="M228.53 61.11C235.02 58.61 244.08 53.91 254.73 64.97C265.38 76.04 277.36 87.82 281.17 86.79C270.82 91.22 253.39 91.73 243.52 85.89C233.65 80.05 229.93 72.49 228.79 72.05" stroke="#084AA6" stroke-width="3.3" stroke-linecap="round" stroke-linejoin="round"/>
<path d="M239.49 73.9404C243.63 78.5804 250.53 81.6704 254.37 82.1004L239.49 73.9404Z" fill="#80D7FF"/>
<path d="M239.49 73.9404C243.63 78.5804 250.53 81.6704 254.37 82.1004" stroke="#084AA6" stroke-width="3.3" stroke-linecap="round" stroke-linejoin="round"/>
<path d="M266.48 209.1L260.76 208.57L266.76 169.91L272.47 170.44L266.48 209.1Z" fill="#E6F1FF" stroke="#084AA6" stroke-width="3.34" stroke-linecap="round" stroke-linejoin="round"/>
<path d="M284.14 167.91C283.51 175.97 276.61 180.85 268.8 178.74L230.69 168.47C222.88 166.36 216.62 158.03 216.79 149.94L217.18 130.52C217.34 122.43 223.91 117.36 231.78 119.24L272.62 129.02C280.49 130.9 286.41 139.04 285.78 147.11L284.16 167.91H284.14Z" fill="#E6F1FF" stroke="#084AA6" stroke-width="3.34" stroke-linecap="round" stroke-linejoin="round"/>
<path d="M242.49 253.66C236.44 259.03 225.36 260.94 217.86 257.91L176.58 241.22C169.08 238.19 168.44 232.01 175.15 227.5L217.1 199.26C223.81 194.74 235.46 193.47 242.98 196.43L273.64 208.49C281.17 211.45 282.38 218.26 276.33 223.63L242.5 253.66H242.49Z" fill="#E6F1FF" stroke="#084AA6" stroke-width="3.34" stroke-linecap="round" stroke-linejoin="round"/>
<path d="M198.64 88.0295C203 88.2095 233.43 89.8195 233.81 89.8695C240.22 90.8495 253.93 101.54 254.01 101.64C259.89 109.07 256.39 123.83 256.39 125.47C256.39 133.29 258.4 179.54 259.62 188.79C259.88 189.8 266.36 204.41 256.25 233.42C246.14 262.44 223.86 246.75 194.63 246.46C180.79 246.32 180.43 211.3 181.1 209.95C181.77 208.6 203.41 183.9 200.89 173.81C196.98 158.16 185.48 159.16 182.43 144.48C179.64 134.99 183.55 116.28 184.38 108.74C185.22 101.2 190.8 93.9395 191.92 92.5495C193.04 91.1495 195.54 88.2295 198.62 88.0195" fill="#80D7FF"/>
<path d="M198.64 88.0295C203 88.2095 233.43 89.8195 233.81 89.8695C240.22 90.8495 253.93 101.54 254.01 101.64C259.89 109.07 256.39 123.83 256.39 125.47C256.39 133.29 258.4 179.54 259.62 188.79C259.88 189.8 266.36 204.41 256.25 233.42C246.14 262.44 223.86 246.75 194.63 246.46C180.79 246.32 180.43 211.3 181.1 209.95C181.77 208.6 203.41 183.9 200.89 173.81C196.98 158.16 185.48 159.16 182.43 144.48C179.64 134.99 183.55 116.28 184.38 108.74C185.22 101.2 190.8 93.9395 191.92 92.5495C193.04 91.1495 195.54 88.2295 198.62 88.0195" stroke="#084AA6" stroke-width="3.3" stroke-linecap="round" stroke-linejoin="round"/>
<path d="M195.08 93.4199C195.08 93.4199 239.99 97.5199 238.65 97.0699C237.31 96.6199 209.08 159.52 209.08 159.52C209.08 159.52 187.97 128.41 190.09 120.46C192.21 112.51 196.55 96.5099 195.09 93.4199H195.08Z" fill="#084AA6"/>
<path d="M221.67 71.6899C221.67 71.6899 222.22 82.6499 226.61 89.3899C230.99 96.1399 236.31 94.6699 236.31 94.6699C236.31 94.6699 224.32 114.12 208.71 112.65C193.59 111.23 196.38 94.3699 196.38 94.3699C196.38 94.3699 201.46 96.6299 206.19 87.5299C210.91 78.4199 208.74 71.1699 208.74 71.1699" fill="white"/>
<path d="M221.67 71.6899C221.67 71.6899 222.22 82.6499 226.61 89.3899C230.99 96.1399 236.31 94.6699 236.31 94.6699C236.31 94.6699 224.32 114.12 208.71 112.65C193.59 111.23 196.38 94.3699 196.38 94.3699C196.38 94.3699 201.46 96.6299 206.19 87.5299C210.91 78.4199 208.74 71.1699 208.74 71.1699" stroke="#084AA6" stroke-width="3.3" stroke-linecap="round" stroke-linejoin="round"/>
<path d="M231.68 93.2503C231.68 93.2503 223.7 130.01 215.94 139.12C208.18 148.23 210.61 157.82 210.61 157.82C200.83 134.88 200.04 92.2103 200.31 92.2403" stroke="#084AA6" stroke-width="3.3" stroke-linecap="round" stroke-linejoin="round"/>
<path d="M213.84 172.54C215.701 172.54 217.21 171.031 217.21 169.17C217.21 167.309 215.701 165.8 213.84 165.8C211.979 165.8 210.47 167.309 210.47 169.17C210.47 171.031 211.979 172.54 213.84 172.54Z" fill="white" stroke="#084AA6" stroke-width="3.3" stroke-linecap="round" stroke-linejoin="round"/>
<path d="M-48.81 173.48L59.64 128.21L292.31 225.93L195.29 285.82L-48.81 173.48Z" fill="white" stroke="#084AA6" stroke-width="3.3" stroke-linecap="round" stroke-linejoin="round"/>
<path d="M144.74 230.42L200.35 207.53L129.07 177.38L73.22 200.36C73.22 200.36 146.44 231.21 144.74 230.42Z" fill="#E6F1FF" stroke="#084AA6" stroke-width="3.27" stroke-linecap="round" stroke-linejoin="round"/>
<path d="M88.48 199.55L147.24 223.07L172.92 212.75L116.84 187.49L88.48 199.55Z" fill="#E6F1FF" stroke="#084AA6" stroke-width="1.88" stroke-linecap="round" stroke-linejoin="round"/>
<path d="M105.11 193.68L159.96 217.56" stroke="#084AA6" stroke-width="1.88" stroke-linecap="round" stroke-linejoin="round"/>
<path d="M95.65 197.43L154.34 220.25" stroke="#084AA6" stroke-width="1.88" stroke-linecap="round" stroke-linejoin="round"/>
<path d="M164.93 209.649L139.75 220.329" stroke="#084AA6" stroke-width="1.88" stroke-linecap="round" stroke-linejoin="round"/>
<path d="M159.71 206.88L133.06 217.64" stroke="#084AA6" stroke-width="1.88" stroke-linecap="round" stroke-linejoin="round"/>
<path d="M111.95 191.399L166.89 215.029" stroke="#084AA6" stroke-width="1.88" stroke-linecap="round" stroke-linejoin="round"/>
<path d="M152.38 203.62L125.08 214.71" stroke="#084AA6" stroke-width="1.88" stroke-linecap="round" stroke-linejoin="round"/>
<path d="M145.04 200.36L118.64 211.61" stroke="#084AA6" stroke-width="1.88" stroke-linecap="round" stroke-linejoin="round"/>
<path d="M137.71 197.1L110.57 208.43" stroke="#084AA6" stroke-width="1.88" stroke-linecap="round" stroke-linejoin="round"/>
<path d="M130.37 193.84L102.74 205.25" stroke="#084AA6" stroke-width="1.88" stroke-linecap="round" stroke-linejoin="round"/>
<path d="M123.04 190.58L95.82 202.24" stroke="#084AA6" stroke-width="1.88" stroke-linecap="round" stroke-linejoin="round"/>
<path d="M154.5 200.53L163.95 196.29L147.16 188.95L137.71 192.86L154.5 200.53Z" fill="#E6F1FF" stroke="#084AA6" stroke-width="1.88" stroke-linecap="round" stroke-linejoin="round"/>
<path d="M239.57 144.25L244.37 166.76L209.98 180.62C209.98 180.62 212.91 185.18 216.17 191.05C219.43 196.92 218.13 206.05 218.13 206.05C218.13 206.05 270.66 184.56 273.6 177.06C276.53 169.56 259.47 103.7 259.47 103.7C257.43 97.4599 251.14 94.9799 246.99 93.3699C245.18 92.6699 236.49 90.4199 236.49 90.4199" fill="#80D7FF"/>
<path d="M239.57 144.25L244.37 166.76L209.98 180.62C209.98 180.62 212.91 185.18 216.17 191.05C219.43 196.92 218.13 206.05 218.13 206.05C218.13 206.05 270.66 184.56 273.6 177.06C276.53 169.56 259.47 103.7 259.47 103.7C257.43 97.4599 251.14 94.9799 246.99 93.3699C245.18 92.6699 236.49 90.4199 236.49 90.4199" stroke="#084AA6" stroke-width="3.3" stroke-linecap="round" stroke-linejoin="round"/>
<path d="M214.21 185.019C213.53 184.749 209.32 185.349 206.39 184.529C203.46 183.709 190.25 181.599 186.83 181.919C183.41 182.249 177.78 185.639 175.42 187.949C172.7 190.609 167.22 199.139 168.68 200.609C170.15 202.079 175.31 197.569 175.31 197.569C175.31 197.569 170.69 204.929 172.16 206.049C175.85 208.879 181.18 199.199 181.18 199.199C181.18 199.199 176.2 206.829 178.35 207.679C181.94 209.089 186.99 202.629 186.99 202.629C186.99 202.629 182.81 207.899 185.85 209.149C187.4 209.789 194.49 203.549 195.3 202.899C196.12 202.249 200.08 203.059 204.32 202.249C208.56 201.429 211.22 198.609 211.38 198.119C211.54 197.629 220.89 198.229 220.4 198.229C219.91 198.229 224.96 189.259 214.21 185.029V185.019Z" fill="white" stroke="#084AA6" stroke-width="3.34" stroke-linecap="round" stroke-linejoin="round"/>
<path d="M186.99 202.62C186.99 202.62 189.44 198.54 190.58 197.4C191.72 196.26 193.79 195.61 195.2 194.74" fill="white"/>
<path d="M186.99 202.62C186.99 202.62 189.44 198.54 190.58 197.4C191.72 196.26 193.79 195.61 195.2 194.74" stroke="#084AA6" stroke-width="2.94" stroke-linecap="round" stroke-linejoin="round"/>
<path d="M181.17 199.2C182.47 197.24 184.35 194.69 185.73 193.88C187.58 192.79 189.75 191.49 189.75 191.49" fill="white"/>
<path d="M181.17 199.2C182.47 197.24 184.35 194.69 185.73 193.88C187.58 192.79 189.75 191.49 189.75 191.49" stroke="#084AA6" stroke-width="2.94" stroke-linecap="round" stroke-linejoin="round"/>
<path d="M174.44 198.33C176.07 196.37 178.79 192.9 179.76 191.59C180.74 190.29 184.22 188.44 184.22 188.44" fill="white"/>
<path d="M174.44 198.33C176.07 196.37 178.79 192.9 179.76 191.59C180.74 190.29 184.22 188.44 184.22 188.44" stroke="#084AA6" stroke-width="2.94" stroke-linecap="round" stroke-linejoin="round"/>
<path d="M215.03 182.57C213.73 182.41 209.32 183.39 209.32 183.39C209.32 183.39 214.37 187.03 215.19 192.9C216.01 198.77 213.4 203.44 213.4 203.44L220.57 201.48C220.57 201.48 222.2 194.63 220.57 189.25C218.94 183.87 215.03 182.57 215.03 182.57Z" fill="white" stroke="#084AA6" stroke-width="3.34" stroke-linecap="round" stroke-linejoin="round"/>
<path d="M239.37 109.8L237.78 89.32L227.41 87.46C227.41 87.46 218.56 109.62 215.95 118.54C213.14 128.15 209.76 160.52 209.76 160.52C209.76 160.52 217.74 146.6 223.73 138.77C229.72 130.93 235.13 120.14 235.13 120.14L228.24 114.43C235.11 111.45 239.35 109.81 239.35 109.81L239.37 109.8Z" fill="#80D7FF" stroke="#084AA6" stroke-width="3.3" stroke-linecap="round" stroke-linejoin="round"/>
<path d="M244.37 166.76L250.4 164.32" stroke="#084AA6" stroke-width="3.3" stroke-linecap="round" stroke-linejoin="round"/>
<path d="M198.64 88.0301C191.95 87.7601 186 89.6501 182.5 93.9001C179 98.1501 164.83 142.45 165.41 141.33L130.79 166.55C130.79 166.55 142.8 163.76 148.38 170.74C153.96 177.72 153.41 179.4 153.41 179.4C153.41 179.4 174.44 165.35 178.07 161.44C181.7 157.53 184.59 150.83 184.59 150.83" fill="#80D7FF"/>
<path d="M198.64 88.0301C191.95 87.7601 186 89.6501 182.5 93.9001C179 98.1501 164.83 142.45 165.41 141.33L130.79 166.55C130.79 166.55 142.8 163.76 148.38 170.74C153.96 177.72 153.41 179.4 153.41 179.4C153.41 179.4 174.44 165.35 178.07 161.44C181.7 157.53 184.59 150.83 184.59 150.83" stroke="#084AA6" stroke-width="3.3" stroke-linecap="round" stroke-linejoin="round"/>
<path d="M200.74 107.99C201.11 98.3597 206.47 87.7197 206.47 87.7197L196.94 88.0897C196.94 88.0897 183 110.13 184.91 110.78C186.43 111.3 188.92 112.44 192.57 114.07C189.45 115.85 185.82 117.83 185.85 118.2C185.91 118.87 188.22 126.9 192.31 134.66C196.4 142.42 209.77 160.52 209.77 160.52C209.77 160.52 200.48 114.65 200.74 108V107.99Z" fill="#80D7FF" stroke="#084AA6" stroke-width="3.3" stroke-linecap="round" stroke-linejoin="round"/>
<path d="M137.23 163.65C137.23 163.65 130.79 164.9 126.81 167.22C124.8 168.39 121.23 170.94 120.36 177.51C119.55 183.63 119.74 186.23 121.1 187.37C122.47 188.51 124.2 184.94 124.2 184.94C124.2 184.94 124.45 189.37 126.19 189.51C127.93 189.65 129.91 186.65 129.91 186.65C129.91 186.65 130.9 190.22 132.52 190.22C134.14 190.22 135.5 185.93 135.5 185.93C135.5 185.93 135.86 191.5 137.73 191.5C141.33 191.5 141.33 180.07 142.94 178.78C144.55 177.49 146.66 177.21 146.66 177.21C146.66 177.21 146.04 183.78 144.92 187.93C144.07 191.07 147.65 192.5 148.64 190.64C149.63 188.78 151.25 185.92 152.36 183.5C153.48 181.07 155.21 173.93 152.73 169.21C150.25 164.49 142.06 162.78 137.22 163.64L137.23 163.65Z" fill="white" stroke="#084AA6" stroke-width="3" stroke-linecap="round" stroke-linejoin="round"/>
<path d="M135.62 186.8C135.62 186.8 136.24 178.37 137.11 175.08L135.62 186.8Z" fill="white"/>
<path d="M135.62 186.8C135.62 186.8 136.24 178.37 137.11 175.08" stroke="#084AA6" stroke-width="2.7" stroke-linecap="round" stroke-linejoin="round"/>
<path d="M129.91 186.66C129.91 186.66 130.53 177.799 131.77 174.229L129.91 186.66Z" fill="white"/>
<path d="M129.91 186.66C129.91 186.66 130.53 177.799 131.77 174.229" stroke="#084AA6" stroke-width="2.7" stroke-linecap="round" stroke-linejoin="round"/>
<path d="M124.2 184.94C123.83 184.8 125.57 175.51 126.31 173.37L124.2 184.94Z" fill="white"/>
<path d="M124.2 184.94C123.83 184.8 125.57 175.51 126.31 173.37" stroke="#084AA6" stroke-width="2.7" stroke-linecap="round" stroke-linejoin="round"/>
<path d="M184.59 150.82C181.24 145.61 180.87 134.25 181.24 129.97L184.59 150.82Z" fill="#80D7FF"/>
<path d="M184.59 150.82C181.24 145.61 180.87 134.25 181.24 129.97" stroke="#084AA6" stroke-width="3.3" stroke-linecap="round" stroke-linejoin="round"/>
<path d="M166.92 31.9102C166.92 31.9102 147.74 34.5802 150.2 55.3402C152.21 72.2402 167.47 80.0702 167.47 80.0702L166.91 31.9102H166.92Z" fill="#80D7FF" stroke="#084AA6" stroke-width="3.3" stroke-linecap="round" stroke-linejoin="round"/>
<path d="M159.61 58.4603C160.31 66.2503 163.7 74.8503 166.85 85.1903C171.65 100.92 186.72 113.43 202 107.91C216.23 102.77 225.06 88.7403 226.96 75.0703C228.23 65.9503 225.86 49.6003 220.28 40.6603C214.7 31.7203 192.04 21.1403 178.47 29.5903C164.9 38.0403 158.35 44.3803 159.61 58.4603Z" fill="white" stroke="#084AA6" stroke-width="3.3" stroke-linecap="round" stroke-linejoin="round"/>
<path d="M164.96 31.6699C164.04 33.1199 170.68 51.7099 191 57.9799C211.31 64.2499 229.4 73.3099 229.4 73.3099C229.4 73.3099 239.98 33.8099 210.02 19.6399C191.75 10.9999 171.73 20.9599 164.96 31.6699Z" fill="#80D7FF" stroke="#084AA6" stroke-width="3.3" stroke-linecap="round" stroke-linejoin="round"/>
<path d="M197.43 70.81C198.22 71.98 197.9 73.57 196.73 74.36C195.56 75.15 193.97 74.83 193.18 73.66C192.39 72.49 192.71 70.9 193.88 70.11C195.05 69.32 196.64 69.64 197.43 70.81Z" fill="#084AA6"/>
<path d="M173.3 73.8696C174.09 75.0396 173.77 76.6296 172.6 77.4196C171.43 78.2096 169.84 77.8896 169.05 76.7196C168.26 75.5496 168.58 73.9596 169.75 73.1696C170.92 72.3796 172.51 72.6996 173.3 73.8696Z" fill="#084AA6"/>
<path d="M185.99 39.9902C191.99 45.5302 203.44 50.5402 210.25 50.0202" stroke="#084AA6" stroke-width="3.3" stroke-linecap="round" stroke-linejoin="round"/>
<path d="M194.94 33.3301C199.39 37.7801 207.25 41.9701 212.77 41.4801" stroke="#084AA6" stroke-width="3.3" stroke-linecap="round" stroke-linejoin="round"/>
<path d="M178.44 78.8398C176.74 85.8198 173.48 87.2999 173.48 87.2999L180.14 88.8798" fill="white"/>
<path d="M178.44 78.8398C176.74 85.8198 173.48 87.2999 173.48 87.2999L180.14 88.8798" stroke="#084AA6" stroke-width="3.3" stroke-linecap="round" stroke-linejoin="round"/>
<path d="M216.37 69.7503C221.01 61.7003 228.14 64.5203 229.14 69.3103C230.13 74.1003 226.83 78.8303 221.77 79.8803" fill="white"/>
<path d="M216.37 69.7503C221.01 61.7003 228.14 64.5203 229.14 69.3103C230.13 74.1003 226.83 78.8303 221.77 79.8803" stroke="#084AA6" stroke-width="3.3" stroke-linecap="round" stroke-linejoin="round"/>
<path d="M225.71 81.1202C226.03 82.8902 224.86 84.5902 223.08 84.9102C221.31 85.2302 219.61 84.0602 219.29 82.2802C218.97 80.5102 220.14 78.8102 221.92 78.4902C223.69 78.1702 225.39 79.3402 225.71 81.1202Z" fill="white" stroke="#084AA6" stroke-width="3.3" stroke-linecap="round" stroke-linejoin="round"/>
<path d="M195.42 102.9C198.452 102.9 200.91 101.27 200.91 99.2601C200.91 97.2498 198.452 95.6201 195.42 95.6201C192.388 95.6201 189.93 97.2498 189.93 99.2601C189.93 101.27 192.388 102.9 195.42 102.9Z" fill="white" stroke="#084AA6" stroke-width="2.95" stroke-linecap="round" stroke-linejoin="round"/>
<path d="M164.73 60.9697L168.67 57.1396" stroke="#084AA6" stroke-width="2.46" stroke-linecap="round" stroke-linejoin="round"/>
<path d="M104.59 78.8997C104.59 78.8997 66.56 68.7197 65.66 68.7197C64.76 68.7197 14.46 83.0897 14.46 83.0897V113.03L24.73 116.09C18.69 117.81 14.46 119.02 14.46 119.02L24.73 122.08C18.69 123.8 14.46 125.01 14.46 125.01V136.99L24.73 140.05C18.69 141.77 14.46 142.98 14.46 142.98L24.73 146.04C18.69 147.76 14.46 148.97 14.46 148.97L24.73 152.03C18.69 153.75 14.46 154.96 14.46 154.96V170.41L56.68 185.5L104.59 168.73V150.76C104.59 150.76 100.46 149.65 94.88 148.17L104.59 144.77V138.78C104.59 138.78 100.46 137.67 94.88 136.19L104.59 132.79V126.8C104.59 126.8 100.46 125.69 94.88 124.21L104.59 120.81V114.82C104.59 114.82 100.46 113.71 94.88 112.23L104.59 108.83C104.59 108.83 100.46 107.72 94.88 106.24L104.59 102.84V78.8797V78.8997Z" fill="white" stroke="#084AA6" stroke-width="3.07" stroke-linecap="round" stroke-linejoin="round"/>
<path d="M14.46 83.0995C14.46 83.0995 64.77 68.7295 65.66 68.7295C66.55 68.7295 104.59 78.9095 104.59 78.9095L56.68 95.6795L14.46 83.0995Z" fill="white" stroke="#084AA6" stroke-width="3.07" stroke-linecap="round" stroke-linejoin="round"/>
<path d="M56.68 95.6699V185.5" stroke="#084AA6" stroke-width="3.07" stroke-linecap="round" stroke-linejoin="round"/>
<path d="M37.81 95.9701L14.46 89.0801" stroke="#084AA6" stroke-width="3.07" stroke-linecap="round" stroke-linejoin="round"/>
<path d="M52.79 112.44L29.43 105.55" stroke="#084AA6" stroke-width="3.07" stroke-linecap="round" stroke-linejoin="round"/>
<path d="M52.79 131.01L29.43 124.12" stroke="#084AA6" stroke-width="3.07" stroke-linecap="round" stroke-linejoin="round"/>
<path d="M38.71 136.1L15.35 129.21" stroke="#084AA6" stroke-width="3.07" stroke-linecap="round" stroke-linejoin="round"/>
<path d="M52.79 168.74L29.43 161.85" stroke="#084AA6" stroke-width="3.07" stroke-linecap="round" stroke-linejoin="round"/>
<path d="M64.16 116.929L87.52 109.069" stroke="#084AA6" stroke-width="3.07" stroke-linecap="round" stroke-linejoin="round"/>
<path d="M64.16 135.5L87.52 127.63" stroke="#084AA6" stroke-width="3.07" stroke-linecap="round" stroke-linejoin="round"/>
<path d="M74.18 143.18L97.54 135.31" stroke="#084AA6" stroke-width="3.07" stroke-linecap="round" stroke-linejoin="round"/>
<path d="M64.16 173.229L87.52 165.359" stroke="#084AA6" stroke-width="3.07" stroke-linecap="round" stroke-linejoin="round"/>
<path d="M59.11 142.729L131.79 171.029C131.79 171.029 145.59 230.809 144.74 230.419C143.89 230.019 74.07 200.759 73.22 200.359C72.37 199.959 59.1 142.729 59.1 142.729H59.11Z" fill="#E6F1FF" stroke="#084AA6" stroke-width="3.27" stroke-linecap="round" stroke-linejoin="round"/>
<path d="M102.58 188.91C101.61 191 99.13 191.9 97.04 190.93C94.95 189.96 94.05 187.48 95.02 185.39C95.99 183.3 98.47 182.4 100.56 183.37C102.65 184.34 103.55 186.82 102.58 188.91Z" fill="white" stroke="#084AA6" stroke-width="3.06" stroke-linecap="round" stroke-linejoin="round"/>
<path d="M137.12 27.7104C137.12 27.7104 127.24 16.9804 124.45 22.8304C121.66 28.6804 134.88 31.0204 134.88 31.0204" fill="white"/>
<path d="M137.12 27.7104C137.12 27.7104 127.24 16.9804 124.45 22.8304C121.66 28.6804 134.88 31.0204 134.88 31.0204" stroke="#084AA6" stroke-width="2.56" stroke-linecap="round" stroke-linejoin="round"/>
<path d="M125.32 47.4503C125.32 47.4503 111.87 41.7903 111.77 48.2703C111.66 54.7503 124.66 51.3803 124.66 51.3803" fill="white"/>
<path d="M125.32 47.4503C125.32 47.4503 111.87 41.7903 111.77 48.2703C111.66 54.7503 124.66 51.3803 124.66 51.3803" stroke="#084AA6" stroke-width="2.56" stroke-linecap="round" stroke-linejoin="round"/>
<path d="M131.74 68.1803C131.74 68.1803 117.16 67.7303 119.39 73.8103C121.62 79.8903 132.53 72.0903 132.53 72.0903" fill="white"/>
<path d="M131.74 68.1803C131.74 68.1803 117.16 67.7303 119.39 73.8103C121.62 79.8903 132.53 72.0903 132.53 72.0903" stroke="#084AA6" stroke-width="2.56" stroke-linecap="round" stroke-linejoin="round"/>
<path d="M261.17 46.4996C261.17 46.4996 275.29 50.1596 274.46 43.7396C273.63 37.3196 261.26 42.5096 261.26 42.5096" fill="white"/>
<path d="M261.17 46.4996C261.17 46.4996 275.29 50.1596 274.46 43.7396C273.63 37.3196 261.26 42.5096 261.26 42.5096" stroke="#084AA6" stroke-width="2.56" stroke-linecap="round" stroke-linejoin="round"/>
<path d="M256.9 25.15C256.9 25.15 270.59 20.11 266.25 15.3C261.91 10.49 254.71 21.82 254.71 21.82" fill="white"/>
<path d="M256.9 25.15C256.9 25.15 270.59 20.11 266.25 15.3C261.91 10.49 254.71 21.82 254.71 21.82" stroke="#084AA6" stroke-width="2.56" stroke-linecap="round" stroke-linejoin="round"/>
<path d="M208.21 81.4597C208.21 81.4597 206.82 91.7497 211.29 90.6197C215.76 89.4897 211.04 81.1797 211.04 81.1797" fill="white"/>
<path d="M208.21 81.4597C208.21 81.4597 206.82 91.7497 211.29 90.6197C215.76 89.4897 211.04 81.1797 211.04 81.1797" stroke="#084AA6" stroke-width="2.35" stroke-linecap="round" stroke-linejoin="round"/>
</g>
</g>
<defs>
<clipPath id="clip0_5623_4033">
<rect width="300" height="240" fill="white"/>
</clipPath>
</defs>
</svg>
