<svg width="300" height="240" viewBox="0 0 300 240" fill="none" xmlns="http://www.w3.org/2000/svg">
<mask id="mask0_5623_4118" style="mask-type:luminance" maskUnits="userSpaceOnUse" x="0" y="0" width="300" height="240">
<path d="M300 0H0V240H300V0Z" fill="white"/>
</mask>
<g mask="url(#mask0_5623_4118)">
<path d="M75.77 229.909C75.77 229.909 72.86 232.809 68.24 235.759C66.04 237.159 61.66 237.959 58.23 239.759C47.56 245.349 46.33 247.939 44.22 246.729C42.67 245.839 42.86 242.139 44.6 238.999C46.19 236.149 50.71 233.669 49.11 230.819C46.53 226.219 35.19 226.079 31.63 225.629C28.07 225.179 16.54 225.649 11.87 224.499C7.19 223.349 7.8 220.919 10.05 219.819C11.18 219.269 14.57 218.739 18.5 217.749C19.9 217.399 16.21 216.759 18.79 214.309C20.32 212.859 28.01 212.989 28.01 212.989C28.01 212.989 26.24 211.509 31.86 210.009C37.48 208.499 44.12 208.519 52.1 209.809C60.08 211.109 65.37 216.599 65.37 216.599" fill="white"/>
<path d="M75.77 229.909C75.77 229.909 72.86 232.809 68.24 235.759C66.04 237.159 61.66 237.959 58.23 239.759C47.56 245.349 46.33 247.939 44.22 246.729C42.67 245.839 42.86 242.139 44.6 238.999C46.19 236.149 50.71 233.669 49.11 230.819C46.53 226.219 35.19 226.079 31.63 225.629C28.07 225.179 16.54 225.649 11.87 224.499C7.19 223.349 7.8 220.919 10.05 219.819C11.18 219.269 14.57 218.739 18.5 217.749C19.9 217.399 16.21 216.759 18.79 214.309C20.32 212.859 28.01 212.989 28.01 212.989C28.01 212.989 26.24 211.509 31.86 210.009C37.48 208.499 44.12 208.519 52.1 209.809C60.08 211.109 65.37 216.599 65.37 216.599" stroke="#084AA6" stroke-width="2.93" stroke-linecap="round" stroke-linejoin="round"/>
<path d="M19.39 217.85C19.39 217.85 28.24 217.03 31.51 217.45C34.78 217.87 44.19 219.76 44.19 219.76" fill="white"/>
<path d="M19.39 217.85C19.39 217.85 28.24 217.03 31.51 217.45C34.78 217.87 44.19 219.76 44.19 219.76" stroke="#084AA6" stroke-width="2.53" stroke-miterlimit="10" stroke-linecap="round"/>
<path d="M28.01 212.97C28.62 212.91 34.15 213.34 36.97 213.7C39.79 214.06 45.8 215.38 45.8 215.38" fill="white"/>
<path d="M28.01 212.97C28.62 212.91 34.15 213.34 36.97 213.7C39.79 214.06 45.8 215.38 45.8 215.38" stroke="#084AA6" stroke-width="2.53" stroke-miterlimit="10" stroke-linecap="round"/>
<path d="M37.16 209.829C37.16 209.829 48.72 211.409 49.85 211.979L37.16 209.829Z" fill="white"/>
<path d="M37.16 209.829C37.16 209.829 48.72 211.409 49.85 211.979" stroke="#084AA6" stroke-width="2.53" stroke-linecap="round" stroke-linejoin="round"/>
<path d="M66.61 207.14L60.26 210.52L72.47 237.23L82.28 233.06" fill="white"/>
<path d="M66.61 207.14L60.26 210.52L72.47 237.23L82.28 233.06" stroke="#084AA6" stroke-width="2.93" stroke-linecap="round" stroke-linejoin="round"/>
<path d="M133.44 203.1L131.77 224.37C130.49 233.17 117.35 278.7 116.4 280.11C115.71 281.14 129.93 285.44 146.26 289.06L151.31 278.77L154.8 290.85C158.25 291.53 161.69 292.14 165.02 292.67C194.07 297.25 219.51 288.41 219.51 288.41C219.51 288.41 222.54 253.28 225.22 237.65C227.9 222.02 229.48 195.35 229.48 195.35C229.48 195.35 258.69 199.67 262.59 191.73C267.15 182.46 249.76 154.03 250.84 150.89C255.05 138.75 240.71 129.06 235.52 127.63C233.73 127.14 217.62 119.3 217.49 119.25C215.27 118.39 177.94 108.66 173.12 107.65C163.08 105.56 150.93 103.84 144.63 110.68C138.33 117.52 115.26 171.71 111.86 175.22C108.45 178.73 64.25 206.35 64.25 206.35L79.27 239.33C79.27 239.33 123.29 213.23 127.23 211.27C131.18 209.31 133.44 203.11 133.44 203.11V203.1Z" fill="#80D7FF" stroke="#084AA6" stroke-width="2.93" stroke-linecap="round" stroke-linejoin="round"/>
<path d="M206.77 95.4397C206.77 95.4397 203.1 113.77 207.04 121.95C210.99 130.14 210.58 129.93 210.58 129.93C210.58 129.93 186.9 152.61 177.04 149.97C164.16 146.53 164.82 125.36 164.82 125.36C164.82 125.36 170.52 127.13 177.11 117.6C183.7 108.07 181.69 93.9697 181.69 93.9697" fill="white"/>
<path d="M206.77 95.4397C206.77 95.4397 203.1 113.77 207.04 121.95C210.99 130.14 210.58 129.93 210.58 129.93C210.58 129.93 186.9 152.61 177.04 149.97C164.16 146.53 164.82 125.36 164.82 125.36C164.82 125.36 170.52 127.13 177.11 117.6C183.7 108.07 181.69 93.9697 181.69 93.9697" stroke="#084AA6" stroke-width="2.94" stroke-linecap="round" stroke-linejoin="round"/>
<path d="M165.49 121.57C165.49 121.57 215.23 132.59 213.78 131.9C212.33 131.2 167.19 197.97 167.19 197.97C167.19 197.97 152.5 159.77 156.01 151.16C159.52 142.55 166.68 125.25 165.48 121.58L165.49 121.57Z" fill="white"/>
<path d="M206.52 126.62C206.52 126.62 192.32 166.67 182.32 175.77C172.33 184.86 165.58 192.58 165.58 192.58C157.9 165.48 171.22 120.93 171.52 121" stroke="#084AA6" stroke-width="2.94" stroke-linecap="round" stroke-linejoin="round"/>
<path d="M177.05 125.61L194.66 128.9L186.18 138.01L177.69 136.93L177.05 125.61Z" fill="#084AA6"/>
<path d="M177.69 136.93C177.69 136.93 165.74 158.92 160.72 171.61L166.86 195.13L181.98 179.03C181.98 179.03 185.06 144.67 186.17 138.02L177.69 136.94V136.93Z" fill="#084AA6"/>
<path d="M168.51 137.239C172.02 126.939 178.47 110.889 178.47 110.889L165.39 107.189L150.14 125.749C150.14 125.749 156.92 129.139 160.55 131.819C157.63 132.129 150.18 133.459 150.12 133.879C150.02 134.639 150.3 154.169 152.92 163.719C155.54 173.269 167.19 197.979 167.19 197.979C167.19 197.979 163.07 153.219 168.51 137.249V137.239Z" fill="#80D7FF" stroke="#084AA6" stroke-width="2.94" stroke-linecap="round" stroke-linejoin="round"/>
<path d="M171.04 113.35L179.32 109.88C179.32 109.88 177.88 119.8 184.18 127.05L168.51 137.24C168.51 137.24 166.99 122.5 171.04 113.35Z" fill="white" stroke="#084AA6" stroke-width="2.94" stroke-linecap="round" stroke-linejoin="round"/>
<path d="M184.18 127.04L196.12 141.98C196.37 142.12 202.88 135.42 206.48 130.41C210.23 125.2 214.35 119.16 214.19 119.11L208.46 110.8C208.46 110.8 198.41 117.88 194.42 120.5C190.43 123.13 184.18 127.03 184.18 127.03V127.04Z" fill="white" stroke="#084AA6" stroke-width="2.94" stroke-linecap="round" stroke-linejoin="round"/>
<path d="M177.12 17.5299C171.53 16.9699 167.6 13.6799 167.6 13.6799C166 18.6099 168.86 22.7199 171.23 25.1199C171.05 25.4599 170.88 25.8099 170.71 26.1699C163.43 41.6999 172.32 56.5399 172.32 56.5399L194.57 17.7899C194.57 17.7899 185.1 5.82992 177.11 17.5299H177.12Z" fill="#084AA6" stroke="#084AA6" stroke-width="2.45" stroke-linecap="round" stroke-linejoin="round"/>
<path d="M173.21 36.3098C169.4 43.8598 166.97 59.2498 164.82 70.7398C159.41 99.5798 168.01 108.41 181.85 111.66C198.11 115.49 211.79 110.15 222.88 93.4198C228.38 85.1198 236.42 69.4198 236.4 58.0298C236.38 46.6398 221.64 23.9898 204.36 23.9898C187.09 23.9898 180.1 22.6698 173.22 36.3098H173.21Z" fill="white" stroke="#084AA6" stroke-width="2.94" stroke-linecap="round" stroke-linejoin="round"/>
<path d="M232.83 77.9802C232.83 77.9802 257.09 54.9902 239.25 30.0902C227.38 13.5302 193.1 7.85016 188.3 19.9902C187.66 21.6002 197.61 25.4302 201.37 44.9102C201.37 44.9102 205.38 43.3602 206.99 38.1302C206.99 38.1302 210.93 46.4602 218.65 50.6202C227.77 55.5302 225.54 63.3302 225.57 65.5102C225.6 67.6902 222.57 80.6202 222.57 80.6202C222.57 80.6202 229.44 74.6602 231.9 76.0602C234.36 77.4602 232.84 77.9902 232.84 77.9902" fill="#084AA6"/>
<path d="M232.83 77.9802C232.83 77.9802 257.09 54.9902 239.25 30.0902C227.38 13.5302 193.1 7.85016 188.3 19.9902C187.66 21.6002 197.61 25.4302 201.37 44.9102C201.37 44.9102 205.38 43.3602 206.99 38.1302C206.99 38.1302 210.93 46.4602 218.65 50.6202C227.77 55.5302 225.54 63.3302 225.57 65.5102C225.6 67.6902 222.57 80.6202 222.57 80.6202C222.57 80.6202 229.44 74.6602 231.9 76.0602C234.36 77.4602 232.84 77.9902 232.84 77.9902" stroke="#084AA6" stroke-width="2.45" stroke-linecap="round" stroke-linejoin="round"/>
<path d="M230.07 75.2297C235.96 74.8097 240.67 79.4397 238.84 84.3997C237.01 89.3597 228.71 92.3897 223.41 89.5497" fill="white"/>
<path d="M230.07 75.2297C235.96 74.8097 240.67 79.4397 238.84 84.3997C237.01 89.3597 228.71 92.3897 223.41 89.5497" stroke="#084AA6" stroke-width="2.94" stroke-linecap="round" stroke-linejoin="round"/>
<path d="M183.37 61.5098C177.63 65.2798 172.62 69.4698 170.8 69.8898L175.64 76.1398" fill="white"/>
<path d="M183.37 61.5098C177.63 65.2798 172.62 69.4698 170.8 69.8898L175.64 76.1398" stroke="#084AA6" stroke-width="2.94" stroke-linecap="round" stroke-linejoin="round"/>
<path d="M208.68 64.16C208.73 65.6 207.6 66.8 206.17 66.85C204.73 66.9 203.53 65.77 203.48 64.34C203.43 62.9 204.56 61.7 205.99 61.65C207.43 61.6 208.63 62.73 208.68 64.16Z" fill="#084AA6"/>
<path d="M181.92 57.2196C181.97 58.6596 180.84 59.8596 179.41 59.9096C177.97 59.9596 176.77 58.8296 176.72 57.3996C176.67 55.9596 177.8 54.7596 179.23 54.7096C180.67 54.6596 181.87 55.7896 181.92 57.2196Z" fill="#084AA6"/>
<path d="M225.97 84.5395C227.04 82.6795 228.74 82.3895 230.1 82.2295L225.97 84.5395Z" fill="white"/>
<path d="M225.97 84.5395C227.04 82.6795 228.74 82.3895 230.1 82.2295" stroke="#084AA6" stroke-width="2.94" stroke-linecap="round" stroke-linejoin="round"/>
<path d="M217.95 28.0703C221.91 37.7603 226.53 42.3303 229.85 44.4903" stroke="white" stroke-width="2.48" stroke-linecap="round" stroke-linejoin="round"/>
<path d="M210.67 27.8096C214.27 37.5996 218.71 42.2996 221.95 44.5496" stroke="white" stroke-width="2.48" stroke-linecap="round" stroke-linejoin="round"/>
<path d="M165.88 213.57C165.59 215.82 163.53 217.42 161.28 217.13C159.03 216.84 157.43 214.78 157.72 212.529C158.01 210.279 160.07 208.68 162.32 208.97C164.57 209.26 166.17 211.32 165.88 213.57Z" fill="white" stroke="#084AA6" stroke-width="2.94" stroke-linecap="round" stroke-linejoin="round"/>
<path d="M133.59 201.89C133.59 201.89 137.21 159.15 137.31 155.55L133.59 201.89Z" fill="#80D7FF"/>
<path d="M133.59 201.89C133.59 201.89 137.21 159.15 137.31 155.55" stroke="#084AA6" stroke-width="2.94" stroke-linecap="round" stroke-linejoin="round"/>
<path d="M222.12 140.95C222.3 140.44 222.48 121.05 222.48 121.05L213.15 116.43C213.15 116.43 198.89 137.17 193.67 144.95C187.37 154.34 167.19 197.97 167.19 197.97C167.19 197.97 181.48 186.36 189.62 178.75C198.88 170.09 214.91 151.3 214.91 151.3L209.06 142.08C217.37 140.49 222.12 140.96 222.12 140.96V140.95Z" fill="#80D7FF" stroke="#084AA6" stroke-width="2.94" stroke-linecap="round" stroke-linejoin="round"/>
<path d="M234.94 70.2003C234.8 71.2603 233.83 72.0103 232.77 71.8803C231.71 71.7403 230.96 70.7703 231.09 69.7103C231.23 68.6503 232.2 67.9003 233.26 68.0303C234.32 68.1703 235.07 69.1403 234.94 70.2003Z" fill="#084AA6"/>
<path d="M260.55 136.659L254.04 126.149L232.56 140.409L238.82 148.919" fill="white"/>
<path d="M260.55 136.659L254.04 126.149L232.56 140.409L238.82 148.919" stroke="#084AA6" stroke-width="2.94" stroke-linecap="round" stroke-linejoin="round"/>
<path d="M243.58 117.56L253.74 134.53L236.37 145.35L228.88 124.32L243.58 117.56Z" fill="white" stroke="#084AA6" stroke-width="2.83" stroke-linecap="round" stroke-linejoin="round"/>
<path d="M218.179 67.8761L207.349 110.801C206.585 113.832 208.422 116.909 211.453 117.674L229.119 122.131C232.15 122.896 235.227 121.058 235.992 118.027L246.821 75.1025C247.586 72.0715 245.749 68.9946 242.718 68.2299L225.052 63.7727C222.021 63.008 218.944 64.8452 218.179 67.8761Z" fill="#E6F1FF"/>
<path d="M218.179 67.8761L207.349 110.801C206.585 113.832 208.422 116.909 211.453 117.674L229.119 122.131C232.15 122.896 235.227 121.058 235.992 118.027L246.821 75.1025C247.586 72.0715 245.749 68.9946 242.718 68.2299L225.052 63.7727C222.021 63.008 218.944 64.8452 218.179 67.8761Z" stroke="#084AA6" stroke-width="2.83" stroke-linecap="round" stroke-linejoin="round"/>
<path d="M243.58 74.6291C243.28 75.8191 242.08 76.5391 240.89 76.2391C239.7 75.9391 238.98 74.7391 239.28 73.5491C239.58 72.3591 240.78 71.6391 241.97 71.9391C243.16 72.2391 243.88 73.4391 243.58 74.6291Z" fill="white"/>
<path d="M243.58 74.6291C243.28 75.8191 242.08 76.5391 240.89 76.2391C239.7 75.9391 238.98 74.7391 239.28 73.5491C239.58 72.3591 240.78 71.6391 241.97 71.9391C243.16 72.2391 243.88 73.4391 243.58 74.6291Z" stroke="#084AA6" stroke-width="2.12" stroke-linecap="round" stroke-linejoin="round"/>
<path d="M218.96 78.71L215.84 91.1" stroke="#084AA6" stroke-width="1.41" stroke-linecap="round" stroke-linejoin="round"/>
<path d="M244.96 122.99C244.96 122.99 246.43 114.26 246.91 111.65C248.91 100.79 246.19 99.1199 243.1 96.4799C240.01 93.8399 239.13 92.5799 233.49 88.6399C231.57 87.2899 229.36 86.5599 227.19 85.6199C224.46 84.4399 220.06 83.0099 220.18 85.6899C220.35 89.8199 224.8 89.9998 228.11 93.1298C230.65 95.5299 232.92 98.1699 232.92 98.1699C232.92 98.1699 225.9 94.6098 223.78 94.2399C222.56 94.0198 220.03 93.8398 218.71 93.5198C215.48 92.7498 213.1 93.7499 212.56 94.7399C211.42 96.8398 216.73 100.4 221.46 101.25C223.57 101.63 226.58 103.58 226.58 103.58C226.58 103.58 224.2 102.41 221.65 101.64C220.64 101.34 213.2 97.9398 212.11 100.52C211.37 102.28 214.95 106.33 220.08 107.95C223.48 109.03 226.07 111.56 226.07 111.56C226.07 111.56 222.34 110.23 219.32 109.41C217.26 108.85 212.82 107.33 212.18 108.5C210.66 111.28 212.68 113.37 218.26 115.09C221.12 115.97 225.4 118.73 225.4 118.73C225.4 118.73 225.44 128.94 231.17 129.91" fill="white"/>
<path d="M244.96 122.99C244.96 122.99 246.43 114.26 246.91 111.65C248.91 100.79 246.19 99.1199 243.1 96.4799C240.01 93.8399 239.13 92.5799 233.49 88.6399C231.57 87.2899 229.36 86.5599 227.19 85.6199C224.46 84.4399 220.06 83.0099 220.18 85.6899C220.35 89.8199 224.8 89.9998 228.11 93.1298C230.65 95.5298 232.92 98.1699 232.92 98.1699C232.92 98.1699 225.9 94.6099 223.78 94.2399C222.56 94.0199 220.03 93.8398 218.71 93.5198C215.48 92.7498 213.1 93.7499 212.56 94.7399C211.42 96.8398 216.73 100.4 221.46 101.25C223.57 101.63 226.58 103.58 226.58 103.58C226.58 103.58 224.2 102.41 221.65 101.64C220.64 101.34 213.2 97.9398 212.11 100.52C211.37 102.28 214.95 106.33 220.08 107.95C223.48 109.03 226.07 111.56 226.07 111.56C226.07 111.56 222.34 110.23 219.32 109.41C217.26 108.85 212.82 107.33 212.18 108.5C210.66 111.28 212.68 113.37 218.26 115.09C221.12 115.97 225.4 118.73 225.4 118.73C225.4 118.73 225.44 128.94 231.17 129.91" stroke="#084AA6" stroke-width="2.83" stroke-linecap="round" stroke-linejoin="round"/>
<path d="M232.16 97.3701L236.77 101.56" stroke="#084AA6" stroke-width="2.83" stroke-linecap="round" stroke-linejoin="round"/>
<path d="M226.58 103.57L231.24 106.42" stroke="#084AA6" stroke-width="2.83" stroke-linecap="round" stroke-linejoin="round"/>
<path d="M226.06 111.54L228.59 113.06" stroke="#084AA6" stroke-width="2.83" stroke-linecap="round" stroke-linejoin="round"/>
<path d="M235.34 147.57L231.19 135.87L254.96 124.75C254.96 124.75 259.54 134.19 259.5 133.13C259.46 132.08 235.33 147.57 235.33 147.57H235.34Z" fill="white" stroke="#084AA6" stroke-width="2.94" stroke-linecap="round" stroke-linejoin="round"/>
<path d="M241.46 185.33C238.55 171.4 230.09 142.94 230.09 142.94C230.09 142.94 240.48 139.26 245.65 137.01C253.11 133.77 260.57 129.09 260.57 129.09C260.57 129.09 294.56 216.48 271.84 222.81C268.14 223.84 257.55 222.87 247.95 216.8C237.53 210.21 223.16 195.31 223.16 195.31" fill="#80D7FF"/>
<path d="M241.46 185.33C238.55 171.4 230.09 142.94 230.09 142.94C230.09 142.94 240.48 139.26 245.65 137.01C253.11 133.77 260.57 129.09 260.57 129.09C260.57 129.09 294.56 216.48 271.84 222.81C268.14 223.84 257.55 222.87 247.95 216.8C237.53 210.21 223.16 195.31 223.16 195.31" stroke="#084AA6" stroke-width="2.94" stroke-linecap="round" stroke-linejoin="round"/>
<path d="M241.01 149.29C241.12 150.35 240.35 151.29 239.29 151.4C238.23 151.51 237.29 150.74 237.18 149.68C237.07 148.62 237.84 147.68 238.9 147.57C239.96 147.46 240.9 148.23 241.01 149.29Z" fill="#084AA6"/>
<path d="M243.2 157.09C243.31 158.15 242.54 159.09 241.48 159.2C240.42 159.31 239.48 158.54 239.37 157.48C239.26 156.42 240.03 155.48 241.09 155.37C242.15 155.26 243.09 156.03 243.2 157.09Z" fill="#084AA6"/>
<path d="M185.637 107.092C190.214 106.753 193.585 101.893 193.167 96.2368C192.748 90.5803 188.699 86.2692 184.122 86.6078C179.545 86.9463 176.174 91.8062 176.592 97.4627C177.01 103.119 181.06 107.43 185.637 107.092Z" fill="white" stroke="#084AA6" stroke-width="2.94" stroke-linecap="round" stroke-linejoin="round"/>
<path d="M180.28 38.9004L184.8 44.7304" stroke="#084AA6" stroke-width="2.94" stroke-linecap="round" stroke-linejoin="round"/>
<path d="M86.27 228.2C86.38 229.26 85.61 230.2 84.55 230.31C83.49 230.42 82.55 229.65 82.44 228.59C82.33 227.53 83.1 226.59 84.16 226.48C85.22 226.37 86.16 227.14 86.27 228.2Z" fill="#084AA6"/>
<path d="M93.62 224.7C93.73 225.76 92.96 226.7 91.9 226.81C90.84 226.92 89.9 226.15 89.79 225.09C89.68 224.03 90.45 223.09 91.51 222.98C92.57 222.87 93.51 223.64 93.62 224.7Z" fill="#084AA6"/>
<path d="M173.57 216.33L181.69 220.34" stroke="#084AA6" stroke-width="2.94" stroke-linecap="round" stroke-linejoin="round"/>
<path d="M205.61 90.4199C203.71 92.7699 200.62 97.5699 204.1 98.3399C207.85 99.1599 208.12 91.5399 208.12 91.5399" fill="white"/>
<path d="M205.61 90.4199C203.71 92.7699 200.62 97.5699 204.1 98.3399C207.85 99.1599 208.12 91.5399 208.12 91.5399" stroke="#084AA6" stroke-width="2.27" stroke-linecap="round" stroke-linejoin="round"/>
</g>
</svg>
