<svg width="403" height="145" viewBox="0 0 403 145" fill="none" xmlns="http://www.w3.org/2000/svg">
<line x1="93.0862" y1="19.4061" x2="85.0862" y2="1.40614" stroke="white" stroke-width="2"/>
<path d="M111.729 1L114.089 1.7C113.729 2.43333 113.303 3.15333 112.809 3.86C112.316 4.56667 111.783 5.22 111.209 5.82C110.649 6.42 110.089 6.94667 109.529 7.4C109.396 7.24 109.209 7.06 108.969 6.86C108.729 6.66 108.483 6.46667 108.229 6.28C107.976 6.09333 107.756 5.94 107.569 5.82C108.423 5.26 109.223 4.55333 109.969 3.7C110.716 2.84667 111.303 1.94667 111.729 1ZM111.569 3.12H125.349V5.22H110.989L111.569 3.12ZM108.009 7.78H126.089V9.92H108.009V7.78ZM108.329 12.46H125.789V14.6H108.329V12.46ZM114.269 3.86H116.269V13.58H114.269V3.86ZM110.709 3.86H112.849V13.6H110.709V3.86ZM117.749 3.86H119.749V13.6H117.749V3.86ZM121.269 3.86H123.469V13.6H121.269V3.86ZM113.669 15.72L115.889 15.48C116.023 16.08 116.136 16.7333 116.229 17.44C116.336 18.1467 116.396 18.7467 116.409 19.24L114.049 19.58C114.049 19.26 114.029 18.88 113.989 18.44C113.963 18 113.923 17.54 113.869 17.06C113.816 16.58 113.749 16.1333 113.669 15.72ZM117.649 15.78L119.889 15.4C120.063 15.7867 120.229 16.2067 120.389 16.66C120.549 17.1133 120.689 17.5533 120.809 17.98C120.929 18.4067 121.016 18.7933 121.069 19.14L118.669 19.6C118.603 19.1067 118.469 18.5 118.269 17.78C118.083 17.06 117.876 16.3933 117.649 15.78ZM121.609 15.66L123.909 14.94C124.229 15.3533 124.549 15.8 124.869 16.28C125.189 16.76 125.496 17.24 125.789 17.72C126.083 18.1867 126.309 18.6067 126.469 18.98L124.009 19.8C123.863 19.44 123.656 19.02 123.389 18.54C123.136 18.06 122.849 17.5733 122.529 17.08C122.223 16.5733 121.916 16.1 121.609 15.66ZM110.069 15.02L112.389 15.6C112.163 16.36 111.849 17.12 111.449 17.88C111.049 18.64 110.603 19.2867 110.109 19.82L107.809 18.88C108.263 18.4533 108.696 17.8867 109.109 17.18C109.523 16.4733 109.843 15.7533 110.069 15.02ZM131.829 1.1H134.029V19.74H131.829V1.1ZM128.789 7.68H136.989V9.92H128.789V7.68ZM131.389 8.86L132.729 9.52C132.556 10.1867 132.356 10.8933 132.129 11.64C131.903 12.3733 131.649 13.1067 131.369 13.84C131.089 14.5733 130.796 15.2667 130.489 15.92C130.183 16.56 129.856 17.12 129.509 17.6C129.443 17.3467 129.343 17.0733 129.209 16.78C129.089 16.4733 128.956 16.1733 128.809 15.88C128.676 15.5867 128.549 15.3333 128.429 15.12C128.829 14.6267 129.216 14.02 129.589 13.3C129.976 12.5667 130.329 11.8133 130.649 11.04C130.969 10.2533 131.216 9.52667 131.389 8.86ZM134.009 10.02C134.116 10.1267 134.269 10.2933 134.469 10.52C134.683 10.7467 134.916 11.0067 135.169 11.3C135.423 11.58 135.663 11.8667 135.889 12.16C136.129 12.44 136.343 12.6933 136.529 12.92C136.729 13.1467 136.869 13.32 136.949 13.44L135.489 15.32C135.356 15.0267 135.183 14.6867 134.969 14.3C134.756 13.9 134.523 13.4933 134.269 13.08C134.016 12.6533 133.769 12.2533 133.529 11.88C133.289 11.5067 133.083 11.2 132.909 10.96L134.009 10.02ZM128.769 2.64L130.449 2.2C130.623 2.68 130.776 3.2 130.909 3.76C131.056 4.32 131.176 4.86667 131.269 5.4C131.363 5.93333 131.429 6.41333 131.469 6.84L129.669 7.32C129.656 6.89333 129.603 6.41333 129.509 5.88C129.429 5.33333 129.323 4.78 129.189 4.22C129.069 3.64667 128.929 3.12 128.769 2.64ZM135.349 2.1L137.369 2.54C137.209 3.08667 137.036 3.64667 136.849 4.22C136.663 4.79333 136.476 5.34667 136.289 5.88C136.103 6.4 135.929 6.86 135.769 7.26L134.249 6.82C134.396 6.39333 134.536 5.90667 134.669 5.36C134.816 4.8 134.949 4.23333 135.069 3.66C135.189 3.08667 135.283 2.56667 135.349 2.1ZM142.929 1H145.169V19.78H142.929V1ZM136.949 13.52L147.229 11.68L147.589 13.9L137.309 15.76L136.949 13.52ZM138.069 3.72L139.249 2.1C139.623 2.31333 140.009 2.56 140.409 2.84C140.823 3.12 141.209 3.40667 141.569 3.7C141.943 3.99333 142.236 4.26667 142.449 4.52L141.209 6.32C141.009 6.05333 140.729 5.76667 140.369 5.46C140.023 5.15333 139.649 4.84667 139.249 4.54C138.849 4.23333 138.456 3.96 138.069 3.72ZM137.169 8.76L138.289 7.04C138.689 7.24 139.103 7.48 139.529 7.76C139.956 8.02667 140.363 8.3 140.749 8.58C141.136 8.84667 141.449 9.10667 141.689 9.36L140.469 11.28C140.256 11.0267 139.963 10.7533 139.589 10.46C139.216 10.1533 138.816 9.85333 138.389 9.56C137.976 9.25333 137.569 8.98667 137.169 8.76ZM154.029 7.84C154.509 7.84 154.936 7.96 155.309 8.2C155.696 8.42667 156.003 8.73333 156.229 9.12C156.469 9.49333 156.589 9.92 156.589 10.4C156.589 10.8667 156.469 11.2933 156.229 11.68C156.003 12.0667 155.696 12.38 155.309 12.62C154.936 12.8467 154.509 12.96 154.029 12.96C153.563 12.96 153.136 12.8467 152.749 12.62C152.363 12.38 152.049 12.0667 151.809 11.68C151.583 11.2933 151.469 10.8667 151.469 10.4C151.469 9.92 151.583 9.49333 151.809 9.12C152.049 8.73333 152.363 8.42667 152.749 8.2C153.136 7.96 153.563 7.84 154.029 7.84ZM161.669 18V15.6H164.869V6.26H162.169V4.42C162.916 4.28667 163.556 4.12667 164.089 3.94C164.636 3.74 165.143 3.48667 165.609 3.18H167.789V15.6H170.569V18H161.669ZM176.726 8.36H187.546V10.68H176.726V8.36ZM186.746 8.36H189.266C189.266 8.36 189.266 8.42667 189.266 8.56C189.266 8.68 189.266 8.82667 189.266 9C189.266 9.16 189.26 9.29333 189.246 9.4C189.193 10.9067 189.133 12.2067 189.066 13.3C189 14.38 188.92 15.28 188.826 16C188.746 16.72 188.646 17.2933 188.526 17.72C188.406 18.1467 188.26 18.4667 188.086 18.68C187.82 19 187.54 19.2267 187.246 19.36C186.966 19.4933 186.633 19.5867 186.246 19.64C185.913 19.6933 185.473 19.72 184.926 19.72C184.38 19.7333 183.806 19.7267 183.206 19.7C183.193 19.34 183.113 18.9267 182.966 18.46C182.82 18.0067 182.64 17.6133 182.426 17.28C182.986 17.32 183.506 17.3467 183.986 17.36C184.466 17.3733 184.826 17.38 185.066 17.38C185.253 17.38 185.406 17.3667 185.526 17.34C185.646 17.3 185.766 17.22 185.886 17.1C186.046 16.9267 186.173 16.5467 186.266 15.96C186.373 15.36 186.466 14.48 186.546 13.32C186.626 12.1467 186.693 10.6333 186.746 8.78V8.36ZM178.966 1.26L181.566 2.02C181.073 3.18 180.48 4.3 179.786 5.38C179.106 6.46 178.366 7.45333 177.566 8.36C176.78 9.26667 175.96 10.0533 175.106 10.72C174.96 10.5467 174.76 10.34 174.506 10.1C174.253 9.84667 173.993 9.6 173.726 9.36C173.473 9.12 173.246 8.92667 173.046 8.78C173.873 8.22 174.66 7.55333 175.406 6.78C176.166 5.99333 176.853 5.13333 177.466 4.2C178.08 3.25333 178.58 2.27333 178.966 1.26ZM186.586 1.22C186.906 1.86 187.293 2.51333 187.746 3.18C188.2 3.84667 188.693 4.5 189.226 5.14C189.773 5.76667 190.326 6.36 190.886 6.92C191.46 7.48 192.02 7.96667 192.566 8.38C192.353 8.54 192.113 8.75333 191.846 9.02C191.593 9.27333 191.346 9.53333 191.106 9.8C190.88 10.0667 190.686 10.3133 190.526 10.54C189.966 10.02 189.4 9.44 188.826 8.8C188.253 8.14667 187.686 7.46 187.126 6.74C186.58 6.00667 186.06 5.25333 185.566 4.48C185.073 3.69333 184.626 2.92 184.226 2.16L186.586 1.22ZM180.286 9.04H182.906C182.813 10.16 182.66 11.2533 182.446 12.32C182.233 13.3867 181.88 14.3933 181.386 15.34C180.906 16.2867 180.206 17.1533 179.286 17.94C178.38 18.7133 177.18 19.3733 175.686 19.92C175.593 19.6933 175.46 19.4467 175.286 19.18C175.113 18.9133 174.926 18.6467 174.726 18.38C174.526 18.1267 174.326 17.9067 174.126 17.72C175.473 17.2933 176.54 16.7667 177.326 16.14C178.113 15.5 178.706 14.8067 179.106 14.06C179.506 13.3 179.78 12.4933 179.926 11.64C180.086 10.7867 180.206 9.92 180.286 9.04Z" fill="#FFFF59"/>
<path d="M194.308 4.28C194.708 4.26667 195.088 4.25333 195.448 4.24C195.808 4.21333 196.081 4.19333 196.268 4.18C196.681 4.15333 197.188 4.11333 197.788 4.06C198.401 3.99333 199.081 3.92667 199.828 3.86C200.588 3.79333 201.394 3.72667 202.248 3.66C203.101 3.59333 203.988 3.52 204.908 3.44C205.601 3.37333 206.288 3.32 206.968 3.28C207.661 3.22667 208.314 3.18667 208.928 3.16C209.554 3.12 210.101 3.09333 210.568 3.08L210.588 5.64C210.228 5.64 209.814 5.64667 209.348 5.66C208.881 5.67333 208.414 5.7 207.948 5.74C207.494 5.76667 207.088 5.82667 206.728 5.92C206.128 6.08 205.568 6.35333 205.048 6.74C204.528 7.11333 204.074 7.56 203.688 8.08C203.314 8.58667 203.021 9.14 202.808 9.74C202.594 10.3267 202.488 10.92 202.488 11.52C202.488 12.1733 202.601 12.7533 202.828 13.26C203.068 13.7533 203.388 14.18 203.788 14.54C204.201 14.8867 204.681 15.18 205.228 15.42C205.774 15.6467 206.361 15.82 206.988 15.94C207.628 16.06 208.288 16.14 208.968 16.18L208.028 18.92C207.188 18.8667 206.368 18.7333 205.568 18.52C204.781 18.3067 204.041 18.0133 203.348 17.64C202.654 17.2667 202.048 16.8133 201.528 16.28C201.021 15.7333 200.614 15.1133 200.308 14.42C200.014 13.7133 199.868 12.9267 199.868 12.06C199.868 11.1 200.021 10.22 200.328 9.42C200.634 8.60667 201.014 7.9 201.468 7.3C201.934 6.68667 202.394 6.21333 202.848 5.88C202.474 5.93333 202.021 5.98667 201.488 6.04C200.968 6.09333 200.401 6.16 199.788 6.24C199.188 6.30667 198.574 6.38 197.948 6.46C197.321 6.54 196.714 6.63333 196.128 6.74C195.554 6.83333 195.034 6.92667 194.568 7.02L194.308 4.28ZM207.728 7.6C207.901 7.84 208.081 8.12667 208.268 8.46C208.468 8.78 208.661 9.10667 208.848 9.44C209.034 9.76 209.194 10.0533 209.328 10.32L207.808 11C207.554 10.44 207.308 9.94667 207.068 9.52C206.841 9.09333 206.568 8.66 206.248 8.22L207.728 7.6ZM209.968 6.68C210.141 6.92 210.328 7.2 210.528 7.52C210.741 7.82667 210.948 8.14667 211.148 8.48C211.348 8.8 211.514 9.08667 211.648 9.34L210.148 10.06C209.881 9.52667 209.621 9.05333 209.368 8.64C209.128 8.22667 208.841 7.8 208.508 7.36L209.968 6.68ZM214.911 3.68H231.131V15.58H228.631V5.98H217.311V15.68H214.911V3.68ZM216.491 8H229.811V10.22H216.491V8ZM216.471 12.32H229.851V14.62H216.471V12.32ZM221.651 1H224.171V19.78H221.651V1ZM242.051 1.84H246.291V4.12H242.051V1.84ZM245.071 1.84H247.591C247.671 3.26667 247.817 4.62667 248.031 5.92C248.244 7.21333 248.564 8.41333 248.991 9.52C249.417 10.6133 249.977 11.58 250.671 12.42C251.364 13.26 252.237 13.9467 253.291 14.48C253.091 14.6133 252.871 14.7867 252.631 15C252.404 15.2133 252.177 15.44 251.951 15.68C251.737 15.9067 251.557 16.12 251.411 16.32C250.344 15.68 249.451 14.9 248.731 13.98C248.011 13.0467 247.424 12 246.971 10.84C246.531 9.68 246.191 8.43333 245.951 7.1C245.724 5.76667 245.564 4.37333 245.471 2.92H245.071V1.84ZM245.011 6.02L247.471 6.36C247.044 8.61333 246.371 10.58 245.451 12.26C244.531 13.94 243.337 15.3 241.871 16.34C241.751 16.18 241.577 15.9867 241.351 15.76C241.137 15.5333 240.904 15.3067 240.651 15.08C240.411 14.84 240.197 14.6533 240.011 14.52C241.411 13.68 242.511 12.5333 243.311 11.08C244.124 9.62667 244.691 7.94 245.011 6.02ZM239.511 8.8V16.18H237.171V11.02H234.851V8.8H239.511ZM239.511 15.14C239.924 15.7933 240.504 16.2733 241.251 16.58C241.997 16.8867 242.891 17.06 243.931 17.1C244.517 17.1267 245.211 17.1467 246.011 17.16C246.824 17.16 247.677 17.1533 248.571 17.14C249.464 17.1267 250.337 17.1 251.191 17.06C252.057 17.02 252.824 16.9733 253.491 16.92C253.411 17.1067 253.317 17.3467 253.211 17.64C253.104 17.9333 253.004 18.2333 252.911 18.54C252.831 18.8467 252.771 19.12 252.731 19.36C252.131 19.4 251.444 19.4267 250.671 19.44C249.897 19.4667 249.104 19.48 248.291 19.48C247.477 19.4933 246.691 19.4933 245.931 19.48C245.171 19.4667 244.491 19.4467 243.891 19.42C242.664 19.3667 241.617 19.1733 240.751 18.84C239.884 18.52 239.117 17.9733 238.451 17.2C238.011 17.5733 237.557 17.96 237.091 18.36C236.637 18.76 236.137 19.1733 235.591 19.6L234.411 17.1C234.877 16.82 235.364 16.5133 235.871 16.18C236.377 15.8467 236.864 15.5 237.331 15.14H239.511ZM234.871 2.92L236.651 1.48C237.064 1.74667 237.484 2.06 237.911 2.42C238.337 2.76667 238.737 3.12667 239.111 3.5C239.484 3.86 239.784 4.19333 240.011 4.5L238.111 6.1C237.911 5.78 237.631 5.43333 237.271 5.06C236.924 4.68667 236.537 4.31333 236.111 3.94C235.684 3.55333 235.271 3.21333 234.871 2.92ZM259.731 6.68H270.111V8.86H259.731V6.68ZM256.011 10.3H273.931V12.54H256.011V10.3ZM260.851 12.1H263.451C263.357 13.02 263.204 13.88 262.991 14.68C262.777 15.4667 262.437 16.1867 261.971 16.84C261.517 17.48 260.877 18.0533 260.051 18.56C259.224 19.0667 258.157 19.4933 256.851 19.84C256.771 19.6267 256.651 19.3867 256.491 19.12C256.344 18.8533 256.177 18.5867 255.991 18.32C255.804 18.0667 255.624 17.86 255.451 17.7C256.597 17.4467 257.511 17.14 258.191 16.78C258.884 16.42 259.404 16.0133 259.751 15.56C260.111 15.0933 260.364 14.5733 260.511 14C260.671 13.4133 260.784 12.78 260.851 12.1ZM266.011 11.7H268.431V16.58C268.431 16.9 268.477 17.1067 268.571 17.2C268.677 17.28 268.911 17.32 269.271 17.32C269.351 17.32 269.477 17.32 269.651 17.32C269.824 17.32 270.017 17.32 270.231 17.32C270.444 17.32 270.644 17.32 270.831 17.32C271.017 17.32 271.164 17.32 271.271 17.32C271.484 17.32 271.644 17.2667 271.751 17.16C271.871 17.0533 271.951 16.8267 271.991 16.48C272.044 16.12 272.084 15.5933 272.111 14.9C272.284 15.02 272.497 15.14 272.751 15.26C273.004 15.38 273.264 15.4867 273.531 15.58C273.811 15.6733 274.057 15.7533 274.271 15.82C274.191 16.78 274.051 17.5267 273.851 18.06C273.651 18.6067 273.364 18.98 272.991 19.18C272.631 19.3933 272.131 19.5 271.491 19.5C271.371 19.5 271.191 19.5 270.951 19.5C270.724 19.5 270.471 19.5 270.191 19.5C269.924 19.5 269.671 19.5 269.431 19.5C269.204 19.5 269.031 19.5 268.911 19.5C268.137 19.5 267.537 19.4133 267.111 19.24C266.697 19.0667 266.411 18.7667 266.251 18.34C266.091 17.9133 266.011 17.34 266.011 16.62V11.7ZM263.631 1.02H266.191V4.66H263.631V1.02ZM256.371 2.94H273.551V7.7H270.991V5.22H258.811V7.7H256.371V2.94ZM284.811 7.86H287.371V17C287.371 17.68 287.271 18.2 287.071 18.56C286.871 18.9333 286.524 19.2133 286.031 19.4C285.537 19.5733 284.931 19.68 284.211 19.72C283.491 19.7733 282.651 19.8 281.691 19.8C281.611 19.44 281.471 19.02 281.271 18.54C281.084 18.0733 280.897 17.6733 280.711 17.34C281.177 17.3667 281.651 17.3867 282.131 17.4C282.624 17.4133 283.057 17.42 283.431 17.42C283.817 17.4067 284.084 17.4 284.231 17.4C284.457 17.4 284.611 17.3733 284.691 17.32C284.771 17.2533 284.811 17.1267 284.811 16.94V7.86ZM277.991 2.4H291.951V4.78H277.991V2.4ZM291.051 2.4H291.711L292.271 2.26L294.171 3.64C293.571 4.37333 292.891 5.12667 292.131 5.9C291.371 6.67333 290.571 7.41333 289.731 8.12C288.904 8.81333 288.084 9.41333 287.271 9.92C287.151 9.74667 286.991 9.56 286.791 9.36C286.591 9.14667 286.384 8.94 286.171 8.74C285.971 8.52667 285.784 8.35333 285.611 8.22C286.131 7.88667 286.657 7.5 287.191 7.06C287.737 6.62 288.257 6.16 288.751 5.68C289.244 5.2 289.691 4.72667 290.091 4.26C290.491 3.79333 290.811 3.37333 291.051 3V2.4Z" fill="white"/>
<line y1="-1" x2="19.6977" y2="-1" transform="matrix(0.406138 -0.913812 -0.913812 -0.406138 309 19)" stroke="white" stroke-width="2"/>
<g filter="url(#filter0_d_5620_2193)">
<rect x="10" y="30" width="383" height="95" rx="47.5" fill="#E02838" shape-rendering="crispEdges"/>
<path d="M126.021 54.788C125.525 55.508 124.933 56.252 124.245 57.02C123.557 57.772 122.797 58.532 121.965 59.3C121.149 60.052 120.277 60.78 119.349 61.484C118.437 62.172 117.485 62.804 116.493 63.38C116.381 63.156 116.221 62.9 116.013 62.612C115.805 62.324 115.581 62.044 115.341 61.772C115.117 61.5 114.893 61.268 114.669 61.076C115.693 60.516 116.693 59.876 117.669 59.156C118.645 58.42 119.557 57.636 120.405 56.804C121.269 55.972 122.045 55.148 122.733 54.332C123.421 53.5 123.989 52.708 124.437 51.956H127.341C127.997 52.884 128.717 53.788 129.501 54.668C130.301 55.532 131.141 56.348 132.021 57.116C132.917 57.884 133.837 58.58 134.781 59.204C135.741 59.828 136.693 60.364 137.637 60.812C137.269 61.164 136.925 61.564 136.605 62.012C136.285 62.46 135.997 62.908 135.741 63.356C134.813 62.812 133.885 62.196 132.957 61.508C132.045 60.82 131.149 60.1 130.269 59.348C129.405 58.58 128.605 57.812 127.869 57.044C127.149 56.26 126.533 55.508 126.021 54.788ZM120.957 59.468H131.181V62.132H120.957V59.468ZM117.645 64.412H131.541V67.148H117.645V64.412ZM131.061 64.412H131.493L131.997 64.292L134.301 64.94C133.901 65.932 133.453 66.996 132.957 68.132C132.461 69.252 131.949 70.38 131.421 71.516C130.909 72.636 130.397 73.708 129.885 74.732L126.813 73.892C127.197 73.14 127.589 72.348 127.989 71.516C128.405 70.668 128.805 69.828 129.189 68.996C129.573 68.164 129.925 67.38 130.245 66.644C130.581 65.908 130.853 65.276 131.061 64.748V64.412ZM152.57 53.156C152.554 53.284 152.53 53.492 152.498 53.78C152.482 54.052 152.466 54.332 152.45 54.62C152.434 54.892 152.418 55.092 152.402 55.22C152.386 55.54 152.378 55.972 152.378 56.516C152.378 57.044 152.378 57.636 152.378 58.292C152.378 58.948 152.378 59.612 152.378 60.284C152.394 60.94 152.402 61.564 152.402 62.156C152.418 62.732 152.426 63.212 152.426 63.596L149.426 62.588C149.426 62.284 149.426 61.884 149.426 61.388C149.426 60.876 149.426 60.324 149.426 59.732C149.426 59.124 149.418 58.524 149.402 57.932C149.402 57.34 149.394 56.804 149.378 56.324C149.362 55.844 149.346 55.484 149.33 55.244C149.298 54.748 149.258 54.316 149.21 53.948C149.162 53.564 149.122 53.3 149.09 53.156H152.57ZM139.01 56.132C139.714 56.132 140.514 56.124 141.41 56.108C142.306 56.092 143.242 56.076 144.218 56.06C145.194 56.044 146.154 56.028 147.098 56.012C148.042 55.996 148.93 55.988 149.762 55.988C150.594 55.972 151.314 55.964 151.922 55.964C152.53 55.964 153.194 55.964 153.914 55.964C154.634 55.948 155.346 55.94 156.05 55.94C156.754 55.94 157.394 55.94 157.97 55.94C158.562 55.94 159.018 55.94 159.338 55.94L159.314 58.772C158.562 58.74 157.57 58.716 156.338 58.7C155.106 58.668 153.602 58.652 151.826 58.652C150.738 58.652 149.634 58.668 148.514 58.7C147.394 58.716 146.282 58.74 145.178 58.772C144.074 58.804 143.01 58.844 141.986 58.892C140.962 58.924 139.994 58.972 139.082 59.036L139.01 56.132ZM151.994 63.236C151.994 64.548 151.834 65.636 151.514 66.5C151.21 67.364 150.746 68.02 150.122 68.468C149.498 68.9 148.722 69.116 147.794 69.116C147.346 69.116 146.874 69.02 146.378 68.828C145.898 68.636 145.45 68.356 145.034 67.988C144.618 67.62 144.282 67.164 144.026 66.62C143.786 66.076 143.666 65.436 143.666 64.7C143.666 63.788 143.882 63.004 144.314 62.348C144.746 61.676 145.322 61.156 146.042 60.788C146.778 60.404 147.586 60.212 148.466 60.212C149.522 60.212 150.402 60.452 151.106 60.932C151.826 61.396 152.362 62.028 152.714 62.828C153.082 63.628 153.266 64.532 153.266 65.54C153.266 66.324 153.138 67.14 152.882 67.988C152.626 68.836 152.202 69.668 151.61 70.484C151.034 71.284 150.25 72.012 149.258 72.668C148.282 73.324 147.058 73.86 145.586 74.276L143.018 71.732C144.042 71.524 144.994 71.252 145.874 70.916C146.754 70.58 147.522 70.156 148.178 69.644C148.85 69.132 149.37 68.5 149.738 67.748C150.122 66.996 150.314 66.092 150.314 65.036C150.314 64.268 150.122 63.692 149.738 63.308C149.37 62.924 148.922 62.732 148.394 62.732C148.09 62.732 147.794 62.804 147.506 62.948C147.218 63.092 146.986 63.308 146.81 63.596C146.634 63.884 146.546 64.236 146.546 64.652C146.546 65.196 146.73 65.636 147.098 65.972C147.482 66.292 147.914 66.452 148.394 66.452C148.778 66.452 149.114 66.332 149.402 66.092C149.706 65.852 149.906 65.452 150.002 64.892C150.098 64.332 150.018 63.58 149.762 62.636L151.994 63.236ZM173.806 58.604C174.03 58.908 174.262 59.284 174.502 59.732C174.758 60.18 175.006 60.628 175.246 61.076C175.486 61.524 175.678 61.892 175.822 62.18L173.854 63.02C173.694 62.684 173.494 62.3 173.254 61.868C173.03 61.42 172.798 60.98 172.558 60.548C172.334 60.1 172.11 59.716 171.886 59.396L173.806 58.604ZM176.71 57.476C176.918 57.764 177.15 58.132 177.406 58.58C177.662 59.028 177.91 59.476 178.15 59.924C178.39 60.356 178.59 60.724 178.75 61.028L176.806 61.844C176.614 61.508 176.398 61.124 176.158 60.692C175.934 60.26 175.694 59.828 175.438 59.396C175.198 58.964 174.966 58.596 174.742 58.292L176.71 57.476ZM175.318 55.196C174.95 55.468 174.574 55.756 174.19 56.06C173.822 56.348 173.494 56.612 173.206 56.852C172.822 57.156 172.35 57.532 171.79 57.98C171.246 58.412 170.67 58.868 170.062 59.348C169.454 59.812 168.87 60.268 168.31 60.716C167.766 61.164 167.294 61.564 166.894 61.916C166.462 62.284 166.174 62.588 166.03 62.828C165.902 63.052 165.91 63.276 166.054 63.5C166.214 63.724 166.51 64.028 166.942 64.412C167.31 64.716 167.766 65.092 168.31 65.54C168.854 65.988 169.454 66.484 170.11 67.028C170.766 67.556 171.43 68.108 172.102 68.684C172.774 69.244 173.422 69.804 174.046 70.364C174.686 70.908 175.246 71.42 175.726 71.9L172.966 74.468C172.63 74.084 172.278 73.708 171.91 73.34C171.558 72.972 171.206 72.604 170.854 72.236C170.486 71.868 170.014 71.42 169.438 70.892C168.862 70.348 168.23 69.78 167.542 69.188C166.87 68.596 166.19 68.012 165.502 67.436C164.83 66.844 164.222 66.316 163.678 65.852C162.878 65.18 162.358 64.564 162.118 64.004C161.894 63.444 161.934 62.892 162.238 62.348C162.542 61.788 163.094 61.18 163.894 60.524C164.358 60.156 164.894 59.724 165.502 59.228C166.11 58.716 166.734 58.196 167.374 57.668C168.014 57.124 168.622 56.604 169.198 56.108C169.79 55.596 170.286 55.148 170.686 54.764C171.022 54.412 171.366 54.052 171.718 53.684C172.07 53.316 172.334 52.996 172.51 52.724L175.318 55.196ZM184.749 52.1L187.581 52.94C187.149 53.82 186.637 54.684 186.045 55.532C185.453 56.38 184.813 57.164 184.125 57.884C183.453 58.604 182.781 59.236 182.109 59.78C181.949 59.588 181.725 59.372 181.437 59.132C181.149 58.892 180.853 58.66 180.549 58.436C180.245 58.212 179.981 58.028 179.757 57.884C180.781 57.212 181.741 56.364 182.637 55.34C183.533 54.316 184.237 53.236 184.749 52.1ZM184.557 54.644H201.093V57.164H183.861L184.557 54.644ZM180.285 60.236H201.981V62.804H180.285V60.236ZM180.669 65.852H201.621V68.42H180.669V65.852ZM187.797 55.532H190.197V67.196H187.797V55.532ZM183.525 55.532H186.093V67.22H183.525V55.532ZM191.973 55.532H194.373V67.22H191.973V55.532ZM196.197 55.532H198.837V67.22H196.197V55.532ZM187.077 69.764L189.741 69.476C189.901 70.196 190.037 70.98 190.149 71.828C190.277 72.676 190.349 73.396 190.365 73.988L187.533 74.396C187.533 74.012 187.509 73.556 187.461 73.028C187.429 72.5 187.381 71.948 187.317 71.372C187.253 70.796 187.173 70.26 187.077 69.764ZM191.853 69.836L194.541 69.38C194.749 69.844 194.949 70.348 195.141 70.892C195.333 71.436 195.501 71.964 195.645 72.476C195.789 72.988 195.893 73.452 195.957 73.868L193.077 74.42C192.997 73.828 192.837 73.1 192.597 72.236C192.373 71.372 192.125 70.572 191.853 69.836ZM196.605 69.692L199.365 68.828C199.749 69.324 200.133 69.86 200.517 70.436C200.901 71.012 201.269 71.588 201.621 72.164C201.973 72.724 202.245 73.228 202.437 73.676L199.485 74.66C199.309 74.228 199.061 73.724 198.741 73.148C198.437 72.572 198.093 71.988 197.709 71.396C197.341 70.788 196.973 70.22 196.605 69.692ZM182.757 68.924L185.541 69.62C185.269 70.532 184.893 71.444 184.413 72.356C183.933 73.268 183.397 74.044 182.805 74.684L180.045 73.556C180.589 73.044 181.109 72.364 181.605 71.516C182.101 70.668 182.485 69.804 182.757 68.924ZM207.669 52.22H210.309V74.588H207.669V52.22ZM204.021 60.116H213.861V62.804H204.021V60.116ZM207.141 61.532L208.749 62.324C208.541 63.124 208.301 63.972 208.029 64.868C207.757 65.748 207.453 66.628 207.117 67.508C206.781 68.388 206.429 69.22 206.061 70.004C205.693 70.772 205.301 71.444 204.885 72.02C204.805 71.716 204.685 71.388 204.525 71.036C204.381 70.668 204.221 70.308 204.045 69.956C203.885 69.604 203.733 69.3 203.589 69.044C204.069 68.452 204.533 67.724 204.981 66.86C205.445 65.98 205.869 65.076 206.253 64.148C206.637 63.204 206.933 62.332 207.141 61.532ZM210.285 62.924C210.413 63.052 210.597 63.252 210.837 63.524C211.093 63.796 211.373 64.108 211.677 64.46C211.981 64.796 212.269 65.14 212.541 65.492C212.829 65.828 213.085 66.132 213.309 66.404C213.549 66.676 213.717 66.884 213.813 67.028L212.061 69.284C211.901 68.932 211.693 68.524 211.437 68.06C211.181 67.58 210.901 67.092 210.597 66.596C210.293 66.084 209.997 65.604 209.709 65.156C209.421 64.708 209.173 64.34 208.965 64.052L210.285 62.924ZM203.997 54.068L206.013 53.54C206.221 54.116 206.405 54.74 206.565 55.412C206.741 56.084 206.885 56.74 206.997 57.38C207.109 58.02 207.189 58.596 207.237 59.108L205.077 59.684C205.061 59.172 204.997 58.596 204.885 57.956C204.789 57.3 204.661 56.636 204.501 55.964C204.357 55.276 204.189 54.644 203.997 54.068ZM211.893 53.42L214.317 53.948C214.125 54.604 213.917 55.276 213.693 55.964C213.469 56.652 213.245 57.316 213.021 57.956C212.797 58.58 212.589 59.132 212.397 59.612L210.573 59.084C210.749 58.572 210.917 57.988 211.077 57.332C211.253 56.66 211.413 55.98 211.557 55.292C211.701 54.604 211.813 53.98 211.893 53.42ZM220.989 52.1H223.677V74.636H220.989V52.1ZM213.813 67.124L226.149 64.916L226.581 67.58L214.245 69.812L213.813 67.124ZM215.157 55.364L216.573 53.42C217.021 53.676 217.485 53.972 217.965 54.308C218.461 54.644 218.925 54.988 219.357 55.34C219.805 55.692 220.157 56.02 220.413 56.324L218.925 58.484C218.685 58.164 218.349 57.82 217.917 57.452C217.501 57.084 217.053 56.716 216.573 56.348C216.093 55.98 215.621 55.652 215.157 55.364ZM214.077 61.412L215.421 59.348C215.901 59.588 216.397 59.876 216.909 60.212C217.421 60.532 217.909 60.86 218.373 61.196C218.837 61.516 219.213 61.828 219.501 62.132L218.037 64.436C217.781 64.132 217.429 63.804 216.981 63.452C216.533 63.084 216.053 62.724 215.541 62.372C215.045 62.004 214.557 61.684 214.077 61.412ZM227.687 56.036C228.167 56.02 228.623 56.004 229.055 55.988C229.487 55.956 229.815 55.932 230.039 55.916C230.535 55.884 231.143 55.836 231.863 55.772C232.599 55.692 233.415 55.612 234.311 55.532C235.223 55.452 236.191 55.372 237.215 55.292C238.239 55.212 239.303 55.124 240.407 55.028C241.239 54.948 242.063 54.884 242.879 54.836C243.711 54.772 244.495 54.724 245.231 54.692C245.983 54.644 246.639 54.612 247.199 54.596L247.223 57.668C246.791 57.668 246.295 57.676 245.735 57.692C245.175 57.708 244.615 57.74 244.055 57.788C243.511 57.82 243.023 57.892 242.591 58.004C241.871 58.196 241.199 58.524 240.575 58.988C239.951 59.436 239.407 59.972 238.943 60.596C238.495 61.204 238.143 61.868 237.887 62.588C237.631 63.292 237.503 64.004 237.503 64.724C237.503 65.508 237.639 66.204 237.911 66.812C238.199 67.404 238.583 67.916 239.063 68.348C239.559 68.764 240.135 69.116 240.791 69.404C241.447 69.676 242.151 69.884 242.903 70.028C243.671 70.172 244.463 70.268 245.279 70.316L244.151 73.604C243.143 73.54 242.159 73.38 241.199 73.124C240.255 72.868 239.367 72.516 238.535 72.068C237.703 71.62 236.975 71.076 236.351 70.436C235.743 69.78 235.255 69.036 234.887 68.204C234.535 67.356 234.359 66.412 234.359 65.372C234.359 64.22 234.543 63.164 234.911 62.204C235.279 61.228 235.735 60.38 236.279 59.66C236.839 58.924 237.391 58.356 237.935 57.956C237.487 58.02 236.943 58.084 236.303 58.148C235.679 58.212 234.999 58.292 234.263 58.388C233.543 58.468 232.807 58.556 232.055 58.652C231.303 58.748 230.575 58.86 229.871 58.988C229.183 59.1 228.559 59.212 227.999 59.324L227.687 56.036ZM243.791 60.02C243.999 60.308 244.215 60.652 244.439 61.052C244.679 61.436 244.911 61.828 245.135 62.228C245.359 62.612 245.551 62.964 245.711 63.284L243.887 64.1C243.583 63.428 243.287 62.836 242.999 62.324C242.727 61.812 242.399 61.292 242.015 60.764L243.791 60.02ZM246.479 58.916C246.687 59.204 246.911 59.54 247.151 59.924C247.407 60.292 247.655 60.676 247.895 61.076C248.135 61.46 248.335 61.804 248.495 62.108L246.695 62.972C246.375 62.332 246.063 61.764 245.759 61.268C245.471 60.772 245.127 60.26 244.727 59.732L246.479 58.916ZM70.2602 84.46C70.7082 84.508 71.2122 84.548 71.7722 84.58C72.3322 84.596 72.8122 84.604 73.2122 84.604H85.3082C85.6602 84.604 86.0442 84.604 86.4602 84.604C86.8922 84.588 87.2122 84.572 87.4202 84.556C87.4042 84.828 87.3882 85.18 87.3722 85.612C87.3562 86.028 87.3482 86.412 87.3482 86.764V99.196C87.3482 99.612 87.3562 100.1 87.3722 100.66C87.4042 101.22 87.4282 101.676 87.4442 102.028H83.9642C83.9802 101.676 83.9882 101.292 83.9882 100.876C84.0042 100.444 84.0122 100.012 84.0122 99.58V87.7H73.2362C72.7242 87.7 72.1802 87.708 71.6042 87.724C71.0442 87.74 70.5962 87.764 70.2602 87.796V84.46ZM69.9482 97.492C70.3642 97.524 70.8282 97.556 71.3402 97.588C71.8682 97.62 72.4042 97.636 72.9482 97.636H85.9082V100.78H73.0442C72.5802 100.78 72.0442 100.796 71.4362 100.828C70.8442 100.86 70.3482 100.892 69.9482 100.924V97.492ZM92.4658 90.388C92.7538 90.404 93.1218 90.428 93.5698 90.46C94.0178 90.476 94.4818 90.492 94.9618 90.508C95.4578 90.524 95.9138 90.532 96.3298 90.532C96.7298 90.532 97.2258 90.532 97.8178 90.532C98.4098 90.532 99.0498 90.532 99.7378 90.532C100.442 90.532 101.162 90.532 101.898 90.532C102.65 90.532 103.394 90.532 104.13 90.532C104.866 90.532 105.562 90.532 106.218 90.532C106.874 90.532 107.458 90.532 107.97 90.532C108.498 90.532 108.914 90.532 109.218 90.532C109.778 90.532 110.306 90.516 110.802 90.484C111.298 90.436 111.706 90.404 112.026 90.388V94.156C111.754 94.14 111.346 94.116 110.802 94.084C110.258 94.052 109.73 94.036 109.218 94.036C108.914 94.036 108.498 94.036 107.97 94.036C107.442 94.036 106.85 94.036 106.194 94.036C105.538 94.036 104.842 94.036 104.106 94.036C103.386 94.036 102.65 94.036 101.898 94.036C101.146 94.036 100.418 94.036 99.7138 94.036C99.0258 94.036 98.3858 94.036 97.7938 94.036C97.2178 94.036 96.7298 94.036 96.3298 94.036C95.6418 94.036 94.9378 94.052 94.2178 94.084C93.4978 94.1 92.9138 94.124 92.4658 94.156V90.388ZM125.603 100.972C125.651 100.732 125.691 100.46 125.723 100.156C125.771 99.836 125.795 99.516 125.795 99.196C125.795 99.02 125.795 98.668 125.795 98.14C125.795 97.612 125.795 96.972 125.795 96.22C125.795 95.468 125.795 94.66 125.795 93.796C125.795 92.916 125.795 92.028 125.795 91.132C125.795 90.236 125.795 89.396 125.795 88.612C125.795 87.812 125.795 87.116 125.795 86.524C125.795 85.916 125.795 85.476 125.795 85.204C125.795 84.66 125.763 84.188 125.699 83.788C125.651 83.388 125.619 83.172 125.603 83.14H129.179C129.163 83.172 129.131 83.396 129.083 83.812C129.035 84.212 129.011 84.684 129.011 85.228C129.011 85.5 129.011 85.908 129.011 86.452C129.011 86.98 129.011 87.596 129.011 88.3C129.011 88.988 129.011 89.724 129.011 90.508C129.011 91.292 129.011 92.068 129.011 92.836C129.011 93.588 129.011 94.308 129.011 94.996C129.011 95.668 129.011 96.244 129.011 96.724C129.011 97.204 129.011 97.556 129.011 97.78C129.667 97.492 130.347 97.1 131.051 96.604C131.755 96.108 132.443 95.532 133.115 94.876C133.803 94.204 134.411 93.484 134.939 92.716L136.787 95.356C136.131 96.22 135.331 97.068 134.387 97.9C133.459 98.732 132.499 99.492 131.507 100.18C130.515 100.868 129.563 101.444 128.651 101.908C128.395 102.052 128.187 102.18 128.027 102.292C127.867 102.42 127.731 102.532 127.619 102.628L125.603 100.972ZM114.491 100.612C115.547 99.876 116.411 98.988 117.083 97.948C117.755 96.908 118.251 95.884 118.571 94.876C118.747 94.348 118.875 93.7 118.955 92.932C119.051 92.148 119.123 91.316 119.171 90.436C119.219 89.54 119.243 88.66 119.243 87.796C119.259 86.916 119.267 86.108 119.267 85.372C119.267 84.892 119.243 84.484 119.195 84.148C119.163 83.796 119.115 83.468 119.051 83.164H122.579C122.563 83.196 122.539 83.332 122.507 83.572C122.491 83.796 122.467 84.068 122.435 84.388C122.419 84.692 122.411 85.012 122.411 85.348C122.411 86.052 122.403 86.876 122.387 87.82C122.371 88.748 122.339 89.7 122.291 90.676C122.243 91.652 122.171 92.58 122.075 93.46C121.979 94.324 121.851 95.06 121.691 95.668C121.323 97.028 120.771 98.292 120.035 99.46C119.315 100.612 118.443 101.644 117.419 102.556L114.491 100.612ZM144.065 98.308C144.065 97.972 144.065 97.492 144.065 96.868C144.065 96.228 144.065 95.508 144.065 94.708C144.065 93.892 144.065 93.044 144.065 92.164C144.065 91.268 144.065 90.396 144.065 89.548C144.065 88.684 144.065 87.884 144.065 87.148C144.065 86.412 144.065 85.796 144.065 85.3C144.065 85.044 144.057 84.748 144.041 84.412C144.041 84.076 144.025 83.74 143.993 83.404C143.961 83.068 143.921 82.78 143.873 82.54H147.449C147.401 82.908 147.353 83.364 147.305 83.908C147.257 84.436 147.233 84.9 147.233 85.3C147.233 85.78 147.233 86.356 147.233 87.028C147.233 87.684 147.233 88.396 147.233 89.164C147.233 89.916 147.233 90.684 147.233 91.468C147.233 92.252 147.233 93.02 147.233 93.772C147.233 94.524 147.233 95.212 147.233 95.836C147.233 96.46 147.233 97.004 147.233 97.468C147.233 97.948 147.305 98.34 147.449 98.644C147.593 98.948 147.881 99.164 148.313 99.292C148.761 99.42 149.425 99.484 150.305 99.484C151.153 99.484 152.001 99.452 152.849 99.388C153.713 99.308 154.569 99.212 155.417 99.1C156.265 98.972 157.081 98.828 157.865 98.668L157.769 101.932C157.113 102.028 156.369 102.116 155.537 102.196C154.705 102.276 153.841 102.34 152.945 102.388C152.065 102.436 151.193 102.46 150.329 102.46C148.969 102.46 147.873 102.372 147.041 102.196C146.209 102.036 145.577 101.788 145.145 101.452C144.729 101.116 144.441 100.684 144.281 100.156C144.137 99.628 144.065 99.012 144.065 98.308ZM159.185 87.748C159.073 87.924 158.937 88.14 158.777 88.396C158.633 88.636 158.505 88.86 158.393 89.068C158.137 89.564 157.809 90.124 157.409 90.748C157.025 91.372 156.609 92.012 156.161 92.668C155.713 93.324 155.249 93.948 154.769 94.54C154.305 95.132 153.857 95.636 153.425 96.052L150.785 94.492C151.313 94.028 151.825 93.5 152.321 92.908C152.833 92.3 153.289 91.708 153.689 91.132C154.089 90.54 154.401 90.044 154.625 89.644C154.401 89.676 154.009 89.756 153.449 89.884C152.905 89.996 152.233 90.132 151.433 90.292C150.633 90.452 149.761 90.628 148.817 90.82C147.873 90.996 146.921 91.18 145.961 91.372C145.001 91.564 144.073 91.756 143.177 91.948C142.281 92.124 141.473 92.292 140.753 92.452C140.033 92.596 139.457 92.716 139.025 92.812L138.449 89.668C138.913 89.604 139.521 89.516 140.273 89.404C141.025 89.276 141.865 89.132 142.793 88.972C143.721 88.796 144.689 88.612 145.697 88.42C146.705 88.228 147.705 88.036 148.697 87.844C149.689 87.652 150.617 87.476 151.481 87.316C152.345 87.14 153.097 86.988 153.737 86.86C154.377 86.716 154.857 86.604 155.177 86.524C155.513 86.444 155.825 86.364 156.113 86.284C156.401 86.188 156.657 86.084 156.881 85.972L159.185 87.748ZM164.925 83.26C165.341 83.548 165.829 83.9 166.389 84.316C166.949 84.732 167.525 85.188 168.117 85.684C168.725 86.164 169.293 86.636 169.821 87.1C170.349 87.564 170.781 87.98 171.117 88.348L168.669 90.844C168.365 90.508 167.965 90.108 167.469 89.644C166.973 89.18 166.437 88.7 165.861 88.204C165.285 87.708 164.717 87.236 164.157 86.788C163.597 86.34 163.101 85.964 162.669 85.66L164.925 83.26ZM161.925 99.244C163.173 99.068 164.349 98.82 165.453 98.5C166.557 98.18 167.581 97.812 168.525 97.396C169.469 96.98 170.333 96.548 171.117 96.1C172.477 95.284 173.725 94.356 174.861 93.316C175.997 92.276 176.989 91.196 177.837 90.076C178.685 88.94 179.357 87.836 179.853 86.764L181.725 90.148C181.117 91.22 180.365 92.292 179.469 93.364C178.589 94.436 177.589 95.46 176.469 96.436C175.349 97.396 174.141 98.26 172.845 99.028C172.029 99.524 171.149 99.996 170.205 100.444C169.261 100.876 168.261 101.26 167.205 101.596C166.165 101.948 165.077 102.22 163.941 102.412L161.925 99.244ZM191.796 90.268C192.532 90.684 193.332 91.18 194.196 91.756C195.076 92.316 195.964 92.9 196.86 93.508C197.756 94.116 198.596 94.708 199.38 95.284C200.18 95.86 200.852 96.372 201.396 96.82L199.116 99.532C198.588 99.052 197.932 98.5 197.148 97.876C196.38 97.236 195.548 96.588 194.652 95.932C193.756 95.26 192.868 94.62 191.988 94.012C191.124 93.404 190.348 92.884 189.66 92.452L191.796 90.268ZM203.076 86.188C202.932 86.412 202.788 86.676 202.644 86.98C202.5 87.284 202.38 87.588 202.284 87.892C202.044 88.628 201.716 89.452 201.3 90.364C200.9 91.26 200.42 92.18 199.86 93.124C199.3 94.052 198.66 94.964 197.94 95.86C196.804 97.268 195.436 98.604 193.836 99.868C192.252 101.132 190.308 102.204 188.004 103.084L185.22 100.66C186.9 100.148 188.356 99.54 189.588 98.836C190.82 98.132 191.884 97.38 192.78 96.58C193.692 95.78 194.484 94.98 195.156 94.18C195.7 93.556 196.212 92.86 196.692 92.092C197.188 91.308 197.612 90.532 197.964 89.764C198.332 88.98 198.588 88.284 198.732 87.676H190.62L191.724 84.94H198.54C198.924 84.94 199.3 84.916 199.668 84.868C200.052 84.82 200.372 84.756 200.628 84.676L203.076 86.188ZM195.156 82.492C194.868 82.908 194.58 83.356 194.292 83.836C194.02 84.316 193.812 84.684 193.668 84.94C193.124 85.9 192.436 86.924 191.604 88.012C190.772 89.084 189.836 90.132 188.796 91.156C187.772 92.18 186.684 93.092 185.532 93.892L182.94 91.9C184.348 91.02 185.54 90.1 186.516 89.14C187.508 88.164 188.332 87.228 188.988 86.332C189.644 85.42 190.172 84.612 190.572 83.908C190.764 83.62 190.964 83.236 191.172 82.756C191.396 82.26 191.564 81.812 191.676 81.412L195.156 82.492ZM205.927 90.388C206.215 90.404 206.583 90.428 207.031 90.46C207.479 90.476 207.943 90.492 208.423 90.508C208.919 90.524 209.375 90.532 209.791 90.532C210.191 90.532 210.687 90.532 211.279 90.532C211.871 90.532 212.511 90.532 213.199 90.532C213.903 90.532 214.623 90.532 215.359 90.532C216.111 90.532 216.855 90.532 217.591 90.532C218.327 90.532 219.023 90.532 219.679 90.532C220.335 90.532 220.919 90.532 221.431 90.532C221.959 90.532 222.375 90.532 222.679 90.532C223.239 90.532 223.767 90.516 224.263 90.484C224.759 90.436 225.167 90.404 225.487 90.388V94.156C225.215 94.14 224.807 94.116 224.263 94.084C223.719 94.052 223.191 94.036 222.679 94.036C222.375 94.036 221.959 94.036 221.431 94.036C220.903 94.036 220.311 94.036 219.655 94.036C218.999 94.036 218.303 94.036 217.567 94.036C216.847 94.036 216.111 94.036 215.359 94.036C214.607 94.036 213.879 94.036 213.175 94.036C212.487 94.036 211.847 94.036 211.255 94.036C210.679 94.036 210.191 94.036 209.791 94.036C209.103 94.036 208.399 94.052 207.679 94.084C206.959 94.1 206.375 94.124 205.927 94.156V90.388ZM238.75 82.252C238.67 82.684 238.542 83.244 238.366 83.932C238.19 84.62 237.934 85.396 237.598 86.26C237.342 86.852 237.046 87.468 236.71 88.108C236.39 88.732 236.062 89.292 235.726 89.788C235.934 89.692 236.198 89.612 236.518 89.548C236.838 89.468 237.166 89.412 237.502 89.38C237.854 89.332 238.166 89.308 238.438 89.308C239.446 89.308 240.278 89.596 240.934 90.172C241.606 90.748 241.942 91.604 241.942 92.74C241.942 93.06 241.942 93.452 241.942 93.916C241.958 94.38 241.974 94.868 241.99 95.38C242.006 95.876 242.022 96.364 242.038 96.844C242.054 97.324 242.062 97.756 242.062 98.14H239.182C239.214 97.868 239.23 97.548 239.23 97.18C239.246 96.796 239.254 96.396 239.254 95.98C239.27 95.564 239.278 95.164 239.278 94.78C239.294 94.38 239.302 94.02 239.302 93.7C239.302 92.932 239.094 92.404 238.678 92.116C238.278 91.812 237.83 91.66 237.334 91.66C236.662 91.66 235.982 91.828 235.294 92.164C234.622 92.484 234.054 92.868 233.59 93.316C233.238 93.668 232.878 94.06 232.51 94.492C232.158 94.924 231.774 95.412 231.358 95.956L228.79 94.036C229.83 93.076 230.726 92.148 231.478 91.252C232.246 90.356 232.894 89.468 233.422 88.588C233.95 87.708 234.382 86.828 234.718 85.948C234.958 85.308 235.15 84.644 235.294 83.956C235.454 83.252 235.55 82.596 235.582 81.988L238.75 82.252ZM229.726 84.46C230.334 84.556 231.038 84.628 231.838 84.676C232.638 84.724 233.342 84.748 233.95 84.748C235.006 84.748 236.158 84.724 237.406 84.676C238.67 84.628 239.95 84.548 241.246 84.436C242.542 84.308 243.774 84.148 244.942 83.956L244.918 86.74C244.07 86.852 243.15 86.956 242.158 87.052C241.182 87.132 240.182 87.204 239.158 87.268C238.15 87.316 237.182 87.356 236.254 87.388C235.326 87.404 234.502 87.412 233.782 87.412C233.462 87.412 233.062 87.412 232.582 87.412C232.118 87.396 231.638 87.38 231.142 87.364C230.646 87.332 230.174 87.3 229.726 87.268V84.46ZM248.734 91.276C248.478 91.356 248.174 91.46 247.822 91.588C247.486 91.7 247.142 91.82 246.79 91.948C246.454 92.06 246.15 92.172 245.878 92.284C245.11 92.588 244.198 92.956 243.142 93.388C242.102 93.82 241.014 94.324 239.878 94.9C239.158 95.284 238.55 95.66 238.054 96.028C237.558 96.396 237.182 96.772 236.926 97.156C236.67 97.524 236.542 97.932 236.542 98.38C236.542 98.716 236.614 98.996 236.758 99.22C236.902 99.428 237.118 99.596 237.406 99.724C237.694 99.852 238.054 99.94 238.486 99.988C238.918 100.036 239.43 100.06 240.022 100.06C241.046 100.06 242.174 100.004 243.406 99.892C244.638 99.764 245.782 99.596 246.838 99.388L246.742 102.484C246.23 102.548 245.582 102.612 244.798 102.676C244.014 102.756 243.198 102.812 242.35 102.844C241.518 102.876 240.718 102.892 239.95 102.892C238.702 102.892 237.582 102.772 236.59 102.532C235.598 102.292 234.814 101.884 234.238 101.308C233.678 100.716 233.398 99.908 233.398 98.884C233.398 98.052 233.582 97.3 233.95 96.628C234.334 95.956 234.838 95.348 235.462 94.804C236.086 94.26 236.766 93.772 237.502 93.34C238.254 92.892 238.99 92.484 239.71 92.116C240.446 91.732 241.11 91.404 241.702 91.132C242.294 90.86 242.846 90.62 243.358 90.412C243.886 90.188 244.39 89.964 244.87 89.74C245.334 89.532 245.782 89.332 246.214 89.14C246.646 88.932 247.086 88.716 247.534 88.492L248.734 91.276ZM258.88 93.58H273.256V96.148H258.88V93.58ZM266.584 85.228H269.152V88.708C269.152 88.98 269.184 89.156 269.248 89.236C269.328 89.3 269.472 89.332 269.68 89.332C269.744 89.332 269.848 89.332 269.992 89.332C270.152 89.332 270.312 89.332 270.472 89.332C270.648 89.332 270.768 89.332 270.832 89.332C270.976 89.332 271.088 89.292 271.168 89.212C271.248 89.132 271.304 88.964 271.336 88.708C271.368 88.452 271.392 88.052 271.408 87.508C271.648 87.7 271.992 87.884 272.44 88.06C272.904 88.236 273.312 88.364 273.664 88.444C273.584 89.276 273.44 89.924 273.232 90.388C273.04 90.836 272.776 91.156 272.44 91.348C272.104 91.524 271.672 91.612 271.144 91.612C271.048 91.612 270.912 91.612 270.736 91.612C270.56 91.612 270.376 91.612 270.184 91.612C270.008 91.612 269.832 91.612 269.656 91.612C269.48 91.612 269.344 91.612 269.248 91.612C268.512 91.612 267.952 91.524 267.568 91.348C267.184 91.172 266.92 90.868 266.776 90.436C266.648 90.004 266.584 89.428 266.584 88.708V85.228ZM259.12 82.204H273.208V87.004H270.64V84.652H261.568V87.124H259.12V82.204ZM264.592 91.18H267.424V103.636H264.592V91.18ZM262.744 85.252H265.336C265.288 86.164 265.184 86.988 265.024 87.724C264.864 88.46 264.6 89.108 264.232 89.668C263.864 90.228 263.336 90.716 262.648 91.132C261.96 91.548 261.072 91.892 259.984 92.164C259.872 91.86 259.68 91.508 259.408 91.108C259.136 90.692 258.872 90.364 258.616 90.124C259.496 89.932 260.2 89.7 260.728 89.428C261.272 89.14 261.68 88.804 261.952 88.42C262.224 88.02 262.408 87.564 262.504 87.052C262.616 86.524 262.696 85.924 262.744 85.252ZM268.144 94.828C268.544 95.564 269.048 96.292 269.656 97.012C270.28 97.732 270.96 98.396 271.696 99.004C272.448 99.596 273.208 100.092 273.976 100.492C273.768 100.668 273.536 100.884 273.28 101.14C273.04 101.396 272.808 101.66 272.584 101.932C272.36 102.22 272.176 102.484 272.032 102.724C271.232 102.212 270.448 101.58 269.68 100.828C268.928 100.076 268.232 99.26 267.592 98.38C266.952 97.484 266.4 96.564 265.936 95.62L268.144 94.828ZM263.968 94.564L266.2 95.308C265.704 96.38 265.096 97.404 264.376 98.38C263.672 99.34 262.888 100.212 262.024 100.996C261.16 101.764 260.232 102.404 259.24 102.916C259.016 102.58 258.728 102.188 258.376 101.74C258.04 101.308 257.712 100.972 257.392 100.732C258.32 100.332 259.208 99.82 260.056 99.196C260.904 98.556 261.664 97.836 262.336 97.036C263.008 96.236 263.552 95.412 263.968 94.564ZM250.84 93.172C251.8 92.964 252.944 92.684 254.272 92.332C255.616 91.98 256.968 91.612 258.328 91.228L258.688 93.82C257.456 94.188 256.208 94.556 254.944 94.924C253.696 95.292 252.536 95.628 251.464 95.932L250.84 93.172ZM251.224 85.66H258.568V88.3H251.224V85.66ZM253.744 81.124H256.384V100.612C256.384 101.268 256.312 101.788 256.168 102.172C256.04 102.572 255.792 102.884 255.424 103.108C255.072 103.332 254.624 103.484 254.08 103.564C253.552 103.644 252.888 103.676 252.088 103.66C252.056 103.308 251.968 102.868 251.824 102.34C251.68 101.828 251.52 101.38 251.344 100.996C251.792 101.012 252.2 101.028 252.568 101.044C252.952 101.044 253.216 101.036 253.36 101.02C253.504 101.02 253.6 100.996 253.648 100.948C253.712 100.884 253.744 100.772 253.744 100.612V81.124ZM288.789 82.156C288.773 82.284 288.749 82.492 288.717 82.78C288.701 83.052 288.685 83.332 288.669 83.62C288.653 83.892 288.637 84.092 288.621 84.22C288.605 84.54 288.597 84.972 288.597 85.516C288.597 86.044 288.597 86.636 288.597 87.292C288.597 87.948 288.597 88.612 288.597 89.284C288.613 89.94 288.621 90.564 288.621 91.156C288.637 91.732 288.645 92.212 288.645 92.596L285.645 91.588C285.645 91.284 285.645 90.884 285.645 90.388C285.645 89.876 285.645 89.324 285.645 88.732C285.645 88.124 285.637 87.524 285.621 86.932C285.621 86.34 285.613 85.804 285.597 85.324C285.581 84.844 285.565 84.484 285.549 84.244C285.517 83.748 285.477 83.316 285.429 82.948C285.381 82.564 285.341 82.3 285.309 82.156H288.789ZM275.229 85.132C275.933 85.132 276.733 85.124 277.629 85.108C278.525 85.092 279.461 85.076 280.437 85.06C281.413 85.044 282.373 85.028 283.317 85.012C284.261 84.996 285.149 84.988 285.981 84.988C286.813 84.972 287.533 84.964 288.141 84.964C288.749 84.964 289.413 84.964 290.133 84.964C290.853 84.948 291.565 84.94 292.269 84.94C292.973 84.94 293.613 84.94 294.189 84.94C294.781 84.94 295.237 84.94 295.557 84.94L295.533 87.772C294.781 87.74 293.789 87.716 292.557 87.7C291.325 87.668 289.821 87.652 288.045 87.652C286.957 87.652 285.853 87.668 284.733 87.7C283.613 87.716 282.501 87.74 281.397 87.772C280.293 87.804 279.229 87.844 278.205 87.892C277.181 87.924 276.213 87.972 275.301 88.036L275.229 85.132ZM288.213 92.236C288.213 93.548 288.053 94.636 287.733 95.5C287.429 96.364 286.965 97.02 286.341 97.468C285.717 97.9 284.941 98.116 284.013 98.116C283.565 98.116 283.093 98.02 282.597 97.828C282.117 97.636 281.669 97.356 281.253 96.988C280.837 96.62 280.501 96.164 280.245 95.62C280.005 95.076 279.885 94.436 279.885 93.7C279.885 92.788 280.101 92.004 280.533 91.348C280.965 90.676 281.541 90.156 282.261 89.788C282.997 89.404 283.805 89.212 284.685 89.212C285.741 89.212 286.621 89.452 287.325 89.932C288.045 90.396 288.581 91.028 288.933 91.828C289.301 92.628 289.485 93.532 289.485 94.54C289.485 95.324 289.357 96.14 289.101 96.988C288.845 97.836 288.421 98.668 287.829 99.484C287.253 100.284 286.469 101.012 285.477 101.668C284.501 102.324 283.277 102.86 281.805 103.276L279.237 100.732C280.261 100.524 281.213 100.252 282.093 99.916C282.973 99.58 283.741 99.156 284.397 98.644C285.069 98.132 285.589 97.5 285.957 96.748C286.341 95.996 286.533 95.092 286.533 94.036C286.533 93.268 286.341 92.692 285.957 92.308C285.589 91.924 285.141 91.732 284.613 91.732C284.309 91.732 284.013 91.804 283.725 91.948C283.437 92.092 283.205 92.308 283.029 92.596C282.853 92.884 282.765 93.236 282.765 93.652C282.765 94.196 282.949 94.636 283.317 94.972C283.701 95.292 284.133 95.452 284.613 95.452C284.997 95.452 285.333 95.332 285.621 95.092C285.925 94.852 286.125 94.452 286.221 93.892C286.317 93.332 286.237 92.58 285.981 91.636L288.213 92.236Z" fill="white"/>
<rect x="323" y="62.5" width="30" height="30" rx="15" fill="white"/>
<path d="M335 69.5L343 77.5L335 85.5" stroke="#E02838" stroke-width="2" stroke-linecap="round" stroke-linejoin="round"/>

  <!-- シャイニーエフェクト（ボタン上の光が走るアニメーション） -->
  <g clip-path="url(#btn-clip)">
    <rect x="-50" y="20" width="500" height="115" fill="url(#shimmer-grad)" transform="skewX(-12)"/>
  </g>
</g>
<defs>
<filter id="filter0_d_5620_2193" x="0" y="30" width="403" height="115" filterUnits="userSpaceOnUse" color-interpolation-filters="sRGB">
<feFlood flood-opacity="0" result="BackgroundImageFix"/>
<feColorMatrix in="SourceAlpha" type="matrix" values="0 0 0 0 0 0 0 0 0 0 0 0 0 0 0 0 0 0 127 0" result="hardAlpha"/>
<feOffset dy="10"/>
<feGaussianBlur stdDeviation="5"/>
<feComposite in2="hardAlpha" operator="out"/>
<feColorMatrix type="matrix" values="0 0 0 0 0.0470588 0 0 0 0 0.145098 0 0 0 0 0.301961 0 0 0 0.3 0"/>
<feBlend mode="multiply" in2="BackgroundImageFix" result="effect1_dropShadow_5620_2193"/>
<feBlend mode="normal" in="SourceGraphic" in2="effect1_dropShadow_5620_2193" result="shape"/>
</filter>

  <!-- シャイニーエフェクト用定義 -->
  <clipPath id="btn-clip">
    <rect x="10" y="30" width="383" height="95" rx="47.5"/>
  </clipPath>
  <!-- シャイニーグラデーション（x1/x2をアニメーションで移動） -->
  <linearGradient id="shimmer-grad" x1="-100" y1="0" x2="0" y2="0" gradientUnits="userSpaceOnUse">
    <stop offset="0%"   stop-color="white" stop-opacity="0"/>
    <stop offset="20%"  stop-color="white" stop-opacity="0.3"/>
    <stop offset="45%"  stop-color="white" stop-opacity="0.75"/>
    <stop offset="50%"  stop-color="white" stop-opacity="1.0"/>
    <stop offset="55%"  stop-color="white" stop-opacity="0.75"/>
    <stop offset="80%"  stop-color="white" stop-opacity="0.3"/>
    <stop offset="100%" stop-color="white" stop-opacity="0"/>
    <!-- x1 アニメーション: 光の左端を左から右へ -->
    <animate
      attributeName="x1"
      values="-100; 393"
      dur="3s"
      repeatCount="indefinite"
      begin="0.5s"
      calcMode="spline"
      keyTimes="0; 1"
      keySplines="0.25 0.1 0.25 1"
    />
    <!-- x2 アニメーション: 光の右端を左から右へ（x1+100） -->
    <animate
      attributeName="x2"
      values="0; 493"
      dur="3s"
      repeatCount="indefinite"
      begin="0.5s"
      calcMode="spline"
      keyTimes="0; 1"
      keySplines="0.25 0.1 0.25 1"
    />
  </linearGradient>
</defs>
</svg>
