<svg width="100" height="100" viewBox="0 0 100 100" fill="none" xmlns="http://www.w3.org/2000/svg">
<g clip-path="url(#clip0_5622_3692)">
<mask id="mask0_5622_3692" style="mask-type:luminance" maskUnits="userSpaceOnUse" x="0" y="0" width="100" height="100">
<path d="M100 0H0V100H100V0Z" fill="white"/>
</mask>
<g mask="url(#mask0_5622_3692)">
<path d="M4.04999 42.6405C2.93999 48.3005 9.93999 63.9705 20.74 75.9105C30.77 87.0105 41.03 93.2005 47.49 93.3305C56.89 93.5205 62.72 90.1005 64.42 85.1905C66.36 79.6105 59.58 72.2005 55 71.9305C49.8 71.6205 49.12 76.0605 45.97 77.2905C42.39 76.2405 38.66 73.0205 31.65 65.0205C23.38 55.5805 21.21 48.6305 21.21 48.6305C21.21 48.6305 28.66 44.6105 29.21 40.1305C29.76 35.6105 22.96 27.7505 18 27.8805C13.04 28.0005 5.44999 35.4905 4.04999 42.6405Z" fill="#FFFF59" stroke="#084AA6" stroke-width="4.1" stroke-linecap="round" stroke-linejoin="round"/>
<path d="M25.59 24.7702C32.29 13.9002 44.3 6.66016 58.01 6.66016C79.03 6.66016 96.07 23.7002 96.07 44.7202C96.07 61.7402 84.89 76.1602 69.48 81.0202" stroke="#084AA6" stroke-width="4.1" stroke-linecap="round" stroke-linejoin="round"/>
<path d="M41.28 53.6504L50.64 41.9304C51 41.4604 51.25 41.0204 51.38 40.6104C51.47 40.2304 51.51 39.8604 51.51 39.5204C51.51 38.6204 51.23 37.8404 50.67 37.1704C50.09 36.5004 49.27 36.1604 48.2 36.1304C47.26 36.1304 46.47 36.4304 45.85 37.0304C45.2 37.6304 44.82 38.4804 44.7 39.5804H41.28C41.37 37.5804 42.04 35.9304 43.29 34.6304C44.55 33.3604 46.1 32.7104 47.95 32.6904C50.01 32.7104 51.68 33.3704 52.97 34.6604C54.28 35.9404 54.94 37.5704 54.96 39.5504C54.96 41.1304 54.48 42.5304 53.51 43.7604L45.79 53.4404H54.96V56.8804H41.29V53.6404L41.28 53.6504Z" fill="#084AA6" stroke="#084AA6" stroke-width="1.39" stroke-linecap="round" stroke-linejoin="round"/>
<path d="M59.48 50.0804L67.49 32.9004H71.32L63.21 50.0804H69.48V43.1904H72.92V50.0804H74.83V53.3204H72.92V56.8904H69.48V53.3204H59.48V50.0804Z" fill="#084AA6" stroke="#084AA6" stroke-width="1.39" stroke-linecap="round" stroke-linejoin="round"/>
</g>
</g>
<defs>
<clipPath id="clip0_5622_3692">
<rect width="100" height="100" fill="white"/>
</clipPath>
</defs>
</svg>
