<svg width="100" height="100" viewBox="0 0 100 100" fill="none" xmlns="http://www.w3.org/2000/svg">
<g clip-path="url(#clip0_5623_3760)">
<mask id="mask0_5623_3760" style="mask-type:luminance" maskUnits="userSpaceOnUse" x="0" y="0" width="100" height="100">
<path d="M100 0H0V100H100V0Z" fill="white"/>
</mask>
<g mask="url(#mask0_5623_3760)">
<path d="M83.57 91.4701C81.26 76.9701 75.64 60.1501 64.33 52.3301L50 55.4301L35.36 52.5501C24.25 60.4601 18.72 77.1101 16.43 91.4701C16.06 93.7801 17.84 95.8701 20.18 95.8701H79.82C82.16 95.8701 83.94 93.7801 83.57 91.4701Z" fill="#FFFF59" stroke="#084AA6" stroke-width="4.06" stroke-linecap="round" stroke-linejoin="round"/>
<path d="M59.9701 70.5498H65.9601" stroke="#084AA6" stroke-width="2.71" stroke-linecap="round" stroke-linejoin="round"/>
<path d="M58.5501 45.7398C55.9701 47.0698 53.0501 47.8198 49.9501 47.8198C39.5901 47.8198 31.1901 39.4198 31.1901 29.0598C31.1901 18.6998 39.5901 10.2998 49.9501 10.2998C60.3101 10.2998 68.7101 18.6998 68.7101 29.0598C68.7101 31.6498 68.1801 34.1198 67.2401 36.3598" stroke="#084AA6" stroke-width="4.06" stroke-linecap="round" stroke-linejoin="round"/>
<path d="M25.02 29.0599C25.02 15.2899 36.18 4.12988 49.95 4.12988C63.72 4.12988 74.88 15.2899 74.88 29.0599C74.88 34.9599 72.83 40.3899 69.4 44.6599L59.33 37.8499" stroke="#084AA6" stroke-width="4.06" stroke-linecap="round" stroke-linejoin="round"/>
</g>
</g>
<defs>
<clipPath id="clip0_5623_3760">
<rect width="100" height="100" fill="white"/>
</clipPath>
</defs>
</svg>
