<svg width="80" height="80" viewBox="0 0 80 80" fill="none" xmlns="http://www.w3.org/2000/svg">
<g clip-path="url(#clip0_5621_2815)">
<mask id="mask0_5621_2815" style="mask-type:luminance" maskUnits="userSpaceOnUse" x="0" y="0" width="80" height="80">
<path d="M80 0H0V80H80V0Z" fill="white"/>
</mask>
<g mask="url(#mask0_5621_2815)">
<path d="M69.68 35.8599C69.68 19.4699 56.39 6.17993 40 6.17993C23.61 6.17993 10.32 19.4699 10.32 35.8599C10.32 49.6099 19.67 61.1799 32.36 64.5499L40 73.8299L47.64 64.5499C60.33 61.1799 69.69 49.6199 69.69 35.8599H69.68Z" stroke="#084AA6" stroke-width="3.48" stroke-linecap="round" stroke-linejoin="round"/>
<path d="M62.8961 39.578C64.9482 26.936 56.3634 15.024 43.7214 12.972C31.0794 10.9199 19.1674 19.5047 17.1154 32.1467C15.0633 44.7887 23.6481 56.7007 36.2901 58.7527C48.9321 60.8048 60.8441 52.22 62.8961 39.578Z" fill="#FFFF59"/>
<path d="M37.61 41.1198C37.61 40.3498 37.67 39.6598 37.8 39.0498C37.94 38.4698 38.22 37.8798 38.64 37.2998L42.21 32.3498C42.87 31.4098 43.2 30.5398 43.2 29.7198C43.17 28.5998 42.81 27.7298 42.11 27.0898C41.4 26.4798 40.62 26.1698 39.77 26.1698C38.73 26.1698 37.88 26.4898 37.22 27.1198C36.47 27.7798 36.09 28.9098 36.09 30.5098H32.02V29.7098C32.05 27.4998 32.81 25.6898 34.3 24.2698C35.77 22.8398 37.52 22.1098 39.56 22.0898C41.64 22.1198 43.43 22.7898 44.92 24.1198C46.47 25.5098 47.25 27.3898 47.28 29.7498C47.25 31.4298 46.82 32.8198 45.99 33.9398L42.37 38.9298C41.89 39.6198 41.66 40.4598 41.69 41.4398V43.7198H37.62V41.1098L37.61 41.1198ZM37.61 46.6798H41.68V50.7498H37.61V46.6798Z" fill="#084AA6"/>
</g>
</g>
<defs>
<clipPath id="clip0_5621_2815">
<rect width="80" height="80" fill="white"/>
</clipPath>
</defs>
</svg>
