<svg width="80" height="80" viewBox="0 0 80 80" fill="none" xmlns="http://www.w3.org/2000/svg">
<g clip-path="url(#clip0_5621_2762)">
<mask id="mask0_5621_2762" style="mask-type:luminance" maskUnits="userSpaceOnUse" x="0" y="0" width="80" height="80">
<path d="M80 0H0V80H80V0Z" fill="white"/>
</mask>
<g mask="url(#mask0_5621_2762)">
<path d="M2.67 36.99C1.87 41.08 6.93 52.4 14.73 61.02C21.98 69.04 29.39 73.51 34.05 73.61C40.84 73.75 45.05 71.27 46.28 67.73C47.68 63.7 42.78 58.35 39.47 58.15C35.71 57.93 35.22 61.13 32.95 62.02C30.37 61.26 27.67 58.93 22.61 53.16C16.64 46.34 15.07 41.32 15.07 41.32C15.07 41.32 20.45 38.42 20.85 35.18C21.25 31.91 16.34 26.24 12.75 26.33C9.17 26.42 3.68 31.83 2.67 36.99Z" fill="#FFFF59" stroke="#084AA6" stroke-width="2.69" stroke-linecap="round" stroke-linejoin="round"/>
<path d="M69.7 6.39001H40.01C35.76 6.39001 32.29 9.86001 32.29 14.11V29.46C32.29 33.71 35.76 37.18 40.01 37.18H41.84V43.57L48.23 37.18H69.69C73.94 37.18 77.41 33.71 77.41 29.46V14.11C77.41 9.86001 73.94 6.39001 69.69 6.39001H69.7Z" stroke="#084AA6" stroke-width="2.69" stroke-linecap="round" stroke-linejoin="round"/>
<path d="M44.44 24.6601C46.0858 24.6601 47.42 23.3259 47.42 21.6801C47.42 20.0343 46.0858 18.7001 44.44 18.7001C42.7942 18.7001 41.46 20.0343 41.46 21.6801C41.46 23.3259 42.7942 24.6601 44.44 24.6601Z" fill="#FFFF59" stroke="#084AA6" stroke-width="1.8" stroke-linecap="round" stroke-linejoin="round"/>
<path d="M55.12 24.6601C56.7658 24.6601 58.1 23.3259 58.1 21.6801C58.1 20.0343 56.7658 18.7001 55.12 18.7001C53.4742 18.7001 52.14 20.0343 52.14 21.6801C52.14 23.3259 53.4742 24.6601 55.12 24.6601Z" fill="#FFFF59" stroke="#084AA6" stroke-width="1.8" stroke-linecap="round" stroke-linejoin="round"/>
<path d="M65.81 24.6601C67.4558 24.6601 68.79 23.3259 68.79 21.6801C68.79 20.0343 67.4558 18.7001 65.81 18.7001C64.1642 18.7001 62.83 20.0343 62.83 21.6801C62.83 23.3259 64.1642 24.6601 65.81 24.6601Z" fill="#FFFF59" stroke="#084AA6" stroke-width="1.8" stroke-linecap="round" stroke-linejoin="round"/>
</g>
</g>
<defs>
<clipPath id="clip0_5621_2762">
<rect width="80" height="80" fill="white"/>
</clipPath>
</defs>
</svg>
