<svg width="100" height="100" viewBox="0 0 100 100" fill="none" xmlns="http://www.w3.org/2000/svg">
<g clip-path="url(#clip0_5622_3729)">
<mask id="mask0_5622_3729" style="mask-type:luminance" maskUnits="userSpaceOnUse" x="0" y="0" width="100" height="100">
<path d="M100 0H0V100H100V0Z" fill="white"/>
</mask>
<g mask="url(#mask0_5622_3729)">
<path d="M49.98 90.07C31.02 90.07 15.14 76.9 10.98 59.21" stroke="#084AA6" stroke-width="3.95" stroke-linecap="round" stroke-linejoin="round"/>
<path d="M49.98 9.92969C70.39 9.92969 87.23 25.1897 89.73 44.9197" stroke="#084AA6" stroke-width="3.95" stroke-linecap="round" stroke-linejoin="round"/>
<path d="M5.7699 68.5198L9.7599 57.5898L20.6899 61.5898" stroke="#084AA6" stroke-width="3.95" stroke-linecap="round" stroke-linejoin="round"/>
<path d="M96.0599 37.2598L90.2699 47.3498L80.1799 41.5598" stroke="#084AA6" stroke-width="3.95" stroke-linecap="round" stroke-linejoin="round"/>
<path d="M37.8699 16.5693H4.60994C4.23991 16.5693 3.93994 16.8693 3.93994 17.2393V42.0093C3.93994 42.3794 4.23991 42.6793 4.60994 42.6793H37.8699C38.24 42.6793 38.5399 42.3794 38.5399 42.0093V17.2393C38.5399 16.8693 38.24 16.5693 37.8699 16.5693Z" fill="#FFFF59" stroke="#084AA6" stroke-width="3.47" stroke-linecap="round" stroke-linejoin="round"/>
<path d="M3.93994 17.2295L20.7599 30.1795C21.0399 30.3995 21.4299 30.3995 21.7199 30.1795L37.8599 17.7495" stroke="#084AA6" stroke-width="3.47" stroke-linecap="round" stroke-linejoin="round"/>
<path d="M4.58997 40.7493L18.98 28.7793" stroke="#084AA6" stroke-width="3.47" stroke-linecap="round" stroke-linejoin="round"/>
<path d="M38.01 40.8593L23.49 28.7793" stroke="#084AA6" stroke-width="3.47" stroke-linecap="round" stroke-linejoin="round"/>
<path d="M95.3399 59.21H62.0799C61.7099 59.21 61.4099 59.5099 61.4099 59.88V84.65C61.4099 85.02 61.7099 85.32 62.0799 85.32H95.3399C95.7099 85.32 96.0099 85.02 96.0099 84.65V59.88C96.0099 59.5099 95.7099 59.21 95.3399 59.21Z" fill="#FFFF59" stroke="#084AA6" stroke-width="3.47" stroke-linecap="round" stroke-linejoin="round"/>
<path d="M61.4099 59.8701L78.2299 72.8201C78.5099 73.0401 78.8999 73.0401 79.1899 72.8201L95.3299 60.3901" stroke="#084AA6" stroke-width="3.47" stroke-linecap="round" stroke-linejoin="round"/>
<path d="M62.0699 83.3899L76.4499 71.4199" stroke="#084AA6" stroke-width="3.47" stroke-linecap="round" stroke-linejoin="round"/>
<path d="M95.48 83.4999L80.97 71.4199" stroke="#084AA6" stroke-width="3.47" stroke-linecap="round" stroke-linejoin="round"/>
</g>
</g>
<defs>
<clipPath id="clip0_5622_3729">
<rect width="100" height="100" fill="white"/>
</clipPath>
</defs>
</svg>
