<svg width="80" height="80" viewBox="0 0 80 80" fill="none" xmlns="http://www.w3.org/2000/svg">
<g clip-path="url(#clip0_5622_2786)">
<mask id="mask0_5622_2786" style="mask-type:luminance" maskUnits="userSpaceOnUse" x="0" y="0" width="80" height="80">
<path d="M80 0H0V80H80V0Z" fill="white"/>
</mask>
<g mask="url(#mask0_5622_2786)">
<path d="M25.41 63.7101C29.1 71.7901 51.48 73.0701 57.55 65.2901C62.55 58.8801 61.08 52.0801 61.15 43.6201C61.23 34.7701 61.15 25.2501 61.15 25.2501C61.15 16.8601 53.8 17.1001 52.25 21.0101C52.25 13.9401 49.04 11.2101 43.92 13.9401C43.92 8.29006 33.22 9.18006 35.59 18.0101C35.59 11.2701 26.92 12.3301 26.92 17.3901C26.92 20.4901 26.8 46.9301 26.8 46.9301C24.26 42.9301 21.33 39.8101 17.77 39.3001C16.23 39.0801 14.73 39.6301 13.58 40.2701C12.36 40.9501 12.05 42.5801 12.91 43.6801C14.26 45.4001 16.37 48.2701 18.66 52.0201C21.18 56.1601 23.31 59.1401 25.4 63.7201L25.41 63.7101Z" fill="#FFFF59" stroke="#084AA6" stroke-width="3.25" stroke-linecap="round" stroke-linejoin="round"/>
<path d="M35.61 13.9301V35.6801" stroke="#084AA6" stroke-width="3.25" stroke-linecap="round" stroke-linejoin="round"/>
<path d="M43.93 13.9301V35.6801" stroke="#084AA6" stroke-width="3.25" stroke-linecap="round" stroke-linejoin="round"/>
<path d="M52.26 19.62V35.68" stroke="#084AA6" stroke-width="3.25" stroke-linecap="round" stroke-linejoin="round"/>
<path d="M76.12 19.56V3.88H60.44" stroke="#084AA6" stroke-width="3.25" stroke-linecap="round" stroke-linejoin="round"/>
<path d="M19.56 3.88H3.88V19.56" stroke="#084AA6" stroke-width="3.25" stroke-linecap="round" stroke-linejoin="round"/>
<path d="M3.88 60.4399V76.1199H19.56" stroke="#084AA6" stroke-width="3.25" stroke-linecap="round" stroke-linejoin="round"/>
<path d="M60.44 76.1199H76.12V60.4399" stroke="#084AA6" stroke-width="3.25" stroke-linecap="round" stroke-linejoin="round"/>
</g>
</g>
<defs>
<clipPath id="clip0_5622_2786">
<rect width="80" height="80" fill="white"/>
</clipPath>
</defs>
</svg>
