<svg width="80" height="80" viewBox="0 0 80 80" fill="none" xmlns="http://www.w3.org/2000/svg">
<g clip-path="url(#clip0_5621_2784)">
<mask id="mask0_5621_2784" style="mask-type:luminance" maskUnits="userSpaceOnUse" x="0" y="0" width="80" height="80">
<path d="M80 0H0V80H80V0Z" fill="white"/>
</mask>
<g mask="url(#mask0_5621_2784)">
<path d="M63.66 41.4701C63.66 28.3601 53.03 17.7301 39.92 17.7301C26.81 17.7301 16.18 28.3601 16.18 41.4701C16.18 45.8901 13.11 42.8001 13.11 36.1701C13.11 21.3701 25.11 9.37012 39.91 9.37012C54.71 9.37012 66.71 21.3701 66.71 36.1701C66.71 42.8001 63.64 45.8901 63.64 41.4701H63.66Z" fill="#FFFF59" stroke="#084AA6" stroke-width="2.97" stroke-linecap="round" stroke-linejoin="round"/>
<path d="M14.95 56.7402C15.77 60.1802 20.52 67.2302 26.92 67.8902" stroke="#084AA6" stroke-width="2.97" stroke-linecap="round" stroke-linejoin="round"/>
<path d="M39.58 65.04H29.49C28.0651 65.04 26.91 66.1951 26.91 67.62V68.06C26.91 69.4849 28.0651 70.64 29.49 70.64H39.58C41.0049 70.64 42.16 69.4849 42.16 68.06V67.62C42.16 66.1951 41.0049 65.04 39.58 65.04Z" stroke="#084AA6" stroke-width="2.97" stroke-linecap="round" stroke-linejoin="round"/>
<path d="M14.92 37.2302H11.68C9.95998 37.2302 8.56998 38.6202 8.56998 40.3402C5.21998 40.3402 2.97998 43.4602 2.97998 47.3102C2.97998 51.1602 5.21998 54.2802 8.56998 54.2802C8.56998 56.0002 9.95998 57.3902 11.68 57.3902H14.92C16.12 57.3902 17.09 56.4202 17.09 55.2202V39.4002C17.09 38.2002 16.12 37.2302 14.92 37.2302Z" fill="#FFFF59" stroke="#084AA6" stroke-width="2.97" stroke-linecap="round" stroke-linejoin="round"/>
<path d="M71.43 40.3502C71.43 38.6302 70.04 37.2402 68.32 37.2402H65.08C63.88 37.2402 62.91 38.2102 62.91 39.4102V55.2302C62.91 56.4302 63.88 57.4002 65.08 57.4002H68.32C70.04 57.4002 71.43 56.0102 71.43 54.2902C74.78 54.2902 77.02 51.1702 77.02 47.3202C77.02 43.4702 74.78 40.3502 71.43 40.3502Z" fill="#FFFF59" stroke="#084AA6" stroke-width="2.97" stroke-linecap="round" stroke-linejoin="round"/>
<path d="M9.07996 42.8V50.59" stroke="#084AA6" stroke-width="1.98" stroke-linecap="round" stroke-linejoin="round"/>
<path d="M70.76 42.8V50.59" stroke="#084AA6" stroke-width="1.98" stroke-linecap="round" stroke-linejoin="round"/>
</g>
</g>
<defs>
<clipPath id="clip0_5621_2784">
<rect width="80" height="80" fill="white"/>
</clipPath>
</defs>
</svg>
