<?xml version="1.0" encoding="UTF-8"?>
<svg id="_レイヤー_2" data-name="レイヤー 2" xmlns="http://www.w3.org/2000/svg" xmlns:xlink="http://www.w3.org/1999/xlink" viewBox="0 0 195 195">
  <defs>
    <style>
      .cls-1, .cls-2 {
        fill: #ffff59;
      }

      .cls-3, .cls-4, .cls-5, .cls-6 {
        fill: #fff;
      }

      .cls-3, .cls-7, .cls-2, .cls-8, .cls-9, .cls-10, .cls-5, .cls-11, .cls-6 {
        stroke-linecap: round;
        stroke-linejoin: round;
      }

      .cls-3, .cls-7, .cls-2, .cls-8, .cls-10, .cls-5, .cls-11, .cls-6 {
        stroke: #084aa6;
      }

      .cls-3, .cls-11 {
        stroke-width: 2.09px;
      }

      .cls-12, .cls-8 {
        fill: #f2f8ff;
      }

      .cls-7, .cls-2, .cls-8, .cls-10, .cls-6 {
        stroke-width: 2.16px;
      }

      .cls-7, .cls-13, .cls-11 {
        fill: #084aa6;
      }

      .cls-14, .cls-9, .cls-10 {
        fill: none;
      }

      .cls-9 {
        stroke: #f2f8ff;
        stroke-width: 1.66px;
      }

      .cls-5 {
        stroke-width: 2.19px;
      }

      .cls-15 {
        clip-path: url(#clippath);
      }
    </style>
    <clipPath id="clippath">
      <rect class="cls-14" width="195" height="195"/>
    </clipPath>
  </defs>
  <g id="img">
    <g class="cls-15">
      <g>
        <g>
          <path class="cls-12" d="M168.43,131.72l-13.38,1.82s-17.12-35.71-21.3-39.83c-1.23-1.22-7.37-2.48-12.84-4.5-5.47-2.03-24.74-6.51-34.67-6.31s-42.31,10.61-42.31,10.61c-9.41,4.42-14.12,25.52-16.01,32.28-1.32,4.72-9.83,40.62-10.53,50.85-.66,9.64,6.24,15.93,15.82,14.73,5.49-.69,13.93-4.13,16.49-5,.77-.27,1.78-.65,2.91-1.11.52,10.03.98,19.45.98,19.45h77.48l.27-42.67s8.29,20.68,18.22,21.5,21.3-28.1,21.3-28.1l-2.43-23.72Z"/>
          <path class="cls-10" d="M168.43,131.72l-13.38,1.82s-17.12-35.71-21.3-39.83c-1.23-1.22-7.37-2.48-12.84-4.5-5.47-2.03-24.74-6.51-34.67-6.31s-42.31,10.61-42.31,10.61c-9.41,4.42-14.12,25.52-16.01,32.28-1.32,4.72-9.83,40.62-10.53,50.85-.66,9.64,6.24,15.93,15.82,14.73,5.49-.69,13.93-4.13,16.49-5,.77-.27,1.78-.65,2.91-1.11.52,10.03.98,19.45.98,19.45h77.48l.27-42.67s8.29,20.68,18.22,21.5,21.3-28.1,21.3-28.1l-2.43-23.72Z"/>
        </g>
        <path class="cls-4" d="M69.2,93.87s19.67-9.94,20.28-9.53c.61.41,19.87,13.59,19.87,13.59l-15.65,66.09-24.49-70.14Z"/>
        <polygon class="cls-7" points="83.2 93.4 89.93 102.51 95.43 101.78 98.36 91.08 89.44 88.64 83.2 93.4"/>
        <path class="cls-7" d="M89.93,102.51l5.5-.73,8,37.03c.26-.14-5.78,29.91-8.25,30.61-.58.17-8.02-30.71-8.02-30.71l2.77-36.2Z"/>
        <polygon class="cls-6" points="75.48 81.91 77.51 62.04 100.43 62.04 104.56 82.25 90.9 89.55 75.48 81.91"/>
        <path class="cls-5" d="M98.69,181.73c.17,1.75-1.1,3.3-2.85,3.48-1.75.17-3.3-1.1-3.48-2.85-.17-1.75,1.1-3.3,2.85-3.48,1.75-.17,3.3,1.1,3.48,2.85Z"/>
        <path class="cls-6" d="M73.56,76.97l17.5,11.68s-1.67,1.7-5.52,4.94c-3.85,3.24-8.25,9.47-8.25,9.47l-6.54-18.15,2.81-7.94Z"/>
        <path class="cls-6" d="M104.6,77.21l-13.54,11.43s1.22.61,6.7,5.07c2.93,2.38,8.43,8.07,8.43,8.07,0,0,1.02-13.13,1.23-13.94.2-.81-2.81-10.62-2.81-10.62Z"/>
        <path class="cls-2" d="M51.04,157.59s-2.27-16.91-2.54-18.53"/>
        <path class="cls-8" d="M70.38,81.53l-9.22,4.57-1.42,4.66,6.75,3.49-8.38,7.37s33.63,60.9,37.07,67.8c0,0-19.94-76.13-24.81-87.89Z"/>
        <path class="cls-8" d="M106.19,81.37s.94,21.51-2.02,40.39c-2.16,13.84-8.38,47.5-8.98,47.66-.03,1.89,16.68-36.11,21.93-54.82,1.76-6.26,3.65-16.02,3.65-16.02l-8.18-3.92,6.36-4.1-3.79-5.36-8.97-3.83Z"/>
        <path class="cls-2" d="M131.34,162.05s.68-14.33.81-18.38"/>
        <g>
          <path class="cls-6" d="M134.07,123.41c.5-2.42-6.89-8.92-9.12-5.88-2.23,3.04-.61,5.27,2.03,7.71,2.64,2.43,6.6.6,7.1-1.82Z"/>
          <g>
            <g>
              <rect class="cls-1" x="129.68" y="97.64" width="46.89" height="59" rx="2.03" ry="2.03"/>
              <rect class="cls-10" x="129.68" y="97.64" width="46.89" height="59" rx="2.03" ry="2.03"/>
            </g>
            <rect class="cls-8" x="136.1" y="101.63" width="34.3" height="13.16"/>
            <rect class="cls-13" x="135.9" y="124.12" width="5.3" height="5.3" rx="1.04" ry="1.04"/>
            <rect class="cls-13" x="143.26" y="124.12" width="5.3" height="5.3" rx="1.04" ry="1.04"/>
            <rect class="cls-13" x="150.62" y="124.12" width="5.3" height="5.3" rx="1.04" ry="1.04"/>
            <rect class="cls-13" x="157.98" y="124.12" width="5.3" height="5.3" rx="1.04" ry="1.04"/>
            <rect class="cls-13" x="135.9" y="131.71" width="5.3" height="5.3" rx="1.04" ry="1.04"/>
            <rect class="cls-13" x="143.26" y="131.71" width="5.3" height="5.3" rx="1.04" ry="1.04"/>
            <rect class="cls-13" x="150.62" y="131.71" width="5.3" height="5.3" rx="1.04" ry="1.04"/>
            <rect class="cls-13" x="157.98" y="131.71" width="5.3" height="5.3" rx="1.04" ry="1.04"/>
            <rect class="cls-13" x="135.9" y="139.29" width="5.3" height="5.3" rx="1.04" ry="1.04"/>
            <rect class="cls-13" x="143.26" y="139.29" width="5.3" height="5.3" rx="1.04" ry="1.04"/>
            <rect class="cls-13" x="150.62" y="139.29" width="5.3" height="5.3" rx="1.04" ry="1.04"/>
            <rect class="cls-13" x="157.98" y="139.29" width="5.3" height="5.3" rx="1.04" ry="1.04"/>
            <rect class="cls-13" x="135.9" y="146.88" width="5.3" height="5.3" rx="1.04" ry="1.04"/>
            <rect class="cls-13" x="143.26" y="146.88" width="5.3" height="5.3" rx="1.04" ry="1.04"/>
            <rect class="cls-13" x="150.62" y="146.88" width="5.3" height="5.3" rx="1.04" ry="1.04"/>
            <rect class="cls-13" x="157.98" y="146.88" width="5.3" height="5.3" rx="1.04" ry="1.04"/>
            <rect class="cls-13" x="165.4" y="124.12" width="5.3" height="5.3" rx="1.04" ry="1.04"/>
            <rect class="cls-13" x="165.4" y="131.71" width="5.3" height="5.3" rx="1.04" ry="1.04"/>
            <rect class="cls-13" x="165.4" y="139.29" width="5.3" height="5.3" rx="1.04" ry="1.04"/>
            <rect class="cls-13" x="165.4" y="146.88" width="5.3" height="5.3" rx="1.04" ry="1.04"/>
            <rect class="cls-13" x="130.74" y="117.31" width="45.8" height="3.65"/>
          </g>
          <path class="cls-6" d="M173.3,119.37c.67-1.69,6.18-7.3,8.62-4.06,2.43,3.24-.78,6.44-4.83,7.78-3.49,1.15-4.46-2.03-3.79-3.72Z"/>
          <path class="cls-6" d="M174.65,126.79c1.48-1.04,7.95-3.58,8.42.45.47,4.03-3.09,5.71-7.34,5.35-4.25-.36-2.56-4.76-1.08-5.79Z"/>
          <path class="cls-6" d="M174,136.37c1.43-.99,7.23-4.47,8.41-.59,1.02,3.36-1.61,5.63-5.87,5.79-4.26.16-3.97-4.21-2.54-5.2Z"/>
          <path class="cls-6" d="M173.4,147.85c.6-1.2,4.87-6.59,7.3-3.35s-1.02,6.87-5.27,7.2c-2.75.21-2.63-2.65-2.03-3.85Z"/>
        </g>
        <g>
          <path class="cls-3" d="M109.92,57.86c4.61.58,9.86-4.54,9.79-10.83-.05-3.94-5.59-7.19-8.85-4.07-1.2,1.15-2.58,2.92-3.03,3.74"/>
          <path class="cls-3" d="M114.61,49.36c-.93.47-2.08,1.12-2.34,2.7"/>
          <path class="cls-3" d="M64.03,62.71c-4.46,1.28-10.44-2.97-11.33-9.2-.56-3.9,4.42-7.97,8.12-5.38,1.37.95,3,2.49,3.57,3.23"/>
          <path class="cls-3" d="M58.07,54.15c.97.39,2.16.95,2.55,2.5"/>
          <path class="cls-3" d="M59.54,30.89c-.66,6.27.14,14.35,1.68,22.95,4.03,22.58,18.58,26.5,23.93,27.72,2.8.64,10.01-.15,12.5-1.16,8.16-3.3,12.4-12.33,14.24-23.51,1.21-7.33,2.33-19.67-.83-27.61-3.16-7.94-13.81-27.98-32.48-15.23-10.95,7.48-17.84,5.51-19.03,16.84Z"/>
          <path class="cls-3" d="M95.7,64.92s-.78,7.16-6.38,7.34c-5.68.18-7.88-6.34-7.88-6.34l14.26-1Z"/>
          <path class="cls-3" d="M90.66,57.58l2.93-2.58s-3.04-7.99-3.48-11.04"/>
          <path class="cls-13" d="M101.64,42.05c.43,1.02-.05,2.2-1.07,2.63-1.02.43-2.2-.05-2.63-1.07-.43-1.02.05-2.2,1.07-2.63,1.02-.43,2.2.05,2.63,1.07Z"/>
          <path class="cls-13" d="M76.45,44c.43,1.02-.05,2.2-1.07,2.63-1.02.43-2.2-.05-2.63-1.07-.43-1.02.05-2.2,1.07-2.63,1.02-.43,2.2.05,2.63,1.07Z"/>
          <path class="cls-11" d="M110.95,34.07c1.86,5.15,2.2,12.93,2.2,12.93,0,0,3.11-10.08,2.86-16.32-.34-8.37-2.07-17.75-8.38-21.48-3.95-2.34-14.42-5.98-19.05-6.97-7.53-1.61-16.21,1.31-21.61,5.18-6.04,4.33-5.41,10.11-5.41,10.11,0,0-6.68-.19-8.11,5.39-4.42,17.23,8.26,31.44,7.77,30.94,0,0-3.46-8.76,1.33-16.72,4.5-7.48,8.7-14.98,8.11-20.18,0,0,4.3,6.95,17.83,12.04,0,0,.65-2.88,1.56-7.43,0,0,8.18.99,12.25,6.64l-.06-6.71s6.7,7,8.72,12.59Z"/>
          <path class="cls-9" d="M105.76,19.54c2.59,1.51,4.75,4.17,6.05,7.19"/>
          <path class="cls-9" d="M81.95,9.93c2.81,1.13,13.05,4.57,14.64,6.18"/>
          <path class="cls-9" d="M89.63,17.73c-2.34-1.24-11.94-5-14.13-6.3"/>
        </g>
        <g>
          <path class="cls-6" d="M93.23,153.23s14.36-5.88,19.63-4.46,2.85,2.62,2.85,2.62c0,0,5.47-.41,6.89,2.34,1.31,2.55-5.9,2.79-5.9,2.79"/>
          <path class="cls-6" d="M98.46,154.85s12.29-3.37,17.24-3.46"/>
          <path class="cls-6" d="M67.65,160.72s.41-4.46,3.65-8.31c1.96-2.33,6.07-4.68,9.83-7.59,2.45-1.91,5.06-4.47,5.79-5.99,2.53-5.26,5.77-3.03,5.77-.19,0,1.2-1.08,4.37-2.23,6.69-1.57,3.17-3.63,4.54-3.34,5.46.3.92,3.85,1.42,7.71,3.04,3.85,1.62,23.78.44,27.16,5.28,3.04,4.36-1.19,3.69-3.58,3.16-4.98-1.1-14.26-.74-15.88-.54-1.62.2-5.89.92-13.39,3.76-7.39,2.79-11.77,3.76-17.03,5.07-3.94.98-4.25-1.53-4.45-5.18"/>
        </g>
        <polyline class="cls-6" points="62.21 156.96 68.74 154.56 75.65 172.59 68.35 175.97"/>
        <polyline class="cls-8" points="36.31 161.91 63.59 153.63 72.38 177.62 46.85 187.32"/>
        <path class="cls-13" d="M66.47,175.68c0,.75-.61,1.35-1.35,1.35s-1.35-.61-1.35-1.35.61-1.35,1.35-1.35,1.35.61,1.35,1.35Z"/>
        <circle class="cls-13" cx="59.32" cy="177.67" r="1.35" transform="translate(-127.22 194.72) rotate(-76.76)"/>
      </g>
    </g>
  </g>
</svg>