<?xml version="1.0" encoding="UTF-8"?>
<svg id="_レイヤー_2" data-name="レイヤー 2" xmlns="http://www.w3.org/2000/svg" xmlns:xlink="http://www.w3.org/1999/xlink" viewBox="0 0 195 195">
  <defs>
    <style>
      .cls-1, .cls-2 {
        fill: #ffff59;
      }

      .cls-3, .cls-4, .cls-5, .cls-6, .cls-2, .cls-7, .cls-8, .cls-9, .cls-10, .cls-11, .cls-12, .cls-13, .cls-14 {
        stroke: #084aa6;
      }

      .cls-3, .cls-4, .cls-5, .cls-6, .cls-2, .cls-7, .cls-9, .cls-10, .cls-11, .cls-15, .cls-12, .cls-13, .cls-14 {
        stroke-linecap: round;
        stroke-linejoin: round;
      }

      .cls-3, .cls-4, .cls-16, .cls-7, .cls-9, .cls-10 {
        fill: #fff;
      }

      .cls-3, .cls-11 {
        stroke-width: 2.33px;
      }

      .cls-4 {
        stroke-width: 2.44px;
      }

      .cls-5, .cls-17 {
        fill: #084aa6;
      }

      .cls-5, .cls-15 {
        stroke-width: 2.21px;
      }

      .cls-6, .cls-18, .cls-8, .cls-11, .cls-15 {
        fill: none;
      }

      .cls-6, .cls-2, .cls-10, .cls-14 {
        stroke-width: 2.39px;
      }

      .cls-7 {
        stroke-width: 2.66px;
      }

      .cls-8 {
        stroke-width: 2.41px;
      }

      .cls-9 {
        stroke-width: 2.36px;
      }

      .cls-15 {
        stroke: #f2f8ff;
      }

      .cls-12 {
        stroke-width: 1.78px;
      }

      .cls-12, .cls-13, .cls-14 {
        fill: #f2f8ff;
      }

      .cls-13 {
        stroke-width: 2.63px;
      }

      .cls-19 {
        clip-path: url(#clippath);
      }
    </style>
    <clipPath id="clippath">
      <rect class="cls-18" width="195" height="195"/>
    </clipPath>
  </defs>
  <g id="img">
    <g class="cls-19">
      <g>
        <path class="cls-10" d="M131.33,53.39c4,.67,8.76-3.61,8.92-9.1.1-3.44-4.62-6.47-7.57-3.86-1.09.96-2.35,2.45-2.78,3.16"/>
        <path class="cls-9" d="M135.01,45.48c-.83.38-1.85.9-2.13,2.27"/>
        <path class="cls-10" d="M91.15,53.15c-4,.67-8.76-3.61-8.92-9.1-.1-3.44,4.62-6.47,7.57-3.86,1.09.96,2.35,2.45,2.78,3.16"/>
        <path class="cls-9" d="M87.35,45.24c.83.38,1.85.9,2.13,2.27"/>
        <path class="cls-3" d="M59.85,69.52s1.59-9.93,1.71-12.65c.12-2.73-.68-6.6-.5-8.09.72-5.79.46-16.75,1.33-23,.27-1.96-3.36-1.88-4.12.01-2.19,5.45-2.23,17.64-2.98,17.85-.75.21-2.44-3.45-4.6-2.53-1.87.8-3.97,5.53-3.97,5.53,0,0-2.45-.89-3.45-.65-1.81.44-1.73,5.38-1.73,5.38,0,0-3.3,1.59-3.41,4.07-.11,2.48,1.4,5.61,3.38,5.7,0,0,.09,3.12,2.66,6.64.97,1.33,2.07,2.71,3.58,3.24l-.04,12.45,13.28,1.44-1.14-15.38Z"/>
        <path class="cls-11" d="M57.95,48.36s-3.12-1.74-4.52-1.91c-1.4-.17-9.28,2.06-8.61,3.83.66,1.77,6.14,1.52,6.14,1.52,0,0-.03,6.24,3.01,8.44"/>
        <path class="cls-3" d="M41.54,51.37s.6,4.99,1.85,6.54c1.25,1.55,3.54.2,4.14-.35"/>
        <path class="cls-3" d="M47.14,51.71s-.68,5.62,3.62,5.26"/>
        <path class="cls-3" d="M41.51,61.14s2.58.23,3.94-1.15"/>
        <polyline class="cls-4" points="61.96 80.49 61.63 73.43 44.95 73.54 44.85 77.93"/>
        <g>
          <path class="cls-16" d="M178.44,177.7c-.86,8.53-8.58,15.51-17.16,15.51h-35.19c-8.58,0-14.89-6.98-14.03-15.51l4.87-48.38c.86-8.53,8.58-15.51,17.16-15.51h35.19c8.58,0,14.89,6.98,14.03,15.51l-4.87,48.38Z"/>
          <path class="cls-6" d="M178.44,177.7c-.86,8.53-8.58,15.51-17.16,15.51h-35.19c-8.58,0-14.89-6.98-14.03-15.51l4.87-48.38c.86-8.53,8.58-15.51,17.16-15.51h35.19c8.58,0,14.89,6.98,14.03,15.51l-4.87,48.38Z"/>
        </g>
        <path class="cls-14" d="M158.56,102.25c-.46-4.8.2-15.8-6.48-20.67-4.43-3.23-19.28-7.12-19.2-7.18,1.17-.85-19.12-2.71-33.48-1.19-6.67.71-14.92,3-19.14,8.32-4.22,5.32-15.4,21.08-15.4,21.08l-1.28-24.44-22,.73s2.91,44.33,7.7,52.18c5.07,8.31,25.71-3.74,33.36-9.41.78,8.79,1.53,21.76,1.53,21.76,0,0,.3,4.59.31,8.14.02,6.23-6.71,37.28-7.24,38.35-.53,1.07,23.65,3.7,34.6,3.39,20.58-.59,35.08-2.9,35.08-2.9,0,0,1.14-22.62.93-23.42,7.25-2.37,10.58-6.32,11.1-6.67,2.4-1.6.13-52.67-.4-58.08Z"/>
        <path class="cls-10" d="M122.85,55.76s-.93,13.05,2.54,18.39c3.47,5.34,3.17,5.22,3.17,5.22,0,0-14.43,17.85-21.52,16.89-9.25-1.24-10.67-16.01-10.67-16.01,0,0,4.11.73,7.85-6.48,3.73-7.2,1.09-16.82,1.09-16.82"/>
        <path class="cls-16" d="M96.49,77.57s35.52,3.25,34.46,2.89c-1.07-.36-26.5,50.02-26.5,50.02,0,0-13.59-25.23-11.92-31.52,1.68-6.29,5.11-18.94,3.96-21.38Z"/>
        <path class="cls-6" d="M125.44,77.44s-6.31,29.08-12.45,36.28c-6.14,7.2-10.14,13.16-10.14,13.16-7.74-18.14-2.44-50.26-2.22-50.24"/>
        <polygon class="cls-17" points="104.88 79.35 117.4 80.08 112.32 87.15 106.33 87.15 104.88 79.35"/>
        <path class="cls-17" d="M106.33,87.15s-6.35,16.33-8.71,25.59l6.35,15.79,9.07-12.52s-.91-24.14-.73-28.85h-5.99Z"/>
        <path class="cls-14" d="M137,91.13c.08-.37-1.07-16.87-1.07-16.87l-9.09-3.8s-5.4,16.89-8.33,22.75c-3.54,7.08-14.06,37.26-14.06,37.26,0,0,8.18-10,13.87-15.34,5.69-5.34,14.58-16.18,14.58-16.18l-5-5c5.63-1.84,9.09-2.82,9.09-2.82Z"/>
        <path class="cls-14" d="M99.98,88.18c1.52-7.47,4.23-18.03,4.23-18.03l-9.86,3.55-7.56,14.35,7.14,3.02s-6.53,2.85-6.53,3.15c0,.53,1.39,9.57,4.05,15.97,2.67,6.4,13,20.28,13,20.28,0,0-6.83-30.72-4.47-42.3Z"/>
        <path class="cls-10" d="M99.62,71.37l5.44-3.15s-.12,7.02,4.9,11.49l-9.98,8.47s-2.36-10.1-.36-16.82Z"/>
        <path class="cls-10" d="M109.96,79.71l9.62,9.32c.19.08,4.11-5.16,6.17-8.95,2.14-3.95,4.47-8.51,4.36-8.53l-4.72-5.26s-6.35,5.81-8.89,7.98c-2.54,2.18-6.53,5.44-6.53,5.44Z"/>
        <circle class="cls-10" cx="104.73" cy="138.77" r="2.68" transform="translate(-54.29 209.05) rotate(-76.8)"/>
        <line class="cls-2" x1="82.64" y1="121.68" x2="80.64" y2="99.21"/>
        <rect class="cls-10" x="-119.27" y="167.36" width="383.12" height="114.08"/>
        <polygon class="cls-2" points="-10.83 170.99 77.17 178.95 108.04 172.55 108.04 168.18 -10.83 170.99"/>
        <line class="cls-12" x1="78.8" y1="174.55" x2="101.32" y2="169.66"/>
        <g>
          <g>
            <path class="cls-7" d="M111.24,152.2c-.56-.22-4.03.27-6.45-.4-2.42-.67-13.3-2.42-16.13-2.15-2.82.27-7.46,3.07-9.41,4.97-2.24,2.19-6.76,9.23-5.55,10.44,1.21,1.21,5.47-2.51,5.47-2.51,0,0-3.81,6.06-2.6,6.99,3.05,2.33,7.44-5.64,7.44-5.64,0,0-4.11,6.29-2.33,6.99,2.96,1.16,7.12-4.17,7.12-4.17,0,0-3.45,4.35-.94,5.38,1.28.53,7.12-4.61,7.79-5.15.67-.54,3.94.13,7.44-.54,3.49-.67,5.95-2.04,6.09-2.44.13-.4,7.37-.37,6.96-.37s3.97-7.89-4.9-11.39Z"/>
            <path class="cls-7" d="M88.8,166.71s2.02-3.36,2.96-4.3c.94-.94,2.64-1.48,3.81-2.19"/>
            <path class="cls-7" d="M84,163.89c1.08-1.61,2.62-3.72,3.76-4.39,1.52-.9,3.31-1.97,3.31-1.97"/>
            <path class="cls-7" d="M78.45,163.17c1.34-1.61,3.58-4.48,4.39-5.55.81-1.08,3.67-2.6,3.67-2.6"/>
          </g>
          <path class="cls-13" d="M138.8,119.14l-2.74,24.96-28.44,4.89s4.42,5.46,5.63,10.67c1.56,6.67-.3,12.3-.3,12.3,0,0,43.3-3.54,46-11.63"/>
          <path class="cls-17" d="M123.78,166.25c.07.74-.47,1.39-1.2,1.46-.74.07-1.39-.47-1.46-1.2-.07-.74.47-1.39,1.2-1.46.74-.07,1.39.47,1.46,1.2Z"/>
          <path class="cls-17" d="M128.92,165.75c.07.74-.47,1.39-1.2,1.46-.74.07-1.39-.47-1.46-1.2-.07-.74.47-1.39,1.2-1.46.74-.07,1.39.47,1.46,1.2Z"/>
          <line class="cls-2" x1="136.06" y1="144.1" x2="143.47" y2="142.84"/>
          <path class="cls-7" d="M109.69,150.89c-1.04-.13-4.54.65-4.54.65,0,0,4.02,2.9,4.67,7.57.65,4.67-1.46,10.03-1.46,10.03l5.8-.97s1.56-5.85.57-10.22c-1.26-5.56-5.04-7.07-5.04-7.07Z"/>
        </g>
        <g>
          <g>
            <path class="cls-1" d="M76.67,176.78c.28,1.19-.5,2.17-1.72,2.17H-7.1c-1.23,0-2.45-.98-2.73-2.17l-12.88-55.46c-.28-1.19.5-2.17,1.72-2.17H61.06c1.23,0,2.45.98,2.73,2.17l12.88,55.46Z"/>
            <path class="cls-6" d="M76.67,176.78c.28,1.19-.5,2.17-1.72,2.17H-7.1c-1.23,0-2.45-.98-2.73-2.17l-12.88-55.46c-.28-1.19.5-2.17,1.72-2.17H61.06c1.23,0,2.45.98,2.73,2.17l12.88,55.46Z"/>
          </g>
          <ellipse class="cls-16" cx="24.84" cy="150.4" rx="6.22" ry="3.85"/>
          <line class="cls-12" x1="-11.41" y1="122.49" x2="56.29" y2="122.49"/>
          <line class="cls-12" x1="61.66" y1="128.88" x2="72.18" y2="174.07"/>
        </g>
        <path class="cls-10" d="M87.03,28.09c-.8,5.44,1.17,14.36,2.21,21.91,2.72,19.83,16.3,23.53,21.08,23.28,10.86-.57,18.91-8.46,21.43-20.67,1.31-6.35,2.72-17.07.25-24.1-2.47-7.03-11.05-24.89-27.78-14.43-9.81,6.13-15.75,4.18-17.19,14.01Z"/>
        <path class="cls-9" d="M116.86,59.53s-1.71,3.42-6.6,3.42c-4.28,0-5.87-3.06-5.87-3.06"/>
        <path class="cls-9" d="M108.31,51.9l-2.2-1.83s1.19-5.76,1.47-8.43"/>
        <path class="cls-17" d="M121.31,39.5c.34.91-.12,1.91-1.03,2.25-.91.34-1.91-.12-2.25-1.03-.34-.91.12-1.91,1.03-2.25.91-.34,1.91.12,2.25,1.03Z"/>
        <path class="cls-17" d="M100.89,39.85c.34.91-.12,1.91-1.03,2.25-.91.34-1.91-.12-2.25-1.03-.34-.91.12-1.91,1.03-2.25.91-.34,1.91.12,2.25,1.03Z"/>
        <path class="cls-5" d="M88.99,30.39c-.77,5.38-.85,13.44-.85,13.44,0,0-3.47-9.65-4.89-14.91-1.42-5.26-1.71-14.54,6.36-19.19,3.47-2,13.58-5.92,17.59-6.94,6.51-1.67,13.81-.34,18.65,2.84,5.42,3.56,5.07,8.62,5.07,8.62,0,0,2.71-1.19,6.05,2.57,7.51,8.44-4.88,29.55-4.47,29.09,0,0,1.04-8.07-3.67-13.57-4.95-5.79-6.2-13.72-5.87-18.27,0,0-11.24,9.59-22.86,14.51,0,0,4.65-7.53,6.12-9.8,0,0-9.57,5.42-12.92,10.49l2.28-10.12s-5.87,6.11-6.6,11.25Z"/>
        <path class="cls-15" d="M128.84,19.57c-.09,3.49,1.67,7.35,4.4,9.96"/>
        <path class="cls-15" d="M108.18,7.78c-2.44,1.1-11.37,4.5-12.71,5.99"/>
        <path class="cls-15" d="M101.71,16.09c1.99-1.16,10.24-4.78,12.1-5.99"/>
        <line class="cls-14" x1="64.86" y1="102.61" x2="65.04" y2="108.11"/>
        <path class="cls-17" d="M46.7,84.36c-.18.67-.86,1.07-1.54.89-.67-.18-1.07-.86-.89-1.54.18-.67.86-1.07,1.54-.89.67.18,1.07.86.89,1.54Z"/>
        <path class="cls-17" d="M47.09,89.52c-.18.67-.86,1.07-1.54.89-.67-.18-1.07-.86-.89-1.54.18-.67.86-1.07,1.54-.89.67.18,1.07.86.89,1.54Z"/>
        <g>
          <line class="cls-8" x1="61.5" y1="8.38" x2="61.5" y2="14.82"/>
          <line class="cls-8" x1="52.33" y1="11.35" x2="56.67" y2="16.11"/>
          <line class="cls-8" x1="70.66" y1="11.35" x2="66.32" y2="16.11"/>
        </g>
      </g>
    </g>
  </g>
</svg>