<svg width="263" height="137" viewBox="0 0 263 137" fill="none" xmlns="http://www.w3.org/2000/svg">
<path d="M15.77 70.7447C15.5 71.611 15.33 72.5843 15.28 73.6063C17.26 74.5213 18.8 74.3655 20.01 73.7718C20.67 73.4993 21.16 73.071 21.66 72.5843C22.16 72.0976 22.59 71.5039 23.03 70.9102C23.47 70.3164 23.85 69.6643 24.24 69.0705C24.4 68.7493 24.62 68.4184 24.84 68.0972C24.89 67.9901 25 67.8246 25.11 67.6689C25.22 67.5132 25.33 67.3964 25.38 67.2406C26.2 66.1018 27.03 65.1285 27.96 64.7002C26.75 63.941 25.49 63.5127 24.11 63.5127C23.45 63.5127 22.74 63.6198 22.08 63.7852C21.42 63.9994 20.76 64.3303 20.1 64.7002C19.44 65.0798 18.89 65.5665 18.34 66.1602C17.74 66.754 17.24 67.4548 16.8 68.214C16.58 68.5936 16.42 69.0219 16.2 69.4015C16.04 69.8297 15.87 70.2677 15.76 70.7544L15.77 70.7447Z" fill="#C7A02E"/>
<path d="M21.04 61.3908C21.7 61.2838 22.3 61.0112 22.85 60.69C23.18 60.4759 23.4 60.3104 23.67 60.0963C24 59.8821 24.27 59.668 24.49 59.4441C24.76 59.23 25.04 58.9574 25.31 58.7433C25.58 58.4708 25.86 58.1982 26.08 57.9841C26.35 57.7116 26.57 57.4974 26.85 57.2249C27.12 57.0107 27.4 56.7966 27.62 56.5727C28.11 56.0861 28.66 55.7065 29.16 55.3853C29.43 55.2198 29.65 55.1127 29.87 54.957C30.14 54.8499 30.42 54.7915 30.64 54.7428C29.71 53.7695 28.61 53.0687 27.34 52.7961C26.08 52.4749 24.7 52.5236 23.38 52.9616C22.67 53.1757 21.95 53.5067 21.35 53.935C20.69 54.3632 20.03 54.8499 19.48 55.5021C19.15 55.7746 18.88 56.0958 18.6 56.4754C18.33 56.7966 18.11 57.1762 17.89 57.5558C17.4 58.315 17.01 59.1813 16.74 60.0963C18.33 61.4492 19.76 61.6634 21.03 61.3908H21.04Z" fill="#C7A02E"/>
<path d="M53.09 14.6992C53.53 14.485 54.02 14.1054 54.41 13.6188C54.79 13.0737 55.18 12.4799 55.45 11.7305C55.72 11.0296 55.94 10.2218 56.11 9.35548C56.22 8.92721 56.27 8.4892 56.33 8.06093C56.38 7.68132 56.44 7.30171 56.49 6.92211C56.71 5.41341 56.87 4.06046 57.2 3.19418C56.16 2.81457 55.17 3.02871 54.34 3.51538C53.9 3.78792 53.52 4.10912 53.19 4.5374C52.81 4.917 52.53 5.40368 52.2 5.93902C51.87 6.4257 51.65 7.01944 51.38 7.61318C51.27 7.93439 51.16 8.26533 51.05 8.58653C50.94 8.90774 50.83 9.23868 50.78 9.55988C50.34 10.9615 50.07 12.3729 49.74 13.94C50.4 14.3682 51 14.6992 51.55 14.8549C52.1 14.962 52.59 14.9133 53.09 14.6894V14.6992Z" fill="#C7A02E"/>
<path d="M31.98 118.624C30.11 117.057 28.13 115.762 26.21 114.73C24.23 113.708 22.25 112.998 20.38 112.57C19.45 112.404 18.57 112.297 17.69 112.297C16.87 112.297 16.04 112.404 15.27 112.618C13.79 113.105 12.52 114.078 11.81 115.645C13.29 116.132 15 117.271 16.92 118.507C17.41 118.828 17.91 119.159 18.4 119.422C18.89 119.743 19.39 120.074 19.94 120.337C20.93 120.931 21.97 121.417 22.96 121.846C24 122.274 24.99 122.605 25.93 122.761C26.86 122.926 27.74 122.868 28.51 122.653C30.1 122.225 31.26 120.979 31.97 118.604L31.98 118.624Z" fill="#C7A02E"/>
<path d="M39.84 127.968C39.24 127.91 38.69 127.861 38.14 127.802C37.1 127.744 36.05 127.744 35.06 127.861C33.08 128.026 31.27 128.513 29.95 129.428C28.58 130.294 27.64 131.647 27.42 133.428C28.24 133.487 29.18 133.643 30.17 133.915C31.21 134.129 32.31 134.46 33.47 134.781C35.78 135.434 38.25 136.134 40.56 136.348C41.11 136.407 41.66 136.456 42.21 136.456C42.76 136.456 43.25 136.397 43.75 136.348C44.74 136.183 45.62 135.969 46.33 135.482C47.81 134.567 48.58 132.942 48.53 130.401C46.17 129.379 43.8 128.669 41.49 128.24C40.94 128.133 40.39 128.026 39.84 127.968Z" fill="#C7A02E"/>
<path d="M43.14 123.004C41.6 122.031 40.17 121.008 38.74 119.928C38.03 119.393 37.31 118.848 36.65 118.254C35.94 117.66 35.28 117.115 34.62 116.473C31.98 114.098 29.51 111.499 27.31 108.637C25.11 105.824 23.13 102.856 21.48 99.7213L20.82 98.5338L20.27 97.2879L19.94 96.6942L19.67 96.1005L19.18 94.8546C18.47 93.2291 17.81 91.5549 17.31 89.8808C16.76 88.1482 16.32 86.4254 15.88 84.6928C15.72 83.8265 15.5 82.9602 15.39 82.1037L15.17 80.7507L15.01 79.4562L14.9 78.7554L14.85 78.1032L14.74 76.7503L14.68 75.4557C14.63 74.969 14.63 74.5408 14.63 74.1028L14.58 72.7498C14.58 72.3215 14.63 71.8835 14.63 71.4552C14.63 70.5403 14.68 69.674 14.74 68.7493C15.01 65.1869 15.62 61.6731 16.61 58.2079C17.6 54.8012 18.92 51.4529 20.57 48.2116C22.22 45.0191 24.2 42.0017 26.45 39.1887L26.83 38.6436L27.27 38.0985L28.15 37.0765C28.75 36.4244 29.36 35.7236 29.96 35.0811C30.62 34.429 31.22 33.7866 31.88 33.1344L32.87 32.2195C33.2 31.8983 33.53 31.5674 33.86 31.3046C36.55 28.8225 39.52 26.7687 42.38 24.4424C43.04 23.8487 43.75 23.2549 44.41 22.6028C45.07 21.9507 45.67 21.2498 46.22 20.549C46.77 19.7898 47.32 19.0403 47.7 18.2227C48.14 17.4148 48.47 16.5486 48.74 15.6823C48.96 14.816 49.12 13.9011 49.18 13.0348C49.18 12.5481 49.23 12.1198 49.23 11.6818V10.981L49.18 10.2802C49.07 8.49896 48.69 6.71773 48.19 4.98517C48.63 6.71773 48.96 8.49896 49.07 10.3386L49.12 10.9907V11.6429C49.12 12.1296 49.07 12.5578 49.01 12.9958C48.96 13.9108 48.79 14.7771 48.52 15.6434C48.25 16.5096 47.92 17.3759 47.48 18.1254C47.04 18.9333 46.55 19.6925 46 20.3933C45.45 21.0941 44.79 21.7463 44.13 22.34C43.53 22.9921 42.81 23.5859 42.1 24.1212C39.3 26.3891 36.22 28.4429 33.47 30.8763C33.09 31.1488 32.76 31.47 32.43 31.7912L31.44 32.7062C30.73 33.2999 30.12 33.9521 29.46 34.5945C28.8 35.2953 28.2 35.9474 27.59 36.5898L26.66 37.6703L26.22 38.1569L25.78 38.702C23.47 41.515 21.44 44.5908 19.68 47.7834C17.98 51.0246 16.55 54.4313 15.45 57.8867C14.41 61.4005 13.69 65.0214 13.36 68.6423C13.31 69.5572 13.2 70.4819 13.2 71.3968C13.2 71.8251 13.15 72.3118 13.15 72.7498V75.5044L13.2 76.8573L13.31 78.259L13.36 78.9111L13.47 79.6119L13.58 80.9649C13.63 81.3931 13.74 81.8798 13.8 82.3178C13.91 83.2328 14.13 84.1575 14.29 85.0237C14.62 86.805 15.06 88.5862 15.61 90.3772C16.1 92.1584 16.76 93.8326 17.42 95.5651L17.97 96.8597L18.24 97.4534L18.51 98.1056L19.11 99.3514L19.71 100.597C21.36 103.897 23.34 106.973 25.59 109.951C27.79 112.92 30.26 115.684 33.01 118.215C33.67 118.867 34.38 119.461 35.04 120.055C35.75 120.648 36.47 121.242 37.18 121.836C38.66 122.975 40.15 124.104 41.69 125.135C44.82 127.189 48.07 129.029 51.47 130.538C58.34 133.565 65.65 135.56 73.07 136.426L73.4 133.351C66.25 132.65 59.22 130.869 52.62 128.056C49.32 126.654 46.13 124.921 43.11 123.033L43.14 123.004Z" fill="#C7A02E"/>
<path d="M16.43 107.06C18.02 107.06 19.45 106.194 20.77 104.199C19.45 102.252 17.97 100.578 16.43 99.1762C14.89 97.7162 13.3 96.5287 11.65 95.7208C10.06 94.8546 8.41002 94.3679 6.92002 94.4263C5.44002 94.4847 4.01002 95.02 2.96002 96.3146C3.56002 96.6942 4.17002 97.2879 4.83002 97.9887C5.49002 98.6896 6.15002 99.4488 6.86002 100.257C7.63002 101.065 8.34002 101.931 9.11002 102.69C9.55002 103.118 9.93002 103.498 10.32 103.878C10.7 104.257 11.14 104.578 11.53 104.9C12.35 105.552 13.23 106.087 14 106.467C14.82 106.846 15.65 107.06 16.42 107.06H16.43Z" fill="#C7A02E"/>
<path d="M8.40001 55.7162C8.51001 56.0958 8.62001 56.5241 8.78001 56.855C9.05001 57.6142 9.38001 58.208 9.88001 58.6947C10.87 59.668 12.24 59.9892 14.33 59.5025C14.55 58.5292 14.66 57.5558 14.71 56.5825C14.76 56.1542 14.76 55.6675 14.82 55.1809V53.8279C14.76 52.913 14.71 52.0467 14.55 51.2388C14.39 50.3725 14.22 49.5646 14 48.8638C13.51 47.3551 12.79 46.1092 11.8 45.243C10.87 44.3767 9.66001 43.89 8.17001 43.9971C8.22001 44.3183 8.28001 44.6492 8.28001 44.9704C8.28001 45.35 8.33001 45.7296 8.28001 46.1579C8.28001 46.9658 8.23001 47.8321 8.17001 48.8054C8.17001 49.2337 8.12001 49.7204 8.12001 50.207C8.07001 50.6937 8.07001 51.1804 8.07001 51.6087V53.0687C8.12001 53.497 8.12001 53.9836 8.18001 54.4216C8.23001 54.8499 8.34001 55.2879 8.40001 55.7162Z" fill="#C7A02E"/>
<path d="M3.51002 64.963C3.56002 65.2355 3.62002 65.5081 3.62002 65.7222C3.73002 66.2089 3.84002 66.6956 4.00002 67.1822C4.22002 68.2043 4.55002 69.1289 4.82002 70.0439C5.20002 70.9102 5.59002 71.718 6.08002 72.3702C6.52002 73.0223 7.07002 73.5577 7.73002 73.9373C8.94002 74.6381 10.48 74.6381 12.4 73.6161C12.35 72.5941 12.24 71.5623 12.07 70.5403C11.96 70.0536 11.91 69.5669 11.74 69.0803C11.63 68.652 11.52 68.1653 11.41 67.7273C11.14 66.8124 10.81 65.8877 10.48 65.0798C10.1 64.2719 9.66002 63.5127 9.27002 62.8119C8.83002 62.1111 8.34002 61.5173 7.79002 60.9723C7.24002 60.4272 6.69002 59.9989 6.09002 59.6777C4.94002 59.0256 3.56002 58.8698 2.08002 59.4052C2.68002 60.544 2.96002 62.3252 3.34002 64.2719C3.39002 64.4861 3.45002 64.7586 3.50002 64.9727L3.51002 64.963Z" fill="#C7A02E"/>
<path d="M3.29 83.1744C3.56 83.661 3.78 84.1477 4.06 84.576C4.55 85.4909 5.1 86.4156 5.71 87.2235C6.31 87.9827 6.92 88.6835 7.58 89.2773C8.29 89.8223 8.95 90.1922 9.67 90.4161C11.1 90.7957 12.64 90.3577 14.4 88.7906C13.63 86.6784 12.75 84.7901 11.71 83.0575C11.22 82.1913 10.61 81.4321 10.06 80.6826C9.46 79.9818 8.85 79.2809 8.19 78.7359C7.59 78.1421 6.87 77.6555 6.21 77.2272C5.55 76.8476 4.84 76.5264 4.18 76.3609C2.75 76.0397 1.32 76.1954 0 77.1201C0.44 77.6652 0.88 78.366 1.32 79.1739C1.7 79.9331 2.14 80.848 2.64 81.763C2.75 81.9771 2.86 82.2497 2.97 82.4638C3.08 82.6779 3.19 82.9505 3.3 83.1646L3.29 83.1744Z" fill="#C7A02E"/>
<path d="M22.36 86.951C22.91 86.4643 23.35 85.8706 23.68 85.2768C24.06 84.6247 24.34 83.9238 24.61 83.223C24.83 82.5222 25.1 81.763 25.32 81.0038C25.43 80.6242 25.54 80.303 25.65 79.9234C25.7 79.7579 25.76 79.5438 25.81 79.3783C25.86 79.2128 25.92 78.9987 25.97 78.8332C26.24 78.1811 26.52 77.5387 26.85 76.9936C27.12 76.3999 27.45 75.9619 27.89 75.592C26.46 75.1637 25.03 75.1053 23.66 75.4265C23 75.592 22.34 75.8548 21.68 76.2344C21.08 76.614 20.47 77.1007 19.98 77.6944C19.43 78.2395 18.94 78.8819 18.55 79.6411C18.11 80.4003 17.84 81.2082 17.56 82.0745C17.12 83.8557 17.07 85.9095 17.51 87.9633C19.76 88.3429 21.25 87.8562 22.35 86.9412L22.36 86.951Z" fill="#C7A02E"/>
<path d="M41.66 38.6923C40.89 36.4244 38.86 34.9644 36.22 34.6918C34.96 34.6334 33.47 34.8573 32.04 35.3926C31.66 35.5581 31.33 35.7138 30.94 35.9377C30.61 36.1032 30.28 36.3173 29.9 36.5315C29.57 36.804 29.24 37.0181 28.91 37.2907C28.58 37.6119 28.25 37.8844 27.98 38.2056C28.75 39.8798 29.79 40.6877 30.95 40.9602C31.5 41.0673 32.1 41.0673 32.71 41.0186C33.31 40.9115 33.97 40.8045 34.58 40.5903C37.11 39.8311 39.8 38.4295 41.67 38.702L41.66 38.6923Z" fill="#C7A02E"/>
<path d="M35.01 115.49C37.37 114.623 38.47 113.27 38.91 111.81C39.18 111.11 39.24 110.35 39.24 109.542C39.19 108.783 39.08 107.975 38.91 107.167C38.75 106.36 38.53 105.542 38.31 104.685C38.2 104.306 38.09 103.926 38.04 103.498C37.93 103.118 37.82 102.69 37.77 102.31C37.44 100.802 37.33 99.3417 37.66 98.2613C36.07 98.6409 34.69 99.4001 33.65 100.481C33.16 101.026 32.66 101.619 32.33 102.32C31.95 103.021 31.62 103.78 31.51 104.646C31.13 106.272 31.18 108.16 31.78 110.049C32.38 111.937 33.43 113.835 35.02 115.509L35.01 115.49Z" fill="#C7A02E"/>
<path d="M46.05 32.3168C47.48 31.8885 48.85 31.4019 49.95 31.2948C49.9 30.7011 49.68 30.156 49.35 29.7277C49.02 29.241 48.64 28.9198 48.14 28.6473C47.15 28.0535 45.94 27.781 44.57 27.7323C43.25 27.6253 41.82 27.7907 40.34 28.1606C38.91 28.5402 37.43 29.1826 36.05 30.156C36.49 31.8301 37.37 32.7451 38.36 33.1831C39.4 33.6114 40.56 33.6114 41.88 33.3972C43.2 33.1831 44.63 32.7451 46.06 32.3168H46.05Z" fill="#C7A02E"/>
<path d="M15.38 45.4473C16.09 46.5277 17.3 47.1799 19.28 47.1799C19.72 46.3136 20.05 45.4473 20.32 44.5908C20.48 44.1625 20.59 43.7245 20.7 43.2962C20.81 42.8679 20.92 42.4883 21.03 42.0503C21.19 41.184 21.3 40.3762 21.36 39.5683C21.41 38.8091 21.36 38.0012 21.31 37.3004C21.04 34.3803 19.66 32.054 16.91 31.6841C16.91 32.2779 16.8 32.93 16.58 33.6795C16.42 34.3803 16.2 35.1882 15.98 36.0545C15.71 36.8624 15.49 37.7286 15.27 38.5949C15.05 39.4612 14.89 40.3762 14.78 41.184C14.73 41.6123 14.73 41.9919 14.73 42.4299C14.73 42.8095 14.73 43.1891 14.78 43.5687C14.84 44.2696 15.05 44.9217 15.38 45.457V45.4473Z" fill="#C7A02E"/>
<path d="M29.01 42.9653C28.3 43.0237 27.64 43.1794 26.92 43.452C26.21 43.6661 25.49 44.0457 24.83 44.474C24.5 44.6881 24.17 44.9607 23.84 45.2332C23.51 45.5057 23.18 45.7783 22.91 46.0995C22.25 46.6932 21.76 47.394 21.26 48.2117C22.41 49.7788 23.73 50.3238 24.94 50.3725C25.54 50.3725 26.15 50.2654 26.81 50.1C27.08 49.9929 27.41 49.8274 27.69 49.7203C28.02 49.5549 28.29 49.4478 28.62 49.2921C30.98 47.9975 33.46 46.1579 35.38 46.0508C34.12 43.8316 31.75 42.7025 29 42.975L29.01 42.9653Z" fill="#C7A02E"/>
<path d="M28.57 99.9744C29.01 99.3806 29.23 98.6798 29.45 97.9206C29.61 97.2198 29.72 96.4119 29.78 95.6527C29.83 95.2244 29.83 94.8448 29.83 94.4068C29.89 94.0272 29.89 93.5989 29.89 93.2193C29.89 92.4115 29.94 91.5938 30 90.8444C30.05 90.0851 30.16 89.3843 30.27 88.7322C30.43 88.08 30.65 87.4863 30.98 87.058C29.39 86.9996 27.96 87.3306 26.69 88.0314C25.43 88.7906 24.33 89.871 23.56 91.331C22.85 92.7911 22.41 94.5236 22.41 96.4119C22.46 98.3586 22.96 100.354 24 102.301C26.36 102.087 27.74 101.162 28.56 99.9744H28.57Z" fill="#C7A02E"/>
<path d="M41.44 16.5973C41.39 17.0839 41.33 17.5706 41.33 17.9989C41.33 18.4856 41.33 18.9722 41.44 19.5076C41.55 20.4809 42.15 21.4543 43.53 22.048C44.13 21.5029 44.63 20.8605 45.01 20.2084C45.39 19.5562 45.72 18.9138 45.89 18.2617C46.27 16.9671 46.16 15.7796 45.72 14.8063C45.61 14.5922 45.5 14.378 45.34 14.1541C45.23 13.9887 45.07 13.7745 44.85 13.6091C44.52 13.2879 44.14 13.0153 43.7 12.8012C42.88 12.4216 41.89 12.2561 40.9 12.149C41.34 12.5773 41.56 13.2295 41.61 14.0373C41.66 14.7966 41.55 15.6628 41.44 16.5778V16.5973Z" fill="#C7A02E"/>
<path d="M34.95 28.8614C36.21 27.6739 37.26 26.428 38.03 25.1335C38.74 23.8876 39.18 22.5444 39.24 21.3472C39.35 20.1013 39.02 19.0208 38.47 18.1059C38.2 17.6192 37.87 17.1909 37.48 16.86C37.1 16.4804 36.66 16.1592 36.16 15.8867C36.21 16.6459 35.83 17.6192 35.23 18.7483C34.63 19.8287 33.8 21.1233 33.2 22.3692C32.54 23.6637 32.16 24.9096 32.32 26.0484C32.54 27.1873 33.31 28.1022 34.96 28.8614H34.95Z" fill="#C7A02E"/>
<path d="M26.49 37.0181C26.76 36.6385 27.04 36.2589 27.26 35.8793C27.53 35.4997 27.75 35.1785 27.97 34.7989C28.19 34.4193 28.35 34.0397 28.52 33.6601C28.74 33.2805 28.9 32.9009 29.07 32.5212C29.67 31.0126 30.06 29.6012 30.17 28.1996C30.44 25.445 29.57 23.0116 27.09 22.2037C26.65 24.3159 24.4 27.5572 23.41 30.5259C23.19 31.2851 23.03 32.0346 22.97 32.6867C22.92 33.3875 22.97 34.0397 23.19 34.575C23.63 35.7138 24.62 36.5217 26.49 37.0084V37.0181Z" fill="#C7A02E"/>
<path d="M55.4 16.3734C54.91 16.4318 54.36 16.5875 53.81 16.8016C53.54 16.9087 53.26 17.0742 52.93 17.1812C52.66 17.3467 52.38 17.5024 52.11 17.7263C50.96 18.4271 49.75 19.2934 48.48 20.2084C47.88 20.695 47.22 21.1817 46.56 21.6684C45.96 22.1551 45.3 22.6417 44.64 23.1771C45.13 24.8026 45.9 25.6591 47 25.9317C47.55 26.0387 48.21 25.9901 48.87 25.8246C49.58 25.6105 50.3 25.2795 51.07 24.8512C52.55 23.985 54.04 22.632 55.25 21.2304C56.51 19.8288 57.45 18.4174 58.27 17.5511C57.5 16.5291 56.46 16.1982 55.41 16.3636L55.4 16.3734Z" fill="#C7A02E"/>
<path d="M52.05 116.405C51.23 114.896 50.24 113.377 49.47 111.976C49.09 111.217 48.7 110.574 48.48 109.864C48.26 109.211 48.1 108.569 48.1 107.975C46.67 108.783 45.57 109.971 44.8 111.382C44.09 112.784 43.76 114.409 43.92 116.142C43.97 117.008 44.19 117.923 44.52 118.789C44.68 119.276 44.9 119.704 45.12 120.142C45.34 120.57 45.61 121.009 45.89 121.437C47.04 123.169 48.75 124.736 50.78 125.924C52.81 124.298 53.53 122.624 53.53 121.057C53.53 120.249 53.37 119.49 53.15 118.682C52.99 118.303 52.82 117.923 52.66 117.543C52.5 117.164 52.28 116.784 52.06 116.405H52.05Z" fill="#C7A02E"/>
<path d="M42.87 6.60095L42.92 6.81508L42.97 6.92215C43.02 7.13629 43.08 7.30176 43.19 7.51589C43.3 7.8955 43.46 8.32378 43.57 8.70338C43.73 9.13166 43.9 9.56966 44.06 9.94927C44.28 10.3775 44.44 10.8156 44.77 11.1952C45.04 11.5748 45.43 11.896 45.92 12.2172C46.41 12.4897 47.02 12.7038 47.79 12.7623C48.39 11.4677 48.56 10.0563 48.34 8.86885C48.29 8.59631 48.23 8.32377 48.12 8.06097C48.01 7.73976 47.9 7.46723 47.79 7.25309C47.57 6.70801 47.24 6.23107 46.91 5.85147C46.58 5.47186 46.14 5.09225 45.76 4.82945C45.32 4.55691 44.88 4.34277 44.44 4.1773C43.51 3.90477 42.52 3.90477 41.53 4.1773C42.08 4.66398 42.41 5.47186 42.74 6.28947C42.74 6.39654 42.79 6.50361 42.85 6.61068L42.87 6.60095Z" fill="#C7A02E"/>
<path d="M246.71 70.7447C246.98 71.611 247.15 72.5843 247.2 73.6063C245.22 74.5213 243.68 74.3655 242.47 73.7718C241.81 73.4993 241.32 73.071 240.82 72.5843C240.32 72.0976 239.89 71.5039 239.45 70.9102C239.01 70.3164 238.63 69.6643 238.24 69.0705C238.08 68.7493 237.86 68.4184 237.64 68.0972C237.59 67.9901 237.48 67.8246 237.37 67.6689C237.26 67.5132 237.15 67.3964 237.1 67.2406C236.28 66.1018 235.45 65.1285 234.52 64.7002C235.73 63.941 236.99 63.5127 238.37 63.5127C239.03 63.5127 239.74 63.6198 240.4 63.7852C241.06 63.9994 241.72 64.3303 242.38 64.7002C243.04 65.0798 243.59 65.5665 244.14 66.1602C244.74 66.754 245.24 67.4548 245.68 68.214C245.9 68.5936 246.06 69.0219 246.28 69.4015C246.44 69.8297 246.61 70.2677 246.72 70.7544L246.71 70.7447Z" fill="#C7A02E"/>
<path d="M241.44 61.3908C240.78 61.2838 240.18 61.0112 239.63 60.69C239.3 60.4759 239.08 60.3104 238.81 60.0963C238.48 59.8821 238.21 59.668 237.99 59.4441C237.72 59.23 237.44 58.9574 237.17 58.7433C236.9 58.4708 236.62 58.1982 236.4 57.9841C236.13 57.7116 235.91 57.4974 235.63 57.2249C235.36 57.0107 235.08 56.7966 234.86 56.5727C234.37 56.0861 233.82 55.7065 233.32 55.3853C233.05 55.2198 232.83 55.1127 232.61 54.957C232.34 54.8499 232.06 54.7915 231.84 54.7428C232.77 53.7695 233.87 53.0687 235.14 52.7961C236.4 52.4749 237.78 52.5236 239.1 52.9616C239.81 53.1757 240.53 53.5067 241.13 53.935C241.79 54.3632 242.45 54.8499 243 55.5021C243.33 55.7746 243.6 56.0958 243.88 56.4754C244.15 56.7966 244.37 57.1762 244.59 57.5558C245.08 58.315 245.47 59.1813 245.74 60.0963C244.15 61.4492 242.72 61.6634 241.45 61.3908H241.44Z" fill="#C7A02E"/>
<path d="M209.39 14.6992C208.95 14.485 208.46 14.1054 208.07 13.6188C207.69 13.0737 207.3 12.4799 207.03 11.7305C206.76 11.0296 206.54 10.2218 206.37 9.35548C206.26 8.92721 206.21 8.4892 206.15 8.06093C206.1 7.68132 206.04 7.30171 205.99 6.92211C205.77 5.41341 205.61 4.06046 205.28 3.19418C206.32 2.81457 207.31 3.02871 208.14 3.51538C208.58 3.78792 208.96 4.10912 209.29 4.5374C209.67 4.917 209.95 5.40368 210.28 5.93902C210.61 6.4257 210.83 7.01944 211.1 7.61318C211.21 7.93439 211.32 8.26533 211.43 8.58653C211.54 8.90774 211.65 9.23868 211.7 9.55988C212.14 10.9615 212.41 12.3729 212.74 13.94C212.08 14.3682 211.48 14.6992 210.93 14.8549C210.38 14.962 209.89 14.9133 209.39 14.6894V14.6992Z" fill="#C7A02E"/>
<path d="M230.5 118.624C232.37 117.057 234.35 115.762 236.27 114.73C238.25 113.708 240.23 112.998 242.1 112.57C243.03 112.404 243.91 112.297 244.79 112.297C245.61 112.297 246.44 112.404 247.21 112.618C248.69 113.105 249.96 114.078 250.67 115.645C249.19 116.132 247.48 117.271 245.56 118.507C245.07 118.828 244.57 119.159 244.08 119.422C243.59 119.743 243.09 120.074 242.54 120.337C241.55 120.931 240.51 121.417 239.52 121.846C238.48 122.274 237.49 122.605 236.55 122.761C235.62 122.926 234.74 122.868 233.97 122.653C232.38 122.225 231.22 120.979 230.51 118.604L230.5 118.624Z" fill="#C7A02E"/>
<path d="M222.64 127.968C223.24 127.91 223.79 127.861 224.34 127.802C225.38 127.744 226.43 127.744 227.42 127.861C229.4 128.026 231.21 128.513 232.53 129.428C233.9 130.294 234.84 131.647 235.06 133.428C234.24 133.487 233.3 133.643 232.31 133.915C231.27 134.129 230.17 134.46 229.01 134.781C226.7 135.434 224.23 136.134 221.92 136.348C221.37 136.407 220.82 136.456 220.27 136.456C219.72 136.456 219.23 136.397 218.73 136.348C217.74 136.183 216.86 135.969 216.15 135.482C214.67 134.567 213.9 132.942 213.95 130.401C216.31 129.379 218.68 128.669 220.99 128.24C221.54 128.133 222.09 128.026 222.64 127.968Z" fill="#C7A02E"/>
<path d="M219.34 123.004C220.88 122.031 222.31 121.008 223.74 119.928C224.45 119.393 225.17 118.848 225.83 118.254C226.54 117.66 227.2 117.115 227.86 116.473C230.5 114.098 232.97 111.499 235.17 108.637C237.37 105.824 239.35 102.856 241 99.7213L241.66 98.5338L242.21 97.2879L242.54 96.6942L242.81 96.1005L243.3 94.8546C244.01 93.2291 244.67 91.5549 245.17 89.8808C245.72 88.1482 246.16 86.4254 246.6 84.6928C246.76 83.8265 246.98 82.9602 247.09 82.1037L247.31 80.7507L247.47 79.4562L247.58 78.7554L247.63 78.1032L247.74 76.7503L247.8 75.4557C247.85 74.969 247.85 74.5408 247.85 74.1028L247.9 72.7498C247.9 72.3215 247.85 71.8835 247.85 71.4552C247.85 70.5403 247.8 69.674 247.74 68.7493C247.47 65.1869 246.86 61.6731 245.87 58.2079C244.88 54.8012 243.56 51.4529 241.91 48.2116C240.26 45.0191 238.28 42.0017 236.03 39.1887L235.65 38.6436L235.21 38.0985L234.33 37.0765C233.73 36.4244 233.12 35.7236 232.52 35.0811C231.86 34.429 231.26 33.7866 230.6 33.1344L229.61 32.2195C229.28 31.8983 228.95 31.5674 228.62 31.3046C225.93 28.8225 222.96 26.7687 220.1 24.4424C219.44 23.8487 218.73 23.2549 218.07 22.6028C217.41 21.9507 216.81 21.2498 216.26 20.549C215.71 19.7898 215.16 19.0403 214.78 18.2227C214.34 17.4148 214.01 16.5486 213.74 15.6823C213.52 14.816 213.36 13.9011 213.3 13.0348C213.3 12.5481 213.25 12.1198 213.25 11.6818V10.981L213.3 10.2802C213.41 8.49896 213.79 6.71773 214.29 4.98517C213.85 6.71773 213.52 8.49896 213.41 10.3386L213.36 10.9907V11.6429C213.36 12.1296 213.41 12.5578 213.47 12.9958C213.52 13.9108 213.69 14.7771 213.96 15.6434C214.23 16.5096 214.56 17.3759 215 18.1254C215.44 18.9333 215.93 19.6925 216.48 20.3933C217.03 21.0941 217.69 21.7463 218.35 22.34C218.95 22.9921 219.67 23.5859 220.38 24.1212C223.18 26.3891 226.26 28.4429 229.01 30.8763C229.39 31.1488 229.72 31.47 230.05 31.7912L231.04 32.7062C231.75 33.2999 232.36 33.9521 233.02 34.5945C233.68 35.2953 234.28 35.9474 234.89 36.5898L235.82 37.6703L236.26 38.1569L236.7 38.702C239.01 41.515 241.04 44.5908 242.8 47.7834C244.5 51.0246 245.93 54.4313 247.03 57.8867C248.07 61.4005 248.79 65.0214 249.12 68.6423C249.17 69.5572 249.28 70.4819 249.28 71.3968C249.28 71.8251 249.33 72.3118 249.33 72.7498V74.1028C249.33 74.5894 249.33 75.0177 249.33 75.5044L249.28 76.8573L249.17 78.259L249.12 78.9111L249.01 79.6119L248.9 80.9649C248.85 81.3931 248.74 81.8798 248.68 82.3178C248.57 83.2328 248.35 84.1575 248.19 85.0237C247.86 86.805 247.42 88.5862 246.87 90.3772C246.38 92.1584 245.72 93.8326 245.06 95.5651L244.51 96.8597L244.24 97.4534L243.97 98.1056L243.37 99.3514L242.77 100.597C241.12 103.897 239.14 106.973 236.89 109.951C234.69 112.92 232.22 115.684 229.47 118.215C228.81 118.867 228.1 119.461 227.44 120.055C226.73 120.648 226.01 121.242 225.3 121.836C223.82 122.975 222.33 124.104 220.79 125.135C217.66 127.189 214.41 129.029 211.01 130.538C204.14 133.565 196.83 135.56 189.41 136.426L189.08 133.351C196.23 132.65 203.26 130.869 209.86 128.056C213.16 126.654 216.35 124.921 219.37 123.033L219.34 123.004Z" fill="#C7A02E"/>
<path d="M246.05 107.06C244.46 107.06 243.03 106.194 241.71 104.199C243.03 102.252 244.51 100.578 246.05 99.1762C247.59 97.7162 249.18 96.5287 250.83 95.7208C252.42 94.8546 254.07 94.3679 255.56 94.4263C257.04 94.4847 258.47 95.02 259.52 96.3146C258.92 96.6942 258.31 97.2879 257.65 97.9887C256.99 98.6896 256.33 99.4488 255.62 100.257C254.85 101.065 254.14 101.931 253.37 102.69C252.93 103.118 252.55 103.498 252.16 103.878C251.78 104.257 251.34 104.578 250.95 104.9C250.13 105.552 249.25 106.087 248.48 106.467C247.66 106.846 246.83 107.06 246.06 107.06H246.05Z" fill="#C7A02E"/>
<path d="M254.08 55.7162C253.97 56.0958 253.86 56.5241 253.7 56.855C253.43 57.6142 253.1 58.208 252.6 58.6947C251.61 59.668 250.24 59.9892 248.15 59.5025C247.93 58.5292 247.82 57.5558 247.77 56.5825C247.72 56.1542 247.72 55.6675 247.66 55.1809V53.8279C247.72 52.913 247.77 52.0467 247.93 51.2388C248.09 50.3725 248.26 49.5646 248.48 48.8638C248.97 47.3551 249.69 46.1092 250.68 45.243C251.61 44.3767 252.82 43.89 254.31 43.9971C254.26 44.3183 254.2 44.6492 254.2 44.9704C254.2 45.35 254.15 45.7296 254.2 46.1579C254.2 46.9658 254.25 47.8321 254.31 48.8054C254.31 49.2337 254.36 49.7204 254.36 50.207C254.41 50.6937 254.41 51.1804 254.41 51.6087C254.41 52.0953 254.41 52.582 254.41 53.0687C254.36 53.497 254.36 53.9836 254.3 54.4216C254.25 54.8499 254.14 55.2879 254.08 55.7162Z" fill="#C7A02E"/>
<path d="M258.97 64.963C258.92 65.2355 258.86 65.5081 258.86 65.7222C258.75 66.2089 258.64 66.6956 258.48 67.1822C258.26 68.2043 257.93 69.1289 257.66 70.0439C257.28 70.9102 256.89 71.718 256.4 72.3702C255.96 73.0223 255.41 73.5577 254.75 73.9373C253.54 74.6381 252 74.6381 250.08 73.6161C250.13 72.5941 250.24 71.5623 250.41 70.5403C250.52 70.0536 250.57 69.5669 250.74 69.0803C250.85 68.652 250.96 68.1653 251.07 67.7273C251.34 66.8124 251.67 65.8877 252 65.0798C252.38 64.2719 252.82 63.5127 253.21 62.8119C253.65 62.1111 254.14 61.5173 254.69 60.9723C255.24 60.4272 255.79 59.9989 256.39 59.6777C257.54 59.0256 258.92 58.8698 260.4 59.4052C259.8 60.544 259.52 62.3252 259.14 64.2719C259.09 64.4861 259.03 64.7586 258.98 64.9727L258.97 64.963Z" fill="#C7A02E"/>
<path d="M259.19 83.1744C258.92 83.661 258.7 84.1477 258.42 84.576C257.93 85.4909 257.38 86.4156 256.77 87.2235C256.17 87.9827 255.56 88.6835 254.9 89.2773C254.19 89.8223 253.53 90.1922 252.81 90.4161C251.38 90.7957 249.84 90.3577 248.08 88.7906C248.85 86.6784 249.73 84.7901 250.77 83.0575C251.26 82.1913 251.87 81.4321 252.42 80.6826C253.02 79.9818 253.63 79.2809 254.29 78.7359C254.89 78.1421 255.61 77.6555 256.27 77.2272C256.93 76.8476 257.64 76.5264 258.3 76.3609C259.73 76.0397 261.16 76.1954 262.48 77.1201C262.04 77.6652 261.6 78.366 261.16 79.1739C260.78 79.9331 260.34 80.848 259.84 81.763C259.73 81.9771 259.62 82.2497 259.51 82.4638C259.4 82.6779 259.29 82.9505 259.18 83.1646L259.19 83.1744Z" fill="#C7A02E"/>
<path d="M240.12 86.951C239.57 86.4643 239.13 85.8706 238.8 85.2768C238.42 84.6247 238.14 83.9238 237.87 83.223C237.65 82.5222 237.38 81.763 237.16 81.0038C237.05 80.6242 236.94 80.303 236.83 79.9234C236.78 79.7579 236.72 79.5438 236.67 79.3783C236.62 79.2128 236.56 78.9987 236.51 78.8332C236.24 78.1811 235.96 77.5387 235.63 76.9936C235.36 76.3999 235.03 75.9619 234.59 75.592C236.02 75.1637 237.45 75.1053 238.82 75.4265C239.48 75.592 240.14 75.8548 240.8 76.2344C241.4 76.614 242.01 77.1007 242.5 77.6944C243.05 78.2395 243.54 78.8819 243.93 79.6411C244.37 80.4003 244.64 81.2082 244.92 82.0745C245.36 83.8557 245.41 85.9095 244.97 87.9633C242.72 88.3429 241.23 87.8562 240.13 86.9412L240.12 86.951Z" fill="#C7A02E"/>
<path d="M220.82 38.6923C221.59 36.4244 223.62 34.9644 226.26 34.6918C227.52 34.6334 229.01 34.8573 230.44 35.3926C230.82 35.5581 231.15 35.7138 231.54 35.9377C231.87 36.1032 232.2 36.3173 232.58 36.5315C232.91 36.804 233.24 37.0181 233.57 37.2907C233.9 37.6119 234.23 37.8844 234.5 38.2056C233.73 39.8798 232.69 40.6877 231.53 40.9602C230.98 41.0673 230.38 41.0673 229.77 41.0186C229.17 40.9115 228.51 40.8045 227.9 40.5903C225.37 39.8311 222.68 38.4295 220.81 38.702L220.82 38.6923Z" fill="#C7A02E"/>
<path d="M227.47 115.49C225.11 114.623 224.01 113.27 223.57 111.81C223.3 111.11 223.24 110.35 223.24 109.542C223.29 108.783 223.4 107.975 223.57 107.167C223.73 106.36 223.95 105.542 224.17 104.685C224.28 104.306 224.39 103.926 224.44 103.498C224.55 103.118 224.66 102.69 224.71 102.31C225.04 100.802 225.15 99.3417 224.82 98.2613C226.41 98.6409 227.79 99.4001 228.83 100.481C229.32 101.026 229.82 101.619 230.15 102.32C230.53 103.021 230.86 103.78 230.97 104.646C231.35 106.272 231.3 108.16 230.7 110.049C230.1 111.937 229.05 113.835 227.46 115.509L227.47 115.49Z" fill="#C7A02E"/>
<path d="M216.43 32.3168C215 31.8885 213.63 31.4019 212.53 31.2948C212.58 30.7011 212.8 30.156 213.13 29.7277C213.46 29.241 213.84 28.9198 214.34 28.6473C215.33 28.0535 216.54 27.781 217.91 27.7323C219.23 27.6253 220.66 27.7907 222.14 28.1606C223.57 28.5402 225.05 29.1826 226.43 30.156C225.99 31.8301 225.11 32.7451 224.12 33.1831C223.08 33.6114 221.92 33.6114 220.6 33.3972C219.28 33.1831 217.85 32.7451 216.42 32.3168H216.43Z" fill="#C7A02E"/>
<path d="M247.1 45.4473C246.39 46.5277 245.18 47.1799 243.2 47.1799C242.76 46.3136 242.43 45.4473 242.16 44.5908C242 44.1625 241.89 43.7245 241.78 43.2962C241.67 42.8679 241.56 42.4883 241.45 42.0503C241.29 41.184 241.18 40.3762 241.12 39.5683C241.07 38.8091 241.12 38.0012 241.17 37.3004C241.44 34.3803 242.82 32.054 245.57 31.6841C245.57 32.2779 245.68 32.93 245.9 33.6795C246.06 34.3803 246.28 35.1882 246.5 36.0545C246.77 36.8624 246.99 37.7286 247.21 38.5949C247.43 39.4612 247.59 40.3762 247.7 41.184C247.75 41.6123 247.75 41.9919 247.75 42.4299C247.75 42.8095 247.75 43.1891 247.7 43.5687C247.64 44.2696 247.43 44.9217 247.1 45.457V45.4473Z" fill="#C7A02E"/>
<path d="M233.47 42.9653C234.18 43.0237 234.84 43.1794 235.56 43.452C236.27 43.6661 236.99 44.0457 237.65 44.474C237.98 44.6881 238.31 44.9607 238.64 45.2332C238.97 45.5057 239.3 45.7783 239.57 46.0995C240.23 46.6932 240.72 47.394 241.22 48.2117C240.07 49.7788 238.75 50.3238 237.54 50.3725C236.94 50.3725 236.33 50.2654 235.67 50.1C235.4 49.9929 235.07 49.8274 234.79 49.7203C234.46 49.5549 234.19 49.4478 233.86 49.2921C231.5 47.9975 229.02 46.1579 227.1 46.0508C228.36 43.8316 230.73 42.7025 233.48 42.975L233.47 42.9653Z" fill="#C7A02E"/>
<path d="M233.91 99.9744C233.47 99.3806 233.25 98.6798 233.03 97.9206C232.87 97.2198 232.76 96.4119 232.7 95.6527C232.65 95.2244 232.65 94.8448 232.65 94.4068C232.59 94.0272 232.59 93.5989 232.59 93.2193C232.59 92.4115 232.54 91.5938 232.48 90.8444C232.43 90.0851 232.32 89.3843 232.21 88.7322C232.05 88.08 231.83 87.4863 231.5 87.058C233.09 86.9996 234.52 87.3306 235.79 88.0314C237.05 88.7906 238.15 89.871 238.92 91.331C239.63 92.7911 240.07 94.5236 240.07 96.4119C240.02 98.3586 239.52 100.354 238.48 102.301C236.12 102.087 234.74 101.162 233.92 99.9744H233.91Z" fill="#C7A02E"/>
<path d="M221.04 16.5973C221.09 17.0839 221.15 17.5706 221.15 17.9989C221.15 18.4856 221.15 18.9722 221.04 19.5076C220.93 20.4809 220.33 21.4543 218.95 22.048C218.35 21.5029 217.85 20.8605 217.47 20.2084C217.09 19.5562 216.76 18.9138 216.59 18.2617C216.21 16.9671 216.32 15.7796 216.76 14.8063C216.87 14.5922 216.98 14.378 217.14 14.1541C217.25 13.9887 217.41 13.7745 217.63 13.6091C217.96 13.2879 218.34 13.0153 218.78 12.8012C219.6 12.4216 220.59 12.2561 221.58 12.149C221.14 12.5773 220.92 13.2295 220.87 14.0373C220.82 14.7966 220.93 15.6628 221.04 16.5778V16.5973Z" fill="#C7A02E"/>
<path d="M227.53 28.8614C226.27 27.6739 225.22 26.428 224.45 25.1335C223.74 23.8876 223.3 22.5444 223.24 21.3472C223.13 20.1013 223.46 19.0208 224.01 18.1059C224.28 17.6192 224.61 17.1909 225 16.86C225.38 16.4804 225.82 16.1592 226.32 15.8867C226.27 16.6459 226.65 17.6192 227.25 18.7483C227.85 19.8287 228.68 21.1233 229.28 22.3692C229.94 23.6637 230.32 24.9096 230.16 26.0484C229.94 27.1873 229.17 28.1022 227.52 28.8614H227.53Z" fill="#C7A02E"/>
<path d="M235.99 37.0181C235.72 36.6385 235.44 36.2589 235.22 35.8793C234.95 35.4997 234.73 35.1785 234.51 34.7989C234.29 34.4193 234.13 34.0397 233.96 33.6601C233.74 33.2805 233.58 32.9009 233.41 32.5212C232.81 31.0126 232.42 29.6012 232.31 28.1996C232.04 25.445 232.91 23.0116 235.39 22.2037C235.83 24.3159 238.08 27.5572 239.07 30.5259C239.29 31.2851 239.45 32.0346 239.51 32.6867C239.56 33.3875 239.51 34.0397 239.29 34.575C238.85 35.7138 237.86 36.5217 235.99 37.0084V37.0181Z" fill="#C7A02E"/>
<path d="M207.08 16.3734C207.57 16.4318 208.12 16.5875 208.67 16.8016C208.94 16.9087 209.22 17.0742 209.55 17.1812C209.82 17.3467 210.1 17.5024 210.37 17.7263C211.52 18.4271 212.73 19.2934 214 20.2084C214.6 20.695 215.26 21.1817 215.92 21.6684C216.52 22.1551 217.18 22.6417 217.84 23.1771C217.35 24.8026 216.58 25.6591 215.48 25.9317C214.93 26.0387 214.27 25.9901 213.61 25.8246C212.9 25.6105 212.18 25.2795 211.41 24.8512C209.93 23.985 208.44 22.632 207.23 21.2304C205.97 19.8288 205.03 18.4174 204.21 17.5511C204.98 16.5291 206.02 16.1982 207.07 16.3636L207.08 16.3734Z" fill="#C7A02E"/>
<path d="M210.43 116.405C211.25 114.896 212.24 113.377 213.01 111.976C213.39 111.217 213.78 110.574 214 109.864C214.22 109.211 214.38 108.569 214.38 107.975C215.81 108.783 216.91 109.971 217.68 111.382C218.39 112.784 218.72 114.409 218.56 116.142C218.51 117.008 218.29 117.923 217.96 118.789C217.8 119.276 217.58 119.704 217.36 120.142C217.14 120.57 216.87 121.009 216.59 121.437C215.44 123.169 213.73 124.736 211.7 125.924C209.67 124.298 208.95 122.624 208.95 121.057C208.95 120.249 209.11 119.49 209.33 118.682C209.49 118.303 209.66 117.923 209.82 117.543C209.98 117.164 210.2 116.784 210.42 116.405H210.43Z" fill="#C7A02E"/>
<path d="M219.61 6.60095L219.56 6.81508L219.51 6.92215C219.46 7.13629 219.4 7.30176 219.29 7.51589C219.18 7.8955 219.02 8.32378 218.91 8.70338C218.75 9.13166 218.58 9.56966 218.42 9.94927C218.2 10.3775 218.04 10.8156 217.71 11.1952C217.44 11.5748 217.05 11.896 216.56 12.2172C216.07 12.4897 215.46 12.7038 214.69 12.7623C214.09 11.4677 213.92 10.0563 214.14 8.86885C214.19 8.59631 214.25 8.32377 214.36 8.06097C214.47 7.73976 214.58 7.46723 214.69 7.25309C214.91 6.70801 215.24 6.23107 215.57 5.85147C215.9 5.47186 216.34 5.09225 216.72 4.82945C217.16 4.55691 217.6 4.34277 218.04 4.1773C218.97 3.90477 219.96 3.90477 220.95 4.1773C220.4 4.66398 220.07 5.47186 219.74 6.28947C219.74 6.39654 219.69 6.50361 219.63 6.61068L219.61 6.60095Z" fill="#C7A02E"/>
<path d="M83.9753 50V24.52C83.9753 23.3253 84.0126 21.9067 84.0873 20.264C84.1619 18.584 84.2366 17.128 84.3113 15.896H84.0313C83.5459 17.016 83.0233 18.136 82.4633 19.256C81.9033 20.376 81.3246 21.5147 80.7273 22.672L74.2873 32.976H96.5753V39.248H66.2793V33.648L81.7353 8.504H91.6473V50H83.9753ZM107.263 50.784C105.769 50.784 104.537 50.2613 103.567 49.216C102.596 48.1707 102.111 46.9013 102.111 45.408C102.111 43.84 102.596 42.552 103.567 41.544C104.537 40.536 105.769 40.032 107.263 40.032C108.719 40.032 109.932 40.536 110.903 41.544C111.873 42.552 112.359 43.84 112.359 45.408C112.359 46.9013 111.873 48.1707 110.903 49.216C109.932 50.2613 108.719 50.784 107.263 50.784ZM131.857 50.784C129.655 50.784 127.695 50.5227 125.977 50C124.26 49.4773 122.729 48.7867 121.385 47.928C120.041 47.0693 118.847 46.136 117.801 45.128L121.609 39.864C122.393 40.648 123.233 41.3573 124.129 41.992C125.063 42.6267 126.071 43.1307 127.153 43.504C128.273 43.8773 129.468 44.064 130.737 44.064C132.156 44.064 133.407 43.7653 134.489 43.168C135.609 42.5707 136.487 41.712 137.121 40.592C137.756 39.4347 138.073 38.0533 138.073 36.448C138.073 34.0587 137.42 32.2107 136.113 30.904C134.844 29.5973 133.164 28.944 131.073 28.944C129.879 28.944 128.852 29.112 127.993 29.448C127.135 29.7467 126.089 30.288 124.857 31.072L121.105 28.664L122.225 8.504H144.401V15.448H129.337L128.553 24.24C129.375 23.8667 130.177 23.5867 130.961 23.4C131.745 23.2133 132.604 23.12 133.537 23.12C135.852 23.12 137.98 23.5867 139.921 24.52C141.863 25.416 143.412 26.8347 144.569 28.776C145.727 30.7173 146.305 33.2 146.305 36.224C146.305 39.2853 145.615 41.9173 144.233 44.12C142.889 46.2853 141.116 47.9467 138.913 49.104C136.748 50.224 134.396 50.784 131.857 50.784ZM150.793 31.256H171.985V34.064H150.793V31.256ZM158.473 38H168.073V40.784H158.473V38ZM167.017 38H170.041C170.041 38 170.033 38.08 170.017 38.24C170.017 38.384 170.017 38.56 170.017 38.768C170.017 38.976 170.009 39.144 169.993 39.272C169.897 41.128 169.793 42.72 169.681 44.048C169.585 45.36 169.473 46.464 169.345 47.36C169.217 48.24 169.065 48.944 168.889 49.472C168.713 50 168.505 50.4 168.265 50.672C167.913 51.088 167.529 51.376 167.113 51.536C166.713 51.696 166.241 51.808 165.697 51.872C165.217 51.92 164.593 51.944 163.825 51.944C163.073 51.944 162.297 51.928 161.497 51.896C161.465 51.48 161.353 51 161.161 50.456C160.969 49.928 160.737 49.464 160.465 49.064C161.297 49.128 162.089 49.168 162.841 49.184C163.593 49.2 164.145 49.208 164.497 49.208C164.753 49.208 164.969 49.192 165.145 49.16C165.321 49.112 165.481 49.024 165.625 48.896C165.881 48.672 166.089 48.176 166.249 47.408C166.425 46.624 166.569 45.504 166.681 44.048C166.809 42.576 166.921 40.72 167.017 38.48V38ZM156.409 33.656H159.457C159.409 35.016 159.329 36.392 159.217 37.784C159.121 39.176 158.937 40.552 158.665 41.912C158.393 43.256 157.993 44.552 157.465 45.8C156.937 47.032 156.225 48.192 155.329 49.28C154.433 50.352 153.297 51.296 151.921 52.112C151.713 51.728 151.409 51.312 151.009 50.864C150.609 50.432 150.217 50.072 149.833 49.784C151.097 49.064 152.129 48.24 152.929 47.312C153.745 46.384 154.385 45.376 154.849 44.288C155.313 43.2 155.649 42.064 155.857 40.88C156.065 39.68 156.201 38.472 156.265 37.256C156.329 36.04 156.377 34.84 156.409 33.656ZM187.465 29.912H190.393V52.136H187.465V29.912ZM183.385 30.944L186.169 31.496C185.945 32.584 185.673 33.664 185.353 34.736C185.033 35.808 184.673 36.816 184.273 37.76C183.889 38.688 183.481 39.504 183.049 40.208C182.873 40.064 182.625 39.904 182.305 39.728C182.001 39.552 181.689 39.384 181.369 39.224C181.065 39.048 180.793 38.92 180.553 38.84C180.985 38.2 181.385 37.456 181.753 36.608C182.121 35.744 182.441 34.832 182.713 33.872C182.985 32.896 183.209 31.92 183.385 30.944ZM184.321 34.256H195.433V37.088H183.601L184.321 34.256ZM180.961 41.24H196.561V44.048H180.961V41.24ZM179.185 29.696L181.921 30.56C181.409 31.904 180.809 33.264 180.121 34.64C179.433 36 178.681 37.288 177.865 38.504C177.065 39.72 176.233 40.792 175.369 41.72C175.273 41.48 175.137 41.176 174.961 40.808C174.785 40.424 174.593 40.04 174.385 39.656C174.177 39.272 173.985 38.96 173.809 38.72C174.529 37.984 175.217 37.136 175.873 36.176C176.545 35.216 177.161 34.184 177.721 33.08C178.297 31.976 178.785 30.848 179.185 29.696ZM176.809 36.344L179.545 33.608V33.632V52.112H176.809V36.344Z" fill="#FFFF59"/>
<path d="M89.4019 71.2H95.3219V72.592H89.4019V71.2ZM89.4179 75.04H95.3379V76.416H89.4179V75.04ZM89.4179 78.88H95.3219V80.272H89.4179V78.88ZM88.6819 67.392H96.0419V81.152H94.5219V68.832H90.1379V81.232H88.6819V67.392ZM81.9459 69.872H88.0259V71.312H81.9459V69.872ZM84.4099 66.496H85.8659V81.328H84.4099V66.496ZM84.3459 70.8L85.2899 71.136C85.1405 71.7867 84.9645 72.4587 84.7619 73.152C84.5592 73.8347 84.3245 74.5067 84.0579 75.168C83.8019 75.8187 83.5245 76.432 83.2259 77.008C82.9379 77.5733 82.6339 78.0587 82.3139 78.464C82.2285 78.2507 82.1112 78.0107 81.9619 77.744C81.8125 77.4773 81.6792 77.248 81.5619 77.056C81.8499 76.704 82.1325 76.288 82.4099 75.808C82.6979 75.3173 82.9645 74.7947 83.2099 74.24C83.4552 73.6747 83.6739 73.0987 83.8659 72.512C84.0685 71.9253 84.2285 71.3547 84.3459 70.8ZM85.7539 72.416C85.8712 72.5227 86.0419 72.7093 86.2659 72.976C86.5005 73.232 86.7459 73.5147 87.0019 73.824C87.2685 74.1227 87.5085 74.4053 87.7219 74.672C87.9459 74.928 88.1005 75.1147 88.1859 75.232L87.2899 76.464C87.1832 76.2507 87.0285 75.9947 86.8259 75.696C86.6339 75.3867 86.4259 75.0667 86.2019 74.736C85.9779 74.4053 85.7592 74.1013 85.5459 73.824C85.3325 73.536 85.1565 73.3013 85.0179 73.12L85.7539 72.416ZM107.226 70.752L108.17 69.744C108.65 70.0213 109.167 70.3307 109.722 70.672C110.277 71.0133 110.805 71.36 111.306 71.712C111.807 72.0533 112.218 72.3627 112.538 72.64L111.546 73.776C111.247 73.4987 110.847 73.1787 110.346 72.816C109.855 72.4533 109.333 72.0907 108.778 71.728C108.234 71.3653 107.717 71.04 107.226 70.752ZM108.186 73.2H108.954V75.568C108.954 75.76 108.981 76.0053 109.034 76.304C109.098 76.592 109.205 76.9067 109.354 77.248C109.514 77.5787 109.733 77.92 110.01 78.272C110.298 78.6133 110.661 78.944 111.098 79.264C111.546 79.5733 112.085 79.8453 112.714 80.08C112.575 80.2507 112.415 80.4587 112.234 80.704C112.063 80.96 111.925 81.1787 111.818 81.36C111.253 81.1467 110.757 80.8747 110.33 80.544C109.903 80.2133 109.541 79.8667 109.242 79.504C108.954 79.1307 108.719 78.7733 108.538 78.432C108.367 78.0907 108.25 77.7973 108.186 77.552C108.111 77.7973 107.978 78.0907 107.786 78.432C107.605 78.7627 107.349 79.1147 107.018 79.488C106.687 79.8507 106.287 80.192 105.818 80.512C105.349 80.8427 104.794 81.1253 104.154 81.36C104.09 81.2427 104.01 81.1093 103.914 80.96C103.818 80.8107 103.711 80.6613 103.594 80.512C103.487 80.3627 103.386 80.24 103.29 80.144C103.983 79.8987 104.57 79.616 105.05 79.296C105.53 78.976 105.925 78.64 106.234 78.288C106.543 77.936 106.783 77.5947 106.954 77.264C107.125 76.9227 107.242 76.608 107.306 76.32C107.381 76.0213 107.418 75.7707 107.418 75.568V73.2H108.186ZM107.53 66.496H109.018C108.975 67.456 108.89 68.3253 108.762 69.104C108.634 69.872 108.415 70.56 108.106 71.168C107.807 71.776 107.37 72.3093 106.794 72.768C106.229 73.216 105.482 73.5947 104.554 73.904C104.479 73.7333 104.357 73.5253 104.186 73.28C104.026 73.0347 103.866 72.8427 103.706 72.704C104.538 72.4587 105.199 72.1493 105.69 71.776C106.181 71.4027 106.554 70.9653 106.81 70.464C107.066 69.9627 107.242 69.3867 107.338 68.736C107.434 68.0747 107.498 67.328 107.53 66.496ZM105.162 67.504L106.426 67.76C106.351 68.2933 106.202 68.832 105.978 69.376C105.765 69.9093 105.477 70.352 105.114 70.704L103.93 70.16C104.25 69.872 104.517 69.488 104.73 69.008C104.943 68.5173 105.087 68.016 105.162 67.504ZM105.002 74.432L106.33 74.688C106.223 75.3067 106.042 75.9093 105.786 76.496C105.53 77.072 105.189 77.5413 104.762 77.904L103.546 77.248C103.919 76.9493 104.229 76.544 104.474 76.032C104.719 75.5093 104.895 74.976 105.002 74.432ZM110.858 67.424L112.314 67.904C112.047 68.3627 111.77 68.8267 111.482 69.296C111.205 69.7547 110.954 70.1493 110.73 70.48L109.594 70.032C109.743 69.7973 109.898 69.5307 110.058 69.232C110.218 68.9227 110.367 68.608 110.506 68.288C110.655 67.968 110.773 67.68 110.858 67.424ZM111.002 74.304L112.474 74.8C112.197 75.2907 111.903 75.792 111.594 76.304C111.295 76.8053 111.013 77.2267 110.746 77.568L109.594 77.12C109.754 76.864 109.919 76.576 110.09 76.256C110.271 75.9253 110.437 75.5893 110.586 75.248C110.746 74.9067 110.885 74.592 111.002 74.304ZM98.4739 71.36H103.226V72.528H98.4739V71.36ZM98.5219 67.024H103.162V68.208H98.5219V67.024ZM98.4739 73.52H103.226V74.688H98.4739V73.52ZM97.7219 69.152H103.754V70.368H97.7219V69.152ZM99.1299 75.712H103.242V80.464H99.1299V79.248H101.93V76.928H99.1299V75.712ZM98.4419 75.712H99.7379V81.152H98.4419V75.712ZM122.714 66.688H124.234V81.344H122.714V66.688ZM119.962 67.328L121.418 67.632C121.279 68.3573 121.103 69.0827 120.89 69.808C120.677 70.5227 120.437 71.1893 120.17 71.808C119.914 72.4267 119.637 72.976 119.338 73.456C119.242 73.3813 119.114 73.3013 118.954 73.216C118.794 73.12 118.629 73.0293 118.458 72.944C118.298 72.848 118.154 72.7733 118.026 72.72C118.335 72.2827 118.613 71.776 118.858 71.2C119.103 70.624 119.317 70.0053 119.498 69.344C119.69 68.6827 119.845 68.0107 119.962 67.328ZM120.33 69.696H127.77V71.184H119.946L120.33 69.696ZM118.218 74.368H128.506V75.856H118.218V74.368ZM117.274 66.56L118.698 66.992C118.367 67.8987 117.973 68.8 117.514 69.696C117.066 70.5813 116.575 71.424 116.042 72.224C115.519 73.0133 114.975 73.712 114.41 74.32C114.367 74.192 114.293 74.032 114.186 73.84C114.09 73.648 113.983 73.456 113.866 73.264C113.759 73.0613 113.663 72.9013 113.578 72.784C114.069 72.272 114.538 71.6853 114.986 71.024C115.445 70.352 115.871 69.6373 116.266 68.88C116.661 68.112 116.997 67.3387 117.274 66.56ZM115.658 70.8L117.098 69.376L117.114 69.392V81.328H115.658V70.8ZM129.722 74.944H137.69V76.192H129.722V74.944ZM129.85 69.328H137.626V70.544H129.85V69.328ZM132.666 73.664L134.074 73.968C133.818 74.5013 133.541 75.0613 133.242 75.648C132.943 76.2347 132.65 76.8 132.362 77.344C132.074 77.888 131.802 78.3733 131.546 78.8L130.218 78.368C130.463 77.9627 130.73 77.4933 131.018 76.96C131.317 76.416 131.605 75.856 131.882 75.28C132.17 74.704 132.431 74.1653 132.666 73.664ZM135.002 75.744L136.41 75.904C136.261 76.704 136.042 77.4027 135.754 78C135.466 78.5973 135.082 79.1093 134.602 79.536C134.122 79.9627 133.535 80.32 132.842 80.608C132.159 80.9067 131.349 81.1573 130.41 81.36C130.367 81.1467 130.282 80.9227 130.154 80.688C130.037 80.4533 129.909 80.256 129.77 80.096C130.869 79.9253 131.77 79.6747 132.474 79.344C133.189 79.0027 133.743 78.5387 134.138 77.952C134.543 77.3653 134.831 76.6293 135.002 75.744ZM136.058 66.752L137.354 67.28C137.109 67.6427 136.858 68.0053 136.602 68.368C136.357 68.7307 136.127 69.0453 135.914 69.312L134.906 68.848C135.109 68.56 135.317 68.2187 135.53 67.824C135.754 67.4187 135.93 67.0613 136.058 66.752ZM133.05 66.48H134.458V73.872H133.05V66.48ZM130.362 67.28L131.482 66.816C131.706 67.136 131.909 67.488 132.09 67.872C132.282 68.2453 132.415 68.5707 132.49 68.848L131.322 69.376C131.258 69.088 131.135 68.752 130.954 68.368C130.773 67.9733 130.575 67.6107 130.362 67.28ZM133.098 69.904L134.09 70.496C133.823 70.9333 133.487 71.376 133.082 71.824C132.687 72.2613 132.255 72.6667 131.786 73.04C131.327 73.4133 130.869 73.728 130.41 73.984C130.325 73.8133 130.207 73.616 130.058 73.392C129.909 73.168 129.759 72.9867 129.61 72.848C130.058 72.6667 130.501 72.4213 130.938 72.112C131.386 71.8027 131.797 71.456 132.17 71.072C132.554 70.688 132.863 70.2987 133.098 69.904ZM134.314 70.416C134.453 70.4907 134.655 70.6133 134.922 70.784C135.199 70.944 135.493 71.12 135.802 71.312C136.122 71.4933 136.41 71.6693 136.666 71.84C136.933 72 137.119 72.1227 137.226 72.208L136.41 73.264C136.271 73.136 136.079 72.9707 135.834 72.768C135.589 72.5653 135.322 72.3573 135.034 72.144C134.757 71.92 134.485 71.712 134.218 71.52C133.962 71.3173 133.749 71.1573 133.578 71.04L134.314 70.416ZM138.81 69.424H144.586V70.816H138.81V69.424ZM139.098 66.48L140.634 66.704C140.463 67.7707 140.245 68.8 139.978 69.792C139.711 70.784 139.391 71.7013 139.018 72.544C138.645 73.3867 138.218 74.128 137.738 74.768C137.663 74.672 137.551 74.56 137.402 74.432C137.253 74.304 137.098 74.176 136.938 74.048C136.778 73.9093 136.639 73.8027 136.522 73.728C136.981 73.1627 137.375 72.5013 137.706 71.744C138.037 70.976 138.319 70.144 138.554 69.248C138.789 68.352 138.97 67.4293 139.098 66.48ZM142.154 70.256L143.69 70.4C143.445 72.2347 143.071 73.8507 142.57 75.248C142.079 76.6453 141.402 77.8507 140.538 78.864C139.685 79.8667 138.586 80.7093 137.242 81.392C137.199 81.2747 137.125 81.1253 137.018 80.944C136.911 80.7733 136.799 80.6027 136.682 80.432C136.565 80.2613 136.458 80.128 136.362 80.032C137.599 79.456 138.607 78.7253 139.386 77.84C140.175 76.944 140.783 75.8667 141.21 74.608C141.647 73.3493 141.962 71.8987 142.154 70.256ZM139.642 70.592C139.866 72.0107 140.186 73.344 140.602 74.592C141.029 75.8293 141.578 76.9173 142.25 77.856C142.933 78.784 143.77 79.5093 144.762 80.032C144.645 80.128 144.517 80.2507 144.378 80.4C144.239 80.56 144.111 80.72 143.994 80.88C143.877 81.04 143.775 81.1893 143.69 81.328C142.634 80.7093 141.754 79.888 141.05 78.864C140.346 77.8293 139.77 76.6347 139.322 75.28C138.885 73.9147 138.533 72.4267 138.266 70.816L139.642 70.592ZM131.37 78.256L132.186 77.216C132.815 77.4613 133.445 77.7387 134.074 78.048C134.703 78.3467 135.285 78.6613 135.818 78.992C136.362 79.312 136.821 79.616 137.194 79.904L136.154 80.992C135.802 80.6933 135.37 80.3787 134.858 80.048C134.346 79.7173 133.791 79.3973 133.194 79.088C132.597 78.7787 131.989 78.5013 131.37 78.256ZM152.362 66.512H153.93V68.928H152.362V66.512ZM146.362 68H159.962V71.248H158.394V69.328H147.85V71.248H146.362V68ZM147.738 70.944H158.698V72.176H147.738V70.944ZM146.17 75.952H160.25V77.264H146.17V75.952ZM147.994 73.408H158.442V74.656H147.994V73.408ZM154.042 76.24C154.533 77.328 155.311 78.1867 156.378 78.816C157.455 79.4453 158.81 79.8613 160.442 80.064C160.293 80.2133 160.127 80.4213 159.946 80.688C159.775 80.9547 159.637 81.1893 159.53 81.392C158.367 81.1893 157.343 80.88 156.458 80.464C155.573 80.0587 154.821 79.5307 154.202 78.88C153.583 78.2293 153.077 77.4507 152.682 76.544L154.042 76.24ZM152.33 69.792H153.866V73.984C153.866 74.528 153.813 75.0773 153.706 75.632C153.61 76.1867 153.423 76.7307 153.146 77.264C152.869 77.7973 152.469 78.3093 151.946 78.8C151.423 79.2907 150.746 79.7493 149.914 80.176C149.093 80.6027 148.079 80.992 146.874 81.344C146.821 81.2373 146.741 81.1093 146.634 80.96C146.527 80.8107 146.41 80.6613 146.282 80.512C146.165 80.3627 146.053 80.2347 145.946 80.128C147.109 79.8293 148.074 79.4987 148.842 79.136C149.621 78.7627 150.239 78.3733 150.698 77.968C151.167 77.552 151.519 77.12 151.754 76.672C151.989 76.224 152.143 75.7707 152.218 75.312C152.293 74.8533 152.33 74.4 152.33 73.952V69.792ZM171.146 66.496H172.65V71.472H171.146V66.496ZM167.77 67.312H176.186V68.288H167.77V67.312ZM168.186 68.976H175.786V69.92H168.186V68.976ZM167.354 70.624H176.538V71.632H167.354V70.624ZM169.77 75.088V75.968H174.25V75.088H169.77ZM169.77 76.896V77.792H174.25V76.896H169.77ZM169.77 73.296V74.16H174.25V73.296H169.77ZM168.394 72.32H175.69V78.768H168.394V72.32ZM172.634 79.488L173.658 78.752C174.021 78.9547 174.389 79.168 174.762 79.392C175.135 79.616 175.493 79.8347 175.834 80.048C176.186 80.272 176.485 80.4693 176.73 80.64L175.402 81.36C175.189 81.2 174.927 81.0133 174.618 80.8C174.319 80.5867 173.999 80.3627 173.658 80.128C173.317 79.904 172.975 79.6907 172.634 79.488ZM170.186 78.688L171.418 79.472C171.098 79.7173 170.719 79.9627 170.282 80.208C169.855 80.464 169.402 80.6933 168.922 80.896C168.453 81.1093 167.999 81.2853 167.562 81.424C167.455 81.2747 167.306 81.104 167.114 80.912C166.933 80.7307 166.767 80.576 166.618 80.448C167.055 80.32 167.498 80.16 167.946 79.968C168.405 79.776 168.831 79.568 169.226 79.344C169.621 79.12 169.941 78.9013 170.186 78.688ZM164.186 66.496L165.498 66.976C165.295 67.3813 165.077 67.8027 164.842 68.24C164.618 68.6667 164.389 69.0773 164.154 69.472C163.93 69.8667 163.717 70.2133 163.514 70.512L162.49 70.08C162.693 69.7707 162.895 69.408 163.098 68.992C163.311 68.5653 163.514 68.1333 163.706 67.696C163.898 67.2587 164.058 66.8587 164.186 66.496ZM165.978 68.352L167.226 68.928C166.853 69.5253 166.437 70.1547 165.978 70.816C165.53 71.4773 165.077 72.1173 164.618 72.736C164.159 73.344 163.727 73.8827 163.322 74.352L162.426 73.84C162.725 73.488 163.039 73.088 163.37 72.64C163.701 72.1813 164.021 71.7067 164.33 71.216C164.65 70.7147 164.949 70.2187 165.226 69.728C165.514 69.2373 165.765 68.7787 165.978 68.352ZM161.674 70.016L162.442 69.008C162.719 69.264 163.002 69.5467 163.29 69.856C163.578 70.1653 163.845 70.4693 164.09 70.768C164.335 71.0667 164.522 71.3387 164.65 71.584L163.834 72.736C163.706 72.4693 163.525 72.1813 163.29 71.872C163.055 71.552 162.794 71.232 162.506 70.912C162.218 70.5813 161.941 70.2827 161.674 70.016ZM165.466 72.064L166.554 71.616C166.767 71.968 166.97 72.3467 167.162 72.752C167.365 73.1573 167.541 73.552 167.69 73.936C167.839 74.32 167.946 74.6613 168.01 74.96L166.842 75.472C166.789 75.1733 166.687 74.8267 166.538 74.432C166.399 74.0373 166.234 73.632 166.042 73.216C165.861 72.8 165.669 72.416 165.466 72.064ZM161.562 73.552C162.266 73.5093 163.098 73.4667 164.058 73.424C165.018 73.3707 166.005 73.312 167.018 73.248L167.034 74.496C166.074 74.5707 165.125 74.64 164.186 74.704C163.247 74.768 162.41 74.8267 161.674 74.88L161.562 73.552ZM165.85 75.984L166.938 75.664C167.13 76.112 167.306 76.608 167.466 77.152C167.626 77.6853 167.727 78.144 167.77 78.528L166.618 78.896C166.586 78.5013 166.495 78.032 166.346 77.488C166.207 76.944 166.042 76.4427 165.85 75.984ZM162.41 75.76L163.658 75.968C163.562 76.7253 163.423 77.472 163.242 78.208C163.071 78.944 162.863 79.568 162.618 80.08C162.533 80.0267 162.421 79.968 162.282 79.904C162.143 79.8293 161.999 79.76 161.85 79.696C161.711 79.6213 161.594 79.568 161.498 79.536C161.743 79.0453 161.935 78.464 162.074 77.792C162.223 77.12 162.335 76.4427 162.41 75.76ZM164.138 74.192H165.45V81.344H164.138V74.192ZM80.7763 91.536H82.2483V96.128H80.7763V91.536ZM80.7763 101.152H82.2803V105.344H80.7763V101.152ZM80.1363 96.16L81.5123 96.816C81.0216 97.2107 80.5043 97.6053 79.9603 98C79.427 98.384 78.931 98.7093 78.4723 98.976L77.4483 98.4C77.747 98.1973 78.0563 97.968 78.3763 97.712C78.707 97.4453 79.027 97.1787 79.3363 96.912C79.6456 96.6453 79.9123 96.3947 80.1363 96.16ZM83.8483 96.944L85.1763 97.68C84.5256 98.1387 83.8163 98.6027 83.0483 99.072C82.2803 99.5307 81.5016 99.968 80.7123 100.384C79.9336 100.8 79.203 101.168 78.5203 101.488L77.5443 100.8C78.067 100.555 78.611 100.277 79.1763 99.968C79.7416 99.6587 80.307 99.3333 80.8723 98.992C81.4483 98.64 81.987 98.2933 82.4883 97.952C83.0003 97.6 83.4536 97.264 83.8483 96.944ZM75.7843 98.304L76.8563 97.504C77.2723 97.696 77.7043 97.9253 78.1523 98.192C78.611 98.448 79.0483 98.7093 79.4643 98.976C79.8803 99.2427 80.2216 99.4933 80.4883 99.728L79.3523 100.624C79.0963 100.389 78.771 100.139 78.3763 99.872C77.9816 99.5947 77.555 99.3173 77.0963 99.04C76.6483 98.7627 76.211 98.5173 75.7843 98.304ZM83.7203 99.664L84.8243 98.944C85.2936 99.1893 85.7736 99.472 86.2643 99.792C86.755 100.101 87.2243 100.421 87.6723 100.752C88.1203 101.072 88.483 101.376 88.7603 101.664L87.5923 102.464C87.3363 102.187 86.9896 101.883 86.5523 101.552C86.1256 101.211 85.6616 100.875 85.1603 100.544C84.6696 100.213 84.1896 99.92 83.7203 99.664ZM83.5763 102.88L84.6803 102.096C85.107 102.299 85.5656 102.533 86.0563 102.8C86.547 103.056 87.0163 103.323 87.4643 103.6C87.9123 103.867 88.2856 104.117 88.5843 104.352L87.4003 105.232C87.1336 104.997 86.7816 104.741 86.3443 104.464C85.9176 104.187 85.459 103.909 84.9683 103.632C84.4883 103.355 84.0243 103.104 83.5763 102.88ZM74.6163 100.72C75.3736 100.72 76.227 100.715 77.1763 100.704C78.1363 100.693 79.155 100.683 80.2323 100.672C81.3203 100.651 82.435 100.629 83.5763 100.608C84.7283 100.587 85.8696 100.565 87.0003 100.544L86.9203 101.664C85.811 101.696 84.691 101.728 83.5603 101.76C82.4296 101.792 81.3256 101.819 80.2483 101.84C79.1816 101.861 78.1736 101.883 77.2243 101.904C76.275 101.925 75.4216 101.941 74.6643 101.952L74.6163 100.72ZM78.0083 102.176L79.3683 102.704C79.027 103.035 78.6323 103.355 78.1843 103.664C77.747 103.973 77.2883 104.261 76.8083 104.528C76.339 104.795 75.8856 105.035 75.4483 105.248C75.363 105.152 75.251 105.04 75.1123 104.912C74.9843 104.784 74.8456 104.656 74.6963 104.528C74.5576 104.411 74.4296 104.315 74.3123 104.24C74.995 103.984 75.6723 103.675 76.3443 103.312C77.0163 102.949 77.571 102.571 78.0083 102.176ZM77.0803 94.432V95.6H86.0723V94.432H77.0803ZM77.0803 92.192V93.328H86.0723V92.192H77.0803ZM75.6403 91.008H87.5603V96.768H75.6403V91.008ZM96.5363 95.936H105.16V97.424H96.5363V95.936ZM100.12 90.544H101.656V105.344H100.12V90.544ZM90.8883 95.36H95.9603V96.528H90.8883V95.36ZM90.9683 91.024H95.9763V92.208H90.9683V91.024ZM90.8883 97.52H95.9603V98.688H90.8883V97.52ZM90.1203 93.152H96.5683V94.368H90.1203V93.152ZM91.5763 99.712H95.9123V104.464H91.5763V103.248H94.5683V100.928H91.5763V99.712ZM90.8563 99.712H92.1843V105.152H90.8563V99.712ZM114.526 93.056C114.42 93.8773 114.281 94.7467 114.11 95.664C113.95 96.5707 113.732 97.472 113.454 98.368C113.134 99.456 112.772 100.379 112.366 101.136C111.972 101.883 111.54 102.453 111.07 102.848C110.601 103.243 110.105 103.44 109.582 103.44C109.049 103.44 108.553 103.259 108.094 102.896C107.636 102.523 107.262 102.005 106.974 101.344C106.686 100.672 106.542 99.8933 106.542 99.008C106.542 98.112 106.724 97.264 107.086 96.464C107.46 95.664 107.972 94.9547 108.622 94.336C109.273 93.7173 110.03 93.232 110.894 92.88C111.758 92.528 112.692 92.352 113.694 92.352C114.654 92.352 115.518 92.5067 116.286 92.816C117.065 93.1253 117.726 93.5573 118.27 94.112C118.825 94.656 119.246 95.296 119.534 96.032C119.822 96.768 119.966 97.552 119.966 98.384C119.966 99.504 119.732 100.501 119.262 101.376C118.804 102.24 118.126 102.949 117.23 103.504C116.334 104.048 115.236 104.416 113.934 104.608L112.99 103.104C113.268 103.072 113.524 103.04 113.758 103.008C113.993 102.965 114.212 102.923 114.414 102.88C114.926 102.763 115.412 102.581 115.87 102.336C116.34 102.091 116.756 101.781 117.118 101.408C117.481 101.024 117.764 100.576 117.966 100.064C118.18 99.552 118.286 98.976 118.286 98.336C118.286 97.696 118.185 97.104 117.982 96.56C117.78 96.0053 117.481 95.5253 117.086 95.12C116.692 94.7147 116.206 94.4 115.63 94.176C115.054 93.9413 114.404 93.824 113.678 93.824C112.804 93.824 112.025 93.9787 111.342 94.288C110.66 94.5973 110.078 95.008 109.598 95.52C109.129 96.0213 108.772 96.5653 108.526 97.152C108.281 97.7387 108.158 98.304 108.158 98.848C108.158 99.456 108.233 99.9627 108.382 100.368C108.532 100.763 108.718 101.056 108.942 101.248C109.166 101.44 109.396 101.536 109.63 101.536C109.865 101.536 110.105 101.419 110.35 101.184C110.596 100.939 110.841 100.555 111.086 100.032C111.342 99.5093 111.593 98.8427 111.838 98.032C112.084 97.264 112.286 96.448 112.446 95.584C112.617 94.7093 112.74 93.856 112.814 93.024L114.526 93.056ZM122.534 104V92.208H129.494V93.776H124.39V97.056H128.71V98.624H124.39V102.416H129.67V104H122.534ZM136.72 104.224C135.984 104.224 135.296 104.091 134.656 103.824C134.027 103.547 133.472 103.147 132.992 102.624C132.512 102.101 132.139 101.467 131.872 100.72C131.605 99.9627 131.472 99.0987 131.472 98.128C131.472 97.168 131.611 96.3093 131.888 95.552C132.165 94.7947 132.544 94.1547 133.024 93.632C133.504 93.0987 134.069 92.6933 134.72 92.416C135.371 92.1387 136.069 92 136.816 92C137.541 92 138.187 92.1493 138.752 92.448C139.317 92.7467 139.781 93.0933 140.144 93.488L139.152 94.672C138.843 94.3627 138.496 94.112 138.112 93.92C137.739 93.7173 137.317 93.616 136.848 93.616C136.165 93.616 135.563 93.7973 135.04 94.16C134.528 94.5227 134.123 95.0347 133.824 95.696C133.536 96.3573 133.392 97.152 133.392 98.08C133.392 99.008 133.531 99.8133 133.808 100.496C134.085 101.168 134.48 101.685 134.992 102.048C135.504 102.411 136.107 102.592 136.8 102.592C137.333 102.592 137.808 102.48 138.224 102.256C138.651 102.021 139.04 101.712 139.392 101.328L140.4 102.512C139.92 103.067 139.376 103.493 138.768 103.792C138.171 104.08 137.488 104.224 136.72 104.224ZM148.088 90.496H149.624V103.792C149.624 104.197 149.565 104.501 149.448 104.704C149.33 104.907 149.133 105.061 148.856 105.168C148.578 105.264 148.221 105.323 147.784 105.344C147.346 105.376 146.786 105.392 146.104 105.392C146.072 105.211 146.002 105.003 145.896 104.768C145.8 104.533 145.698 104.331 145.592 104.16C145.89 104.171 146.184 104.176 146.472 104.176C146.76 104.187 147.01 104.187 147.224 104.176C147.448 104.176 147.608 104.176 147.704 104.176C147.853 104.165 147.954 104.133 148.008 104.08C148.061 104.037 148.088 103.941 148.088 103.792V90.496ZM141.944 91.664H155.928V92.88H141.944V91.664ZM145.064 94.704V95.68H152.792V94.704H145.064ZM143.608 93.712H154.328V96.688H143.608V93.712ZM143.176 97.648H154.584V103.648H153.064V98.704H143.176V97.648ZM141.624 99.632H156.264V100.816H141.624V99.632ZM143.048 101.824H153.864V102.944H143.048V101.824ZM157.88 100.336H172.008V101.6H157.88V100.336ZM157.944 93.248H171.96V94.512H157.944V93.248ZM158.584 96.032H171.368V97.248H158.584V96.032ZM159.384 98.224H170.6V99.344H159.384V98.224ZM164.152 96.624H165.64V105.344H164.152V96.624ZM162.712 90.48H164.136V93.84H162.712V90.48ZM165.72 90.48H167.16V93.76H165.72V90.48ZM163.768 100.864L164.984 101.424C164.482 101.968 163.874 102.48 163.16 102.96C162.445 103.44 161.677 103.861 160.856 104.224C160.034 104.597 159.224 104.896 158.424 105.12C158.349 104.981 158.253 104.832 158.136 104.672C158.029 104.523 157.912 104.373 157.784 104.224C157.666 104.075 157.549 103.947 157.432 103.84C158.232 103.669 159.032 103.435 159.832 103.136C160.632 102.837 161.378 102.496 162.072 102.112C162.765 101.717 163.33 101.301 163.768 100.864ZM166.024 100.832C166.365 101.163 166.77 101.483 167.24 101.792C167.72 102.101 168.242 102.389 168.808 102.656C169.373 102.912 169.96 103.136 170.568 103.328C171.186 103.52 171.805 103.675 172.424 103.792C172.317 103.899 172.194 104.032 172.056 104.192C171.928 104.352 171.805 104.517 171.688 104.688C171.581 104.859 171.49 105.013 171.416 105.152C170.786 104.981 170.162 104.768 169.544 104.512C168.925 104.267 168.328 103.979 167.752 103.648C167.186 103.317 166.653 102.96 166.152 102.576C165.661 102.181 165.229 101.76 164.856 101.312L166.024 100.832ZM169.416 90.656L170.984 91.056C170.738 91.4827 170.482 91.9093 170.216 92.336C169.96 92.7627 169.725 93.1307 169.512 93.44L168.28 93.056C168.418 92.832 168.557 92.5813 168.696 92.304C168.834 92.016 168.968 91.728 169.096 91.44C169.224 91.152 169.33 90.8907 169.416 90.656ZM167.288 94.048L168.872 94.432C168.669 94.8053 168.466 95.168 168.264 95.52C168.061 95.8613 167.869 96.1547 167.688 96.4L166.424 96.032C166.573 95.744 166.728 95.4133 166.888 95.04C167.058 94.6667 167.192 94.336 167.288 94.048ZM159.16 91.056L160.456 90.608C160.722 90.96 160.978 91.3547 161.224 91.792C161.469 92.2293 161.65 92.6133 161.768 92.944L160.392 93.44C160.296 93.12 160.13 92.736 159.896 92.288C159.661 91.84 159.416 91.4293 159.16 91.056ZM161.224 94.576L162.68 94.32C162.85 94.5653 163.01 94.8427 163.16 95.152C163.309 95.4613 163.416 95.728 163.48 95.952L161.96 96.24C161.906 96.016 161.81 95.7493 161.672 95.44C161.533 95.12 161.384 94.832 161.224 94.576ZM173.752 95.504H188.088V96.848H173.752V95.504ZM175.16 92.384H184.376V93.712H175.16V92.384ZM177.848 100.96H185.208V102.144H177.848V100.96ZM177.848 103.568H185.208V104.848H177.848V103.568ZM179.112 90.496H180.616V96.24H179.112V90.496ZM186.136 91.008L187.432 91.696C186.386 93.1147 185.165 94.416 183.768 95.6C182.37 96.7733 180.866 97.8187 179.256 98.736C177.645 99.6427 175.986 100.421 174.28 101.072C174.216 100.955 174.125 100.821 174.008 100.672C173.901 100.512 173.784 100.357 173.656 100.208C173.538 100.048 173.432 99.92 173.336 99.824C175.064 99.2373 176.722 98.512 178.312 97.648C179.901 96.784 181.362 95.792 182.696 94.672C184.029 93.552 185.176 92.3307 186.136 91.008ZM177.016 98.368H186.168V105.296H184.6V99.632H178.52V105.36H177.016V98.368ZM97.2801 120.768C97.2801 121.803 97.2108 122.731 97.0721 123.552C96.9334 124.363 96.6934 125.093 96.3521 125.744C96.0108 126.384 95.5361 126.96 94.9281 127.472C94.3201 127.973 93.5468 128.437 92.6081 128.864L91.2481 127.584C91.9948 127.307 92.6454 126.997 93.2001 126.656C93.7548 126.315 94.2134 125.899 94.5761 125.408C94.9388 124.907 95.2054 124.288 95.3761 123.552C95.5574 122.816 95.6481 121.92 95.6481 120.864V116.816C95.6481 116.496 95.6374 116.213 95.6161 115.968C95.6054 115.723 95.5894 115.541 95.5681 115.424H97.3761C97.3654 115.541 97.3441 115.723 97.3121 115.968C97.2908 116.213 97.2801 116.496 97.2801 116.816V120.768ZM91.5201 115.552C91.5094 115.659 91.4881 115.824 91.4561 116.048C91.4348 116.272 91.4241 116.533 91.4241 116.832V122.624C91.4241 122.837 91.4294 123.051 91.4401 123.264C91.4508 123.477 91.4614 123.664 91.4721 123.824C91.4828 123.984 91.4934 124.101 91.5041 124.176H89.7281C89.7388 124.101 89.7494 123.984 89.7601 123.824C89.7708 123.664 89.7814 123.483 89.7921 123.28C89.8028 123.067 89.8081 122.848 89.8081 122.624V116.832C89.8081 116.629 89.7974 116.416 89.7761 116.192C89.7654 115.968 89.7441 115.755 89.7121 115.552H91.5201ZM86.5761 118.544C86.6508 118.565 86.7681 118.587 86.9281 118.608C87.0988 118.619 87.2961 118.635 87.5201 118.656C87.7548 118.667 87.9948 118.672 88.2401 118.672H98.7841C99.1788 118.672 99.5041 118.661 99.7601 118.64C100.027 118.619 100.235 118.597 100.384 118.576V120.272C100.256 120.261 100.053 120.251 99.7761 120.24C99.5094 120.229 99.1841 120.224 98.8001 120.224H88.2401C87.9948 120.224 87.7601 120.229 87.5361 120.24C87.3121 120.24 87.1148 120.245 86.9441 120.256C86.7841 120.267 86.6614 120.277 86.5761 120.288V118.544ZM113.276 116.096C113.276 116.363 113.367 116.592 113.548 116.784C113.73 116.965 113.954 117.056 114.22 117.056C114.487 117.056 114.711 116.965 114.892 116.784C115.084 116.592 115.18 116.363 115.18 116.096C115.18 115.829 115.084 115.605 114.892 115.424C114.711 115.232 114.487 115.136 114.22 115.136C113.954 115.136 113.73 115.232 113.548 115.424C113.367 115.605 113.276 115.829 113.276 116.096ZM112.428 116.096C112.428 115.765 112.508 115.467 112.668 115.2C112.839 114.923 113.058 114.704 113.324 114.544C113.591 114.384 113.89 114.304 114.22 114.304C114.551 114.304 114.85 114.384 115.116 114.544C115.394 114.704 115.612 114.923 115.772 115.2C115.943 115.467 116.028 115.765 116.028 116.096C116.028 116.427 115.943 116.731 115.772 117.008C115.612 117.275 115.394 117.488 115.116 117.648C114.85 117.808 114.551 117.888 114.22 117.888C113.89 117.888 113.591 117.808 113.324 117.648C113.058 117.488 112.839 117.275 112.668 117.008C112.508 116.731 112.428 116.427 112.428 116.096ZM109.964 115.536C109.954 115.611 109.938 115.728 109.916 115.888C109.895 116.037 109.874 116.197 109.852 116.368C109.842 116.528 109.836 116.672 109.836 116.8C109.836 117.088 109.836 117.419 109.836 117.792C109.836 118.165 109.836 118.533 109.836 118.896C109.836 119.259 109.836 119.584 109.836 119.872C109.836 120.085 109.836 120.395 109.836 120.8C109.836 121.195 109.836 121.643 109.836 122.144C109.836 122.635 109.836 123.147 109.836 123.68C109.836 124.203 109.836 124.715 109.836 125.216C109.836 125.707 109.836 126.144 109.836 126.528C109.836 126.912 109.836 127.211 109.836 127.424C109.836 127.861 109.719 128.197 109.484 128.432C109.25 128.667 108.866 128.784 108.332 128.784C108.087 128.784 107.82 128.779 107.532 128.768C107.255 128.757 106.978 128.741 106.7 128.72C106.423 128.709 106.162 128.693 105.916 128.672L105.772 127.088C106.124 127.152 106.466 127.2 106.796 127.232C107.127 127.253 107.394 127.264 107.596 127.264C107.81 127.264 107.959 127.221 108.044 127.136C108.14 127.04 108.194 126.885 108.204 126.672C108.204 126.544 108.204 126.309 108.204 125.968C108.204 125.627 108.204 125.221 108.204 124.752C108.204 124.283 108.204 123.792 108.204 123.28C108.204 122.757 108.204 122.267 108.204 121.808C108.204 121.339 108.204 120.933 108.204 120.592C108.204 120.24 108.204 120 108.204 119.872C108.204 119.691 108.204 119.413 108.204 119.04C108.204 118.656 108.204 118.261 108.204 117.856C108.204 117.44 108.204 117.083 108.204 116.784C108.204 116.592 108.188 116.368 108.156 116.112C108.135 115.856 108.108 115.664 108.076 115.536H109.964ZM102.492 118.176C102.716 118.197 102.946 118.219 103.18 118.24C103.426 118.261 103.671 118.272 103.916 118.272C104.055 118.272 104.316 118.272 104.7 118.272C105.095 118.272 105.57 118.272 106.124 118.272C106.679 118.272 107.271 118.272 107.9 118.272C108.54 118.272 109.18 118.272 109.82 118.272C110.46 118.272 111.058 118.272 111.612 118.272C112.167 118.272 112.642 118.272 113.036 118.272C113.431 118.272 113.703 118.272 113.852 118.272C114.055 118.272 114.29 118.267 114.556 118.256C114.834 118.235 115.074 118.208 115.276 118.176V119.84C115.052 119.829 114.812 119.824 114.556 119.824C114.3 119.813 114.071 119.808 113.868 119.808C113.719 119.808 113.447 119.808 113.052 119.808C112.658 119.808 112.183 119.808 111.628 119.808C111.074 119.808 110.476 119.808 109.836 119.808C109.207 119.808 108.572 119.808 107.932 119.808C107.303 119.808 106.711 119.808 106.156 119.808C105.602 119.808 105.127 119.808 104.732 119.808C104.348 119.808 104.082 119.808 103.932 119.808C103.687 119.808 103.436 119.813 103.18 119.824C102.935 119.824 102.706 119.835 102.492 119.856V118.176ZM106.332 122.192C106.162 122.533 105.948 122.912 105.692 123.328C105.436 123.733 105.159 124.144 104.86 124.56C104.572 124.965 104.29 125.349 104.012 125.712C103.735 126.064 103.484 126.363 103.26 126.608L101.884 125.664C102.151 125.419 102.428 125.125 102.716 124.784C103.004 124.443 103.282 124.085 103.548 123.712C103.826 123.328 104.082 122.949 104.316 122.576C104.551 122.192 104.748 121.835 104.908 121.504L106.332 122.192ZM113.1 121.488C113.314 121.744 113.543 122.053 113.788 122.416C114.044 122.768 114.3 123.141 114.556 123.536C114.812 123.931 115.052 124.315 115.276 124.688C115.5 125.061 115.692 125.392 115.852 125.68L114.38 126.512C114.21 126.181 114.012 125.824 113.788 125.44C113.575 125.045 113.346 124.651 113.1 124.256C112.866 123.861 112.626 123.488 112.38 123.136C112.146 122.784 111.927 122.485 111.724 122.24L113.1 121.488ZM117.901 120.864C118.083 120.875 118.301 120.891 118.557 120.912C118.824 120.923 119.107 120.933 119.405 120.944C119.715 120.955 120.008 120.96 120.285 120.96C120.499 120.96 120.792 120.96 121.165 120.96C121.539 120.96 121.96 120.96 122.429 120.96C122.909 120.96 123.411 120.96 123.933 120.96C124.456 120.96 124.973 120.96 125.485 120.96C126.008 120.96 126.499 120.96 126.957 120.96C127.416 120.96 127.821 120.96 128.173 120.96C128.525 120.96 128.797 120.96 128.989 120.96C129.373 120.96 129.72 120.949 130.029 120.928C130.339 120.896 130.589 120.875 130.781 120.864V122.848C130.6 122.837 130.344 122.821 130.013 122.8C129.683 122.779 129.341 122.768 128.989 122.768C128.808 122.768 128.536 122.768 128.173 122.768C127.821 122.768 127.416 122.768 126.957 122.768C126.499 122.768 126.008 122.768 125.485 122.768C124.973 122.768 124.456 122.768 123.933 122.768C123.411 122.768 122.909 122.768 122.429 122.768C121.96 122.768 121.539 122.768 121.165 122.768C120.792 122.768 120.499 122.768 120.285 122.768C119.848 122.768 119.411 122.779 118.973 122.8C118.536 122.811 118.179 122.827 117.901 122.848V120.864ZM135.066 126.528C135.066 126.357 135.066 126.048 135.066 125.6C135.066 125.141 135.066 124.603 135.066 123.984C135.066 123.355 135.066 122.704 135.066 122.032C135.066 121.349 135.066 120.688 135.066 120.048C135.066 119.408 135.066 118.843 135.066 118.352C135.066 117.861 135.066 117.504 135.066 117.28C135.066 117.024 135.055 116.731 135.034 116.4C135.012 116.059 134.975 115.755 134.922 115.488H136.89C136.868 115.744 136.842 116.037 136.81 116.368C136.788 116.699 136.778 117.003 136.778 117.28C136.778 117.643 136.778 118.101 136.778 118.656C136.778 119.2 136.778 119.792 136.778 120.432C136.778 121.072 136.778 121.717 136.778 122.368C136.778 123.019 136.778 123.632 136.778 124.208C136.778 124.773 136.778 125.264 136.778 125.68C136.778 126.096 136.778 126.379 136.778 126.528C136.778 126.699 136.783 126.907 136.794 127.152C136.804 127.397 136.82 127.648 136.842 127.904C136.863 128.149 136.884 128.373 136.906 128.576H134.938C134.98 128.299 135.012 127.968 135.034 127.584C135.055 127.189 135.066 126.837 135.066 126.528ZM136.41 119.664C136.932 119.813 137.519 120 138.17 120.224C138.82 120.437 139.476 120.672 140.138 120.928C140.799 121.173 141.428 121.419 142.026 121.664C142.623 121.909 143.13 122.133 143.546 122.336L142.826 124.08C142.378 123.835 141.871 123.589 141.306 123.344C140.751 123.088 140.18 122.843 139.594 122.608C139.007 122.373 138.436 122.16 137.882 121.968C137.338 121.776 136.847 121.611 136.41 121.472V119.664ZM154.089 114.688H155.609V129.344H154.089V114.688ZM151.337 115.328L152.793 115.632C152.654 116.357 152.478 117.083 152.265 117.808C152.052 118.523 151.812 119.189 151.545 119.808C151.289 120.427 151.012 120.976 150.713 121.456C150.617 121.381 150.489 121.301 150.329 121.216C150.169 121.12 150.004 121.029 149.833 120.944C149.673 120.848 149.529 120.773 149.401 120.72C149.71 120.283 149.988 119.776 150.233 119.2C150.478 118.624 150.692 118.005 150.873 117.344C151.065 116.683 151.22 116.011 151.337 115.328ZM151.705 117.696H159.145V119.184H151.321L151.705 117.696ZM149.593 122.368H159.881V123.856H149.593V122.368ZM148.649 114.56L150.073 114.992C149.742 115.899 149.348 116.8 148.889 117.696C148.441 118.581 147.95 119.424 147.417 120.224C146.894 121.013 146.35 121.712 145.785 122.32C145.742 122.192 145.668 122.032 145.561 121.84C145.465 121.648 145.358 121.456 145.241 121.264C145.134 121.061 145.038 120.901 144.953 120.784C145.444 120.272 145.913 119.685 146.361 119.024C146.82 118.352 147.246 117.637 147.641 116.88C148.036 116.112 148.372 115.339 148.649 114.56ZM147.033 118.8L148.473 117.376L148.489 117.392V129.328H147.033V118.8ZM161.097 122.944H169.065V124.192H161.097V122.944ZM161.225 117.328H169.001V118.544H161.225V117.328ZM164.041 121.664L165.449 121.968C165.193 122.501 164.916 123.061 164.617 123.648C164.318 124.235 164.025 124.8 163.737 125.344C163.449 125.888 163.177 126.373 162.921 126.8L161.593 126.368C161.838 125.963 162.105 125.493 162.393 124.96C162.692 124.416 162.98 123.856 163.257 123.28C163.545 122.704 163.806 122.165 164.041 121.664ZM166.377 123.744L167.785 123.904C167.636 124.704 167.417 125.403 167.129 126C166.841 126.597 166.457 127.109 165.977 127.536C165.497 127.963 164.91 128.32 164.217 128.608C163.534 128.907 162.724 129.157 161.785 129.36C161.742 129.147 161.657 128.923 161.529 128.688C161.412 128.453 161.284 128.256 161.145 128.096C162.244 127.925 163.145 127.675 163.849 127.344C164.564 127.003 165.118 126.539 165.513 125.952C165.918 125.365 166.206 124.629 166.377 123.744ZM167.433 114.752L168.729 115.28C168.484 115.643 168.233 116.005 167.977 116.368C167.732 116.731 167.502 117.045 167.289 117.312L166.281 116.848C166.484 116.56 166.692 116.219 166.905 115.824C167.129 115.419 167.305 115.061 167.433 114.752ZM164.425 114.48H165.833V121.872H164.425V114.48ZM161.737 115.28L162.857 114.816C163.081 115.136 163.284 115.488 163.465 115.872C163.657 116.245 163.79 116.571 163.865 116.848L162.697 117.376C162.633 117.088 162.51 116.752 162.329 116.368C162.148 115.973 161.95 115.611 161.737 115.28ZM164.473 117.904L165.465 118.496C165.198 118.933 164.862 119.376 164.457 119.824C164.062 120.261 163.63 120.667 163.161 121.04C162.702 121.413 162.244 121.728 161.785 121.984C161.7 121.813 161.582 121.616 161.433 121.392C161.284 121.168 161.134 120.987 160.985 120.848C161.433 120.667 161.876 120.421 162.313 120.112C162.761 119.803 163.172 119.456 163.545 119.072C163.929 118.688 164.238 118.299 164.473 117.904ZM165.689 118.416C165.828 118.491 166.03 118.613 166.297 118.784C166.574 118.944 166.868 119.12 167.177 119.312C167.497 119.493 167.785 119.669 168.041 119.84C168.308 120 168.494 120.123 168.601 120.208L167.785 121.264C167.646 121.136 167.454 120.971 167.209 120.768C166.964 120.565 166.697 120.357 166.409 120.144C166.132 119.92 165.86 119.712 165.593 119.52C165.337 119.317 165.124 119.157 164.953 119.04L165.689 118.416ZM170.185 117.424H175.961V118.816H170.185V117.424ZM170.473 114.48L172.009 114.704C171.838 115.771 171.62 116.8 171.353 117.792C171.086 118.784 170.766 119.701 170.393 120.544C170.02 121.387 169.593 122.128 169.113 122.768C169.038 122.672 168.926 122.56 168.777 122.432C168.628 122.304 168.473 122.176 168.313 122.048C168.153 121.909 168.014 121.803 167.897 121.728C168.356 121.163 168.75 120.501 169.081 119.744C169.412 118.976 169.694 118.144 169.929 117.248C170.164 116.352 170.345 115.429 170.473 114.48ZM173.529 118.256L175.065 118.4C174.82 120.235 174.446 121.851 173.945 123.248C173.454 124.645 172.777 125.851 171.913 126.864C171.06 127.867 169.961 128.709 168.617 129.392C168.574 129.275 168.5 129.125 168.393 128.944C168.286 128.773 168.174 128.603 168.057 128.432C167.94 128.261 167.833 128.128 167.737 128.032C168.974 127.456 169.982 126.725 170.761 125.84C171.55 124.944 172.158 123.867 172.585 122.608C173.022 121.349 173.337 119.899 173.529 118.256ZM171.017 118.592C171.241 120.011 171.561 121.344 171.977 122.592C172.404 123.829 172.953 124.917 173.625 125.856C174.308 126.784 175.145 127.509 176.137 128.032C176.02 128.128 175.892 128.251 175.753 128.4C175.614 128.56 175.486 128.72 175.369 128.88C175.252 129.04 175.15 129.189 175.065 129.328C174.009 128.709 173.129 127.888 172.425 126.864C171.721 125.829 171.145 124.635 170.697 123.28C170.26 121.915 169.908 120.427 169.641 118.816L171.017 118.592ZM162.745 126.256L163.561 125.216C164.19 125.461 164.82 125.739 165.449 126.048C166.078 126.347 166.66 126.661 167.193 126.992C167.737 127.312 168.196 127.616 168.569 127.904L167.529 128.992C167.177 128.693 166.745 128.379 166.233 128.048C165.721 127.717 165.166 127.397 164.569 127.088C163.972 126.779 163.364 126.501 162.745 126.256Z" fill="white"/>
</svg>
