<svg width="263" height="134" viewBox="0 0 263 134" fill="none" xmlns="http://www.w3.org/2000/svg">
<path d="M15.77 67.7447C15.5 68.611 15.33 69.5843 15.28 70.6063C17.26 71.5213 18.8 71.3655 20.01 70.7718C20.67 70.4993 21.16 70.071 21.66 69.5843C22.16 69.0976 22.59 68.5039 23.03 67.9102C23.47 67.3164 23.85 66.6643 24.24 66.0705C24.4 65.7493 24.62 65.4184 24.84 65.0972C24.89 64.9901 25 64.8246 25.11 64.6689C25.22 64.5132 25.33 64.3964 25.38 64.2406C26.2 63.1018 27.03 62.1285 27.96 61.7002C26.75 60.941 25.49 60.5127 24.11 60.5127C23.45 60.5127 22.74 60.6198 22.08 60.7852C21.42 60.9994 20.76 61.3303 20.1 61.7002C19.44 62.0798 18.89 62.5665 18.34 63.1602C17.74 63.754 17.24 64.4548 16.8 65.214C16.58 65.5936 16.42 66.0219 16.2 66.4015C16.04 66.8297 15.87 67.2677 15.76 67.7544L15.77 67.7447Z" fill="#C7A02E"/>
<path d="M21.04 58.3908C21.7 58.2838 22.3 58.0112 22.85 57.69C23.18 57.4759 23.4 57.3104 23.67 57.0963C24 56.8821 24.27 56.668 24.49 56.4441C24.76 56.23 25.04 55.9574 25.31 55.7433C25.58 55.4708 25.86 55.1982 26.08 54.9841C26.35 54.7116 26.57 54.4974 26.85 54.2249C27.12 54.0107 27.4 53.7966 27.62 53.5727C28.11 53.0861 28.66 52.7065 29.16 52.3853C29.43 52.2198 29.65 52.1127 29.87 51.957C30.14 51.8499 30.42 51.7915 30.64 51.7428C29.71 50.7695 28.61 50.0687 27.34 49.7961C26.08 49.4749 24.7 49.5236 23.38 49.9616C22.67 50.1757 21.95 50.5067 21.35 50.935C20.69 51.3632 20.03 51.8499 19.48 52.5021C19.15 52.7746 18.88 53.0958 18.6 53.4754C18.33 53.7966 18.11 54.1762 17.89 54.5558C17.4 55.315 17.01 56.1813 16.74 57.0963C18.33 58.4492 19.76 58.6634 21.03 58.3908H21.04Z" fill="#C7A02E"/>
<path d="M53.09 11.6992C53.53 11.485 54.02 11.1054 54.41 10.6188C54.79 10.0737 55.18 9.47993 55.45 8.73046C55.72 8.02964 55.94 7.22176 56.11 6.35548C56.22 5.92721 56.27 5.4892 56.33 5.06093C56.38 4.68132 56.44 4.30171 56.49 3.92211C56.71 2.41341 56.87 1.06046 57.2 0.194175C56.16 -0.185431 55.17 0.0287056 54.34 0.515381C53.9 0.787919 53.52 1.10912 53.19 1.5374C52.81 1.917 52.53 2.40368 52.2 2.93902C51.87 3.4257 51.65 4.01944 51.38 4.61318C51.27 4.93439 51.16 5.26533 51.05 5.58653C50.94 5.90774 50.83 6.23868 50.78 6.55988C50.34 7.96151 50.07 9.37287 49.74 10.94C50.4 11.3682 51 11.6992 51.55 11.8549C52.1 11.962 52.59 11.9133 53.09 11.6894V11.6992Z" fill="#C7A02E"/>
<path d="M31.98 115.624C30.11 114.057 28.13 112.762 26.21 111.73C24.23 110.708 22.25 109.998 20.38 109.57C19.45 109.404 18.57 109.297 17.69 109.297C16.87 109.297 16.04 109.404 15.27 109.618C13.79 110.105 12.52 111.078 11.81 112.645C13.29 113.132 15 114.271 16.92 115.507C17.41 115.828 17.91 116.159 18.4 116.422C18.89 116.743 19.39 117.074 19.94 117.337C20.93 117.931 21.97 118.417 22.96 118.846C24 119.274 24.99 119.605 25.93 119.761C26.86 119.926 27.74 119.868 28.51 119.653C30.1 119.225 31.26 117.979 31.97 115.604L31.98 115.624Z" fill="#C7A02E"/>
<path d="M39.84 124.968C39.24 124.91 38.69 124.861 38.14 124.802C37.1 124.744 36.05 124.744 35.06 124.861C33.08 125.026 31.27 125.513 29.95 126.428C28.58 127.294 27.64 128.647 27.42 130.428C28.24 130.487 29.18 130.643 30.17 130.915C31.21 131.129 32.31 131.46 33.47 131.781C35.78 132.434 38.25 133.134 40.56 133.348C41.11 133.407 41.66 133.456 42.21 133.456C42.76 133.456 43.25 133.397 43.75 133.348C44.74 133.183 45.62 132.969 46.33 132.482C47.81 131.567 48.58 129.942 48.53 127.401C46.17 126.379 43.8 125.669 41.49 125.24C40.94 125.133 40.39 125.026 39.84 124.968Z" fill="#C7A02E"/>
<path d="M43.14 120.004C41.6 119.031 40.17 118.008 38.74 116.928C38.03 116.393 37.31 115.848 36.65 115.254C35.94 114.66 35.28 114.115 34.62 113.473C31.98 111.098 29.51 108.499 27.31 105.637C25.11 102.824 23.13 99.8555 21.48 96.7213L20.82 95.5338L20.27 94.2879L19.94 93.6942L19.67 93.1005L19.18 91.8546C18.47 90.2291 17.81 88.5549 17.31 86.8808C16.76 85.1482 16.32 83.4254 15.88 81.6928C15.72 80.8265 15.5 79.9602 15.39 79.1037L15.17 77.7507L15.01 76.4562L14.9 75.7554L14.85 75.1032L14.74 73.7503L14.68 72.4557C14.63 71.969 14.63 71.5408 14.63 71.1028L14.58 69.7498C14.58 69.3215 14.63 68.8835 14.63 68.4552C14.63 67.5403 14.68 66.674 14.74 65.7493C15.01 62.1869 15.62 58.6731 16.61 55.2079C17.6 51.8012 18.92 48.4529 20.57 45.2116C22.22 42.0191 24.2 39.0017 26.45 36.1887L26.83 35.6436L27.27 35.0985L28.15 34.0765C28.75 33.4244 29.36 32.7236 29.96 32.0811C30.62 31.429 31.22 30.7866 31.88 30.1344L32.87 29.2195C33.2 28.8983 33.53 28.5674 33.86 28.3046C36.55 25.8225 39.52 23.7687 42.38 21.4424C43.04 20.8487 43.75 20.2549 44.41 19.6028C45.07 18.9507 45.67 18.2498 46.22 17.549C46.77 16.7898 47.32 16.0403 47.7 15.2227C48.14 14.4148 48.47 13.5486 48.74 12.6823C48.96 11.816 49.12 10.9011 49.18 10.0348C49.18 9.5481 49.23 9.11982 49.23 8.68182V7.981L49.18 7.28019C49.07 5.49896 48.69 3.71773 48.19 1.98517C48.63 3.71773 48.96 5.49896 49.07 7.33859L49.12 7.99074V8.64288C49.12 9.12956 49.07 9.55783 49.01 9.99584C48.96 10.9108 48.79 11.7771 48.52 12.6434C48.25 13.5096 47.92 14.3759 47.48 15.1254C47.04 15.9333 46.55 16.6925 46 17.3933C45.45 18.0941 44.79 18.7463 44.13 19.34C43.53 19.9921 42.81 20.5859 42.1 21.1212C39.3 23.3891 36.22 25.4429 33.47 27.8763C33.09 28.1488 32.76 28.47 32.43 28.7912L31.44 29.7062C30.73 30.2999 30.12 30.9521 29.46 31.5945C28.8 32.2953 28.2 32.9474 27.59 33.5898L26.66 34.6703L26.22 35.1569L25.78 35.702C23.47 38.515 21.44 41.5908 19.68 44.7834C17.98 48.0246 16.55 51.4313 15.45 54.8867C14.41 58.4005 13.69 62.0214 13.36 65.6423C13.31 66.5572 13.2 67.4819 13.2 68.3968C13.2 68.8251 13.15 69.3118 13.15 69.7498V72.5044L13.2 73.8573L13.31 75.259L13.36 75.9111L13.47 76.6119L13.58 77.9649C13.63 78.3931 13.74 78.8798 13.8 79.3178C13.91 80.2328 14.13 81.1575 14.29 82.0237C14.62 83.805 15.06 85.5862 15.61 87.3772C16.1 89.1584 16.76 90.8326 17.42 92.5651L17.97 93.8597L18.24 94.4534L18.51 95.1056L19.11 96.3514L19.71 97.5973C21.36 100.897 23.34 103.973 25.59 106.951C27.79 109.92 30.26 112.684 33.01 115.215C33.67 115.867 34.38 116.461 35.04 117.055C35.75 117.648 36.47 118.242 37.18 118.836C38.66 119.975 40.15 121.104 41.69 122.135C44.82 124.189 48.07 126.029 51.47 127.538C58.34 130.565 65.65 132.56 73.07 133.426L73.4 130.351C66.25 129.65 59.22 127.869 52.62 125.056C49.32 123.654 46.13 121.921 43.11 120.033L43.14 120.004Z" fill="#C7A02E"/>
<path d="M16.43 104.06C18.02 104.06 19.45 103.194 20.77 101.199C19.45 99.252 17.97 97.5779 16.43 96.1762C14.89 94.7162 13.3 93.5287 11.65 92.7208C10.06 91.8546 8.41002 91.3679 6.92002 91.4263C5.44002 91.4847 4.01002 92.02 2.96002 93.3146C3.56002 93.6942 4.17002 94.2879 4.83002 94.9887C5.49002 95.6896 6.15002 96.4488 6.86002 97.2567C7.63002 98.0645 8.34002 98.9308 9.11002 99.69C9.55002 100.118 9.93002 100.498 10.32 100.878C10.7 101.257 11.14 101.578 11.53 101.9C12.35 102.552 13.23 103.087 14 103.467C14.82 103.846 15.65 104.06 16.42 104.06H16.43Z" fill="#C7A02E"/>
<path d="M8.40001 52.7162C8.51001 53.0958 8.62001 53.5241 8.78001 53.855C9.05001 54.6142 9.38001 55.208 9.88001 55.6947C10.87 56.668 12.24 56.9892 14.33 56.5025C14.55 55.5292 14.66 54.5558 14.71 53.5825C14.76 53.1542 14.76 52.6675 14.82 52.1809V50.8279C14.76 49.913 14.71 49.0467 14.55 48.2388C14.39 47.3725 14.22 46.5646 14 45.8638C13.51 44.3551 12.79 43.1092 11.8 42.243C10.87 41.3767 9.66001 40.89 8.17001 40.9971C8.22001 41.3183 8.28001 41.6492 8.28001 41.9704C8.28001 42.35 8.33001 42.7296 8.28001 43.1579C8.28001 43.9658 8.23001 44.8321 8.17001 45.8054C8.17001 46.2337 8.12001 46.7204 8.12001 47.207C8.07001 47.6937 8.07001 48.1804 8.07001 48.6087V50.0687C8.12001 50.497 8.12001 50.9836 8.18001 51.4216C8.23001 51.8499 8.34001 52.2879 8.40001 52.7162Z" fill="#C7A02E"/>
<path d="M3.51002 61.963C3.56002 62.2355 3.62002 62.5081 3.62002 62.7222C3.73002 63.2089 3.84002 63.6956 4.00002 64.1822C4.22002 65.2043 4.55002 66.1289 4.82002 67.0439C5.20002 67.9102 5.59002 68.718 6.08002 69.3702C6.52002 70.0223 7.07002 70.5577 7.73002 70.9373C8.94002 71.6381 10.48 71.6381 12.4 70.6161C12.35 69.5941 12.24 68.5623 12.07 67.5403C11.96 67.0536 11.91 66.5669 11.74 66.0803C11.63 65.652 11.52 65.1653 11.41 64.7273C11.14 63.8124 10.81 62.8877 10.48 62.0798C10.1 61.2719 9.66002 60.5127 9.27002 59.8119C8.83002 59.1111 8.34002 58.5173 7.79002 57.9723C7.24002 57.4272 6.69002 56.9989 6.09002 56.6777C4.94002 56.0256 3.56002 55.8698 2.08002 56.4052C2.68002 57.544 2.96002 59.3252 3.34002 61.2719C3.39002 61.4861 3.45002 61.7586 3.50002 61.9727L3.51002 61.963Z" fill="#C7A02E"/>
<path d="M3.29 80.1744C3.56 80.661 3.78 81.1477 4.06 81.576C4.55 82.4909 5.1 83.4156 5.71 84.2235C6.31 84.9827 6.92 85.6835 7.58 86.2773C8.29 86.8223 8.95 87.1922 9.67 87.4161C11.1 87.7957 12.64 87.3577 14.4 85.7906C13.63 83.6784 12.75 81.7901 11.71 80.0575C11.22 79.1913 10.61 78.4321 10.06 77.6826C9.46 76.9818 8.85 76.2809 8.19 75.7359C7.59 75.1421 6.87 74.6555 6.21 74.2272C5.55 73.8476 4.84 73.5264 4.18 73.3609C2.75 73.0397 1.32 73.1954 0 74.1201C0.44 74.6652 0.88 75.366 1.32 76.1739C1.7 76.9331 2.14 77.848 2.64 78.763C2.75 78.9771 2.86 79.2497 2.97 79.4638C3.08 79.6779 3.19 79.9505 3.3 80.1646L3.29 80.1744Z" fill="#C7A02E"/>
<path d="M22.36 83.951C22.91 83.4643 23.35 82.8706 23.68 82.2768C24.06 81.6247 24.34 80.9238 24.61 80.223C24.83 79.5222 25.1 78.763 25.32 78.0038C25.43 77.6242 25.54 77.303 25.65 76.9234C25.7 76.7579 25.76 76.5438 25.81 76.3783C25.86 76.2128 25.92 75.9987 25.97 75.8332C26.24 75.1811 26.52 74.5387 26.85 73.9936C27.12 73.3999 27.45 72.9619 27.89 72.592C26.46 72.1637 25.03 72.1053 23.66 72.4265C23 72.592 22.34 72.8548 21.68 73.2344C21.08 73.614 20.47 74.1007 19.98 74.6944C19.43 75.2395 18.94 75.8819 18.55 76.6411C18.11 77.4003 17.84 78.2082 17.56 79.0745C17.12 80.8557 17.07 82.9095 17.51 84.9633C19.76 85.3429 21.25 84.8562 22.35 83.9412L22.36 83.951Z" fill="#C7A02E"/>
<path d="M41.66 35.6923C40.89 33.4244 38.86 31.9644 36.22 31.6918C34.96 31.6334 33.47 31.8573 32.04 32.3926C31.66 32.5581 31.33 32.7138 30.94 32.9377C30.61 33.1032 30.28 33.3173 29.9 33.5315C29.57 33.804 29.24 34.0181 28.91 34.2907C28.58 34.6119 28.25 34.8844 27.98 35.2056C28.75 36.8798 29.79 37.6877 30.95 37.9602C31.5 38.0673 32.1 38.0673 32.71 38.0186C33.31 37.9115 33.97 37.8045 34.58 37.5903C37.11 36.8311 39.8 35.4295 41.67 35.702L41.66 35.6923Z" fill="#C7A02E"/>
<path d="M35.01 112.49C37.37 111.623 38.47 110.27 38.91 108.81C39.18 108.11 39.24 107.35 39.24 106.542C39.19 105.783 39.08 104.975 38.91 104.167C38.75 103.36 38.53 102.542 38.31 101.685C38.2 101.306 38.09 100.926 38.04 100.498C37.93 100.118 37.82 99.69 37.77 99.3104C37.44 97.8017 37.33 96.3417 37.66 95.2613C36.07 95.6409 34.69 96.4001 33.65 97.4805C33.16 98.0256 32.66 98.6193 32.33 99.3202C31.95 100.021 31.62 100.78 31.51 101.646C31.13 103.272 31.18 105.16 31.78 107.049C32.38 108.937 33.43 110.835 35.02 112.509L35.01 112.49Z" fill="#C7A02E"/>
<path d="M46.05 29.3168C47.48 28.8885 48.85 28.4019 49.95 28.2948C49.9 27.7011 49.68 27.156 49.35 26.7277C49.02 26.241 48.64 25.9198 48.14 25.6473C47.15 25.0535 45.94 24.781 44.57 24.7323C43.25 24.6253 41.82 24.7907 40.34 25.1606C38.91 25.5402 37.43 26.1826 36.05 27.156C36.49 28.8301 37.37 29.7451 38.36 30.1831C39.4 30.6114 40.56 30.6114 41.88 30.3972C43.2 30.1831 44.63 29.7451 46.06 29.3168H46.05Z" fill="#C7A02E"/>
<path d="M15.38 42.4473C16.09 43.5277 17.3 44.1799 19.28 44.1799C19.72 43.3136 20.05 42.4473 20.32 41.5908C20.48 41.1625 20.59 40.7245 20.7 40.2962C20.81 39.8679 20.92 39.4883 21.03 39.0503C21.19 38.184 21.3 37.3762 21.36 36.5683C21.41 35.8091 21.36 35.0012 21.31 34.3004C21.04 31.3803 19.66 29.054 16.91 28.6841C16.91 29.2779 16.8 29.93 16.58 30.6795C16.42 31.3803 16.2 32.1882 15.98 33.0545C15.71 33.8624 15.49 34.7286 15.27 35.5949C15.05 36.4612 14.89 37.3762 14.78 38.184C14.73 38.6123 14.73 38.9919 14.73 39.4299C14.73 39.8095 14.73 40.1891 14.78 40.5687C14.84 41.2696 15.05 41.9217 15.38 42.457V42.4473Z" fill="#C7A02E"/>
<path d="M29.01 39.9653C28.3 40.0237 27.64 40.1794 26.92 40.452C26.21 40.6661 25.49 41.0457 24.83 41.474C24.5 41.6881 24.17 41.9607 23.84 42.2332C23.51 42.5057 23.18 42.7783 22.91 43.0995C22.25 43.6932 21.76 44.394 21.26 45.2117C22.41 46.7788 23.73 47.3238 24.94 47.3725C25.54 47.3725 26.15 47.2654 26.81 47.1C27.08 46.9929 27.41 46.8274 27.69 46.7203C28.02 46.5549 28.29 46.4478 28.62 46.2921C30.98 44.9975 33.46 43.1579 35.38 43.0508C34.12 40.8316 31.75 39.7025 29 39.975L29.01 39.9653Z" fill="#C7A02E"/>
<path d="M28.57 96.9744C29.01 96.3806 29.23 95.6798 29.45 94.9206C29.61 94.2198 29.72 93.4119 29.78 92.6527C29.83 92.2244 29.83 91.8448 29.83 91.4068C29.89 91.0272 29.89 90.5989 29.89 90.2193C29.89 89.4115 29.94 88.5938 30 87.8444C30.05 87.0851 30.16 86.3843 30.27 85.7322C30.43 85.08 30.65 84.4863 30.98 84.058C29.39 83.9996 27.96 84.3306 26.69 85.0314C25.43 85.7906 24.33 86.871 23.56 88.331C22.85 89.7911 22.41 91.5236 22.41 93.4119C22.46 95.3586 22.96 97.354 24 99.3007C26.36 99.0866 27.74 98.1619 28.56 96.9744H28.57Z" fill="#C7A02E"/>
<path d="M41.44 13.5973C41.39 14.0839 41.33 14.5706 41.33 14.9989C41.33 15.4856 41.33 15.9722 41.44 16.5076C41.55 17.4809 42.15 18.4543 43.53 19.048C44.13 18.5029 44.63 17.8605 45.01 17.2084C45.39 16.5562 45.72 15.9138 45.89 15.2617C46.27 13.9671 46.16 12.7796 45.72 11.8063C45.61 11.5922 45.5 11.378 45.34 11.1541C45.23 10.9887 45.07 10.7745 44.85 10.6091C44.52 10.2879 44.14 10.0153 43.7 9.80119C42.88 9.42159 41.89 9.25612 40.9 9.14905C41.34 9.57732 41.56 10.2295 41.61 11.0373C41.66 11.7966 41.55 12.6628 41.44 13.5778V13.5973Z" fill="#C7A02E"/>
<path d="M34.95 25.8614C36.21 24.6739 37.26 23.428 38.03 22.1335C38.74 20.8876 39.18 19.5444 39.24 18.3472C39.35 17.1013 39.02 16.0208 38.47 15.1059C38.2 14.6192 37.87 14.1909 37.48 13.86C37.1 13.4804 36.66 13.1592 36.16 12.8867C36.21 13.6459 35.83 14.6192 35.23 15.7483C34.63 16.8287 33.8 18.1233 33.2 19.3692C32.54 20.6637 32.16 21.9096 32.32 23.0484C32.54 24.1873 33.31 25.1022 34.96 25.8614H34.95Z" fill="#C7A02E"/>
<path d="M26.49 34.0181C26.76 33.6385 27.04 33.2589 27.26 32.8793C27.53 32.4997 27.75 32.1785 27.97 31.7989C28.19 31.4193 28.35 31.0397 28.52 30.6601C28.74 30.2805 28.9 29.9009 29.07 29.5212C29.67 28.0126 30.06 26.6012 30.17 25.1996C30.44 22.445 29.57 20.0116 27.09 19.2037C26.65 21.3159 24.4 24.5572 23.41 27.5259C23.19 28.2851 23.03 29.0346 22.97 29.6867C22.92 30.3875 22.97 31.0397 23.19 31.575C23.63 32.7138 24.62 33.5217 26.49 34.0084V34.0181Z" fill="#C7A02E"/>
<path d="M55.4 13.3734C54.91 13.4318 54.36 13.5875 53.81 13.8016C53.54 13.9087 53.26 14.0742 52.93 14.1812C52.66 14.3467 52.38 14.5024 52.11 14.7263C50.96 15.4271 49.75 16.2934 48.48 17.2084C47.88 17.695 47.22 18.1817 46.56 18.6684C45.96 19.1551 45.3 19.6417 44.64 20.1771C45.13 21.8026 45.9 22.6591 47 22.9317C47.55 23.0387 48.21 22.9901 48.87 22.8246C49.58 22.6105 50.3 22.2795 51.07 21.8512C52.55 20.985 54.04 19.632 55.25 18.2304C56.51 16.8288 57.45 15.4174 58.27 14.5511C57.5 13.5291 56.46 13.1982 55.41 13.3636L55.4 13.3734Z" fill="#C7A02E"/>
<path d="M52.05 113.405C51.23 111.896 50.24 110.377 49.47 108.976C49.09 108.217 48.7 107.574 48.48 106.864C48.26 106.211 48.1 105.569 48.1 104.975C46.67 105.783 45.57 106.971 44.8 108.382C44.09 109.784 43.76 111.409 43.92 113.142C43.97 114.008 44.19 114.923 44.52 115.789C44.68 116.276 44.9 116.704 45.12 117.142C45.34 117.57 45.61 118.009 45.89 118.437C47.04 120.169 48.75 121.736 50.78 122.924C52.81 121.298 53.53 119.624 53.53 118.057C53.53 117.249 53.37 116.49 53.15 115.682C52.99 115.303 52.82 114.923 52.66 114.543C52.5 114.164 52.28 113.784 52.06 113.405H52.05Z" fill="#C7A02E"/>
<path d="M42.87 3.60095L42.92 3.81508L42.97 3.92215C43.02 4.13629 43.08 4.30176 43.19 4.51589C43.3 4.8955 43.46 5.32378 43.57 5.70338C43.73 6.13166 43.9 6.56966 44.06 6.94927C44.28 7.37754 44.44 7.81555 44.77 8.19516C45.04 8.57476 45.43 8.89597 45.92 9.21718C46.41 9.48971 47.02 9.70385 47.79 9.76225C48.39 8.4677 48.56 7.05634 48.34 5.86885C48.29 5.59631 48.23 5.32377 48.12 5.06097C48.01 4.73976 47.9 4.46723 47.79 4.25309C47.57 3.70801 47.24 3.23107 46.91 2.85147C46.58 2.47186 46.14 2.09225 45.76 1.82945C45.32 1.55691 44.88 1.34277 44.44 1.1773C43.51 0.904766 42.52 0.904766 41.53 1.1773C42.08 1.66398 42.41 2.47186 42.74 3.28947C42.74 3.39654 42.79 3.50361 42.85 3.61068L42.87 3.60095Z" fill="#C7A02E"/>
<path d="M246.71 67.7447C246.98 68.611 247.15 69.5843 247.2 70.6063C245.22 71.5213 243.68 71.3655 242.47 70.7718C241.81 70.4993 241.32 70.071 240.82 69.5843C240.32 69.0976 239.89 68.5039 239.45 67.9102C239.01 67.3164 238.63 66.6643 238.24 66.0705C238.08 65.7493 237.86 65.4184 237.64 65.0972C237.59 64.9901 237.48 64.8246 237.37 64.6689C237.26 64.5132 237.15 64.3964 237.1 64.2406C236.28 63.1018 235.45 62.1285 234.52 61.7002C235.73 60.941 236.99 60.5127 238.37 60.5127C239.03 60.5127 239.74 60.6198 240.4 60.7852C241.06 60.9994 241.72 61.3303 242.38 61.7002C243.04 62.0798 243.59 62.5665 244.14 63.1602C244.74 63.754 245.24 64.4548 245.68 65.214C245.9 65.5936 246.06 66.0219 246.28 66.4015C246.44 66.8297 246.61 67.2677 246.72 67.7544L246.71 67.7447Z" fill="#C7A02E"/>
<path d="M241.44 58.3908C240.78 58.2838 240.18 58.0112 239.63 57.69C239.3 57.4759 239.08 57.3104 238.81 57.0963C238.48 56.8821 238.21 56.668 237.99 56.4441C237.72 56.23 237.44 55.9574 237.17 55.7433C236.9 55.4708 236.62 55.1982 236.4 54.9841C236.13 54.7116 235.91 54.4974 235.63 54.2249C235.36 54.0107 235.08 53.7966 234.86 53.5727C234.37 53.0861 233.82 52.7065 233.32 52.3853C233.05 52.2198 232.83 52.1127 232.61 51.957C232.34 51.8499 232.06 51.7915 231.84 51.7428C232.77 50.7695 233.87 50.0687 235.14 49.7961C236.4 49.4749 237.78 49.5236 239.1 49.9616C239.81 50.1757 240.53 50.5067 241.13 50.935C241.79 51.3632 242.45 51.8499 243 52.5021C243.33 52.7746 243.6 53.0958 243.88 53.4754C244.15 53.7966 244.37 54.1762 244.59 54.5558C245.08 55.315 245.47 56.1813 245.74 57.0963C244.15 58.4492 242.72 58.6634 241.45 58.3908H241.44Z" fill="#C7A02E"/>
<path d="M209.39 11.6992C208.95 11.485 208.46 11.1054 208.07 10.6188C207.69 10.0737 207.3 9.47993 207.03 8.73046C206.76 8.02964 206.54 7.22176 206.37 6.35548C206.26 5.92721 206.21 5.4892 206.15 5.06093C206.1 4.68132 206.04 4.30171 205.99 3.92211C205.77 2.41341 205.61 1.06046 205.28 0.194175C206.32 -0.185431 207.31 0.0287056 208.14 0.515381C208.58 0.787919 208.96 1.10912 209.29 1.5374C209.67 1.917 209.95 2.40368 210.28 2.93902C210.61 3.4257 210.83 4.01944 211.1 4.61318C211.21 4.93439 211.32 5.26533 211.43 5.58653C211.54 5.90774 211.65 6.23868 211.7 6.55988C212.14 7.96151 212.41 9.37287 212.74 10.94C212.08 11.3682 211.48 11.6992 210.93 11.8549C210.38 11.962 209.89 11.9133 209.39 11.6894V11.6992Z" fill="#C7A02E"/>
<path d="M230.5 115.624C232.37 114.057 234.35 112.762 236.27 111.73C238.25 110.708 240.23 109.998 242.1 109.57C243.03 109.404 243.91 109.297 244.79 109.297C245.61 109.297 246.44 109.404 247.21 109.618C248.69 110.105 249.96 111.078 250.67 112.645C249.19 113.132 247.48 114.271 245.56 115.507C245.07 115.828 244.57 116.159 244.08 116.422C243.59 116.743 243.09 117.074 242.54 117.337C241.55 117.931 240.51 118.417 239.52 118.846C238.48 119.274 237.49 119.605 236.55 119.761C235.62 119.926 234.74 119.868 233.97 119.653C232.38 119.225 231.22 117.979 230.51 115.604L230.5 115.624Z" fill="#C7A02E"/>
<path d="M222.64 124.968C223.24 124.91 223.79 124.861 224.34 124.802C225.38 124.744 226.43 124.744 227.42 124.861C229.4 125.026 231.21 125.513 232.53 126.428C233.9 127.294 234.84 128.647 235.06 130.428C234.24 130.487 233.3 130.643 232.31 130.915C231.27 131.129 230.17 131.46 229.01 131.781C226.7 132.434 224.23 133.134 221.92 133.348C221.37 133.407 220.82 133.456 220.27 133.456C219.72 133.456 219.23 133.397 218.73 133.348C217.74 133.183 216.86 132.969 216.15 132.482C214.67 131.567 213.9 129.942 213.95 127.401C216.31 126.379 218.68 125.669 220.99 125.24C221.54 125.133 222.09 125.026 222.64 124.968Z" fill="#C7A02E"/>
<path d="M219.34 120.004C220.88 119.031 222.31 118.008 223.74 116.928C224.45 116.393 225.17 115.848 225.83 115.254C226.54 114.66 227.2 114.115 227.86 113.473C230.5 111.098 232.97 108.499 235.17 105.637C237.37 102.824 239.35 99.8555 241 96.7213L241.66 95.5338L242.21 94.2879L242.54 93.6942L242.81 93.1005L243.3 91.8546C244.01 90.2291 244.67 88.5549 245.17 86.8808C245.72 85.1482 246.16 83.4254 246.6 81.6928C246.76 80.8265 246.98 79.9602 247.09 79.1037L247.31 77.7507L247.47 76.4562L247.58 75.7554L247.63 75.1032L247.74 73.7503L247.8 72.4557C247.85 71.969 247.85 71.5408 247.85 71.1028L247.9 69.7498C247.9 69.3215 247.85 68.8835 247.85 68.4552C247.85 67.5403 247.8 66.674 247.74 65.7493C247.47 62.1869 246.86 58.6731 245.87 55.2079C244.88 51.8012 243.56 48.4529 241.91 45.2116C240.26 42.0191 238.28 39.0017 236.03 36.1887L235.65 35.6436L235.21 35.0985L234.33 34.0765C233.73 33.4244 233.12 32.7236 232.52 32.0811C231.86 31.429 231.26 30.7866 230.6 30.1344L229.61 29.2195C229.28 28.8983 228.95 28.5674 228.62 28.3046C225.93 25.8225 222.96 23.7687 220.1 21.4424C219.44 20.8487 218.73 20.2549 218.07 19.6028C217.41 18.9507 216.81 18.2498 216.26 17.549C215.71 16.7898 215.16 16.0403 214.78 15.2227C214.34 14.4148 214.01 13.5486 213.74 12.6823C213.52 11.816 213.36 10.9011 213.3 10.0348C213.3 9.5481 213.25 9.11982 213.25 8.68182V7.981L213.3 7.28019C213.41 5.49896 213.79 3.71773 214.29 1.98517C213.85 3.71773 213.52 5.49896 213.41 7.33859L213.36 7.99074V8.64288C213.36 9.12956 213.41 9.55783 213.47 9.99584C213.52 10.9108 213.69 11.7771 213.96 12.6434C214.23 13.5096 214.56 14.3759 215 15.1254C215.44 15.9333 215.93 16.6925 216.48 17.3933C217.03 18.0941 217.69 18.7463 218.35 19.34C218.95 19.9921 219.67 20.5859 220.38 21.1212C223.18 23.3891 226.26 25.4429 229.01 27.8763C229.39 28.1488 229.72 28.47 230.05 28.7912L231.04 29.7062C231.75 30.2999 232.36 30.9521 233.02 31.5945C233.68 32.2953 234.28 32.9474 234.89 33.5898L235.82 34.6703L236.26 35.1569L236.7 35.702C239.01 38.515 241.04 41.5908 242.8 44.7834C244.5 48.0246 245.93 51.4313 247.03 54.8867C248.07 58.4005 248.79 62.0214 249.12 65.6423C249.17 66.5572 249.28 67.4819 249.28 68.3968C249.28 68.8251 249.33 69.3118 249.33 69.7498V71.1028C249.33 71.5894 249.33 72.0177 249.33 72.5044L249.28 73.8573L249.17 75.259L249.12 75.9111L249.01 76.6119L248.9 77.9649C248.85 78.3931 248.74 78.8798 248.68 79.3178C248.57 80.2328 248.35 81.1575 248.19 82.0237C247.86 83.805 247.42 85.5862 246.87 87.3772C246.38 89.1584 245.72 90.8326 245.06 92.5651L244.51 93.8597L244.24 94.4534L243.97 95.1056L243.37 96.3514L242.77 97.5973C241.12 100.897 239.14 103.973 236.89 106.951C234.69 109.92 232.22 112.684 229.47 115.215C228.81 115.867 228.1 116.461 227.44 117.055C226.73 117.648 226.01 118.242 225.3 118.836C223.82 119.975 222.33 121.104 220.79 122.135C217.66 124.189 214.41 126.029 211.01 127.538C204.14 130.565 196.83 132.56 189.41 133.426L189.08 130.351C196.23 129.65 203.26 127.869 209.86 125.056C213.16 123.654 216.35 121.921 219.37 120.033L219.34 120.004Z" fill="#C7A02E"/>
<path d="M246.05 104.06C244.46 104.06 243.03 103.194 241.71 101.199C243.03 99.252 244.51 97.5779 246.05 96.1762C247.59 94.7162 249.18 93.5287 250.83 92.7208C252.42 91.8546 254.07 91.3679 255.56 91.4263C257.04 91.4847 258.47 92.02 259.52 93.3146C258.92 93.6942 258.31 94.2879 257.65 94.9887C256.99 95.6896 256.33 96.4488 255.62 97.2567C254.85 98.0645 254.14 98.9308 253.37 99.69C252.93 100.118 252.55 100.498 252.16 100.878C251.78 101.257 251.34 101.578 250.95 101.9C250.13 102.552 249.25 103.087 248.48 103.467C247.66 103.846 246.83 104.06 246.06 104.06H246.05Z" fill="#C7A02E"/>
<path d="M254.08 52.7162C253.97 53.0958 253.86 53.5241 253.7 53.855C253.43 54.6142 253.1 55.208 252.6 55.6947C251.61 56.668 250.24 56.9892 248.15 56.5025C247.93 55.5292 247.82 54.5558 247.77 53.5825C247.72 53.1542 247.72 52.6675 247.66 52.1809V50.8279C247.72 49.913 247.77 49.0467 247.93 48.2388C248.09 47.3725 248.26 46.5646 248.48 45.8638C248.97 44.3551 249.69 43.1092 250.68 42.243C251.61 41.3767 252.82 40.89 254.31 40.9971C254.26 41.3183 254.2 41.6492 254.2 41.9704C254.2 42.35 254.15 42.7296 254.2 43.1579C254.2 43.9658 254.25 44.8321 254.31 45.8054C254.31 46.2337 254.36 46.7204 254.36 47.207C254.41 47.6937 254.41 48.1804 254.41 48.6087C254.41 49.0953 254.41 49.582 254.41 50.0687C254.36 50.497 254.36 50.9836 254.3 51.4216C254.25 51.8499 254.14 52.2879 254.08 52.7162Z" fill="#C7A02E"/>
<path d="M258.97 61.963C258.92 62.2355 258.86 62.5081 258.86 62.7222C258.75 63.2089 258.64 63.6956 258.48 64.1822C258.26 65.2043 257.93 66.1289 257.66 67.0439C257.28 67.9102 256.89 68.718 256.4 69.3702C255.96 70.0223 255.41 70.5577 254.75 70.9373C253.54 71.6381 252 71.6381 250.08 70.6161C250.13 69.5941 250.24 68.5623 250.41 67.5403C250.52 67.0536 250.57 66.5669 250.74 66.0803C250.85 65.652 250.96 65.1653 251.07 64.7273C251.34 63.8124 251.67 62.8877 252 62.0798C252.38 61.2719 252.82 60.5127 253.21 59.8119C253.65 59.1111 254.14 58.5173 254.69 57.9723C255.24 57.4272 255.79 56.9989 256.39 56.6777C257.54 56.0256 258.92 55.8698 260.4 56.4052C259.8 57.544 259.52 59.3252 259.14 61.2719C259.09 61.4861 259.03 61.7586 258.98 61.9727L258.97 61.963Z" fill="#C7A02E"/>
<path d="M259.19 80.1744C258.92 80.661 258.7 81.1477 258.42 81.576C257.93 82.4909 257.38 83.4156 256.77 84.2235C256.17 84.9827 255.56 85.6835 254.9 86.2773C254.19 86.8223 253.53 87.1922 252.81 87.4161C251.38 87.7957 249.84 87.3577 248.08 85.7906C248.85 83.6784 249.73 81.7901 250.77 80.0575C251.26 79.1913 251.87 78.4321 252.42 77.6826C253.02 76.9818 253.63 76.2809 254.29 75.7359C254.89 75.1421 255.61 74.6555 256.27 74.2272C256.93 73.8476 257.64 73.5264 258.3 73.3609C259.73 73.0397 261.16 73.1954 262.48 74.1201C262.04 74.6652 261.6 75.366 261.16 76.1739C260.78 76.9331 260.34 77.848 259.84 78.763C259.73 78.9771 259.62 79.2497 259.51 79.4638C259.4 79.6779 259.29 79.9505 259.18 80.1646L259.19 80.1744Z" fill="#C7A02E"/>
<path d="M240.12 83.951C239.57 83.4643 239.13 82.8706 238.8 82.2768C238.42 81.6247 238.14 80.9238 237.87 80.223C237.65 79.5222 237.38 78.763 237.16 78.0038C237.05 77.6242 236.94 77.303 236.83 76.9234C236.78 76.7579 236.72 76.5438 236.67 76.3783C236.62 76.2128 236.56 75.9987 236.51 75.8332C236.24 75.1811 235.96 74.5387 235.63 73.9936C235.36 73.3999 235.03 72.9619 234.59 72.592C236.02 72.1637 237.45 72.1053 238.82 72.4265C239.48 72.592 240.14 72.8548 240.8 73.2344C241.4 73.614 242.01 74.1007 242.5 74.6944C243.05 75.2395 243.54 75.8819 243.93 76.6411C244.37 77.4003 244.64 78.2082 244.92 79.0745C245.36 80.8557 245.41 82.9095 244.97 84.9633C242.72 85.3429 241.23 84.8562 240.13 83.9412L240.12 83.951Z" fill="#C7A02E"/>
<path d="M220.82 35.6923C221.59 33.4244 223.62 31.9644 226.26 31.6918C227.52 31.6334 229.01 31.8573 230.44 32.3926C230.82 32.5581 231.15 32.7138 231.54 32.9377C231.87 33.1032 232.2 33.3173 232.58 33.5315C232.91 33.804 233.24 34.0181 233.57 34.2907C233.9 34.6119 234.23 34.8844 234.5 35.2056C233.73 36.8798 232.69 37.6877 231.53 37.9602C230.98 38.0673 230.38 38.0673 229.77 38.0186C229.17 37.9115 228.51 37.8045 227.9 37.5903C225.37 36.8311 222.68 35.4295 220.81 35.702L220.82 35.6923Z" fill="#C7A02E"/>
<path d="M227.47 112.49C225.11 111.623 224.01 110.27 223.57 108.81C223.3 108.11 223.24 107.35 223.24 106.542C223.29 105.783 223.4 104.975 223.57 104.167C223.73 103.36 223.95 102.542 224.17 101.685C224.28 101.306 224.39 100.926 224.44 100.498C224.55 100.118 224.66 99.69 224.71 99.3104C225.04 97.8017 225.15 96.3417 224.82 95.2613C226.41 95.6409 227.79 96.4001 228.83 97.4805C229.32 98.0256 229.82 98.6193 230.15 99.3202C230.53 100.021 230.86 100.78 230.97 101.646C231.35 103.272 231.3 105.16 230.7 107.049C230.1 108.937 229.05 110.835 227.46 112.509L227.47 112.49Z" fill="#C7A02E"/>
<path d="M216.43 29.3168C215 28.8885 213.63 28.4019 212.53 28.2948C212.58 27.7011 212.8 27.156 213.13 26.7277C213.46 26.241 213.84 25.9198 214.34 25.6473C215.33 25.0535 216.54 24.781 217.91 24.7323C219.23 24.6253 220.66 24.7907 222.14 25.1606C223.57 25.5402 225.05 26.1826 226.43 27.156C225.99 28.8301 225.11 29.7451 224.12 30.1831C223.08 30.6114 221.92 30.6114 220.6 30.3972C219.28 30.1831 217.85 29.7451 216.42 29.3168H216.43Z" fill="#C7A02E"/>
<path d="M247.1 42.4473C246.39 43.5277 245.18 44.1799 243.2 44.1799C242.76 43.3136 242.43 42.4473 242.16 41.5908C242 41.1625 241.89 40.7245 241.78 40.2962C241.67 39.8679 241.56 39.4883 241.45 39.0503C241.29 38.184 241.18 37.3762 241.12 36.5683C241.07 35.8091 241.12 35.0012 241.17 34.3004C241.44 31.3803 242.82 29.054 245.57 28.6841C245.57 29.2779 245.68 29.93 245.9 30.6795C246.06 31.3803 246.28 32.1882 246.5 33.0545C246.77 33.8624 246.99 34.7286 247.21 35.5949C247.43 36.4612 247.59 37.3762 247.7 38.184C247.75 38.6123 247.75 38.9919 247.75 39.4299C247.75 39.8095 247.75 40.1891 247.7 40.5687C247.64 41.2696 247.43 41.9217 247.1 42.457V42.4473Z" fill="#C7A02E"/>
<path d="M233.47 39.9653C234.18 40.0237 234.84 40.1794 235.56 40.452C236.27 40.6661 236.99 41.0457 237.65 41.474C237.98 41.6881 238.31 41.9607 238.64 42.2332C238.97 42.5057 239.3 42.7783 239.57 43.0995C240.23 43.6932 240.72 44.394 241.22 45.2117C240.07 46.7788 238.75 47.3238 237.54 47.3725C236.94 47.3725 236.33 47.2654 235.67 47.1C235.4 46.9929 235.07 46.8274 234.79 46.7203C234.46 46.5549 234.19 46.4478 233.86 46.2921C231.5 44.9975 229.02 43.1579 227.1 43.0508C228.36 40.8316 230.73 39.7025 233.48 39.975L233.47 39.9653Z" fill="#C7A02E"/>
<path d="M233.91 96.9744C233.47 96.3806 233.25 95.6798 233.03 94.9206C232.87 94.2198 232.76 93.4119 232.7 92.6527C232.65 92.2244 232.65 91.8448 232.65 91.4068C232.59 91.0272 232.59 90.5989 232.59 90.2193C232.59 89.4115 232.54 88.5938 232.48 87.8444C232.43 87.0851 232.32 86.3843 232.21 85.7322C232.05 85.08 231.83 84.4863 231.5 84.058C233.09 83.9996 234.52 84.3306 235.79 85.0314C237.05 85.7906 238.15 86.871 238.92 88.331C239.63 89.7911 240.07 91.5236 240.07 93.4119C240.02 95.3586 239.52 97.354 238.48 99.3007C236.12 99.0866 234.74 98.1619 233.92 96.9744H233.91Z" fill="#C7A02E"/>
<path d="M221.04 13.5973C221.09 14.0839 221.15 14.5706 221.15 14.9989C221.15 15.4856 221.15 15.9722 221.04 16.5076C220.93 17.4809 220.33 18.4543 218.95 19.048C218.35 18.5029 217.85 17.8605 217.47 17.2084C217.09 16.5562 216.76 15.9138 216.59 15.2617C216.21 13.9671 216.32 12.7796 216.76 11.8063C216.87 11.5922 216.98 11.378 217.14 11.1541C217.25 10.9887 217.41 10.7745 217.63 10.6091C217.96 10.2879 218.34 10.0153 218.78 9.80119C219.6 9.42159 220.59 9.25612 221.58 9.14905C221.14 9.57732 220.92 10.2295 220.87 11.0373C220.82 11.7966 220.93 12.6628 221.04 13.5778V13.5973Z" fill="#C7A02E"/>
<path d="M227.53 25.8614C226.27 24.6739 225.22 23.428 224.45 22.1335C223.74 20.8876 223.3 19.5444 223.24 18.3472C223.13 17.1013 223.46 16.0208 224.01 15.1059C224.28 14.6192 224.61 14.1909 225 13.86C225.38 13.4804 225.82 13.1592 226.32 12.8867C226.27 13.6459 226.65 14.6192 227.25 15.7483C227.85 16.8287 228.68 18.1233 229.28 19.3692C229.94 20.6637 230.32 21.9096 230.16 23.0484C229.94 24.1873 229.17 25.1022 227.52 25.8614H227.53Z" fill="#C7A02E"/>
<path d="M235.99 34.0181C235.72 33.6385 235.44 33.2589 235.22 32.8793C234.95 32.4997 234.73 32.1785 234.51 31.7989C234.29 31.4193 234.13 31.0397 233.96 30.6601C233.74 30.2805 233.58 29.9009 233.41 29.5212C232.81 28.0126 232.42 26.6012 232.31 25.1996C232.04 22.445 232.91 20.0116 235.39 19.2037C235.83 21.3159 238.08 24.5572 239.07 27.5259C239.29 28.2851 239.45 29.0346 239.51 29.6867C239.56 30.3875 239.51 31.0397 239.29 31.575C238.85 32.7138 237.86 33.5217 235.99 34.0084V34.0181Z" fill="#C7A02E"/>
<path d="M207.08 13.3734C207.57 13.4318 208.12 13.5875 208.67 13.8016C208.94 13.9087 209.22 14.0742 209.55 14.1812C209.82 14.3467 210.1 14.5024 210.37 14.7263C211.52 15.4271 212.73 16.2934 214 17.2084C214.6 17.695 215.26 18.1817 215.92 18.6684C216.52 19.1551 217.18 19.6417 217.84 20.1771C217.35 21.8026 216.58 22.6591 215.48 22.9317C214.93 23.0387 214.27 22.9901 213.61 22.8246C212.9 22.6105 212.18 22.2795 211.41 21.8512C209.93 20.985 208.44 19.632 207.23 18.2304C205.97 16.8288 205.03 15.4174 204.21 14.5511C204.98 13.5291 206.02 13.1982 207.07 13.3636L207.08 13.3734Z" fill="#C7A02E"/>
<path d="M210.43 113.405C211.25 111.896 212.24 110.377 213.01 108.976C213.39 108.217 213.78 107.574 214 106.864C214.22 106.211 214.38 105.569 214.38 104.975C215.81 105.783 216.91 106.971 217.68 108.382C218.39 109.784 218.72 111.409 218.56 113.142C218.51 114.008 218.29 114.923 217.96 115.789C217.8 116.276 217.58 116.704 217.36 117.142C217.14 117.57 216.87 118.009 216.59 118.437C215.44 120.169 213.73 121.736 211.7 122.924C209.67 121.298 208.95 119.624 208.95 118.057C208.95 117.249 209.11 116.49 209.33 115.682C209.49 115.303 209.66 114.923 209.82 114.543C209.98 114.164 210.2 113.784 210.42 113.405H210.43Z" fill="#C7A02E"/>
<path d="M219.61 3.60095L219.56 3.81508L219.51 3.92215C219.46 4.13629 219.4 4.30176 219.29 4.51589C219.18 4.8955 219.02 5.32378 218.91 5.70338C218.75 6.13166 218.58 6.56966 218.42 6.94927C218.2 7.37754 218.04 7.81555 217.71 8.19516C217.44 8.57476 217.05 8.89597 216.56 9.21718C216.07 9.48971 215.46 9.70385 214.69 9.76225C214.09 8.4677 213.92 7.05634 214.14 5.86885C214.19 5.59631 214.25 5.32377 214.36 5.06097C214.47 4.73976 214.58 4.46723 214.69 4.25309C214.91 3.70801 215.24 3.23107 215.57 2.85147C215.9 2.47186 216.34 2.09225 216.72 1.82945C217.16 1.55691 217.6 1.34277 218.04 1.1773C218.97 0.904766 219.96 0.904766 220.95 1.1773C220.4 1.66398 220.07 2.47186 219.74 3.28947C219.74 3.39654 219.69 3.50361 219.63 3.61068L219.61 3.60095Z" fill="#C7A02E"/>
<path d="M62.2851 63V56.28H71.2451V30.128H63.6851V24.976C65.7758 24.6027 67.5678 24.1547 69.0611 23.632C70.5918 23.072 72.0104 22.3627 73.3171 21.504H79.4211V56.28H87.2051V63H62.2851ZM107.244 63.784C104.444 63.784 101.98 62.9813 99.8524 61.376C97.7617 59.7333 96.119 57.3067 94.9244 54.096C93.767 50.848 93.1884 46.8347 93.1884 42.056C93.1884 37.3147 93.767 33.376 94.9244 30.24C96.119 27.0667 97.7617 24.696 99.8524 23.128C101.98 21.56 104.444 20.776 107.244 20.776C110.082 20.776 112.546 21.5787 114.636 23.184C116.727 24.752 118.351 27.104 119.508 30.24C120.703 33.376 121.3 37.3147 121.3 42.056C121.3 46.8347 120.703 50.848 119.508 54.096C118.351 57.3067 116.727 59.7333 114.636 61.376C112.546 62.9813 110.082 63.784 107.244 63.784ZM107.244 57.344C108.476 57.344 109.559 56.8773 110.492 55.944C111.426 55.0107 112.154 53.4427 112.676 51.24C113.199 49 113.46 45.9387 113.46 42.056C113.46 38.2107 113.199 35.2053 112.676 33.04C112.154 30.8373 111.426 29.3067 110.492 28.448C109.559 27.552 108.476 27.104 107.244 27.104C106.087 27.104 105.023 27.552 104.052 28.448C103.119 29.3067 102.372 30.8373 101.812 33.04C101.252 35.2053 100.972 38.2107 100.972 42.056C100.972 45.9387 101.252 49 101.812 51.24C102.372 53.4427 103.119 55.0107 104.052 55.944C105.023 56.8773 106.087 57.344 107.244 57.344ZM140.276 63.784C137.476 63.784 135.012 62.9813 132.884 61.376C130.793 59.7333 129.15 57.3067 127.956 54.096C126.798 50.848 126.22 46.8347 126.22 42.056C126.22 37.3147 126.798 33.376 127.956 30.24C129.15 27.0667 130.793 24.696 132.884 23.128C135.012 21.56 137.476 20.776 140.276 20.776C143.113 20.776 145.577 21.5787 147.668 23.184C149.758 24.752 151.382 27.104 152.54 30.24C153.734 33.376 154.332 37.3147 154.332 42.056C154.332 46.8347 153.734 50.848 152.54 54.096C151.382 57.3067 149.758 59.7333 147.668 61.376C145.577 62.9813 143.113 63.784 140.276 63.784ZM140.276 57.344C141.508 57.344 142.59 56.8773 143.524 55.944C144.457 55.0107 145.185 53.4427 145.708 51.24C146.23 49 146.492 45.9387 146.492 42.056C146.492 38.2107 146.23 35.2053 145.708 33.04C145.185 30.8373 144.457 29.3067 143.524 28.448C142.59 27.552 141.508 27.104 140.276 27.104C139.118 27.104 138.054 27.552 137.084 28.448C136.15 29.3067 135.404 30.8373 134.844 33.04C134.284 35.2053 134.004 38.2107 134.004 42.056C134.004 45.9387 134.284 49 134.844 51.24C135.404 53.4427 136.15 55.0107 137.084 55.944C138.054 56.8773 139.118 57.344 140.276 57.344ZM163.347 62.088H172.451V63.976H163.347V62.088ZM164.003 54.36H172.067V56.216H164.003V54.36ZM167.043 49.56H169.027V63H167.043V49.56ZM157.603 52.376H162.835V54.104H157.603V52.376ZM159.891 57.832L161.795 55.56V64.44H159.891V57.832ZM159.891 49.416H161.795V53.176H159.891V49.416ZM161.587 56.104C161.736 56.2 161.939 56.36 162.195 56.584C162.462 56.7973 162.744 57.0373 163.043 57.304C163.342 57.56 163.614 57.8 163.859 58.024C164.104 58.2373 164.28 58.392 164.387 58.488L163.235 60.056C163.075 59.8533 162.878 59.6187 162.643 59.352C162.419 59.0747 162.179 58.792 161.923 58.504C161.667 58.216 161.416 57.944 161.171 57.688C160.926 57.432 160.718 57.2187 160.547 57.048L161.587 56.104ZM162.147 52.376H162.515L162.851 52.296L163.923 53C163.528 54.0453 163.011 55.0427 162.371 55.992C161.731 56.9307 161.027 57.7787 160.259 58.536C159.491 59.2933 158.707 59.9227 157.907 60.424C157.854 60.2533 157.768 60.0507 157.651 59.816C157.544 59.5707 157.432 59.3413 157.315 59.128C157.208 58.904 157.102 58.728 156.995 58.6C157.731 58.216 158.435 57.7147 159.107 57.096C159.779 56.4667 160.382 55.7787 160.915 55.032C161.448 54.2747 161.859 53.5013 162.147 52.712V52.376ZM178.387 52.168L180.163 51.32C180.504 51.704 180.84 52.1253 181.171 52.584C181.502 53.0427 181.795 53.496 182.051 53.944C182.318 54.3813 182.531 54.7867 182.691 55.16L180.803 56.168C180.675 55.8053 180.483 55.3893 180.227 54.92C179.971 54.44 179.683 53.96 179.363 53.48C179.043 53 178.718 52.5627 178.387 52.168ZM173.203 60.568C173.747 60.3867 174.376 60.1573 175.091 59.88C175.816 59.6027 176.574 59.304 177.363 58.984C178.163 58.664 178.952 58.344 179.731 58.024L180.179 59.896C179.464 60.216 178.739 60.536 178.003 60.856C177.267 61.176 176.542 61.4853 175.827 61.784C175.123 62.0827 174.467 62.36 173.859 62.616L173.203 60.568ZM182.579 59.144L184.051 57.784C184.414 58.168 184.803 58.5787 185.219 59.016C185.646 59.4533 186.062 59.9013 186.467 60.36C186.883 60.808 187.267 61.2453 187.619 61.672C187.971 62.088 188.259 62.472 188.483 62.824L186.835 64.424C186.632 64.0613 186.36 63.656 186.019 63.208C185.688 62.7707 185.326 62.3173 184.931 61.848C184.547 61.3787 184.147 60.9147 183.731 60.456C183.326 59.9867 182.942 59.5493 182.579 59.144ZM184.755 50.328L186.883 50.52C186.691 52.3333 186.414 53.9707 186.051 55.432C185.688 56.8827 185.203 58.1787 184.595 59.32C183.987 60.4507 183.219 61.4427 182.291 62.296C181.374 63.1493 180.259 63.8693 178.947 64.456C178.851 64.3173 178.712 64.1413 178.531 63.928C178.35 63.7147 178.158 63.496 177.955 63.272C177.752 63.0587 177.571 62.888 177.411 62.76C178.691 62.2693 179.763 61.656 180.627 60.92C181.502 60.184 182.216 59.3093 182.771 58.296C183.326 57.272 183.758 56.104 184.067 54.792C184.376 53.4693 184.606 51.9813 184.755 50.328ZM175.011 50.392L177.027 50.312L177.395 60.712L175.379 60.792L175.011 50.392ZM196.323 54.216H202.979V56.152H196.323V54.216ZM189.475 61.704H204.115V63.64H189.475V61.704ZM195.235 49.608H197.299V62.776H195.235V49.608Z" fill="#FFFF59"/>
<path d="M94.3619 80.184H104.266V81.288H94.3619V80.184ZM96.1859 83.4H102.394V84.088H96.1859V83.4ZM96.1859 84.712H102.394V85.4H96.1859V84.712ZM95.4019 82.008H103.146V86.456H101.738V82.808H96.7619V86.456H95.4019V82.008ZM93.8659 86.024H104.586V88.232H103.226V86.92H95.1779V88.232H93.8659V86.024ZM95.9139 87.32L96.8899 87.848C96.6765 88.1573 96.4205 88.4827 96.1219 88.824C95.8339 89.1547 95.5085 89.4373 95.1459 89.672L94.2339 88.92C94.5752 88.728 94.8899 88.4827 95.1779 88.184C95.4765 87.8853 95.7219 87.5973 95.9139 87.32ZM96.8899 87.288H98.1219V88.216C98.1219 88.3653 98.1539 88.4613 98.2179 88.504C98.2925 88.5467 98.4525 88.568 98.6979 88.568C98.7619 88.568 98.8685 88.568 99.0179 88.568C99.1779 88.568 99.3485 88.568 99.5299 88.568C99.7219 88.568 99.8979 88.568 100.058 88.568C100.229 88.568 100.357 88.568 100.442 88.568C100.613 88.568 100.725 88.5307 100.778 88.456C100.842 88.3813 100.89 88.2053 100.922 87.928C101.039 87.992 101.194 88.056 101.386 88.12C101.578 88.184 101.754 88.2267 101.914 88.248C101.85 88.7067 101.727 89.0213 101.546 89.192C101.365 89.352 101.05 89.432 100.602 89.432C100.538 89.432 100.41 89.432 100.218 89.432C100.026 89.432 99.8125 89.432 99.5779 89.432C99.3432 89.432 99.1299 89.432 98.9379 89.432C98.7459 89.432 98.6179 89.432 98.5539 89.432C98.1165 89.432 97.7752 89.4 97.5299 89.336C97.2952 89.2613 97.1299 89.1387 97.0339 88.968C96.9379 88.7867 96.8899 88.536 96.8899 88.216V87.288ZM98.1059 86.952L98.9699 86.408C99.2579 86.5787 99.5512 86.7867 99.8499 87.032C100.159 87.2667 100.399 87.4907 100.57 87.704L99.6579 88.28C99.4979 88.0773 99.2685 87.848 98.9699 87.592C98.6819 87.336 98.3939 87.1227 98.1059 86.952ZM101.498 87.768L102.426 87.256C102.757 87.5227 103.093 87.8267 103.434 88.168C103.786 88.5093 104.047 88.8187 104.218 89.096L103.226 89.656C103.055 89.3893 102.805 89.08 102.474 88.728C102.154 88.3653 101.829 88.0453 101.498 87.768ZM97.6899 89.032L99.0499 89.32C98.5165 89.9067 97.8765 90.4453 97.1299 90.936C96.3832 91.416 95.5032 91.8587 94.4899 92.264C94.3939 92.1147 94.2605 91.9493 94.0899 91.768C93.9192 91.576 93.7645 91.432 93.6259 91.336C94.5645 91.0267 95.3752 90.6693 96.0579 90.264C96.7512 89.8587 97.2952 89.448 97.6899 89.032ZM101.754 90.024H102.058L102.298 89.96L103.242 90.472C102.559 91.496 101.461 92.3333 99.9459 92.984C98.4312 93.624 96.5539 94.0933 94.3139 94.392C94.2499 94.232 94.1432 94.0453 93.9939 93.832C93.8552 93.6187 93.7219 93.4373 93.5939 93.288C95.7059 93.064 97.4659 92.6853 98.8739 92.152C100.293 91.6187 101.253 90.984 101.754 90.248V90.024ZM96.9379 90.52C97.4072 91.0427 98.0365 91.4853 98.8259 91.848C99.6152 92.2107 100.517 92.504 101.53 92.728C102.554 92.9413 103.637 93.0853 104.778 93.16C104.639 93.32 104.49 93.5173 104.33 93.752C104.17 93.9867 104.042 94.2 103.946 94.392C102.762 94.264 101.647 94.056 100.602 93.768C99.5565 93.4907 98.6232 93.1173 97.8019 92.648C96.9805 92.1787 96.2872 91.6133 95.7219 90.952L96.9379 90.52ZM97.2099 90.024H102.154V90.92H96.2979L97.2099 90.024ZM98.3939 80.696L100.042 80.872C99.9245 81.192 99.8019 81.5013 99.6739 81.8C99.5565 82.088 99.4499 82.344 99.3539 82.568L98.0419 82.344C98.1165 82.088 98.1859 81.8107 98.2499 81.512C98.3245 81.2027 98.3725 80.9307 98.3939 80.696ZM92.7299 79.56L94.1219 79.96C93.8232 80.888 93.4659 81.816 93.0499 82.744C92.6445 83.6613 92.1965 84.5307 91.7059 85.352C91.2152 86.1733 90.6979 86.8987 90.1539 87.528C90.1219 87.4107 90.0579 87.2507 89.9619 87.048C89.8765 86.8453 89.7805 86.6427 89.6739 86.44C89.5779 86.2373 89.4872 86.072 89.4019 85.944C89.8605 85.4213 90.2925 84.8187 90.6979 84.136C91.1139 83.4533 91.4925 82.7227 91.8339 81.944C92.1859 81.1547 92.4845 80.36 92.7299 79.56ZM91.4499 83.688L92.8419 82.28L92.8899 82.312V94.344H91.4499V83.688ZM108.874 83.896H117.674V85.128H108.874V83.896ZM112.298 79.448H113.866V81.688H112.298V79.448ZM106.298 92.744C106.906 92.6587 107.61 92.5573 108.41 92.44C109.221 92.312 110.079 92.1787 110.986 92.04C111.893 91.9013 112.789 91.7573 113.674 91.608L113.77 93.016C112.938 93.1547 112.095 93.2933 111.242 93.432C110.389 93.5813 109.567 93.72 108.778 93.848C107.999 93.976 107.29 94.0987 106.65 94.216L106.298 92.744ZM113.242 87.368C113.775 88.904 114.645 90.1467 115.85 91.096C117.066 92.0347 118.655 92.6693 120.618 93C120.511 93.1067 120.394 93.24 120.266 93.4C120.138 93.5707 120.021 93.7413 119.914 93.912C119.807 94.0827 119.722 94.2373 119.658 94.376C118.271 94.088 117.071 93.6507 116.058 93.064C115.055 92.488 114.207 91.7573 113.514 90.872C112.831 89.976 112.271 88.9253 111.834 87.72L113.242 87.368ZM118.618 87.752L119.818 88.68C119.391 89.0107 118.922 89.3467 118.41 89.688C117.898 90.0293 117.386 90.3547 116.874 90.664C116.362 90.9627 115.882 91.224 115.434 91.448L114.426 90.584C114.874 90.36 115.354 90.088 115.866 89.768C116.378 89.448 116.874 89.112 117.354 88.76C117.845 88.3973 118.266 88.0613 118.618 87.752ZM108.81 81H118.618V88.088H108.81V86.76H117.066V82.328H108.81V81ZM108.01 81H109.562V92.888L108.01 93V81ZM121.882 88.168H136.458V89.432H121.882V88.168ZM127.29 86.552L128.778 86.952C128.437 87.5067 128.063 88.088 127.658 88.696C127.253 89.304 126.847 89.896 126.442 90.472C126.047 91.048 125.685 91.5547 125.354 91.992L123.898 91.512C124.239 91.0853 124.607 90.5893 125.002 90.024C125.407 89.448 125.807 88.856 126.202 88.248C126.607 87.64 126.97 87.0747 127.29 86.552ZM131.834 88.664L133.306 89.048C132.943 89.9547 132.458 90.7227 131.85 91.352C131.242 91.9707 130.506 92.4827 129.642 92.888C128.789 93.2827 127.786 93.592 126.634 93.816C125.482 94.0507 124.17 94.232 122.698 94.36C122.655 94.136 122.575 93.9013 122.458 93.656C122.351 93.4107 122.234 93.2027 122.106 93.032C123.93 92.936 125.487 92.7387 126.778 92.44C128.069 92.1413 129.13 91.6933 129.962 91.096C130.794 90.488 131.418 89.6773 131.834 88.664ZM124.922 91.48L125.69 90.36C126.97 90.5947 128.239 90.8667 129.498 91.176C130.767 91.4853 131.962 91.8053 133.082 92.136C134.202 92.4667 135.162 92.7867 135.962 93.096L135.05 94.344C134.261 94.0133 133.327 93.6773 132.25 93.336C131.173 92.9947 130.01 92.664 128.762 92.344C127.514 92.024 126.234 91.736 124.922 91.48ZM122.058 82.744H136.234V83.992H122.058V82.744ZM128.378 80.744H129.882V87.016H128.378V80.744ZM127.722 83.064L128.954 83.576C128.591 84.0133 128.165 84.44 127.674 84.856C127.194 85.2613 126.677 85.64 126.122 85.992C125.567 86.344 124.986 86.6587 124.378 86.936C123.781 87.2133 123.183 87.4427 122.586 87.624C122.479 87.4427 122.335 87.2347 122.154 87C121.983 86.7653 121.818 86.5787 121.658 86.44C122.245 86.2907 122.826 86.104 123.402 85.88C123.989 85.6453 124.554 85.3787 125.098 85.08C125.642 84.7813 126.138 84.4613 126.586 84.12C127.034 83.7787 127.413 83.4267 127.722 83.064ZM130.522 83.064C130.938 83.5333 131.471 83.9813 132.122 84.408C132.783 84.824 133.503 85.1973 134.282 85.528C135.071 85.848 135.85 86.104 136.618 86.296C136.511 86.392 136.394 86.5147 136.266 86.664C136.149 86.8133 136.031 86.968 135.914 87.128C135.807 87.2773 135.717 87.416 135.642 87.544C135.055 87.3627 134.458 87.1387 133.85 86.872C133.253 86.6053 132.671 86.3013 132.106 85.96C131.551 85.608 131.034 85.2347 130.554 84.84C130.085 84.4347 129.663 84.0133 129.29 83.576L130.522 83.064ZM133.626 79.512L134.73 80.568C133.994 80.7387 133.173 80.8827 132.266 81C131.359 81.1173 130.405 81.2187 129.402 81.304C128.41 81.3787 127.413 81.4427 126.41 81.496C125.407 81.5387 124.437 81.5653 123.498 81.576C123.487 81.416 123.45 81.2187 123.386 80.984C123.322 80.7493 123.253 80.5573 123.178 80.408C124.095 80.3973 125.039 80.3707 126.01 80.328C126.981 80.2747 127.935 80.2107 128.874 80.136C129.813 80.0613 130.687 79.9707 131.498 79.864C132.319 79.7573 133.029 79.64 133.626 79.512ZM147.066 81.352H148.586V91.896C148.586 92.2587 148.618 92.488 148.682 92.584C148.757 92.68 148.917 92.728 149.162 92.728C149.215 92.728 149.311 92.728 149.45 92.728C149.599 92.728 149.759 92.728 149.93 92.728C150.101 92.728 150.261 92.728 150.41 92.728C150.559 92.728 150.671 92.728 150.746 92.728C150.906 92.728 151.023 92.664 151.098 92.536C151.173 92.3973 151.226 92.152 151.258 91.8C151.301 91.448 151.333 90.952 151.354 90.312C151.535 90.44 151.759 90.568 152.026 90.696C152.293 90.8133 152.533 90.8987 152.746 90.952C152.703 91.7413 152.618 92.376 152.49 92.856C152.362 93.3253 152.17 93.6613 151.914 93.864C151.669 94.0773 151.322 94.184 150.874 94.184C150.789 94.184 150.655 94.184 150.474 94.184C150.293 94.184 150.095 94.184 149.882 94.184C149.679 94.184 149.487 94.184 149.306 94.184C149.125 94.184 148.997 94.184 148.922 94.184C148.442 94.184 148.063 94.1147 147.786 93.976C147.519 93.848 147.333 93.6133 147.226 93.272C147.119 92.9413 147.066 92.4827 147.066 91.896V81.352ZM150.714 79.672L151.978 80.888C151.317 81.1653 150.575 81.4213 149.754 81.656C148.933 81.88 148.09 82.0827 147.226 82.264C146.362 82.4347 145.514 82.5893 144.682 82.728C144.661 82.5467 144.597 82.3333 144.49 82.088C144.394 81.832 144.298 81.6187 144.202 81.448C144.981 81.3093 145.775 81.1493 146.586 80.968C147.397 80.776 148.159 80.5733 148.874 80.36C149.589 80.136 150.202 79.9067 150.714 79.672ZM143.93 86.632L152.394 85.336L152.65 86.76L144.17 88.088L143.93 86.632ZM138.49 84.36H143.562V85.528H138.49V84.36ZM138.57 80.024H143.578V81.208H138.57V80.024ZM138.49 86.52H143.562V87.688H138.49V86.52ZM137.722 82.152H144.17V83.368H137.722V82.152ZM139.178 88.712H143.514V93.464H139.178V92.248H142.17V89.928H139.178V88.712ZM138.458 88.712H139.786V94.152H138.458V88.712ZM162.426 87.352H163.946V92.072C163.946 92.328 163.983 92.4933 164.058 92.568C164.143 92.632 164.33 92.664 164.618 92.664C164.682 92.664 164.789 92.664 164.938 92.664C165.098 92.664 165.274 92.664 165.466 92.664C165.658 92.664 165.834 92.664 165.994 92.664C166.165 92.664 166.287 92.664 166.362 92.664C166.543 92.664 166.682 92.6107 166.778 92.504C166.874 92.3867 166.938 92.168 166.97 91.848C167.013 91.5173 167.045 91.016 167.066 90.344C167.173 90.4293 167.306 90.5147 167.466 90.6C167.637 90.6747 167.807 90.744 167.978 90.808C168.159 90.872 168.314 90.92 168.442 90.952C168.399 91.784 168.309 92.4293 168.17 92.888C168.042 93.336 167.845 93.6507 167.578 93.832C167.322 94.0133 166.959 94.104 166.49 94.104C166.415 94.104 166.277 94.104 166.074 94.104C165.882 94.104 165.674 94.104 165.45 94.104C165.226 94.104 165.018 94.104 164.826 94.104C164.634 94.104 164.495 94.104 164.41 94.104C163.877 94.104 163.466 94.04 163.178 93.912C162.901 93.7947 162.703 93.5867 162.586 93.288C162.479 92.9893 162.426 92.584 162.426 92.072V87.352ZM154.09 86.264H168.266V87.72H154.09V86.264ZM156.73 81.848H167.066V83.304H156.73V81.848ZM158.154 87.384H159.722C159.647 88.1733 159.525 88.92 159.354 89.624C159.183 90.328 158.922 90.984 158.57 91.592C158.229 92.1893 157.754 92.7227 157.146 93.192C156.549 93.672 155.77 94.0827 154.81 94.424C154.757 94.2853 154.677 94.136 154.57 93.976C154.463 93.8267 154.346 93.672 154.218 93.512C154.101 93.352 153.983 93.224 153.866 93.128C154.73 92.8507 155.429 92.52 155.962 92.136C156.495 91.7413 156.906 91.2987 157.194 90.808C157.493 90.3173 157.711 89.7893 157.85 89.224C157.989 88.648 158.09 88.0347 158.154 87.384ZM156.906 79.8L158.442 80.104C158.271 80.7227 158.063 81.368 157.818 82.04C157.583 82.712 157.311 83.3627 157.002 83.992C156.703 84.6213 156.367 85.1707 155.994 85.64C155.877 85.5653 155.738 85.4853 155.578 85.4C155.418 85.304 155.258 85.2187 155.098 85.144C154.938 85.0587 154.794 84.9947 154.666 84.952C155.029 84.4933 155.354 83.9707 155.642 83.384C155.93 82.7973 156.181 82.1947 156.394 81.576C156.607 80.9467 156.778 80.3547 156.906 79.8ZM160.41 79.496H161.946V86.712H160.41V79.496ZM115.16 104.936C114.84 105.448 114.445 105.971 113.976 106.504C113.517 107.037 113 107.571 112.424 108.104C111.848 108.627 111.24 109.128 110.6 109.608C109.96 110.088 109.304 110.525 108.632 110.92C108.568 110.803 108.477 110.669 108.36 110.52C108.253 110.371 108.136 110.227 108.008 110.088C107.891 109.939 107.773 109.811 107.656 109.704C108.595 109.192 109.491 108.589 110.344 107.896C111.208 107.192 111.981 106.451 112.664 105.672C113.357 104.893 113.907 104.147 114.312 103.432H115.864C116.291 104.061 116.776 104.675 117.32 105.272C117.864 105.869 118.44 106.435 119.048 106.968C119.656 107.491 120.285 107.971 120.936 108.408C121.587 108.845 122.232 109.213 122.872 109.512C122.68 109.693 122.493 109.907 122.312 110.152C122.141 110.397 121.987 110.632 121.848 110.856C121.219 110.493 120.584 110.083 119.944 109.624C119.304 109.155 118.685 108.664 118.088 108.152C117.491 107.629 116.941 107.096 116.44 106.552C115.949 105.997 115.523 105.459 115.16 104.936ZM115.272 111.496H120.6V112.872H115.272V111.496ZM108.424 116.52H122.088V117.896H108.424V116.52ZM114.536 107.896H116.136V117.256H114.536V107.896ZM110.328 110.728H111.816V117.208H110.328V110.728ZM124.2 113.336H138.328V114.6H124.2V113.336ZM124.264 106.248H138.28V107.512H124.264V106.248ZM124.904 109.032H137.688V110.248H124.904V109.032ZM125.704 111.224H136.92V112.344H125.704V111.224ZM130.472 109.624H131.96V118.344H130.472V109.624ZM129.032 103.48H130.456V106.84H129.032V103.48ZM132.04 103.48H133.48V106.76H132.04V103.48ZM130.088 113.864L131.304 114.424C130.803 114.968 130.195 115.48 129.48 115.96C128.765 116.44 127.997 116.861 127.176 117.224C126.355 117.597 125.544 117.896 124.744 118.12C124.669 117.981 124.573 117.832 124.456 117.672C124.349 117.523 124.232 117.373 124.104 117.224C123.987 117.075 123.869 116.947 123.752 116.84C124.552 116.669 125.352 116.435 126.152 116.136C126.952 115.837 127.699 115.496 128.392 115.112C129.085 114.717 129.651 114.301 130.088 113.864ZM132.344 113.832C132.685 114.163 133.091 114.483 133.56 114.792C134.04 115.101 134.563 115.389 135.128 115.656C135.693 115.912 136.28 116.136 136.888 116.328C137.507 116.52 138.125 116.675 138.744 116.792C138.637 116.899 138.515 117.032 138.376 117.192C138.248 117.352 138.125 117.517 138.008 117.688C137.901 117.859 137.811 118.013 137.736 118.152C137.107 117.981 136.483 117.768 135.864 117.512C135.245 117.267 134.648 116.979 134.072 116.648C133.507 116.317 132.973 115.96 132.472 115.576C131.981 115.181 131.549 114.76 131.176 114.312L132.344 113.832ZM135.736 103.656L137.304 104.056C137.059 104.483 136.803 104.909 136.536 105.336C136.28 105.763 136.045 106.131 135.832 106.44L134.6 106.056C134.739 105.832 134.877 105.581 135.016 105.304C135.155 105.016 135.288 104.728 135.416 104.44C135.544 104.152 135.651 103.891 135.736 103.656ZM133.608 107.048L135.192 107.432C134.989 107.805 134.787 108.168 134.584 108.52C134.381 108.861 134.189 109.155 134.008 109.4L132.744 109.032C132.893 108.744 133.048 108.413 133.208 108.04C133.379 107.667 133.512 107.336 133.608 107.048ZM125.48 104.056L126.776 103.608C127.043 103.96 127.299 104.355 127.544 104.792C127.789 105.229 127.971 105.613 128.088 105.944L126.712 106.44C126.616 106.12 126.451 105.736 126.216 105.288C125.981 104.84 125.736 104.429 125.48 104.056ZM127.544 107.576L129 107.32C129.171 107.565 129.331 107.843 129.48 108.152C129.629 108.461 129.736 108.728 129.8 108.952L128.28 109.24C128.227 109.016 128.131 108.749 127.992 108.44C127.853 108.12 127.704 107.832 127.544 107.576ZM139.8 111.944H147.768V113.192H139.8V111.944ZM139.928 106.328H147.704V107.544H139.928V106.328ZM142.744 110.664L144.152 110.968C143.896 111.501 143.619 112.061 143.32 112.648C143.021 113.235 142.728 113.8 142.44 114.344C142.152 114.888 141.88 115.373 141.624 115.8L140.296 115.368C140.541 114.963 140.808 114.493 141.096 113.96C141.395 113.416 141.683 112.856 141.96 112.28C142.248 111.704 142.509 111.165 142.744 110.664ZM145.08 112.744L146.488 112.904C146.339 113.704 146.12 114.403 145.832 115C145.544 115.597 145.16 116.109 144.68 116.536C144.2 116.963 143.613 117.32 142.92 117.608C142.237 117.907 141.427 118.157 140.488 118.36C140.445 118.147 140.36 117.923 140.232 117.688C140.115 117.453 139.987 117.256 139.848 117.096C140.947 116.925 141.848 116.675 142.552 116.344C143.267 116.003 143.821 115.539 144.216 114.952C144.621 114.365 144.909 113.629 145.08 112.744ZM146.136 103.752L147.432 104.28C147.187 104.643 146.936 105.005 146.68 105.368C146.435 105.731 146.205 106.045 145.992 106.312L144.984 105.848C145.187 105.56 145.395 105.219 145.608 104.824C145.832 104.419 146.008 104.061 146.136 103.752ZM143.128 103.48H144.536V110.872H143.128V103.48ZM140.44 104.28L141.56 103.816C141.784 104.136 141.987 104.488 142.168 104.872C142.36 105.245 142.493 105.571 142.568 105.848L141.4 106.376C141.336 106.088 141.213 105.752 141.032 105.368C140.851 104.973 140.653 104.611 140.44 104.28ZM143.176 106.904L144.168 107.496C143.901 107.933 143.565 108.376 143.16 108.824C142.765 109.261 142.333 109.667 141.864 110.04C141.405 110.413 140.947 110.728 140.488 110.984C140.403 110.813 140.285 110.616 140.136 110.392C139.987 110.168 139.837 109.987 139.688 109.848C140.136 109.667 140.579 109.421 141.016 109.112C141.464 108.803 141.875 108.456 142.248 108.072C142.632 107.688 142.941 107.299 143.176 106.904ZM144.392 107.416C144.531 107.491 144.733 107.613 145 107.784C145.277 107.944 145.571 108.12 145.88 108.312C146.2 108.493 146.488 108.669 146.744 108.84C147.011 109 147.197 109.123 147.304 109.208L146.488 110.264C146.349 110.136 146.157 109.971 145.912 109.768C145.667 109.565 145.4 109.357 145.112 109.144C144.835 108.92 144.563 108.712 144.296 108.52C144.04 108.317 143.827 108.157 143.656 108.04L144.392 107.416ZM148.888 106.424H154.664V107.816H148.888V106.424ZM149.176 103.48L150.712 103.704C150.541 104.771 150.323 105.8 150.056 106.792C149.789 107.784 149.469 108.701 149.096 109.544C148.723 110.387 148.296 111.128 147.816 111.768C147.741 111.672 147.629 111.56 147.48 111.432C147.331 111.304 147.176 111.176 147.016 111.048C146.856 110.909 146.717 110.803 146.6 110.728C147.059 110.163 147.453 109.501 147.784 108.744C148.115 107.976 148.397 107.144 148.632 106.248C148.867 105.352 149.048 104.429 149.176 103.48ZM152.232 107.256L153.768 107.4C153.523 109.235 153.149 110.851 152.648 112.248C152.157 113.645 151.48 114.851 150.616 115.864C149.763 116.867 148.664 117.709 147.32 118.392C147.277 118.275 147.203 118.125 147.096 117.944C146.989 117.773 146.877 117.603 146.76 117.432C146.643 117.261 146.536 117.128 146.44 117.032C147.677 116.456 148.685 115.725 149.464 114.84C150.253 113.944 150.861 112.867 151.288 111.608C151.725 110.349 152.04 108.899 152.232 107.256ZM149.72 107.592C149.944 109.011 150.264 110.344 150.68 111.592C151.107 112.829 151.656 113.917 152.328 114.856C153.011 115.784 153.848 116.509 154.84 117.032C154.723 117.128 154.595 117.251 154.456 117.4C154.317 117.56 154.189 117.72 154.072 117.88C153.955 118.04 153.853 118.189 153.768 118.328C152.712 117.709 151.832 116.888 151.128 115.864C150.424 114.829 149.848 113.635 149.4 112.28C148.963 110.915 148.611 109.427 148.344 107.816L149.72 107.592ZM141.448 115.256L142.264 114.216C142.893 114.461 143.523 114.739 144.152 115.048C144.781 115.347 145.363 115.661 145.896 115.992C146.44 116.312 146.899 116.616 147.272 116.904L146.232 117.992C145.88 117.693 145.448 117.379 144.936 117.048C144.424 116.717 143.869 116.397 143.272 116.088C142.675 115.779 142.067 115.501 141.448 115.256Z" fill="white"/>
</svg>
