<svg width="263" height="137" viewBox="0 0 263 137" fill="none" xmlns="http://www.w3.org/2000/svg">
<path d="M15.77 70.7447C15.5 71.611 15.33 72.5843 15.28 73.6063C17.26 74.5213 18.8 74.3655 20.01 73.7718C20.67 73.4993 21.16 73.071 21.66 72.5843C22.16 72.0976 22.59 71.5039 23.03 70.9102C23.47 70.3164 23.85 69.6643 24.24 69.0705C24.4 68.7493 24.62 68.4184 24.84 68.0972C24.89 67.9901 25 67.8246 25.11 67.6689C25.22 67.5132 25.33 67.3964 25.38 67.2406C26.2 66.1018 27.03 65.1285 27.96 64.7002C26.75 63.941 25.49 63.5127 24.11 63.5127C23.45 63.5127 22.74 63.6198 22.08 63.7852C21.42 63.9994 20.76 64.3303 20.1 64.7002C19.44 65.0798 18.89 65.5665 18.34 66.1602C17.74 66.754 17.24 67.4548 16.8 68.214C16.58 68.5936 16.42 69.0219 16.2 69.4015C16.04 69.8297 15.87 70.2677 15.76 70.7544L15.77 70.7447Z" fill="#C7A02E"/>
<path d="M21.04 61.3908C21.7 61.2838 22.3 61.0112 22.85 60.69C23.18 60.4759 23.4 60.3104 23.67 60.0963C24 59.8821 24.27 59.668 24.49 59.4441C24.76 59.23 25.04 58.9574 25.31 58.7433C25.58 58.4708 25.86 58.1982 26.08 57.9841C26.35 57.7116 26.57 57.4974 26.85 57.2249C27.12 57.0107 27.4 56.7966 27.62 56.5727C28.11 56.0861 28.66 55.7065 29.16 55.3853C29.43 55.2198 29.65 55.1127 29.87 54.957C30.14 54.8499 30.42 54.7915 30.64 54.7428C29.71 53.7695 28.61 53.0687 27.34 52.7961C26.08 52.4749 24.7 52.5236 23.38 52.9616C22.67 53.1757 21.95 53.5067 21.35 53.935C20.69 54.3632 20.03 54.8499 19.48 55.5021C19.15 55.7746 18.88 56.0958 18.6 56.4754C18.33 56.7966 18.11 57.1762 17.89 57.5558C17.4 58.315 17.01 59.1813 16.74 60.0963C18.33 61.4492 19.76 61.6634 21.03 61.3908H21.04Z" fill="#C7A02E"/>
<path d="M53.09 14.6992C53.53 14.485 54.02 14.1054 54.41 13.6188C54.79 13.0737 55.18 12.4799 55.45 11.7305C55.72 11.0296 55.94 10.2218 56.11 9.35548C56.22 8.92721 56.27 8.4892 56.33 8.06093C56.38 7.68132 56.44 7.30171 56.49 6.92211C56.71 5.41341 56.87 4.06046 57.2 3.19418C56.16 2.81457 55.17 3.02871 54.34 3.51538C53.9 3.78792 53.52 4.10912 53.19 4.5374C52.81 4.917 52.53 5.40368 52.2 5.93902C51.87 6.4257 51.65 7.01944 51.38 7.61318C51.27 7.93439 51.16 8.26533 51.05 8.58653C50.94 8.90774 50.83 9.23868 50.78 9.55988C50.34 10.9615 50.07 12.3729 49.74 13.94C50.4 14.3682 51 14.6992 51.55 14.8549C52.1 14.962 52.59 14.9133 53.09 14.6894V14.6992Z" fill="#C7A02E"/>
<path d="M31.98 118.624C30.11 117.057 28.13 115.762 26.21 114.73C24.23 113.708 22.25 112.998 20.38 112.57C19.45 112.404 18.57 112.297 17.69 112.297C16.87 112.297 16.04 112.404 15.27 112.618C13.79 113.105 12.52 114.078 11.81 115.645C13.29 116.132 15 117.271 16.92 118.507C17.41 118.828 17.91 119.159 18.4 119.422C18.89 119.743 19.39 120.074 19.94 120.337C20.93 120.931 21.97 121.417 22.96 121.846C24 122.274 24.99 122.605 25.93 122.761C26.86 122.926 27.74 122.868 28.51 122.653C30.1 122.225 31.26 120.979 31.97 118.604L31.98 118.624Z" fill="#C7A02E"/>
<path d="M39.84 127.968C39.24 127.91 38.69 127.861 38.14 127.802C37.1 127.744 36.05 127.744 35.06 127.861C33.08 128.026 31.27 128.513 29.95 129.428C28.58 130.294 27.64 131.647 27.42 133.428C28.24 133.487 29.18 133.643 30.17 133.915C31.21 134.129 32.31 134.46 33.47 134.781C35.78 135.434 38.25 136.134 40.56 136.348C41.11 136.407 41.66 136.456 42.21 136.456C42.76 136.456 43.25 136.397 43.75 136.348C44.74 136.183 45.62 135.969 46.33 135.482C47.81 134.567 48.58 132.942 48.53 130.401C46.17 129.379 43.8 128.669 41.49 128.24C40.94 128.133 40.39 128.026 39.84 127.968Z" fill="#C7A02E"/>
<path d="M43.14 123.004C41.6 122.031 40.17 121.008 38.74 119.928C38.03 119.393 37.31 118.848 36.65 118.254C35.94 117.66 35.28 117.115 34.62 116.473C31.98 114.098 29.51 111.499 27.31 108.637C25.11 105.824 23.13 102.856 21.48 99.7213L20.82 98.5338L20.27 97.2879L19.94 96.6942L19.67 96.1005L19.18 94.8546C18.47 93.2291 17.81 91.5549 17.31 89.8808C16.76 88.1482 16.32 86.4254 15.88 84.6928C15.72 83.8265 15.5 82.9602 15.39 82.1037L15.17 80.7507L15.01 79.4562L14.9 78.7554L14.85 78.1032L14.74 76.7503L14.68 75.4557C14.63 74.969 14.63 74.5408 14.63 74.1028L14.58 72.7498C14.58 72.3215 14.63 71.8835 14.63 71.4552C14.63 70.5403 14.68 69.674 14.74 68.7493C15.01 65.1869 15.62 61.6731 16.61 58.2079C17.6 54.8012 18.92 51.4529 20.57 48.2116C22.22 45.0191 24.2 42.0017 26.45 39.1887L26.83 38.6436L27.27 38.0985L28.15 37.0765C28.75 36.4244 29.36 35.7236 29.96 35.0811C30.62 34.429 31.22 33.7866 31.88 33.1344L32.87 32.2195C33.2 31.8983 33.53 31.5674 33.86 31.3046C36.55 28.8225 39.52 26.7687 42.38 24.4424C43.04 23.8487 43.75 23.2549 44.41 22.6028C45.07 21.9507 45.67 21.2498 46.22 20.549C46.77 19.7898 47.32 19.0403 47.7 18.2227C48.14 17.4148 48.47 16.5486 48.74 15.6823C48.96 14.816 49.12 13.9011 49.18 13.0348C49.18 12.5481 49.23 12.1198 49.23 11.6818V10.981L49.18 10.2802C49.07 8.49896 48.69 6.71773 48.19 4.98517C48.63 6.71773 48.96 8.49896 49.07 10.3386L49.12 10.9907V11.6429C49.12 12.1296 49.07 12.5578 49.01 12.9958C48.96 13.9108 48.79 14.7771 48.52 15.6434C48.25 16.5096 47.92 17.3759 47.48 18.1254C47.04 18.9333 46.55 19.6925 46 20.3933C45.45 21.0941 44.79 21.7463 44.13 22.34C43.53 22.9921 42.81 23.5859 42.1 24.1212C39.3 26.3891 36.22 28.4429 33.47 30.8763C33.09 31.1488 32.76 31.47 32.43 31.7912L31.44 32.7062C30.73 33.2999 30.12 33.9521 29.46 34.5945C28.8 35.2953 28.2 35.9474 27.59 36.5898L26.66 37.6703L26.22 38.1569L25.78 38.702C23.47 41.515 21.44 44.5908 19.68 47.7834C17.98 51.0246 16.55 54.4313 15.45 57.8867C14.41 61.4005 13.69 65.0214 13.36 68.6423C13.31 69.5572 13.2 70.4819 13.2 71.3968C13.2 71.8251 13.15 72.3118 13.15 72.7498V75.5044L13.2 76.8573L13.31 78.259L13.36 78.9111L13.47 79.6119L13.58 80.9649C13.63 81.3931 13.74 81.8798 13.8 82.3178C13.91 83.2328 14.13 84.1575 14.29 85.0237C14.62 86.805 15.06 88.5862 15.61 90.3772C16.1 92.1584 16.76 93.8326 17.42 95.5651L17.97 96.8597L18.24 97.4534L18.51 98.1056L19.11 99.3514L19.71 100.597C21.36 103.897 23.34 106.973 25.59 109.951C27.79 112.92 30.26 115.684 33.01 118.215C33.67 118.867 34.38 119.461 35.04 120.055C35.75 120.648 36.47 121.242 37.18 121.836C38.66 122.975 40.15 124.104 41.69 125.135C44.82 127.189 48.07 129.029 51.47 130.538C58.34 133.565 65.65 135.56 73.07 136.426L73.4 133.351C66.25 132.65 59.22 130.869 52.62 128.056C49.32 126.654 46.13 124.921 43.11 123.033L43.14 123.004Z" fill="#C7A02E"/>
<path d="M16.43 107.06C18.02 107.06 19.45 106.194 20.77 104.199C19.45 102.252 17.97 100.578 16.43 99.1762C14.89 97.7162 13.3 96.5287 11.65 95.7208C10.06 94.8546 8.40999 94.3679 6.91999 94.4263C5.43999 94.4847 4.00999 95.02 2.95999 96.3146C3.55999 96.6942 4.16999 97.2879 4.82999 97.9887C5.48999 98.6896 6.14999 99.4488 6.85999 100.257C7.62999 101.065 8.33999 101.931 9.10999 102.69C9.54999 103.118 9.92999 103.498 10.32 103.878C10.7 104.257 11.14 104.578 11.53 104.9C12.35 105.552 13.23 106.087 14 106.467C14.82 106.846 15.65 107.06 16.42 107.06H16.43Z" fill="#C7A02E"/>
<path d="M8.40001 55.7162C8.51001 56.0958 8.62001 56.5241 8.78001 56.855C9.05001 57.6142 9.38001 58.208 9.88001 58.6947C10.87 59.668 12.24 59.9892 14.33 59.5025C14.55 58.5292 14.66 57.5558 14.71 56.5825C14.76 56.1542 14.76 55.6675 14.82 55.1809V53.8279C14.76 52.913 14.71 52.0467 14.55 51.2388C14.39 50.3725 14.22 49.5646 14 48.8638C13.51 47.3551 12.79 46.1092 11.8 45.243C10.87 44.3767 9.66001 43.89 8.17001 43.9971C8.22001 44.3183 8.28001 44.6492 8.28001 44.9704C8.28001 45.35 8.33001 45.7296 8.28001 46.1579C8.28001 46.9658 8.23001 47.8321 8.17001 48.8054C8.17001 49.2337 8.12001 49.7204 8.12001 50.207C8.07001 50.6937 8.07001 51.1804 8.07001 51.6087V53.0687C8.12001 53.497 8.12001 53.9836 8.18001 54.4216C8.23001 54.8499 8.34001 55.2879 8.40001 55.7162Z" fill="#C7A02E"/>
<path d="M3.50999 64.963C3.55999 65.2355 3.61999 65.5081 3.61999 65.7222C3.72999 66.2089 3.83999 66.6956 3.99999 67.1822C4.21999 68.2043 4.54999 69.1289 4.81999 70.0439C5.19999 70.9102 5.58999 71.718 6.07999 72.3702C6.51999 73.0223 7.06999 73.5577 7.72999 73.9373C8.93999 74.6381 10.48 74.6381 12.4 73.6161C12.35 72.5941 12.24 71.5623 12.07 70.5403C11.96 70.0536 11.91 69.5669 11.74 69.0803C11.63 68.652 11.52 68.1653 11.41 67.7273C11.14 66.8124 10.81 65.8877 10.48 65.0798C10.1 64.2719 9.65999 63.5127 9.26999 62.8119C8.82999 62.1111 8.33999 61.5173 7.78999 60.9723C7.23999 60.4272 6.68999 59.9989 6.08999 59.6777C4.93999 59.0256 3.55999 58.8698 2.07999 59.4052C2.67999 60.544 2.95999 62.3252 3.33999 64.2719C3.38999 64.4861 3.44999 64.7586 3.49999 64.9727L3.50999 64.963Z" fill="#C7A02E"/>
<path d="M3.29 83.1744C3.56 83.661 3.78 84.1477 4.06 84.576C4.55 85.4909 5.1 86.4156 5.71 87.2235C6.31 87.9827 6.92 88.6835 7.58 89.2773C8.29 89.8223 8.95 90.1922 9.67 90.4161C11.1 90.7957 12.64 90.3577 14.4 88.7906C13.63 86.6784 12.75 84.7901 11.71 83.0575C11.22 82.1913 10.61 81.4321 10.06 80.6826C9.46 79.9818 8.85 79.2809 8.19 78.7359C7.59 78.1421 6.87 77.6555 6.21 77.2272C5.55 76.8476 4.84 76.5264 4.18 76.3609C2.75 76.0397 1.32 76.1954 0 77.1201C0.44 77.6652 0.88 78.366 1.32 79.1739C1.7 79.9331 2.14 80.848 2.64 81.763C2.75 81.9771 2.86 82.2497 2.97 82.4638C3.08 82.6779 3.19 82.9505 3.3 83.1646L3.29 83.1744Z" fill="#C7A02E"/>
<path d="M22.36 86.951C22.91 86.4643 23.35 85.8706 23.68 85.2768C24.06 84.6247 24.34 83.9238 24.61 83.223C24.83 82.5222 25.1 81.763 25.32 81.0038C25.43 80.6242 25.54 80.303 25.65 79.9234C25.7 79.7579 25.76 79.5438 25.81 79.3783C25.86 79.2128 25.92 78.9987 25.97 78.8332C26.24 78.1811 26.52 77.5387 26.85 76.9936C27.12 76.3999 27.45 75.9619 27.89 75.592C26.46 75.1637 25.03 75.1053 23.66 75.4265C23 75.592 22.34 75.8548 21.68 76.2344C21.08 76.614 20.47 77.1007 19.98 77.6944C19.43 78.2395 18.94 78.8819 18.55 79.6411C18.11 80.4003 17.84 81.2082 17.56 82.0745C17.12 83.8557 17.07 85.9095 17.51 87.9633C19.76 88.3429 21.25 87.8562 22.35 86.9412L22.36 86.951Z" fill="#C7A02E"/>
<path d="M41.66 38.6923C40.89 36.4244 38.86 34.9644 36.22 34.6918C34.96 34.6334 33.47 34.8573 32.04 35.3926C31.66 35.5581 31.33 35.7138 30.94 35.9377C30.61 36.1032 30.28 36.3173 29.9 36.5315C29.57 36.804 29.24 37.0181 28.91 37.2907C28.58 37.6119 28.25 37.8844 27.98 38.2056C28.75 39.8798 29.79 40.6877 30.95 40.9602C31.5 41.0673 32.1 41.0673 32.71 41.0186C33.31 40.9115 33.97 40.8045 34.58 40.5903C37.11 39.8311 39.8 38.4295 41.67 38.702L41.66 38.6923Z" fill="#C7A02E"/>
<path d="M35.01 115.49C37.37 114.623 38.47 113.27 38.91 111.81C39.18 111.11 39.24 110.35 39.24 109.542C39.19 108.783 39.08 107.975 38.91 107.167C38.75 106.36 38.53 105.542 38.31 104.685C38.2 104.306 38.09 103.926 38.04 103.498C37.93 103.118 37.82 102.69 37.77 102.31C37.44 100.802 37.33 99.3417 37.66 98.2613C36.07 98.6409 34.69 99.4001 33.65 100.481C33.16 101.026 32.66 101.619 32.33 102.32C31.95 103.021 31.62 103.78 31.51 104.646C31.13 106.272 31.18 108.16 31.78 110.049C32.38 111.937 33.43 113.835 35.02 115.509L35.01 115.49Z" fill="#C7A02E"/>
<path d="M46.05 32.3168C47.48 31.8885 48.85 31.4019 49.95 31.2948C49.9 30.7011 49.68 30.156 49.35 29.7277C49.02 29.241 48.64 28.9198 48.14 28.6473C47.15 28.0535 45.94 27.781 44.57 27.7323C43.25 27.6253 41.82 27.7907 40.34 28.1606C38.91 28.5402 37.43 29.1826 36.05 30.156C36.49 31.8301 37.37 32.7451 38.36 33.1831C39.4 33.6114 40.56 33.6114 41.88 33.3972C43.2 33.1831 44.63 32.7451 46.06 32.3168H46.05Z" fill="#C7A02E"/>
<path d="M15.38 45.4473C16.09 46.5277 17.3 47.1799 19.28 47.1799C19.72 46.3136 20.05 45.4473 20.32 44.5908C20.48 44.1625 20.59 43.7245 20.7 43.2962C20.81 42.8679 20.92 42.4883 21.03 42.0503C21.19 41.184 21.3 40.3762 21.36 39.5683C21.41 38.8091 21.36 38.0012 21.31 37.3004C21.04 34.3803 19.66 32.054 16.91 31.6841C16.91 32.2779 16.8 32.93 16.58 33.6795C16.42 34.3803 16.2 35.1882 15.98 36.0545C15.71 36.8624 15.49 37.7286 15.27 38.5949C15.05 39.4612 14.89 40.3762 14.78 41.184C14.73 41.6123 14.73 41.9919 14.73 42.4299C14.73 42.8095 14.73 43.1891 14.78 43.5687C14.84 44.2696 15.05 44.9217 15.38 45.457V45.4473Z" fill="#C7A02E"/>
<path d="M29.01 42.9653C28.3 43.0237 27.64 43.1794 26.92 43.452C26.21 43.6661 25.49 44.0457 24.83 44.474C24.5 44.6881 24.17 44.9607 23.84 45.2332C23.51 45.5057 23.18 45.7783 22.91 46.0995C22.25 46.6932 21.76 47.394 21.26 48.2117C22.41 49.7788 23.73 50.3238 24.94 50.3725C25.54 50.3725 26.15 50.2654 26.81 50.1C27.08 49.9929 27.41 49.8274 27.69 49.7203C28.02 49.5549 28.29 49.4478 28.62 49.2921C30.98 47.9975 33.46 46.1579 35.38 46.0508C34.12 43.8316 31.75 42.7025 29 42.975L29.01 42.9653Z" fill="#C7A02E"/>
<path d="M28.57 99.9744C29.01 99.3806 29.23 98.6798 29.45 97.9206C29.61 97.2198 29.72 96.4119 29.78 95.6527C29.83 95.2244 29.83 94.8448 29.83 94.4068C29.89 94.0272 29.89 93.5989 29.89 93.2193C29.89 92.4115 29.94 91.5938 30 90.8444C30.05 90.0851 30.16 89.3843 30.27 88.7322C30.43 88.08 30.65 87.4863 30.98 87.058C29.39 86.9996 27.96 87.3306 26.69 88.0314C25.43 88.7906 24.33 89.871 23.56 91.331C22.85 92.7911 22.41 94.5236 22.41 96.4119C22.46 98.3586 22.96 100.354 24 102.301C26.36 102.087 27.74 101.162 28.56 99.9744H28.57Z" fill="#C7A02E"/>
<path d="M41.44 16.5973C41.39 17.0839 41.33 17.5706 41.33 17.9989C41.33 18.4856 41.33 18.9722 41.44 19.5076C41.55 20.4809 42.15 21.4543 43.53 22.048C44.13 21.5029 44.63 20.8605 45.01 20.2084C45.39 19.5562 45.72 18.9138 45.89 18.2617C46.27 16.9671 46.16 15.7796 45.72 14.8063C45.61 14.5922 45.5 14.378 45.34 14.1541C45.23 13.9887 45.07 13.7745 44.85 13.6091C44.52 13.2879 44.14 13.0153 43.7 12.8012C42.88 12.4216 41.89 12.2561 40.9 12.149C41.34 12.5773 41.56 13.2295 41.61 14.0373C41.66 14.7966 41.55 15.6628 41.44 16.5778V16.5973Z" fill="#C7A02E"/>
<path d="M34.95 28.8614C36.21 27.6739 37.26 26.428 38.03 25.1335C38.74 23.8876 39.18 22.5444 39.24 21.3472C39.35 20.1013 39.02 19.0208 38.47 18.1059C38.2 17.6192 37.87 17.1909 37.48 16.86C37.1 16.4804 36.66 16.1592 36.16 15.8867C36.21 16.6459 35.83 17.6192 35.23 18.7483C34.63 19.8287 33.8 21.1233 33.2 22.3692C32.54 23.6637 32.16 24.9096 32.32 26.0484C32.54 27.1873 33.31 28.1022 34.96 28.8614H34.95Z" fill="#C7A02E"/>
<path d="M26.49 37.0181C26.76 36.6385 27.04 36.2589 27.26 35.8793C27.53 35.4997 27.75 35.1785 27.97 34.7989C28.19 34.4193 28.35 34.0397 28.52 33.6601C28.74 33.2805 28.9 32.9009 29.07 32.5212C29.67 31.0126 30.06 29.6012 30.17 28.1996C30.44 25.445 29.57 23.0116 27.09 22.2037C26.65 24.3159 24.4 27.5572 23.41 30.5259C23.19 31.2851 23.03 32.0346 22.97 32.6867C22.92 33.3875 22.97 34.0397 23.19 34.575C23.63 35.7138 24.62 36.5217 26.49 37.0084V37.0181Z" fill="#C7A02E"/>
<path d="M55.4 16.3734C54.91 16.4318 54.36 16.5875 53.81 16.8016C53.54 16.9087 53.26 17.0742 52.93 17.1812C52.66 17.3467 52.38 17.5024 52.11 17.7263C50.96 18.4271 49.75 19.2934 48.48 20.2084C47.88 20.695 47.22 21.1817 46.56 21.6684C45.96 22.1551 45.3 22.6417 44.64 23.1771C45.13 24.8026 45.9 25.6591 47 25.9317C47.55 26.0387 48.21 25.9901 48.87 25.8246C49.58 25.6105 50.3 25.2795 51.07 24.8512C52.55 23.985 54.04 22.632 55.25 21.2304C56.51 19.8288 57.45 18.4174 58.27 17.5511C57.5 16.5291 56.46 16.1982 55.41 16.3636L55.4 16.3734Z" fill="#C7A02E"/>
<path d="M52.05 116.405C51.23 114.896 50.24 113.377 49.47 111.976C49.09 111.217 48.7 110.574 48.48 109.864C48.26 109.211 48.1 108.569 48.1 107.975C46.67 108.783 45.57 109.971 44.8 111.382C44.09 112.784 43.76 114.409 43.92 116.142C43.97 117.008 44.19 117.923 44.52 118.789C44.68 119.276 44.9 119.704 45.12 120.142C45.34 120.57 45.61 121.009 45.89 121.437C47.04 123.169 48.75 124.736 50.78 125.924C52.81 124.298 53.53 122.624 53.53 121.057C53.53 120.249 53.37 119.49 53.15 118.682C52.99 118.303 52.82 117.923 52.66 117.543C52.5 117.164 52.28 116.784 52.06 116.405H52.05Z" fill="#C7A02E"/>
<path d="M42.87 6.60095L42.92 6.81508L42.97 6.92215C43.02 7.13629 43.08 7.30176 43.19 7.51589C43.3 7.8955 43.46 8.32378 43.57 8.70338C43.73 9.13166 43.9 9.56966 44.06 9.94927C44.28 10.3775 44.44 10.8156 44.77 11.1952C45.04 11.5748 45.43 11.896 45.92 12.2172C46.41 12.4897 47.02 12.7038 47.79 12.7623C48.39 11.4677 48.56 10.0563 48.34 8.86885C48.29 8.59631 48.23 8.32377 48.12 8.06097C48.01 7.73976 47.9 7.46723 47.79 7.25309C47.57 6.70801 47.24 6.23107 46.91 5.85147C46.58 5.47186 46.14 5.09225 45.76 4.82945C45.32 4.55691 44.88 4.34277 44.44 4.1773C43.51 3.90477 42.52 3.90477 41.53 4.1773C42.08 4.66398 42.41 5.47186 42.74 6.28947C42.74 6.39654 42.79 6.50361 42.85 6.61068L42.87 6.60095Z" fill="#C7A02E"/>
<path d="M246.71 70.7447C246.98 71.611 247.15 72.5843 247.2 73.6063C245.22 74.5213 243.68 74.3655 242.47 73.7718C241.81 73.4993 241.32 73.071 240.82 72.5843C240.32 72.0976 239.89 71.5039 239.45 70.9102C239.01 70.3164 238.63 69.6643 238.24 69.0705C238.08 68.7493 237.86 68.4184 237.64 68.0972C237.59 67.9901 237.48 67.8246 237.37 67.6689C237.26 67.5132 237.15 67.3964 237.1 67.2406C236.28 66.1018 235.45 65.1285 234.52 64.7002C235.73 63.941 236.99 63.5127 238.37 63.5127C239.03 63.5127 239.74 63.6198 240.4 63.7852C241.06 63.9994 241.72 64.3303 242.38 64.7002C243.04 65.0798 243.59 65.5665 244.14 66.1602C244.74 66.754 245.24 67.4548 245.68 68.214C245.9 68.5936 246.06 69.0219 246.28 69.4015C246.44 69.8297 246.61 70.2677 246.72 70.7544L246.71 70.7447Z" fill="#C7A02E"/>
<path d="M241.44 61.3908C240.78 61.2838 240.18 61.0112 239.63 60.69C239.3 60.4759 239.08 60.3104 238.81 60.0963C238.48 59.8821 238.21 59.668 237.99 59.4441C237.72 59.23 237.44 58.9574 237.17 58.7433C236.9 58.4708 236.62 58.1982 236.4 57.9841C236.13 57.7116 235.91 57.4974 235.63 57.2249C235.36 57.0107 235.08 56.7966 234.86 56.5727C234.37 56.0861 233.82 55.7065 233.32 55.3853C233.05 55.2198 232.83 55.1127 232.61 54.957C232.34 54.8499 232.06 54.7915 231.84 54.7428C232.77 53.7695 233.87 53.0687 235.14 52.7961C236.4 52.4749 237.78 52.5236 239.1 52.9616C239.81 53.1757 240.53 53.5067 241.13 53.935C241.79 54.3632 242.45 54.8499 243 55.5021C243.33 55.7746 243.6 56.0958 243.88 56.4754C244.15 56.7966 244.37 57.1762 244.59 57.5558C245.08 58.315 245.47 59.1813 245.74 60.0963C244.15 61.4492 242.72 61.6634 241.45 61.3908H241.44Z" fill="#C7A02E"/>
<path d="M209.39 14.6992C208.95 14.485 208.46 14.1054 208.07 13.6188C207.69 13.0737 207.3 12.4799 207.03 11.7305C206.76 11.0296 206.54 10.2218 206.37 9.35548C206.26 8.92721 206.21 8.4892 206.15 8.06093C206.1 7.68132 206.04 7.30171 205.99 6.92211C205.77 5.41341 205.61 4.06046 205.28 3.19418C206.32 2.81457 207.31 3.02871 208.14 3.51538C208.58 3.78792 208.96 4.10912 209.29 4.5374C209.67 4.917 209.95 5.40368 210.28 5.93902C210.61 6.4257 210.83 7.01944 211.1 7.61318C211.21 7.93439 211.32 8.26533 211.43 8.58653C211.54 8.90774 211.65 9.23868 211.7 9.55988C212.14 10.9615 212.41 12.3729 212.74 13.94C212.08 14.3682 211.48 14.6992 210.93 14.8549C210.38 14.962 209.89 14.9133 209.39 14.6894V14.6992Z" fill="#C7A02E"/>
<path d="M230.5 118.624C232.37 117.057 234.35 115.762 236.27 114.73C238.25 113.708 240.23 112.998 242.1 112.57C243.03 112.404 243.91 112.297 244.79 112.297C245.61 112.297 246.44 112.404 247.21 112.618C248.69 113.105 249.96 114.078 250.67 115.645C249.19 116.132 247.48 117.271 245.56 118.507C245.07 118.828 244.57 119.159 244.08 119.422C243.59 119.743 243.09 120.074 242.54 120.337C241.55 120.931 240.51 121.417 239.52 121.846C238.48 122.274 237.49 122.605 236.55 122.761C235.62 122.926 234.74 122.868 233.97 122.653C232.38 122.225 231.22 120.979 230.51 118.604L230.5 118.624Z" fill="#C7A02E"/>
<path d="M222.64 127.968C223.24 127.91 223.79 127.861 224.34 127.802C225.38 127.744 226.43 127.744 227.42 127.861C229.4 128.026 231.21 128.513 232.53 129.428C233.9 130.294 234.84 131.647 235.06 133.428C234.24 133.487 233.3 133.643 232.31 133.915C231.27 134.129 230.17 134.46 229.01 134.781C226.7 135.434 224.23 136.134 221.92 136.348C221.37 136.407 220.82 136.456 220.27 136.456C219.72 136.456 219.23 136.397 218.73 136.348C217.74 136.183 216.86 135.969 216.15 135.482C214.67 134.567 213.9 132.942 213.95 130.401C216.31 129.379 218.68 128.669 220.99 128.24C221.54 128.133 222.09 128.026 222.64 127.968Z" fill="#C7A02E"/>
<path d="M219.34 123.004C220.88 122.031 222.31 121.008 223.74 119.928C224.45 119.393 225.17 118.848 225.83 118.254C226.54 117.66 227.2 117.115 227.86 116.473C230.5 114.098 232.97 111.499 235.17 108.637C237.37 105.824 239.35 102.856 241 99.7213L241.66 98.5338L242.21 97.2879L242.54 96.6942L242.81 96.1005L243.3 94.8546C244.01 93.2291 244.67 91.5549 245.17 89.8808C245.72 88.1482 246.16 86.4254 246.6 84.6928C246.76 83.8265 246.98 82.9602 247.09 82.1037L247.31 80.7507L247.47 79.4562L247.58 78.7554L247.63 78.1032L247.74 76.7503L247.8 75.4557C247.85 74.969 247.85 74.5408 247.85 74.1028L247.9 72.7498C247.9 72.3215 247.85 71.8835 247.85 71.4552C247.85 70.5403 247.8 69.674 247.74 68.7493C247.47 65.1869 246.86 61.6731 245.87 58.2079C244.88 54.8012 243.56 51.4529 241.91 48.2116C240.26 45.0191 238.28 42.0017 236.03 39.1887L235.65 38.6436L235.21 38.0985L234.33 37.0765C233.73 36.4244 233.12 35.7236 232.52 35.0811C231.86 34.429 231.26 33.7866 230.6 33.1344L229.61 32.2195C229.28 31.8983 228.95 31.5674 228.62 31.3046C225.93 28.8225 222.96 26.7687 220.1 24.4424C219.44 23.8487 218.73 23.2549 218.07 22.6028C217.41 21.9507 216.81 21.2498 216.26 20.549C215.71 19.7898 215.16 19.0403 214.78 18.2227C214.34 17.4148 214.01 16.5486 213.74 15.6823C213.52 14.816 213.36 13.9011 213.3 13.0348C213.3 12.5481 213.25 12.1198 213.25 11.6818V10.981L213.3 10.2802C213.41 8.49896 213.79 6.71773 214.29 4.98517C213.85 6.71773 213.52 8.49896 213.41 10.3386L213.36 10.9907V11.6429C213.36 12.1296 213.41 12.5578 213.47 12.9958C213.52 13.9108 213.69 14.7771 213.96 15.6434C214.23 16.5096 214.56 17.3759 215 18.1254C215.44 18.9333 215.93 19.6925 216.48 20.3933C217.03 21.0941 217.69 21.7463 218.35 22.34C218.95 22.9921 219.67 23.5859 220.38 24.1212C223.18 26.3891 226.26 28.4429 229.01 30.8763C229.39 31.1488 229.72 31.47 230.05 31.7912L231.04 32.7062C231.75 33.2999 232.36 33.9521 233.02 34.5945C233.68 35.2953 234.28 35.9474 234.89 36.5898L235.82 37.6703L236.26 38.1569L236.7 38.702C239.01 41.515 241.04 44.5908 242.8 47.7834C244.5 51.0246 245.93 54.4313 247.03 57.8867C248.07 61.4005 248.79 65.0214 249.12 68.6423C249.17 69.5572 249.28 70.4819 249.28 71.3968C249.28 71.8251 249.33 72.3118 249.33 72.7498V74.1028C249.33 74.5894 249.33 75.0177 249.33 75.5044L249.28 76.8573L249.17 78.259L249.12 78.9111L249.01 79.6119L248.9 80.9649C248.85 81.3931 248.74 81.8798 248.68 82.3178C248.57 83.2328 248.35 84.1575 248.19 85.0237C247.86 86.805 247.42 88.5862 246.87 90.3772C246.38 92.1584 245.72 93.8326 245.06 95.5651L244.51 96.8597L244.24 97.4534L243.97 98.1056L243.37 99.3514L242.77 100.597C241.12 103.897 239.14 106.973 236.89 109.951C234.69 112.92 232.22 115.684 229.47 118.215C228.81 118.867 228.1 119.461 227.44 120.055C226.73 120.648 226.01 121.242 225.3 121.836C223.82 122.975 222.33 124.104 220.79 125.135C217.66 127.189 214.41 129.029 211.01 130.538C204.14 133.565 196.83 135.56 189.41 136.426L189.08 133.351C196.23 132.65 203.26 130.869 209.86 128.056C213.16 126.654 216.35 124.921 219.37 123.033L219.34 123.004Z" fill="#C7A02E"/>
<path d="M246.05 107.06C244.46 107.06 243.03 106.194 241.71 104.199C243.03 102.252 244.51 100.578 246.05 99.1762C247.59 97.7162 249.18 96.5287 250.83 95.7208C252.42 94.8546 254.07 94.3679 255.56 94.4263C257.04 94.4847 258.47 95.02 259.52 96.3146C258.92 96.6942 258.31 97.2879 257.65 97.9887C256.99 98.6896 256.33 99.4488 255.62 100.257C254.85 101.065 254.14 101.931 253.37 102.69C252.93 103.118 252.55 103.498 252.16 103.878C251.78 104.257 251.34 104.578 250.95 104.9C250.13 105.552 249.25 106.087 248.48 106.467C247.66 106.846 246.83 107.06 246.06 107.06H246.05Z" fill="#C7A02E"/>
<path d="M254.08 55.7162C253.97 56.0958 253.86 56.5241 253.7 56.855C253.43 57.6142 253.1 58.208 252.6 58.6947C251.61 59.668 250.24 59.9892 248.15 59.5025C247.93 58.5292 247.82 57.5558 247.77 56.5825C247.72 56.1542 247.72 55.6675 247.66 55.1809V53.8279C247.72 52.913 247.77 52.0467 247.93 51.2388C248.09 50.3725 248.26 49.5646 248.48 48.8638C248.97 47.3551 249.69 46.1092 250.68 45.243C251.61 44.3767 252.82 43.89 254.31 43.9971C254.26 44.3183 254.2 44.6492 254.2 44.9704C254.2 45.35 254.15 45.7296 254.2 46.1579C254.2 46.9658 254.25 47.8321 254.31 48.8054C254.31 49.2337 254.36 49.7204 254.36 50.207C254.41 50.6937 254.41 51.1804 254.41 51.6087C254.41 52.0953 254.41 52.582 254.41 53.0687C254.36 53.497 254.36 53.9836 254.3 54.4216C254.25 54.8499 254.14 55.2879 254.08 55.7162Z" fill="#C7A02E"/>
<path d="M258.97 64.963C258.92 65.2355 258.86 65.5081 258.86 65.7222C258.75 66.2089 258.64 66.6956 258.48 67.1822C258.26 68.2043 257.93 69.1289 257.66 70.0439C257.28 70.9102 256.89 71.718 256.4 72.3702C255.96 73.0223 255.41 73.5577 254.75 73.9373C253.54 74.6381 252 74.6381 250.08 73.6161C250.13 72.5941 250.24 71.5623 250.41 70.5403C250.52 70.0536 250.57 69.5669 250.74 69.0803C250.85 68.652 250.96 68.1653 251.07 67.7273C251.34 66.8124 251.67 65.8877 252 65.0798C252.38 64.2719 252.82 63.5127 253.21 62.8119C253.65 62.1111 254.14 61.5173 254.69 60.9723C255.24 60.4272 255.79 59.9989 256.39 59.6777C257.54 59.0256 258.92 58.8698 260.4 59.4052C259.8 60.544 259.52 62.3252 259.14 64.2719C259.09 64.4861 259.03 64.7586 258.98 64.9727L258.97 64.963Z" fill="#C7A02E"/>
<path d="M259.19 83.1744C258.92 83.661 258.7 84.1477 258.42 84.576C257.93 85.4909 257.38 86.4156 256.77 87.2235C256.17 87.9827 255.56 88.6835 254.9 89.2773C254.19 89.8223 253.53 90.1922 252.81 90.4161C251.38 90.7957 249.84 90.3577 248.08 88.7906C248.85 86.6784 249.73 84.7901 250.77 83.0575C251.26 82.1913 251.87 81.4321 252.42 80.6826C253.02 79.9818 253.63 79.2809 254.29 78.7359C254.89 78.1421 255.61 77.6555 256.27 77.2272C256.93 76.8476 257.64 76.5264 258.3 76.3609C259.73 76.0397 261.16 76.1954 262.48 77.1201C262.04 77.6652 261.6 78.366 261.16 79.1739C260.78 79.9331 260.34 80.848 259.84 81.763C259.73 81.9771 259.62 82.2497 259.51 82.4638C259.4 82.6779 259.29 82.9505 259.18 83.1646L259.19 83.1744Z" fill="#C7A02E"/>
<path d="M240.12 86.951C239.57 86.4643 239.13 85.8706 238.8 85.2768C238.42 84.6247 238.14 83.9238 237.87 83.223C237.65 82.5222 237.38 81.763 237.16 81.0038C237.05 80.6242 236.94 80.303 236.83 79.9234C236.78 79.7579 236.72 79.5438 236.67 79.3783C236.62 79.2128 236.56 78.9987 236.51 78.8332C236.24 78.1811 235.96 77.5387 235.63 76.9936C235.36 76.3999 235.03 75.9619 234.59 75.592C236.02 75.1637 237.45 75.1053 238.82 75.4265C239.48 75.592 240.14 75.8548 240.8 76.2344C241.4 76.614 242.01 77.1007 242.5 77.6944C243.05 78.2395 243.54 78.8819 243.93 79.6411C244.37 80.4003 244.64 81.2082 244.92 82.0745C245.36 83.8557 245.41 85.9095 244.97 87.9633C242.72 88.3429 241.23 87.8562 240.13 86.9412L240.12 86.951Z" fill="#C7A02E"/>
<path d="M220.82 38.6923C221.59 36.4244 223.62 34.9644 226.26 34.6918C227.52 34.6334 229.01 34.8573 230.44 35.3926C230.82 35.5581 231.15 35.7138 231.54 35.9377C231.87 36.1032 232.2 36.3173 232.58 36.5315C232.91 36.804 233.24 37.0181 233.57 37.2907C233.9 37.6119 234.23 37.8844 234.5 38.2056C233.73 39.8798 232.69 40.6877 231.53 40.9602C230.98 41.0673 230.38 41.0673 229.77 41.0186C229.17 40.9115 228.51 40.8045 227.9 40.5903C225.37 39.8311 222.68 38.4295 220.81 38.702L220.82 38.6923Z" fill="#C7A02E"/>
<path d="M227.47 115.49C225.11 114.623 224.01 113.27 223.57 111.81C223.3 111.11 223.24 110.35 223.24 109.542C223.29 108.783 223.4 107.975 223.57 107.167C223.73 106.36 223.95 105.542 224.17 104.685C224.28 104.306 224.39 103.926 224.44 103.498C224.55 103.118 224.66 102.69 224.71 102.31C225.04 100.802 225.15 99.3417 224.82 98.2613C226.41 98.6409 227.79 99.4001 228.83 100.481C229.32 101.026 229.82 101.619 230.15 102.32C230.53 103.021 230.86 103.78 230.97 104.646C231.35 106.272 231.3 108.16 230.7 110.049C230.1 111.937 229.05 113.835 227.46 115.509L227.47 115.49Z" fill="#C7A02E"/>
<path d="M216.43 32.3168C215 31.8885 213.63 31.4019 212.53 31.2948C212.58 30.7011 212.8 30.156 213.13 29.7277C213.46 29.241 213.84 28.9198 214.34 28.6473C215.33 28.0535 216.54 27.781 217.91 27.7323C219.23 27.6253 220.66 27.7907 222.14 28.1606C223.57 28.5402 225.05 29.1826 226.43 30.156C225.99 31.8301 225.11 32.7451 224.12 33.1831C223.08 33.6114 221.92 33.6114 220.6 33.3972C219.28 33.1831 217.85 32.7451 216.42 32.3168H216.43Z" fill="#C7A02E"/>
<path d="M247.1 45.4473C246.39 46.5277 245.18 47.1799 243.2 47.1799C242.76 46.3136 242.43 45.4473 242.16 44.5908C242 44.1625 241.89 43.7245 241.78 43.2962C241.67 42.8679 241.56 42.4883 241.45 42.0503C241.29 41.184 241.18 40.3762 241.12 39.5683C241.07 38.8091 241.12 38.0012 241.17 37.3004C241.44 34.3803 242.82 32.054 245.57 31.6841C245.57 32.2779 245.68 32.93 245.9 33.6795C246.06 34.3803 246.28 35.1882 246.5 36.0545C246.77 36.8624 246.99 37.7286 247.21 38.5949C247.43 39.4612 247.59 40.3762 247.7 41.184C247.75 41.6123 247.75 41.9919 247.75 42.4299C247.75 42.8095 247.75 43.1891 247.7 43.5687C247.64 44.2696 247.43 44.9217 247.1 45.457V45.4473Z" fill="#C7A02E"/>
<path d="M233.47 42.9653C234.18 43.0237 234.84 43.1794 235.56 43.452C236.27 43.6661 236.99 44.0457 237.65 44.474C237.98 44.6881 238.31 44.9607 238.64 45.2332C238.97 45.5057 239.3 45.7783 239.57 46.0995C240.23 46.6932 240.72 47.394 241.22 48.2117C240.07 49.7788 238.75 50.3238 237.54 50.3725C236.94 50.3725 236.33 50.2654 235.67 50.1C235.4 49.9929 235.07 49.8274 234.79 49.7203C234.46 49.5549 234.19 49.4478 233.86 49.2921C231.5 47.9975 229.02 46.1579 227.1 46.0508C228.36 43.8316 230.73 42.7025 233.48 42.975L233.47 42.9653Z" fill="#C7A02E"/>
<path d="M233.91 99.9744C233.47 99.3806 233.25 98.6798 233.03 97.9206C232.87 97.2198 232.76 96.4119 232.7 95.6527C232.65 95.2244 232.65 94.8448 232.65 94.4068C232.59 94.0272 232.59 93.5989 232.59 93.2193C232.59 92.4115 232.54 91.5938 232.48 90.8444C232.43 90.0851 232.32 89.3843 232.21 88.7322C232.05 88.08 231.83 87.4863 231.5 87.058C233.09 86.9996 234.52 87.3306 235.79 88.0314C237.05 88.7906 238.15 89.871 238.92 91.331C239.63 92.7911 240.07 94.5236 240.07 96.4119C240.02 98.3586 239.52 100.354 238.48 102.301C236.12 102.087 234.74 101.162 233.92 99.9744H233.91Z" fill="#C7A02E"/>
<path d="M221.04 16.5973C221.09 17.0839 221.15 17.5706 221.15 17.9989C221.15 18.4856 221.15 18.9722 221.04 19.5076C220.93 20.4809 220.33 21.4543 218.95 22.048C218.35 21.5029 217.85 20.8605 217.47 20.2084C217.09 19.5562 216.76 18.9138 216.59 18.2617C216.21 16.9671 216.32 15.7796 216.76 14.8063C216.87 14.5922 216.98 14.378 217.14 14.1541C217.25 13.9887 217.41 13.7745 217.63 13.6091C217.96 13.2879 218.34 13.0153 218.78 12.8012C219.6 12.4216 220.59 12.2561 221.58 12.149C221.14 12.5773 220.92 13.2295 220.87 14.0373C220.82 14.7966 220.93 15.6628 221.04 16.5778V16.5973Z" fill="#C7A02E"/>
<path d="M227.53 28.8614C226.27 27.6739 225.22 26.428 224.45 25.1335C223.74 23.8876 223.3 22.5444 223.24 21.3472C223.13 20.1013 223.46 19.0208 224.01 18.1059C224.28 17.6192 224.61 17.1909 225 16.86C225.38 16.4804 225.82 16.1592 226.32 15.8867C226.27 16.6459 226.65 17.6192 227.25 18.7483C227.85 19.8287 228.68 21.1233 229.28 22.3692C229.94 23.6637 230.32 24.9096 230.16 26.0484C229.94 27.1873 229.17 28.1022 227.52 28.8614H227.53Z" fill="#C7A02E"/>
<path d="M235.99 37.0181C235.72 36.6385 235.44 36.2589 235.22 35.8793C234.95 35.4997 234.73 35.1785 234.51 34.7989C234.29 34.4193 234.13 34.0397 233.96 33.6601C233.74 33.2805 233.58 32.9009 233.41 32.5212C232.81 31.0126 232.42 29.6012 232.31 28.1996C232.04 25.445 232.91 23.0116 235.39 22.2037C235.83 24.3159 238.08 27.5572 239.07 30.5259C239.29 31.2851 239.45 32.0346 239.51 32.6867C239.56 33.3875 239.51 34.0397 239.29 34.575C238.85 35.7138 237.86 36.5217 235.99 37.0084V37.0181Z" fill="#C7A02E"/>
<path d="M207.08 16.3734C207.57 16.4318 208.12 16.5875 208.67 16.8016C208.94 16.9087 209.22 17.0742 209.55 17.1812C209.82 17.3467 210.1 17.5024 210.37 17.7263C211.52 18.4271 212.73 19.2934 214 20.2084C214.6 20.695 215.26 21.1817 215.92 21.6684C216.52 22.1551 217.18 22.6417 217.84 23.1771C217.35 24.8026 216.58 25.6591 215.48 25.9317C214.93 26.0387 214.27 25.9901 213.61 25.8246C212.9 25.6105 212.18 25.2795 211.41 24.8512C209.93 23.985 208.44 22.632 207.23 21.2304C205.97 19.8288 205.03 18.4174 204.21 17.5511C204.98 16.5291 206.02 16.1982 207.07 16.3636L207.08 16.3734Z" fill="#C7A02E"/>
<path d="M210.43 116.405C211.25 114.896 212.24 113.377 213.01 111.976C213.39 111.217 213.78 110.574 214 109.864C214.22 109.211 214.38 108.569 214.38 107.975C215.81 108.783 216.91 109.971 217.68 111.382C218.39 112.784 218.72 114.409 218.56 116.142C218.51 117.008 218.29 117.923 217.96 118.789C217.8 119.276 217.58 119.704 217.36 120.142C217.14 120.57 216.87 121.009 216.59 121.437C215.44 123.169 213.73 124.736 211.7 125.924C209.67 124.298 208.95 122.624 208.95 121.057C208.95 120.249 209.11 119.49 209.33 118.682C209.49 118.303 209.66 117.923 209.82 117.543C209.98 117.164 210.2 116.784 210.42 116.405H210.43Z" fill="#C7A02E"/>
<path d="M219.61 6.60095L219.56 6.81508L219.51 6.92215C219.46 7.13629 219.4 7.30176 219.29 7.51589C219.18 7.8955 219.02 8.32378 218.91 8.70338C218.75 9.13166 218.58 9.56966 218.42 9.94927C218.2 10.3775 218.04 10.8156 217.71 11.1952C217.44 11.5748 217.05 11.896 216.56 12.2172C216.07 12.4897 215.46 12.7038 214.69 12.7623C214.09 11.4677 213.92 10.0563 214.14 8.86885C214.19 8.59631 214.25 8.32377 214.36 8.06097C214.47 7.73976 214.58 7.46723 214.69 7.25309C214.91 6.70801 215.24 6.23107 215.57 5.85147C215.9 5.47186 216.34 5.09225 216.72 4.82945C217.16 4.55691 217.6 4.34277 218.04 4.1773C218.97 3.90477 219.96 3.90477 220.95 4.1773C220.4 4.66398 220.07 5.47186 219.74 6.28947C219.74 6.39654 219.69 6.50361 219.63 6.61068L219.61 6.60095Z" fill="#C7A02E"/>
<path d="M90.8007 50V43.28H99.7607V17.128H92.2007V11.976C94.2914 11.6027 96.0834 11.1547 97.5767 10.632C99.1074 10.072 100.526 9.36266 101.833 8.504H107.937V43.28H115.721V50H90.8007ZM134.752 50.784C132.549 50.784 130.589 50.5227 128.872 50C127.155 49.4773 125.624 48.7867 124.28 47.928C122.936 47.0693 121.741 46.136 120.696 45.128L124.504 39.864C125.288 40.648 126.128 41.3573 127.024 41.992C127.957 42.6267 128.965 43.1307 130.048 43.504C131.168 43.8773 132.363 44.064 133.632 44.064C135.051 44.064 136.301 43.7653 137.384 43.168C138.504 42.5707 139.381 41.712 140.016 40.592C140.651 39.4347 140.968 38.0533 140.968 36.448C140.968 34.0587 140.315 32.2107 139.008 30.904C137.739 29.5973 136.059 28.944 133.968 28.944C132.773 28.944 131.747 29.112 130.888 29.448C130.029 29.7467 128.984 30.288 127.752 31.072L124 28.664L125.12 8.504H147.296V15.448H132.232L131.448 24.24C132.269 23.8667 133.072 23.5867 133.856 23.4C134.64 23.2133 135.499 23.12 136.432 23.12C138.747 23.12 140.875 23.5867 142.816 24.52C144.757 25.416 146.307 26.8347 147.464 28.776C148.621 30.7173 149.2 33.2 149.2 36.224C149.2 39.2853 148.509 41.9173 147.128 44.12C145.784 46.2853 144.011 47.9467 141.808 49.104C139.643 50.224 137.291 50.784 134.752 50.784ZM158.223 29.504L161.175 30.272C160.743 31.456 160.231 32.616 159.639 33.752C159.063 34.888 158.431 35.944 157.743 36.92C157.071 37.88 156.375 38.72 155.655 39.44C155.463 39.28 155.215 39.08 154.911 38.84C154.607 38.584 154.295 38.344 153.975 38.12C153.671 37.896 153.399 37.712 153.159 37.568C153.895 36.944 154.583 36.208 155.223 35.36C155.863 34.496 156.439 33.568 156.951 32.576C157.463 31.568 157.887 30.544 158.223 29.504ZM158.751 32.24H174.015V35.024H157.359L158.751 32.24ZM157.047 37.928H173.439V40.616H159.927V45.656H157.047V37.928ZM153.231 44.24H175.311V47H153.231V44.24ZM164.103 33.68H167.079V52.16H164.103V33.68Z" fill="#FFFF59"/>
<path d="M103.32 72.768V78.544H101.864V74.176H99.928V72.768H103.32ZM103.32 77.936C103.661 78.5013 104.147 78.9173 104.776 79.184C105.416 79.4507 106.184 79.6053 107.08 79.648C107.539 79.6587 108.093 79.6693 108.744 79.68C109.405 79.68 110.093 79.68 110.808 79.68C111.533 79.6693 112.237 79.6533 112.92 79.632C113.603 79.6 114.2 79.568 114.712 79.536C114.659 79.6427 114.6 79.7867 114.536 79.968C114.472 80.1387 114.413 80.3147 114.36 80.496C114.307 80.688 114.264 80.8587 114.232 81.008C113.763 81.0293 113.213 81.0453 112.584 81.056C111.965 81.0773 111.32 81.088 110.648 81.088C109.976 81.0987 109.325 81.0987 108.696 81.088C108.077 81.0773 107.533 81.0667 107.064 81.056C106.051 81.0133 105.187 80.848 104.472 80.56C103.768 80.2827 103.171 79.8293 102.68 79.2C102.339 79.5307 101.987 79.8613 101.624 80.192C101.272 80.5227 100.893 80.864 100.488 81.216L99.752 79.712C100.093 79.4667 100.461 79.1893 100.856 78.88C101.251 78.5707 101.629 78.256 101.992 77.936H103.32ZM100.04 67.744L101.192 66.896C101.512 67.1413 101.837 67.4187 102.168 67.728C102.509 68.0267 102.819 68.3307 103.096 68.64C103.373 68.9387 103.597 69.2213 103.768 69.488L102.52 70.432C102.371 70.1653 102.157 69.8773 101.88 69.568C101.613 69.248 101.315 68.928 100.984 68.608C100.664 68.288 100.349 68 100.04 67.744ZM108.424 68.48H109.896V79.232H108.424V68.48ZM106.344 74.128V75.024H112.04V74.128H106.344ZM106.344 72.336V73.2H112.04V72.336H106.344ZM105.032 71.36H113.4V76H105.032V71.36ZM104.216 67.024H114.232V69.168H112.808V68.144H105.56V69.168H104.216V67.024ZM104.616 69.472H113.768V70.56H104.616V69.472ZM104.008 76.784H114.456V77.92H104.008V76.784ZM120.488 72.48V74.016H126.056V72.48H120.488ZM119.08 71.344H127.544V75.152H119.08V71.344ZM122.312 74.64L124.008 74.768C123.859 75.184 123.699 75.5893 123.528 75.984C123.368 76.3787 123.213 76.7147 123.064 76.992L121.752 76.8C121.859 76.48 121.965 76.1173 122.072 75.712C122.179 75.3067 122.259 74.9493 122.312 74.64ZM117.864 76.304H128.92V81.36H127.416V77.632H119.304V81.376H117.864V76.304ZM118.648 79.472H128.056V80.8H118.648V79.472ZM116.632 69.008H130.056V72.288H128.584V70.304H118.008V72.288H116.632V69.008ZM127.544 66.608L129.128 67.12C128.808 67.568 128.467 68.016 128.104 68.464C127.752 68.9013 127.427 69.2747 127.128 69.584L125.896 69.104C126.088 68.88 126.285 68.624 126.488 68.336C126.691 68.0373 126.883 67.7387 127.064 67.44C127.256 67.1413 127.416 66.864 127.544 66.608ZM117.544 67.28L118.84 66.72C119.128 67.0293 119.411 67.3813 119.688 67.776C119.976 68.16 120.184 68.5013 120.312 68.8L118.952 69.408C118.824 69.12 118.627 68.7733 118.36 68.368C118.093 67.9627 117.821 67.6 117.544 67.28ZM121.544 66.912L122.872 66.448C123.107 66.7787 123.347 67.1573 123.592 67.584C123.837 68 124.013 68.3573 124.12 68.656L122.728 69.184C122.632 68.8747 122.472 68.5067 122.248 68.08C122.024 67.6533 121.789 67.264 121.544 66.912ZM138.44 66.512H140.008V68.928H138.44V66.512ZM132.44 68H146.04V71.248H144.472V69.328H133.928V71.248H132.44V68ZM133.816 70.944H144.776V72.176H133.816V70.944ZM132.248 75.952H146.328V77.264H132.248V75.952ZM134.072 73.408H144.52V74.656H134.072V73.408ZM140.12 76.24C140.611 77.328 141.389 78.1867 142.456 78.816C143.533 79.4453 144.888 79.8613 146.52 80.064C146.371 80.2133 146.205 80.4213 146.024 80.688C145.853 80.9547 145.715 81.1893 145.608 81.392C144.445 81.1893 143.421 80.88 142.536 80.464C141.651 80.0587 140.899 79.5307 140.28 78.88C139.661 78.2293 139.155 77.4507 138.76 76.544L140.12 76.24ZM138.408 69.792H139.944V73.984C139.944 74.528 139.891 75.0773 139.784 75.632C139.688 76.1867 139.501 76.7307 139.224 77.264C138.947 77.7973 138.547 78.3093 138.024 78.8C137.501 79.2907 136.824 79.7493 135.992 80.176C135.171 80.6027 134.157 80.992 132.952 81.344C132.899 81.2373 132.819 81.1093 132.712 80.96C132.605 80.8107 132.488 80.6613 132.36 80.512C132.243 80.3627 132.131 80.2347 132.024 80.128C133.187 79.8293 134.152 79.4987 134.92 79.136C135.699 78.7627 136.317 78.3733 136.776 77.968C137.245 77.552 137.597 77.12 137.832 76.672C138.067 76.224 138.221 75.7707 138.296 75.312C138.371 74.8533 138.408 74.4 138.408 73.952V69.792ZM157.224 66.496H158.728V71.472H157.224V66.496ZM153.848 67.312H162.264V68.288H153.848V67.312ZM154.264 68.976H161.864V69.92H154.264V68.976ZM153.432 70.624H162.616V71.632H153.432V70.624ZM155.848 75.088V75.968H160.328V75.088H155.848ZM155.848 76.896V77.792H160.328V76.896H155.848ZM155.848 73.296V74.16H160.328V73.296H155.848ZM154.472 72.32H161.768V78.768H154.472V72.32ZM158.712 79.488L159.736 78.752C160.099 78.9547 160.467 79.168 160.84 79.392C161.213 79.616 161.571 79.8347 161.912 80.048C162.264 80.272 162.563 80.4693 162.808 80.64L161.48 81.36C161.267 81.2 161.005 81.0133 160.696 80.8C160.397 80.5867 160.077 80.3627 159.736 80.128C159.395 79.904 159.053 79.6907 158.712 79.488ZM156.264 78.688L157.496 79.472C157.176 79.7173 156.797 79.9627 156.36 80.208C155.933 80.464 155.48 80.6933 155 80.896C154.531 81.1093 154.077 81.2853 153.64 81.424C153.533 81.2747 153.384 81.104 153.192 80.912C153.011 80.7307 152.845 80.576 152.696 80.448C153.133 80.32 153.576 80.16 154.024 79.968C154.483 79.776 154.909 79.568 155.304 79.344C155.699 79.12 156.019 78.9013 156.264 78.688ZM150.264 66.496L151.576 66.976C151.373 67.3813 151.155 67.8027 150.92 68.24C150.696 68.6667 150.467 69.0773 150.232 69.472C150.008 69.8667 149.795 70.2133 149.592 70.512L148.568 70.08C148.771 69.7707 148.973 69.408 149.176 68.992C149.389 68.5653 149.592 68.1333 149.784 67.696C149.976 67.2587 150.136 66.8587 150.264 66.496ZM152.056 68.352L153.304 68.928C152.931 69.5253 152.515 70.1547 152.056 70.816C151.608 71.4773 151.155 72.1173 150.696 72.736C150.237 73.344 149.805 73.8827 149.4 74.352L148.504 73.84C148.803 73.488 149.117 73.088 149.448 72.64C149.779 72.1813 150.099 71.7067 150.408 71.216C150.728 70.7147 151.027 70.2187 151.304 69.728C151.592 69.2373 151.843 68.7787 152.056 68.352ZM147.752 70.016L148.52 69.008C148.797 69.264 149.08 69.5467 149.368 69.856C149.656 70.1653 149.923 70.4693 150.168 70.768C150.413 71.0667 150.6 71.3387 150.728 71.584L149.912 72.736C149.784 72.4693 149.603 72.1813 149.368 71.872C149.133 71.552 148.872 71.232 148.584 70.912C148.296 70.5813 148.019 70.2827 147.752 70.016ZM151.544 72.064L152.632 71.616C152.845 71.968 153.048 72.3467 153.24 72.752C153.443 73.1573 153.619 73.552 153.768 73.936C153.917 74.32 154.024 74.6613 154.088 74.96L152.92 75.472C152.867 75.1733 152.765 74.8267 152.616 74.432C152.477 74.0373 152.312 73.632 152.12 73.216C151.939 72.8 151.747 72.416 151.544 72.064ZM147.64 73.552C148.344 73.5093 149.176 73.4667 150.136 73.424C151.096 73.3707 152.083 73.312 153.096 73.248L153.112 74.496C152.152 74.5707 151.203 74.64 150.264 74.704C149.325 74.768 148.488 74.8267 147.752 74.88L147.64 73.552ZM151.928 75.984L153.016 75.664C153.208 76.112 153.384 76.608 153.544 77.152C153.704 77.6853 153.805 78.144 153.848 78.528L152.696 78.896C152.664 78.5013 152.573 78.032 152.424 77.488C152.285 76.944 152.12 76.4427 151.928 75.984ZM148.488 75.76L149.736 75.968C149.64 76.7253 149.501 77.472 149.32 78.208C149.149 78.944 148.941 79.568 148.696 80.08C148.611 80.0267 148.499 79.968 148.36 79.904C148.221 79.8293 148.077 79.76 147.928 79.696C147.789 79.6213 147.672 79.568 147.576 79.536C147.821 79.0453 148.013 78.464 148.152 77.792C148.301 77.12 148.413 76.4427 148.488 75.76ZM150.216 74.192H151.528V81.344H150.216V74.192ZM72.7941 92.864C73.0821 92.8853 73.3967 92.9067 73.7381 92.928C74.0794 92.9493 74.3834 92.96 74.6501 92.96H82.6021C82.8154 92.96 83.0447 92.96 83.2901 92.96C83.5461 92.9493 83.7434 92.9387 83.8821 92.928C83.8714 93.1093 83.8607 93.328 83.8501 93.584C83.8501 93.8293 83.8501 94.0587 83.8501 94.272V102.544C83.8501 102.821 83.8554 103.131 83.8661 103.472C83.8874 103.803 83.9034 104.059 83.9141 104.24H82.0901C82.0901 104.059 82.0954 103.835 82.1061 103.568C82.1167 103.291 82.1221 103.008 82.1221 102.72V94.576H74.6501C74.3407 94.576 74.0047 94.5813 73.6421 94.592C73.2794 94.6027 72.9967 94.6187 72.7941 94.64V92.864ZM72.6021 101.632C72.8367 101.643 73.1194 101.659 73.4501 101.68C73.7807 101.701 74.1167 101.712 74.4581 101.712H83.0661V103.376H74.5221C74.2021 103.376 73.8607 103.381 73.4981 103.392C73.1354 103.403 72.8367 103.419 72.6021 103.44V101.632ZM87.6123 96.864C87.7936 96.8747 88.0123 96.8907 88.2683 96.912C88.535 96.9227 88.8176 96.9333 89.1163 96.944C89.4256 96.9547 89.719 96.96 89.9963 96.96C90.2096 96.96 90.503 96.96 90.8763 96.96C91.2496 96.96 91.671 96.96 92.1403 96.96C92.6203 96.96 93.1216 96.96 93.6443 96.96C94.167 96.96 94.6843 96.96 95.1963 96.96C95.719 96.96 96.2096 96.96 96.6683 96.96C97.127 96.96 97.5323 96.96 97.8843 96.96C98.2363 96.96 98.5083 96.96 98.7003 96.96C99.0843 96.96 99.431 96.9493 99.7403 96.928C100.05 96.896 100.3 96.8747 100.492 96.864V98.848C100.311 98.8373 100.055 98.8213 99.7243 98.8C99.3936 98.7787 99.0523 98.768 98.7003 98.768C98.519 98.768 98.247 98.768 97.8843 98.768C97.5323 98.768 97.127 98.768 96.6683 98.768C96.2096 98.768 95.719 98.768 95.1963 98.768C94.6843 98.768 94.167 98.768 93.6443 98.768C93.1216 98.768 92.6203 98.768 92.1403 98.768C91.671 98.768 91.2496 98.768 90.8763 98.768C90.503 98.768 90.2096 98.768 89.9963 98.768C89.559 98.768 89.1216 98.7787 88.6843 98.8C88.247 98.8107 87.8896 98.8267 87.6123 98.848V96.864ZM109.41 103.648C109.442 103.509 109.468 103.355 109.49 103.184C109.511 103.003 109.522 102.821 109.522 102.64C109.522 102.523 109.522 102.288 109.522 101.936C109.522 101.573 109.522 101.136 109.522 100.624C109.522 100.101 109.522 99.5413 109.522 98.944C109.522 98.336 109.522 97.728 109.522 97.12C109.522 96.5013 109.522 95.9253 109.522 95.392C109.522 94.8587 109.522 94.3947 109.522 94C109.522 93.6053 109.522 93.328 109.522 93.168C109.522 92.8373 109.506 92.5547 109.474 92.32C109.442 92.0853 109.426 91.9413 109.426 91.888H111.282C111.282 91.9413 111.266 92.0853 111.234 92.32C111.212 92.5547 111.202 92.8373 111.202 93.168C111.202 93.328 111.202 93.5947 111.202 93.968C111.202 94.3413 111.202 94.784 111.202 95.296C111.202 95.7973 111.202 96.336 111.202 96.912C111.202 97.4773 111.202 98.0427 111.202 98.608C111.202 99.1627 111.202 99.68 111.202 100.16C111.202 100.64 111.202 101.045 111.202 101.376C111.202 101.707 111.202 101.92 111.202 102.016C111.671 101.803 112.167 101.52 112.69 101.168C113.212 100.805 113.724 100.384 114.226 99.904C114.727 99.424 115.17 98.9013 115.554 98.336L116.53 99.712C116.071 100.32 115.532 100.901 114.914 101.456C114.306 102.011 113.666 102.517 112.994 102.976C112.332 103.435 111.692 103.819 111.074 104.128C110.924 104.203 110.802 104.272 110.706 104.336C110.61 104.411 110.53 104.475 110.466 104.528L109.41 103.648ZM102.034 103.504C102.727 103.024 103.303 102.443 103.762 101.76C104.22 101.067 104.567 100.352 104.802 99.616C104.919 99.264 105.01 98.8213 105.074 98.288C105.138 97.7547 105.18 97.1893 105.202 96.592C105.234 95.984 105.25 95.3867 105.25 94.8C105.26 94.2133 105.266 93.6907 105.266 93.232C105.266 92.9547 105.255 92.7147 105.234 92.512C105.212 92.3093 105.18 92.1173 105.138 91.936H106.994C106.994 91.9787 106.983 92.0693 106.962 92.208C106.951 92.336 106.94 92.4907 106.93 92.672C106.919 92.8427 106.914 93.024 106.914 93.216C106.914 93.6747 106.908 94.2133 106.898 94.832C106.887 95.44 106.86 96.0693 106.818 96.72C106.786 97.3707 106.738 97.9893 106.674 98.576C106.62 99.1627 106.535 99.6533 106.418 100.048C106.183 100.923 105.82 101.744 105.33 102.512C104.839 103.28 104.252 103.952 103.57 104.528L102.034 103.504ZM121.499 101.904C121.499 101.68 121.499 101.349 121.499 100.912C121.499 100.464 121.499 99.968 121.499 99.424C121.499 98.8693 121.499 98.2933 121.499 97.696C121.499 97.088 121.499 96.496 121.499 95.92C121.499 95.3333 121.499 94.8 121.499 94.32C121.499 93.84 121.499 93.4507 121.499 93.152C121.499 92.9813 121.494 92.8 121.483 92.608C121.483 92.416 121.472 92.224 121.451 92.032C121.44 91.84 121.419 91.6693 121.387 91.52H123.291C123.248 91.7547 123.216 92.0213 123.195 92.32C123.174 92.6187 123.163 92.896 123.163 93.152C123.163 93.4507 123.163 93.824 123.163 94.272C123.163 94.7093 123.163 95.1947 123.163 95.728C123.163 96.2613 123.163 96.8053 123.163 97.36C123.163 97.9147 123.163 98.4533 123.163 98.976C123.163 99.4987 123.163 99.9787 123.163 100.416C123.163 100.843 123.163 101.195 123.163 101.472C123.163 101.824 123.216 102.107 123.323 102.32C123.43 102.523 123.643 102.667 123.963 102.752C124.283 102.837 124.747 102.88 125.355 102.88C125.952 102.88 126.534 102.864 127.099 102.832C127.664 102.789 128.219 102.731 128.763 102.656C129.307 102.581 129.846 102.491 130.379 102.384L130.315 104.112C129.856 104.176 129.36 104.235 128.827 104.288C128.294 104.341 127.728 104.379 127.131 104.4C126.544 104.432 125.942 104.448 125.323 104.448C124.502 104.448 123.84 104.395 123.339 104.288C122.838 104.181 122.454 104.027 122.187 103.824C121.92 103.611 121.739 103.344 121.643 103.024C121.547 102.704 121.499 102.331 121.499 101.904ZM131.131 94.816C131.078 94.912 131.003 95.0293 130.907 95.168C130.822 95.3067 130.747 95.4347 130.683 95.552C130.502 95.8827 130.283 96.256 130.027 96.672C129.782 97.0773 129.515 97.4933 129.227 97.92C128.939 98.3467 128.635 98.7573 128.315 99.152C128.006 99.5467 127.696 99.8987 127.387 100.208L125.995 99.392C126.379 99.04 126.747 98.6453 127.099 98.208C127.462 97.7707 127.782 97.3387 128.059 96.912C128.347 96.4853 128.566 96.1227 128.715 95.824C128.619 95.8453 128.384 95.8933 128.011 95.968C127.648 96.0427 127.19 96.1387 126.635 96.256C126.08 96.3627 125.472 96.4853 124.811 96.624C124.15 96.752 123.478 96.8853 122.795 97.024C122.112 97.1627 121.456 97.296 120.827 97.424C120.198 97.5413 119.632 97.6533 119.131 97.76C118.63 97.8667 118.24 97.952 117.963 98.016L117.659 96.336C117.958 96.304 118.358 96.2507 118.859 96.176C119.371 96.0907 119.942 95.9893 120.571 95.872C121.211 95.7547 121.878 95.632 122.571 95.504C123.264 95.3653 123.947 95.232 124.619 95.104C125.291 94.9653 125.92 94.8373 126.507 94.72C127.104 94.6027 127.616 94.5013 128.043 94.416C128.47 94.32 128.774 94.2507 128.955 94.208C129.158 94.1653 129.339 94.1173 129.499 94.064C129.67 94.0107 129.814 93.9467 129.931 93.872L131.131 94.816ZM134.976 92.08C135.264 92.272 135.594 92.512 135.968 92.8C136.341 93.0773 136.72 93.376 137.104 93.696C137.498 94.016 137.872 94.3253 138.224 94.624C138.576 94.9227 138.858 95.1893 139.072 95.424L137.808 96.72C137.605 96.5067 137.338 96.2507 137.008 95.952C136.677 95.6427 136.32 95.328 135.936 95.008C135.562 94.6773 135.189 94.368 134.816 94.08C134.442 93.7813 134.106 93.5307 133.808 93.328L134.976 92.08ZM133.328 102.784C134.224 102.645 135.05 102.464 135.808 102.24C136.565 102.005 137.258 101.744 137.888 101.456C138.528 101.157 139.104 100.853 139.616 100.544C140.469 100.021 141.253 99.4187 141.968 98.736C142.693 98.0533 143.328 97.3493 143.872 96.624C144.416 95.8987 144.848 95.1947 145.168 94.512L146.144 96.256C145.76 96.9493 145.285 97.6427 144.72 98.336C144.165 99.0293 143.536 99.696 142.832 100.336C142.128 100.965 141.36 101.536 140.528 102.048C139.994 102.379 139.408 102.699 138.768 103.008C138.138 103.317 137.456 103.595 136.72 103.84C135.994 104.085 135.221 104.283 134.4 104.432L133.328 102.784ZM152.343 96.592C152.845 96.8907 153.383 97.2267 153.959 97.6C154.535 97.9627 155.111 98.3467 155.687 98.752C156.263 99.1467 156.807 99.5307 157.319 99.904C157.842 100.277 158.29 100.624 158.663 100.944L157.479 102.352C157.117 102.021 156.679 101.653 156.167 101.248C155.666 100.843 155.122 100.427 154.535 100C153.959 99.5733 153.383 99.168 152.807 98.784C152.242 98.3893 151.719 98.0373 151.239 97.728L152.343 96.592ZM159.751 93.76C159.677 93.888 159.597 94.048 159.511 94.24C159.437 94.4213 159.373 94.592 159.319 94.752C159.159 95.264 158.941 95.8293 158.663 96.448C158.397 97.0667 158.071 97.696 157.687 98.336C157.314 98.9653 156.893 99.5733 156.423 100.16C155.687 101.067 154.781 101.936 153.703 102.768C152.637 103.589 151.346 104.288 149.831 104.864L148.375 103.584C149.421 103.264 150.349 102.875 151.159 102.416C151.981 101.957 152.706 101.461 153.335 100.928C153.965 100.384 154.514 99.8347 154.983 99.28C155.378 98.8107 155.741 98.2987 156.071 97.744C156.413 97.1893 156.706 96.6347 156.951 96.08C157.207 95.5253 157.389 95.024 157.495 94.576H151.783L152.391 93.136H157.255C157.479 93.136 157.698 93.12 157.911 93.088C158.125 93.056 158.306 93.0133 158.455 92.96L159.751 93.76ZM154.407 91.392C154.247 91.6267 154.087 91.8827 153.927 92.16C153.778 92.4373 153.661 92.656 153.575 92.816C153.234 93.4133 152.797 94.0693 152.263 94.784C151.741 95.4987 151.138 96.2027 150.455 96.896C149.773 97.5787 149.026 98.2027 148.215 98.768L146.855 97.712C147.783 97.136 148.578 96.5173 149.239 95.856C149.911 95.1947 150.471 94.5493 150.919 93.92C151.367 93.2907 151.719 92.736 151.975 92.256C152.071 92.096 152.178 91.8773 152.295 91.6C152.423 91.312 152.519 91.0507 152.583 90.816L154.407 91.392ZM161.769 96.864C161.95 96.8747 162.169 96.8907 162.425 96.912C162.691 96.9227 162.974 96.9333 163.273 96.944C163.582 96.9547 163.875 96.96 164.153 96.96C164.366 96.96 164.659 96.96 165.033 96.96C165.406 96.96 165.827 96.96 166.297 96.96C166.777 96.96 167.278 96.96 167.801 96.96C168.323 96.96 168.841 96.96 169.353 96.96C169.875 96.96 170.366 96.96 170.825 96.96C171.283 96.96 171.689 96.96 172.041 96.96C172.393 96.96 172.665 96.96 172.857 96.96C173.241 96.96 173.587 96.9493 173.897 96.928C174.206 96.896 174.457 96.8747 174.649 96.864V98.848C174.467 98.8373 174.211 98.8213 173.881 98.8C173.55 98.7787 173.209 98.768 172.857 98.768C172.675 98.768 172.403 98.768 172.041 98.768C171.689 98.768 171.283 98.768 170.825 98.768C170.366 98.768 169.875 98.768 169.353 98.768C168.841 98.768 168.323 98.768 167.801 98.768C167.278 98.768 166.777 98.768 166.297 98.768C165.827 98.768 165.406 98.768 165.033 98.768C164.659 98.768 164.366 98.768 164.153 98.768C163.715 98.768 163.278 98.7787 162.841 98.8C162.403 98.8107 162.046 98.8267 161.769 98.848V96.864ZM185.058 93.056C184.951 93.8773 184.812 94.7467 184.642 95.664C184.482 96.5707 184.263 97.472 183.986 98.368C183.666 99.456 183.303 100.379 182.898 101.136C182.503 101.883 182.071 102.453 181.602 102.848C181.132 103.243 180.636 103.44 180.114 103.44C179.58 103.44 179.084 103.259 178.626 102.896C178.167 102.523 177.794 102.005 177.506 101.344C177.218 100.672 177.074 99.8933 177.074 99.008C177.074 98.112 177.255 97.264 177.618 96.464C177.991 95.664 178.503 94.9547 179.154 94.336C179.804 93.7173 180.562 93.232 181.426 92.88C182.29 92.528 183.223 92.352 184.226 92.352C185.186 92.352 186.05 92.5067 186.818 92.816C187.596 93.1253 188.258 93.5573 188.802 94.112C189.356 94.656 189.778 95.296 190.066 96.032C190.354 96.768 190.498 97.552 190.498 98.384C190.498 99.504 190.263 100.501 189.794 101.376C189.335 102.24 188.658 102.949 187.762 103.504C186.866 104.048 185.767 104.416 184.466 104.608L183.522 103.104C183.799 103.072 184.055 103.04 184.29 103.008C184.524 102.965 184.743 102.923 184.946 102.88C185.458 102.763 185.943 102.581 186.402 102.336C186.871 102.091 187.287 101.781 187.65 101.408C188.012 101.024 188.295 100.576 188.498 100.064C188.711 99.552 188.818 98.976 188.818 98.336C188.818 97.696 188.716 97.104 188.514 96.56C188.311 96.0053 188.012 95.5253 187.618 95.12C187.223 94.7147 186.738 94.4 186.162 94.176C185.586 93.9413 184.935 93.824 184.21 93.824C183.335 93.824 182.556 93.9787 181.874 94.288C181.191 94.5973 180.61 95.008 180.13 95.52C179.66 96.0213 179.303 96.5653 179.058 97.152C178.812 97.7387 178.69 98.304 178.69 98.848C178.69 99.456 178.764 99.9627 178.914 100.368C179.063 100.763 179.25 101.056 179.474 101.248C179.698 101.44 179.927 101.536 180.162 101.536C180.396 101.536 180.636 101.419 180.882 101.184C181.127 100.939 181.372 100.555 181.618 100.032C181.874 99.5093 182.124 98.8427 182.37 98.032C182.615 97.264 182.818 96.448 182.978 95.584C183.148 94.7093 183.271 93.856 183.346 93.024L185.058 93.056ZM97.7969 115.728L99.0769 115.264C99.3009 115.659 99.5142 116.085 99.7169 116.544C99.9195 116.992 100.096 117.435 100.245 117.872C100.405 118.309 100.517 118.699 100.581 119.04L99.2049 119.584C99.1515 119.243 99.0502 118.853 98.9009 118.416C98.7622 117.968 98.5969 117.509 98.4049 117.04C98.2129 116.571 98.0102 116.133 97.7969 115.728ZM101.045 115.024L102.357 114.656C102.528 115.061 102.688 115.499 102.837 115.968C102.986 116.437 103.114 116.896 103.221 117.344C103.338 117.781 103.413 118.171 103.445 118.512L102.037 118.96C102.005 118.619 101.936 118.224 101.829 117.776C101.733 117.328 101.616 116.864 101.477 116.384C101.338 115.893 101.194 115.44 101.045 115.024ZM100.037 122.112L100.805 121.104C101.338 121.467 101.893 121.872 102.469 122.32C103.045 122.757 103.584 123.2 104.085 123.648C104.586 124.085 104.986 124.491 105.285 124.864L104.469 126.016C104.17 125.632 103.776 125.211 103.285 124.752C102.794 124.293 102.261 123.835 101.685 123.376C101.12 122.907 100.57 122.485 100.037 122.112ZM98.1969 120.592H99.6529V129.232H98.1969V120.592ZM105.509 120.544H106.997V129.184H105.509V120.544ZM98.9169 126.88H106.213V128.256H98.9169V126.88ZM105.717 114.88L107.269 115.232C107.077 115.851 106.853 116.469 106.597 117.088C106.341 117.696 106.064 118.277 105.765 118.832C105.477 119.376 105.189 119.856 104.901 120.272C104.784 120.197 104.634 120.117 104.453 120.032C104.272 119.936 104.09 119.851 103.909 119.776C103.728 119.691 103.568 119.621 103.429 119.568C103.738 119.184 104.032 118.736 104.309 118.224C104.597 117.712 104.858 117.168 105.093 116.592C105.338 116.016 105.546 115.445 105.717 114.88ZM103.397 120.208L104.741 120.512C104.325 121.749 103.786 122.912 103.125 124C102.474 125.088 101.76 126.005 100.981 126.752C100.906 126.667 100.8 126.571 100.661 126.464C100.522 126.347 100.378 126.235 100.229 126.128C100.09 126.021 99.9675 125.941 99.8609 125.888C100.64 125.227 101.333 124.4 101.941 123.408C102.56 122.405 103.045 121.339 103.397 120.208ZM94.7569 114.496H96.2289V129.328H94.7569V114.496ZM93.2049 117.616L94.2449 117.76C94.2555 118.251 94.2289 118.768 94.1649 119.312C94.1115 119.856 94.0209 120.384 93.8929 120.896C93.7755 121.397 93.6209 121.84 93.4289 122.224L92.4049 121.776C92.5862 121.435 92.7355 121.035 92.8529 120.576C92.9702 120.107 93.0555 119.616 93.1089 119.104C93.1729 118.581 93.2049 118.085 93.2049 117.616ZM96.1809 117.552L97.1249 117.12C97.3915 117.589 97.6369 118.091 97.8609 118.624C98.0955 119.157 98.2502 119.616 98.3249 120L97.3009 120.512C97.2475 120.245 97.1622 119.941 97.0449 119.6C96.9275 119.259 96.7942 118.912 96.6449 118.56C96.4955 118.197 96.3409 117.861 96.1809 117.552ZM111.478 116.096C111.692 116.117 111.91 116.133 112.134 116.144C112.369 116.155 112.572 116.16 112.742 116.16C112.966 116.16 113.238 116.155 113.558 116.144C113.878 116.133 114.209 116.123 114.55 116.112C114.892 116.091 115.217 116.075 115.526 116.064C115.836 116.043 116.076 116.027 116.246 116.016C116.417 115.995 116.582 115.968 116.742 115.936C116.902 115.904 117.046 115.867 117.174 115.824L118.182 116.624C118.086 116.72 117.996 116.816 117.91 116.912C117.836 117.008 117.766 117.109 117.702 117.216C117.532 117.493 117.324 117.888 117.078 118.4C116.844 118.912 116.593 119.467 116.326 120.064C116.07 120.661 115.82 121.237 115.574 121.792C115.414 122.155 115.244 122.544 115.062 122.96C114.881 123.376 114.694 123.792 114.502 124.208C114.321 124.624 114.14 125.013 113.958 125.376C113.788 125.728 113.617 126.032 113.446 126.288C113.148 126.725 112.817 127.04 112.454 127.232C112.102 127.424 111.692 127.52 111.222 127.52C110.582 127.52 110.049 127.312 109.622 126.896C109.196 126.469 108.982 125.888 108.982 125.152C108.982 124.533 109.121 123.963 109.398 123.44C109.676 122.907 110.065 122.443 110.566 122.048C111.068 121.643 111.665 121.333 112.358 121.12C113.052 120.896 113.814 120.784 114.646 120.784C115.553 120.784 116.433 120.891 117.286 121.104C118.14 121.317 118.934 121.589 119.67 121.92C120.406 122.24 121.073 122.581 121.67 122.944C122.278 123.307 122.796 123.637 123.222 123.936L122.486 125.664C122.006 125.248 121.468 124.837 120.87 124.432C120.284 124.016 119.644 123.643 118.95 123.312C118.268 122.971 117.542 122.699 116.774 122.496C116.017 122.293 115.228 122.192 114.406 122.192C113.574 122.192 112.86 122.331 112.262 122.608C111.665 122.875 111.212 123.216 110.902 123.632C110.593 124.048 110.438 124.48 110.438 124.928C110.438 125.248 110.524 125.488 110.694 125.648C110.865 125.808 111.062 125.888 111.286 125.888C111.457 125.888 111.612 125.851 111.75 125.776C111.889 125.691 112.033 125.547 112.182 125.344C112.342 125.131 112.497 124.875 112.646 124.576C112.806 124.277 112.966 123.957 113.126 123.616C113.286 123.264 113.441 122.907 113.59 122.544C113.75 122.181 113.9 121.84 114.038 121.52C114.252 121.061 114.46 120.592 114.662 120.112C114.876 119.621 115.084 119.152 115.286 118.704C115.5 118.245 115.692 117.84 115.862 117.488C115.702 117.488 115.489 117.493 115.222 117.504C114.956 117.515 114.668 117.531 114.358 117.552C114.049 117.563 113.756 117.573 113.478 117.584C113.201 117.595 112.972 117.605 112.79 117.616C112.62 117.627 112.417 117.643 112.182 117.664C111.958 117.685 111.745 117.712 111.542 117.744L111.478 116.096ZM121.718 119.728C121.654 120.859 121.537 121.893 121.366 122.832C121.206 123.771 120.945 124.619 120.582 125.376C120.23 126.133 119.745 126.816 119.126 127.424C118.518 128.021 117.745 128.56 116.806 129.04L115.462 127.936C116.422 127.531 117.196 127.056 117.782 126.512C118.38 125.957 118.833 125.371 119.142 124.752C119.462 124.123 119.686 123.499 119.814 122.88C119.942 122.251 120.028 121.669 120.07 121.136C120.081 120.869 120.086 120.597 120.086 120.32C120.097 120.032 120.086 119.776 120.054 119.552L121.718 119.728ZM131.042 115.264C130.978 115.573 130.887 115.952 130.77 116.4C130.663 116.837 130.503 117.333 130.29 117.888C130.109 118.336 129.885 118.795 129.618 119.264C129.362 119.733 129.095 120.16 128.818 120.544C128.999 120.437 129.207 120.352 129.442 120.288C129.687 120.213 129.933 120.16 130.178 120.128C130.434 120.085 130.663 120.064 130.866 120.064C131.506 120.064 132.045 120.251 132.482 120.624C132.919 120.987 133.138 121.515 133.138 122.208C133.138 122.421 133.138 122.683 133.138 122.992C133.138 123.301 133.143 123.627 133.154 123.968C133.165 124.309 133.17 124.645 133.17 124.976C133.181 125.307 133.186 125.595 133.186 125.84H131.666C131.677 125.637 131.687 125.403 131.698 125.136C131.709 124.859 131.714 124.571 131.714 124.272C131.725 123.973 131.73 123.685 131.73 123.408C131.73 123.131 131.73 122.885 131.73 122.672C131.719 122.192 131.575 121.845 131.298 121.632C131.021 121.419 130.695 121.312 130.322 121.312C129.842 121.312 129.362 121.424 128.882 121.648C128.413 121.872 128.007 122.144 127.666 122.464C127.442 122.688 127.207 122.944 126.962 123.232C126.727 123.52 126.477 123.835 126.21 124.176L124.834 123.152C125.57 122.459 126.194 121.797 126.706 121.168C127.218 120.539 127.639 119.941 127.97 119.376C128.311 118.8 128.578 118.256 128.77 117.744C128.941 117.307 129.079 116.864 129.186 116.416C129.293 115.957 129.357 115.531 129.378 115.136L131.042 115.264ZM125.314 116.88C125.741 116.944 126.21 116.992 126.722 117.024C127.234 117.045 127.682 117.056 128.066 117.056C128.781 117.056 129.554 117.04 130.386 117.008C131.218 116.976 132.055 116.923 132.898 116.848C133.751 116.773 134.557 116.667 135.314 116.528V118.016C134.749 118.091 134.146 118.16 133.506 118.224C132.866 118.288 132.215 118.341 131.554 118.384C130.893 118.416 130.258 118.443 129.65 118.464C129.042 118.475 128.487 118.48 127.986 118.48C127.762 118.48 127.495 118.48 127.186 118.48C126.887 118.469 126.573 118.453 126.242 118.432C125.922 118.411 125.613 118.395 125.314 118.384V116.88ZM137.746 121.04C137.597 121.093 137.421 121.152 137.218 121.216C137.026 121.28 136.834 121.349 136.642 121.424C136.45 121.499 136.274 121.568 136.114 121.632C135.57 121.845 134.935 122.101 134.21 122.4C133.495 122.699 132.759 123.045 132.002 123.44C131.49 123.707 131.047 123.973 130.674 124.24C130.301 124.507 130.007 124.784 129.794 125.072C129.591 125.36 129.49 125.675 129.49 126.016C129.49 126.293 129.554 126.517 129.682 126.688C129.81 126.859 129.986 126.992 130.21 127.088C130.445 127.173 130.722 127.237 131.042 127.28C131.373 127.312 131.741 127.328 132.146 127.328C132.786 127.328 133.511 127.291 134.322 127.216C135.133 127.141 135.89 127.04 136.594 126.912L136.546 128.528C136.162 128.571 135.714 128.613 135.202 128.656C134.69 128.709 134.162 128.747 133.618 128.768C133.085 128.8 132.578 128.816 132.098 128.816C131.298 128.816 130.578 128.741 129.938 128.592C129.298 128.443 128.791 128.187 128.418 127.824C128.045 127.451 127.858 126.933 127.858 126.272C127.858 125.749 127.975 125.28 128.21 124.864C128.455 124.437 128.77 124.053 129.154 123.712C129.549 123.371 129.986 123.056 130.466 122.768C130.946 122.48 131.421 122.219 131.89 121.984C132.391 121.717 132.855 121.488 133.282 121.296C133.719 121.093 134.125 120.912 134.498 120.752C134.882 120.592 135.239 120.432 135.57 120.272C135.847 120.155 136.109 120.043 136.354 119.936C136.599 119.819 136.845 119.696 137.09 119.568L137.746 121.04ZM140.683 118.576H145.227V119.728H140.683V118.576ZM140.683 121.248H145.227V122.352H140.683V121.248ZM140.683 123.984H145.227V125.136H140.683V123.984ZM147.563 122.08H153.611V123.376H147.563V122.08ZM141.499 115.952H144.091V117.12H141.499V115.952ZM146.443 115.312H152.571V116.56H146.443V115.312ZM146.347 125.104H153.915V126.432H146.347V125.104ZM149.547 120.528H150.987V129.28H149.547V120.528ZM142.555 119.152H143.611V124.448H142.555V119.152ZM152.139 115.312H153.483C153.483 115.312 153.483 115.376 153.483 115.504C153.483 115.632 153.478 115.739 153.467 115.824C153.435 116.699 153.392 117.413 153.339 117.968C153.296 118.523 153.238 118.955 153.163 119.264C153.088 119.563 152.992 119.781 152.875 119.92C152.758 120.059 152.624 120.165 152.475 120.24C152.336 120.304 152.16 120.347 151.947 120.368C151.787 120.389 151.552 120.4 151.243 120.4C150.944 120.4 150.63 120.395 150.299 120.384C150.288 120.192 150.251 119.979 150.187 119.744C150.134 119.509 150.059 119.307 149.963 119.136C150.251 119.168 150.512 119.189 150.747 119.2C150.992 119.2 151.168 119.2 151.275 119.2C151.382 119.211 151.472 119.205 151.547 119.184C151.622 119.163 151.68 119.12 151.723 119.056C151.798 118.971 151.856 118.805 151.899 118.56C151.952 118.315 151.995 117.947 152.027 117.456C152.07 116.955 152.107 116.304 152.139 115.504V115.312ZM147.451 120.656L148.715 120.896C148.566 121.632 148.358 122.347 148.091 123.04C147.835 123.733 147.542 124.32 147.211 124.8C147.126 124.736 147.014 124.667 146.875 124.592C146.736 124.507 146.592 124.432 146.443 124.368C146.304 124.293 146.182 124.235 146.075 124.192C146.406 123.744 146.683 123.211 146.907 122.592C147.142 121.963 147.323 121.317 147.451 120.656ZM141.323 114.48L142.683 114.784C142.491 115.499 142.256 116.203 141.979 116.896C141.702 117.589 141.392 118.24 141.051 118.848C140.72 119.445 140.363 119.968 139.979 120.416C139.894 120.341 139.782 120.245 139.643 120.128C139.515 120.011 139.376 119.899 139.227 119.792C139.088 119.675 138.966 119.584 138.859 119.52C139.424 118.912 139.915 118.165 140.331 117.28C140.758 116.384 141.088 115.451 141.323 114.48ZM140.107 118.576H141.339V122.832C141.339 123.323 141.323 123.856 141.291 124.432C141.259 125.008 141.195 125.589 141.099 126.176C141.014 126.763 140.88 127.333 140.699 127.888C140.518 128.432 140.283 128.928 139.995 129.376C139.931 129.301 139.83 129.221 139.691 129.136C139.552 129.051 139.414 128.965 139.275 128.88C139.147 128.795 139.03 128.736 138.923 128.704C139.286 128.139 139.547 127.515 139.707 126.832C139.878 126.149 139.984 125.461 140.027 124.768C140.08 124.064 140.107 123.413 140.107 122.816V118.576ZM144.811 118.576H146.075V127.792C146.075 128.123 146.032 128.389 145.947 128.592C145.872 128.805 145.723 128.971 145.499 129.088C145.275 129.195 144.992 129.259 144.651 129.28C144.31 129.312 143.872 129.328 143.339 129.328C143.318 129.147 143.259 128.928 143.163 128.672C143.078 128.427 142.992 128.219 142.907 128.048C143.27 128.059 143.606 128.064 143.915 128.064C144.224 128.064 144.432 128.064 144.539 128.064C144.635 128.053 144.704 128.032 144.747 128C144.79 127.957 144.811 127.883 144.811 127.776V118.576ZM148.571 115.712H149.947C149.862 116.469 149.718 117.173 149.515 117.824C149.312 118.464 148.998 119.04 148.571 119.552C148.144 120.064 147.547 120.491 146.779 120.832C146.694 120.672 146.571 120.491 146.411 120.288C146.262 120.075 146.112 119.909 145.963 119.792C146.614 119.515 147.115 119.173 147.467 118.768C147.819 118.363 148.075 117.904 148.235 117.392C148.395 116.869 148.507 116.309 148.571 115.712ZM143.739 115.952H144.027L144.235 115.888L145.115 116.432C144.934 116.933 144.704 117.461 144.427 118.016C144.16 118.571 143.904 119.045 143.659 119.44C143.542 119.333 143.387 119.227 143.195 119.12C143.014 119.013 142.854 118.928 142.715 118.864C142.843 118.608 142.971 118.325 143.099 118.016C143.238 117.707 143.36 117.392 143.467 117.072C143.584 116.741 143.675 116.448 143.739 116.192V115.952ZM160.251 117.008H168.603V122.4H167.115V118.432H160.251V117.008ZM159.419 121.76H169.867V123.184H159.419V121.76ZM163.211 114.512H164.715V120.032C164.715 120.907 164.662 121.776 164.555 122.64C164.459 123.493 164.251 124.331 163.931 125.152C163.611 125.963 163.126 126.725 162.475 127.44C161.824 128.155 160.955 128.805 159.867 129.392C159.782 129.275 159.664 129.147 159.515 129.008C159.376 128.88 159.227 128.752 159.067 128.624C158.907 128.496 158.763 128.389 158.635 128.304C159.67 127.781 160.491 127.205 161.099 126.576C161.718 125.936 162.176 125.259 162.475 124.544C162.784 123.829 162.982 123.093 163.067 122.336C163.163 121.568 163.211 120.795 163.211 120.016V114.512ZM165.435 122.496C165.787 123.787 166.342 124.923 167.099 125.904C167.867 126.875 168.843 127.595 170.027 128.064C169.91 128.16 169.782 128.283 169.643 128.432C169.504 128.592 169.376 128.752 169.259 128.912C169.142 129.083 169.04 129.237 168.955 129.376C167.686 128.8 166.651 127.952 165.851 126.832C165.062 125.712 164.454 124.384 164.027 122.848L165.435 122.496ZM155.867 115.712L156.683 114.608C157.024 114.747 157.376 114.912 157.739 115.104C158.112 115.285 158.464 115.477 158.795 115.68C159.126 115.883 159.392 116.075 159.595 116.256L158.715 117.504C158.523 117.312 158.267 117.109 157.947 116.896C157.627 116.672 157.286 116.459 156.923 116.256C156.56 116.043 156.208 115.861 155.867 115.712ZM154.971 120.064L155.803 118.928C156.134 119.045 156.486 119.195 156.859 119.376C157.232 119.547 157.59 119.733 157.931 119.936C158.272 120.128 158.55 120.315 158.763 120.496L157.883 121.76C157.68 121.579 157.414 121.387 157.083 121.184C156.763 120.971 156.416 120.768 156.043 120.576C155.68 120.373 155.323 120.203 154.971 120.064ZM155.435 128.16C155.702 127.744 155.995 127.253 156.315 126.688C156.635 126.123 156.96 125.52 157.291 124.88C157.622 124.24 157.931 123.616 158.219 123.008L159.371 123.936C159.115 124.501 158.838 125.088 158.539 125.696C158.251 126.304 157.952 126.901 157.643 127.488C157.334 128.064 157.035 128.608 156.747 129.12L155.435 128.16Z" fill="white"/>
</svg>
