<svg width="223" height="240" viewBox="0 0 223 240" fill="none" xmlns="http://www.w3.org/2000/svg">
<path d="M53.4454 180.71C53.4454 180.71 41.6182 145.094 38.5102 128.395L16.5358 132.679L28.0942 187.077L53.4622 180.71H53.4454Z" fill="white" stroke="#084AA6" stroke-width="1.97528" stroke-linecap="round" stroke-linejoin="round"/>
<path d="M35.5704 135.333C35.5704 135.333 40.6104 132.88 42.3744 126.53C43.7856 121.49 45.3144 117.34 43.2312 112.048C40.1064 104.152 34.7808 102.12 34.0584 99.7676C33.336 97.4156 31.656 84.3284 28.3464 72.4004C27.1536 68.1164 25.104 65.1092 23.004 65.3276C20.568 65.5964 19.1736 68.4692 20.4 75.3404C21.7776 83.0852 22.2984 94.0892 22.2984 94.0892C22.2984 94.0892 19.2744 91.8716 15.7128 94.946C13.3608 96.9788 14.2512 101.28 14.2512 101.28C14.2512 101.28 10.7904 100.238 8.67359 101.414C5.38079 103.262 7.02719 107.983 7.02719 107.983C7.02719 107.983 1.78559 107.899 1.04639 112.552C0.475192 116.164 4.13759 127.252 8.40479 131.906C14.0664 138.088 19.3416 138.122 19.3416 138.122" fill="white"/>
<path d="M35.5704 135.333C35.5704 135.333 40.6104 132.88 42.3744 126.53C43.7856 121.49 45.3144 117.34 43.2312 112.048C40.1064 104.152 34.7808 102.12 34.0584 99.7676C33.336 97.4156 31.656 84.3284 28.3464 72.4004C27.1536 68.1164 25.104 65.1092 23.004 65.3276C20.568 65.5964 19.1736 68.4692 20.4 75.3404C21.7776 83.0852 22.2984 94.0892 22.2984 94.0892C22.2984 94.0892 19.2744 91.8716 15.7128 94.946C13.3608 96.9788 14.2512 101.28 14.2512 101.28C14.2512 101.28 10.7904 100.238 8.67359 101.414C5.38079 103.262 7.02719 107.983 7.02719 107.983C7.02719 107.983 1.78559 107.899 1.04639 112.552C0.475192 116.164 4.13759 127.252 8.40479 131.906C14.0664 138.088 19.3416 138.122 19.3416 138.122" stroke="#084AA6" stroke-width="1.97528" stroke-linecap="round" stroke-linejoin="round"/>
<path d="M6.28802 120.431C6.28802 120.431 12.2856 126.63 14.4024 125.942C18.6024 124.598 16.7376 121.96 16.7376 121.96" fill="white"/>
<path d="M6.28802 120.431C6.28802 120.431 12.2856 126.63 14.4024 125.942C18.6024 124.598 16.7376 121.96 16.7376 121.96" stroke="#084AA6" stroke-width="1.97528" stroke-linecap="round" stroke-linejoin="round"/>
<path d="M22.332 117.222C22.332 120.263 18.3336 120.666 16.6872 121.204C15.5112 121.59 7.41357 109.058 7.41357 109.058" fill="white"/>
<path d="M22.332 117.222C22.332 120.263 18.3336 120.666 16.6872 121.204C15.5112 121.59 7.41357 109.058 7.41357 109.058" stroke="#084AA6" stroke-width="1.97528" stroke-linecap="round" stroke-linejoin="round"/>
<path d="M22.6848 95.147C22.6848 95.147 27.5232 109.477 27.456 112.804C27.3888 115.727 23.1888 117.609 21.9456 116.046C20.7024 114.501 14.8224 101.397 14.8224 101.397" fill="white"/>
<path d="M22.6848 95.147C22.6848 95.147 27.5232 109.477 27.456 112.804C27.3888 115.727 23.1888 117.609 21.9456 116.046C20.7024 114.501 14.8224 101.397 14.8224 101.397" stroke="#084AA6" stroke-width="1.97528" stroke-linecap="round" stroke-linejoin="round"/>
<path d="M39.1656 109.78C39.1656 109.78 36.2256 106.689 33.2016 105.933C30.7992 105.328 18.1656 107.008 16.3848 108.016C14.1168 109.293 16.5864 113.442 21.324 114.349C24.0288 114.87 31.6392 116.214 31.6392 116.214C31.6392 116.214 29.22 123.673 31.0344 128.445" fill="white"/>
<path d="M39.1656 109.78C39.1656 109.78 36.2256 106.689 33.2016 105.933C30.7992 105.328 18.1656 107.008 16.3848 108.016C14.1168 109.293 16.5864 113.442 21.324 114.349C24.0288 114.87 31.6392 116.214 31.6392 116.214C31.6392 116.214 29.22 123.673 31.0344 128.445" stroke="#084AA6" stroke-width="1.97528" stroke-linecap="round" stroke-linejoin="round"/>
<path d="M48.3719 149.982L44.7599 138.558L12.8903 148.487L16.2671 159.558" fill="white"/>
<path d="M48.3719 149.982L44.7599 138.558L12.8903 148.487L16.2671 159.558" stroke="#084AA6" stroke-width="1.97528" stroke-linecap="round" stroke-linejoin="round"/>
<path d="M213.432 176.208C213.146 169.236 212.626 144.943 201.067 136.426C193.81 131.1 169.45 124.75 169.567 124.649C171.482 123.254 138.201 120.214 114.648 122.7C103.711 123.859 90.1703 127.622 83.2487 136.342C76.3271 145.061 62.1983 184.457 62.1983 184.457L49.3967 145.901L10.1687 158.282C10.1687 158.282 28.2791 211.589 34.5287 225.331C43.5503 245.172 66.4319 249.506 83.9375 214.411C85.2143 228.826 88.1375 315.211 87.2639 316.958C86.3903 318.706 117.084 320.184 135.043 319.68C168.811 318.722 202.478 313.111 202.478 313.111C202.478 313.111 198.581 260.074 198.245 258.763C202.495 261.552 213.936 189.262 213.398 176.174L213.432 176.208Z" fill="#FFFF59" stroke="#084AA6" stroke-width="1.97528" stroke-linecap="round" stroke-linejoin="round"/>
<path d="M153.12 94.0723C153.12 94.0723 151.591 115.475 157.286 124.228C162.981 132.981 162.477 132.796 162.477 132.796C162.477 132.796 138.806 162.079 127.181 160.516C112.01 158.467 109.675 134.258 109.675 134.258C109.675 134.258 116.429 135.451 122.544 123.64C128.676 111.83 124.325 96.0547 124.325 96.0547" fill="white"/>
<path d="M153.12 94.0723C153.12 94.0723 151.591 115.475 157.286 124.228C162.981 132.981 162.477 132.796 162.477 132.796C162.477 132.796 138.806 162.079 127.181 160.516C112.01 158.467 109.675 134.258 109.675 134.258C109.675 134.258 116.429 135.451 122.544 123.64C128.676 111.83 124.325 96.0547 124.325 96.0547" stroke="#084AA6" stroke-width="1.97528" stroke-linecap="round" stroke-linejoin="round"/>
<path d="M109.893 129.857C109.893 129.857 168.156 135.182 166.409 134.594C164.661 134.006 122.947 216.629 122.947 216.629C122.947 216.629 100.653 175.25 103.409 164.918C106.164 154.603 111.792 133.855 109.893 129.84V129.857Z" fill="white" stroke="#084AA6" stroke-width="0.982727" stroke-miterlimit="10"/>
<path d="M157.37 129.638C157.37 129.638 147.021 177.333 136.958 189.144C126.895 200.954 120.326 210.732 120.326 210.732C107.642 180.979 116.328 128.294 116.681 128.328" stroke="#084AA6" stroke-width="1.97528" stroke-linecap="round" stroke-linejoin="round"/>
<path d="M123.653 132.78L144.182 133.973L135.85 145.581H126.022L123.653 132.78Z" fill="#084AA6"/>
<path d="M126.021 145.581C126.021 145.581 115.605 172.377 111.741 187.548L122.157 213.436L137.042 192.89C137.042 192.89 135.547 153.309 135.849 145.564H126.021V145.581Z" fill="#084AA6"/>
<path d="M176.321 152.1C176.455 151.495 174.557 124.43 174.557 124.43L159.655 118.197C159.655 118.197 150.801 145.9 145.98 155.527C140.167 167.136 122.93 216.645 122.93 216.645C122.93 216.645 136.353 200.232 145.677 191.479C155.018 182.726 169.601 164.935 169.601 164.935L161.402 156.736C170.642 153.712 176.321 152.1 176.321 152.1Z" fill="#FFFF59" stroke="#084AA6" stroke-width="1.97528" stroke-linecap="round" stroke-linejoin="round"/>
<path d="M115.605 147.261C118.109 135.014 122.544 117.693 122.544 117.693L106.365 123.522L93.9669 147.076L105.677 152.032C105.677 152.032 94.9581 156.702 94.9581 157.19C94.9581 158.063 98.6205 172.394 102.989 182.894C107.357 193.394 122.93 216.645 122.93 216.645C122.93 216.645 111.725 166.245 115.605 147.261Z" fill="#FFFF59" stroke="#084AA6" stroke-width="1.97528" stroke-linecap="round" stroke-linejoin="round"/>
<path d="M115.017 119.676L123.619 112.452C123.619 112.452 123.753 126.026 131.985 133.368L115.622 147.261C115.622 147.261 111.758 130.696 115.034 119.676H115.017Z" fill="white" stroke="#084AA6" stroke-width="1.97528" stroke-linecap="round" stroke-linejoin="round"/>
<path d="M131.986 133.367L147.761 148.655C148.063 148.773 154.498 140.205 157.874 133.972C161.386 127.504 165.199 120.011 165.014 119.977L159.286 110.855C159.286 110.855 146.854 120.868 142.687 124.446C138.521 128.025 131.969 133.384 131.969 133.384L131.986 133.367Z" fill="white" stroke="#084AA6" stroke-width="1.97528" stroke-linecap="round" stroke-linejoin="round"/>
<path d="M127.15 243.066C127.536 240.675 125.911 238.424 123.52 238.038C121.129 237.652 118.879 239.278 118.493 241.668C118.107 244.059 119.732 246.31 122.123 246.696C124.513 247.082 126.764 245.457 127.15 243.066Z" fill="white" stroke="#084AA6" stroke-width="1.97528" stroke-linecap="round" stroke-linejoin="round"/>
<path d="M83.9545 214.427L83.1313 171.789" stroke="#084AA6" stroke-width="1.97528" stroke-linecap="round" stroke-linejoin="round"/>
<path d="M170.642 86.177C177.194 87.269 185.006 80.2466 185.275 71.2586C185.443 65.6138 177.698 60.641 172.86 64.925C171.079 66.5042 168.996 68.957 168.307 70.0994" fill="white"/>
<path d="M170.642 86.177C177.194 87.269 185.006 80.2466 185.275 71.2586C185.443 65.6138 177.698 60.641 172.86 64.925C171.079 66.5042 168.996 68.957 168.307 70.0994" stroke="#084AA6" stroke-width="1.97528" stroke-linecap="round" stroke-linejoin="round"/>
<path d="M176.673 73.207C175.313 73.8286 173.633 74.6854 173.179 76.9366L176.673 73.207Z" fill="white"/>
<path d="M176.673 73.207C175.313 73.8286 173.633 74.6854 173.179 76.9366" stroke="#084AA6" stroke-width="1.97528" stroke-linecap="round" stroke-linejoin="round"/>
<path d="M104.719 85.7732C98.167 86.8652 90.355 79.8428 90.0862 70.8548C89.9182 65.21 97.663 60.2372 102.501 64.5212C104.282 66.1004 106.365 68.5532 107.054 69.6956" fill="white"/>
<path d="M104.719 85.7732C98.167 86.8652 90.355 79.8428 90.0862 70.8548C89.9182 65.21 97.663 60.2372 102.501 64.5212C104.282 66.1004 106.365 68.5532 107.054 69.6956" stroke="#084AA6" stroke-width="1.97528" stroke-linecap="round" stroke-linejoin="round"/>
<path d="M98.503 72.8042C99.8638 73.4258 101.544 74.2826 101.997 76.5338L98.503 72.8042Z" fill="white"/>
<path d="M98.503 72.8042C99.8638 73.4258 101.544 74.2826 101.997 76.5338" stroke="#084AA6" stroke-width="1.97528" stroke-linecap="round" stroke-linejoin="round"/>
<path d="M97.9824 44.6806C96.672 53.6182 99.9144 68.2342 101.611 80.6158C106.063 113.141 128.34 119.222 136.186 118.802C153.994 117.878 167.198 104.925 171.348 84.883C173.498 74.467 175.817 56.8774 171.768 45.3526C167.719 33.811 153.641 4.52864 126.19 21.6814C110.095 31.7446 100.351 28.5358 97.9992 44.6638L97.9824 44.6806Z" fill="white" stroke="#084AA6" stroke-width="1.97528" stroke-linecap="round" stroke-linejoin="round"/>
<path d="M146.904 96.2568C146.904 96.2568 144.098 101.868 136.085 101.868C129.062 101.868 126.458 96.8616 126.458 96.8616" fill="white"/>
<path d="M146.904 96.2568C146.904 96.2568 144.098 101.868 136.085 101.868C129.062 101.868 126.458 96.8616 126.458 96.8616" stroke="#084AA6" stroke-width="1.97528" stroke-linecap="round" stroke-linejoin="round"/>
<path d="M132.876 83.7237L129.264 80.7165C129.264 80.7165 131.213 71.2749 131.667 66.8901" fill="white"/>
<path d="M132.876 83.7237L129.264 80.7165C129.264 80.7165 131.213 71.2749 131.667 66.8901" stroke="#084AA6" stroke-width="1.97528" stroke-linecap="round" stroke-linejoin="round"/>
<path d="M154.212 63.3961C154.766 64.8745 154.01 66.5377 152.532 67.0921C151.053 67.6465 149.39 66.8905 148.836 65.4121C148.281 63.9337 149.037 62.2705 150.516 61.7161C151.994 61.1617 153.657 61.9177 154.212 63.3961Z" fill="#084AA6"/>
<path d="M120.713 63.9674C121.267 65.4458 120.511 67.109 119.033 67.6634C117.554 68.2178 115.891 67.4618 115.337 65.9834C114.782 64.505 115.538 62.8418 117.017 62.2874C118.495 61.733 120.158 62.489 120.713 63.9674Z" fill="#084AA6"/>
<path d="M101.191 48.4608C99.9314 57.2808 99.797 70.5024 99.797 70.5024C99.797 70.5024 94.1018 54.6768 91.7834 46.0416C89.4482 37.4064 88.9778 22.1856 102.199 14.5752C107.895 11.2992 124.476 4.86483 131.045 3.18483C141.73 0.44643 153.691 2.61363 161.638 7.83843C170.525 13.668 169.954 21.984 169.954 21.984C169.954 21.984 174.389 20.0352 179.866 26.2008C192.18 40.044 171.852 74.6688 172.541 73.9296C172.541 73.9296 174.238 60.6912 166.527 51.6864C158.412 42.1944 156.346 29.1912 156.9 21.7152C156.9 21.7152 138.454 37.4568 119.403 45.5208C119.403 45.5208 127.03 33.1728 129.432 29.4432C129.432 29.4432 113.741 38.3304 108.247 46.6464L111.994 30.048C111.994 30.048 102.367 40.0776 101.158 48.4944L101.191 48.4608Z" fill="#084AA6" stroke="#084AA6" stroke-width="3.98987" stroke-linecap="round" stroke-linejoin="round"/>
<path d="M166.543 30.7031C166.392 36.4151 169.281 42.7655 173.767 47.0327" stroke="white" stroke-width="1.97528" stroke-linecap="round" stroke-linejoin="round"/>
<path d="M132.674 11.3662C128.659 13.1638 114.026 18.7582 111.826 21.1942" stroke="white" stroke-width="1.97528" stroke-linecap="round" stroke-linejoin="round"/>
<path d="M122.04 24.9911C125.316 23.0759 138.823 17.1455 141.881 15.1631" stroke="white" stroke-width="1.97528" stroke-linecap="round" stroke-linejoin="round"/>
<path d="M62.215 184.456L64.987 191.546" stroke="#084AA6" stroke-width="1.97528" stroke-linecap="round" stroke-linejoin="round"/>
<path d="M21.4753 165.136C21.1897 166.228 20.0641 166.9 18.9553 166.598C17.8633 166.312 17.1914 165.186 17.4938 164.078C17.7794 162.986 18.905 162.314 20.0138 162.616C21.1058 162.902 21.7777 164.027 21.4753 165.136Z" fill="#084AA6"/>
<path d="M24.2808 173.15C23.9952 174.242 22.8696 174.914 21.7608 174.612C20.6688 174.326 19.9968 173.201 20.2992 172.092C20.5848 171 21.7104 170.328 22.8192 170.63C23.9112 170.916 24.5832 172.041 24.2808 173.15Z" fill="#084AA6"/>
<path d="M170.067 173.497L90.9902 202.278L129.511 308.113L208.587 279.332L170.067 173.497Z" fill="white" stroke="#084AA6" stroke-width="1.97528" stroke-linecap="round" stroke-linejoin="round"/>
<path d="M147.674 178.796L111.554 191.943L116.875 206.561L152.995 193.415L147.674 178.796Z" fill="white" stroke="#084AA6" stroke-width="1.97528" stroke-linecap="round" stroke-linejoin="round"/>
<path d="M207.821 144.607C210.526 151.713 223.193 188.825 229.493 210.379C231.324 216.645 235.356 231.379 234.583 241.224C234.18 246.281 229.291 253.32 220.69 258.175C209.837 264.273 159.252 280.334 159.252 280.334C159.252 280.334 155.388 271.531 152.885 262.593C150.516 254.126 149.155 244.634 149.155 244.634L197.976 227.683C196.615 223.617 187.375 198.72 185.779 190.74" fill="#FFFF59"/>
<path d="M207.821 144.607C210.526 151.713 223.193 188.825 229.493 210.379C231.324 216.645 235.356 231.379 234.583 241.224C234.18 246.281 229.291 253.32 220.69 258.175C209.837 264.273 159.252 280.334 159.252 280.334C159.252 280.334 155.388 271.531 152.885 262.593C150.516 254.126 149.155 244.634 149.155 244.634L197.976 227.683C196.615 223.617 187.375 198.72 185.779 190.74" stroke="#084AA6" stroke-width="1.97528" stroke-linecap="round" stroke-linejoin="round"/>
<path d="M197.959 227.649L204.394 224.944" stroke="#084AA6" stroke-width="1.97528" stroke-linecap="round" stroke-linejoin="round"/>
<path d="M22.214 34.2476V46.058" stroke="#084AA6" stroke-width="2.5944"/>
<path d="M5.3974 39.6909L13.3606 48.4269" stroke="#084AA6" stroke-width="2.5944"/>
<path d="M39.0309 39.6909L31.0677 48.4269" stroke="#084AA6" stroke-width="2.5944"/>
</svg>
