<svg width="170" height="170" viewBox="0 0 170 170" fill="none" xmlns="http://www.w3.org/2000/svg">
<mask id="mask0_5669_775" style="mask-type:luminance" maskUnits="userSpaceOnUse" x="0" y="0" width="170" height="170">
<path d="M170 0H0V170H170V0Z" fill="white"/>
</mask>
<g mask="url(#mask0_5669_775)">
<mask id="mask1_5669_775" style="mask-type:luminance" maskUnits="userSpaceOnUse" x="0" y="1" width="191" height="188">
<path d="M190.434 1.5752H0V188.983H190.434V1.5752Z" fill="white"/>
</mask>
<g mask="url(#mask1_5669_775)">
<path d="M37.6267 117.663L35.4847 109.095L55.454 105.173L57.2334 111.951" fill="white"/>
<path d="M37.6267 117.663L35.4847 109.095L55.454 105.173L57.2334 111.951" stroke="#084AA6" stroke-width="2.08" stroke-linecap="round" stroke-linejoin="round"/>
<path d="M126.865 72.1143C132.759 72.6356 141.44 72.4316 145.429 84.8869C149.419 97.3309 154.156 110.829 157.454 111.464C147.889 110.965 134.379 104.822 129.03 96.6623C123.681 88.5023 123.669 81.3283 122.967 80.5689" fill="#084AA6"/>
<path d="M126.865 72.1143C132.759 72.6356 141.44 72.4316 145.429 84.8869C149.419 97.3309 154.156 110.829 157.454 111.464C147.889 110.965 134.379 104.822 129.03 96.6623C123.681 88.5023 123.669 81.3283 122.967 80.5689" stroke="#084AA6" stroke-width="4.06" stroke-linecap="round" stroke-linejoin="round"/>
<path d="M132.475 85.374C133.903 90.474 138.006 95.4154 140.783 97.1834L132.475 85.374Z" fill="#80D7FF"/>
<path d="M132.475 85.374C133.903 90.474 138.006 95.4154 140.783 97.1834" stroke="white" stroke-width="2.08" stroke-linecap="round" stroke-linejoin="round"/>
<path d="M134.175 179.724C134.402 180.585 143.718 207.366 143.718 207.366C143.718 207.366 127.477 214.075 103.269 213.293C91.494 212.908 73.0207 207.604 73.5987 206.459C74.1767 205.315 83.198 179.463 82.3027 172.822C80.92 162.52 79.526 159.743 77.86 155.584C77.86 155.584 67.3993 169.422 54.9213 165.625C46.716 163.132 32.81 115.872 32.81 115.872L59.5567 108.913C59.5567 108.913 65.4953 137.088 65.9713 138.867C66.2433 139.91 80.5913 105.525 80.5913 105.525C82.9147 100.357 89.6467 98.5093 97.3533 99.11C101.048 99.4046 104.55 99.348 110.126 99.348C113.889 99.348 135.093 102.51 135.093 102.51C135.093 102.51 142.426 105.196 143.593 105.944C148.013 108.811 151.697 127.602 150.371 132.917C146.075 150.099 133.121 171.847 134.164 179.724H134.175Z" fill="#FFFF59" stroke="#084AA6" stroke-width="2.08" stroke-linecap="round" stroke-linejoin="round"/>
<path d="M92.48 103.802C92.48 103.802 130.696 107.293 129.551 106.908C128.407 106.522 101.048 160.718 101.048 160.718C101.048 160.718 86.428 133.575 88.23 126.809C90.032 120.043 93.7267 106.432 92.4913 103.802H92.48Z" fill="#084AA6"/>
<path d="M121.131 78.0186C121.131 78.0186 118.83 93.9192 122.559 99.6539C126.287 105.389 128.214 103.666 128.214 103.666C128.214 103.666 116.62 123.193 105.06 121.845C95.0867 120.677 93.5793 104.629 93.5793 104.629C93.5793 104.629 99.8013 106.545 103.813 98.7926C107.837 91.0406 105.253 79.5599 105.253 79.5599" fill="white"/>
<path d="M121.131 78.0186C121.131 78.0186 118.83 93.9192 122.559 99.6539C126.287 105.389 128.214 103.666 128.214 103.666C128.214 103.666 116.62 123.193 105.06 121.845C95.0867 120.677 93.5793 104.629 93.5793 104.629C93.5793 104.629 99.8013 106.545 103.813 98.7926C107.837 91.0406 105.253 79.5599 105.253 79.5599" stroke="#084AA6" stroke-width="2.08" stroke-linecap="round" stroke-linejoin="round"/>
<path d="M123.624 103.655C123.624 103.655 116.835 134.935 110.228 142.687C103.632 150.439 99.3254 156.842 99.3254 156.842C91.0067 137.326 96.7074 102.771 96.934 102.793" stroke="#084AA6" stroke-width="2.08" stroke-linecap="round" stroke-linejoin="round"/>
<path d="M133.915 116.235L133.563 100.368L123.148 98.2148C123.148 98.2148 118.943 112.28 115.781 118.592C111.973 126.208 101.048 159.369 101.048 159.369C101.048 159.369 109.854 149.974 115.974 144.228C122.094 138.494 131.07 124.803 131.07 124.803L123.227 118.558C129.279 116.575 133.926 116.235 133.926 116.235H133.915Z" fill="#FFFF59" stroke="#084AA6" stroke-width="2.08" stroke-linecap="round" stroke-linejoin="round"/>
<path d="M97.41 114.149C98.464 106.023 103.825 97.4102 103.825 97.4102L95.5853 97.6822L84.1727 113.379L91.8453 116.949C91.8453 116.949 84.1727 120.02 84.1727 120.337C84.1727 120.915 85.0453 132.351 87.9127 139.241C90.78 146.132 101.048 159.358 101.048 159.358C101.048 159.358 96.6847 119.771 97.41 114.161V114.149Z" fill="#FFFF59" stroke="#084AA6" stroke-width="2.08" stroke-linecap="round" stroke-linejoin="round"/>
<path d="M109.129 17.2268C109.129 17.2268 90.9387 12.0361 85.0453 28.8208C80.2513 42.4774 88.9667 54.1848 88.9667 54.1848L109.129 17.2154V17.2268Z" fill="#084AA6" stroke="#084AA6" stroke-width="4.06" stroke-linecap="round" stroke-linejoin="round"/>
<path d="M91.0634 34.7253C88.6721 40.936 88.0487 48.7787 86.5754 57.8567C84.3427 71.672 91.1654 86.8813 104.913 88.3887C117.708 89.794 129.71 82.3933 136.283 72.658C140.669 66.164 144.987 52.7907 144.069 43.8713C143.151 34.952 129.812 18.3713 116.28 19.7427C102.748 21.114 95.3701 23.494 91.0521 34.7253H91.0634Z" fill="white" stroke="#084AA6" stroke-width="2.08" stroke-linecap="round" stroke-linejoin="round"/>
<path d="M105.196 16.2634C103.949 17.0341 109.684 33.0821 122.853 45.4921C136.023 57.9021 143.083 63.7501 143.083 63.7501C143.083 63.7501 161.228 43.3614 144.126 23.9701C132.759 11.0728 114.387 10.6308 105.196 16.2748V16.2634Z" fill="#084AA6" stroke="#084AA6" stroke-width="4.06" stroke-linecap="round" stroke-linejoin="round"/>
<path d="M125.324 55.4767C125.483 56.6667 124.644 57.766 123.454 57.9247C122.264 58.0833 121.165 57.2447 121.006 56.0547C120.847 54.8647 121.686 53.7653 122.876 53.6067C124.066 53.448 125.165 54.2867 125.324 55.4767Z" fill="#084AA6"/>
<path d="M101.603 49.2999C101.762 50.4899 100.923 51.5892 99.7334 51.7479C98.5434 51.9066 97.4441 51.0679 97.2854 49.8779C97.1267 48.6879 97.9654 47.5886 99.1554 47.4299C100.345 47.2712 101.445 48.1099 101.603 49.2999Z" fill="#084AA6"/>
<path d="M123.477 30.4072C125.981 36.8899 132.849 45.0046 138.255 47.1579" stroke="white" stroke-width="2.08" stroke-linecap="round" stroke-linejoin="round"/>
<path d="M131.58 28.1636C133.314 33.2296 137.745 39.3836 142.154 41.0722" stroke="white" stroke-width="2.08" stroke-linecap="round" stroke-linejoin="round"/>
<path d="M105.185 53.5273C100.447 58.854 96.696 59.6247 96.696 59.6247L101.807 63.9993" fill="white"/>
<path d="M105.185 53.5273C100.447 58.854 96.696 59.6247 96.696 59.6247L101.807 63.9993" stroke="#084AA6" stroke-width="2.08" stroke-linecap="round" stroke-linejoin="round"/>
<path d="M116.382 74.6868C116.382 74.6868 112.563 78.6875 108.301 78.0188C104.142 77.3615 102.895 73.2588 102.895 73.2588" fill="white"/>
<path d="M116.382 74.6868C116.382 74.6868 112.563 78.6875 108.301 78.0188C104.142 77.3615 102.895 73.2588 102.895 73.2588" stroke="#084AA6" stroke-width="2.08" stroke-linecap="round" stroke-linejoin="round"/>
<path d="M137.802 60.8032C142.063 61.9026 145.248 64.4412 144.205 68.4646C143.163 72.4992 138.867 74.8679 134.617 73.7686" fill="white"/>
<path d="M137.802 60.8032C142.063 61.9026 145.248 64.4412 144.205 68.4646C143.163 72.4992 138.867 74.8679 134.617 73.7686" stroke="#084AA6" stroke-width="2.08" stroke-linecap="round" stroke-linejoin="round"/>
<path d="M138.278 75.1062C138.233 76.6362 136.963 77.8488 135.433 77.8035C133.903 77.7582 132.691 76.4888 132.736 74.9588C132.781 73.4288 134.051 72.2162 135.581 72.2615C137.111 72.3068 138.323 73.5762 138.278 75.1062Z" fill="white" stroke="#084AA6" stroke-width="2.08" stroke-linecap="round" stroke-linejoin="round"/>
<path d="M103.519 169.23C103.519 170.816 102.238 172.097 100.651 172.097C99.0647 172.097 97.784 170.816 97.784 169.23C97.784 167.643 99.0647 166.362 100.651 166.362C102.238 166.362 103.519 167.643 103.519 169.23Z" fill="white" stroke="#084AA6" stroke-width="2.08" stroke-linecap="round" stroke-linejoin="round"/>
<path d="M77.282 131.728C77.01 133.53 76.33 137.655 75.7747 139.774C74.4713 144.806 74.8 150.042 77.86 155.584" stroke="#084AA6" stroke-width="2.08" stroke-linecap="round" stroke-linejoin="round"/>
<path d="M131.829 169.547C135.513 177.219 160.888 189.063 169.932 182.739C182.002 174.295 167.733 154.326 165.829 149.815C163.925 145.305 157.737 132.192 154.949 124.44C151.742 115.521 148.24 108.913 145.86 107.327C143.775 105.944 140.964 104.969 140.964 104.969" fill="#FFFF59"/>
<path d="M131.829 169.547C135.513 177.219 160.888 189.063 169.932 182.739C182.002 174.295 167.733 154.326 165.829 149.815C163.925 145.305 157.737 132.192 154.949 124.44C151.742 115.521 148.24 108.913 145.86 107.327C143.775 105.944 140.964 104.969 140.964 104.969" stroke="#084AA6" stroke-width="2.08" stroke-linecap="round" stroke-linejoin="round"/>
<path d="M66.334 92.0491C64.2147 94.9731 60.554 101.127 58.2534 100.606C55.9414 100.096 57.1654 95.1998 57.9587 91.6751C58.7407 88.1505 64.124 84.1725 66.436 84.6258C70.278 85.3738 68.4987 89.0685 66.334 92.0491Z" fill="white" stroke="#084AA6" stroke-width="2.05" stroke-linecap="round" stroke-linejoin="round"/>
<path d="M17.9407 83.844C20.5134 85.8614 24.548 87.8107 25.942 86.19C27.3473 84.5807 25.2393 80.648 22.7687 78.506C20.3094 76.364 16.2747 76.2054 14.688 77.9507C13.2487 79.526 15.878 82.2347 17.9407 83.844Z" fill="white" stroke="#084AA6" stroke-width="2.05" stroke-linecap="round" stroke-linejoin="round"/>
<path d="M21.216 93.9648C24.14 95.3248 27.1207 97.2968 28.5034 95.7101C29.886 94.1121 28.322 91.0861 25.8854 88.9781C23.4487 86.8588 18.7114 85.9521 17.3287 87.5501C15.946 89.1481 17.8047 92.3895 21.216 93.9648Z" fill="white" stroke="#084AA6" stroke-width="2.05" stroke-linecap="round" stroke-linejoin="round"/>
<path d="M23.5507 100.164C26.214 101.705 28.696 101.614 29.7047 99.8691C30.7134 98.1237 28.5034 95.7891 25.8287 94.2477C23.154 92.7064 19.5387 92.9331 18.53 94.6784C17.5214 96.4237 20.876 98.6224 23.5394 100.175L23.5507 100.164Z" fill="white" stroke="#084AA6" stroke-width="2.05" stroke-linecap="round" stroke-linejoin="round"/>
<path d="M25.5907 107.485C29.7387 109.65 31.6993 109.015 31.96 107.236C32.2433 105.287 31.8693 104.301 29.4667 102.499C27.0527 100.697 23.052 100.368 21.8733 101.955C20.6947 103.53 22.9273 106.103 25.602 107.497L25.5907 107.485Z" fill="white" stroke="#084AA6" stroke-width="2.05" stroke-linecap="round" stroke-linejoin="round"/>
<path d="M53.6794 45.8793L17.0262 52.3423L27.3169 110.704L63.9702 104.241L53.6794 45.8793Z" fill="#FFFF59" stroke="#084AA6" stroke-width="2.05" stroke-linecap="round" stroke-linejoin="round"/>
<path d="M47.7145 53.3737L25.1689 57.3491L26.5682 65.2847L49.1137 61.3093L47.7145 53.3737Z" fill="white" stroke="#084AA6" stroke-width="2.05" stroke-linecap="round" stroke-linejoin="round"/>
<path d="M32.0066 69.9894L28.2341 70.6546C27.5623 70.7731 27.1136 71.4138 27.2321 72.0857L27.8973 75.8582C28.0158 76.5301 28.6565 76.9787 29.3284 76.8602L33.1008 76.195C33.7727 76.0766 34.2214 75.4359 34.1029 74.764L33.4377 70.9915C33.3192 70.3196 32.6785 69.871 32.0066 69.9894Z" fill="#084AA6"/>
<path d="M40.6221 68.4714L36.8496 69.1366C36.1777 69.255 35.7291 69.8957 35.8476 70.5676L36.5128 74.3401C36.6312 75.012 37.272 75.4606 37.9438 75.3422L41.7163 74.677C42.3882 74.5585 42.8368 73.9178 42.7184 73.2459L42.0532 69.4734C41.9347 68.8015 41.294 68.3529 40.6221 68.4714Z" fill="#084AA6"/>
<path d="M49.2263 66.9553L45.4539 67.6204C44.782 67.7389 44.3333 68.3796 44.4518 69.0515L45.117 72.824C45.2355 73.4959 45.8762 73.9445 46.5481 73.826L50.3205 73.1609C50.9924 73.0424 51.4411 72.4017 51.3226 71.7298L50.6574 67.9573C50.5389 67.2854 49.8982 66.8368 49.2263 66.9553Z" fill="#084AA6"/>
<path d="M33.5692 78.8649L29.7967 79.5301C29.1248 79.6486 28.6762 80.2893 28.7947 80.9612L29.4598 84.7337C29.5783 85.4056 30.219 85.8542 30.8909 85.7357L34.6634 85.0705C35.3353 84.9521 35.7839 84.3113 35.6654 83.6395L35.0003 79.867C34.8818 79.1951 34.2411 78.7465 33.5692 78.8649Z" fill="#084AA6"/>
<path d="M42.1846 77.3469L38.4121 78.012C37.7402 78.1305 37.2916 78.7712 37.4101 79.4431L38.0753 83.2156C38.1937 83.8875 38.8344 84.3361 39.5063 84.2176L43.2788 83.5525C43.9507 83.434 44.3993 82.7933 44.2809 82.1214L43.6157 78.3489C43.4972 77.677 42.8565 77.2284 42.1846 77.3469Z" fill="#084AA6"/>
<path d="M50.7888 75.8312L47.0164 76.4964C46.3445 76.6149 45.8958 77.2556 46.0143 77.9275L46.6795 81.7C46.798 82.3719 47.4387 82.8205 48.1106 82.702L51.8831 82.0368C52.5549 81.9184 53.0036 81.2776 52.8851 80.6057L52.2199 76.8333C52.1014 76.1614 51.4607 75.7128 50.7888 75.8312Z" fill="#084AA6"/>
<path d="M35.1317 87.7404L31.3592 88.4056C30.6873 88.5241 30.2387 89.1648 30.3572 89.8367L31.0223 93.6092C31.1408 94.281 31.7815 94.7297 32.4534 94.6112L36.2259 93.946C36.8978 93.8276 37.3464 93.1868 37.2279 92.5149L36.5627 88.7425C36.4443 88.0706 35.8036 87.6219 35.1317 87.7404Z" fill="#084AA6"/>
<path d="M43.7491 86.2341L39.9766 86.8993C39.3047 87.0177 38.8561 87.6584 38.9746 88.3303L39.6398 92.1028C39.7582 92.7747 40.399 93.2233 41.0709 93.1049L44.8433 92.4397C45.5152 92.3212 45.9638 91.6805 45.8454 91.0086L45.1802 87.2361C45.0617 86.5642 44.421 86.1156 43.7491 86.2341Z" fill="#084AA6"/>
<path d="M52.3534 84.718L48.5809 85.3831C47.909 85.5016 47.4604 86.1423 47.5788 86.8142L48.244 90.5867C48.3625 91.2586 49.0032 91.7072 49.6751 91.5887L53.4476 90.9236C54.1195 90.8051 54.5681 90.1644 54.4496 89.4925L53.7844 85.72C53.666 85.0481 53.0252 84.5995 52.3534 84.718Z" fill="#084AA6"/>
<path d="M36.6962 96.6276L32.9237 97.2928C32.2518 97.4113 31.8032 98.052 31.9217 98.7239L32.5869 102.496C32.7053 103.168 33.346 103.617 34.0179 103.498L37.7904 102.833C38.4623 102.715 38.9109 102.074 38.7925 101.402L38.1273 97.6297C38.0088 96.9578 37.3681 96.5092 36.6962 96.6276Z" fill="#084AA6"/>
<path d="M45.3116 95.1096L41.5391 95.7747C40.8672 95.8932 40.4186 96.5339 40.5371 97.2058L41.2023 100.978C41.3207 101.65 41.9615 102.099 42.6334 101.98L46.4058 101.315C47.0777 101.197 47.5263 100.556 47.4079 99.8841L46.7427 96.1116C46.6242 95.4397 45.9835 94.9911 45.3116 95.1096Z" fill="#084AA6"/>
<path d="M53.9159 93.5934L50.1434 94.2586C49.4716 94.3771 49.0229 95.0178 49.1414 95.6897L49.8066 99.4622C49.9251 100.134 50.5658 100.583 51.2377 100.464L55.0101 99.799C55.682 99.6806 56.1307 99.0399 56.0122 98.368L55.347 94.5955C55.2285 93.9236 54.5878 93.475 53.9159 93.5934Z" fill="#084AA6"/>
<path d="M146.211 158.497C146.211 158.497 159.233 159.211 161.545 158.848L146.211 158.497Z" fill="#EEEEEF"/>
<path d="M146.211 158.497C146.211 158.497 159.233 159.211 161.545 158.848" stroke="#084AA6" stroke-width="2.08" stroke-linecap="round" stroke-linejoin="round"/>
<path d="M65.9713 138.879L66.6853 143.514" stroke="#084AA6" stroke-width="2.08" stroke-linecap="round" stroke-linejoin="round"/>
</g>
<path d="M145.939 194.605L95.8687 199.682L82.1553 137.666L134.436 131.58L145.939 194.605Z" fill="white" stroke="#084AA6" stroke-width="2.05" stroke-linecap="round" stroke-linejoin="round"/>
<path d="M122.819 140.658L96.5147 143.627L94.8033 136.193L121.323 133.099L122.819 140.658Z" fill="white" stroke="#084AA6" stroke-width="2.05" stroke-linecap="round" stroke-linejoin="round"/>
<path d="M103.122 139.582C103.292 140.341 102.805 141.021 102.045 141.1C101.286 141.191 100.538 140.647 100.368 139.888C100.198 139.128 100.674 138.448 101.433 138.358C102.193 138.267 102.941 138.811 103.111 139.57L103.122 139.582Z" fill="#084AA6"/>
<path d="M117.481 137.938C117.64 138.697 117.141 139.389 116.371 139.468C115.6 139.559 114.852 139.015 114.693 138.255C114.535 137.496 115.033 136.805 115.804 136.714C116.575 136.623 117.323 137.167 117.481 137.938Z" fill="#084AA6"/>
<path d="M151.697 180.438C151.255 180.993 150.507 181.129 149.781 181.276C147.401 181.786 143.559 179.452 141.451 177.004C136.907 176.267 130.991 176.369 130.605 174.454C130.027 171.552 135.909 171.201 135.909 171.201C135.909 171.201 128.531 171.496 127.851 168.991C127.183 166.475 134.3 166.248 134.3 166.248C134.3 166.248 126.865 166.112 127.217 163.664C127.568 161.216 132.328 161.398 132.328 161.398C131.886 161.012 129.291 161.262 128.089 160.366C126.877 159.471 127.137 158.156 128.463 157.465C129.597 156.876 131.886 156.717 134.527 156.604C136.748 156.513 138.867 156.196 140.851 156.422C142.551 156.615 143.843 157.476 145.191 157.93C150.167 159.596 151.504 162.769 152.184 164.605C152.819 166.328 153.442 168.481 153.476 170.385C153.533 173.819 152.66 179.202 151.685 180.426L151.697 180.438Z" fill="white" stroke="#084AA6" stroke-width="2.05" stroke-linecap="round" stroke-linejoin="round"/>
<path d="M132.328 161.397L139.423 161.511L144.387 162.848" fill="white"/>
<path d="M132.328 161.397L139.423 161.511L144.387 162.848" stroke="#084AA6" stroke-width="2.05" stroke-linecap="round" stroke-linejoin="round"/>
<path d="M134.3 166.248C134.3 166.248 137.949 166.056 138.323 166.18C138.697 166.305 143.571 167.653 143.571 167.653" fill="white"/>
<path d="M134.3 166.248C134.3 166.248 137.949 166.056 138.323 166.18C138.697 166.305 143.571 167.653 143.571 167.653" stroke="#084AA6" stroke-width="2.05" stroke-linecap="round" stroke-linejoin="round"/>
</g>
</svg>
