<svg width="188" height="188" viewBox="0 0 188 188" fill="none" xmlns="http://www.w3.org/2000/svg">
<g clip-path="url(#clip0_5667_167)">
<mask id="mask0_5667_167" style="mask-type:luminance" maskUnits="userSpaceOnUse" x="0" y="-3" width="193" height="194">
<path d="M192.821 -2.41016H0V190.41H192.821V-2.41016Z" fill="white"/>
</mask>
<g mask="url(#mask0_5667_167)">
<path d="M16.9877 170.99C15.6379 172.031 13.2727 174.126 8.55499 175.193C3.83731 176.26 3.65734 177.237 2.15334 178.394C0.63649 179.551 -2.92426 180.091 -2.7443 176.17C-2.56433 172.249 3.56736 168.611 3.31027 167.545C3.04032 166.478 0.726473 166.838 -2.56433 167.005C-5.85513 167.185 -6.56214 168.701 -8.52891 170.835C-10.4828 172.969 -14.2364 175.463 -16.4474 176.26C-19.6482 177.417 -22.142 176.26 -21.345 174.923C-20.5481 173.586 -13.7865 166.208 -13.7865 166.208C-13.7865 166.208 -21.088 172.172 -22.8619 172.172C-24.6359 172.172 -25.7156 171.105 -25.5357 170.745C-25.3557 170.385 -17.9771 163.354 -17.9771 163.354C-17.9771 163.354 -24.3788 166.825 -25.1886 165.668C-25.9856 164.511 -23.0547 161.4 -20.7409 159.973C-18.427 158.546 -13.5294 154.896 -10.2386 154.099C-6.94778 153.302 -0.893221 152.762 2.75751 154.009C6.40825 155.255 8.45215 157.749 12.5399 158.456C16.6277 159.163 28.9168 158.636 29.0968 158.366C29.2768 158.096 32.8375 172.609 32.8375 172.609L16.9748 170.99H16.9877Z" fill="white" stroke="#084AA6" stroke-width="2.07282" stroke-linecap="round" stroke-linejoin="round"/>
<path d="M93.3444 141.463C93.3444 141.463 83.3435 171.222 78.6644 175.361C73.9852 179.5 19.9312 178.562 19.9312 178.562C19.9312 178.562 22.1165 176.518 23.0035 167.622C23.5434 162.288 19.2114 156.645 19.2114 156.645L51.6823 148.289L61.0277 123.467C63.4315 116.795 65.5654 102.115 71.71 98.9012C76.1191 96.6002 81.0553 96.7673 81.0553 96.7673" fill="#FFFF59"/>
<path d="M93.3444 141.463C93.3444 141.463 83.3435 171.222 78.6644 175.361C73.9852 179.5 19.9312 178.562 19.9312 178.562C19.9312 178.562 22.1165 176.518 23.0035 167.622C23.5434 162.288 19.2114 156.645 19.2114 156.645L51.6823 148.289L61.0277 123.467C63.4315 116.795 65.5654 102.115 71.71 98.9012C76.1191 96.6002 81.0553 96.7673 81.0553 96.7673" stroke="#084AA6" stroke-width="2.07282" stroke-linecap="round" stroke-linejoin="round"/>
<path d="M24.2119 156.284C23.235 155.886 19.2243 156.644 19.2243 156.644C19.2243 156.644 23.1578 161.889 22.5537 166.607C21.9495 171.324 19.4685 178.51 19.4685 178.51H26.4101C26.4101 178.51 28.7368 170.54 28.6082 166.028C28.4797 161.516 24.1991 156.284 24.1991 156.284H24.2119Z" fill="white" stroke="#084AA6" stroke-width="2.07282" stroke-linecap="round" stroke-linejoin="round"/>
<path d="M158.621 203.024C158.248 206.315 155.227 208.848 151.923 208.655L116.29 206.572C112.986 206.379 110.724 203.551 111.264 200.286L129.723 88.4504C130.263 85.1853 133.4 82.7429 136.703 83.0257L166.089 85.5709C169.393 85.8537 171.784 88.7846 171.398 92.0754L158.633 203.024H158.621Z" fill="#C8C9CA"/>
<path d="M158.621 203.024C158.248 206.315 155.227 208.848 151.923 208.655L116.29 206.572C112.986 206.379 110.724 203.551 111.264 200.286L129.723 88.4504C130.263 85.1853 133.4 82.7429 136.703 83.0257L166.089 85.5709C169.393 85.8537 171.784 88.7846 171.398 92.0754L158.633 203.024H158.621Z" stroke="#084AA6" stroke-width="2.07282" stroke-linecap="round" stroke-linejoin="round"/>
<path d="M79.3844 99.9031C83.0866 99.7874 109.824 95.1468 110.146 95.1597C115.648 95.4039 127.937 102.667 129.094 103.438C136.035 107.976 136.781 124.019 136.035 129.43C133.618 146.964 129.364 168.046 129.621 178.188C129.929 179.024 135.225 204.348 135.225 204.348C135.225 204.348 125.186 208.397 101.057 210.222C89.3211 211.109 71.7745 208.217 72.2244 207.021C72.6743 205.813 81.2355 187.379 79.6929 180.862C75.1167 161.4 63.2775 150.756 65.2828 136.552" fill="#FFFF59"/>
<path d="M79.3844 99.9031C83.0866 99.7874 109.824 95.1468 110.146 95.1597C115.648 95.4039 127.937 102.667 129.094 103.438C136.035 107.976 136.781 124.019 136.035 129.43C133.618 146.964 129.364 168.046 129.621 178.188C129.929 179.024 135.225 204.348 135.225 204.348C135.225 204.348 125.186 208.397 101.057 210.222C89.3211 211.109 71.7745 208.217 72.2244 207.021C72.6743 205.813 81.2355 187.379 79.6929 180.862C75.1167 161.4 63.2775 150.756 65.2828 136.552" stroke="#084AA6" stroke-width="2.07282" stroke-linecap="round" stroke-linejoin="round"/>
<path d="M160.6 103.04L150.586 179.127" stroke="#084AA6" stroke-width="2.07282" stroke-linecap="round" stroke-linejoin="round"/>
<path d="M234.952 248.671L-123.836 249.468L-125.43 157.775L234.952 207.022V248.671Z" fill="white" stroke="#084AA6" stroke-width="2.07282" stroke-linecap="round" stroke-linejoin="round"/>
<path d="M-4.40277 175.541L-49.5613 186.133L-48.8158 189.706L11.3185 200.929L74.7822 191.069V187.984L-4.40277 175.541Z" fill="#E5E5E6" stroke="#084AA6" stroke-width="1.88" stroke-linecap="round" stroke-linejoin="round"/>
<path d="M11.3828 197.676L74.7822 187.984L-4.40277 175.541L-49.5613 186.133L11.3828 197.676Z" fill="#E5E5E6" stroke="#084AA6" stroke-width="0.94" stroke-linecap="round" stroke-linejoin="round"/>
<path d="M-39.3032 185.117L17.1932 194.655L43.2625 190.298L-11.9356 179.924L-39.3032 185.117Z" fill="#084AA6" stroke="#E5E5E6" stroke-width="0.638718" stroke-linecap="round" stroke-linejoin="round"/>
<path d="M-23.3892 182.598L30.0093 192.354" stroke="#E5E5E6" stroke-width="0.56641" stroke-linecap="round" stroke-linejoin="round"/>
<path d="M-32.4773 184.205L24.3019 193.473" stroke="#E5E5E6" stroke-width="0.56641" stroke-linecap="round" stroke-linejoin="round"/>
<path d="M30.1251 187.868L3.38733 192.431" stroke="#E5E5E6" stroke-width="0.56641" stroke-linecap="round" stroke-linejoin="round"/>
<path d="M-16.7433 181.608L37.0665 191.275" stroke="#E5E5E6" stroke-width="0.56641" stroke-linecap="round" stroke-linejoin="round"/>
<path d="M22.8622 186.518L-4.33832 191.236" stroke="#E5E5E6" stroke-width="0.56641" stroke-linecap="round" stroke-linejoin="round"/>
<path d="M15.625 185.181L-10.5344 189.963" stroke="#E5E5E6" stroke-width="0.56641" stroke-linecap="round" stroke-linejoin="round"/>
<path d="M8.41332 183.844L-18.2859 188.678" stroke="#E5E5E6" stroke-width="0.56641" stroke-linecap="round" stroke-linejoin="round"/>
<path d="M1.24048 182.507L-25.7544 187.405" stroke="#E5E5E6" stroke-width="0.56641" stroke-linecap="round" stroke-linejoin="round"/>
<path d="M25.0733 185.207L34.7786 183.356L18.0547 180.335L8.51648 182.057L25.0733 185.207Z" fill="#BEBFBF"/>
<path d="M-72.9055 122.823L-9.76319 132.914C-9.76319 132.914 12.0255 201.083 11.3057 200.928C10.5987 200.774 -48.1345 189.861 -48.8286 189.706C-49.5099 189.565 -72.9183 122.823 -72.9183 122.823H-72.9055Z" fill="#E5E5E6" stroke="#084AA6" stroke-width="2.07282" stroke-linecap="round" stroke-linejoin="round"/>
<path d="M-11.3444 136.616L5.32819 189.732" stroke="#084AA6" stroke-width="1.13282" stroke-linecap="round" stroke-linejoin="round"/>
<path d="M94.1285 75.145C94.1285 75.145 97.278 88.5268 101.597 93.8358C105.916 99.1319 100.53 101.304 100.53 101.304C100.53 101.304 96.7895 118.928 83.1763 122.399C73.4582 124.88 72.3655 106.369 72.3655 106.369C72.3655 106.369 83.2792 106.241 84.2433 97.5765C84.7832 92.7688 80.1683 80.6982 80.1683 80.6982" fill="white"/>
<path d="M94.1285 75.145C94.1285 75.145 97.278 88.5268 101.597 93.8358C105.916 99.1319 100.53 101.304 100.53 101.304C100.53 101.304 96.7895 118.928 83.1763 122.399C73.4582 124.88 72.3655 106.369 72.3655 106.369C72.3655 106.369 83.2792 106.241 84.2433 97.5765C84.7832 92.7688 80.1683 80.6982 80.1683 80.6982" stroke="#084AA6" stroke-width="2.07282" stroke-linecap="round" stroke-linejoin="round"/>
<path d="M108.012 132.542L99.2062 161.105L59.2409 165.334C59.2409 165.334 63.5729 170.977 63.033 176.312C62.1461 185.208 59.9608 187.251 59.9608 187.251C59.9608 187.251 114.015 188.19 118.694 184.051C123.373 179.911 136.048 127.464 136.048 127.464C136.845 119.327 133.85 109.712 133.85 109.712" fill="#FFFF59"/>
<path d="M108.012 132.542L99.2062 161.105L59.2409 165.334C59.2409 165.334 63.5729 170.977 63.033 176.312C62.1461 185.208 59.9608 187.251 59.9608 187.251C59.9608 187.251 114.015 188.19 118.694 184.051C123.373 179.911 136.048 127.464 136.048 127.464C136.845 119.327 133.85 109.712 133.85 109.712" stroke="#084AA6" stroke-width="2.07282" stroke-linecap="round" stroke-linejoin="round"/>
<path d="M60.7578 167.249C60.205 166.992 52.9421 168.226 50.5254 167.429C48.1087 166.619 37.1565 164.28 34.2899 164.408C31.4105 164.537 24.1219 164.897 22.0523 166.722C19.6613 168.83 11.5243 177.366 13.1054 178.073C17.2446 179.898 22.9778 172.198 22.9778 172.198C22.9778 172.198 27.2841 170.874 28.184 171.53C28.5182 171.774 24.1604 174.576 23.2863 176.518C22.0008 179.384 20.3169 183.395 20.9725 183.948C22.6307 185.362 25.0474 183.549 26.5128 180.952C27.4898 179.23 30.5878 176.543 30.5878 176.543C30.5878 176.543 24.3147 184.77 26.0886 185.58C29.0195 186.917 33.5315 181.724 33.5315 181.724C33.5315 181.724 29.8036 185.953 32.2975 187.123C33.5701 187.727 39.766 182.816 40.473 182.302C41.1801 181.788 45.075 182.482 48.6872 182.611C52.6722 182.739 56.0658 181.364 56.2329 180.965C56.3872 180.567 65.8996 182.148 65.4883 182.122C65.0769 182.096 69.5761 171.273 60.7706 167.262L60.7578 167.249Z" fill="white" stroke="#084AA6" stroke-width="2.07282" stroke-linecap="round" stroke-linejoin="round"/>
<path d="M33.5313 181.711C33.5313 181.711 35.7552 178.407 36.7578 177.507C37.7605 176.607 39.5087 176.145 40.7299 175.476" fill="white"/>
<path d="M33.5313 181.711C33.5313 181.711 35.7552 178.407 36.7578 177.507C37.7605 176.607 39.5088 176.145 40.7299 175.476" stroke="#084AA6" stroke-width="2.07282" stroke-linecap="round" stroke-linejoin="round"/>
<path d="M28.8267 178.6C29.9965 177.019 31.6805 174.962 32.876 174.345C34.4699 173.523 36.3467 172.52 36.3467 172.52" fill="white"/>
<path d="M28.8267 178.6C29.9965 177.019 31.6805 174.962 32.876 174.345C34.4699 173.523 36.3467 172.52 36.3467 172.52" stroke="#084AA6" stroke-width="2.07282" stroke-linecap="round" stroke-linejoin="round"/>
<path d="M27.7084 172.172C28.5826 171.118 33.6345 168.933 33.6345 168.933L27.7084 172.172Z" fill="white"/>
<path d="M27.7084 172.172C28.5826 171.118 33.6345 168.933 33.6345 168.933" stroke="#084AA6" stroke-width="2.07282" stroke-linecap="round" stroke-linejoin="round"/>
<path d="M64.2285 164.974C63.2516 164.576 59.2409 165.334 59.2409 165.334C59.2409 165.334 63.1744 170.579 62.5703 175.296C61.9661 180.014 59.4851 187.2 59.4851 187.2H66.4267C66.4267 187.2 68.7534 179.23 68.6248 174.718C68.4963 170.206 64.2157 164.974 64.2157 164.974H64.2285Z" fill="white" stroke="#084AA6" stroke-width="2.07282" stroke-linecap="round" stroke-linejoin="round"/>
<path d="M99.2061 161.104L105.274 160.963" stroke="#084AA6" stroke-width="2.07282" stroke-linecap="round" stroke-linejoin="round"/>
<path d="M50.8211 41.4915C50.5769 48.1374 52.5308 55.7474 54.0862 64.8099C56.4643 78.5902 67.8407 90.7379 81.3253 87.717C93.8715 84.889 102.818 74.001 105.865 62.6761C107.909 55.1175 107.639 41.0802 103.885 32.9431C100.132 24.8061 82.1352 13.4811 69.7947 19.1629C57.4541 24.8447 51.2453 29.4981 50.8211 41.5044V41.4915Z" fill="white" stroke="#084AA6" stroke-width="2.07282" stroke-linecap="round" stroke-linejoin="round"/>
<path d="M95.1956 12.6843C78.2917 9.58633 53.8806 14.7925 50.6798 27.7629C50.3327 29.1769 55.0889 39.4735 72.4685 44.4611C82.6494 47.3792 90.8379 44.4997 99.4634 46.0551C97.2523 53.3823 93.0617 70.8775 93.0617 70.8775L111.483 81.2899C111.483 81.2899 108.449 77.5234 112.549 68.4737C116.65 59.424 117.756 54.9891 117.756 54.9891C117.756 54.9891 126.15 18.3532 95.1956 12.6843Z" fill="#084AA6" stroke="#084AA6" stroke-width="4.89282" stroke-linecap="round" stroke-linejoin="round"/>
<path d="M79.9243 53.8836C80.4642 54.9634 80.0271 56.2617 78.9473 56.8016C77.8675 57.3415 76.5692 56.9045 76.0293 55.8247C75.4894 54.7449 75.9265 53.4466 77.0062 52.9067C78.086 52.3668 79.3844 52.8038 79.9243 53.8836Z" fill="#084AA6"/>
<path d="M59.7039 55.4007C60.2438 56.4805 59.8068 57.7788 58.727 58.3187C57.6472 58.8586 56.3489 58.4216 55.809 57.3418C55.2691 56.262 55.7061 54.9637 56.7859 54.4238C57.8657 53.8839 59.164 54.3209 59.7039 55.4007Z" fill="#084AA6"/>
<path d="M69.9747 31.6323C75.0652 36.35 86.0045 40.1678 91.7892 39.7308" stroke="white" stroke-width="2.07282" stroke-linecap="round" stroke-linejoin="round"/>
<path d="M78.1117 27.0947C81.891 30.8869 89.9637 33.9848 94.6685 33.5735" stroke="white" stroke-width="2.07282" stroke-linecap="round" stroke-linejoin="round"/>
<path d="M61.4134 59.5273C58.6753 66.0961 55.3716 68.0372 55.3716 68.0372L62.6731 70.2482" fill="white"/>
<path d="M61.4134 59.5273C58.6753 66.0961 55.3716 68.0372 55.3716 68.0372L62.6731 70.2482" stroke="#084AA6" stroke-width="2.07282" stroke-linecap="round" stroke-linejoin="round"/>
<path d="M79.9501 73.6802C79.9501 73.6802 80.8113 81.4573 76.5693 82.1643C73.2399 82.717 69.5378 75.7883 69.5378 75.7883C69.5378 75.7883 80.7856 73.8087 79.9501 73.6802Z" fill="white" stroke="#084AA6" stroke-width="2.07282" stroke-linecap="round" stroke-linejoin="round"/>
<path d="M103.448 50.9663C107.832 50.6192 111.663 51.9818 111.997 56.1339C112.318 60.2731 109.04 63.9239 104.657 64.2581" fill="white"/>
<path d="M103.448 50.9663C107.832 50.6192 111.663 51.9818 111.997 56.1339C112.318 60.2731 109.04 63.9239 104.657 64.2581" stroke="#084AA6" stroke-width="2.07282" stroke-linecap="round" stroke-linejoin="round"/>
<path d="M114.953 53.7684C115.583 59.7458 111.508 65.2477 105.852 66.0318C100.196 66.8159 95.1056 62.6124 94.4757 56.635C93.8458 50.6576 97.9208 45.1558 103.577 44.3716C109.233 43.5746 114.323 47.791 114.953 53.7684Z" fill="#FFFF59" stroke="#084AA6" stroke-width="2.07282" stroke-linecap="round" stroke-linejoin="round"/>
<path d="M111.624 54.5397C112.048 57.702 109.927 60.5428 106.868 60.8771C103.808 61.2113 100.98 58.9103 100.556 55.748C100.132 52.5858 102.253 49.7449 105.312 49.4107C108.372 49.0765 111.2 51.3774 111.624 54.5397Z" fill="#FFFF59" stroke="#084AA6" stroke-width="2.07282" stroke-linecap="round" stroke-linejoin="round"/>
<path d="M105.338 57.5342L85.323 75.685" stroke="#084AA6" stroke-width="5.85692" stroke-linecap="round" stroke-linejoin="round"/>
<path d="M105.338 57.5342L85.323 75.685" stroke="#FFFF59" stroke-width="1.56667" stroke-linecap="round" stroke-linejoin="round"/>
<path d="M68.2394 14.1499C68.2394 14.1499 81.724 14.6898 89.3339 18.6876" stroke="white" stroke-width="1.88" stroke-linecap="round" stroke-linejoin="round"/>
<path d="M87.457 17.7622C99.7333 22.03 104.541 29.7685 106.006 40.8493C107.163 49.6033 106.585 50.4389 106.585 51.5315" stroke="#084AA6" stroke-width="5.6882" stroke-linecap="round" stroke-linejoin="round"/>
<path d="M87.457 17.7622C99.7333 22.03 104.541 29.7685 106.006 40.8493C107.163 49.6033 106.585 50.4389 106.585 51.5315" stroke="#FFFF59" stroke-width="1.89205" stroke-linecap="round" stroke-linejoin="round"/>
<path d="M80.0527 158.444C79.9885 159.974 81.3896 162.982 81.3896 162.982L80.0527 158.444Z" fill="white"/>
<path d="M80.0527 158.444C79.9885 159.974 81.3896 162.982 81.3896 162.982" stroke="#084AA6" stroke-width="2.07282" stroke-linecap="round" stroke-linejoin="round"/>
<path d="M72.8413 115.727C72.8413 115.727 76.3763 124.469 83.1893 122.399C90.0023 120.329 93.7302 114.519 93.7302 114.519C93.7302 114.519 80.9783 156.567 80.387 156.361C79.7829 156.155 72.8413 115.715 72.8413 115.715V115.727Z" fill="#084AA6" stroke="#084AA6" stroke-width="2.07282" stroke-linecap="round" stroke-linejoin="round"/>
<path d="M106.675 110.059C106.675 110.059 109.156 94.6072 110.017 94.5044C110.878 94.4144 101.34 87.6914 101.34 87.6914C101.34 87.6914 89.655 115.715 87.1869 122.322C84.2174 130.305 80.0397 158.431 80.0397 158.431C80.0397 158.431 90.889 140.563 95.4525 133.544C100.787 125.33 103.731 120.535 103.731 120.535L95.7224 112.989C101.533 110.38 106.662 110.059 106.662 110.059H106.675Z" fill="#FFFF59" stroke="#084AA6" stroke-width="2.07282" stroke-linecap="round" stroke-linejoin="round"/>
<path d="M83.5878 94.2349C83.5878 94.2349 79.2558 110.123 78.7159 121.063C78.176 132.002 78.446 154.433 80.0528 158.431C80.0528 158.431 68.0465 129.071 67.7766 122.13L72.8542 115.728L68.3165 111.46L75.0523 98.117L83.6007 94.2477L83.5878 94.2349Z" fill="#FFFF59" stroke="#084AA6" stroke-width="2.07282" stroke-linecap="round" stroke-linejoin="round"/>
<path d="M25.1246 75.2866L39.946 76.8806" stroke="#084AA6" stroke-width="2.07282" stroke-linecap="round" stroke-linejoin="round"/>
<path d="M31.5391 102.114L44.3424 90.9048" stroke="#084AA6" stroke-width="2.07282" stroke-linecap="round" stroke-linejoin="round"/>
</g>
</g>
<defs>
<clipPath id="clip0_5667_167">
<rect width="188" height="188" rx="12.0513" fill="white"/>
</clipPath>
</defs>
</svg>
