<?xml version="1.0" encoding="UTF-8"?>
<svg id="_レイヤー_2" data-name="レイヤー 2" xmlns="http://www.w3.org/2000/svg" xmlns:xlink="http://www.w3.org/1999/xlink" viewBox="0 0 195 195">
  <defs>
    <style>
      .cls-1 {
        fill: #fff;
      }

      .cls-1, .cls-2, .cls-3, .cls-4, .cls-5 {
        stroke: #084aa6;
        stroke-linecap: round;
        stroke-linejoin: round;
        stroke-width: 2.07px;
      }

      .cls-6, .cls-7, .cls-5 {
        fill: none;
      }

      .cls-8 {
        clip-path: url(#clippath-1);
      }

      .cls-9 {
        fill: #084aa6;
      }

      .cls-2 {
        fill: #b4b4b5;
      }

      .cls-3 {
        fill: #ffff59;
      }

      .cls-7 {
        stroke: #fff;
        stroke-miterlimit: 10;
        stroke-width: 1.51px;
      }

      .cls-10 {
        clip-path: url(#clippath-2);
      }

      .cls-4 {
        fill: #f2f8ff;
      }

      .cls-11 {
        clip-path: url(#clippath);
      }
    </style>
    <clipPath id="clippath">
      <rect class="cls-6" width="195" height="195"/>
    </clipPath>
    <clipPath id="clippath-1">
      <path class="cls-6" d="M118.78,72.01s-.13,4-4.38,6.38c-5.28,2.95-9.51,3.38-9.51,3.38l10.14,10.64s8.76-7.26,9.76-14.89l-6.01-5.51Z"/>
    </clipPath>
    <clipPath id="clippath-2">
      <path class="cls-6" d="M100.26,71.76s.88,7.13,3.63,10.14l-14.01,7.51s-.88-12.14.88-15.64l9.51-2Z"/>
    </clipPath>
  </defs>
  <g id="img">
    <g class="cls-11">
      <g>
        <path class="cls-1" d="M72.51,175.5c.83-1.92-5.6,21.05-9.01,35.79h33.29s6.51-26.03,7.01-30.03c.5-4-31.28-5.76-31.28-5.76Z"/>
        <path class="cls-1" d="M99.38,181.01l5.76,30.78h29.78s-1.5-30.03-4.5-34.04c0,0-29.78,3.25-31.03,3.25Z"/>
        <path class="cls-3" d="M131.45,49.83c5.07.45,12.54.28,15.98,10.99,3.43,10.71,7.51,22.32,10.35,22.87-8.23-.42-19.86-5.71-24.46-12.74-4.6-7.03-4.62-13.19-5.22-13.85"/>
        <path class="cls-3" d="M133.53,60.23c1.23,4.38,4.76,8.64,7.15,10.16"/>
        <path class="cls-1" d="M59.46,99.92s-5.89,8.99-7.62,11.02c-1.73,2.03-8.73,10.17-12.97,17.46-5.19,8.92-7.76,16.44-7.76,16.44l8.19,9.69s6.91-16.37,9.75-19.71c4.32-5.08,7.31-14.78,10.06-15.95,2.74-1.17,13.26-11.48,13.26-11.48,0,0-2.34-5.49-4.37-7.21-2.03-1.73-8.53-.25-8.53-.25Z"/>
        <path class="cls-4" d="M44.17,144.67c-1.02-.86-12.67-4.83-12.67-4.83,0,0-.63,4.02-1.35,6.92-.71,2.9-2.29,6.81-.96,11.43s4.52,9.09,6.55,10.82c2.03,1.73,6.29,3.34,8.33,3.87,2.05.53,3.48-.59,5.99-2.2,3.02-1.93,7.49-5.09,5.46-6.81-2.03-1.73-7.24-3.45-7.24-3.45,0,0-1.17-2.74-1.47-6.5-.3-3.76-2.64-9.24-2.64-9.24Z"/>
        <path class="cls-4" d="M44.33,146.55s3.35,6.35,3.66,10.11c.3,3.76-.25,8.53-.25,8.53,0,0-1.66,5.66-3.84,2.05-2.18-3.61-4.58-13.97-5.44-12.95"/>
        <polyline class="cls-2" points="43.97 165.5 39.91 162.04 39.6 158.28"/>
        <path class="cls-3" d="M78.69,108.24c-3.02,11.98.82,16.03-.08,33.23-.38,7.13-14.77,35.8-15.27,36.79-.49.99,25.66,7.68,35.79,8.01,20.83.67,40.29-4.25,40.29-4.25,0,0-10.51-32.97-10.62-38.76-.11-5.79,10.25-25.49,13.95-40.27,1.14-4.57,2.91-18.17-.67-20.94-1.78-1.38-8.62-4.39-15.3-5.37-6.95-1.02-15.42-2.57-18.66-2.57-4.8,0-9.93-.32-13.12-.57-6.63-.52-12.4-1.78-16.23.74-10.45,6.05-22.85,25.35-22.85,25.35l21.33,6.67"/>
        <path class="cls-1" d="M121.03,57.25s-4.47,12.57-3.13,16.14c2.07,5.52,5.78,4.4,5.78,4.4,0,0-11.48,4.99-18.04,4.11-8.56-1.15-11.76-3.28-11.76-3.28,0,0,3.05.69,6.5-5.98,3.46-6.67,3.54-15.59,3.54-15.59"/>
        <path class="cls-1" d="M93.22,23.23c-2.05,5.35-2.6,12.09-3.86,19.91-1.92,11.89,3.95,24.97,15.78,26.27,11.01,1.21,21.34-5.16,27-13.54,3.77-5.59,7.49-17.1,6.7-24.77-.79-7.68-12.27-21.94-23.91-20.76-11.64,1.18-18,3.23-21.71,12.89Z"/>
        <path class="cls-3" d="M105.37,7.35c-1.07.66-2.24,11.98,16.03,23.74,13.09,8.43,16.57,17.11,16.57,17.11,0,0,14.79-19.05.9-34.23-9.99-10.92-25.59-11.48-33.5-6.63Z"/>
        <path class="cls-9" d="M123.77,39.11c.14,1.03-.58,1.97-1.61,2.11-1.03.14-1.97-.58-2.11-1.61-.14-1.03.58-1.97,1.61-2.11,1.03-.14,1.97.58,2.11,1.61Z"/>
        <path class="cls-9" d="M103.49,33.85c.14,1.03-.58,1.97-1.61,2.11-1.03.14-1.97-.58-2.11-1.61-.14-1.03.58-1.97,1.61-2.11,1.03-.14,1.97.58,2.11,1.61Z"/>
        <path class="cls-5" d="M128.08,17.58c1.49,4.36,5.3,9.65,9.1,11.11"/>
        <path class="cls-1" d="M106.26,37.74c-4.07,4.59-7.3,5.24-7.3,5.24l4.05,3.95"/>
        <path class="cls-1" d="M116,56.69s-1.68,6.47-8.67,5.25c-3.96-.69-4.54-7.11-4.54-7.11l13.21,1.85Z"/>
        <path class="cls-1" d="M133.43,45.67c3.67.94,6.41,3.13,5.51,6.59-.89,3.47-4.59,5.51-8.25,4.57"/>
        <path class="cls-4" d="M97.13,12.33s13.16-18.42,36.08-5.65c19.31,10.75,9.41,35.69,9.41,35.69,0,0-1.53-4.28-5.87-6.48-4.34-2.2-10.69-10.08-10.69-10.08l-11.79-8.72-17.14-4.76Z"/>
        <path class="cls-1" d="M140.85,39.24s-2.93-3.77-5.03-6.43c-4.44-5.63-5.04-9.39-9.29-16.48-3.59-5.98-8.64-14.3-20.52-14.52-3.04-.05-9.76-.13-13.51,2.88-8.71,6.97.03,21.36.03,21.36,0,0,1.69-8.26,9.98-9.35,16.27-2.13,22.64,10.8,28.38,15.02,5.47,4.02,9.96,7.52,9.96,7.52Z"/>
        <rect class="cls-1" x="52.92" y="99.63" width="58.67" height="30.67" transform="translate(5.48 -3.73) rotate(2.69)"/>
        <rect class="cls-1" x="36.7" y="130.2" width="85.45" height="35.45" transform="translate(7.02 -3.56) rotate(2.69)"/>
        <polygon class="cls-1" points="112.27 101.02 122.59 107.6 121.25 131.6 110.59 131.6 112.27 101.02"/>
        <polygon class="cls-1" points="122.94 132.22 137.25 135.6 137.02 167.03 121.28 167.63 122.94 132.22"/>
        <path class="cls-1" d="M145.68,112.56s-1.25,11.72-1.25,14.39.82,17.99-1.85,25.99c-2.67,8-10.67,18.67-10.67,18.67l-8-2.67s4.76-16.99,5.33-21.33c.91-6.89,2.92-14.9,2.67-18.67-.2-2.97-2.67-17.33-2.67-17.33,0,0,5.33-2.67,8-2.67s8.43,3.62,8.43,3.62Z"/>
        <path class="cls-4" d="M127.08,155.98c1.33,0,12.35,6.76,12.35,6.76,0,0-2.17,3.53-3.51,6.2-1.33,2.67-2.67,6.67-6.67,9.33-4,2.67-9.33,4-12,4s-7.19-.43-8.61-1.43c-1.38-.97-2.06-3.9-3.39-6.57-1.33-2.67-4-8-1.33-8s9.33,1.33,9.33,1.33c0,0,2.67-1.33,5.33-4,1.58-1.58,4.54-3.03,6.49-4.54,1.35-1.05,2-3.09,2-3.09Z"/>
        <polyline class="cls-2" points="113.25 174.27 118.59 174.27 121.25 171.6"/>
        <path class="cls-3" d="M104.26,16.96s-6.85-8.26-13.58,3.16c-5.38,9.13-.37,16.5-.37,16.5,0,0,.56-7.15,4.31-12.4,3.75-5.26,9.64-7.26,9.64-7.26Z"/>
        <path class="cls-3" d="M142.67,82.44c4.76,4.13,8.52,21.37,8.52,33.37,0,0-5.28-1.79-13.41-1.92-8.11-.12-11.49,2.17-11.49,2.17,0,0,1.31-15.86,1.96-19.69"/>
        <circle class="cls-1" cx="102.7" cy="90.85" r="2.06"/>
        <path class="cls-4" d="M125.25,159.6s-6.67,2.67-9.33,5.33c-2.67,2.67-5.33,6.67-5.33,6.67,0,0-1.85,4.81,2.15,3.48,4-1.33,10.76-6.67,11.19-6.15"/>
        <path class="cls-2" d="M110.59,171.6s-.86-3.28-1.44-3.86"/>
        <path class="cls-2" d="M73.11,98.17s1.75-5.76,3.75-9.26"/>
        <g class="cls-8">
          <path class="cls-3" d="M118.78,72.01s-.13,4-4.38,6.38c-5.28,2.95-9.51,3.38-9.51,3.38l10.14,10.64s8.76-7.26,9.76-14.89l-6.01-5.51Z"/>
          <path class="cls-7" d="M111.9,89.49c3.75-1.5,10.18-11.26,10.93-14.01"/>
        </g>
        <path class="cls-5" d="M118.78,72.01s-.13,4-4.38,6.38c-5.28,2.95-9.51,3.38-9.51,3.38l10.14,10.64s8.76-7.26,9.76-14.89l-6.01-5.51Z"/>
        <g class="cls-10">
          <path class="cls-3" d="M100.26,71.76s.88,7.13,3.63,10.14l-14.01,7.51s-.88-12.14.88-15.64l9.51-2Z"/>
          <path class="cls-7" d="M93.54,73.14s-1.17,10.59-.08,13.93"/>
        </g>
        <path class="cls-5" d="M100.26,71.76s.88,7.13,3.63,10.14l-14.01,7.51s-.88-12.14.88-15.64l9.51-2Z"/>
        <path class="cls-1" d="M131.32,53.05c.55-1.04,2.08-1.77,2.99-1.71"/>
      </g>
    </g>
  </g>
</svg>