<?xml version="1.0" encoding="UTF-8"?>
<svg id="_レイヤー_2" data-name="レイヤー 2" xmlns="http://www.w3.org/2000/svg" xmlns:xlink="http://www.w3.org/1999/xlink" viewBox="0 0 195 195">
  <defs>
    <style>
      .cls-1, .cls-2 {
        fill: #ffff59;
      }

      .cls-3 {
        fill: #f2f8ff;
      }

      .cls-3, .cls-4, .cls-2, .cls-5 {
        stroke-linecap: round;
        stroke-linejoin: round;
        stroke-width: 2.14px;
      }

      .cls-3, .cls-4, .cls-2, .cls-5, .cls-6 {
        stroke: #084aa6;
      }

      .cls-4, .cls-7, .cls-6 {
        fill: none;
      }

      .cls-8 {
        fill: #084aa6;
      }

      .cls-5 {
        fill: #fff;
      }

      .cls-6 {
        stroke-width: 2.91px;
      }

      .cls-9 {
        clip-path: url(#clippath);
      }
    </style>
    <clipPath id="clippath">
      <rect class="cls-7" width="195" height="195"/>
    </clipPath>
  </defs>
  <g id="img">
    <g class="cls-9">
      <g>
        <path class="cls-2" d="M111.92,95.66c-.18-.03-6.91-1.79-13.13-1.53-5.56.23-10.67,2.51-10.85,2.52-4.94.37-8.65,8.4-13,9.52-5.06,1.3-11.22,1.97-13.69,3.95-6.71,5.37.1,31.31,3.32,46.61,3.22,15.3,8.9,28.98,8.29,39.05-.65,10.88,2.72,5.18,2.72,5.18l54.63.49s3.73-1.43,2.72-8.49c-.74-5.17,1.28-18.25,4.77-36.23,3.49-17.98,4.79-37.75,2.64-45-1.44-4.86-9.76-4.82-20.02-7.79-2.35-.68-5.59-7.88-8.4-8.28Z"/>
        <path class="cls-3" d="M72.37,194.16s-5.44,24.35-9.64,40.17h78.11s-6.18-28.3-10.63-39.18l-57.84-.99Z"/>
        <g>
          <rect class="cls-3" x="72.37" y="185.02" width="60.31" height="11.62"/>
          <rect class="cls-3" x="96.59" y="184.52" width="10.88" height="13.35"/>
          <rect class="cls-3" x="115.87" y="184.52" width="6.18" height="13.35"/>
          <rect class="cls-3" x="81.02" y="184.52" width="6.18" height="13.35"/>
        </g>
        <path class="cls-2" d="M89.92,21.76s-3.06-25.28,20.02-19.03c11.86,3.21,9.27,26.94,10.2,37.88.93,10.94,5.99,37.69,16,41.96,0,0-15.08,1.24-19.34-6.55"/>
        <path class="cls-5" d="M86.63,106.69c3.41,2.08,6.43,3.03,13.17,2.82,6.36-.2,11.8-1.36,14.03-3.21-.49-.74-1.09-1.33-2.3-2.78-4.23-5.03-2.95-17.31-2.95-17.31l-17.58.67c-.19,4.15,1.68,14.84-4.37,19.81Z"/>
        <path class="cls-2" d="M137.62,139.41l-4.07,28.67-5.32,10.88s-3.58,12.73-.8,20.2c1.84,4.92,6.98,8.6,12.58,8.93,8.85.52,14.78-2.3,20.34-10.34,4.47-6.45.69-18.49-4.2-35.35-6.17-21.28-10.89-48.23-16.21-52.76-4.94-4.2-12.62-4.05-14.68-4.34"/>
        <g>
          <line class="cls-6" x1="47.57" y1="24.41" x2="54.62" y2="30.15"/>
          <line class="cls-6" x1="42.66" y1="37.11" x2="51.73" y2="36.59"/>
          <line class="cls-6" x1="59" y1="17.03" x2="60.34" y2="26.02"/>
        </g>
        <ellipse class="cls-5" cx="98.99" cy="17.24" rx="7.04" ry="5.64"/>
        <ellipse class="cls-5" cx="125.82" cy="64.54" rx="7.78" ry="6.91" transform="translate(44.93 180.54) rotate(-82.27)"/>
        <ellipse class="cls-5" cx="72.42" cy="64.95" rx="6.91" ry="7.78" transform="translate(-8.08 10.34) rotate(-7.73)"/>
        <path class="cls-5" d="M125.15,61.12c0,19.12-11.81,33.01-26.37,33.01s-25.97-14.29-26.37-33.01c-.1-4.69-.8-10.48.47-14.56,3.9-12.55,14.91-20.06,25.9-20.06,11.63,0,23.2,8.23,26.7,21.94.89,3.46-.34,8.83-.34,12.68Z"/>
        <path class="cls-2" d="M99.39,18.63l-.07.03c-22.27-2.82-31.03,15.29-31.13,25.63-.13,13.55,4.25,20.8,4.25,20.8v-7.69c8.2-9.55,11.15-22.33,15.01-27.72,1.68,2.32,8,7.3,11.24,7.3,2.12,0,4.08-.66,5.65-1.76,3.27,7.46,11.7,15.84,20.41,24.25l.39,5.62s3.86-6.28,4.18-18.81c.27-10.33-7.65-30.46-29.92-27.64Z"/>
        <path class="cls-8" d="M113.4,61.77c.4,1.18-.24,2.46-1.42,2.85-1.18.4-2.46-.24-2.85-1.42-.4-1.18.24-2.46,1.42-2.85,1.18-.4,2.46.24,2.85,1.42Z"/>
        <path class="cls-8" d="M88.71,61.77c.4,1.18-.24,2.46-1.42,2.85-1.18.4-2.46-.24-2.85-1.42-.4-1.18.24-2.46,1.42-2.85,1.18-.4,2.46.24,2.85,1.42Z"/>
        <path class="cls-5" d="M96.51,63.2c-1.21,4.56-3.09,7.11-3.09,7.11l2.42,3.09"/>
        <path class="cls-4" d="M94.13,80.06c1.23,4.24,8.31,4.32,10-.09"/>
        <path class="cls-1" d="M99.02,22.29c-17.8,0-23.52,16.89-24.99,28.3l9.31.09c.15-2.7-1.58-13.59,5.59-20.27,0,0,10.63,15.82,20.02,21.26l12.98.4s-1.71-29.78-22.91-29.78Z"/>
        <path class="cls-4" d="M101.73,33.85c1.3,5.52,8.08,12.09,9.69,13.02"/>
        <path class="cls-4" d="M109.38,33.06c2.54,5.49,7.37,10.75,10.94,12.18"/>
        <path class="cls-4" d="M75.71,51.6l7.63.02c-1.42-2.07-1.07-13.54,5.59-21.21,0,0,9.89,18.79,20.02,21.26"/>
        <path class="cls-4" d="M86.63,106.69c-.67-.39-2.65-1.38-2.65-2.87"/>
        <path class="cls-4" d="M111.61,107.65s3.15-1.3,4.39-3.58"/>
        <path class="cls-2" d="M138.86,163.51c2.84.62,4.45,2.6,4.7,3.83.25,1.24,6.08,9.3,8.06,10.28"/>
        <path class="cls-2" d="M63.97,139.91l4.83,28.95,4.53,10.1s3.58,12.73.8,20.2c-1.84,4.92-6.98,8.6-12.58,8.93-8.85.52-14.78-2.3-20.34-10.34-4.47-6.45-.69-18.49,4.2-35.35,6.17-21.28,6.95-43.75,15.1-52.4,4.45-4.72,12.37-3.17,14.43-3.46"/>
        <path class="cls-2" d="M62.7,163.51c-2.84.62-4.45,2.6-4.7,3.83-.25,1.24-6.58,9.55-8.56,10.54"/>
        <g>
          <polygon class="cls-5" points="100 151.49 69.97 139.99 100 128.5 130.03 139.99 100 151.49"/>
          <polygon class="cls-5" points="100 191.48 69.97 179.99 69.97 139.99 100 151.49 100 191.48"/>
          <polygon class="cls-5" points="130.03 179.99 100 191.48 100 151.49 130.03 139.99 130.03 179.99"/>
          <polygon class="cls-2" points="113.1 186.47 120.53 183.62 120.53 143.63 113.1 146.47 113.1 186.47"/>
          <polygon class="cls-2" points="113.1 146.47 120.53 143.63 89.12 132.67 81.69 135.52 113.1 146.47"/>
          <polygon class="cls-2" points="79.62 183.68 87.05 186.52 87.05 146.53 79.62 143.69 79.62 183.68"/>
          <polygon class="cls-2" points="79.62 143.69 87.05 146.53 116.4 134.73 108.97 131.89 79.62 143.69"/>
          <g>
            <path class="cls-2" d="M115.55,144.1c-.4-.17,4.41,1.31,9.1-4.55,1.22-1.52,3.04-4.41,1.8-6.78-4.7-8.98-16.52-.91-22.76,3.8l-2.55,2.84s2.52.62,5.56-.09c2.85-.67,6.15-2.69,8.94-2.03,5.76,1.38-.09,6.81-.09,6.81Z"/>
            <path class="cls-2" d="M121.06,140.93c-.38,3.54-5.91,4.34-10.83,2.41-4.92-1.92-9.1-3.93-9.1-3.93,0,0,2.7-.33,6.39-1.33,1.4-.38,3.72-1.56,5.33-1.98,4.09-1.06,8.51,2,8.21,4.83Z"/>
            <path class="cls-2" d="M80.04,123.51c1.31-1.55,3-.69,5.52-1.5,2.26-.72,4.12-2.6,5.88-2.16,3.9.97,8.41,8.93,8.91,16.73l-4.6,1.99s-3.26-7.92-8.06-11.38c-4.8-3.47-7.64-3.68-7.64-3.68Z"/>
            <path class="cls-2" d="M81.43,123.01c-4.71.88-1.01,8.57,4.4,10.81,4.88,2.02,9.91,4.75,9.91,4.75,0,0-2.51-4.98-4.71-8.05-3.07-4.28-5.99-8.19-9.6-7.51Z"/>
            <path class="cls-2" d="M95.28,137.88c-.62-2.28,1.71-4.21,4.35-4.12,2.63.1,1.78.92,1.78.92,1.21-.31,3.37-.54,3.65.9-1.03.59-2.03,2-3.24,3.34-2.03,2.26-2.63,1.32-4.1.9-1.47-.42-2.17-.93-2.44-1.95Z"/>
            <path class="cls-2" d="M98.83,136.51c.47-.84,1.16-1.61,2.59-1.83"/>
          </g>
        </g>
        <path class="cls-5" d="M135.11,158.11c-1.8-1.2-12.23-4.4-11.32-.35.41,1.79,3.77,2.9,5.3,3.79,1.93,1.12,3.53,2.65,3.53,2.65,0,0-2.49-.95-4.75-1.62-2.73-.81-7.81-3.05-8.19.48-.32,2.9,6.39,3.36,8.65,4.54,1.45.76,4.17,1.83,4.17,1.83,0,0-2.59-1.14-4.17-1.83-2.71-1.19-9.66-2.2-9.4.44.32,3.22,5.22,3.16,7.38,4.35,1.79.99,3.99,1.73,3.99,1.73,0,0-2.58-.54-4.81-1.1-2.02-.5-5.68-1.55-5.68,1.01s3.64,3.48,5.47,4.87c1.98,1.5,3.43,2.77,3.43,2.77,0,0,5.71,7.27,9.34-1.07,1.36-3.13,2.09-6.51,2.15-9.78.1-5.45-2.58-11.04-5.09-12.71Z"/>
        <path class="cls-5" d="M67.54,158.11c1.8-1.2,12.23-4.4,11.32-.35-.41,1.79-3.77,2.9-5.3,3.79-1.93,1.12-3.53,2.65-3.53,2.65,0,0,2.49-.95,4.75-1.62,2.73-.81,7.81-3.05,8.19.48.32,2.9-6.39,3.36-8.65,4.54-1.45.76-4.17,1.83-4.17,1.83,0,0,2.59-1.14,4.17-1.83,2.71-1.19,9.66-2.2,9.4.44-.32,3.22-5.22,3.16-7.38,4.35-1.79.99-3.99,1.73-3.99,1.73,0,0,2.58-.54,4.81-1.1,2.02-.5,5.68-1.55,5.68,1.01s-3.64,3.48-5.47,4.87c-1.98,1.5-3.43,2.77-3.43,2.77,0,0-5.71,7.27-9.34-1.07-1.36-3.13-2.09-6.51-2.15-9.78-.1-5.45,2.58-11.04,5.09-12.71Z"/>
      </g>
    </g>
  </g>
</svg>